%TF.GenerationSoftware,KiCad,Pcbnew,(6.0.9)*%
%TF.CreationDate,2023-07-20T16:52:18+02:00*%
%TF.ProjectId,plcc32-adapter-board,706c6363-3332-42d6-9164-61707465722d,rev?*%
%TF.SameCoordinates,Original*%
%TF.FileFunction,Legend,Top*%
%TF.FilePolarity,Positive*%
%FSLAX46Y46*%
G04 Gerber Fmt 4.6, Leading zero omitted, Abs format (unit mm)*
G04 Created by KiCad (PCBNEW (6.0.9)) date 2023-07-20 16:52:18*
%MOMM*%
%LPD*%
G01*
G04 APERTURE LIST*
%ADD10C,0.150000*%
%ADD11C,0.300000*%
%ADD12C,0.010000*%
%ADD13C,0.120000*%
G04 APERTURE END LIST*
D10*
X24463809Y-82843714D02*
X24463809Y-83700857D01*
X24416190Y-83796095D01*
X24320952Y-83843714D01*
X24273333Y-83843714D01*
X24463809Y-82510380D02*
X24416190Y-82558000D01*
X24463809Y-82605619D01*
X24511428Y-82558000D01*
X24463809Y-82510380D01*
X24463809Y-82605619D01*
X25082857Y-83510380D02*
X24987619Y-83462761D01*
X24940000Y-83367523D01*
X24940000Y-82510380D01*
X25892380Y-83462761D02*
X25797142Y-83510380D01*
X25606666Y-83510380D01*
X25511428Y-83462761D01*
X25463809Y-83415142D01*
X25416190Y-83319904D01*
X25416190Y-83034190D01*
X25463809Y-82938952D01*
X25511428Y-82891333D01*
X25606666Y-82843714D01*
X25797142Y-82843714D01*
X25892380Y-82891333D01*
X26320952Y-82843714D02*
X26320952Y-83700857D01*
X26273333Y-83796095D01*
X26178095Y-83843714D01*
X26130476Y-83843714D01*
X26320952Y-82510380D02*
X26273333Y-82558000D01*
X26320952Y-82605619D01*
X26368571Y-82558000D01*
X26320952Y-82510380D01*
X26320952Y-82605619D01*
X26940000Y-83510380D02*
X26844761Y-83462761D01*
X26797142Y-83367523D01*
X26797142Y-82510380D01*
X27749523Y-83462761D02*
X27654285Y-83510380D01*
X27463809Y-83510380D01*
X27368571Y-83462761D01*
X27320952Y-83415142D01*
X27273333Y-83319904D01*
X27273333Y-83034190D01*
X27320952Y-82938952D01*
X27368571Y-82891333D01*
X27463809Y-82843714D01*
X27654285Y-82843714D01*
X27749523Y-82891333D01*
X28178095Y-82843714D02*
X28178095Y-83700857D01*
X28130476Y-83796095D01*
X28035238Y-83843714D01*
X27987619Y-83843714D01*
X28178095Y-82510380D02*
X28130476Y-82558000D01*
X28178095Y-82605619D01*
X28225714Y-82558000D01*
X28178095Y-82510380D01*
X28178095Y-82605619D01*
X28797142Y-83510380D02*
X28701904Y-83462761D01*
X28654285Y-83367523D01*
X28654285Y-82510380D01*
X29606666Y-83462761D02*
X29511428Y-83510380D01*
X29320952Y-83510380D01*
X29225714Y-83462761D01*
X29178095Y-83415142D01*
X29130476Y-83319904D01*
X29130476Y-83034190D01*
X29178095Y-82938952D01*
X29225714Y-82891333D01*
X29320952Y-82843714D01*
X29511428Y-82843714D01*
X29606666Y-82891333D01*
X30035238Y-82843714D02*
X30035238Y-83700857D01*
X29987619Y-83796095D01*
X29892380Y-83843714D01*
X29844761Y-83843714D01*
X30035238Y-82510380D02*
X29987619Y-82558000D01*
X30035238Y-82605619D01*
X30082857Y-82558000D01*
X30035238Y-82510380D01*
X30035238Y-82605619D01*
X30654285Y-83510380D02*
X30559047Y-83462761D01*
X30511428Y-83367523D01*
X30511428Y-82510380D01*
X31463809Y-83462761D02*
X31368571Y-83510380D01*
X31178095Y-83510380D01*
X31082857Y-83462761D01*
X31035238Y-83415142D01*
X30987619Y-83319904D01*
X30987619Y-83034190D01*
X31035238Y-82938952D01*
X31082857Y-82891333D01*
X31178095Y-82843714D01*
X31368571Y-82843714D01*
X31463809Y-82891333D01*
D11*
X35081238Y-25309190D02*
X37081238Y-25309190D01*
X37081238Y-25785380D01*
X36986000Y-26071095D01*
X36795523Y-26261571D01*
X36605047Y-26356809D01*
X36224095Y-26452047D01*
X35938380Y-26452047D01*
X35557428Y-26356809D01*
X35366952Y-26261571D01*
X35176476Y-26071095D01*
X35081238Y-25785380D01*
X35081238Y-25309190D01*
X35081238Y-27309190D02*
X37081238Y-27309190D01*
X35081238Y-28261571D02*
X37081238Y-28261571D01*
X37081238Y-29023476D01*
X36986000Y-29213952D01*
X36890761Y-29309190D01*
X36700285Y-29404428D01*
X36414571Y-29404428D01*
X36224095Y-29309190D01*
X36128857Y-29213952D01*
X36033619Y-29023476D01*
X36033619Y-28261571D01*
X35843142Y-30261571D02*
X35843142Y-31785380D01*
X37081238Y-32547285D02*
X37081238Y-33785380D01*
X36319333Y-33118714D01*
X36319333Y-33404428D01*
X36224095Y-33594904D01*
X36128857Y-33690142D01*
X35938380Y-33785380D01*
X35462190Y-33785380D01*
X35271714Y-33690142D01*
X35176476Y-33594904D01*
X35081238Y-33404428D01*
X35081238Y-32833000D01*
X35176476Y-32642523D01*
X35271714Y-32547285D01*
X36890761Y-34547285D02*
X36986000Y-34642523D01*
X37081238Y-34833000D01*
X37081238Y-35309190D01*
X36986000Y-35499666D01*
X36890761Y-35594904D01*
X36700285Y-35690142D01*
X36509809Y-35690142D01*
X36224095Y-35594904D01*
X35081238Y-34452047D01*
X35081238Y-35690142D01*
X36414571Y-37785380D02*
X36414571Y-38547285D01*
X37081238Y-38071095D02*
X35366952Y-38071095D01*
X35176476Y-38166333D01*
X35081238Y-38356809D01*
X35081238Y-38547285D01*
X35081238Y-39499666D02*
X35176476Y-39309190D01*
X35271714Y-39213952D01*
X35462190Y-39118714D01*
X36033619Y-39118714D01*
X36224095Y-39213952D01*
X36319333Y-39309190D01*
X36414571Y-39499666D01*
X36414571Y-39785380D01*
X36319333Y-39975857D01*
X36224095Y-40071095D01*
X36033619Y-40166333D01*
X35462190Y-40166333D01*
X35271714Y-40071095D01*
X35176476Y-39975857D01*
X35081238Y-39785380D01*
X35081238Y-39499666D01*
X35081238Y-42547285D02*
X37081238Y-42547285D01*
X37081238Y-43309190D01*
X36986000Y-43499666D01*
X36890761Y-43594904D01*
X36700285Y-43690142D01*
X36414571Y-43690142D01*
X36224095Y-43594904D01*
X36128857Y-43499666D01*
X36033619Y-43309190D01*
X36033619Y-42547285D01*
X35081238Y-45499666D02*
X35081238Y-44547285D01*
X37081238Y-44547285D01*
X35271714Y-47309190D02*
X35176476Y-47213952D01*
X35081238Y-46928238D01*
X35081238Y-46737761D01*
X35176476Y-46452047D01*
X35366952Y-46261571D01*
X35557428Y-46166333D01*
X35938380Y-46071095D01*
X36224095Y-46071095D01*
X36605047Y-46166333D01*
X36795523Y-46261571D01*
X36985999Y-46452047D01*
X37081238Y-46737761D01*
X37081238Y-46928238D01*
X36985999Y-47213952D01*
X36890761Y-47309190D01*
X35271714Y-49309190D02*
X35176476Y-49213952D01*
X35081238Y-48928238D01*
X35081238Y-48737761D01*
X35176476Y-48452047D01*
X35366952Y-48261571D01*
X35557428Y-48166333D01*
X35938380Y-48071095D01*
X36224095Y-48071095D01*
X36605047Y-48166333D01*
X36795523Y-48261571D01*
X36985999Y-48452047D01*
X37081238Y-48737761D01*
X37081238Y-48928238D01*
X36985999Y-49213952D01*
X36890761Y-49309190D01*
X37081238Y-49975857D02*
X37081238Y-51213952D01*
X36319333Y-50547285D01*
X36319333Y-50833000D01*
X36224095Y-51023476D01*
X36128857Y-51118714D01*
X35938380Y-51213952D01*
X35462190Y-51213952D01*
X35271714Y-51118714D01*
X35176476Y-51023476D01*
X35081238Y-50833000D01*
X35081238Y-50261571D01*
X35176476Y-50071095D01*
X35271714Y-49975857D01*
X36890761Y-51975857D02*
X36985999Y-52071095D01*
X37081238Y-52261571D01*
X37081238Y-52737761D01*
X36985999Y-52928238D01*
X36890761Y-53023476D01*
X36700285Y-53118714D01*
X36509809Y-53118714D01*
X36224095Y-53023476D01*
X35081238Y-51880619D01*
X35081238Y-53118714D01*
X32432666Y-25213952D02*
X32432666Y-26166333D01*
X31861238Y-25023476D02*
X33861238Y-25690142D01*
X31861238Y-26356809D01*
X31861238Y-27880619D02*
X33861238Y-27880619D01*
X31956476Y-27880619D02*
X31861238Y-27690142D01*
X31861238Y-27309190D01*
X31956476Y-27118714D01*
X32051714Y-27023476D01*
X32242190Y-26928238D01*
X32813619Y-26928238D01*
X33004095Y-27023476D01*
X33099333Y-27118714D01*
X33194571Y-27309190D01*
X33194571Y-27690142D01*
X33099333Y-27880619D01*
X31861238Y-29690142D02*
X32908857Y-29690142D01*
X33099333Y-29594904D01*
X33194571Y-29404428D01*
X33194571Y-29023476D01*
X33099333Y-28833000D01*
X31956476Y-29690142D02*
X31861238Y-29499666D01*
X31861238Y-29023476D01*
X31956476Y-28833000D01*
X32146952Y-28737761D01*
X32337428Y-28737761D01*
X32527904Y-28833000D01*
X32623142Y-29023476D01*
X32623142Y-29499666D01*
X32718380Y-29690142D01*
X33194571Y-30642523D02*
X31194571Y-30642523D01*
X33099333Y-30642523D02*
X33194571Y-30833000D01*
X33194571Y-31213952D01*
X33099333Y-31404428D01*
X33004095Y-31499666D01*
X32813619Y-31594904D01*
X32242190Y-31594904D01*
X32051714Y-31499666D01*
X31956476Y-31404428D01*
X31861238Y-31213952D01*
X31861238Y-30833000D01*
X31956476Y-30642523D01*
X33194571Y-32166333D02*
X33194571Y-32928238D01*
X33861238Y-32452047D02*
X32146952Y-32452047D01*
X31956476Y-32547285D01*
X31861238Y-32737761D01*
X31861238Y-32928238D01*
X31956476Y-34356809D02*
X31861238Y-34166333D01*
X31861238Y-33785380D01*
X31956476Y-33594904D01*
X32146952Y-33499666D01*
X32908857Y-33499666D01*
X33099333Y-33594904D01*
X33194571Y-33785380D01*
X33194571Y-34166333D01*
X33099333Y-34356809D01*
X32908857Y-34452047D01*
X32718380Y-34452047D01*
X32527904Y-33499666D01*
X31861238Y-35309190D02*
X33194571Y-35309190D01*
X32813619Y-35309190D02*
X33004095Y-35404428D01*
X33099333Y-35499666D01*
X33194571Y-35690142D01*
X33194571Y-35880619D01*
X31861238Y-38071095D02*
X33861238Y-38071095D01*
X33099333Y-38071095D02*
X33194571Y-38261571D01*
X33194571Y-38642523D01*
X33099333Y-38833000D01*
X33004095Y-38928238D01*
X32813619Y-39023476D01*
X32242190Y-39023476D01*
X32051714Y-38928238D01*
X31956476Y-38833000D01*
X31861238Y-38642523D01*
X31861238Y-38261571D01*
X31956476Y-38071095D01*
X31861238Y-40166333D02*
X31956476Y-39975857D01*
X32051714Y-39880619D01*
X32242190Y-39785380D01*
X32813619Y-39785380D01*
X33004095Y-39880619D01*
X33099333Y-39975857D01*
X33194571Y-40166333D01*
X33194571Y-40452047D01*
X33099333Y-40642523D01*
X33004095Y-40737761D01*
X32813619Y-40833000D01*
X32242190Y-40833000D01*
X32051714Y-40737761D01*
X31956476Y-40642523D01*
X31861238Y-40452047D01*
X31861238Y-40166333D01*
X31861238Y-42547285D02*
X32908857Y-42547285D01*
X33099333Y-42452047D01*
X33194571Y-42261571D01*
X33194571Y-41880619D01*
X33099333Y-41690142D01*
X31956476Y-42547285D02*
X31861238Y-42356809D01*
X31861238Y-41880619D01*
X31956476Y-41690142D01*
X32146952Y-41594904D01*
X32337428Y-41594904D01*
X32527904Y-41690142D01*
X32623142Y-41880619D01*
X32623142Y-42356809D01*
X32718380Y-42547285D01*
X31861238Y-43499666D02*
X33194571Y-43499666D01*
X32813619Y-43499666D02*
X33004095Y-43594904D01*
X33099333Y-43690142D01*
X33194571Y-43880619D01*
X33194571Y-44071095D01*
X31861238Y-45594904D02*
X33861238Y-45594904D01*
X31956476Y-45594904D02*
X31861238Y-45404428D01*
X31861238Y-45023476D01*
X31956476Y-44833000D01*
X32051714Y-44737761D01*
X32242190Y-44642523D01*
X32813619Y-44642523D01*
X33004095Y-44737761D01*
X33099333Y-44833000D01*
X33194571Y-45023476D01*
X33194571Y-45404428D01*
X33099333Y-45594904D01*
X29974571Y-25118714D02*
X28641238Y-25594904D01*
X29974571Y-26071095D01*
X28641238Y-27880619D02*
X28641238Y-26737761D01*
X28641238Y-27309190D02*
X30641238Y-27309190D01*
X30355523Y-27118714D01*
X30165047Y-26928238D01*
X30069809Y-26737761D01*
X28831714Y-28737761D02*
X28736476Y-28833000D01*
X28641238Y-28737761D01*
X28736476Y-28642523D01*
X28831714Y-28737761D01*
X28641238Y-28737761D01*
X30641238Y-30071095D02*
X30641238Y-30261571D01*
X30546000Y-30452047D01*
X30450761Y-30547285D01*
X30260285Y-30642523D01*
X29879333Y-30737761D01*
X29403142Y-30737761D01*
X29022190Y-30642523D01*
X28831714Y-30547285D01*
X28736476Y-30452047D01*
X28641238Y-30261571D01*
X28641238Y-30071095D01*
X28736476Y-29880619D01*
X28831714Y-29785380D01*
X29022190Y-29690142D01*
X29403142Y-29594904D01*
X29879333Y-29594904D01*
X30260285Y-29690142D01*
X30450761Y-29785380D01*
X30546000Y-29880619D01*
X30641238Y-30071095D01*
D10*
X23368000Y-20320000D02*
X22860000Y-20828000D01*
X23368000Y-20320000D02*
X22860000Y-19812000D01*
X21336000Y-20320000D02*
X23368000Y-20320000D01*
%TO.C,J2*%
X32691666Y-61812380D02*
X32691666Y-62526666D01*
X32644047Y-62669523D01*
X32548809Y-62764761D01*
X32405952Y-62812380D01*
X32310714Y-62812380D01*
X33120238Y-61907619D02*
X33167857Y-61860000D01*
X33263095Y-61812380D01*
X33501190Y-61812380D01*
X33596428Y-61860000D01*
X33644047Y-61907619D01*
X33691666Y-62002857D01*
X33691666Y-62098095D01*
X33644047Y-62240952D01*
X33072619Y-62812380D01*
X33691666Y-62812380D01*
X30400952Y-86812380D02*
X30400952Y-85812380D01*
X30781904Y-85812380D01*
X30877142Y-85860000D01*
X30924761Y-85907619D01*
X30972380Y-86002857D01*
X30972380Y-86145714D01*
X30924761Y-86240952D01*
X30877142Y-86288571D01*
X30781904Y-86336190D01*
X30400952Y-86336190D01*
X31877142Y-86812380D02*
X31400952Y-86812380D01*
X31400952Y-85812380D01*
X32781904Y-86717142D02*
X32734285Y-86764761D01*
X32591428Y-86812380D01*
X32496190Y-86812380D01*
X32353333Y-86764761D01*
X32258095Y-86669523D01*
X32210476Y-86574285D01*
X32162857Y-86383809D01*
X32162857Y-86240952D01*
X32210476Y-86050476D01*
X32258095Y-85955238D01*
X32353333Y-85860000D01*
X32496190Y-85812380D01*
X32591428Y-85812380D01*
X32734285Y-85860000D01*
X32781904Y-85907619D01*
X33781904Y-86717142D02*
X33734285Y-86764761D01*
X33591428Y-86812380D01*
X33496190Y-86812380D01*
X33353333Y-86764761D01*
X33258095Y-86669523D01*
X33210476Y-86574285D01*
X33162857Y-86383809D01*
X33162857Y-86240952D01*
X33210476Y-86050476D01*
X33258095Y-85955238D01*
X33353333Y-85860000D01*
X33496190Y-85812380D01*
X33591428Y-85812380D01*
X33734285Y-85860000D01*
X33781904Y-85907619D01*
X34115238Y-85812380D02*
X34734285Y-85812380D01*
X34400952Y-86193333D01*
X34543809Y-86193333D01*
X34639047Y-86240952D01*
X34686666Y-86288571D01*
X34734285Y-86383809D01*
X34734285Y-86621904D01*
X34686666Y-86717142D01*
X34639047Y-86764761D01*
X34543809Y-86812380D01*
X34258095Y-86812380D01*
X34162857Y-86764761D01*
X34115238Y-86717142D01*
X35115238Y-85907619D02*
X35162857Y-85860000D01*
X35258095Y-85812380D01*
X35496190Y-85812380D01*
X35591428Y-85860000D01*
X35639047Y-85907619D01*
X35686666Y-86002857D01*
X35686666Y-86098095D01*
X35639047Y-86240952D01*
X35067619Y-86812380D01*
X35686666Y-86812380D01*
%TO.C,J1*%
X32686666Y-17442380D02*
X32686666Y-18156666D01*
X32639047Y-18299523D01*
X32543809Y-18394761D01*
X32400952Y-18442380D01*
X32305714Y-18442380D01*
X33686666Y-18442380D02*
X33115238Y-18442380D01*
X33400952Y-18442380D02*
X33400952Y-17442380D01*
X33305714Y-17585238D01*
X33210476Y-17680476D01*
X33115238Y-17728095D01*
%TO.C,REF\u002A\u002A*%
G36*
X29534242Y-51098226D02*
G01*
X29546718Y-51130059D01*
X29551086Y-51148683D01*
X29537282Y-51153458D01*
X29498714Y-51157921D01*
X29439644Y-51161775D01*
X29364337Y-51164722D01*
X29300714Y-51166143D01*
X29050343Y-51170114D01*
X29045444Y-51204759D01*
X29048869Y-51236268D01*
X29059959Y-51251708D01*
X29080692Y-51256023D01*
X29124855Y-51259708D01*
X29186854Y-51262469D01*
X29261091Y-51264012D01*
X29299294Y-51264235D01*
X29519217Y-51264457D01*
X29535151Y-51310166D01*
X29545985Y-51342518D01*
X29551038Y-51360115D01*
X29551086Y-51360623D01*
X29537352Y-51362388D01*
X29499270Y-51364329D01*
X29441518Y-51366282D01*
X29368773Y-51368084D01*
X29300714Y-51369343D01*
X29050343Y-51373314D01*
X29050343Y-51460400D01*
X29278760Y-51464396D01*
X29507178Y-51468392D01*
X29529132Y-51510847D01*
X29544207Y-51542192D01*
X29551049Y-51560744D01*
X29551086Y-51561279D01*
X29537337Y-51563833D01*
X29499150Y-51566048D01*
X29441114Y-51567784D01*
X29367820Y-51568899D01*
X29290945Y-51569257D01*
X29030804Y-51569257D01*
X28984873Y-51523326D01*
X28956571Y-51491675D01*
X28945107Y-51463890D01*
X28945832Y-51425915D01*
X28947679Y-51410840D01*
X28953052Y-51363726D01*
X28956131Y-51324756D01*
X28956415Y-51315257D01*
X28954555Y-51283233D01*
X28949886Y-51237432D01*
X28947679Y-51219674D01*
X28944265Y-51176057D01*
X28951680Y-51146745D01*
X28974573Y-51117680D01*
X28984873Y-51107188D01*
X29030804Y-51061257D01*
X29517398Y-51061257D01*
X29534242Y-51098226D01*
G37*
D12*
X29534242Y-51098226D02*
X29546718Y-51130059D01*
X29551086Y-51148683D01*
X29537282Y-51153458D01*
X29498714Y-51157921D01*
X29439644Y-51161775D01*
X29364337Y-51164722D01*
X29300714Y-51166143D01*
X29050343Y-51170114D01*
X29045444Y-51204759D01*
X29048869Y-51236268D01*
X29059959Y-51251708D01*
X29080692Y-51256023D01*
X29124855Y-51259708D01*
X29186854Y-51262469D01*
X29261091Y-51264012D01*
X29299294Y-51264235D01*
X29519217Y-51264457D01*
X29535151Y-51310166D01*
X29545985Y-51342518D01*
X29551038Y-51360115D01*
X29551086Y-51360623D01*
X29537352Y-51362388D01*
X29499270Y-51364329D01*
X29441518Y-51366282D01*
X29368773Y-51368084D01*
X29300714Y-51369343D01*
X29050343Y-51373314D01*
X29050343Y-51460400D01*
X29278760Y-51464396D01*
X29507178Y-51468392D01*
X29529132Y-51510847D01*
X29544207Y-51542192D01*
X29551049Y-51560744D01*
X29551086Y-51561279D01*
X29537337Y-51563833D01*
X29499150Y-51566048D01*
X29441114Y-51567784D01*
X29367820Y-51568899D01*
X29290945Y-51569257D01*
X29030804Y-51569257D01*
X28984873Y-51523326D01*
X28956571Y-51491675D01*
X28945107Y-51463890D01*
X28945832Y-51425915D01*
X28947679Y-51410840D01*
X28953052Y-51363726D01*
X28956131Y-51324756D01*
X28956415Y-51315257D01*
X28954555Y-51283233D01*
X28949886Y-51237432D01*
X28947679Y-51219674D01*
X28944265Y-51176057D01*
X28951680Y-51146745D01*
X28974573Y-51117680D01*
X28984873Y-51107188D01*
X29030804Y-51061257D01*
X29517398Y-51061257D01*
X29534242Y-51098226D01*
G36*
X29387841Y-46521096D02*
G01*
X29424051Y-46526068D01*
X29450701Y-46534713D01*
X29474278Y-46548005D01*
X29478662Y-46550943D01*
X29537751Y-46600313D01*
X29572053Y-46654109D01*
X29585669Y-46719602D01*
X29586335Y-46741842D01*
X29574038Y-46825115D01*
X29538267Y-46893145D01*
X29480699Y-46943351D01*
X29443688Y-46961185D01*
X29388118Y-46975063D01*
X29317904Y-46982167D01*
X29241273Y-46982840D01*
X29166448Y-46977427D01*
X29101658Y-46966270D01*
X29055127Y-46949714D01*
X29047113Y-46944626D01*
X28987293Y-46884355D01*
X28951465Y-46812769D01*
X28940980Y-46735092D01*
X28942612Y-46727186D01*
X29076320Y-46727186D01*
X29077452Y-46760903D01*
X29098984Y-46794995D01*
X29121971Y-46815329D01*
X29155522Y-46827371D01*
X29208431Y-46834134D01*
X29214601Y-46834598D01*
X29310487Y-46835752D01*
X29381701Y-46823688D01*
X29427806Y-46798570D01*
X29448365Y-46760560D01*
X29449486Y-46746992D01*
X29443848Y-46711364D01*
X29424314Y-46686994D01*
X29386958Y-46672093D01*
X29327850Y-46664875D01*
X29265808Y-46663429D01*
X29199570Y-46664273D01*
X29155614Y-46667596D01*
X29127221Y-46674583D01*
X29107675Y-46686416D01*
X29101143Y-46692457D01*
X29076320Y-46727186D01*
X28942612Y-46727186D01*
X28957190Y-46656548D01*
X28966908Y-46634689D01*
X28996857Y-46592122D01*
X29036567Y-46554763D01*
X29041603Y-46551232D01*
X29065876Y-46536881D01*
X29091822Y-46527394D01*
X29125978Y-46521790D01*
X29174881Y-46519086D01*
X29245065Y-46518299D01*
X29260800Y-46518286D01*
X29265808Y-46518322D01*
X29335587Y-46518826D01*
X29387841Y-46521096D01*
G37*
X29387841Y-46521096D02*
X29424051Y-46526068D01*
X29450701Y-46534713D01*
X29474278Y-46548005D01*
X29478662Y-46550943D01*
X29537751Y-46600313D01*
X29572053Y-46654109D01*
X29585669Y-46719602D01*
X29586335Y-46741842D01*
X29574038Y-46825115D01*
X29538267Y-46893145D01*
X29480699Y-46943351D01*
X29443688Y-46961185D01*
X29388118Y-46975063D01*
X29317904Y-46982167D01*
X29241273Y-46982840D01*
X29166448Y-46977427D01*
X29101658Y-46966270D01*
X29055127Y-46949714D01*
X29047113Y-46944626D01*
X28987293Y-46884355D01*
X28951465Y-46812769D01*
X28940980Y-46735092D01*
X28942612Y-46727186D01*
X29076320Y-46727186D01*
X29077452Y-46760903D01*
X29098984Y-46794995D01*
X29121971Y-46815329D01*
X29155522Y-46827371D01*
X29208431Y-46834134D01*
X29214601Y-46834598D01*
X29310487Y-46835752D01*
X29381701Y-46823688D01*
X29427806Y-46798570D01*
X29448365Y-46760560D01*
X29449486Y-46746992D01*
X29443848Y-46711364D01*
X29424314Y-46686994D01*
X29386958Y-46672093D01*
X29327850Y-46664875D01*
X29265808Y-46663429D01*
X29199570Y-46664273D01*
X29155614Y-46667596D01*
X29127221Y-46674583D01*
X29107675Y-46686416D01*
X29101143Y-46692457D01*
X29076320Y-46727186D01*
X28942612Y-46727186D01*
X28957190Y-46656548D01*
X28966908Y-46634689D01*
X28996857Y-46592122D01*
X29036567Y-46554763D01*
X29041603Y-46551232D01*
X29065876Y-46536881D01*
X29091822Y-46527394D01*
X29125978Y-46521790D01*
X29174881Y-46519086D01*
X29245065Y-46518299D01*
X29260800Y-46518286D01*
X29265808Y-46518322D01*
X29335587Y-46518826D01*
X29387841Y-46521096D01*
G36*
X29400616Y-52652196D02*
G01*
X29449305Y-52665884D01*
X29485151Y-52688096D01*
X29513487Y-52720574D01*
X29522645Y-52734733D01*
X29546493Y-52799053D01*
X29547994Y-52869473D01*
X29529034Y-52937595D01*
X29491503Y-52995021D01*
X29457904Y-53022719D01*
X29396936Y-53044662D01*
X29348692Y-53046405D01*
X29284184Y-53042457D01*
X29219066Y-52893686D01*
X29185798Y-52821349D01*
X29159036Y-52774084D01*
X29135856Y-52749507D01*
X29113333Y-52745237D01*
X29088545Y-52758889D01*
X29072114Y-52773943D01*
X29045765Y-52817746D01*
X29043919Y-52865389D01*
X29064454Y-52909145D01*
X29105248Y-52941289D01*
X29119653Y-52947038D01*
X29164644Y-52974576D01*
X29183818Y-53006258D01*
X29200221Y-53049714D01*
X29138034Y-53049714D01*
X29095717Y-53045872D01*
X29060031Y-53030823D01*
X29019057Y-52999280D01*
X29013733Y-52994592D01*
X28977280Y-52959506D01*
X28957717Y-52929347D01*
X28948717Y-52891615D01*
X28945770Y-52860335D01*
X28945035Y-52804385D01*
X28954340Y-52764555D01*
X28968154Y-52739708D01*
X28971384Y-52735556D01*
X29260800Y-52735556D01*
X29266335Y-52752274D01*
X29280983Y-52788249D01*
X29301810Y-52836331D01*
X29306286Y-52846386D01*
X29337186Y-52907152D01*
X29364343Y-52940632D01*
X29389780Y-52947990D01*
X29415519Y-52930391D01*
X29426891Y-52915856D01*
X29449636Y-52863410D01*
X29445878Y-52814322D01*
X29418116Y-52773227D01*
X29368848Y-52744758D01*
X29329743Y-52735631D01*
X29289753Y-52732007D01*
X29264874Y-52733023D01*
X29260800Y-52735556D01*
X28971384Y-52735556D01*
X28998533Y-52700656D01*
X29031387Y-52673625D01*
X29072706Y-52656517D01*
X29128479Y-52647238D01*
X29204695Y-52643693D01*
X29243378Y-52643410D01*
X29289753Y-52644372D01*
X29333751Y-52645285D01*
X29400616Y-52652196D01*
G37*
X29400616Y-52652196D02*
X29449305Y-52665884D01*
X29485151Y-52688096D01*
X29513487Y-52720574D01*
X29522645Y-52734733D01*
X29546493Y-52799053D01*
X29547994Y-52869473D01*
X29529034Y-52937595D01*
X29491503Y-52995021D01*
X29457904Y-53022719D01*
X29396936Y-53044662D01*
X29348692Y-53046405D01*
X29284184Y-53042457D01*
X29219066Y-52893686D01*
X29185798Y-52821349D01*
X29159036Y-52774084D01*
X29135856Y-52749507D01*
X29113333Y-52745237D01*
X29088545Y-52758889D01*
X29072114Y-52773943D01*
X29045765Y-52817746D01*
X29043919Y-52865389D01*
X29064454Y-52909145D01*
X29105248Y-52941289D01*
X29119653Y-52947038D01*
X29164644Y-52974576D01*
X29183818Y-53006258D01*
X29200221Y-53049714D01*
X29138034Y-53049714D01*
X29095717Y-53045872D01*
X29060031Y-53030823D01*
X29019057Y-52999280D01*
X29013733Y-52994592D01*
X28977280Y-52959506D01*
X28957717Y-52929347D01*
X28948717Y-52891615D01*
X28945770Y-52860335D01*
X28945035Y-52804385D01*
X28954340Y-52764555D01*
X28968154Y-52739708D01*
X28971384Y-52735556D01*
X29260800Y-52735556D01*
X29266335Y-52752274D01*
X29280983Y-52788249D01*
X29301810Y-52836331D01*
X29306286Y-52846386D01*
X29337186Y-52907152D01*
X29364343Y-52940632D01*
X29389780Y-52947990D01*
X29415519Y-52930391D01*
X29426891Y-52915856D01*
X29449636Y-52863410D01*
X29445878Y-52814322D01*
X29418116Y-52773227D01*
X29368848Y-52744758D01*
X29329743Y-52735631D01*
X29289753Y-52732007D01*
X29264874Y-52733023D01*
X29260800Y-52735556D01*
X28971384Y-52735556D01*
X28998533Y-52700656D01*
X29031387Y-52673625D01*
X29072706Y-52656517D01*
X29128479Y-52647238D01*
X29204695Y-52643693D01*
X29243378Y-52643410D01*
X29289753Y-52644372D01*
X29333751Y-52645285D01*
X29400616Y-52652196D01*
G36*
X29184611Y-48190141D02*
G01*
X29277481Y-48191971D01*
X29346111Y-48194112D01*
X29395289Y-48197181D01*
X29429802Y-48201794D01*
X29454438Y-48208568D01*
X29473984Y-48218119D01*
X29491230Y-48229634D01*
X29546320Y-48285190D01*
X29578178Y-48352980D01*
X29585809Y-48426713D01*
X29568220Y-48500093D01*
X29541277Y-48546672D01*
X29514534Y-48579057D01*
X29486516Y-48602742D01*
X29452252Y-48619059D01*
X29406773Y-48629339D01*
X29345108Y-48634914D01*
X29262289Y-48637116D01*
X29202754Y-48637371D01*
X28983609Y-48637371D01*
X28955956Y-48575686D01*
X28928303Y-48514000D01*
X29168330Y-48506743D01*
X29257972Y-48503744D01*
X29323038Y-48500598D01*
X29367974Y-48496701D01*
X29397230Y-48491447D01*
X29415252Y-48484231D01*
X29426489Y-48474450D01*
X29428921Y-48471312D01*
X29447917Y-48423761D01*
X29440400Y-48375697D01*
X29420457Y-48347086D01*
X29406325Y-48335447D01*
X29387780Y-48327391D01*
X29359666Y-48322271D01*
X29316827Y-48319441D01*
X29254105Y-48318256D01*
X29188739Y-48318057D01*
X29106732Y-48318018D01*
X29048684Y-48316614D01*
X29009535Y-48311914D01*
X28984220Y-48301987D01*
X28967677Y-48284903D01*
X28954844Y-48258732D01*
X28941509Y-48223775D01*
X28926993Y-48185596D01*
X29184611Y-48190141D01*
G37*
X29184611Y-48190141D02*
X29277481Y-48191971D01*
X29346111Y-48194112D01*
X29395289Y-48197181D01*
X29429802Y-48201794D01*
X29454438Y-48208568D01*
X29473984Y-48218119D01*
X29491230Y-48229634D01*
X29546320Y-48285190D01*
X29578178Y-48352980D01*
X29585809Y-48426713D01*
X29568220Y-48500093D01*
X29541277Y-48546672D01*
X29514534Y-48579057D01*
X29486516Y-48602742D01*
X29452252Y-48619059D01*
X29406773Y-48629339D01*
X29345108Y-48634914D01*
X29262289Y-48637116D01*
X29202754Y-48637371D01*
X28983609Y-48637371D01*
X28955956Y-48575686D01*
X28928303Y-48514000D01*
X29168330Y-48506743D01*
X29257972Y-48503744D01*
X29323038Y-48500598D01*
X29367974Y-48496701D01*
X29397230Y-48491447D01*
X29415252Y-48484231D01*
X29426489Y-48474450D01*
X29428921Y-48471312D01*
X29447917Y-48423761D01*
X29440400Y-48375697D01*
X29420457Y-48347086D01*
X29406325Y-48335447D01*
X29387780Y-48327391D01*
X29359666Y-48322271D01*
X29316827Y-48319441D01*
X29254105Y-48318256D01*
X29188739Y-48318057D01*
X29106732Y-48318018D01*
X29048684Y-48316614D01*
X29009535Y-48311914D01*
X28984220Y-48301987D01*
X28967677Y-48284903D01*
X28954844Y-48258732D01*
X28941509Y-48223775D01*
X28926993Y-48185596D01*
X29184611Y-48190141D01*
G36*
X29275953Y-52150692D02*
G01*
X29352968Y-52154070D01*
X29409977Y-52161142D01*
X29451474Y-52173088D01*
X29481957Y-52191090D01*
X29505920Y-52216327D01*
X29522645Y-52241247D01*
X29544903Y-52301171D01*
X29549924Y-52370911D01*
X29537248Y-52436600D01*
X29529666Y-52453948D01*
X29496872Y-52495356D01*
X29449453Y-52530765D01*
X29398849Y-52552664D01*
X29373902Y-52556229D01*
X29339073Y-52544279D01*
X29320643Y-52518067D01*
X29309484Y-52489964D01*
X29307428Y-52477095D01*
X29322351Y-52470829D01*
X29354825Y-52458456D01*
X29369498Y-52453028D01*
X29420256Y-52422590D01*
X29445573Y-52378520D01*
X29444794Y-52322010D01*
X29443797Y-52317825D01*
X29429493Y-52287655D01*
X29401607Y-52265476D01*
X29356713Y-52250327D01*
X29291385Y-52241250D01*
X29202196Y-52237286D01*
X29154739Y-52236914D01*
X29079929Y-52236730D01*
X29028931Y-52235522D01*
X28996529Y-52232309D01*
X28977505Y-52226109D01*
X28966644Y-52215940D01*
X28958728Y-52200819D01*
X28958330Y-52199946D01*
X28946019Y-52170828D01*
X28941486Y-52156403D01*
X28955191Y-52154186D01*
X28993075Y-52152289D01*
X29050285Y-52150847D01*
X29121973Y-52149998D01*
X29174435Y-52149829D01*
X29275953Y-52150692D01*
G37*
X29275953Y-52150692D02*
X29352968Y-52154070D01*
X29409977Y-52161142D01*
X29451474Y-52173088D01*
X29481957Y-52191090D01*
X29505920Y-52216327D01*
X29522645Y-52241247D01*
X29544903Y-52301171D01*
X29549924Y-52370911D01*
X29537248Y-52436600D01*
X29529666Y-52453948D01*
X29496872Y-52495356D01*
X29449453Y-52530765D01*
X29398849Y-52552664D01*
X29373902Y-52556229D01*
X29339073Y-52544279D01*
X29320643Y-52518067D01*
X29309484Y-52489964D01*
X29307428Y-52477095D01*
X29322351Y-52470829D01*
X29354825Y-52458456D01*
X29369498Y-52453028D01*
X29420256Y-52422590D01*
X29445573Y-52378520D01*
X29444794Y-52322010D01*
X29443797Y-52317825D01*
X29429493Y-52287655D01*
X29401607Y-52265476D01*
X29356713Y-52250327D01*
X29291385Y-52241250D01*
X29202196Y-52237286D01*
X29154739Y-52236914D01*
X29079929Y-52236730D01*
X29028931Y-52235522D01*
X28996529Y-52232309D01*
X28977505Y-52226109D01*
X28966644Y-52215940D01*
X28958728Y-52200819D01*
X28958330Y-52199946D01*
X28946019Y-52170828D01*
X28941486Y-52156403D01*
X28955191Y-52154186D01*
X28993075Y-52152289D01*
X29050285Y-52150847D01*
X29121973Y-52149998D01*
X29174435Y-52149829D01*
X29275953Y-52150692D01*
G36*
X29405914Y-50568726D02*
G01*
X29457400Y-50591135D01*
X29497557Y-50626124D01*
X29518139Y-50653375D01*
X29540375Y-50702907D01*
X29550696Y-50760316D01*
X29547933Y-50813682D01*
X29536788Y-50843543D01*
X29533617Y-50855261D01*
X29545443Y-50863037D01*
X29577134Y-50868465D01*
X29625407Y-50872571D01*
X29679171Y-50877067D01*
X29711518Y-50883313D01*
X29730015Y-50894676D01*
X29742230Y-50914528D01*
X29747638Y-50927000D01*
X29767399Y-50974171D01*
X29430642Y-50974117D01*
X29322163Y-50973933D01*
X29238713Y-50973219D01*
X29176296Y-50971675D01*
X29130915Y-50969001D01*
X29098571Y-50964894D01*
X29075267Y-50959055D01*
X29057005Y-50951182D01*
X29046582Y-50945221D01*
X28990055Y-50895855D01*
X28954623Y-50833264D01*
X28946259Y-50787701D01*
X29046581Y-50787701D01*
X29071295Y-50835276D01*
X29074644Y-50838979D01*
X29092065Y-50854783D01*
X29112791Y-50864693D01*
X29143638Y-50870058D01*
X29191423Y-50872228D01*
X29244252Y-50872571D01*
X29310619Y-50871827D01*
X29354894Y-50868748D01*
X29383991Y-50862061D01*
X29404827Y-50850496D01*
X29415893Y-50841013D01*
X29443802Y-50796960D01*
X29447157Y-50746224D01*
X29425841Y-50697796D01*
X29417927Y-50688450D01*
X29400353Y-50672540D01*
X29379413Y-50662610D01*
X29348218Y-50657278D01*
X29299878Y-50655163D01*
X29250353Y-50654857D01*
X29185450Y-50655476D01*
X29142486Y-50658314D01*
X29114378Y-50664840D01*
X29094047Y-50676523D01*
X29078712Y-50690483D01*
X29049110Y-50737365D01*
X29046581Y-50787701D01*
X28946259Y-50787701D01*
X28941910Y-50764013D01*
X28953537Y-50694668D01*
X28974432Y-50653375D01*
X29010578Y-50610025D01*
X29054724Y-50580481D01*
X29112538Y-50562655D01*
X29189687Y-50554463D01*
X29246286Y-50553302D01*
X29250353Y-50553458D01*
X29337432Y-50556810D01*
X29405914Y-50568726D01*
G37*
X29405914Y-50568726D02*
X29457400Y-50591135D01*
X29497557Y-50626124D01*
X29518139Y-50653375D01*
X29540375Y-50702907D01*
X29550696Y-50760316D01*
X29547933Y-50813682D01*
X29536788Y-50843543D01*
X29533617Y-50855261D01*
X29545443Y-50863037D01*
X29577134Y-50868465D01*
X29625407Y-50872571D01*
X29679171Y-50877067D01*
X29711518Y-50883313D01*
X29730015Y-50894676D01*
X29742230Y-50914528D01*
X29747638Y-50927000D01*
X29767399Y-50974171D01*
X29430642Y-50974117D01*
X29322163Y-50973933D01*
X29238713Y-50973219D01*
X29176296Y-50971675D01*
X29130915Y-50969001D01*
X29098571Y-50964894D01*
X29075267Y-50959055D01*
X29057005Y-50951182D01*
X29046582Y-50945221D01*
X28990055Y-50895855D01*
X28954623Y-50833264D01*
X28946259Y-50787701D01*
X29046581Y-50787701D01*
X29071295Y-50835276D01*
X29074644Y-50838979D01*
X29092065Y-50854783D01*
X29112791Y-50864693D01*
X29143638Y-50870058D01*
X29191423Y-50872228D01*
X29244252Y-50872571D01*
X29310619Y-50871827D01*
X29354894Y-50868748D01*
X29383991Y-50862061D01*
X29404827Y-50850496D01*
X29415893Y-50841013D01*
X29443802Y-50796960D01*
X29447157Y-50746224D01*
X29425841Y-50697796D01*
X29417927Y-50688450D01*
X29400353Y-50672540D01*
X29379413Y-50662610D01*
X29348218Y-50657278D01*
X29299878Y-50655163D01*
X29250353Y-50654857D01*
X29185450Y-50655476D01*
X29142486Y-50658314D01*
X29114378Y-50664840D01*
X29094047Y-50676523D01*
X29078712Y-50690483D01*
X29049110Y-50737365D01*
X29046581Y-50787701D01*
X28946259Y-50787701D01*
X28941910Y-50764013D01*
X28953537Y-50694668D01*
X28974432Y-50653375D01*
X29010578Y-50610025D01*
X29054724Y-50580481D01*
X29112538Y-50562655D01*
X29189687Y-50554463D01*
X29246286Y-50553302D01*
X29250353Y-50553458D01*
X29337432Y-50556810D01*
X29405914Y-50568726D01*
G36*
X29746556Y-49105457D02*
G01*
X29766453Y-49152629D01*
X29644711Y-49159886D01*
X29585387Y-49164139D01*
X29550428Y-49169025D01*
X29535180Y-49175795D01*
X29534985Y-49185702D01*
X29536805Y-49188914D01*
X29549985Y-49231644D01*
X29549215Y-49287227D01*
X29535667Y-49343737D01*
X29518139Y-49379082D01*
X29490139Y-49415321D01*
X29458451Y-49441813D01*
X29418187Y-49459999D01*
X29364457Y-49471322D01*
X29292374Y-49477222D01*
X29197049Y-49479143D01*
X29178763Y-49479177D01*
X28973354Y-49479200D01*
X28957420Y-49433491D01*
X28946580Y-49401027D01*
X28941532Y-49383215D01*
X28941486Y-49382691D01*
X28955172Y-49380937D01*
X28992924Y-49379444D01*
X29049776Y-49378326D01*
X29120766Y-49377697D01*
X29163927Y-49377600D01*
X29249027Y-49377398D01*
X29310019Y-49376358D01*
X29351823Y-49373831D01*
X29379358Y-49369164D01*
X29397544Y-49361707D01*
X29411302Y-49350811D01*
X29417927Y-49344007D01*
X29444625Y-49297272D01*
X29446625Y-49246272D01*
X29424045Y-49200001D01*
X29415893Y-49191444D01*
X29400564Y-49178893D01*
X29382382Y-49170188D01*
X29356091Y-49164631D01*
X29316438Y-49161526D01*
X29258168Y-49160176D01*
X29177827Y-49159886D01*
X28973354Y-49159886D01*
X28957420Y-49114177D01*
X28946580Y-49081713D01*
X28941532Y-49063901D01*
X28941486Y-49063377D01*
X28955377Y-49062037D01*
X28994561Y-49060828D01*
X29055300Y-49059801D01*
X29133859Y-49059002D01*
X29226502Y-49058481D01*
X29329491Y-49058286D01*
X29726658Y-49058286D01*
X29746556Y-49105457D01*
G37*
X29746556Y-49105457D02*
X29766453Y-49152629D01*
X29644711Y-49159886D01*
X29585387Y-49164139D01*
X29550428Y-49169025D01*
X29535180Y-49175795D01*
X29534985Y-49185702D01*
X29536805Y-49188914D01*
X29549985Y-49231644D01*
X29549215Y-49287227D01*
X29535667Y-49343737D01*
X29518139Y-49379082D01*
X29490139Y-49415321D01*
X29458451Y-49441813D01*
X29418187Y-49459999D01*
X29364457Y-49471322D01*
X29292374Y-49477222D01*
X29197049Y-49479143D01*
X29178763Y-49479177D01*
X28973354Y-49479200D01*
X28957420Y-49433491D01*
X28946580Y-49401027D01*
X28941532Y-49383215D01*
X28941486Y-49382691D01*
X28955172Y-49380937D01*
X28992924Y-49379444D01*
X29049776Y-49378326D01*
X29120766Y-49377697D01*
X29163927Y-49377600D01*
X29249027Y-49377398D01*
X29310019Y-49376358D01*
X29351823Y-49373831D01*
X29379358Y-49369164D01*
X29397544Y-49361707D01*
X29411302Y-49350811D01*
X29417927Y-49344007D01*
X29444625Y-49297272D01*
X29446625Y-49246272D01*
X29424045Y-49200001D01*
X29415893Y-49191444D01*
X29400564Y-49178893D01*
X29382382Y-49170188D01*
X29356091Y-49164631D01*
X29316438Y-49161526D01*
X29258168Y-49160176D01*
X29177827Y-49159886D01*
X28973354Y-49159886D01*
X28957420Y-49114177D01*
X28946580Y-49081713D01*
X28941532Y-49063901D01*
X28941486Y-49063377D01*
X28955377Y-49062037D01*
X28994561Y-49060828D01*
X29055300Y-49059801D01*
X29133859Y-49059002D01*
X29226502Y-49058481D01*
X29329491Y-49058286D01*
X29726658Y-49058286D01*
X29746556Y-49105457D01*
G36*
X29415918Y-49580496D02*
G01*
X29483673Y-49622675D01*
X29506339Y-49644624D01*
X29535431Y-49694517D01*
X29548600Y-49757967D01*
X29545032Y-49823744D01*
X29523913Y-49880616D01*
X29523507Y-49881267D01*
X29497620Y-49916440D01*
X29467367Y-49942407D01*
X29427942Y-49960670D01*
X29374538Y-49972732D01*
X29302349Y-49980096D01*
X29206568Y-49984264D01*
X29192922Y-49984629D01*
X28987158Y-49989876D01*
X28964322Y-49945716D01*
X28948890Y-49913763D01*
X28941577Y-49894470D01*
X28941486Y-49893578D01*
X28954978Y-49890239D01*
X28991374Y-49887587D01*
X29044548Y-49885956D01*
X29087607Y-49885600D01*
X29157359Y-49885592D01*
X29201163Y-49882403D01*
X29222056Y-49871288D01*
X29223075Y-49847501D01*
X29207259Y-49806296D01*
X29178185Y-49744086D01*
X29154037Y-49698341D01*
X29133087Y-49674813D01*
X29110253Y-49667896D01*
X29109123Y-49667886D01*
X29069788Y-49679299D01*
X29048538Y-49713092D01*
X29045461Y-49764809D01*
X29045994Y-49802061D01*
X29035265Y-49821703D01*
X29009495Y-49833952D01*
X28976663Y-49841002D01*
X28958034Y-49830842D01*
X28955368Y-49827017D01*
X28944660Y-49791001D01*
X28943144Y-49740566D01*
X28950241Y-49688626D01*
X28963212Y-49651822D01*
X29006415Y-49600938D01*
X29066554Y-49572014D01*
X29113538Y-49566286D01*
X29155918Y-49570657D01*
X29190512Y-49586475D01*
X29221237Y-49617797D01*
X29252010Y-49668678D01*
X29286748Y-49743176D01*
X29288712Y-49747714D01*
X29319713Y-49814821D01*
X29345138Y-49856232D01*
X29367986Y-49873981D01*
X29391255Y-49870107D01*
X29417944Y-49846643D01*
X29424086Y-49839627D01*
X29447900Y-49792630D01*
X29446897Y-49743933D01*
X29423549Y-49701522D01*
X29380325Y-49673384D01*
X29371840Y-49670769D01*
X29330692Y-49645308D01*
X29310872Y-49613001D01*
X29291230Y-49566286D01*
X29342050Y-49566286D01*
X29415918Y-49580496D01*
G37*
X29415918Y-49580496D02*
X29483673Y-49622675D01*
X29506339Y-49644624D01*
X29535431Y-49694517D01*
X29548600Y-49757967D01*
X29545032Y-49823744D01*
X29523913Y-49880616D01*
X29523507Y-49881267D01*
X29497620Y-49916440D01*
X29467367Y-49942407D01*
X29427942Y-49960670D01*
X29374538Y-49972732D01*
X29302349Y-49980096D01*
X29206568Y-49984264D01*
X29192922Y-49984629D01*
X28987158Y-49989876D01*
X28964322Y-49945716D01*
X28948890Y-49913763D01*
X28941577Y-49894470D01*
X28941486Y-49893578D01*
X28954978Y-49890239D01*
X28991374Y-49887587D01*
X29044548Y-49885956D01*
X29087607Y-49885600D01*
X29157359Y-49885592D01*
X29201163Y-49882403D01*
X29222056Y-49871288D01*
X29223075Y-49847501D01*
X29207259Y-49806296D01*
X29178185Y-49744086D01*
X29154037Y-49698341D01*
X29133087Y-49674813D01*
X29110253Y-49667896D01*
X29109123Y-49667886D01*
X29069788Y-49679299D01*
X29048538Y-49713092D01*
X29045461Y-49764809D01*
X29045994Y-49802061D01*
X29035265Y-49821703D01*
X29009495Y-49833952D01*
X28976663Y-49841002D01*
X28958034Y-49830842D01*
X28955368Y-49827017D01*
X28944660Y-49791001D01*
X28943144Y-49740566D01*
X28950241Y-49688626D01*
X28963212Y-49651822D01*
X29006415Y-49600938D01*
X29066554Y-49572014D01*
X29113538Y-49566286D01*
X29155918Y-49570657D01*
X29190512Y-49586475D01*
X29221237Y-49617797D01*
X29252010Y-49668678D01*
X29286748Y-49743176D01*
X29288712Y-49747714D01*
X29319713Y-49814821D01*
X29345138Y-49856232D01*
X29367986Y-49873981D01*
X29391255Y-49870107D01*
X29417944Y-49846643D01*
X29424086Y-49839627D01*
X29447900Y-49792630D01*
X29446897Y-49743933D01*
X29423549Y-49701522D01*
X29380325Y-49673384D01*
X29371840Y-49670769D01*
X29330692Y-49645308D01*
X29310872Y-49613001D01*
X29291230Y-49566286D01*
X29342050Y-49566286D01*
X29415918Y-49580496D01*
G36*
X32064846Y-47490914D02*
G01*
X32143787Y-47491616D01*
X32200962Y-47493134D01*
X32240001Y-47495749D01*
X32264535Y-47499746D01*
X32278195Y-47505409D01*
X32284611Y-47513020D01*
X32285801Y-47516143D01*
X32290020Y-47534978D01*
X32298438Y-47576588D01*
X32310039Y-47635630D01*
X32323805Y-47706757D01*
X32338720Y-47784625D01*
X32353768Y-47863887D01*
X32367931Y-47939198D01*
X32380194Y-48005213D01*
X32389539Y-48056587D01*
X32394950Y-48087975D01*
X32395886Y-48094959D01*
X32408404Y-48101285D01*
X32441754Y-48115290D01*
X32489623Y-48134355D01*
X32508371Y-48141634D01*
X32580805Y-48170996D01*
X32660830Y-48205571D01*
X32728272Y-48236537D01*
X32779841Y-48259323D01*
X32822215Y-48274482D01*
X32848166Y-48279542D01*
X32851644Y-48278736D01*
X32868064Y-48268041D01*
X32904583Y-48243620D01*
X32957313Y-48208095D01*
X33022365Y-48164087D01*
X33095849Y-48114217D01*
X33110355Y-48104356D01*
X33196296Y-48046492D01*
X33261739Y-48003956D01*
X33309696Y-47975054D01*
X33343180Y-47958090D01*
X33365205Y-47951367D01*
X33378783Y-47953190D01*
X33378869Y-47953236D01*
X33396703Y-47967586D01*
X33431183Y-47999323D01*
X33478732Y-48045010D01*
X33535778Y-48101204D01*
X33598745Y-48164468D01*
X33605773Y-48171602D01*
X33682980Y-48251330D01*
X33739670Y-48312857D01*
X33776890Y-48357421D01*
X33795685Y-48386257D01*
X33798111Y-48398958D01*
X33787529Y-48417494D01*
X33763084Y-48455961D01*
X33727388Y-48510386D01*
X33683053Y-48576798D01*
X33632689Y-48651225D01*
X33620840Y-48668601D01*
X33452374Y-48915297D01*
X33502938Y-49026706D01*
X33532405Y-49094457D01*
X33562041Y-49167183D01*
X33585670Y-49229703D01*
X33586642Y-49232457D01*
X33604543Y-49281360D01*
X33619680Y-49319057D01*
X33628790Y-49337425D01*
X33628816Y-49337456D01*
X33645283Y-49343285D01*
X33685781Y-49353192D01*
X33745758Y-49366195D01*
X33820660Y-49381309D01*
X33905936Y-49397552D01*
X33913125Y-49398881D01*
X34000986Y-49415175D01*
X34080740Y-49430133D01*
X34147319Y-49442791D01*
X34195653Y-49452186D01*
X34220675Y-49457354D01*
X34221057Y-49457444D01*
X34231701Y-49460589D01*
X34239738Y-49466704D01*
X34245533Y-49479453D01*
X34249453Y-49502500D01*
X34251865Y-49539509D01*
X34253135Y-49594144D01*
X34253629Y-49670067D01*
X34253714Y-49770944D01*
X34253714Y-49784000D01*
X34253652Y-49887910D01*
X34253222Y-49966454D01*
X34252058Y-50023298D01*
X34249793Y-50062105D01*
X34246060Y-50086538D01*
X34240494Y-50100262D01*
X34232727Y-50106940D01*
X34222395Y-50110236D01*
X34221057Y-50110556D01*
X34196921Y-50115562D01*
X34149299Y-50124829D01*
X34083259Y-50137392D01*
X34003872Y-50152287D01*
X33916204Y-50168551D01*
X33913125Y-50169119D01*
X33827211Y-50185410D01*
X33751304Y-50200652D01*
X33689955Y-50213861D01*
X33647718Y-50224054D01*
X33629145Y-50230248D01*
X33628816Y-50230543D01*
X33619747Y-50248788D01*
X33604633Y-50286405D01*
X33586738Y-50335271D01*
X33586642Y-50335543D01*
X33563507Y-50397093D01*
X33534035Y-50469657D01*
X33504403Y-50538057D01*
X33502938Y-50541294D01*
X33452374Y-50652702D01*
X33620840Y-50899399D01*
X33672197Y-50975077D01*
X33718111Y-51043631D01*
X33755970Y-51101088D01*
X33783163Y-51143476D01*
X33797079Y-51166825D01*
X33798111Y-51169042D01*
X33793516Y-51186010D01*
X33771345Y-51217701D01*
X33730553Y-51265352D01*
X33670095Y-51330198D01*
X33605773Y-51396397D01*
X33542388Y-51460214D01*
X33484549Y-51517329D01*
X33435825Y-51564305D01*
X33399790Y-51597703D01*
X33380016Y-51614085D01*
X33378998Y-51614694D01*
X33365428Y-51616505D01*
X33343267Y-51609683D01*
X33309522Y-51592540D01*
X33261200Y-51563393D01*
X33195308Y-51520555D01*
X33110483Y-51463448D01*
X33035823Y-51412766D01*
X32968860Y-51367461D01*
X32913484Y-51330150D01*
X32873580Y-51303452D01*
X32853038Y-51289985D01*
X32851644Y-51289137D01*
X32831962Y-51290781D01*
X32793707Y-51303245D01*
X32744111Y-51324048D01*
X32728272Y-51331462D01*
X32657710Y-51363814D01*
X32577647Y-51398328D01*
X32508371Y-51426365D01*
X32456955Y-51446568D01*
X32417881Y-51462615D01*
X32397459Y-51471888D01*
X32395886Y-51473041D01*
X32393279Y-51490096D01*
X32386137Y-51530298D01*
X32375477Y-51588302D01*
X32362315Y-51658763D01*
X32347667Y-51736335D01*
X32332551Y-51815672D01*
X32317982Y-51891431D01*
X32304978Y-51958264D01*
X32294555Y-52010828D01*
X32287730Y-52043776D01*
X32285801Y-52051857D01*
X32281038Y-52060205D01*
X32270282Y-52066506D01*
X32249902Y-52071045D01*
X32216266Y-52074104D01*
X32165745Y-52075967D01*
X32094708Y-52076918D01*
X31999524Y-52077240D01*
X31960508Y-52077257D01*
X31643201Y-52077257D01*
X31628161Y-52001057D01*
X31620005Y-51958663D01*
X31608101Y-51895400D01*
X31593884Y-51818962D01*
X31578790Y-51737043D01*
X31574645Y-51714400D01*
X31559947Y-51638806D01*
X31545495Y-51572953D01*
X31532625Y-51522366D01*
X31522678Y-51492574D01*
X31519713Y-51487612D01*
X31498717Y-51475426D01*
X31458033Y-51457953D01*
X31405678Y-51438577D01*
X31394400Y-51434734D01*
X31324477Y-51409339D01*
X31245582Y-51377817D01*
X31174734Y-51346969D01*
X31174405Y-51346817D01*
X31063267Y-51295447D01*
X30814747Y-51464399D01*
X30566228Y-51633352D01*
X30348942Y-51416429D01*
X30284274Y-51350819D01*
X30227267Y-51290979D01*
X30180967Y-51240267D01*
X30148416Y-51202046D01*
X30132657Y-51179675D01*
X30131657Y-51176466D01*
X30139531Y-51157626D01*
X30161422Y-51119180D01*
X30194733Y-51065330D01*
X30236869Y-51000276D01*
X30284057Y-50929940D01*
X30332190Y-50858555D01*
X30374072Y-50794908D01*
X30407129Y-50743041D01*
X30428782Y-50706995D01*
X30436457Y-50690867D01*
X30429963Y-50671189D01*
X30412850Y-50633875D01*
X30388674Y-50586621D01*
X30385987Y-50581612D01*
X30354073Y-50517977D01*
X30338421Y-50474341D01*
X30338255Y-50447202D01*
X30352796Y-50433057D01*
X30353000Y-50432975D01*
X30370221Y-50425905D01*
X30411101Y-50409042D01*
X30472475Y-50383695D01*
X30551181Y-50351171D01*
X30644053Y-50312778D01*
X30747928Y-50269822D01*
X30848498Y-50228222D01*
X30959484Y-50182504D01*
X31062297Y-50140526D01*
X31153785Y-50103548D01*
X31230799Y-50072827D01*
X31290185Y-50049622D01*
X31328791Y-50035190D01*
X31343200Y-50030743D01*
X31359728Y-50041896D01*
X31386070Y-50071069D01*
X31415113Y-50109971D01*
X31506961Y-50220757D01*
X31612241Y-50307351D01*
X31728734Y-50368716D01*
X31854224Y-50403815D01*
X31986493Y-50411608D01*
X32047543Y-50405943D01*
X32174205Y-50375078D01*
X32286059Y-50321920D01*
X32381999Y-50249767D01*
X32460924Y-50161917D01*
X32521730Y-50061665D01*
X32563313Y-49952310D01*
X32584572Y-49837147D01*
X32584401Y-49719475D01*
X32561699Y-49602590D01*
X32515362Y-49489789D01*
X32444287Y-49384369D01*
X32404089Y-49340368D01*
X32300871Y-49255979D01*
X32188075Y-49197222D01*
X32068990Y-49163704D01*
X31946905Y-49155035D01*
X31825107Y-49170823D01*
X31706884Y-49210678D01*
X31595525Y-49274207D01*
X31494316Y-49361021D01*
X31415113Y-49458029D01*
X31384838Y-49498437D01*
X31358781Y-49526982D01*
X31343175Y-49537257D01*
X31326157Y-49531877D01*
X31285500Y-49516575D01*
X31224358Y-49492612D01*
X31145881Y-49461244D01*
X31053220Y-49423732D01*
X30949528Y-49381333D01*
X30848474Y-49339663D01*
X30737393Y-49293690D01*
X30634459Y-49251107D01*
X30542835Y-49213221D01*
X30465684Y-49181340D01*
X30406169Y-49156771D01*
X30367456Y-49140820D01*
X30353000Y-49134910D01*
X30338315Y-49120948D01*
X30338358Y-49093940D01*
X30353901Y-49050413D01*
X30385716Y-48986890D01*
X30385987Y-48986388D01*
X30410677Y-48938560D01*
X30428662Y-48899897D01*
X30436386Y-48878095D01*
X30436457Y-48877133D01*
X30428622Y-48860721D01*
X30406835Y-48824487D01*
X30373672Y-48772474D01*
X30331709Y-48708725D01*
X30284057Y-48638060D01*
X30235809Y-48566116D01*
X30193849Y-48501274D01*
X30160773Y-48447735D01*
X30139179Y-48409697D01*
X30131657Y-48391533D01*
X30141543Y-48374808D01*
X30169174Y-48341180D01*
X30211505Y-48294010D01*
X30265495Y-48236658D01*
X30328101Y-48172484D01*
X30349017Y-48151497D01*
X30566377Y-47934499D01*
X30808780Y-48099668D01*
X30883219Y-48149864D01*
X30950028Y-48193919D01*
X31005335Y-48229362D01*
X31045271Y-48253719D01*
X31065964Y-48264522D01*
X31067437Y-48264838D01*
X31086942Y-48259143D01*
X31126178Y-48243826D01*
X31178570Y-48221537D01*
X31213645Y-48205893D01*
X31280799Y-48176641D01*
X31348642Y-48149094D01*
X31405966Y-48127737D01*
X31423428Y-48121935D01*
X31470062Y-48105452D01*
X31506095Y-48089340D01*
X31519713Y-48080490D01*
X31528048Y-48060960D01*
X31539863Y-48018334D01*
X31553819Y-47958145D01*
X31568578Y-47885922D01*
X31574645Y-47853600D01*
X31589727Y-47771522D01*
X31604331Y-47692795D01*
X31617020Y-47625109D01*
X31626358Y-47576160D01*
X31628161Y-47566943D01*
X31643201Y-47490743D01*
X31960508Y-47490743D01*
X32064846Y-47490914D01*
G37*
X32064846Y-47490914D02*
X32143787Y-47491616D01*
X32200962Y-47493134D01*
X32240001Y-47495749D01*
X32264535Y-47499746D01*
X32278195Y-47505409D01*
X32284611Y-47513020D01*
X32285801Y-47516143D01*
X32290020Y-47534978D01*
X32298438Y-47576588D01*
X32310039Y-47635630D01*
X32323805Y-47706757D01*
X32338720Y-47784625D01*
X32353768Y-47863887D01*
X32367931Y-47939198D01*
X32380194Y-48005213D01*
X32389539Y-48056587D01*
X32394950Y-48087975D01*
X32395886Y-48094959D01*
X32408404Y-48101285D01*
X32441754Y-48115290D01*
X32489623Y-48134355D01*
X32508371Y-48141634D01*
X32580805Y-48170996D01*
X32660830Y-48205571D01*
X32728272Y-48236537D01*
X32779841Y-48259323D01*
X32822215Y-48274482D01*
X32848166Y-48279542D01*
X32851644Y-48278736D01*
X32868064Y-48268041D01*
X32904583Y-48243620D01*
X32957313Y-48208095D01*
X33022365Y-48164087D01*
X33095849Y-48114217D01*
X33110355Y-48104356D01*
X33196296Y-48046492D01*
X33261739Y-48003956D01*
X33309696Y-47975054D01*
X33343180Y-47958090D01*
X33365205Y-47951367D01*
X33378783Y-47953190D01*
X33378869Y-47953236D01*
X33396703Y-47967586D01*
X33431183Y-47999323D01*
X33478732Y-48045010D01*
X33535778Y-48101204D01*
X33598745Y-48164468D01*
X33605773Y-48171602D01*
X33682980Y-48251330D01*
X33739670Y-48312857D01*
X33776890Y-48357421D01*
X33795685Y-48386257D01*
X33798111Y-48398958D01*
X33787529Y-48417494D01*
X33763084Y-48455961D01*
X33727388Y-48510386D01*
X33683053Y-48576798D01*
X33632689Y-48651225D01*
X33620840Y-48668601D01*
X33452374Y-48915297D01*
X33502938Y-49026706D01*
X33532405Y-49094457D01*
X33562041Y-49167183D01*
X33585670Y-49229703D01*
X33586642Y-49232457D01*
X33604543Y-49281360D01*
X33619680Y-49319057D01*
X33628790Y-49337425D01*
X33628816Y-49337456D01*
X33645283Y-49343285D01*
X33685781Y-49353192D01*
X33745758Y-49366195D01*
X33820660Y-49381309D01*
X33905936Y-49397552D01*
X33913125Y-49398881D01*
X34000986Y-49415175D01*
X34080740Y-49430133D01*
X34147319Y-49442791D01*
X34195653Y-49452186D01*
X34220675Y-49457354D01*
X34221057Y-49457444D01*
X34231701Y-49460589D01*
X34239738Y-49466704D01*
X34245533Y-49479453D01*
X34249453Y-49502500D01*
X34251865Y-49539509D01*
X34253135Y-49594144D01*
X34253629Y-49670067D01*
X34253714Y-49770944D01*
X34253714Y-49784000D01*
X34253652Y-49887910D01*
X34253222Y-49966454D01*
X34252058Y-50023298D01*
X34249793Y-50062105D01*
X34246060Y-50086538D01*
X34240494Y-50100262D01*
X34232727Y-50106940D01*
X34222395Y-50110236D01*
X34221057Y-50110556D01*
X34196921Y-50115562D01*
X34149299Y-50124829D01*
X34083259Y-50137392D01*
X34003872Y-50152287D01*
X33916204Y-50168551D01*
X33913125Y-50169119D01*
X33827211Y-50185410D01*
X33751304Y-50200652D01*
X33689955Y-50213861D01*
X33647718Y-50224054D01*
X33629145Y-50230248D01*
X33628816Y-50230543D01*
X33619747Y-50248788D01*
X33604633Y-50286405D01*
X33586738Y-50335271D01*
X33586642Y-50335543D01*
X33563507Y-50397093D01*
X33534035Y-50469657D01*
X33504403Y-50538057D01*
X33502938Y-50541294D01*
X33452374Y-50652702D01*
X33620840Y-50899399D01*
X33672197Y-50975077D01*
X33718111Y-51043631D01*
X33755970Y-51101088D01*
X33783163Y-51143476D01*
X33797079Y-51166825D01*
X33798111Y-51169042D01*
X33793516Y-51186010D01*
X33771345Y-51217701D01*
X33730553Y-51265352D01*
X33670095Y-51330198D01*
X33605773Y-51396397D01*
X33542388Y-51460214D01*
X33484549Y-51517329D01*
X33435825Y-51564305D01*
X33399790Y-51597703D01*
X33380016Y-51614085D01*
X33378998Y-51614694D01*
X33365428Y-51616505D01*
X33343267Y-51609683D01*
X33309522Y-51592540D01*
X33261200Y-51563393D01*
X33195308Y-51520555D01*
X33110483Y-51463448D01*
X33035823Y-51412766D01*
X32968860Y-51367461D01*
X32913484Y-51330150D01*
X32873580Y-51303452D01*
X32853038Y-51289985D01*
X32851644Y-51289137D01*
X32831962Y-51290781D01*
X32793707Y-51303245D01*
X32744111Y-51324048D01*
X32728272Y-51331462D01*
X32657710Y-51363814D01*
X32577647Y-51398328D01*
X32508371Y-51426365D01*
X32456955Y-51446568D01*
X32417881Y-51462615D01*
X32397459Y-51471888D01*
X32395886Y-51473041D01*
X32393279Y-51490096D01*
X32386137Y-51530298D01*
X32375477Y-51588302D01*
X32362315Y-51658763D01*
X32347667Y-51736335D01*
X32332551Y-51815672D01*
X32317982Y-51891431D01*
X32304978Y-51958264D01*
X32294555Y-52010828D01*
X32287730Y-52043776D01*
X32285801Y-52051857D01*
X32281038Y-52060205D01*
X32270282Y-52066506D01*
X32249902Y-52071045D01*
X32216266Y-52074104D01*
X32165745Y-52075967D01*
X32094708Y-52076918D01*
X31999524Y-52077240D01*
X31960508Y-52077257D01*
X31643201Y-52077257D01*
X31628161Y-52001057D01*
X31620005Y-51958663D01*
X31608101Y-51895400D01*
X31593884Y-51818962D01*
X31578790Y-51737043D01*
X31574645Y-51714400D01*
X31559947Y-51638806D01*
X31545495Y-51572953D01*
X31532625Y-51522366D01*
X31522678Y-51492574D01*
X31519713Y-51487612D01*
X31498717Y-51475426D01*
X31458033Y-51457953D01*
X31405678Y-51438577D01*
X31394400Y-51434734D01*
X31324477Y-51409339D01*
X31245582Y-51377817D01*
X31174734Y-51346969D01*
X31174405Y-51346817D01*
X31063267Y-51295447D01*
X30814747Y-51464399D01*
X30566228Y-51633352D01*
X30348942Y-51416429D01*
X30284274Y-51350819D01*
X30227267Y-51290979D01*
X30180967Y-51240267D01*
X30148416Y-51202046D01*
X30132657Y-51179675D01*
X30131657Y-51176466D01*
X30139531Y-51157626D01*
X30161422Y-51119180D01*
X30194733Y-51065330D01*
X30236869Y-51000276D01*
X30284057Y-50929940D01*
X30332190Y-50858555D01*
X30374072Y-50794908D01*
X30407129Y-50743041D01*
X30428782Y-50706995D01*
X30436457Y-50690867D01*
X30429963Y-50671189D01*
X30412850Y-50633875D01*
X30388674Y-50586621D01*
X30385987Y-50581612D01*
X30354073Y-50517977D01*
X30338421Y-50474341D01*
X30338255Y-50447202D01*
X30352796Y-50433057D01*
X30353000Y-50432975D01*
X30370221Y-50425905D01*
X30411101Y-50409042D01*
X30472475Y-50383695D01*
X30551181Y-50351171D01*
X30644053Y-50312778D01*
X30747928Y-50269822D01*
X30848498Y-50228222D01*
X30959484Y-50182504D01*
X31062297Y-50140526D01*
X31153785Y-50103548D01*
X31230799Y-50072827D01*
X31290185Y-50049622D01*
X31328791Y-50035190D01*
X31343200Y-50030743D01*
X31359728Y-50041896D01*
X31386070Y-50071069D01*
X31415113Y-50109971D01*
X31506961Y-50220757D01*
X31612241Y-50307351D01*
X31728734Y-50368716D01*
X31854224Y-50403815D01*
X31986493Y-50411608D01*
X32047543Y-50405943D01*
X32174205Y-50375078D01*
X32286059Y-50321920D01*
X32381999Y-50249767D01*
X32460924Y-50161917D01*
X32521730Y-50061665D01*
X32563313Y-49952310D01*
X32584572Y-49837147D01*
X32584401Y-49719475D01*
X32561699Y-49602590D01*
X32515362Y-49489789D01*
X32444287Y-49384369D01*
X32404089Y-49340368D01*
X32300871Y-49255979D01*
X32188075Y-49197222D01*
X32068990Y-49163704D01*
X31946905Y-49155035D01*
X31825107Y-49170823D01*
X31706884Y-49210678D01*
X31595525Y-49274207D01*
X31494316Y-49361021D01*
X31415113Y-49458029D01*
X31384838Y-49498437D01*
X31358781Y-49526982D01*
X31343175Y-49537257D01*
X31326157Y-49531877D01*
X31285500Y-49516575D01*
X31224358Y-49492612D01*
X31145881Y-49461244D01*
X31053220Y-49423732D01*
X30949528Y-49381333D01*
X30848474Y-49339663D01*
X30737393Y-49293690D01*
X30634459Y-49251107D01*
X30542835Y-49213221D01*
X30465684Y-49181340D01*
X30406169Y-49156771D01*
X30367456Y-49140820D01*
X30353000Y-49134910D01*
X30338315Y-49120948D01*
X30338358Y-49093940D01*
X30353901Y-49050413D01*
X30385716Y-48986890D01*
X30385987Y-48986388D01*
X30410677Y-48938560D01*
X30428662Y-48899897D01*
X30436386Y-48878095D01*
X30436457Y-48877133D01*
X30428622Y-48860721D01*
X30406835Y-48824487D01*
X30373672Y-48772474D01*
X30331709Y-48708725D01*
X30284057Y-48638060D01*
X30235809Y-48566116D01*
X30193849Y-48501274D01*
X30160773Y-48447735D01*
X30139179Y-48409697D01*
X30131657Y-48391533D01*
X30141543Y-48374808D01*
X30169174Y-48341180D01*
X30211505Y-48294010D01*
X30265495Y-48236658D01*
X30328101Y-48172484D01*
X30349017Y-48151497D01*
X30566377Y-47934499D01*
X30808780Y-48099668D01*
X30883219Y-48149864D01*
X30950028Y-48193919D01*
X31005335Y-48229362D01*
X31045271Y-48253719D01*
X31065964Y-48264522D01*
X31067437Y-48264838D01*
X31086942Y-48259143D01*
X31126178Y-48243826D01*
X31178570Y-48221537D01*
X31213645Y-48205893D01*
X31280799Y-48176641D01*
X31348642Y-48149094D01*
X31405966Y-48127737D01*
X31423428Y-48121935D01*
X31470062Y-48105452D01*
X31506095Y-48089340D01*
X31519713Y-48080490D01*
X31528048Y-48060960D01*
X31539863Y-48018334D01*
X31553819Y-47958145D01*
X31568578Y-47885922D01*
X31574645Y-47853600D01*
X31589727Y-47771522D01*
X31604331Y-47692795D01*
X31617020Y-47625109D01*
X31626358Y-47576160D01*
X31628161Y-47566943D01*
X31643201Y-47490743D01*
X31960508Y-47490743D01*
X32064846Y-47490914D01*
G36*
X29190047Y-51675629D02*
G01*
X29224514Y-51706549D01*
X29243811Y-51737420D01*
X29268241Y-51785942D01*
X29293015Y-51842485D01*
X29296801Y-51851910D01*
X29324209Y-51914019D01*
X29348366Y-51949822D01*
X29372381Y-51961337D01*
X29399365Y-51950580D01*
X29420457Y-51932114D01*
X29446428Y-51888469D01*
X29448376Y-51840446D01*
X29428363Y-51796406D01*
X29388449Y-51764709D01*
X29378152Y-51760549D01*
X29340276Y-51736327D01*
X29312158Y-51700965D01*
X29289083Y-51656343D01*
X29354515Y-51656343D01*
X29394494Y-51658969D01*
X29426003Y-51670230D01*
X29459622Y-51695199D01*
X29485516Y-51719169D01*
X29522183Y-51756441D01*
X29541879Y-51785401D01*
X29549780Y-51816505D01*
X29551086Y-51851713D01*
X29539665Y-51928876D01*
X29520656Y-51970667D01*
X29497622Y-52003469D01*
X29471867Y-52027503D01*
X29438642Y-52044097D01*
X29393200Y-52054577D01*
X29330793Y-52060271D01*
X29246673Y-52062507D01*
X29191279Y-52062743D01*
X28975174Y-52062743D01*
X28958330Y-52025774D01*
X28946019Y-51996656D01*
X28941486Y-51982231D01*
X28954975Y-51979472D01*
X28991347Y-51977282D01*
X29044458Y-51975942D01*
X29086628Y-51975657D01*
X29147553Y-51974434D01*
X29195885Y-51971136D01*
X29225482Y-51966321D01*
X29231771Y-51962496D01*
X29225348Y-51936783D01*
X29208875Y-51896418D01*
X29186542Y-51849679D01*
X29162543Y-51804845D01*
X29141070Y-51770193D01*
X29126315Y-51754002D01*
X29126155Y-51753938D01*
X29098848Y-51755330D01*
X29072781Y-51767818D01*
X29051608Y-51789743D01*
X29044526Y-51821743D01*
X29045351Y-51849092D01*
X29045958Y-51887826D01*
X29036884Y-51908158D01*
X29012908Y-51920369D01*
X29008387Y-51921909D01*
X28974194Y-51927203D01*
X28953432Y-51913047D01*
X28943538Y-51876148D01*
X28941708Y-51836289D01*
X28955273Y-51764562D01*
X28974645Y-51727432D01*
X29020155Y-51681576D01*
X29076017Y-51657256D01*
X29135043Y-51655073D01*
X29190047Y-51675629D01*
G37*
X29190047Y-51675629D02*
X29224514Y-51706549D01*
X29243811Y-51737420D01*
X29268241Y-51785942D01*
X29293015Y-51842485D01*
X29296801Y-51851910D01*
X29324209Y-51914019D01*
X29348366Y-51949822D01*
X29372381Y-51961337D01*
X29399365Y-51950580D01*
X29420457Y-51932114D01*
X29446428Y-51888469D01*
X29448376Y-51840446D01*
X29428363Y-51796406D01*
X29388449Y-51764709D01*
X29378152Y-51760549D01*
X29340276Y-51736327D01*
X29312158Y-51700965D01*
X29289083Y-51656343D01*
X29354515Y-51656343D01*
X29394494Y-51658969D01*
X29426003Y-51670230D01*
X29459622Y-51695199D01*
X29485516Y-51719169D01*
X29522183Y-51756441D01*
X29541879Y-51785401D01*
X29549780Y-51816505D01*
X29551086Y-51851713D01*
X29539665Y-51928876D01*
X29520656Y-51970667D01*
X29497622Y-52003469D01*
X29471867Y-52027503D01*
X29438642Y-52044097D01*
X29393200Y-52054577D01*
X29330793Y-52060271D01*
X29246673Y-52062507D01*
X29191279Y-52062743D01*
X28975174Y-52062743D01*
X28958330Y-52025774D01*
X28946019Y-51996656D01*
X28941486Y-51982231D01*
X28954975Y-51979472D01*
X28991347Y-51977282D01*
X29044458Y-51975942D01*
X29086628Y-51975657D01*
X29147553Y-51974434D01*
X29195885Y-51971136D01*
X29225482Y-51966321D01*
X29231771Y-51962496D01*
X29225348Y-51936783D01*
X29208875Y-51896418D01*
X29186542Y-51849679D01*
X29162543Y-51804845D01*
X29141070Y-51770193D01*
X29126315Y-51754002D01*
X29126155Y-51753938D01*
X29098848Y-51755330D01*
X29072781Y-51767818D01*
X29051608Y-51789743D01*
X29044526Y-51821743D01*
X29045351Y-51849092D01*
X29045958Y-51887826D01*
X29036884Y-51908158D01*
X29012908Y-51920369D01*
X29008387Y-51921909D01*
X28974194Y-51927203D01*
X28953432Y-51913047D01*
X28943538Y-51876148D01*
X28941708Y-51836289D01*
X28955273Y-51764562D01*
X28974645Y-51727432D01*
X29020155Y-51681576D01*
X29076017Y-51657256D01*
X29135043Y-51655073D01*
X29190047Y-51675629D01*
G36*
X29459788Y-47655550D02*
G01*
X29508698Y-47689456D01*
X29558122Y-47750653D01*
X29582641Y-47818063D01*
X29584203Y-47886880D01*
X29564761Y-47952303D01*
X29526265Y-48009527D01*
X29470665Y-48053749D01*
X29399914Y-48080167D01*
X29347838Y-48085510D01*
X29326107Y-48084903D01*
X29309469Y-48079822D01*
X29294563Y-48065855D01*
X29278027Y-48038589D01*
X29256502Y-47993612D01*
X29226626Y-47926511D01*
X29226476Y-47926171D01*
X29198187Y-47864407D01*
X29173067Y-47813759D01*
X29153821Y-47779404D01*
X29152842Y-47778222D01*
X29311907Y-47778222D01*
X29318895Y-47802898D01*
X29335413Y-47841795D01*
X29356119Y-47885275D01*
X29356667Y-47886356D01*
X29376051Y-47923209D01*
X29388987Y-47938000D01*
X29402549Y-47934353D01*
X29420368Y-47918995D01*
X29446155Y-47879923D01*
X29448050Y-47837846D01*
X29429283Y-47800103D01*
X29393085Y-47774034D01*
X29353252Y-47766514D01*
X29321247Y-47768324D01*
X29311907Y-47778222D01*
X29152842Y-47778222D01*
X29143152Y-47766518D01*
X29143066Y-47766514D01*
X29119834Y-47777872D01*
X29094226Y-47804431D01*
X29075779Y-47834923D01*
X29072114Y-47850370D01*
X29084788Y-47892515D01*
X29116529Y-47928808D01*
X29151428Y-47946517D01*
X29177155Y-47963552D01*
X29206454Y-47996922D01*
X29231765Y-48036149D01*
X29245529Y-48070756D01*
X29246286Y-48077993D01*
X29233840Y-48086139D01*
X29202028Y-48086630D01*
X29159134Y-48080643D01*
X29113442Y-48069357D01*
X29073239Y-48053950D01*
X29071678Y-48053171D01*
X29006938Y-48006804D01*
X28962903Y-47946711D01*
X28941289Y-47878465D01*
X28943815Y-47807638D01*
X28972196Y-47739804D01*
X28974192Y-47736788D01*
X29022552Y-47683427D01*
X29085648Y-47648340D01*
X29168613Y-47628922D01*
X29191922Y-47626316D01*
X29301945Y-47621701D01*
X29353252Y-47627233D01*
X29389973Y-47631194D01*
X29459788Y-47655550D01*
G37*
X29459788Y-47655550D02*
X29508698Y-47689456D01*
X29558122Y-47750653D01*
X29582641Y-47818063D01*
X29584203Y-47886880D01*
X29564761Y-47952303D01*
X29526265Y-48009527D01*
X29470665Y-48053749D01*
X29399914Y-48080167D01*
X29347838Y-48085510D01*
X29326107Y-48084903D01*
X29309469Y-48079822D01*
X29294563Y-48065855D01*
X29278027Y-48038589D01*
X29256502Y-47993612D01*
X29226626Y-47926511D01*
X29226476Y-47926171D01*
X29198187Y-47864407D01*
X29173067Y-47813759D01*
X29153821Y-47779404D01*
X29152842Y-47778222D01*
X29311907Y-47778222D01*
X29318895Y-47802898D01*
X29335413Y-47841795D01*
X29356119Y-47885275D01*
X29356667Y-47886356D01*
X29376051Y-47923209D01*
X29388987Y-47938000D01*
X29402549Y-47934353D01*
X29420368Y-47918995D01*
X29446155Y-47879923D01*
X29448050Y-47837846D01*
X29429283Y-47800103D01*
X29393085Y-47774034D01*
X29353252Y-47766514D01*
X29321247Y-47768324D01*
X29311907Y-47778222D01*
X29152842Y-47778222D01*
X29143152Y-47766518D01*
X29143066Y-47766514D01*
X29119834Y-47777872D01*
X29094226Y-47804431D01*
X29075779Y-47834923D01*
X29072114Y-47850370D01*
X29084788Y-47892515D01*
X29116529Y-47928808D01*
X29151428Y-47946517D01*
X29177155Y-47963552D01*
X29206454Y-47996922D01*
X29231765Y-48036149D01*
X29245529Y-48070756D01*
X29246286Y-48077993D01*
X29233840Y-48086139D01*
X29202028Y-48086630D01*
X29159134Y-48080643D01*
X29113442Y-48069357D01*
X29073239Y-48053950D01*
X29071678Y-48053171D01*
X29006938Y-48006804D01*
X28962903Y-47946711D01*
X28941289Y-47878465D01*
X28943815Y-47807638D01*
X28972196Y-47739804D01*
X28974192Y-47736788D01*
X29022552Y-47683427D01*
X29085648Y-47648340D01*
X29168613Y-47628922D01*
X29191922Y-47626316D01*
X29301945Y-47621701D01*
X29353252Y-47627233D01*
X29389973Y-47631194D01*
X29459788Y-47655550D01*
G36*
X29162331Y-50061598D02*
G01*
X29177343Y-50061908D01*
X29266141Y-50064101D01*
X29330981Y-50066693D01*
X29376933Y-50070382D01*
X29409065Y-50075864D01*
X29432447Y-50083835D01*
X29452148Y-50094993D01*
X29460590Y-50100830D01*
X29497943Y-50134296D01*
X29526997Y-50171727D01*
X29529533Y-50176309D01*
X29549557Y-50243426D01*
X29546245Y-50313926D01*
X29521916Y-50379858D01*
X29478883Y-50433273D01*
X29448591Y-50454164D01*
X29393006Y-50476939D01*
X29352814Y-50476466D01*
X29325783Y-50452562D01*
X29321187Y-50443717D01*
X29306856Y-50405530D01*
X29310528Y-50386028D01*
X29334593Y-50379422D01*
X29347886Y-50379086D01*
X29396790Y-50366992D01*
X29431001Y-50335471D01*
X29447524Y-50291659D01*
X29443366Y-50242695D01*
X29421773Y-50202894D01*
X29409456Y-50189450D01*
X29394513Y-50179921D01*
X29371925Y-50173485D01*
X29336672Y-50169317D01*
X29283734Y-50166597D01*
X29208093Y-50164502D01*
X29184143Y-50163960D01*
X29102210Y-50161981D01*
X29044545Y-50159731D01*
X29006392Y-50156357D01*
X28982996Y-50151006D01*
X28969602Y-50142824D01*
X28961455Y-50130959D01*
X28957856Y-50123362D01*
X28945548Y-50091102D01*
X28941486Y-50072111D01*
X28955052Y-50065836D01*
X28996066Y-50062006D01*
X29065001Y-50060600D01*
X29162331Y-50061598D01*
G37*
X29162331Y-50061598D02*
X29177343Y-50061908D01*
X29266141Y-50064101D01*
X29330981Y-50066693D01*
X29376933Y-50070382D01*
X29409065Y-50075864D01*
X29432447Y-50083835D01*
X29452148Y-50094993D01*
X29460590Y-50100830D01*
X29497943Y-50134296D01*
X29526997Y-50171727D01*
X29529533Y-50176309D01*
X29549557Y-50243426D01*
X29546245Y-50313926D01*
X29521916Y-50379858D01*
X29478883Y-50433273D01*
X29448591Y-50454164D01*
X29393006Y-50476939D01*
X29352814Y-50476466D01*
X29325783Y-50452562D01*
X29321187Y-50443717D01*
X29306856Y-50405530D01*
X29310528Y-50386028D01*
X29334593Y-50379422D01*
X29347886Y-50379086D01*
X29396790Y-50366992D01*
X29431001Y-50335471D01*
X29447524Y-50291659D01*
X29443366Y-50242695D01*
X29421773Y-50202894D01*
X29409456Y-50189450D01*
X29394513Y-50179921D01*
X29371925Y-50173485D01*
X29336672Y-50169317D01*
X29283734Y-50166597D01*
X29208093Y-50164502D01*
X29184143Y-50163960D01*
X29102210Y-50161981D01*
X29044545Y-50159731D01*
X29006392Y-50156357D01*
X28982996Y-50151006D01*
X28969602Y-50142824D01*
X28961455Y-50130959D01*
X28957856Y-50123362D01*
X28945548Y-50091102D01*
X28941486Y-50072111D01*
X28955052Y-50065836D01*
X28996066Y-50062006D01*
X29065001Y-50060600D01*
X29162331Y-50061598D01*
G36*
X29345667Y-47077677D02*
G01*
X29393042Y-47080450D01*
X29426710Y-47084388D01*
X29450502Y-47089849D01*
X29468247Y-47097192D01*
X29483776Y-47106777D01*
X29489619Y-47110887D01*
X29544815Y-47165405D01*
X29576110Y-47234336D01*
X29584835Y-47314072D01*
X29576082Y-47383744D01*
X29548432Y-47439201D01*
X29497520Y-47488148D01*
X29478662Y-47501629D01*
X29453985Y-47516314D01*
X29427184Y-47525842D01*
X29391413Y-47531293D01*
X29339831Y-47533747D01*
X29271733Y-47534286D01*
X29178412Y-47531852D01*
X29108343Y-47523394D01*
X29056069Y-47507174D01*
X29016131Y-47481454D01*
X28983071Y-47444497D01*
X28981114Y-47441782D01*
X28961092Y-47405360D01*
X28951185Y-47361502D01*
X28949533Y-47323763D01*
X29076048Y-47323763D01*
X29100250Y-47359216D01*
X29101143Y-47360114D01*
X29119847Y-47374539D01*
X29145268Y-47383313D01*
X29184416Y-47387739D01*
X29244303Y-47389118D01*
X29257570Y-47389143D01*
X29340099Y-47385812D01*
X29397309Y-47374969D01*
X29432234Y-47355340D01*
X29447906Y-47325650D01*
X29449486Y-47308491D01*
X29442074Y-47267766D01*
X29417670Y-47239832D01*
X29373020Y-47223017D01*
X29304870Y-47215650D01*
X29267397Y-47214971D01*
X29205501Y-47215755D01*
X29165003Y-47219240D01*
X29138292Y-47227124D01*
X29117756Y-47241105D01*
X29107740Y-47250597D01*
X29078433Y-47289404D01*
X29076048Y-47323763D01*
X28949533Y-47323763D01*
X28948743Y-47305724D01*
X28948743Y-47215048D01*
X28860717Y-47215010D01*
X28811692Y-47214166D01*
X28782935Y-47209024D01*
X28765689Y-47195587D01*
X28751192Y-47169858D01*
X28748231Y-47163679D01*
X28734352Y-47134764D01*
X28725586Y-47112376D01*
X28724829Y-47095729D01*
X28734977Y-47084036D01*
X28758927Y-47076510D01*
X28799574Y-47072366D01*
X28859814Y-47070815D01*
X28942545Y-47071071D01*
X29050661Y-47072349D01*
X29083000Y-47072748D01*
X29194476Y-47074185D01*
X29267397Y-47075472D01*
X29280755Y-47075708D01*
X29345667Y-47077677D01*
G37*
X29345667Y-47077677D02*
X29393042Y-47080450D01*
X29426710Y-47084388D01*
X29450502Y-47089849D01*
X29468247Y-47097192D01*
X29483776Y-47106777D01*
X29489619Y-47110887D01*
X29544815Y-47165405D01*
X29576110Y-47234336D01*
X29584835Y-47314072D01*
X29576082Y-47383744D01*
X29548432Y-47439201D01*
X29497520Y-47488148D01*
X29478662Y-47501629D01*
X29453985Y-47516314D01*
X29427184Y-47525842D01*
X29391413Y-47531293D01*
X29339831Y-47533747D01*
X29271733Y-47534286D01*
X29178412Y-47531852D01*
X29108343Y-47523394D01*
X29056069Y-47507174D01*
X29016131Y-47481454D01*
X28983071Y-47444497D01*
X28981114Y-47441782D01*
X28961092Y-47405360D01*
X28951185Y-47361502D01*
X28949533Y-47323763D01*
X29076048Y-47323763D01*
X29100250Y-47359216D01*
X29101143Y-47360114D01*
X29119847Y-47374539D01*
X29145268Y-47383313D01*
X29184416Y-47387739D01*
X29244303Y-47389118D01*
X29257570Y-47389143D01*
X29340099Y-47385812D01*
X29397309Y-47374969D01*
X29432234Y-47355340D01*
X29447906Y-47325650D01*
X29449486Y-47308491D01*
X29442074Y-47267766D01*
X29417670Y-47239832D01*
X29373020Y-47223017D01*
X29304870Y-47215650D01*
X29267397Y-47214971D01*
X29205501Y-47215755D01*
X29165003Y-47219240D01*
X29138292Y-47227124D01*
X29117756Y-47241105D01*
X29107740Y-47250597D01*
X29078433Y-47289404D01*
X29076048Y-47323763D01*
X28949533Y-47323763D01*
X28948743Y-47305724D01*
X28948743Y-47215048D01*
X28860717Y-47215010D01*
X28811692Y-47214166D01*
X28782935Y-47209024D01*
X28765689Y-47195587D01*
X28751192Y-47169858D01*
X28748231Y-47163679D01*
X28734352Y-47134764D01*
X28725586Y-47112376D01*
X28724829Y-47095729D01*
X28734977Y-47084036D01*
X28758927Y-47076510D01*
X28799574Y-47072366D01*
X28859814Y-47070815D01*
X28942545Y-47071071D01*
X29050661Y-47072349D01*
X29083000Y-47072748D01*
X29194476Y-47074185D01*
X29267397Y-47075472D01*
X29280755Y-47075708D01*
X29345667Y-47077677D01*
D13*
%TO.C,J2*%
X24900000Y-63260000D02*
X23900000Y-64260000D01*
X42150000Y-84060000D02*
X42150000Y-63260000D01*
X42150000Y-63260000D02*
X34025000Y-63260000D01*
X23900000Y-64260000D02*
X23900000Y-84060000D01*
X23900000Y-84060000D02*
X42150000Y-84060000D01*
X32025000Y-63260000D02*
X24900000Y-63260000D01*
%TO.C,J1*%
X42080000Y-18930000D02*
X23960000Y-18930000D01*
X39080000Y-18990000D02*
X34020000Y-18990000D01*
X26960000Y-18990000D02*
X26960000Y-59750000D01*
X32020000Y-18990000D02*
X26960000Y-18990000D01*
X39080000Y-59750000D02*
X39080000Y-18990000D01*
X26960000Y-59750000D02*
X39080000Y-59750000D01*
X23960000Y-18930000D02*
X23960000Y-59810000D01*
X42080000Y-59810000D02*
X42080000Y-18930000D01*
X23960000Y-59810000D02*
X42080000Y-59810000D01*
X32020000Y-18990000D02*
G75*
G03*
X34020000Y-18990000I1000000J0D01*
G01*
%TD*%
M02*
