M48
; DRILL file {KiCad (6.0.9)} date Thu Jul 20 16:52:19 2023
; FORMAT={-:-/ absolute / inch / decimal}
; #@! TF.CreationDate,2023-07-20T16:52:19+02:00
; #@! TF.GenerationSoftware,Kicad,Pcbnew,(6.0.9)
; #@! TF.FileFunction,Plated,1,2,PTH
FMAT,2
INCH
; #@! TA.AperFunction,Plated,PTH,ComponentDrill
T1C0.0315
%
G90
G05
T1
X1.0Y-0.8
X1.0Y-0.9
X1.0Y-1.0
X1.0Y-1.1
X1.0Y-1.2
X1.0Y-1.3
X1.0Y-1.4
X1.0Y-1.5
X1.0Y-1.6
X1.0Y-1.7
X1.0Y-1.8
X1.0Y-1.9
X1.0Y-2.0
X1.0Y-2.1
X1.0Y-2.2
X1.0Y-2.3
X1.0502Y-2.7
X1.0502Y-2.8
X1.0502Y-2.9
X1.0502Y-3.0
X1.0502Y-3.1
X1.1502Y-2.6
X1.1502Y-2.7
X1.1502Y-2.8
X1.1502Y-2.9
X1.1502Y-3.0
X1.1502Y-3.1
X1.1502Y-3.2
X1.2502Y-2.6
X1.2502Y-2.7
X1.2502Y-3.1
X1.2502Y-3.2
X1.3502Y-2.6
X1.3502Y-2.7
X1.3502Y-3.1
X1.3502Y-3.2
X1.4502Y-2.6
X1.4502Y-2.7
X1.4502Y-2.8
X1.4502Y-2.9
X1.4502Y-3.0
X1.4502Y-3.1
X1.4502Y-3.2
X1.5502Y-2.7
X1.5502Y-2.8
X1.5502Y-2.9
X1.5502Y-3.0
X1.5502Y-3.1
X1.6Y-0.8
X1.6Y-0.9
X1.6Y-1.0
X1.6Y-1.1
X1.6Y-1.2
X1.6Y-1.3
X1.6Y-1.4
X1.6Y-1.5
X1.6Y-1.6
X1.6Y-1.7
X1.6Y-1.8
X1.6Y-1.9
X1.6Y-2.0
X1.6Y-2.1
X1.6Y-2.2
X1.6Y-2.3
T0
M30
