%TF.GenerationSoftware,KiCad,Pcbnew,(6.0.9)*%
%TF.CreationDate,2023-07-20T16:52:18+02:00*%
%TF.ProjectId,plcc32-adapter-board,706c6363-3332-42d6-9164-61707465722d,rev?*%
%TF.SameCoordinates,Original*%
%TF.FileFunction,Copper,L2,Bot*%
%TF.FilePolarity,Positive*%
%FSLAX46Y46*%
G04 Gerber Fmt 4.6, Leading zero omitted, Abs format (unit mm)*
G04 Created by KiCad (PCBNEW (6.0.9)) date 2023-07-20 16:52:18*
%MOMM*%
%LPD*%
G01*
G04 APERTURE LIST*
%TA.AperFunction,ComponentPad*%
%ADD10R,1.422400X1.422400*%
%TD*%
%TA.AperFunction,ComponentPad*%
%ADD11C,1.422400*%
%TD*%
%TA.AperFunction,ComponentPad*%
%ADD12R,2.400000X1.600000*%
%TD*%
%TA.AperFunction,ComponentPad*%
%ADD13O,2.400000X1.600000*%
%TD*%
%TA.AperFunction,Conductor*%
%ADD14C,0.250000*%
%TD*%
G04 APERTURE END LIST*
D10*
%TO.P,J2,1,Pin_1*%
%TO.N,P1*%
X34295000Y-68580000D03*
D11*
%TO.P,J2,2,Pin_2*%
%TO.N,P2*%
X31755000Y-66040000D03*
%TO.P,J2,3,Pin_3*%
%TO.N,P3*%
X31755000Y-68580000D03*
%TO.P,J2,4,Pin_4*%
%TO.N,P4*%
X29215000Y-66040000D03*
%TO.P,J2,5,Pin_5*%
%TO.N,P5*%
X26675000Y-68580000D03*
%TO.P,J2,6,Pin_6*%
%TO.N,P6*%
X29215000Y-68580000D03*
%TO.P,J2,7,Pin_7*%
%TO.N,P7*%
X26675000Y-71120000D03*
%TO.P,J2,8,Pin_8*%
%TO.N,P8*%
X29215000Y-71120000D03*
%TO.P,J2,9,Pin_9*%
%TO.N,P9*%
X26675000Y-73660000D03*
%TO.P,J2,10,Pin_10*%
%TO.N,P10*%
X29215000Y-73660000D03*
%TO.P,J2,11,Pin_11*%
%TO.N,P11*%
X26675000Y-76200000D03*
%TO.P,J2,12,Pin_12*%
%TO.N,P12*%
X29215000Y-76200000D03*
%TO.P,J2,13,Pin_13*%
%TO.N,P13*%
X26675000Y-78740000D03*
%TO.P,J2,14,Pin_14*%
%TO.N,P14*%
X29215000Y-81280000D03*
%TO.P,J2,15,Pin_15*%
%TO.N,P15*%
X29215000Y-78740000D03*
%TO.P,J2,16,Pin_16*%
%TO.N,P16*%
X31755000Y-81280000D03*
%TO.P,J2,17,Pin_17*%
%TO.N,P17*%
X31755000Y-78740000D03*
%TO.P,J2,18,Pin_18*%
%TO.N,P18*%
X34295000Y-81280000D03*
%TO.P,J2,19,Pin_19*%
%TO.N,P19*%
X34295000Y-78740000D03*
%TO.P,J2,20,Pin_20*%
%TO.N,P20*%
X36835000Y-81280000D03*
%TO.P,J2,21,Pin_21*%
%TO.N,P21*%
X39375000Y-78740000D03*
%TO.P,J2,22,Pin_22*%
%TO.N,P22*%
X36835000Y-78740000D03*
%TO.P,J2,23,Pin_23*%
%TO.N,P23*%
X39375000Y-76200000D03*
%TO.P,J2,24,Pin_24*%
%TO.N,P24*%
X36835000Y-76200000D03*
%TO.P,J2,25,Pin_25*%
%TO.N,P25*%
X39375000Y-73660000D03*
%TO.P,J2,26,Pin_26*%
%TO.N,P26*%
X36835000Y-73660000D03*
%TO.P,J2,27,Pin_27*%
%TO.N,P27*%
X39375000Y-71120000D03*
%TO.P,J2,28,Pin_28*%
%TO.N,P28*%
X36835000Y-71120000D03*
%TO.P,J2,29,Pin_29*%
%TO.N,P29*%
X39375000Y-68580000D03*
%TO.P,J2,30,Pin_30*%
%TO.N,P30*%
X36835000Y-66040000D03*
%TO.P,J2,31,Pin_31*%
%TO.N,P31*%
X36835000Y-68580000D03*
%TO.P,J2,32,Pin_32*%
%TO.N,P32*%
X34295000Y-66040000D03*
%TD*%
D12*
%TO.P,J1,1,Pin_1*%
%TO.N,P1*%
X25400000Y-20320000D03*
D13*
%TO.P,J1,2,Pin_2*%
%TO.N,P2*%
X25400000Y-22860000D03*
%TO.P,J1,3,Pin_3*%
%TO.N,P3*%
X25400000Y-25400000D03*
%TO.P,J1,4,Pin_4*%
%TO.N,P4*%
X25400000Y-27940000D03*
%TO.P,J1,5,Pin_5*%
%TO.N,P5*%
X25400000Y-30480000D03*
%TO.P,J1,6,Pin_6*%
%TO.N,P6*%
X25400000Y-33020000D03*
%TO.P,J1,7,Pin_7*%
%TO.N,P7*%
X25400000Y-35560000D03*
%TO.P,J1,8,Pin_8*%
%TO.N,P8*%
X25400000Y-38100000D03*
%TO.P,J1,9,Pin_9*%
%TO.N,P9*%
X25400000Y-40640000D03*
%TO.P,J1,10,Pin_10*%
%TO.N,P10*%
X25400000Y-43180000D03*
%TO.P,J1,11,Pin_11*%
%TO.N,P11*%
X25400000Y-45720000D03*
%TO.P,J1,12,Pin_12*%
%TO.N,P12*%
X25400000Y-48260000D03*
%TO.P,J1,13,Pin_13*%
%TO.N,P13*%
X25400000Y-50800000D03*
%TO.P,J1,14,Pin_14*%
%TO.N,P14*%
X25400000Y-53340000D03*
%TO.P,J1,15,Pin_15*%
%TO.N,P15*%
X25400000Y-55880000D03*
%TO.P,J1,16,Pin_16*%
%TO.N,P16*%
X25400000Y-58420000D03*
%TO.P,J1,17,Pin_17*%
%TO.N,P17*%
X40640000Y-58420000D03*
%TO.P,J1,18,Pin_18*%
%TO.N,P18*%
X40640000Y-55880000D03*
%TO.P,J1,19,Pin_19*%
%TO.N,P19*%
X40640000Y-53340000D03*
%TO.P,J1,20,Pin_20*%
%TO.N,P20*%
X40640000Y-50800000D03*
%TO.P,J1,21,Pin_21*%
%TO.N,P21*%
X40640000Y-48260000D03*
%TO.P,J1,22,Pin_22*%
%TO.N,P22*%
X40640000Y-45720000D03*
%TO.P,J1,23,Pin_23*%
%TO.N,P23*%
X40640000Y-43180000D03*
%TO.P,J1,24,Pin_24*%
%TO.N,P24*%
X40640000Y-40640000D03*
%TO.P,J1,25,Pin_25*%
%TO.N,P25*%
X40640000Y-38100000D03*
%TO.P,J1,26,Pin_26*%
%TO.N,P26*%
X40640000Y-35560000D03*
%TO.P,J1,27,Pin_27*%
%TO.N,P27*%
X40640000Y-33020000D03*
%TO.P,J1,28,Pin_28*%
%TO.N,P28*%
X40640000Y-30480000D03*
%TO.P,J1,29,Pin_29*%
%TO.N,P29*%
X40640000Y-27940000D03*
%TO.P,J1,30,Pin_30*%
%TO.N,P30*%
X40640000Y-25400000D03*
%TO.P,J1,31,Pin_31*%
%TO.N,P31*%
X40640000Y-22860000D03*
%TO.P,J1,32,Pin_32*%
%TO.N,P32*%
X40640000Y-20320000D03*
%TD*%
D14*
%TO.N,P28*%
X35763000Y-70048000D02*
X36835000Y-71120000D01*
X35763000Y-33831700D02*
X35763000Y-70048000D01*
X39114700Y-30480000D02*
X35763000Y-33831700D01*
X40640000Y-30480000D02*
X39114700Y-30480000D01*
%TO.N,P27*%
X40640000Y-33020000D02*
X42165300Y-33020000D01*
X40432000Y-70063000D02*
X39375000Y-71120000D01*
X40432000Y-62368300D02*
X40432000Y-70063000D01*
X38214100Y-60150400D02*
X40432000Y-62368300D01*
X38214100Y-43595600D02*
X38214100Y-60150400D01*
X39899700Y-41910000D02*
X38214100Y-43595600D01*
X41398800Y-41910000D02*
X39899700Y-41910000D01*
X42165300Y-41143500D02*
X41398800Y-41910000D01*
X42165300Y-33020000D02*
X42165300Y-41143500D01*
%TO.N,P26*%
X40640000Y-35560000D02*
X39114700Y-35560000D01*
X37888000Y-72607000D02*
X36835000Y-73660000D01*
X37888000Y-62040600D02*
X37888000Y-72607000D01*
X37313500Y-61466100D02*
X37888000Y-62040600D01*
X37313500Y-37361200D02*
X37313500Y-61466100D01*
X39114700Y-35560000D02*
X37313500Y-37361200D01*
%TO.N,P24*%
X40640000Y-40640000D02*
X39114700Y-40640000D01*
X38338400Y-74696600D02*
X36835000Y-76200000D01*
X38338400Y-60911600D02*
X38338400Y-74696600D01*
X37763800Y-60337000D02*
X38338400Y-60911600D01*
X37763800Y-41990900D02*
X37763800Y-60337000D01*
X39114700Y-40640000D02*
X37763800Y-41990900D01*
%TO.N,P23*%
X41355400Y-74219600D02*
X39375000Y-76200000D01*
X41355400Y-61699600D02*
X41355400Y-74219600D01*
X39114700Y-59458900D02*
X41355400Y-61699600D01*
X39114700Y-47792000D02*
X39114700Y-59458900D01*
X39916700Y-46990000D02*
X39114700Y-47792000D01*
X41371000Y-46990000D02*
X39916700Y-46990000D01*
X42165300Y-46195700D02*
X41371000Y-46990000D01*
X42165300Y-43180000D02*
X42165300Y-46195700D01*
X40640000Y-43180000D02*
X42165300Y-43180000D01*
%TO.N,P22*%
X40640000Y-45720000D02*
X39114700Y-45720000D01*
X37871700Y-77703300D02*
X36835000Y-78740000D01*
X37871700Y-76212000D02*
X37871700Y-77703300D01*
X39153700Y-74930000D02*
X37871700Y-76212000D01*
X39580900Y-74930000D02*
X39153700Y-74930000D01*
X40892800Y-73618100D02*
X39580900Y-74930000D01*
X40892800Y-62192100D02*
X40892800Y-73618100D01*
X38664400Y-59963700D02*
X40892800Y-62192100D01*
X38664400Y-46170300D02*
X38664400Y-59963700D01*
X39114700Y-45720000D02*
X38664400Y-46170300D01*
%TO.N,P20*%
X38335100Y-81280000D02*
X36835000Y-81280000D01*
X42636100Y-76979000D02*
X38335100Y-81280000D01*
X42636100Y-51270800D02*
X42636100Y-76979000D01*
X42165300Y-50800000D02*
X42636100Y-51270800D01*
X40640000Y-50800000D02*
X42165300Y-50800000D01*
%TO.N,P18*%
X40640000Y-55880000D02*
X42165300Y-55880000D01*
X35565000Y-80010000D02*
X34295000Y-81280000D01*
X37085500Y-80010000D02*
X35565000Y-80010000D01*
X37871700Y-79223800D02*
X37085500Y-80010000D01*
X37871700Y-78752000D02*
X37871700Y-79223800D01*
X39153700Y-77470000D02*
X37871700Y-78752000D01*
X39574800Y-77470000D02*
X39153700Y-77470000D01*
X42165300Y-74879500D02*
X39574800Y-77470000D01*
X42165300Y-55880000D02*
X42165300Y-74879500D01*
%TO.N,P14*%
X27945000Y-80010000D02*
X29215000Y-81280000D01*
X27945000Y-75981500D02*
X27945000Y-80010000D01*
X26893500Y-74930000D02*
X27945000Y-75981500D01*
X26479000Y-74930000D02*
X26893500Y-74930000D01*
X23874700Y-72325700D02*
X26479000Y-74930000D01*
X23874700Y-53340000D02*
X23874700Y-72325700D01*
X25400000Y-53340000D02*
X23874700Y-53340000D01*
%TO.N,P13*%
X25400000Y-50800000D02*
X23874700Y-50800000D01*
X23422900Y-75487900D02*
X26675000Y-78740000D01*
X23422900Y-51251800D02*
X23422900Y-75487900D01*
X23874700Y-50800000D02*
X23422900Y-51251800D01*
%TO.N,P12*%
X28024100Y-75009100D02*
X29215000Y-76200000D01*
X28024100Y-49358800D02*
X28024100Y-75009100D01*
X26925300Y-48260000D02*
X28024100Y-49358800D01*
X25400000Y-48260000D02*
X26925300Y-48260000D01*
%TO.N,P10*%
X25400000Y-43180000D02*
X26925300Y-43180000D01*
X30710200Y-46964900D02*
X26925300Y-43180000D01*
X30710200Y-72164800D02*
X30710200Y-46964900D01*
X29215000Y-73660000D02*
X30710200Y-72164800D01*
%TO.N,P9*%
X25617900Y-72602900D02*
X26675000Y-73660000D01*
X25617900Y-65920900D02*
X25617900Y-72602900D01*
X26975100Y-64563700D02*
X25617900Y-65920900D01*
X26975100Y-50362200D02*
X26975100Y-64563700D01*
X26142900Y-49530000D02*
X26975100Y-50362200D01*
X24649000Y-49530000D02*
X26142900Y-49530000D01*
X23383900Y-48264900D02*
X24649000Y-49530000D01*
X23383900Y-41130800D02*
X23383900Y-48264900D01*
X23874700Y-40640000D02*
X23383900Y-41130800D01*
X25400000Y-40640000D02*
X23874700Y-40640000D01*
%TO.N,P8*%
X30259800Y-70075200D02*
X29215000Y-71120000D01*
X30259800Y-48586000D02*
X30259800Y-70075200D01*
X26123800Y-44450000D02*
X30259800Y-48586000D01*
X24670300Y-44450000D02*
X26123800Y-44450000D01*
X23834300Y-43614000D02*
X24670300Y-44450000D01*
X23834300Y-42725000D02*
X23834300Y-43614000D01*
X24649300Y-41910000D02*
X23834300Y-42725000D01*
X26123700Y-41910000D02*
X24649300Y-41910000D01*
X26925300Y-41108400D02*
X26123700Y-41910000D01*
X26925300Y-38100000D02*
X26925300Y-41108400D01*
X25400000Y-38100000D02*
X26925300Y-38100000D01*
%TO.N,P3*%
X25400000Y-25400000D02*
X26925300Y-25400000D01*
X32796700Y-67538300D02*
X31755000Y-68580000D01*
X32796700Y-31271400D02*
X32796700Y-67538300D01*
X26925300Y-25400000D02*
X32796700Y-31271400D01*
%TO.N,P1*%
X33258500Y-66507000D02*
X34295000Y-67543500D01*
X33258500Y-26653200D02*
X33258500Y-66507000D01*
X26925300Y-20320000D02*
X33258500Y-26653200D01*
X25400000Y-20320000D02*
X26925300Y-20320000D01*
X34295000Y-68580000D02*
X34295000Y-67543500D01*
%TD*%
M02*
