%TF.GenerationSoftware,KiCad,Pcbnew,(6.0.9)*%
%TF.CreationDate,2023-07-20T16:52:18+02:00*%
%TF.ProjectId,plcc32-adapter-board,706c6363-3332-42d6-9164-61707465722d,rev?*%
%TF.SameCoordinates,Original*%
%TF.FileFunction,Soldermask,Bot*%
%TF.FilePolarity,Negative*%
%FSLAX46Y46*%
G04 Gerber Fmt 4.6, Leading zero omitted, Abs format (unit mm)*
G04 Created by KiCad (PCBNEW (6.0.9)) date 2023-07-20 16:52:18*
%MOMM*%
%LPD*%
G01*
G04 APERTURE LIST*
%ADD10R,1.422400X1.422400*%
%ADD11C,1.422400*%
%ADD12R,2.400000X1.600000*%
%ADD13O,2.400000X1.600000*%
G04 APERTURE END LIST*
D10*
%TO.C,J2*%
X34295000Y-68580000D03*
D11*
X31755000Y-66040000D03*
X31755000Y-68580000D03*
X29215000Y-66040000D03*
X26675000Y-68580000D03*
X29215000Y-68580000D03*
X26675000Y-71120000D03*
X29215000Y-71120000D03*
X26675000Y-73660000D03*
X29215000Y-73660000D03*
X26675000Y-76200000D03*
X29215000Y-76200000D03*
X26675000Y-78740000D03*
X29215000Y-81280000D03*
X29215000Y-78740000D03*
X31755000Y-81280000D03*
X31755000Y-78740000D03*
X34295000Y-81280000D03*
X34295000Y-78740000D03*
X36835000Y-81280000D03*
X39375000Y-78740000D03*
X36835000Y-78740000D03*
X39375000Y-76200000D03*
X36835000Y-76200000D03*
X39375000Y-73660000D03*
X36835000Y-73660000D03*
X39375000Y-71120000D03*
X36835000Y-71120000D03*
X39375000Y-68580000D03*
X36835000Y-66040000D03*
X36835000Y-68580000D03*
X34295000Y-66040000D03*
%TD*%
D12*
%TO.C,J1*%
X25400000Y-20320000D03*
D13*
X25400000Y-22860000D03*
X25400000Y-25400000D03*
X25400000Y-27940000D03*
X25400000Y-30480000D03*
X25400000Y-33020000D03*
X25400000Y-35560000D03*
X25400000Y-38100000D03*
X25400000Y-40640000D03*
X25400000Y-43180000D03*
X25400000Y-45720000D03*
X25400000Y-48260000D03*
X25400000Y-50800000D03*
X25400000Y-53340000D03*
X25400000Y-55880000D03*
X25400000Y-58420000D03*
X40640000Y-58420000D03*
X40640000Y-55880000D03*
X40640000Y-53340000D03*
X40640000Y-50800000D03*
X40640000Y-48260000D03*
X40640000Y-45720000D03*
X40640000Y-43180000D03*
X40640000Y-40640000D03*
X40640000Y-38100000D03*
X40640000Y-35560000D03*
X40640000Y-33020000D03*
X40640000Y-30480000D03*
X40640000Y-27940000D03*
X40640000Y-25400000D03*
X40640000Y-22860000D03*
X40640000Y-20320000D03*
%TD*%
M02*
