%TF.GenerationSoftware,KiCad,Pcbnew,(6.0.9)*%
%TF.CreationDate,2023-09-02T19:47:14+02:00*%
%TF.ProjectId,p2000t-slot1-adapter-board,70323030-3074-42d7-936c-6f74312d6164,rev?*%
%TF.SameCoordinates,Original*%
%TF.FileFunction,Soldermask,Top*%
%TF.FilePolarity,Negative*%
%FSLAX46Y46*%
G04 Gerber Fmt 4.6, Leading zero omitted, Abs format (unit mm)*
G04 Created by KiCad (PCBNEW (6.0.9)) date 2023-09-02 19:47:14*
%MOMM*%
%LPD*%
G01*
G04 APERTURE LIST*
%ADD10C,2.500000*%
%ADD11R,1.600000X2.400000*%
%ADD12O,1.600000X2.400000*%
G04 APERTURE END LIST*
D10*
%TO.C,J2*%
X31762000Y-27432000D03*
X31762000Y-32512000D03*
X35722000Y-27432000D03*
X35722000Y-32512000D03*
X39682000Y-27432000D03*
X39682000Y-32512000D03*
X43642000Y-27432000D03*
X43642000Y-32512000D03*
X47602000Y-27432000D03*
X47602000Y-32512000D03*
X51562000Y-27432000D03*
X51562000Y-32512000D03*
X55522000Y-27432000D03*
X55522000Y-32512000D03*
X59482000Y-27432000D03*
X59482000Y-32512000D03*
X63442000Y-27432000D03*
X63442000Y-32512000D03*
X67402000Y-27432000D03*
X67402000Y-32512000D03*
X71362000Y-27432000D03*
X71362000Y-32512000D03*
X75322000Y-27432000D03*
X75322000Y-32512000D03*
X79282000Y-27432000D03*
X79282000Y-32512000D03*
X83242000Y-27432000D03*
X83242000Y-32512000D03*
X87202000Y-27432000D03*
X87202000Y-32512000D03*
%TD*%
D11*
%TO.C,J1*%
X40432000Y-37572000D03*
D12*
X42972000Y-37572000D03*
X45512000Y-37572000D03*
X48052000Y-37572000D03*
X50592000Y-37572000D03*
X53132000Y-37572000D03*
X55672000Y-37572000D03*
X58212000Y-37572000D03*
X60752000Y-37572000D03*
X63292000Y-37572000D03*
X65832000Y-37572000D03*
X68372000Y-37572000D03*
X70912000Y-37572000D03*
X73452000Y-37572000D03*
X75992000Y-37572000D03*
X78532000Y-37572000D03*
X78532000Y-22332000D03*
X75992000Y-22332000D03*
X73452000Y-22332000D03*
X70912000Y-22332000D03*
X68372000Y-22332000D03*
X65832000Y-22332000D03*
X63292000Y-22332000D03*
X60752000Y-22332000D03*
X58212000Y-22332000D03*
X55672000Y-22332000D03*
X53132000Y-22332000D03*
X50592000Y-22332000D03*
X48052000Y-22332000D03*
X45512000Y-22332000D03*
X42972000Y-22332000D03*
X40432000Y-22332000D03*
%TD*%
M02*
