%TF.GenerationSoftware,KiCad,Pcbnew,(6.0.9)*%
%TF.CreationDate,2023-08-23T16:46:46+02:00*%
%TF.ProjectId,p2000t-slot1-adapter-board,70323030-3074-42d7-936c-6f74312d6164,rev?*%
%TF.SameCoordinates,Original*%
%TF.FileFunction,Legend,Top*%
%TF.FilePolarity,Positive*%
%FSLAX46Y46*%
G04 Gerber Fmt 4.6, Leading zero omitted, Abs format (unit mm)*
G04 Created by KiCad (PCBNEW (6.0.9)) date 2023-08-23 16:46:46*
%MOMM*%
%LPD*%
G01*
G04 APERTURE LIST*
%ADD10C,0.150000*%
%ADD11C,0.300000*%
%ADD12C,0.010000*%
%ADD13C,0.120000*%
G04 APERTURE END LIST*
D10*
X86406000Y-36556000D02*
X87930000Y-36556000D01*
X87930000Y-36556000D02*
X87930000Y-35032000D01*
X87930000Y-35032000D02*
X86406000Y-35032000D01*
X86406000Y-35032000D02*
X86406000Y-36556000D01*
G36*
X86406000Y-36556000D02*
G01*
X87930000Y-36556000D01*
X87930000Y-35032000D01*
X86406000Y-35032000D01*
X86406000Y-36556000D01*
G37*
X89416000Y-28193904D02*
X89368380Y-28289142D01*
X89368380Y-28432000D01*
X89416000Y-28574857D01*
X89511238Y-28670095D01*
X89606476Y-28717714D01*
X89796952Y-28765333D01*
X89939809Y-28765333D01*
X90130285Y-28717714D01*
X90225523Y-28670095D01*
X90320761Y-28574857D01*
X90368380Y-28432000D01*
X90368380Y-28336761D01*
X90320761Y-28193904D01*
X90273142Y-28146285D01*
X89939809Y-28146285D01*
X89939809Y-28336761D01*
X90368380Y-27717714D02*
X89368380Y-27717714D01*
X90368380Y-27146285D01*
X89368380Y-27146285D01*
X90368380Y-26670095D02*
X89368380Y-26670095D01*
X89368380Y-26432000D01*
X89416000Y-26289142D01*
X89511238Y-26193904D01*
X89606476Y-26146285D01*
X89796952Y-26098666D01*
X89939809Y-26098666D01*
X90130285Y-26146285D01*
X90225523Y-26193904D01*
X90320761Y-26289142D01*
X90368380Y-26432000D01*
X90368380Y-26670095D01*
X89416000Y-33527904D02*
X89368380Y-33623142D01*
X89368380Y-33766000D01*
X89416000Y-33908857D01*
X89511238Y-34004095D01*
X89606476Y-34051714D01*
X89796952Y-34099333D01*
X89939809Y-34099333D01*
X90130285Y-34051714D01*
X90225523Y-34004095D01*
X90320761Y-33908857D01*
X90368380Y-33766000D01*
X90368380Y-33670761D01*
X90320761Y-33527904D01*
X90273142Y-33480285D01*
X89939809Y-33480285D01*
X89939809Y-33670761D01*
X90368380Y-33051714D02*
X89368380Y-33051714D01*
X90368380Y-32480285D01*
X89368380Y-32480285D01*
X90368380Y-32004095D02*
X89368380Y-32004095D01*
X89368380Y-31766000D01*
X89416000Y-31623142D01*
X89511238Y-31527904D01*
X89606476Y-31480285D01*
X89796952Y-31432666D01*
X89939809Y-31432666D01*
X90130285Y-31480285D01*
X90225523Y-31527904D01*
X90320761Y-31623142D01*
X90368380Y-31766000D01*
X90368380Y-32004095D01*
X28662380Y-34099333D02*
X29662380Y-33766000D01*
X28662380Y-33432666D01*
X29567142Y-32527904D02*
X29614761Y-32575523D01*
X29662380Y-32718380D01*
X29662380Y-32813619D01*
X29614761Y-32956476D01*
X29519523Y-33051714D01*
X29424285Y-33099333D01*
X29233809Y-33146952D01*
X29090952Y-33146952D01*
X28900476Y-33099333D01*
X28805238Y-33051714D01*
X28710000Y-32956476D01*
X28662380Y-32813619D01*
X28662380Y-32718380D01*
X28710000Y-32575523D01*
X28757619Y-32527904D01*
X29567142Y-31527904D02*
X29614761Y-31575523D01*
X29662380Y-31718380D01*
X29662380Y-31813619D01*
X29614761Y-31956476D01*
X29519523Y-32051714D01*
X29424285Y-32099333D01*
X29233809Y-32146952D01*
X29090952Y-32146952D01*
X28900476Y-32099333D01*
X28805238Y-32051714D01*
X28710000Y-31956476D01*
X28662380Y-31813619D01*
X28662380Y-31718380D01*
X28710000Y-31575523D01*
X28757619Y-31527904D01*
X31034000Y-36302000D02*
X32558000Y-36302000D01*
X32558000Y-36302000D02*
X32558000Y-34778000D01*
X32558000Y-34778000D02*
X31034000Y-34778000D01*
X31034000Y-34778000D02*
X31034000Y-36302000D01*
G36*
X31034000Y-36302000D02*
G01*
X32558000Y-36302000D01*
X32558000Y-34778000D01*
X31034000Y-34778000D01*
X31034000Y-36302000D01*
G37*
X39670000Y-41890000D02*
X41194000Y-41890000D01*
X41194000Y-41890000D02*
X41194000Y-40366000D01*
X41194000Y-40366000D02*
X39670000Y-40366000D01*
X39670000Y-40366000D02*
X39670000Y-41890000D01*
G36*
X39670000Y-41890000D02*
G01*
X41194000Y-41890000D01*
X41194000Y-40366000D01*
X39670000Y-40366000D01*
X39670000Y-41890000D01*
G37*
D11*
X54761606Y-41017519D02*
X55047320Y-41112757D01*
X55142558Y-41207996D01*
X55237797Y-41398472D01*
X55237797Y-41684186D01*
X55142558Y-41874662D01*
X55047320Y-41969900D01*
X54856844Y-42065138D01*
X54094939Y-42065138D01*
X54094939Y-40065138D01*
X54761606Y-40065138D01*
X54952082Y-40160377D01*
X55047320Y-40255615D01*
X55142558Y-40446091D01*
X55142558Y-40636567D01*
X55047320Y-40827043D01*
X54952082Y-40922281D01*
X54761606Y-41017519D01*
X54094939Y-41017519D01*
X56094939Y-41303234D02*
X57618749Y-41303234D01*
X58475892Y-41969900D02*
X58761606Y-42065138D01*
X59237797Y-42065138D01*
X59428273Y-41969900D01*
X59523511Y-41874662D01*
X59618749Y-41684186D01*
X59618749Y-41493710D01*
X59523511Y-41303234D01*
X59428273Y-41207996D01*
X59237797Y-41112757D01*
X58856844Y-41017519D01*
X58666368Y-40922281D01*
X58571130Y-40827043D01*
X58475892Y-40636567D01*
X58475892Y-40446091D01*
X58571130Y-40255615D01*
X58666368Y-40160377D01*
X58856844Y-40065138D01*
X59333035Y-40065138D01*
X59618749Y-40160377D01*
X60475892Y-42065138D02*
X60475892Y-40065138D01*
X61428273Y-42065138D02*
X61428273Y-40065138D01*
X61904463Y-40065138D01*
X62190178Y-40160377D01*
X62380654Y-40350853D01*
X62475892Y-40541329D01*
X62571130Y-40922281D01*
X62571130Y-41207996D01*
X62475892Y-41588948D01*
X62380654Y-41779424D01*
X62190178Y-41969900D01*
X61904463Y-42065138D01*
X61428273Y-42065138D01*
X63428273Y-41017519D02*
X64094939Y-41017519D01*
X64380654Y-42065138D02*
X63428273Y-42065138D01*
X63428273Y-40065138D01*
X64380654Y-40065138D01*
D10*
X41273809Y-29737714D02*
X41273809Y-30594857D01*
X41226190Y-30690095D01*
X41130952Y-30737714D01*
X41083333Y-30737714D01*
X41273809Y-29404380D02*
X41226190Y-29452000D01*
X41273809Y-29499619D01*
X41321428Y-29452000D01*
X41273809Y-29404380D01*
X41273809Y-29499619D01*
X41892857Y-30404380D02*
X41797619Y-30356761D01*
X41750000Y-30261523D01*
X41750000Y-29404380D01*
X42702380Y-30356761D02*
X42607142Y-30404380D01*
X42416666Y-30404380D01*
X42321428Y-30356761D01*
X42273809Y-30309142D01*
X42226190Y-30213904D01*
X42226190Y-29928190D01*
X42273809Y-29832952D01*
X42321428Y-29785333D01*
X42416666Y-29737714D01*
X42607142Y-29737714D01*
X42702380Y-29785333D01*
X43130952Y-29737714D02*
X43130952Y-30594857D01*
X43083333Y-30690095D01*
X42988095Y-30737714D01*
X42940476Y-30737714D01*
X43130952Y-29404380D02*
X43083333Y-29452000D01*
X43130952Y-29499619D01*
X43178571Y-29452000D01*
X43130952Y-29404380D01*
X43130952Y-29499619D01*
X43750000Y-30404380D02*
X43654761Y-30356761D01*
X43607142Y-30261523D01*
X43607142Y-29404380D01*
X44559523Y-30356761D02*
X44464285Y-30404380D01*
X44273809Y-30404380D01*
X44178571Y-30356761D01*
X44130952Y-30309142D01*
X44083333Y-30213904D01*
X44083333Y-29928190D01*
X44130952Y-29832952D01*
X44178571Y-29785333D01*
X44273809Y-29737714D01*
X44464285Y-29737714D01*
X44559523Y-29785333D01*
X44988095Y-29737714D02*
X44988095Y-30594857D01*
X44940476Y-30690095D01*
X44845238Y-30737714D01*
X44797619Y-30737714D01*
X44988095Y-29404380D02*
X44940476Y-29452000D01*
X44988095Y-29499619D01*
X45035714Y-29452000D01*
X44988095Y-29404380D01*
X44988095Y-29499619D01*
X45607142Y-30404380D02*
X45511904Y-30356761D01*
X45464285Y-30261523D01*
X45464285Y-29404380D01*
X46416666Y-30356761D02*
X46321428Y-30404380D01*
X46130952Y-30404380D01*
X46035714Y-30356761D01*
X45988095Y-30309142D01*
X45940476Y-30213904D01*
X45940476Y-29928190D01*
X45988095Y-29832952D01*
X46035714Y-29785333D01*
X46130952Y-29737714D01*
X46321428Y-29737714D01*
X46416666Y-29785333D01*
X46845238Y-29737714D02*
X46845238Y-30594857D01*
X46797619Y-30690095D01*
X46702380Y-30737714D01*
X46654761Y-30737714D01*
X46845238Y-29404380D02*
X46797619Y-29452000D01*
X46845238Y-29499619D01*
X46892857Y-29452000D01*
X46845238Y-29404380D01*
X46845238Y-29499619D01*
X47464285Y-30404380D02*
X47369047Y-30356761D01*
X47321428Y-30261523D01*
X47321428Y-29404380D01*
X48273809Y-30356761D02*
X48178571Y-30404380D01*
X47988095Y-30404380D01*
X47892857Y-30356761D01*
X47845238Y-30309142D01*
X47797619Y-30213904D01*
X47797619Y-29928190D01*
X47845238Y-29832952D01*
X47892857Y-29785333D01*
X47988095Y-29737714D01*
X48178571Y-29737714D01*
X48273809Y-29785333D01*
D11*
X19035142Y-38587071D02*
X19035142Y-37087071D01*
X19606571Y-37087071D01*
X19749428Y-37158500D01*
X19820857Y-37229928D01*
X19892285Y-37372785D01*
X19892285Y-37587071D01*
X19820857Y-37729928D01*
X19749428Y-37801357D01*
X19606571Y-37872785D01*
X19035142Y-37872785D01*
X20463714Y-37229928D02*
X20535142Y-37158500D01*
X20678000Y-37087071D01*
X21035142Y-37087071D01*
X21178000Y-37158500D01*
X21249428Y-37229928D01*
X21320857Y-37372785D01*
X21320857Y-37515642D01*
X21249428Y-37729928D01*
X20392285Y-38587071D01*
X21320857Y-38587071D01*
X22249428Y-37087071D02*
X22392285Y-37087071D01*
X22535142Y-37158500D01*
X22606571Y-37229928D01*
X22678000Y-37372785D01*
X22749428Y-37658500D01*
X22749428Y-38015642D01*
X22678000Y-38301357D01*
X22606571Y-38444214D01*
X22535142Y-38515642D01*
X22392285Y-38587071D01*
X22249428Y-38587071D01*
X22106571Y-38515642D01*
X22035142Y-38444214D01*
X21963714Y-38301357D01*
X21892285Y-38015642D01*
X21892285Y-37658500D01*
X21963714Y-37372785D01*
X22035142Y-37229928D01*
X22106571Y-37158500D01*
X22249428Y-37087071D01*
X23678000Y-37087071D02*
X23820857Y-37087071D01*
X23963714Y-37158500D01*
X24035142Y-37229928D01*
X24106571Y-37372785D01*
X24178000Y-37658500D01*
X24178000Y-38015642D01*
X24106571Y-38301357D01*
X24035142Y-38444214D01*
X23963714Y-38515642D01*
X23820857Y-38587071D01*
X23678000Y-38587071D01*
X23535142Y-38515642D01*
X23463714Y-38444214D01*
X23392285Y-38301357D01*
X23320857Y-38015642D01*
X23320857Y-37658500D01*
X23392285Y-37372785D01*
X23463714Y-37229928D01*
X23535142Y-37158500D01*
X23678000Y-37087071D01*
X25106571Y-37087071D02*
X25249428Y-37087071D01*
X25392285Y-37158500D01*
X25463714Y-37229928D01*
X25535142Y-37372785D01*
X25606571Y-37658500D01*
X25606571Y-38015642D01*
X25535142Y-38301357D01*
X25463714Y-38444214D01*
X25392285Y-38515642D01*
X25249428Y-38587071D01*
X25106571Y-38587071D01*
X24963714Y-38515642D01*
X24892285Y-38444214D01*
X24820857Y-38301357D01*
X24749428Y-38015642D01*
X24749428Y-37658500D01*
X24820857Y-37372785D01*
X24892285Y-37229928D01*
X24963714Y-37158500D01*
X25106571Y-37087071D01*
X26035142Y-37087071D02*
X26892285Y-37087071D01*
X26463714Y-38587071D02*
X26463714Y-37087071D01*
X27392285Y-38015642D02*
X28535142Y-38015642D01*
X29178000Y-38515642D02*
X29392285Y-38587071D01*
X29749428Y-38587071D01*
X29892285Y-38515642D01*
X29963714Y-38444214D01*
X30035142Y-38301357D01*
X30035142Y-38158500D01*
X29963714Y-38015642D01*
X29892285Y-37944214D01*
X29749428Y-37872785D01*
X29463714Y-37801357D01*
X29320857Y-37729928D01*
X29249428Y-37658500D01*
X29178000Y-37515642D01*
X29178000Y-37372785D01*
X29249428Y-37229928D01*
X29320857Y-37158500D01*
X29463714Y-37087071D01*
X29820857Y-37087071D01*
X30035142Y-37158500D01*
X31392285Y-38587071D02*
X30678000Y-38587071D01*
X30678000Y-37087071D01*
X32178000Y-37087071D02*
X32463714Y-37087071D01*
X32606571Y-37158500D01*
X32749428Y-37301357D01*
X32820857Y-37587071D01*
X32820857Y-38087071D01*
X32749428Y-38372785D01*
X32606571Y-38515642D01*
X32463714Y-38587071D01*
X32178000Y-38587071D01*
X32035142Y-38515642D01*
X31892285Y-38372785D01*
X31820857Y-38087071D01*
X31820857Y-37587071D01*
X31892285Y-37301357D01*
X32035142Y-37158500D01*
X32178000Y-37087071D01*
X33249428Y-37087071D02*
X34106571Y-37087071D01*
X33678000Y-38587071D02*
X33678000Y-37087071D01*
X35392285Y-38587071D02*
X34535142Y-38587071D01*
X34963714Y-38587071D02*
X34963714Y-37087071D01*
X34820857Y-37301357D01*
X34678000Y-37444214D01*
X34535142Y-37515642D01*
X19428000Y-40573500D02*
X20142285Y-40573500D01*
X19285142Y-41002071D02*
X19785142Y-39502071D01*
X20285142Y-41002071D01*
X21428000Y-41002071D02*
X21428000Y-39502071D01*
X21428000Y-40930642D02*
X21285142Y-41002071D01*
X20999428Y-41002071D01*
X20856571Y-40930642D01*
X20785142Y-40859214D01*
X20713714Y-40716357D01*
X20713714Y-40287785D01*
X20785142Y-40144928D01*
X20856571Y-40073500D01*
X20999428Y-40002071D01*
X21285142Y-40002071D01*
X21428000Y-40073500D01*
X22785142Y-41002071D02*
X22785142Y-40216357D01*
X22713714Y-40073500D01*
X22570857Y-40002071D01*
X22285142Y-40002071D01*
X22142285Y-40073500D01*
X22785142Y-40930642D02*
X22642285Y-41002071D01*
X22285142Y-41002071D01*
X22142285Y-40930642D01*
X22070857Y-40787785D01*
X22070857Y-40644928D01*
X22142285Y-40502071D01*
X22285142Y-40430642D01*
X22642285Y-40430642D01*
X22785142Y-40359214D01*
X23499428Y-40002071D02*
X23499428Y-41502071D01*
X23499428Y-40073500D02*
X23642285Y-40002071D01*
X23928000Y-40002071D01*
X24070857Y-40073500D01*
X24142285Y-40144928D01*
X24213714Y-40287785D01*
X24213714Y-40716357D01*
X24142285Y-40859214D01*
X24070857Y-40930642D01*
X23928000Y-41002071D01*
X23642285Y-41002071D01*
X23499428Y-40930642D01*
X24642285Y-40002071D02*
X25213714Y-40002071D01*
X24856571Y-39502071D02*
X24856571Y-40787785D01*
X24928000Y-40930642D01*
X25070857Y-41002071D01*
X25213714Y-41002071D01*
X26285142Y-40930642D02*
X26142285Y-41002071D01*
X25856571Y-41002071D01*
X25713714Y-40930642D01*
X25642285Y-40787785D01*
X25642285Y-40216357D01*
X25713714Y-40073500D01*
X25856571Y-40002071D01*
X26142285Y-40002071D01*
X26285142Y-40073500D01*
X26356571Y-40216357D01*
X26356571Y-40359214D01*
X25642285Y-40502071D01*
X26999428Y-41002071D02*
X26999428Y-40002071D01*
X26999428Y-40287785D02*
X27070857Y-40144928D01*
X27142285Y-40073500D01*
X27285142Y-40002071D01*
X27428000Y-40002071D01*
X29570857Y-40216357D02*
X29785142Y-40287785D01*
X29856571Y-40359214D01*
X29928000Y-40502071D01*
X29928000Y-40716357D01*
X29856571Y-40859214D01*
X29785142Y-40930642D01*
X29642285Y-41002071D01*
X29070857Y-41002071D01*
X29070857Y-39502071D01*
X29570857Y-39502071D01*
X29713714Y-39573500D01*
X29785142Y-39644928D01*
X29856571Y-39787785D01*
X29856571Y-39930642D01*
X29785142Y-40073500D01*
X29713714Y-40144928D01*
X29570857Y-40216357D01*
X29070857Y-40216357D01*
X30785142Y-41002071D02*
X30642285Y-40930642D01*
X30570857Y-40859214D01*
X30499428Y-40716357D01*
X30499428Y-40287785D01*
X30570857Y-40144928D01*
X30642285Y-40073500D01*
X30785142Y-40002071D01*
X30999428Y-40002071D01*
X31142285Y-40073500D01*
X31213714Y-40144928D01*
X31285142Y-40287785D01*
X31285142Y-40716357D01*
X31213714Y-40859214D01*
X31142285Y-40930642D01*
X30999428Y-41002071D01*
X30785142Y-41002071D01*
X32570857Y-41002071D02*
X32570857Y-40216357D01*
X32499428Y-40073500D01*
X32356571Y-40002071D01*
X32070857Y-40002071D01*
X31928000Y-40073500D01*
X32570857Y-40930642D02*
X32428000Y-41002071D01*
X32070857Y-41002071D01*
X31928000Y-40930642D01*
X31856571Y-40787785D01*
X31856571Y-40644928D01*
X31928000Y-40502071D01*
X32070857Y-40430642D01*
X32428000Y-40430642D01*
X32570857Y-40359214D01*
X33285142Y-41002071D02*
X33285142Y-40002071D01*
X33285142Y-40287785D02*
X33356571Y-40144928D01*
X33428000Y-40073500D01*
X33570857Y-40002071D01*
X33713714Y-40002071D01*
X34856571Y-41002071D02*
X34856571Y-39502071D01*
X34856571Y-40930642D02*
X34713714Y-41002071D01*
X34428000Y-41002071D01*
X34285142Y-40930642D01*
X34213714Y-40859214D01*
X34142285Y-40716357D01*
X34142285Y-40287785D01*
X34213714Y-40144928D01*
X34285142Y-40073500D01*
X34428000Y-40002071D01*
X34713714Y-40002071D01*
X34856571Y-40073500D01*
X54388380Y-19637333D02*
X55340761Y-19637333D01*
X54197904Y-20208761D02*
X54864571Y-18208761D01*
X55531238Y-20208761D01*
X56197904Y-19446857D02*
X57721714Y-19446857D01*
X58578857Y-20113523D02*
X58864571Y-20208761D01*
X59340761Y-20208761D01*
X59531238Y-20113523D01*
X59626476Y-20018285D01*
X59721714Y-19827809D01*
X59721714Y-19637333D01*
X59626476Y-19446857D01*
X59531238Y-19351619D01*
X59340761Y-19256380D01*
X58959809Y-19161142D01*
X58769333Y-19065904D01*
X58674095Y-18970666D01*
X58578857Y-18780190D01*
X58578857Y-18589714D01*
X58674095Y-18399238D01*
X58769333Y-18304000D01*
X58959809Y-18208761D01*
X59435999Y-18208761D01*
X59721714Y-18304000D01*
X60578857Y-20208761D02*
X60578857Y-18208761D01*
X61531238Y-20208761D02*
X61531238Y-18208761D01*
X62007428Y-18208761D01*
X62293142Y-18304000D01*
X62483619Y-18494476D01*
X62578857Y-18684952D01*
X62674095Y-19065904D01*
X62674095Y-19351619D01*
X62578857Y-19732571D01*
X62483619Y-19923047D01*
X62293142Y-20113523D01*
X62007428Y-20208761D01*
X61531238Y-20208761D01*
X63531238Y-19161142D02*
X64197904Y-19161142D01*
X64483619Y-20208761D02*
X63531238Y-20208761D01*
X63531238Y-18208761D01*
X64483619Y-18208761D01*
D10*
X77724095Y-39378000D02*
X77628857Y-39330380D01*
X77486000Y-39330380D01*
X77343142Y-39378000D01*
X77247904Y-39473238D01*
X77200285Y-39568476D01*
X77152666Y-39758952D01*
X77152666Y-39901809D01*
X77200285Y-40092285D01*
X77247904Y-40187523D01*
X77343142Y-40282761D01*
X77486000Y-40330380D01*
X77581238Y-40330380D01*
X77724095Y-40282761D01*
X77771714Y-40235142D01*
X77771714Y-39901809D01*
X77581238Y-39901809D01*
X78200285Y-40330380D02*
X78200285Y-39330380D01*
X78771714Y-40330380D01*
X78771714Y-39330380D01*
X79247904Y-40330380D02*
X79247904Y-39330380D01*
X79486000Y-39330380D01*
X79628857Y-39378000D01*
X79724095Y-39473238D01*
X79771714Y-39568476D01*
X79819333Y-39758952D01*
X79819333Y-39901809D01*
X79771714Y-40092285D01*
X79724095Y-40187523D01*
X79628857Y-40282761D01*
X79486000Y-40330380D01*
X79247904Y-40330380D01*
X39098666Y-19518380D02*
X39432000Y-20518380D01*
X39765333Y-19518380D01*
X40670095Y-20423142D02*
X40622476Y-20470761D01*
X40479619Y-20518380D01*
X40384380Y-20518380D01*
X40241523Y-20470761D01*
X40146285Y-20375523D01*
X40098666Y-20280285D01*
X40051047Y-20089809D01*
X40051047Y-19946952D01*
X40098666Y-19756476D01*
X40146285Y-19661238D01*
X40241523Y-19566000D01*
X40384380Y-19518380D01*
X40479619Y-19518380D01*
X40622476Y-19566000D01*
X40670095Y-19613619D01*
X41670095Y-20423142D02*
X41622476Y-20470761D01*
X41479619Y-20518380D01*
X41384380Y-20518380D01*
X41241523Y-20470761D01*
X41146285Y-20375523D01*
X41098666Y-20280285D01*
X41051047Y-20089809D01*
X41051047Y-19946952D01*
X41098666Y-19756476D01*
X41146285Y-19661238D01*
X41241523Y-19566000D01*
X41384380Y-19518380D01*
X41479619Y-19518380D01*
X41622476Y-19566000D01*
X41670095Y-19613619D01*
%TO.C,J2*%
X28662380Y-27765333D02*
X29376666Y-27765333D01*
X29519523Y-27812952D01*
X29614761Y-27908190D01*
X29662380Y-28051047D01*
X29662380Y-28146285D01*
X28757619Y-27336761D02*
X28710000Y-27289142D01*
X28662380Y-27193904D01*
X28662380Y-26955809D01*
X28710000Y-26860571D01*
X28757619Y-26812952D01*
X28852857Y-26765333D01*
X28948095Y-26765333D01*
X29090952Y-26812952D01*
X29662380Y-27384380D01*
X29662380Y-26765333D01*
%TO.C,J1*%
X37344380Y-37905333D02*
X38058666Y-37905333D01*
X38201523Y-37952952D01*
X38296761Y-38048190D01*
X38344380Y-38191047D01*
X38344380Y-38286285D01*
X38344380Y-36905333D02*
X38344380Y-37476761D01*
X38344380Y-37191047D02*
X37344380Y-37191047D01*
X37487238Y-37286285D01*
X37582476Y-37381523D01*
X37630095Y-37476761D01*
%TO.C,REF\u002A\u002A*%
G36*
X97791833Y-40820663D02*
G01*
X97794048Y-40858850D01*
X97795784Y-40916886D01*
X97796899Y-40990180D01*
X97797257Y-41067055D01*
X97797257Y-41327196D01*
X97751326Y-41373127D01*
X97719675Y-41401429D01*
X97691890Y-41412893D01*
X97653915Y-41412168D01*
X97638840Y-41410321D01*
X97591726Y-41404948D01*
X97552756Y-41401869D01*
X97543257Y-41401585D01*
X97511233Y-41403445D01*
X97465432Y-41408114D01*
X97447674Y-41410321D01*
X97404057Y-41413735D01*
X97374745Y-41406320D01*
X97345680Y-41383427D01*
X97335188Y-41373127D01*
X97289257Y-41327196D01*
X97289257Y-40840602D01*
X97326226Y-40823758D01*
X97358059Y-40811282D01*
X97376683Y-40806914D01*
X97381458Y-40820718D01*
X97385921Y-40859286D01*
X97389775Y-40918356D01*
X97392722Y-40993663D01*
X97394143Y-41057286D01*
X97398114Y-41307657D01*
X97432759Y-41312556D01*
X97464268Y-41309131D01*
X97479708Y-41298041D01*
X97484023Y-41277308D01*
X97487708Y-41233145D01*
X97490469Y-41171146D01*
X97492012Y-41096909D01*
X97492235Y-41058706D01*
X97492457Y-40838783D01*
X97538166Y-40822849D01*
X97570518Y-40812015D01*
X97588115Y-40806962D01*
X97588623Y-40806914D01*
X97590388Y-40820648D01*
X97592329Y-40858730D01*
X97594282Y-40916482D01*
X97596084Y-40989227D01*
X97597343Y-41057286D01*
X97601314Y-41307657D01*
X97688400Y-41307657D01*
X97692396Y-41079240D01*
X97696392Y-40850822D01*
X97738847Y-40828868D01*
X97770192Y-40813793D01*
X97788744Y-40806951D01*
X97789279Y-40806914D01*
X97791833Y-40820663D01*
G37*
D12*
X97791833Y-40820663D02*
X97794048Y-40858850D01*
X97795784Y-40916886D01*
X97796899Y-40990180D01*
X97797257Y-41067055D01*
X97797257Y-41327196D01*
X97751326Y-41373127D01*
X97719675Y-41401429D01*
X97691890Y-41412893D01*
X97653915Y-41412168D01*
X97638840Y-41410321D01*
X97591726Y-41404948D01*
X97552756Y-41401869D01*
X97543257Y-41401585D01*
X97511233Y-41403445D01*
X97465432Y-41408114D01*
X97447674Y-41410321D01*
X97404057Y-41413735D01*
X97374745Y-41406320D01*
X97345680Y-41383427D01*
X97335188Y-41373127D01*
X97289257Y-41327196D01*
X97289257Y-40840602D01*
X97326226Y-40823758D01*
X97358059Y-40811282D01*
X97376683Y-40806914D01*
X97381458Y-40820718D01*
X97385921Y-40859286D01*
X97389775Y-40918356D01*
X97392722Y-40993663D01*
X97394143Y-41057286D01*
X97398114Y-41307657D01*
X97432759Y-41312556D01*
X97464268Y-41309131D01*
X97479708Y-41298041D01*
X97484023Y-41277308D01*
X97487708Y-41233145D01*
X97490469Y-41171146D01*
X97492012Y-41096909D01*
X97492235Y-41058706D01*
X97492457Y-40838783D01*
X97538166Y-40822849D01*
X97570518Y-40812015D01*
X97588115Y-40806962D01*
X97588623Y-40806914D01*
X97590388Y-40820648D01*
X97592329Y-40858730D01*
X97594282Y-40916482D01*
X97596084Y-40989227D01*
X97597343Y-41057286D01*
X97601314Y-41307657D01*
X97688400Y-41307657D01*
X97692396Y-41079240D01*
X97696392Y-40850822D01*
X97738847Y-40828868D01*
X97770192Y-40813793D01*
X97788744Y-40806951D01*
X97789279Y-40806914D01*
X97791833Y-40820663D01*
G36*
X92749096Y-40970159D02*
G01*
X92754068Y-40933949D01*
X92762713Y-40907299D01*
X92776005Y-40883722D01*
X92778943Y-40879338D01*
X92828313Y-40820249D01*
X92882109Y-40785947D01*
X92947602Y-40772331D01*
X92969842Y-40771665D01*
X93053115Y-40783962D01*
X93121145Y-40819733D01*
X93171351Y-40877301D01*
X93189185Y-40914312D01*
X93203063Y-40969882D01*
X93210167Y-41040096D01*
X93210840Y-41116727D01*
X93205427Y-41191552D01*
X93194270Y-41256342D01*
X93177714Y-41302873D01*
X93172626Y-41310887D01*
X93112355Y-41370707D01*
X93040769Y-41406535D01*
X92963092Y-41417020D01*
X92884548Y-41400810D01*
X92862689Y-41391092D01*
X92820122Y-41361143D01*
X92782763Y-41321433D01*
X92779232Y-41316397D01*
X92764881Y-41292124D01*
X92755394Y-41266178D01*
X92749790Y-41232022D01*
X92747086Y-41183119D01*
X92746299Y-41112935D01*
X92746286Y-41097200D01*
X92746322Y-41092192D01*
X92891429Y-41092192D01*
X92892273Y-41158430D01*
X92895596Y-41202386D01*
X92902583Y-41230779D01*
X92914416Y-41250325D01*
X92920457Y-41256857D01*
X92955186Y-41281680D01*
X92988903Y-41280548D01*
X93022995Y-41259016D01*
X93043329Y-41236029D01*
X93055371Y-41202478D01*
X93062134Y-41149569D01*
X93062598Y-41143399D01*
X93063752Y-41047513D01*
X93051688Y-40976299D01*
X93026570Y-40930194D01*
X92988560Y-40909635D01*
X92974992Y-40908514D01*
X92939364Y-40914152D01*
X92914994Y-40933686D01*
X92900093Y-40971042D01*
X92892875Y-41030150D01*
X92891429Y-41092192D01*
X92746322Y-41092192D01*
X92746826Y-41022413D01*
X92749096Y-40970159D01*
G37*
X92749096Y-40970159D02*
X92754068Y-40933949D01*
X92762713Y-40907299D01*
X92776005Y-40883722D01*
X92778943Y-40879338D01*
X92828313Y-40820249D01*
X92882109Y-40785947D01*
X92947602Y-40772331D01*
X92969842Y-40771665D01*
X93053115Y-40783962D01*
X93121145Y-40819733D01*
X93171351Y-40877301D01*
X93189185Y-40914312D01*
X93203063Y-40969882D01*
X93210167Y-41040096D01*
X93210840Y-41116727D01*
X93205427Y-41191552D01*
X93194270Y-41256342D01*
X93177714Y-41302873D01*
X93172626Y-41310887D01*
X93112355Y-41370707D01*
X93040769Y-41406535D01*
X92963092Y-41417020D01*
X92884548Y-41400810D01*
X92862689Y-41391092D01*
X92820122Y-41361143D01*
X92782763Y-41321433D01*
X92779232Y-41316397D01*
X92764881Y-41292124D01*
X92755394Y-41266178D01*
X92749790Y-41232022D01*
X92747086Y-41183119D01*
X92746299Y-41112935D01*
X92746286Y-41097200D01*
X92746322Y-41092192D01*
X92891429Y-41092192D01*
X92892273Y-41158430D01*
X92895596Y-41202386D01*
X92902583Y-41230779D01*
X92914416Y-41250325D01*
X92920457Y-41256857D01*
X92955186Y-41281680D01*
X92988903Y-41280548D01*
X93022995Y-41259016D01*
X93043329Y-41236029D01*
X93055371Y-41202478D01*
X93062134Y-41149569D01*
X93062598Y-41143399D01*
X93063752Y-41047513D01*
X93051688Y-40976299D01*
X93026570Y-40930194D01*
X92988560Y-40909635D01*
X92974992Y-40908514D01*
X92939364Y-40914152D01*
X92914994Y-40933686D01*
X92900093Y-40971042D01*
X92892875Y-41030150D01*
X92891429Y-41092192D01*
X92746322Y-41092192D01*
X92746826Y-41022413D01*
X92749096Y-40970159D01*
G36*
X98880196Y-40957384D02*
G01*
X98893884Y-40908695D01*
X98916096Y-40872849D01*
X98948574Y-40844513D01*
X98962733Y-40835355D01*
X99027053Y-40811507D01*
X99097473Y-40810006D01*
X99165595Y-40828966D01*
X99223021Y-40866497D01*
X99250719Y-40900096D01*
X99272662Y-40961064D01*
X99274405Y-41009308D01*
X99270457Y-41073816D01*
X99121686Y-41138934D01*
X99049349Y-41172202D01*
X99002084Y-41198964D01*
X98977507Y-41222144D01*
X98973237Y-41244667D01*
X98986889Y-41269455D01*
X99001943Y-41285886D01*
X99045746Y-41312235D01*
X99093389Y-41314081D01*
X99137145Y-41293546D01*
X99169289Y-41252752D01*
X99175038Y-41238347D01*
X99202576Y-41193356D01*
X99234258Y-41174182D01*
X99277714Y-41157779D01*
X99277714Y-41219966D01*
X99273872Y-41262283D01*
X99258823Y-41297969D01*
X99227280Y-41338943D01*
X99222592Y-41344267D01*
X99187506Y-41380720D01*
X99157347Y-41400283D01*
X99119615Y-41409283D01*
X99088335Y-41412230D01*
X99032385Y-41412965D01*
X98992555Y-41403660D01*
X98967708Y-41389846D01*
X98928656Y-41359467D01*
X98901625Y-41326613D01*
X98884517Y-41285294D01*
X98875238Y-41229521D01*
X98871693Y-41153305D01*
X98871410Y-41114622D01*
X98872372Y-41068247D01*
X98960007Y-41068247D01*
X98961023Y-41093126D01*
X98963556Y-41097200D01*
X98980274Y-41091665D01*
X99016249Y-41077017D01*
X99064331Y-41056190D01*
X99074386Y-41051714D01*
X99135152Y-41020814D01*
X99168632Y-40993657D01*
X99175990Y-40968220D01*
X99158391Y-40942481D01*
X99143856Y-40931109D01*
X99091410Y-40908364D01*
X99042322Y-40912122D01*
X99001227Y-40939884D01*
X98972758Y-40989152D01*
X98963631Y-41028257D01*
X98960007Y-41068247D01*
X98872372Y-41068247D01*
X98873285Y-41024249D01*
X98880196Y-40957384D01*
G37*
X98880196Y-40957384D02*
X98893884Y-40908695D01*
X98916096Y-40872849D01*
X98948574Y-40844513D01*
X98962733Y-40835355D01*
X99027053Y-40811507D01*
X99097473Y-40810006D01*
X99165595Y-40828966D01*
X99223021Y-40866497D01*
X99250719Y-40900096D01*
X99272662Y-40961064D01*
X99274405Y-41009308D01*
X99270457Y-41073816D01*
X99121686Y-41138934D01*
X99049349Y-41172202D01*
X99002084Y-41198964D01*
X98977507Y-41222144D01*
X98973237Y-41244667D01*
X98986889Y-41269455D01*
X99001943Y-41285886D01*
X99045746Y-41312235D01*
X99093389Y-41314081D01*
X99137145Y-41293546D01*
X99169289Y-41252752D01*
X99175038Y-41238347D01*
X99202576Y-41193356D01*
X99234258Y-41174182D01*
X99277714Y-41157779D01*
X99277714Y-41219966D01*
X99273872Y-41262283D01*
X99258823Y-41297969D01*
X99227280Y-41338943D01*
X99222592Y-41344267D01*
X99187506Y-41380720D01*
X99157347Y-41400283D01*
X99119615Y-41409283D01*
X99088335Y-41412230D01*
X99032385Y-41412965D01*
X98992555Y-41403660D01*
X98967708Y-41389846D01*
X98928656Y-41359467D01*
X98901625Y-41326613D01*
X98884517Y-41285294D01*
X98875238Y-41229521D01*
X98871693Y-41153305D01*
X98871410Y-41114622D01*
X98872372Y-41068247D01*
X98960007Y-41068247D01*
X98961023Y-41093126D01*
X98963556Y-41097200D01*
X98980274Y-41091665D01*
X99016249Y-41077017D01*
X99064331Y-41056190D01*
X99074386Y-41051714D01*
X99135152Y-41020814D01*
X99168632Y-40993657D01*
X99175990Y-40968220D01*
X99158391Y-40942481D01*
X99143856Y-40931109D01*
X99091410Y-40908364D01*
X99042322Y-40912122D01*
X99001227Y-40939884D01*
X98972758Y-40989152D01*
X98963631Y-41028257D01*
X98960007Y-41068247D01*
X98872372Y-41068247D01*
X98873285Y-41024249D01*
X98880196Y-40957384D01*
G36*
X94728093Y-40789780D02*
G01*
X94774672Y-40816723D01*
X94807057Y-40843466D01*
X94830742Y-40871484D01*
X94847059Y-40905748D01*
X94857339Y-40951227D01*
X94862914Y-41012892D01*
X94865116Y-41095711D01*
X94865371Y-41155246D01*
X94865371Y-41374391D01*
X94803686Y-41402044D01*
X94742000Y-41429697D01*
X94734743Y-41189670D01*
X94731744Y-41100028D01*
X94728598Y-41034962D01*
X94724701Y-40990026D01*
X94719447Y-40960770D01*
X94712231Y-40942748D01*
X94702450Y-40931511D01*
X94699312Y-40929079D01*
X94651761Y-40910083D01*
X94603697Y-40917600D01*
X94575086Y-40937543D01*
X94563447Y-40951675D01*
X94555391Y-40970220D01*
X94550271Y-40998334D01*
X94547441Y-41041173D01*
X94546256Y-41103895D01*
X94546057Y-41169261D01*
X94546018Y-41251268D01*
X94544614Y-41309316D01*
X94539914Y-41348465D01*
X94529987Y-41373780D01*
X94512903Y-41390323D01*
X94486732Y-41403156D01*
X94451775Y-41416491D01*
X94413596Y-41431007D01*
X94418141Y-41173389D01*
X94419971Y-41080519D01*
X94422112Y-41011889D01*
X94425181Y-40962711D01*
X94429794Y-40928198D01*
X94436568Y-40903562D01*
X94446119Y-40884016D01*
X94457634Y-40866770D01*
X94513190Y-40811680D01*
X94580980Y-40779822D01*
X94654713Y-40772191D01*
X94728093Y-40789780D01*
G37*
X94728093Y-40789780D02*
X94774672Y-40816723D01*
X94807057Y-40843466D01*
X94830742Y-40871484D01*
X94847059Y-40905748D01*
X94857339Y-40951227D01*
X94862914Y-41012892D01*
X94865116Y-41095711D01*
X94865371Y-41155246D01*
X94865371Y-41374391D01*
X94803686Y-41402044D01*
X94742000Y-41429697D01*
X94734743Y-41189670D01*
X94731744Y-41100028D01*
X94728598Y-41034962D01*
X94724701Y-40990026D01*
X94719447Y-40960770D01*
X94712231Y-40942748D01*
X94702450Y-40931511D01*
X94699312Y-40929079D01*
X94651761Y-40910083D01*
X94603697Y-40917600D01*
X94575086Y-40937543D01*
X94563447Y-40951675D01*
X94555391Y-40970220D01*
X94550271Y-40998334D01*
X94547441Y-41041173D01*
X94546256Y-41103895D01*
X94546057Y-41169261D01*
X94546018Y-41251268D01*
X94544614Y-41309316D01*
X94539914Y-41348465D01*
X94529987Y-41373780D01*
X94512903Y-41390323D01*
X94486732Y-41403156D01*
X94451775Y-41416491D01*
X94413596Y-41431007D01*
X94418141Y-41173389D01*
X94419971Y-41080519D01*
X94422112Y-41011889D01*
X94425181Y-40962711D01*
X94429794Y-40928198D01*
X94436568Y-40903562D01*
X94446119Y-40884016D01*
X94457634Y-40866770D01*
X94513190Y-40811680D01*
X94580980Y-40779822D01*
X94654713Y-40772191D01*
X94728093Y-40789780D01*
G36*
X98664600Y-40820752D02*
G01*
X98681948Y-40828334D01*
X98723356Y-40861128D01*
X98758765Y-40908547D01*
X98780664Y-40959151D01*
X98784229Y-40984098D01*
X98772279Y-41018927D01*
X98746067Y-41037357D01*
X98717964Y-41048516D01*
X98705095Y-41050572D01*
X98698829Y-41035649D01*
X98686456Y-41003175D01*
X98681028Y-40988502D01*
X98650590Y-40937744D01*
X98606520Y-40912427D01*
X98550010Y-40913206D01*
X98545825Y-40914203D01*
X98515655Y-40928507D01*
X98493476Y-40956393D01*
X98478327Y-41001287D01*
X98469250Y-41066615D01*
X98465286Y-41155804D01*
X98464914Y-41203261D01*
X98464730Y-41278071D01*
X98463522Y-41329069D01*
X98460309Y-41361471D01*
X98454109Y-41380495D01*
X98443940Y-41391356D01*
X98428819Y-41399272D01*
X98427946Y-41399670D01*
X98398828Y-41411981D01*
X98384403Y-41416514D01*
X98382186Y-41402809D01*
X98380289Y-41364925D01*
X98378847Y-41307715D01*
X98377998Y-41236027D01*
X98377829Y-41183565D01*
X98378692Y-41082047D01*
X98382070Y-41005032D01*
X98389142Y-40948023D01*
X98401088Y-40906526D01*
X98419090Y-40876043D01*
X98444327Y-40852080D01*
X98469247Y-40835355D01*
X98529171Y-40813097D01*
X98598911Y-40808076D01*
X98664600Y-40820752D01*
G37*
X98664600Y-40820752D02*
X98681948Y-40828334D01*
X98723356Y-40861128D01*
X98758765Y-40908547D01*
X98780664Y-40959151D01*
X98784229Y-40984098D01*
X98772279Y-41018927D01*
X98746067Y-41037357D01*
X98717964Y-41048516D01*
X98705095Y-41050572D01*
X98698829Y-41035649D01*
X98686456Y-41003175D01*
X98681028Y-40988502D01*
X98650590Y-40937744D01*
X98606520Y-40912427D01*
X98550010Y-40913206D01*
X98545825Y-40914203D01*
X98515655Y-40928507D01*
X98493476Y-40956393D01*
X98478327Y-41001287D01*
X98469250Y-41066615D01*
X98465286Y-41155804D01*
X98464914Y-41203261D01*
X98464730Y-41278071D01*
X98463522Y-41329069D01*
X98460309Y-41361471D01*
X98454109Y-41380495D01*
X98443940Y-41391356D01*
X98428819Y-41399272D01*
X98427946Y-41399670D01*
X98398828Y-41411981D01*
X98384403Y-41416514D01*
X98382186Y-41402809D01*
X98380289Y-41364925D01*
X98378847Y-41307715D01*
X98377998Y-41236027D01*
X98377829Y-41183565D01*
X98378692Y-41082047D01*
X98382070Y-41005032D01*
X98389142Y-40948023D01*
X98401088Y-40906526D01*
X98419090Y-40876043D01*
X98444327Y-40852080D01*
X98469247Y-40835355D01*
X98529171Y-40813097D01*
X98598911Y-40808076D01*
X98664600Y-40820752D01*
G36*
X96796726Y-40952086D02*
G01*
X96819135Y-40900600D01*
X96854124Y-40860443D01*
X96881375Y-40839861D01*
X96930907Y-40817625D01*
X96988316Y-40807304D01*
X97041682Y-40810067D01*
X97071543Y-40821212D01*
X97083261Y-40824383D01*
X97091037Y-40812557D01*
X97096465Y-40780866D01*
X97100571Y-40732593D01*
X97105067Y-40678829D01*
X97111313Y-40646482D01*
X97122676Y-40627985D01*
X97142528Y-40615770D01*
X97155000Y-40610362D01*
X97202171Y-40590601D01*
X97202117Y-40927358D01*
X97201933Y-41035837D01*
X97201219Y-41119287D01*
X97199675Y-41181704D01*
X97197001Y-41227085D01*
X97192894Y-41259429D01*
X97187055Y-41282733D01*
X97179182Y-41300995D01*
X97173221Y-41311418D01*
X97123855Y-41367945D01*
X97061264Y-41403377D01*
X96992013Y-41416090D01*
X96922668Y-41404463D01*
X96881375Y-41383568D01*
X96838025Y-41347422D01*
X96808481Y-41303276D01*
X96790655Y-41245462D01*
X96782463Y-41168313D01*
X96781302Y-41111714D01*
X96781458Y-41107647D01*
X96882857Y-41107647D01*
X96883476Y-41172550D01*
X96886314Y-41215514D01*
X96892840Y-41243622D01*
X96904523Y-41263953D01*
X96918483Y-41279288D01*
X96965365Y-41308890D01*
X97015701Y-41311419D01*
X97063276Y-41286705D01*
X97066979Y-41283356D01*
X97082783Y-41265935D01*
X97092693Y-41245209D01*
X97098058Y-41214362D01*
X97100228Y-41166577D01*
X97100571Y-41113748D01*
X97099827Y-41047381D01*
X97096748Y-41003106D01*
X97090061Y-40974009D01*
X97078496Y-40953173D01*
X97069013Y-40942107D01*
X97024960Y-40914198D01*
X96974224Y-40910843D01*
X96925796Y-40932159D01*
X96916450Y-40940073D01*
X96900540Y-40957647D01*
X96890610Y-40978587D01*
X96885278Y-41009782D01*
X96883163Y-41058122D01*
X96882857Y-41107647D01*
X96781458Y-41107647D01*
X96784810Y-41020568D01*
X96796726Y-40952086D01*
G37*
X96796726Y-40952086D02*
X96819135Y-40900600D01*
X96854124Y-40860443D01*
X96881375Y-40839861D01*
X96930907Y-40817625D01*
X96988316Y-40807304D01*
X97041682Y-40810067D01*
X97071543Y-40821212D01*
X97083261Y-40824383D01*
X97091037Y-40812557D01*
X97096465Y-40780866D01*
X97100571Y-40732593D01*
X97105067Y-40678829D01*
X97111313Y-40646482D01*
X97122676Y-40627985D01*
X97142528Y-40615770D01*
X97155000Y-40610362D01*
X97202171Y-40590601D01*
X97202117Y-40927358D01*
X97201933Y-41035837D01*
X97201219Y-41119287D01*
X97199675Y-41181704D01*
X97197001Y-41227085D01*
X97192894Y-41259429D01*
X97187055Y-41282733D01*
X97179182Y-41300995D01*
X97173221Y-41311418D01*
X97123855Y-41367945D01*
X97061264Y-41403377D01*
X96992013Y-41416090D01*
X96922668Y-41404463D01*
X96881375Y-41383568D01*
X96838025Y-41347422D01*
X96808481Y-41303276D01*
X96790655Y-41245462D01*
X96782463Y-41168313D01*
X96781302Y-41111714D01*
X96781458Y-41107647D01*
X96882857Y-41107647D01*
X96883476Y-41172550D01*
X96886314Y-41215514D01*
X96892840Y-41243622D01*
X96904523Y-41263953D01*
X96918483Y-41279288D01*
X96965365Y-41308890D01*
X97015701Y-41311419D01*
X97063276Y-41286705D01*
X97066979Y-41283356D01*
X97082783Y-41265935D01*
X97092693Y-41245209D01*
X97098058Y-41214362D01*
X97100228Y-41166577D01*
X97100571Y-41113748D01*
X97099827Y-41047381D01*
X97096748Y-41003106D01*
X97090061Y-40974009D01*
X97078496Y-40953173D01*
X97069013Y-40942107D01*
X97024960Y-40914198D01*
X96974224Y-40910843D01*
X96925796Y-40932159D01*
X96916450Y-40940073D01*
X96900540Y-40957647D01*
X96890610Y-40978587D01*
X96885278Y-41009782D01*
X96883163Y-41058122D01*
X96882857Y-41107647D01*
X96781458Y-41107647D01*
X96784810Y-41020568D01*
X96796726Y-40952086D01*
G36*
X95387886Y-40713289D02*
G01*
X95392139Y-40772613D01*
X95397025Y-40807572D01*
X95403795Y-40822820D01*
X95413702Y-40823015D01*
X95416914Y-40821195D01*
X95459644Y-40808015D01*
X95515227Y-40808785D01*
X95571737Y-40822333D01*
X95607082Y-40839861D01*
X95643321Y-40867861D01*
X95669813Y-40899549D01*
X95687999Y-40939813D01*
X95699322Y-40993543D01*
X95705222Y-41065626D01*
X95707143Y-41160951D01*
X95707177Y-41179237D01*
X95707200Y-41384646D01*
X95661491Y-41400580D01*
X95629027Y-41411420D01*
X95611215Y-41416468D01*
X95610691Y-41416514D01*
X95608937Y-41402828D01*
X95607444Y-41365076D01*
X95606326Y-41308224D01*
X95605697Y-41237234D01*
X95605600Y-41194073D01*
X95605398Y-41108973D01*
X95604358Y-41047981D01*
X95601831Y-41006177D01*
X95597164Y-40978642D01*
X95589707Y-40960456D01*
X95578811Y-40946698D01*
X95572007Y-40940073D01*
X95525272Y-40913375D01*
X95474272Y-40911375D01*
X95428001Y-40933955D01*
X95419444Y-40942107D01*
X95406893Y-40957436D01*
X95398188Y-40975618D01*
X95392631Y-41001909D01*
X95389526Y-41041562D01*
X95388176Y-41099832D01*
X95387886Y-41180173D01*
X95387886Y-41384646D01*
X95342177Y-41400580D01*
X95309713Y-41411420D01*
X95291901Y-41416468D01*
X95291377Y-41416514D01*
X95290037Y-41402623D01*
X95288828Y-41363439D01*
X95287801Y-41302700D01*
X95287002Y-41224141D01*
X95286481Y-41131498D01*
X95286286Y-41028509D01*
X95286286Y-40631342D01*
X95333457Y-40611444D01*
X95380629Y-40591547D01*
X95387886Y-40713289D01*
G37*
X95387886Y-40713289D02*
X95392139Y-40772613D01*
X95397025Y-40807572D01*
X95403795Y-40822820D01*
X95413702Y-40823015D01*
X95416914Y-40821195D01*
X95459644Y-40808015D01*
X95515227Y-40808785D01*
X95571737Y-40822333D01*
X95607082Y-40839861D01*
X95643321Y-40867861D01*
X95669813Y-40899549D01*
X95687999Y-40939813D01*
X95699322Y-40993543D01*
X95705222Y-41065626D01*
X95707143Y-41160951D01*
X95707177Y-41179237D01*
X95707200Y-41384646D01*
X95661491Y-41400580D01*
X95629027Y-41411420D01*
X95611215Y-41416468D01*
X95610691Y-41416514D01*
X95608937Y-41402828D01*
X95607444Y-41365076D01*
X95606326Y-41308224D01*
X95605697Y-41237234D01*
X95605600Y-41194073D01*
X95605398Y-41108973D01*
X95604358Y-41047981D01*
X95601831Y-41006177D01*
X95597164Y-40978642D01*
X95589707Y-40960456D01*
X95578811Y-40946698D01*
X95572007Y-40940073D01*
X95525272Y-40913375D01*
X95474272Y-40911375D01*
X95428001Y-40933955D01*
X95419444Y-40942107D01*
X95406893Y-40957436D01*
X95398188Y-40975618D01*
X95392631Y-41001909D01*
X95389526Y-41041562D01*
X95388176Y-41099832D01*
X95387886Y-41180173D01*
X95387886Y-41384646D01*
X95342177Y-41400580D01*
X95309713Y-41411420D01*
X95291901Y-41416468D01*
X95291377Y-41416514D01*
X95290037Y-41402623D01*
X95288828Y-41363439D01*
X95287801Y-41302700D01*
X95287002Y-41224141D01*
X95286481Y-41131498D01*
X95286286Y-41028509D01*
X95286286Y-40631342D01*
X95333457Y-40611444D01*
X95380629Y-40591547D01*
X95387886Y-40713289D01*
G36*
X96051744Y-40812968D02*
G01*
X96108616Y-40834087D01*
X96109267Y-40834493D01*
X96144440Y-40860380D01*
X96170407Y-40890633D01*
X96188670Y-40930058D01*
X96200732Y-40983462D01*
X96208096Y-41055651D01*
X96212264Y-41151432D01*
X96212629Y-41165078D01*
X96217876Y-41370842D01*
X96173716Y-41393678D01*
X96141763Y-41409110D01*
X96122470Y-41416423D01*
X96121578Y-41416514D01*
X96118239Y-41403022D01*
X96115587Y-41366626D01*
X96113956Y-41313452D01*
X96113600Y-41270393D01*
X96113592Y-41200641D01*
X96110403Y-41156837D01*
X96099288Y-41135944D01*
X96075501Y-41134925D01*
X96034296Y-41150741D01*
X95972086Y-41179815D01*
X95926341Y-41203963D01*
X95902813Y-41224913D01*
X95895896Y-41247747D01*
X95895886Y-41248877D01*
X95907299Y-41288212D01*
X95941092Y-41309462D01*
X95992809Y-41312539D01*
X96030061Y-41312006D01*
X96049703Y-41322735D01*
X96061952Y-41348505D01*
X96069002Y-41381337D01*
X96058842Y-41399966D01*
X96055017Y-41402632D01*
X96019001Y-41413340D01*
X95968566Y-41414856D01*
X95916626Y-41407759D01*
X95879822Y-41394788D01*
X95828938Y-41351585D01*
X95800014Y-41291446D01*
X95794286Y-41244462D01*
X95798657Y-41202082D01*
X95814475Y-41167488D01*
X95845797Y-41136763D01*
X95896678Y-41105990D01*
X95971176Y-41071252D01*
X95975714Y-41069288D01*
X96042821Y-41038287D01*
X96084232Y-41012862D01*
X96101981Y-40990014D01*
X96098107Y-40966745D01*
X96074643Y-40940056D01*
X96067627Y-40933914D01*
X96020630Y-40910100D01*
X95971933Y-40911103D01*
X95929522Y-40934451D01*
X95901384Y-40977675D01*
X95898769Y-40986160D01*
X95873308Y-41027308D01*
X95841001Y-41047128D01*
X95794286Y-41066770D01*
X95794286Y-41015950D01*
X95808496Y-40942082D01*
X95850675Y-40874327D01*
X95872624Y-40851661D01*
X95922517Y-40822569D01*
X95985967Y-40809400D01*
X96051744Y-40812968D01*
G37*
X96051744Y-40812968D02*
X96108616Y-40834087D01*
X96109267Y-40834493D01*
X96144440Y-40860380D01*
X96170407Y-40890633D01*
X96188670Y-40930058D01*
X96200732Y-40983462D01*
X96208096Y-41055651D01*
X96212264Y-41151432D01*
X96212629Y-41165078D01*
X96217876Y-41370842D01*
X96173716Y-41393678D01*
X96141763Y-41409110D01*
X96122470Y-41416423D01*
X96121578Y-41416514D01*
X96118239Y-41403022D01*
X96115587Y-41366626D01*
X96113956Y-41313452D01*
X96113600Y-41270393D01*
X96113592Y-41200641D01*
X96110403Y-41156837D01*
X96099288Y-41135944D01*
X96075501Y-41134925D01*
X96034296Y-41150741D01*
X95972086Y-41179815D01*
X95926341Y-41203963D01*
X95902813Y-41224913D01*
X95895896Y-41247747D01*
X95895886Y-41248877D01*
X95907299Y-41288212D01*
X95941092Y-41309462D01*
X95992809Y-41312539D01*
X96030061Y-41312006D01*
X96049703Y-41322735D01*
X96061952Y-41348505D01*
X96069002Y-41381337D01*
X96058842Y-41399966D01*
X96055017Y-41402632D01*
X96019001Y-41413340D01*
X95968566Y-41414856D01*
X95916626Y-41407759D01*
X95879822Y-41394788D01*
X95828938Y-41351585D01*
X95800014Y-41291446D01*
X95794286Y-41244462D01*
X95798657Y-41202082D01*
X95814475Y-41167488D01*
X95845797Y-41136763D01*
X95896678Y-41105990D01*
X95971176Y-41071252D01*
X95975714Y-41069288D01*
X96042821Y-41038287D01*
X96084232Y-41012862D01*
X96101981Y-40990014D01*
X96098107Y-40966745D01*
X96074643Y-40940056D01*
X96067627Y-40933914D01*
X96020630Y-40910100D01*
X95971933Y-40911103D01*
X95929522Y-40934451D01*
X95901384Y-40977675D01*
X95898769Y-40986160D01*
X95873308Y-41027308D01*
X95841001Y-41047128D01*
X95794286Y-41066770D01*
X95794286Y-41015950D01*
X95808496Y-40942082D01*
X95850675Y-40874327D01*
X95872624Y-40851661D01*
X95922517Y-40822569D01*
X95985967Y-40809400D01*
X96051744Y-40812968D01*
G36*
X96115910Y-36104348D02*
G01*
X96194454Y-36104778D01*
X96251298Y-36105942D01*
X96290105Y-36108207D01*
X96314538Y-36111940D01*
X96328262Y-36117506D01*
X96334940Y-36125273D01*
X96338236Y-36135605D01*
X96338556Y-36136943D01*
X96343562Y-36161079D01*
X96352829Y-36208701D01*
X96365392Y-36274741D01*
X96380287Y-36354128D01*
X96396551Y-36441796D01*
X96397119Y-36444875D01*
X96413410Y-36530789D01*
X96428652Y-36606696D01*
X96441861Y-36668045D01*
X96452054Y-36710282D01*
X96458248Y-36728855D01*
X96458543Y-36729184D01*
X96476788Y-36738253D01*
X96514405Y-36753367D01*
X96563271Y-36771262D01*
X96563543Y-36771358D01*
X96625093Y-36794493D01*
X96697657Y-36823965D01*
X96766057Y-36853597D01*
X96769294Y-36855062D01*
X96880702Y-36905626D01*
X97127399Y-36737160D01*
X97203077Y-36685803D01*
X97271631Y-36639889D01*
X97329088Y-36602030D01*
X97371476Y-36574837D01*
X97394825Y-36560921D01*
X97397042Y-36559889D01*
X97414010Y-36564484D01*
X97445701Y-36586655D01*
X97493352Y-36627447D01*
X97558198Y-36687905D01*
X97624397Y-36752227D01*
X97688214Y-36815612D01*
X97745329Y-36873451D01*
X97792305Y-36922175D01*
X97825703Y-36958210D01*
X97842085Y-36977984D01*
X97842694Y-36979002D01*
X97844505Y-36992572D01*
X97837683Y-37014733D01*
X97820540Y-37048478D01*
X97791393Y-37096800D01*
X97748555Y-37162692D01*
X97691448Y-37247517D01*
X97640766Y-37322177D01*
X97595461Y-37389140D01*
X97558150Y-37444516D01*
X97531452Y-37484420D01*
X97517985Y-37504962D01*
X97517137Y-37506356D01*
X97518781Y-37526038D01*
X97531245Y-37564293D01*
X97552048Y-37613889D01*
X97559462Y-37629728D01*
X97591814Y-37700290D01*
X97626328Y-37780353D01*
X97654365Y-37849629D01*
X97674568Y-37901045D01*
X97690615Y-37940119D01*
X97699888Y-37960541D01*
X97701041Y-37962114D01*
X97718096Y-37964721D01*
X97758298Y-37971863D01*
X97816302Y-37982523D01*
X97886763Y-37995685D01*
X97964335Y-38010333D01*
X98043672Y-38025449D01*
X98119431Y-38040018D01*
X98186264Y-38053022D01*
X98238828Y-38063445D01*
X98271776Y-38070270D01*
X98279857Y-38072199D01*
X98288205Y-38076962D01*
X98294506Y-38087718D01*
X98299045Y-38108098D01*
X98302104Y-38141734D01*
X98303967Y-38192255D01*
X98304918Y-38263292D01*
X98305240Y-38358476D01*
X98305257Y-38397492D01*
X98305257Y-38714799D01*
X98229057Y-38729839D01*
X98186663Y-38737995D01*
X98123400Y-38749899D01*
X98046962Y-38764116D01*
X97965043Y-38779210D01*
X97942400Y-38783355D01*
X97866806Y-38798053D01*
X97800953Y-38812505D01*
X97750366Y-38825375D01*
X97720574Y-38835322D01*
X97715612Y-38838287D01*
X97703426Y-38859283D01*
X97685953Y-38899967D01*
X97666577Y-38952322D01*
X97662734Y-38963600D01*
X97637339Y-39033523D01*
X97605817Y-39112418D01*
X97574969Y-39183266D01*
X97574817Y-39183595D01*
X97523447Y-39294733D01*
X97692399Y-39543253D01*
X97861352Y-39791772D01*
X97644429Y-40009058D01*
X97578819Y-40073726D01*
X97518979Y-40130733D01*
X97468267Y-40177033D01*
X97430046Y-40209584D01*
X97407675Y-40225343D01*
X97404466Y-40226343D01*
X97385626Y-40218469D01*
X97347180Y-40196578D01*
X97293330Y-40163267D01*
X97228276Y-40121131D01*
X97157940Y-40073943D01*
X97086555Y-40025810D01*
X97022908Y-39983928D01*
X96971041Y-39950871D01*
X96934995Y-39929218D01*
X96918867Y-39921543D01*
X96899189Y-39928037D01*
X96861875Y-39945150D01*
X96814621Y-39969326D01*
X96809612Y-39972013D01*
X96745977Y-40003927D01*
X96702341Y-40019579D01*
X96675202Y-40019745D01*
X96661057Y-40005204D01*
X96660975Y-40005000D01*
X96653905Y-39987779D01*
X96637042Y-39946899D01*
X96611695Y-39885525D01*
X96579171Y-39806819D01*
X96540778Y-39713947D01*
X96497822Y-39610072D01*
X96456222Y-39509502D01*
X96410504Y-39398516D01*
X96368526Y-39295703D01*
X96331548Y-39204215D01*
X96300827Y-39127201D01*
X96277622Y-39067815D01*
X96263190Y-39029209D01*
X96258743Y-39014800D01*
X96269896Y-38998272D01*
X96299069Y-38971930D01*
X96337971Y-38942887D01*
X96448757Y-38851039D01*
X96535351Y-38745759D01*
X96596716Y-38629266D01*
X96631815Y-38503776D01*
X96639608Y-38371507D01*
X96633943Y-38310457D01*
X96603078Y-38183795D01*
X96549920Y-38071941D01*
X96477767Y-37976001D01*
X96389917Y-37897076D01*
X96289665Y-37836270D01*
X96180310Y-37794687D01*
X96065147Y-37773428D01*
X95947475Y-37773599D01*
X95830590Y-37796301D01*
X95717789Y-37842638D01*
X95612369Y-37913713D01*
X95568368Y-37953911D01*
X95483979Y-38057129D01*
X95425222Y-38169925D01*
X95391704Y-38289010D01*
X95383035Y-38411095D01*
X95398823Y-38532893D01*
X95438678Y-38651116D01*
X95502207Y-38762475D01*
X95589021Y-38863684D01*
X95686029Y-38942887D01*
X95726437Y-38973162D01*
X95754982Y-38999219D01*
X95765257Y-39014825D01*
X95759877Y-39031843D01*
X95744575Y-39072500D01*
X95720612Y-39133642D01*
X95689244Y-39212119D01*
X95651732Y-39304780D01*
X95609333Y-39408472D01*
X95567663Y-39509526D01*
X95521690Y-39620607D01*
X95479107Y-39723541D01*
X95441221Y-39815165D01*
X95409340Y-39892316D01*
X95384771Y-39951831D01*
X95368820Y-39990544D01*
X95362910Y-40005000D01*
X95348948Y-40019685D01*
X95321940Y-40019642D01*
X95278413Y-40004099D01*
X95214890Y-39972284D01*
X95214388Y-39972013D01*
X95166560Y-39947323D01*
X95127897Y-39929338D01*
X95106095Y-39921614D01*
X95105133Y-39921543D01*
X95088721Y-39929378D01*
X95052487Y-39951165D01*
X95000474Y-39984328D01*
X94936725Y-40026291D01*
X94866060Y-40073943D01*
X94794116Y-40122191D01*
X94729274Y-40164151D01*
X94675735Y-40197227D01*
X94637697Y-40218821D01*
X94619533Y-40226343D01*
X94602808Y-40216457D01*
X94569180Y-40188826D01*
X94522010Y-40146495D01*
X94464658Y-40092505D01*
X94400484Y-40029899D01*
X94379497Y-40008983D01*
X94162499Y-39791623D01*
X94327668Y-39549220D01*
X94377864Y-39474781D01*
X94421919Y-39407972D01*
X94457362Y-39352665D01*
X94481719Y-39312729D01*
X94492522Y-39292036D01*
X94492838Y-39290563D01*
X94487143Y-39271058D01*
X94471826Y-39231822D01*
X94449537Y-39179430D01*
X94433893Y-39144355D01*
X94404641Y-39077201D01*
X94377094Y-39009358D01*
X94355737Y-38952034D01*
X94349935Y-38934572D01*
X94333452Y-38887938D01*
X94317340Y-38851905D01*
X94308490Y-38838287D01*
X94288960Y-38829952D01*
X94246334Y-38818137D01*
X94186145Y-38804181D01*
X94113922Y-38789422D01*
X94081600Y-38783355D01*
X93999522Y-38768273D01*
X93920795Y-38753669D01*
X93853109Y-38740980D01*
X93804160Y-38731642D01*
X93794943Y-38729839D01*
X93718743Y-38714799D01*
X93718743Y-38397492D01*
X93718914Y-38293154D01*
X93719616Y-38214213D01*
X93721134Y-38157038D01*
X93723749Y-38117999D01*
X93727746Y-38093465D01*
X93733409Y-38079805D01*
X93741020Y-38073389D01*
X93744143Y-38072199D01*
X93762978Y-38067980D01*
X93804588Y-38059562D01*
X93863630Y-38047961D01*
X93934757Y-38034195D01*
X94012625Y-38019280D01*
X94091887Y-38004232D01*
X94167198Y-37990069D01*
X94233213Y-37977806D01*
X94284587Y-37968461D01*
X94315975Y-37963050D01*
X94322959Y-37962114D01*
X94329285Y-37949596D01*
X94343290Y-37916246D01*
X94362355Y-37868377D01*
X94369634Y-37849629D01*
X94398996Y-37777195D01*
X94433571Y-37697170D01*
X94464537Y-37629728D01*
X94487323Y-37578159D01*
X94502482Y-37535785D01*
X94507542Y-37509834D01*
X94506736Y-37506356D01*
X94496041Y-37489936D01*
X94471620Y-37453417D01*
X94436095Y-37400687D01*
X94392087Y-37335635D01*
X94342217Y-37262151D01*
X94332356Y-37247645D01*
X94274492Y-37161704D01*
X94231956Y-37096261D01*
X94203054Y-37048304D01*
X94186090Y-37014820D01*
X94179367Y-36992795D01*
X94181190Y-36979217D01*
X94181236Y-36979131D01*
X94195586Y-36961297D01*
X94227323Y-36926817D01*
X94273010Y-36879268D01*
X94329204Y-36822222D01*
X94392468Y-36759255D01*
X94399602Y-36752227D01*
X94479330Y-36675020D01*
X94540857Y-36618330D01*
X94585421Y-36581110D01*
X94614257Y-36562315D01*
X94626958Y-36559889D01*
X94645494Y-36570471D01*
X94683961Y-36594916D01*
X94738386Y-36630612D01*
X94804798Y-36674947D01*
X94879225Y-36725311D01*
X94896601Y-36737160D01*
X95143297Y-36905626D01*
X95254706Y-36855062D01*
X95322457Y-36825595D01*
X95395183Y-36795959D01*
X95457703Y-36772330D01*
X95460457Y-36771358D01*
X95509360Y-36753457D01*
X95547057Y-36738320D01*
X95565425Y-36729210D01*
X95565456Y-36729184D01*
X95571285Y-36712717D01*
X95581192Y-36672219D01*
X95594195Y-36612242D01*
X95609309Y-36537340D01*
X95625552Y-36452064D01*
X95626881Y-36444875D01*
X95643175Y-36357014D01*
X95658133Y-36277260D01*
X95670791Y-36210681D01*
X95680186Y-36162347D01*
X95685354Y-36137325D01*
X95685444Y-36136943D01*
X95688589Y-36126299D01*
X95694704Y-36118262D01*
X95707453Y-36112467D01*
X95730500Y-36108547D01*
X95767509Y-36106135D01*
X95822144Y-36104865D01*
X95898067Y-36104371D01*
X95998944Y-36104286D01*
X96012000Y-36104286D01*
X96115910Y-36104348D01*
G37*
X96115910Y-36104348D02*
X96194454Y-36104778D01*
X96251298Y-36105942D01*
X96290105Y-36108207D01*
X96314538Y-36111940D01*
X96328262Y-36117506D01*
X96334940Y-36125273D01*
X96338236Y-36135605D01*
X96338556Y-36136943D01*
X96343562Y-36161079D01*
X96352829Y-36208701D01*
X96365392Y-36274741D01*
X96380287Y-36354128D01*
X96396551Y-36441796D01*
X96397119Y-36444875D01*
X96413410Y-36530789D01*
X96428652Y-36606696D01*
X96441861Y-36668045D01*
X96452054Y-36710282D01*
X96458248Y-36728855D01*
X96458543Y-36729184D01*
X96476788Y-36738253D01*
X96514405Y-36753367D01*
X96563271Y-36771262D01*
X96563543Y-36771358D01*
X96625093Y-36794493D01*
X96697657Y-36823965D01*
X96766057Y-36853597D01*
X96769294Y-36855062D01*
X96880702Y-36905626D01*
X97127399Y-36737160D01*
X97203077Y-36685803D01*
X97271631Y-36639889D01*
X97329088Y-36602030D01*
X97371476Y-36574837D01*
X97394825Y-36560921D01*
X97397042Y-36559889D01*
X97414010Y-36564484D01*
X97445701Y-36586655D01*
X97493352Y-36627447D01*
X97558198Y-36687905D01*
X97624397Y-36752227D01*
X97688214Y-36815612D01*
X97745329Y-36873451D01*
X97792305Y-36922175D01*
X97825703Y-36958210D01*
X97842085Y-36977984D01*
X97842694Y-36979002D01*
X97844505Y-36992572D01*
X97837683Y-37014733D01*
X97820540Y-37048478D01*
X97791393Y-37096800D01*
X97748555Y-37162692D01*
X97691448Y-37247517D01*
X97640766Y-37322177D01*
X97595461Y-37389140D01*
X97558150Y-37444516D01*
X97531452Y-37484420D01*
X97517985Y-37504962D01*
X97517137Y-37506356D01*
X97518781Y-37526038D01*
X97531245Y-37564293D01*
X97552048Y-37613889D01*
X97559462Y-37629728D01*
X97591814Y-37700290D01*
X97626328Y-37780353D01*
X97654365Y-37849629D01*
X97674568Y-37901045D01*
X97690615Y-37940119D01*
X97699888Y-37960541D01*
X97701041Y-37962114D01*
X97718096Y-37964721D01*
X97758298Y-37971863D01*
X97816302Y-37982523D01*
X97886763Y-37995685D01*
X97964335Y-38010333D01*
X98043672Y-38025449D01*
X98119431Y-38040018D01*
X98186264Y-38053022D01*
X98238828Y-38063445D01*
X98271776Y-38070270D01*
X98279857Y-38072199D01*
X98288205Y-38076962D01*
X98294506Y-38087718D01*
X98299045Y-38108098D01*
X98302104Y-38141734D01*
X98303967Y-38192255D01*
X98304918Y-38263292D01*
X98305240Y-38358476D01*
X98305257Y-38397492D01*
X98305257Y-38714799D01*
X98229057Y-38729839D01*
X98186663Y-38737995D01*
X98123400Y-38749899D01*
X98046962Y-38764116D01*
X97965043Y-38779210D01*
X97942400Y-38783355D01*
X97866806Y-38798053D01*
X97800953Y-38812505D01*
X97750366Y-38825375D01*
X97720574Y-38835322D01*
X97715612Y-38838287D01*
X97703426Y-38859283D01*
X97685953Y-38899967D01*
X97666577Y-38952322D01*
X97662734Y-38963600D01*
X97637339Y-39033523D01*
X97605817Y-39112418D01*
X97574969Y-39183266D01*
X97574817Y-39183595D01*
X97523447Y-39294733D01*
X97692399Y-39543253D01*
X97861352Y-39791772D01*
X97644429Y-40009058D01*
X97578819Y-40073726D01*
X97518979Y-40130733D01*
X97468267Y-40177033D01*
X97430046Y-40209584D01*
X97407675Y-40225343D01*
X97404466Y-40226343D01*
X97385626Y-40218469D01*
X97347180Y-40196578D01*
X97293330Y-40163267D01*
X97228276Y-40121131D01*
X97157940Y-40073943D01*
X97086555Y-40025810D01*
X97022908Y-39983928D01*
X96971041Y-39950871D01*
X96934995Y-39929218D01*
X96918867Y-39921543D01*
X96899189Y-39928037D01*
X96861875Y-39945150D01*
X96814621Y-39969326D01*
X96809612Y-39972013D01*
X96745977Y-40003927D01*
X96702341Y-40019579D01*
X96675202Y-40019745D01*
X96661057Y-40005204D01*
X96660975Y-40005000D01*
X96653905Y-39987779D01*
X96637042Y-39946899D01*
X96611695Y-39885525D01*
X96579171Y-39806819D01*
X96540778Y-39713947D01*
X96497822Y-39610072D01*
X96456222Y-39509502D01*
X96410504Y-39398516D01*
X96368526Y-39295703D01*
X96331548Y-39204215D01*
X96300827Y-39127201D01*
X96277622Y-39067815D01*
X96263190Y-39029209D01*
X96258743Y-39014800D01*
X96269896Y-38998272D01*
X96299069Y-38971930D01*
X96337971Y-38942887D01*
X96448757Y-38851039D01*
X96535351Y-38745759D01*
X96596716Y-38629266D01*
X96631815Y-38503776D01*
X96639608Y-38371507D01*
X96633943Y-38310457D01*
X96603078Y-38183795D01*
X96549920Y-38071941D01*
X96477767Y-37976001D01*
X96389917Y-37897076D01*
X96289665Y-37836270D01*
X96180310Y-37794687D01*
X96065147Y-37773428D01*
X95947475Y-37773599D01*
X95830590Y-37796301D01*
X95717789Y-37842638D01*
X95612369Y-37913713D01*
X95568368Y-37953911D01*
X95483979Y-38057129D01*
X95425222Y-38169925D01*
X95391704Y-38289010D01*
X95383035Y-38411095D01*
X95398823Y-38532893D01*
X95438678Y-38651116D01*
X95502207Y-38762475D01*
X95589021Y-38863684D01*
X95686029Y-38942887D01*
X95726437Y-38973162D01*
X95754982Y-38999219D01*
X95765257Y-39014825D01*
X95759877Y-39031843D01*
X95744575Y-39072500D01*
X95720612Y-39133642D01*
X95689244Y-39212119D01*
X95651732Y-39304780D01*
X95609333Y-39408472D01*
X95567663Y-39509526D01*
X95521690Y-39620607D01*
X95479107Y-39723541D01*
X95441221Y-39815165D01*
X95409340Y-39892316D01*
X95384771Y-39951831D01*
X95368820Y-39990544D01*
X95362910Y-40005000D01*
X95348948Y-40019685D01*
X95321940Y-40019642D01*
X95278413Y-40004099D01*
X95214890Y-39972284D01*
X95214388Y-39972013D01*
X95166560Y-39947323D01*
X95127897Y-39929338D01*
X95106095Y-39921614D01*
X95105133Y-39921543D01*
X95088721Y-39929378D01*
X95052487Y-39951165D01*
X95000474Y-39984328D01*
X94936725Y-40026291D01*
X94866060Y-40073943D01*
X94794116Y-40122191D01*
X94729274Y-40164151D01*
X94675735Y-40197227D01*
X94637697Y-40218821D01*
X94619533Y-40226343D01*
X94602808Y-40216457D01*
X94569180Y-40188826D01*
X94522010Y-40146495D01*
X94464658Y-40092505D01*
X94400484Y-40029899D01*
X94379497Y-40008983D01*
X94162499Y-39791623D01*
X94327668Y-39549220D01*
X94377864Y-39474781D01*
X94421919Y-39407972D01*
X94457362Y-39352665D01*
X94481719Y-39312729D01*
X94492522Y-39292036D01*
X94492838Y-39290563D01*
X94487143Y-39271058D01*
X94471826Y-39231822D01*
X94449537Y-39179430D01*
X94433893Y-39144355D01*
X94404641Y-39077201D01*
X94377094Y-39009358D01*
X94355737Y-38952034D01*
X94349935Y-38934572D01*
X94333452Y-38887938D01*
X94317340Y-38851905D01*
X94308490Y-38838287D01*
X94288960Y-38829952D01*
X94246334Y-38818137D01*
X94186145Y-38804181D01*
X94113922Y-38789422D01*
X94081600Y-38783355D01*
X93999522Y-38768273D01*
X93920795Y-38753669D01*
X93853109Y-38740980D01*
X93804160Y-38731642D01*
X93794943Y-38729839D01*
X93718743Y-38714799D01*
X93718743Y-38397492D01*
X93718914Y-38293154D01*
X93719616Y-38214213D01*
X93721134Y-38157038D01*
X93723749Y-38117999D01*
X93727746Y-38093465D01*
X93733409Y-38079805D01*
X93741020Y-38073389D01*
X93744143Y-38072199D01*
X93762978Y-38067980D01*
X93804588Y-38059562D01*
X93863630Y-38047961D01*
X93934757Y-38034195D01*
X94012625Y-38019280D01*
X94091887Y-38004232D01*
X94167198Y-37990069D01*
X94233213Y-37977806D01*
X94284587Y-37968461D01*
X94315975Y-37963050D01*
X94322959Y-37962114D01*
X94329285Y-37949596D01*
X94343290Y-37916246D01*
X94362355Y-37868377D01*
X94369634Y-37849629D01*
X94398996Y-37777195D01*
X94433571Y-37697170D01*
X94464537Y-37629728D01*
X94487323Y-37578159D01*
X94502482Y-37535785D01*
X94507542Y-37509834D01*
X94506736Y-37506356D01*
X94496041Y-37489936D01*
X94471620Y-37453417D01*
X94436095Y-37400687D01*
X94392087Y-37335635D01*
X94342217Y-37262151D01*
X94332356Y-37247645D01*
X94274492Y-37161704D01*
X94231956Y-37096261D01*
X94203054Y-37048304D01*
X94186090Y-37014820D01*
X94179367Y-36992795D01*
X94181190Y-36979217D01*
X94181236Y-36979131D01*
X94195586Y-36961297D01*
X94227323Y-36926817D01*
X94273010Y-36879268D01*
X94329204Y-36822222D01*
X94392468Y-36759255D01*
X94399602Y-36752227D01*
X94479330Y-36675020D01*
X94540857Y-36618330D01*
X94585421Y-36581110D01*
X94614257Y-36562315D01*
X94626958Y-36559889D01*
X94645494Y-36570471D01*
X94683961Y-36594916D01*
X94738386Y-36630612D01*
X94804798Y-36674947D01*
X94879225Y-36725311D01*
X94896601Y-36737160D01*
X95143297Y-36905626D01*
X95254706Y-36855062D01*
X95322457Y-36825595D01*
X95395183Y-36795959D01*
X95457703Y-36772330D01*
X95460457Y-36771358D01*
X95509360Y-36753457D01*
X95547057Y-36738320D01*
X95565425Y-36729210D01*
X95565456Y-36729184D01*
X95571285Y-36712717D01*
X95581192Y-36672219D01*
X95594195Y-36612242D01*
X95609309Y-36537340D01*
X95625552Y-36452064D01*
X95626881Y-36444875D01*
X95643175Y-36357014D01*
X95658133Y-36277260D01*
X95670791Y-36210681D01*
X95680186Y-36162347D01*
X95685354Y-36137325D01*
X95685444Y-36136943D01*
X95688589Y-36126299D01*
X95694704Y-36118262D01*
X95707453Y-36112467D01*
X95730500Y-36108547D01*
X95767509Y-36106135D01*
X95822144Y-36104865D01*
X95898067Y-36104371D01*
X95998944Y-36104286D01*
X96012000Y-36104286D01*
X96115910Y-36104348D01*
G36*
X98156876Y-40818335D02*
G01*
X98198667Y-40837344D01*
X98231469Y-40860378D01*
X98255503Y-40886133D01*
X98272097Y-40919358D01*
X98282577Y-40964800D01*
X98288271Y-41027207D01*
X98290507Y-41111327D01*
X98290743Y-41166721D01*
X98290743Y-41382826D01*
X98253774Y-41399670D01*
X98224656Y-41411981D01*
X98210231Y-41416514D01*
X98207472Y-41403025D01*
X98205282Y-41366653D01*
X98203942Y-41313542D01*
X98203657Y-41271372D01*
X98202434Y-41210447D01*
X98199136Y-41162115D01*
X98194321Y-41132518D01*
X98190496Y-41126229D01*
X98164783Y-41132652D01*
X98124418Y-41149125D01*
X98077679Y-41171458D01*
X98032845Y-41195457D01*
X97998193Y-41216930D01*
X97982002Y-41231685D01*
X97981938Y-41231845D01*
X97983330Y-41259152D01*
X97995818Y-41285219D01*
X98017743Y-41306392D01*
X98049743Y-41313474D01*
X98077092Y-41312649D01*
X98115826Y-41312042D01*
X98136158Y-41321116D01*
X98148369Y-41345092D01*
X98149909Y-41349613D01*
X98155203Y-41383806D01*
X98141047Y-41404568D01*
X98104148Y-41414462D01*
X98064289Y-41416292D01*
X97992562Y-41402727D01*
X97955432Y-41383355D01*
X97909576Y-41337845D01*
X97885256Y-41281983D01*
X97883073Y-41222957D01*
X97903629Y-41167953D01*
X97934549Y-41133486D01*
X97965420Y-41114189D01*
X98013942Y-41089759D01*
X98070485Y-41064985D01*
X98079910Y-41061199D01*
X98142019Y-41033791D01*
X98177822Y-41009634D01*
X98189337Y-40985619D01*
X98178580Y-40958635D01*
X98160114Y-40937543D01*
X98116469Y-40911572D01*
X98068446Y-40909624D01*
X98024406Y-40929637D01*
X97992709Y-40969551D01*
X97988549Y-40979848D01*
X97964327Y-41017724D01*
X97928965Y-41045842D01*
X97884343Y-41068917D01*
X97884343Y-41003485D01*
X97886969Y-40963506D01*
X97898230Y-40931997D01*
X97923199Y-40898378D01*
X97947169Y-40872484D01*
X97984441Y-40835817D01*
X98013401Y-40816121D01*
X98044505Y-40808220D01*
X98079713Y-40806914D01*
X98156876Y-40818335D01*
G37*
X98156876Y-40818335D02*
X98198667Y-40837344D01*
X98231469Y-40860378D01*
X98255503Y-40886133D01*
X98272097Y-40919358D01*
X98282577Y-40964800D01*
X98288271Y-41027207D01*
X98290507Y-41111327D01*
X98290743Y-41166721D01*
X98290743Y-41382826D01*
X98253774Y-41399670D01*
X98224656Y-41411981D01*
X98210231Y-41416514D01*
X98207472Y-41403025D01*
X98205282Y-41366653D01*
X98203942Y-41313542D01*
X98203657Y-41271372D01*
X98202434Y-41210447D01*
X98199136Y-41162115D01*
X98194321Y-41132518D01*
X98190496Y-41126229D01*
X98164783Y-41132652D01*
X98124418Y-41149125D01*
X98077679Y-41171458D01*
X98032845Y-41195457D01*
X97998193Y-41216930D01*
X97982002Y-41231685D01*
X97981938Y-41231845D01*
X97983330Y-41259152D01*
X97995818Y-41285219D01*
X98017743Y-41306392D01*
X98049743Y-41313474D01*
X98077092Y-41312649D01*
X98115826Y-41312042D01*
X98136158Y-41321116D01*
X98148369Y-41345092D01*
X98149909Y-41349613D01*
X98155203Y-41383806D01*
X98141047Y-41404568D01*
X98104148Y-41414462D01*
X98064289Y-41416292D01*
X97992562Y-41402727D01*
X97955432Y-41383355D01*
X97909576Y-41337845D01*
X97885256Y-41281983D01*
X97883073Y-41222957D01*
X97903629Y-41167953D01*
X97934549Y-41133486D01*
X97965420Y-41114189D01*
X98013942Y-41089759D01*
X98070485Y-41064985D01*
X98079910Y-41061199D01*
X98142019Y-41033791D01*
X98177822Y-41009634D01*
X98189337Y-40985619D01*
X98178580Y-40958635D01*
X98160114Y-40937543D01*
X98116469Y-40911572D01*
X98068446Y-40909624D01*
X98024406Y-40929637D01*
X97992709Y-40969551D01*
X97988549Y-40979848D01*
X97964327Y-41017724D01*
X97928965Y-41045842D01*
X97884343Y-41068917D01*
X97884343Y-41003485D01*
X97886969Y-40963506D01*
X97898230Y-40931997D01*
X97923199Y-40898378D01*
X97947169Y-40872484D01*
X97984441Y-40835817D01*
X98013401Y-40816121D01*
X98044505Y-40808220D01*
X98079713Y-40806914D01*
X98156876Y-40818335D01*
G36*
X93883550Y-40898212D02*
G01*
X93917456Y-40849302D01*
X93978653Y-40799878D01*
X94046063Y-40775359D01*
X94114880Y-40773797D01*
X94180303Y-40793239D01*
X94237527Y-40831735D01*
X94281749Y-40887335D01*
X94308167Y-40958086D01*
X94313510Y-41010162D01*
X94312903Y-41031893D01*
X94307822Y-41048531D01*
X94293855Y-41063437D01*
X94266589Y-41079973D01*
X94221612Y-41101498D01*
X94154511Y-41131374D01*
X94154171Y-41131524D01*
X94092407Y-41159813D01*
X94041759Y-41184933D01*
X94007404Y-41204179D01*
X93994518Y-41214848D01*
X93994514Y-41214934D01*
X94005872Y-41238166D01*
X94032431Y-41263774D01*
X94062923Y-41282221D01*
X94078370Y-41285886D01*
X94120515Y-41273212D01*
X94156808Y-41241471D01*
X94174517Y-41206572D01*
X94191552Y-41180845D01*
X94224922Y-41151546D01*
X94264149Y-41126235D01*
X94298756Y-41112471D01*
X94305993Y-41111714D01*
X94314139Y-41124160D01*
X94314630Y-41155972D01*
X94308643Y-41198866D01*
X94297357Y-41244558D01*
X94281950Y-41284761D01*
X94281171Y-41286322D01*
X94234804Y-41351062D01*
X94174711Y-41395097D01*
X94106465Y-41416711D01*
X94035638Y-41414185D01*
X93967804Y-41385804D01*
X93964788Y-41383808D01*
X93911427Y-41335448D01*
X93876340Y-41272352D01*
X93856922Y-41189387D01*
X93854316Y-41166078D01*
X93849701Y-41056055D01*
X93855233Y-41004748D01*
X93994514Y-41004748D01*
X93996324Y-41036753D01*
X94006222Y-41046093D01*
X94030898Y-41039105D01*
X94069795Y-41022587D01*
X94113275Y-41001881D01*
X94114356Y-41001333D01*
X94151209Y-40981949D01*
X94166000Y-40969013D01*
X94162353Y-40955451D01*
X94146995Y-40937632D01*
X94107923Y-40911845D01*
X94065846Y-40909950D01*
X94028103Y-40928717D01*
X94002034Y-40964915D01*
X93994514Y-41004748D01*
X93855233Y-41004748D01*
X93859194Y-40968027D01*
X93883550Y-40898212D01*
G37*
X93883550Y-40898212D02*
X93917456Y-40849302D01*
X93978653Y-40799878D01*
X94046063Y-40775359D01*
X94114880Y-40773797D01*
X94180303Y-40793239D01*
X94237527Y-40831735D01*
X94281749Y-40887335D01*
X94308167Y-40958086D01*
X94313510Y-41010162D01*
X94312903Y-41031893D01*
X94307822Y-41048531D01*
X94293855Y-41063437D01*
X94266589Y-41079973D01*
X94221612Y-41101498D01*
X94154511Y-41131374D01*
X94154171Y-41131524D01*
X94092407Y-41159813D01*
X94041759Y-41184933D01*
X94007404Y-41204179D01*
X93994518Y-41214848D01*
X93994514Y-41214934D01*
X94005872Y-41238166D01*
X94032431Y-41263774D01*
X94062923Y-41282221D01*
X94078370Y-41285886D01*
X94120515Y-41273212D01*
X94156808Y-41241471D01*
X94174517Y-41206572D01*
X94191552Y-41180845D01*
X94224922Y-41151546D01*
X94264149Y-41126235D01*
X94298756Y-41112471D01*
X94305993Y-41111714D01*
X94314139Y-41124160D01*
X94314630Y-41155972D01*
X94308643Y-41198866D01*
X94297357Y-41244558D01*
X94281950Y-41284761D01*
X94281171Y-41286322D01*
X94234804Y-41351062D01*
X94174711Y-41395097D01*
X94106465Y-41416711D01*
X94035638Y-41414185D01*
X93967804Y-41385804D01*
X93964788Y-41383808D01*
X93911427Y-41335448D01*
X93876340Y-41272352D01*
X93856922Y-41189387D01*
X93854316Y-41166078D01*
X93849701Y-41056055D01*
X93855233Y-41004748D01*
X93994514Y-41004748D01*
X93996324Y-41036753D01*
X94006222Y-41046093D01*
X94030898Y-41039105D01*
X94069795Y-41022587D01*
X94113275Y-41001881D01*
X94114356Y-41001333D01*
X94151209Y-40981949D01*
X94166000Y-40969013D01*
X94162353Y-40955451D01*
X94146995Y-40937632D01*
X94107923Y-40911845D01*
X94065846Y-40909950D01*
X94028103Y-40928717D01*
X94002034Y-40964915D01*
X93994514Y-41004748D01*
X93855233Y-41004748D01*
X93859194Y-40968027D01*
X93883550Y-40898212D01*
G36*
X96541926Y-40811755D02*
G01*
X96607858Y-40836084D01*
X96661273Y-40879117D01*
X96682164Y-40909409D01*
X96704939Y-40964994D01*
X96704466Y-41005186D01*
X96680562Y-41032217D01*
X96671717Y-41036813D01*
X96633530Y-41051144D01*
X96614028Y-41047472D01*
X96607422Y-41023407D01*
X96607086Y-41010114D01*
X96594992Y-40961210D01*
X96563471Y-40926999D01*
X96519659Y-40910476D01*
X96470695Y-40914634D01*
X96430894Y-40936227D01*
X96417450Y-40948544D01*
X96407921Y-40963487D01*
X96401485Y-40986075D01*
X96397317Y-41021328D01*
X96394597Y-41074266D01*
X96392502Y-41149907D01*
X96391960Y-41173857D01*
X96389981Y-41255790D01*
X96387731Y-41313455D01*
X96384357Y-41351608D01*
X96379006Y-41375004D01*
X96370824Y-41388398D01*
X96358959Y-41396545D01*
X96351362Y-41400144D01*
X96319102Y-41412452D01*
X96300111Y-41416514D01*
X96293836Y-41402948D01*
X96290006Y-41361934D01*
X96288600Y-41292999D01*
X96289598Y-41195669D01*
X96289908Y-41180657D01*
X96292101Y-41091859D01*
X96294693Y-41027019D01*
X96298382Y-40981067D01*
X96303864Y-40948935D01*
X96311835Y-40925553D01*
X96322993Y-40905852D01*
X96328830Y-40897410D01*
X96362296Y-40860057D01*
X96399727Y-40831003D01*
X96404309Y-40828467D01*
X96471426Y-40808443D01*
X96541926Y-40811755D01*
G37*
X96541926Y-40811755D02*
X96607858Y-40836084D01*
X96661273Y-40879117D01*
X96682164Y-40909409D01*
X96704939Y-40964994D01*
X96704466Y-41005186D01*
X96680562Y-41032217D01*
X96671717Y-41036813D01*
X96633530Y-41051144D01*
X96614028Y-41047472D01*
X96607422Y-41023407D01*
X96607086Y-41010114D01*
X96594992Y-40961210D01*
X96563471Y-40926999D01*
X96519659Y-40910476D01*
X96470695Y-40914634D01*
X96430894Y-40936227D01*
X96417450Y-40948544D01*
X96407921Y-40963487D01*
X96401485Y-40986075D01*
X96397317Y-41021328D01*
X96394597Y-41074266D01*
X96392502Y-41149907D01*
X96391960Y-41173857D01*
X96389981Y-41255790D01*
X96387731Y-41313455D01*
X96384357Y-41351608D01*
X96379006Y-41375004D01*
X96370824Y-41388398D01*
X96358959Y-41396545D01*
X96351362Y-41400144D01*
X96319102Y-41412452D01*
X96300111Y-41416514D01*
X96293836Y-41402948D01*
X96290006Y-41361934D01*
X96288600Y-41292999D01*
X96289598Y-41195669D01*
X96289908Y-41180657D01*
X96292101Y-41091859D01*
X96294693Y-41027019D01*
X96298382Y-40981067D01*
X96303864Y-40948935D01*
X96311835Y-40925553D01*
X96322993Y-40905852D01*
X96328830Y-40897410D01*
X96362296Y-40860057D01*
X96399727Y-40831003D01*
X96404309Y-40828467D01*
X96471426Y-40808443D01*
X96541926Y-40811755D01*
G36*
X93305677Y-41012333D02*
G01*
X93308450Y-40964958D01*
X93312388Y-40931290D01*
X93317849Y-40907498D01*
X93325192Y-40889753D01*
X93334777Y-40874224D01*
X93338887Y-40868381D01*
X93393405Y-40813185D01*
X93462336Y-40781890D01*
X93542072Y-40773165D01*
X93611744Y-40781918D01*
X93667201Y-40809568D01*
X93716148Y-40860480D01*
X93729629Y-40879338D01*
X93744314Y-40904015D01*
X93753842Y-40930816D01*
X93759293Y-40966587D01*
X93761747Y-41018169D01*
X93762286Y-41086267D01*
X93759852Y-41179588D01*
X93751394Y-41249657D01*
X93735174Y-41301931D01*
X93709454Y-41341869D01*
X93672497Y-41374929D01*
X93669782Y-41376886D01*
X93633360Y-41396908D01*
X93589502Y-41406815D01*
X93533724Y-41409257D01*
X93443048Y-41409257D01*
X93443010Y-41497283D01*
X93442166Y-41546308D01*
X93437024Y-41575065D01*
X93423587Y-41592311D01*
X93397858Y-41606808D01*
X93391679Y-41609769D01*
X93362764Y-41623648D01*
X93340376Y-41632414D01*
X93323729Y-41633171D01*
X93312036Y-41623023D01*
X93304510Y-41599073D01*
X93300366Y-41558426D01*
X93298815Y-41498186D01*
X93299071Y-41415455D01*
X93300349Y-41307339D01*
X93300748Y-41275000D01*
X93302185Y-41163524D01*
X93303472Y-41090603D01*
X93442971Y-41090603D01*
X93443755Y-41152499D01*
X93447240Y-41192997D01*
X93455124Y-41219708D01*
X93469105Y-41240244D01*
X93478597Y-41250260D01*
X93517404Y-41279567D01*
X93551763Y-41281952D01*
X93587216Y-41257750D01*
X93588114Y-41256857D01*
X93602539Y-41238153D01*
X93611313Y-41212732D01*
X93615739Y-41173584D01*
X93617118Y-41113697D01*
X93617143Y-41100430D01*
X93613812Y-41017901D01*
X93602969Y-40960691D01*
X93583340Y-40925766D01*
X93553650Y-40910094D01*
X93536491Y-40908514D01*
X93495766Y-40915926D01*
X93467832Y-40940330D01*
X93451017Y-40984980D01*
X93443650Y-41053130D01*
X93442971Y-41090603D01*
X93303472Y-41090603D01*
X93303708Y-41077245D01*
X93305677Y-41012333D01*
G37*
X93305677Y-41012333D02*
X93308450Y-40964958D01*
X93312388Y-40931290D01*
X93317849Y-40907498D01*
X93325192Y-40889753D01*
X93334777Y-40874224D01*
X93338887Y-40868381D01*
X93393405Y-40813185D01*
X93462336Y-40781890D01*
X93542072Y-40773165D01*
X93611744Y-40781918D01*
X93667201Y-40809568D01*
X93716148Y-40860480D01*
X93729629Y-40879338D01*
X93744314Y-40904015D01*
X93753842Y-40930816D01*
X93759293Y-40966587D01*
X93761747Y-41018169D01*
X93762286Y-41086267D01*
X93759852Y-41179588D01*
X93751394Y-41249657D01*
X93735174Y-41301931D01*
X93709454Y-41341869D01*
X93672497Y-41374929D01*
X93669782Y-41376886D01*
X93633360Y-41396908D01*
X93589502Y-41406815D01*
X93533724Y-41409257D01*
X93443048Y-41409257D01*
X93443010Y-41497283D01*
X93442166Y-41546308D01*
X93437024Y-41575065D01*
X93423587Y-41592311D01*
X93397858Y-41606808D01*
X93391679Y-41609769D01*
X93362764Y-41623648D01*
X93340376Y-41632414D01*
X93323729Y-41633171D01*
X93312036Y-41623023D01*
X93304510Y-41599073D01*
X93300366Y-41558426D01*
X93298815Y-41498186D01*
X93299071Y-41415455D01*
X93300349Y-41307339D01*
X93300748Y-41275000D01*
X93302185Y-41163524D01*
X93303472Y-41090603D01*
X93442971Y-41090603D01*
X93443755Y-41152499D01*
X93447240Y-41192997D01*
X93455124Y-41219708D01*
X93469105Y-41240244D01*
X93478597Y-41250260D01*
X93517404Y-41279567D01*
X93551763Y-41281952D01*
X93587216Y-41257750D01*
X93588114Y-41256857D01*
X93602539Y-41238153D01*
X93611313Y-41212732D01*
X93615739Y-41173584D01*
X93617118Y-41113697D01*
X93617143Y-41100430D01*
X93613812Y-41017901D01*
X93602969Y-40960691D01*
X93583340Y-40925766D01*
X93553650Y-40910094D01*
X93536491Y-40908514D01*
X93495766Y-40915926D01*
X93467832Y-40940330D01*
X93451017Y-40984980D01*
X93443650Y-41053130D01*
X93442971Y-41090603D01*
X93303472Y-41090603D01*
X93303708Y-41077245D01*
X93305677Y-41012333D01*
D13*
%TO.C,J2*%
X30012000Y-31401999D02*
X30012000Y-34261999D01*
X30372000Y-31401999D02*
X30012000Y-31401999D01*
X30372000Y-28542000D02*
X30372000Y-31401999D01*
X30012000Y-28542000D02*
X30372000Y-28542000D01*
X30012000Y-25682000D02*
X30012000Y-28542000D01*
X88952000Y-25682001D02*
X30012000Y-25682000D01*
X88952000Y-34262000D02*
X88952000Y-25682001D01*
X30012000Y-34261999D02*
X88952000Y-34262000D01*
%TO.C,J1*%
X79862000Y-36012000D02*
X79862000Y-23892000D01*
X39102000Y-30952000D02*
X39102000Y-36012000D01*
X39102000Y-36012000D02*
X79862000Y-36012000D01*
X79862000Y-23892000D02*
X39102000Y-23892000D01*
X39102000Y-23892000D02*
X39102000Y-28952000D01*
X39102000Y-30952000D02*
G75*
G03*
X39102000Y-28952000I0J1000000D01*
G01*
%TD*%
M02*
