%TF.GenerationSoftware,KiCad,Pcbnew,(6.0.9)*%
%TF.CreationDate,2023-08-23T16:46:46+02:00*%
%TF.ProjectId,p2000t-slot1-adapter-board,70323030-3074-42d7-936c-6f74312d6164,rev?*%
%TF.SameCoordinates,Original*%
%TF.FileFunction,Copper,L2,Bot*%
%TF.FilePolarity,Positive*%
%FSLAX46Y46*%
G04 Gerber Fmt 4.6, Leading zero omitted, Abs format (unit mm)*
G04 Created by KiCad (PCBNEW (6.0.9)) date 2023-08-23 16:46:46*
%MOMM*%
%LPD*%
G01*
G04 APERTURE LIST*
%TA.AperFunction,ComponentPad*%
%ADD10C,2.500000*%
%TD*%
%TA.AperFunction,ComponentPad*%
%ADD11R,1.600000X2.400000*%
%TD*%
%TA.AperFunction,ComponentPad*%
%ADD12O,1.600000X2.400000*%
%TD*%
%TA.AperFunction,Conductor*%
%ADD13C,0.250000*%
%TD*%
G04 APERTURE END LIST*
D10*
%TO.P,J2,1a,Pin_1a*%
%TO.N,unconnected-(J2-Pad1a)*%
X31762000Y-27432000D03*
%TO.P,J2,1b,Pin_1b*%
%TO.N,+5V*%
X31762000Y-32512000D03*
%TO.P,J2,2a,Pin_2a*%
%TO.N,D0*%
X35722000Y-27432000D03*
%TO.P,J2,2b,Pin_2b*%
%TO.N,D1*%
X35722000Y-32512000D03*
%TO.P,J2,3a,Pin_3a*%
%TO.N,D2*%
X39682000Y-27432000D03*
%TO.P,J2,3b,Pin_3b*%
%TO.N,D3*%
X39682000Y-32512000D03*
%TO.P,J2,4a,Pin_4a*%
%TO.N,D4*%
X43642000Y-27432000D03*
%TO.P,J2,4b,Pin_4b*%
%TO.N,D5*%
X43642000Y-32512000D03*
%TO.P,J2,5a,Pin_5a*%
%TO.N,D6*%
X47602000Y-27432000D03*
%TO.P,J2,5b,Pin_5b*%
%TO.N,D7*%
X47602000Y-32512000D03*
%TO.P,J2,6a,Pin_6a*%
%TO.N,A0*%
X51562000Y-27432000D03*
%TO.P,J2,6b,Pin_6b*%
%TO.N,A1*%
X51562000Y-32512000D03*
%TO.P,J2,7a,Pin_7a*%
%TO.N,A2*%
X55522000Y-27432000D03*
%TO.P,J2,7b,Pin_7b*%
%TO.N,A3*%
X55522000Y-32512000D03*
%TO.P,J2,8a,Pin_8a*%
%TO.N,A4*%
X59482000Y-27432000D03*
%TO.P,J2,8b,Pin_8b*%
%TO.N,A5*%
X59482000Y-32512000D03*
%TO.P,J2,9a,Pin_9a*%
%TO.N,A6*%
X63442000Y-27432000D03*
%TO.P,J2,9b,Pin_9b*%
%TO.N,A7*%
X63442000Y-32512000D03*
%TO.P,J2,10a,Pin_10a*%
%TO.N,A8*%
X67402000Y-27432000D03*
%TO.P,J2,10b,Pin_10b*%
%TO.N,A9*%
X67402000Y-32512000D03*
%TO.P,J2,11a,Pin_11a*%
%TO.N,A10*%
X71362000Y-27432000D03*
%TO.P,J2,11b,Pin_11b*%
%TO.N,A11*%
X71362000Y-32512000D03*
%TO.P,J2,12a,Pin_12a*%
%TO.N,A12*%
X75322000Y-27432000D03*
%TO.P,J2,12b,Pin_12b*%
%TO.N,CARSEL2*%
X75322000Y-32512000D03*
%TO.P,J2,13a,Pin_13a*%
%TO.N,CARSEL1*%
X79282000Y-27432000D03*
%TO.P,J2,13b,Pin_13b*%
%TO.N,unconnected-(J2-Pad13b)*%
X79282000Y-32512000D03*
%TO.P,J2,14a,Pin_14a*%
%TO.N,unconnected-(J2-Pad14a)*%
X83242000Y-27432000D03*
%TO.P,J2,14b,Pin_14b*%
%TO.N,unconnected-(J2-Pad14b)*%
X83242000Y-32512000D03*
%TO.P,J2,15a,Pin_15a*%
%TO.N,GND*%
X87202000Y-27432000D03*
%TO.P,J2,15b,Pin_15b*%
X87202000Y-32512000D03*
%TD*%
D11*
%TO.P,J1,1,Pin_1*%
%TO.N,unconnected-(J1-Pad1)*%
X40432000Y-37572000D03*
D12*
%TO.P,J1,2,Pin_2*%
%TO.N,unconnected-(J1-Pad2)*%
X42972000Y-37572000D03*
%TO.P,J1,3,Pin_3*%
%TO.N,unconnected-(J1-Pad3)*%
X45512000Y-37572000D03*
%TO.P,J1,4,Pin_4*%
%TO.N,A12*%
X48052000Y-37572000D03*
%TO.P,J1,5,Pin_5*%
%TO.N,A7*%
X50592000Y-37572000D03*
%TO.P,J1,6,Pin_6*%
%TO.N,A6*%
X53132000Y-37572000D03*
%TO.P,J1,7,Pin_7*%
%TO.N,A5*%
X55672000Y-37572000D03*
%TO.P,J1,8,Pin_8*%
%TO.N,A4*%
X58212000Y-37572000D03*
%TO.P,J1,9,Pin_9*%
%TO.N,A3*%
X60752000Y-37572000D03*
%TO.P,J1,10,Pin_10*%
%TO.N,A2*%
X63292000Y-37572000D03*
%TO.P,J1,11,Pin_11*%
%TO.N,A1*%
X65832000Y-37572000D03*
%TO.P,J1,12,Pin_12*%
%TO.N,A0*%
X68372000Y-37572000D03*
%TO.P,J1,13,Pin_13*%
%TO.N,D0*%
X70912000Y-37572000D03*
%TO.P,J1,14,Pin_14*%
%TO.N,D1*%
X73452000Y-37572000D03*
%TO.P,J1,15,Pin_15*%
%TO.N,D2*%
X75992000Y-37572000D03*
%TO.P,J1,16,Pin_16*%
%TO.N,GND*%
X78532000Y-37572000D03*
%TO.P,J1,17,Pin_17*%
%TO.N,D3*%
X78532000Y-22332000D03*
%TO.P,J1,18,Pin_18*%
%TO.N,D4*%
X75992000Y-22332000D03*
%TO.P,J1,19,Pin_19*%
%TO.N,D5*%
X73452000Y-22332000D03*
%TO.P,J1,20,Pin_20*%
%TO.N,D6*%
X70912000Y-22332000D03*
%TO.P,J1,21,Pin_21*%
%TO.N,D7*%
X68372000Y-22332000D03*
%TO.P,J1,22,Pin_22*%
%TO.N,CARSEL1*%
X65832000Y-22332000D03*
%TO.P,J1,23,Pin_23*%
%TO.N,A10*%
X63292000Y-22332000D03*
%TO.P,J1,24,Pin_24*%
%TO.N,CARSEL2*%
X60752000Y-22332000D03*
%TO.P,J1,25,Pin_25*%
%TO.N,A11*%
X58212000Y-22332000D03*
%TO.P,J1,26,Pin_26*%
%TO.N,A9*%
X55672000Y-22332000D03*
%TO.P,J1,27,Pin_27*%
%TO.N,A8*%
X53132000Y-22332000D03*
%TO.P,J1,28,Pin_28*%
%TO.N,unconnected-(J1-Pad28)*%
X50592000Y-22332000D03*
%TO.P,J1,29,Pin_29*%
%TO.N,unconnected-(J1-Pad29)*%
X48052000Y-22332000D03*
%TO.P,J1,30,Pin_30*%
%TO.N,unconnected-(J1-Pad30)*%
X45512000Y-22332000D03*
%TO.P,J1,31,Pin_31*%
%TO.N,unconnected-(J1-Pad31)*%
X42972000Y-22332000D03*
%TO.P,J1,32,Pin_32*%
%TO.N,+5V*%
X40432000Y-22332000D03*
%TD*%
D13*
%TO.N,A8*%
X53132000Y-22332000D02*
X53132000Y-23857300D01*
X54145400Y-24870700D02*
X53132000Y-23857300D01*
X64840700Y-24870700D02*
X54145400Y-24870700D01*
X67402000Y-27432000D02*
X64840700Y-24870700D01*
%TO.N,A9*%
X55672000Y-22332000D02*
X55672000Y-23857300D01*
X68993600Y-30920400D02*
X67402000Y-32512000D01*
X68993600Y-26784800D02*
X68993600Y-30920400D01*
X66066100Y-23857300D02*
X68993600Y-26784800D01*
X55672000Y-23857300D02*
X66066100Y-23857300D01*
%TO.N,CARSEL1*%
X77348100Y-25498100D02*
X79282000Y-27432000D01*
X68998100Y-25498100D02*
X77348100Y-25498100D01*
X65832000Y-22332000D02*
X68998100Y-25498100D01*
%TO.N,D7*%
X49582000Y-30532000D02*
X47602000Y-32512000D01*
X49582000Y-25653400D02*
X49582000Y-30532000D01*
X51935900Y-23299500D02*
X49582000Y-25653400D01*
X51935900Y-21518800D02*
X51935900Y-23299500D01*
X52648000Y-20806700D02*
X51935900Y-21518800D01*
X68372000Y-20806700D02*
X52648000Y-20806700D01*
X68372000Y-22332000D02*
X68372000Y-20806700D01*
%TO.N,D6*%
X47602000Y-25387000D02*
X47602000Y-27432000D01*
X49322000Y-23667000D02*
X47602000Y-25387000D01*
X49322000Y-21593700D02*
X49322000Y-23667000D01*
X50563300Y-20352400D02*
X49322000Y-21593700D01*
X70457700Y-20352400D02*
X50563300Y-20352400D01*
X70912000Y-20806700D02*
X70457700Y-20352400D01*
X70912000Y-22332000D02*
X70912000Y-20806700D01*
%TO.N,D5*%
X45622000Y-30532000D02*
X43642000Y-32512000D01*
X45622000Y-25611100D02*
X45622000Y-30532000D01*
X46926600Y-24306500D02*
X45622000Y-25611100D01*
X46926600Y-21465400D02*
X46926600Y-24306500D01*
X48522500Y-19869500D02*
X46926600Y-21465400D01*
X72514800Y-19869500D02*
X48522500Y-19869500D01*
X73452000Y-20806700D02*
X72514800Y-19869500D01*
X73452000Y-22332000D02*
X73452000Y-20806700D01*
%TO.N,GND*%
X82142000Y-37572000D02*
X87202000Y-32512000D01*
X78532000Y-37572000D02*
X82142000Y-37572000D01*
X87202000Y-27432000D02*
X87202000Y-32512000D01*
%TO.N,D0*%
X36872400Y-27432000D02*
X35722000Y-27432000D01*
X41662000Y-32221600D02*
X36872400Y-27432000D01*
X41662000Y-32803300D02*
X41662000Y-32221600D01*
X43279300Y-34420600D02*
X41662000Y-32803300D01*
X46897200Y-34420600D02*
X43279300Y-34420600D01*
X49322000Y-36845400D02*
X46897200Y-34420600D01*
X49322000Y-38293600D02*
X49322000Y-36845400D01*
X50576000Y-39547600D02*
X49322000Y-38293600D01*
X68936400Y-39547600D02*
X50576000Y-39547600D01*
X70912000Y-37572000D02*
X68936400Y-39547600D01*
%TO.N,A1*%
X51935900Y-32885900D02*
X51562000Y-32512000D01*
X51935900Y-38392600D02*
X51935900Y-32885900D01*
X52640600Y-39097300D02*
X51935900Y-38392600D01*
X65832000Y-39097300D02*
X52640600Y-39097300D01*
X65832000Y-37572000D02*
X65832000Y-39097300D01*
%TO.N,A4*%
X61069400Y-29019400D02*
X59482000Y-27432000D01*
X61069400Y-33189300D02*
X61069400Y-29019400D01*
X58212000Y-36046700D02*
X61069400Y-33189300D01*
X58212000Y-37572000D02*
X58212000Y-36046700D01*
%TO.N,A5*%
X55947300Y-36046700D02*
X59482000Y-32512000D01*
X55672000Y-36046700D02*
X55947300Y-36046700D01*
X55672000Y-37572000D02*
X55672000Y-36046700D01*
%TO.N,A6*%
X61827900Y-25817900D02*
X63442000Y-27432000D01*
X58837300Y-25817900D02*
X61827900Y-25817900D01*
X57502000Y-27153200D02*
X58837300Y-25817900D01*
X57502000Y-32820700D02*
X57502000Y-27153200D01*
X54276000Y-36046700D02*
X57502000Y-32820700D01*
X53132000Y-36046700D02*
X54276000Y-36046700D01*
X53132000Y-37572000D02*
X53132000Y-36046700D01*
%TO.N,A12*%
X73342000Y-29412000D02*
X75322000Y-27432000D01*
X73342000Y-34312900D02*
X73342000Y-29412000D01*
X72101200Y-35553700D02*
X73342000Y-34312900D01*
X72101200Y-38406000D02*
X72101200Y-35553700D01*
X70509200Y-39998000D02*
X72101200Y-38406000D01*
X48952700Y-39998000D02*
X70509200Y-39998000D01*
X48052000Y-39097300D02*
X48952700Y-39998000D01*
X48052000Y-37572000D02*
X48052000Y-39097300D01*
%TD*%
%TA.AperFunction,Conductor*%
%TO.N,+5V*%
G36*
X99457018Y-18270000D02*
G01*
X99471852Y-18272310D01*
X99471855Y-18272310D01*
X99480724Y-18273691D01*
X99489627Y-18272527D01*
X99489629Y-18272527D01*
X99500078Y-18271161D01*
X99522594Y-18270249D01*
X99829322Y-18285318D01*
X99841618Y-18286528D01*
X100174520Y-18335910D01*
X100186642Y-18338320D01*
X100282572Y-18362350D01*
X100513101Y-18420095D01*
X100524933Y-18423684D01*
X100841803Y-18537061D01*
X100853227Y-18541793D01*
X101157456Y-18685683D01*
X101168361Y-18691512D01*
X101457024Y-18864530D01*
X101467305Y-18871400D01*
X101737613Y-19071874D01*
X101747171Y-19079718D01*
X101996531Y-19305725D01*
X102005275Y-19314469D01*
X102231282Y-19563829D01*
X102239126Y-19573387D01*
X102439600Y-19843695D01*
X102446470Y-19853976D01*
X102619488Y-20142639D01*
X102625317Y-20153544D01*
X102769207Y-20457773D01*
X102773939Y-20469197D01*
X102887316Y-20786067D01*
X102890905Y-20797899D01*
X102972679Y-21124355D01*
X102975090Y-21136480D01*
X103012282Y-21387203D01*
X103024471Y-21469377D01*
X103025682Y-21481676D01*
X103036875Y-21709481D01*
X103040390Y-21781034D01*
X103039042Y-21806598D01*
X103037309Y-21817724D01*
X103038474Y-21826630D01*
X103041436Y-21849283D01*
X103042500Y-21865621D01*
X103042500Y-38538633D01*
X103041000Y-38558018D01*
X103037309Y-38581724D01*
X103038473Y-38590627D01*
X103038473Y-38590629D01*
X103039839Y-38601078D01*
X103040751Y-38623594D01*
X103025683Y-38930317D01*
X103024472Y-38942618D01*
X102977972Y-39256097D01*
X102975091Y-39275517D01*
X102972680Y-39287642D01*
X102958742Y-39343283D01*
X102890905Y-39614101D01*
X102887316Y-39625933D01*
X102773939Y-39942803D01*
X102769207Y-39954227D01*
X102625317Y-40258456D01*
X102619488Y-40269361D01*
X102446470Y-40558024D01*
X102439600Y-40568305D01*
X102239126Y-40838613D01*
X102231282Y-40848171D01*
X102005275Y-41097531D01*
X101996531Y-41106275D01*
X101747171Y-41332282D01*
X101737613Y-41340126D01*
X101467305Y-41540600D01*
X101457024Y-41547470D01*
X101168361Y-41720488D01*
X101157456Y-41726317D01*
X100853227Y-41870207D01*
X100841803Y-41874939D01*
X100524933Y-41988316D01*
X100513101Y-41991905D01*
X100282572Y-42049650D01*
X100186642Y-42073680D01*
X100174520Y-42076090D01*
X99841618Y-42125472D01*
X99829324Y-42126682D01*
X99529962Y-42141390D01*
X99504402Y-42140042D01*
X99493276Y-42138309D01*
X99461714Y-42142436D01*
X99445379Y-42143500D01*
X19526367Y-42143500D01*
X19506982Y-42142000D01*
X19492148Y-42139690D01*
X19492145Y-42139690D01*
X19483276Y-42138309D01*
X19474373Y-42139473D01*
X19474371Y-42139473D01*
X19463922Y-42140839D01*
X19441406Y-42141751D01*
X19134678Y-42126682D01*
X19122382Y-42125472D01*
X18789480Y-42076090D01*
X18777358Y-42073680D01*
X18681428Y-42049650D01*
X18450899Y-41991905D01*
X18439067Y-41988316D01*
X18122197Y-41874939D01*
X18110773Y-41870207D01*
X17806544Y-41726317D01*
X17795639Y-41720488D01*
X17506976Y-41547470D01*
X17496695Y-41540600D01*
X17226387Y-41340126D01*
X17216829Y-41332282D01*
X16967469Y-41106275D01*
X16958725Y-41097531D01*
X16732718Y-40848171D01*
X16724874Y-40838613D01*
X16524400Y-40568305D01*
X16517530Y-40558024D01*
X16344512Y-40269361D01*
X16338683Y-40258456D01*
X16194793Y-39954227D01*
X16190061Y-39942803D01*
X16076684Y-39625933D01*
X16073095Y-39614101D01*
X16005258Y-39343283D01*
X15991320Y-39287642D01*
X15988909Y-39275517D01*
X15986028Y-39256097D01*
X15939528Y-38942618D01*
X15938317Y-38930317D01*
X15937521Y-38914100D01*
X15933071Y-38823531D01*
X15923795Y-38634695D01*
X15925387Y-38607619D01*
X15926576Y-38600552D01*
X15926729Y-38588000D01*
X15922773Y-38560376D01*
X15921500Y-38542514D01*
X15921500Y-33921133D01*
X30717612Y-33921133D01*
X30726325Y-33932653D01*
X30824018Y-34004284D01*
X30831928Y-34009227D01*
X31054890Y-34126533D01*
X31063453Y-34130256D01*
X31301304Y-34213318D01*
X31310313Y-34215732D01*
X31557842Y-34262727D01*
X31567098Y-34263781D01*
X31818857Y-34273673D01*
X31828171Y-34273347D01*
X32078615Y-34245920D01*
X32087792Y-34244219D01*
X32331431Y-34180074D01*
X32340251Y-34177037D01*
X32571736Y-34077583D01*
X32580008Y-34073276D01*
X32794249Y-33940700D01*
X32801188Y-33935658D01*
X32809518Y-33923019D01*
X32803456Y-33912666D01*
X31774812Y-32884022D01*
X31760868Y-32876408D01*
X31759035Y-32876539D01*
X31752420Y-32880790D01*
X30724270Y-33908940D01*
X30717612Y-33921133D01*
X15921500Y-33921133D01*
X15921500Y-32470523D01*
X29999898Y-32470523D01*
X30011987Y-32722175D01*
X30013124Y-32731435D01*
X30062274Y-32978535D01*
X30064768Y-32987528D01*
X30149900Y-33224639D01*
X30153700Y-33233174D01*
X30272946Y-33455101D01*
X30277957Y-33462968D01*
X30341446Y-33547990D01*
X30352704Y-33556439D01*
X30365123Y-33549667D01*
X31389978Y-32524812D01*
X31396356Y-32513132D01*
X32126408Y-32513132D01*
X32126539Y-32514965D01*
X32130790Y-32521580D01*
X33161913Y-33552703D01*
X33174293Y-33559463D01*
X33182634Y-33553219D01*
X33308765Y-33357127D01*
X33313212Y-33348936D01*
X33416691Y-33119222D01*
X33419882Y-33110455D01*
X33488269Y-32867976D01*
X33490129Y-32858834D01*
X33522116Y-32607396D01*
X33522597Y-32601108D01*
X33524847Y-32515160D01*
X33524696Y-32508851D01*
X33521500Y-32465839D01*
X33959173Y-32465839D01*
X33959397Y-32470505D01*
X33959397Y-32470511D01*
X33965443Y-32596373D01*
X33971713Y-32726908D01*
X34022704Y-32983256D01*
X34111026Y-33229252D01*
X34113242Y-33233376D01*
X34215861Y-33424360D01*
X34234737Y-33459491D01*
X34237532Y-33463234D01*
X34237534Y-33463237D01*
X34388330Y-33665177D01*
X34388335Y-33665183D01*
X34391122Y-33668915D01*
X34394431Y-33672195D01*
X34394436Y-33672201D01*
X34573426Y-33849635D01*
X34576743Y-33852923D01*
X34580505Y-33855681D01*
X34580508Y-33855684D01*
X34714465Y-33953905D01*
X34787524Y-34007474D01*
X34791667Y-34009654D01*
X34791669Y-34009655D01*
X35014684Y-34126989D01*
X35014689Y-34126991D01*
X35018834Y-34129172D01*
X35265590Y-34215344D01*
X35270183Y-34216216D01*
X35517785Y-34263224D01*
X35517788Y-34263224D01*
X35522374Y-34264095D01*
X35652958Y-34269226D01*
X35778875Y-34274174D01*
X35778881Y-34274174D01*
X35783543Y-34274357D01*
X35863447Y-34265606D01*
X36038707Y-34246412D01*
X36038712Y-34246411D01*
X36043360Y-34245902D01*
X36133885Y-34222069D01*
X36291594Y-34180548D01*
X36291596Y-34180547D01*
X36296117Y-34179357D01*
X36372815Y-34146405D01*
X36427451Y-34122931D01*
X36536262Y-34076182D01*
X36729401Y-33956665D01*
X36754547Y-33941104D01*
X36754548Y-33941104D01*
X36758519Y-33938646D01*
X36762082Y-33935629D01*
X36762087Y-33935626D01*
X36954439Y-33772787D01*
X36954440Y-33772786D01*
X36958005Y-33769768D01*
X37032377Y-33684963D01*
X37127257Y-33576774D01*
X37127261Y-33576769D01*
X37130339Y-33573259D01*
X37172915Y-33507068D01*
X37269205Y-33357367D01*
X37271733Y-33353437D01*
X37379083Y-33115129D01*
X37417607Y-32978535D01*
X37448760Y-32868076D01*
X37448761Y-32868073D01*
X37450030Y-32863572D01*
X37466840Y-32731435D01*
X37482616Y-32607421D01*
X37482616Y-32607417D01*
X37483014Y-32604291D01*
X37483098Y-32601108D01*
X37485348Y-32515160D01*
X37485431Y-32512000D01*
X37466061Y-32251348D01*
X37456825Y-32210528D01*
X37409408Y-32000980D01*
X37408377Y-31996423D01*
X37389603Y-31948146D01*
X37315340Y-31757176D01*
X37315339Y-31757173D01*
X37313647Y-31752823D01*
X37299264Y-31727657D01*
X37253896Y-31648280D01*
X37183951Y-31525902D01*
X37022138Y-31320643D01*
X36831763Y-31141557D01*
X36653973Y-31018219D01*
X36620851Y-30995241D01*
X36620848Y-30995239D01*
X36617009Y-30992576D01*
X36612816Y-30990508D01*
X36386781Y-30879040D01*
X36386776Y-30879038D01*
X36382593Y-30876975D01*
X36368901Y-30872592D01*
X36138123Y-30798720D01*
X36133665Y-30797293D01*
X35875693Y-30755279D01*
X35761942Y-30753790D01*
X35619022Y-30751919D01*
X35619019Y-30751919D01*
X35614345Y-30751858D01*
X35355362Y-30787104D01*
X35104433Y-30860243D01*
X35100180Y-30862203D01*
X35100179Y-30862204D01*
X35059661Y-30880883D01*
X34867072Y-30969668D01*
X34828067Y-30995241D01*
X34652404Y-31110410D01*
X34652399Y-31110414D01*
X34648491Y-31112976D01*
X34453494Y-31287018D01*
X34286363Y-31487970D01*
X34283934Y-31491973D01*
X34180348Y-31662678D01*
X34150771Y-31711419D01*
X34049697Y-31952455D01*
X33985359Y-32205783D01*
X33959173Y-32465839D01*
X33521500Y-32465839D01*
X33505912Y-32256074D01*
X33504536Y-32246868D01*
X33448929Y-32001126D01*
X33446205Y-31992215D01*
X33354888Y-31757392D01*
X33350877Y-31748983D01*
X33225854Y-31530240D01*
X33220643Y-31522514D01*
X33183391Y-31475261D01*
X33171466Y-31466790D01*
X33159934Y-31473276D01*
X32134022Y-32499188D01*
X32126408Y-32513132D01*
X31396356Y-32513132D01*
X31397592Y-32510868D01*
X31397461Y-32509035D01*
X31393210Y-32502420D01*
X30363321Y-31472531D01*
X30350013Y-31465264D01*
X30339974Y-31472386D01*
X30329761Y-31484666D01*
X30324346Y-31492258D01*
X30193646Y-31707646D01*
X30189408Y-31715963D01*
X30091981Y-31948299D01*
X30089020Y-31957149D01*
X30027006Y-32201331D01*
X30025384Y-32210528D01*
X30000143Y-32461198D01*
X29999898Y-32470523D01*
X15921500Y-32470523D01*
X15921500Y-31100803D01*
X30715216Y-31100803D01*
X30719789Y-31110579D01*
X31749188Y-32139978D01*
X31763132Y-32147592D01*
X31764965Y-32147461D01*
X31771580Y-32143210D01*
X32800419Y-31114371D01*
X32806803Y-31102681D01*
X32797391Y-31090570D01*
X32660593Y-30995670D01*
X32652565Y-30990942D01*
X32426593Y-30879505D01*
X32417960Y-30876017D01*
X32177998Y-30799205D01*
X32168938Y-30797029D01*
X31920260Y-30756529D01*
X31910973Y-30755717D01*
X31659053Y-30752419D01*
X31649742Y-30752989D01*
X31400097Y-30786964D01*
X31390978Y-30788902D01*
X31149098Y-30859404D01*
X31140367Y-30862667D01*
X30911558Y-30968151D01*
X30903406Y-30972670D01*
X30724353Y-31090062D01*
X30715216Y-31100803D01*
X15921500Y-31100803D01*
X15921500Y-27385839D01*
X29999173Y-27385839D01*
X30011713Y-27646908D01*
X30062704Y-27903256D01*
X30151026Y-28149252D01*
X30153242Y-28153376D01*
X30264092Y-28359679D01*
X30274737Y-28379491D01*
X30277532Y-28383234D01*
X30277534Y-28383237D01*
X30428330Y-28585177D01*
X30428335Y-28585183D01*
X30431122Y-28588915D01*
X30434431Y-28592195D01*
X30434436Y-28592201D01*
X30613426Y-28769635D01*
X30616743Y-28772923D01*
X30620505Y-28775681D01*
X30620508Y-28775684D01*
X30823750Y-28924707D01*
X30827524Y-28927474D01*
X30831667Y-28929654D01*
X30831669Y-28929655D01*
X31054684Y-29046989D01*
X31054689Y-29046991D01*
X31058834Y-29049172D01*
X31305590Y-29135344D01*
X31310183Y-29136216D01*
X31557785Y-29183224D01*
X31557788Y-29183224D01*
X31562374Y-29184095D01*
X31692958Y-29189226D01*
X31818875Y-29194174D01*
X31818881Y-29194174D01*
X31823543Y-29194357D01*
X31912486Y-29184616D01*
X32078707Y-29166412D01*
X32078712Y-29166411D01*
X32083360Y-29165902D01*
X32087884Y-29164711D01*
X32331594Y-29100548D01*
X32331596Y-29100547D01*
X32336117Y-29099357D01*
X32351149Y-29092899D01*
X32495454Y-29030900D01*
X32576262Y-28996182D01*
X32582649Y-28992230D01*
X32794547Y-28861104D01*
X32794548Y-28861104D01*
X32798519Y-28858646D01*
X32802082Y-28855629D01*
X32802087Y-28855626D01*
X32994439Y-28692787D01*
X32994440Y-28692786D01*
X32998005Y-28689768D01*
X33043657Y-28637712D01*
X33167257Y-28496774D01*
X33167261Y-28496769D01*
X33170339Y-28493259D01*
X33311733Y-28273437D01*
X33419083Y-28035129D01*
X33490030Y-27783572D01*
X33506832Y-27651496D01*
X33522616Y-27527421D01*
X33522616Y-27527417D01*
X33523014Y-27524291D01*
X33525431Y-27432000D01*
X33522001Y-27385839D01*
X33959173Y-27385839D01*
X33971713Y-27646908D01*
X34022704Y-27903256D01*
X34111026Y-28149252D01*
X34113242Y-28153376D01*
X34224092Y-28359679D01*
X34234737Y-28379491D01*
X34237532Y-28383234D01*
X34237534Y-28383237D01*
X34388330Y-28585177D01*
X34388335Y-28585183D01*
X34391122Y-28588915D01*
X34394431Y-28592195D01*
X34394436Y-28592201D01*
X34573426Y-28769635D01*
X34576743Y-28772923D01*
X34580505Y-28775681D01*
X34580508Y-28775684D01*
X34783750Y-28924707D01*
X34787524Y-28927474D01*
X34791667Y-28929654D01*
X34791669Y-28929655D01*
X35014684Y-29046989D01*
X35014689Y-29046991D01*
X35018834Y-29049172D01*
X35265590Y-29135344D01*
X35270183Y-29136216D01*
X35517785Y-29183224D01*
X35517788Y-29183224D01*
X35522374Y-29184095D01*
X35652958Y-29189226D01*
X35778875Y-29194174D01*
X35778881Y-29194174D01*
X35783543Y-29194357D01*
X35872486Y-29184616D01*
X36038707Y-29166412D01*
X36038712Y-29166411D01*
X36043360Y-29165902D01*
X36047884Y-29164711D01*
X36291594Y-29100548D01*
X36291596Y-29100547D01*
X36296117Y-29099357D01*
X36311149Y-29092899D01*
X36455454Y-29030900D01*
X36536262Y-28996182D01*
X36542649Y-28992230D01*
X36754547Y-28861104D01*
X36754548Y-28861104D01*
X36758519Y-28858646D01*
X36762082Y-28855629D01*
X36762087Y-28855626D01*
X36954439Y-28692787D01*
X36954440Y-28692786D01*
X36958005Y-28689768D01*
X36974280Y-28671210D01*
X36998382Y-28643728D01*
X37058336Y-28605701D01*
X37129331Y-28606125D01*
X37182208Y-28637712D01*
X39177433Y-30632937D01*
X39211459Y-30695249D01*
X39206394Y-30766064D01*
X39163847Y-30822900D01*
X39123598Y-30842998D01*
X39064433Y-30860243D01*
X39060180Y-30862203D01*
X39060179Y-30862204D01*
X39019661Y-30880883D01*
X38827072Y-30969668D01*
X38788067Y-30995241D01*
X38612404Y-31110410D01*
X38612399Y-31110414D01*
X38608491Y-31112976D01*
X38413494Y-31287018D01*
X38246363Y-31487970D01*
X38243934Y-31491973D01*
X38140348Y-31662678D01*
X38110771Y-31711419D01*
X38009697Y-31952455D01*
X37945359Y-32205783D01*
X37919173Y-32465839D01*
X37919397Y-32470505D01*
X37919397Y-32470511D01*
X37925443Y-32596374D01*
X37931713Y-32726908D01*
X37982704Y-32983256D01*
X38071026Y-33229252D01*
X38073242Y-33233376D01*
X38175861Y-33424360D01*
X38194737Y-33459491D01*
X38197532Y-33463234D01*
X38197534Y-33463237D01*
X38348330Y-33665177D01*
X38348335Y-33665183D01*
X38351122Y-33668915D01*
X38354431Y-33672195D01*
X38354436Y-33672201D01*
X38533426Y-33849635D01*
X38536743Y-33852923D01*
X38540505Y-33855681D01*
X38540508Y-33855684D01*
X38674465Y-33953905D01*
X38747524Y-34007474D01*
X38751667Y-34009654D01*
X38751669Y-34009655D01*
X38974684Y-34126989D01*
X38974689Y-34126991D01*
X38978834Y-34129172D01*
X39225590Y-34215344D01*
X39230183Y-34216216D01*
X39477785Y-34263224D01*
X39477788Y-34263224D01*
X39482374Y-34264095D01*
X39612958Y-34269226D01*
X39738875Y-34274174D01*
X39738881Y-34274174D01*
X39743543Y-34274357D01*
X39823447Y-34265606D01*
X39998707Y-34246412D01*
X39998712Y-34246411D01*
X40003360Y-34245902D01*
X40093885Y-34222069D01*
X40251594Y-34180548D01*
X40251596Y-34180547D01*
X40256117Y-34179357D01*
X40332815Y-34146405D01*
X40387451Y-34122931D01*
X40496262Y-34076182D01*
X40689401Y-33956665D01*
X40714547Y-33941104D01*
X40714548Y-33941104D01*
X40718519Y-33938646D01*
X40722082Y-33935629D01*
X40722087Y-33935626D01*
X40914439Y-33772787D01*
X40914440Y-33772786D01*
X40918005Y-33769768D01*
X40992377Y-33684963D01*
X41087257Y-33576774D01*
X41087261Y-33576769D01*
X41090339Y-33573259D01*
X41124210Y-33520601D01*
X41180260Y-33433462D01*
X41233934Y-33386990D01*
X41304212Y-33376915D01*
X41368781Y-33406434D01*
X41375326Y-33412530D01*
X42775643Y-34812847D01*
X42783187Y-34821137D01*
X42787300Y-34827618D01*
X42793077Y-34833043D01*
X42836967Y-34874258D01*
X42839809Y-34877013D01*
X42859531Y-34896735D01*
X42862655Y-34899158D01*
X42862659Y-34899162D01*
X42862724Y-34899212D01*
X42871745Y-34906917D01*
X42903979Y-34937186D01*
X42910927Y-34941005D01*
X42910929Y-34941007D01*
X42921732Y-34946946D01*
X42938259Y-34957802D01*
X42947998Y-34965357D01*
X42948000Y-34965358D01*
X42954260Y-34970214D01*
X42994840Y-34987774D01*
X43005488Y-34992991D01*
X43044240Y-35014295D01*
X43051916Y-35016266D01*
X43051919Y-35016267D01*
X43063862Y-35019333D01*
X43082567Y-35025737D01*
X43101155Y-35033781D01*
X43108978Y-35035020D01*
X43108988Y-35035023D01*
X43144824Y-35040699D01*
X43156444Y-35043105D01*
X43191589Y-35052128D01*
X43199270Y-35054100D01*
X43219524Y-35054100D01*
X43239234Y-35055651D01*
X43259243Y-35058820D01*
X43267135Y-35058074D01*
X43303261Y-35054659D01*
X43315119Y-35054100D01*
X46582606Y-35054100D01*
X46650727Y-35074102D01*
X46671701Y-35091005D01*
X47418916Y-35838220D01*
X47452942Y-35900532D01*
X47447877Y-35971347D01*
X47405330Y-36028183D01*
X47397082Y-36033623D01*
X47395251Y-36034477D01*
X47301476Y-36100139D01*
X47212211Y-36162643D01*
X47212208Y-36162645D01*
X47207700Y-36165802D01*
X47045802Y-36327700D01*
X46914477Y-36515251D01*
X46912154Y-36520233D01*
X46912151Y-36520238D01*
X46896195Y-36554457D01*
X46849278Y-36607742D01*
X46781001Y-36627203D01*
X46713041Y-36606661D01*
X46667805Y-36554457D01*
X46651849Y-36520238D01*
X46651846Y-36520233D01*
X46649523Y-36515251D01*
X46518198Y-36327700D01*
X46356300Y-36165802D01*
X46351792Y-36162645D01*
X46351789Y-36162643D01*
X46273611Y-36107902D01*
X46168749Y-36034477D01*
X46163767Y-36032154D01*
X46163762Y-36032151D01*
X45966225Y-35940039D01*
X45966224Y-35940039D01*
X45961243Y-35937716D01*
X45955935Y-35936294D01*
X45955933Y-35936293D01*
X45745402Y-35879881D01*
X45745400Y-35879881D01*
X45740087Y-35878457D01*
X45512000Y-35858502D01*
X45283913Y-35878457D01*
X45278600Y-35879881D01*
X45278598Y-35879881D01*
X45068067Y-35936293D01*
X45068065Y-35936294D01*
X45062757Y-35937716D01*
X45057776Y-35940039D01*
X45057775Y-35940039D01*
X44860238Y-36032151D01*
X44860233Y-36032154D01*
X44855251Y-36034477D01*
X44750389Y-36107902D01*
X44672211Y-36162643D01*
X44672208Y-36162645D01*
X44667700Y-36165802D01*
X44505802Y-36327700D01*
X44374477Y-36515251D01*
X44372154Y-36520233D01*
X44372151Y-36520238D01*
X44356195Y-36554457D01*
X44309278Y-36607742D01*
X44241001Y-36627203D01*
X44173041Y-36606661D01*
X44127805Y-36554457D01*
X44111849Y-36520238D01*
X44111846Y-36520233D01*
X44109523Y-36515251D01*
X43978198Y-36327700D01*
X43816300Y-36165802D01*
X43811792Y-36162645D01*
X43811789Y-36162643D01*
X43733611Y-36107902D01*
X43628749Y-36034477D01*
X43623767Y-36032154D01*
X43623762Y-36032151D01*
X43426225Y-35940039D01*
X43426224Y-35940039D01*
X43421243Y-35937716D01*
X43415935Y-35936294D01*
X43415933Y-35936293D01*
X43205402Y-35879881D01*
X43205400Y-35879881D01*
X43200087Y-35878457D01*
X42972000Y-35858502D01*
X42743913Y-35878457D01*
X42738600Y-35879881D01*
X42738598Y-35879881D01*
X42528067Y-35936293D01*
X42528065Y-35936294D01*
X42522757Y-35937716D01*
X42517776Y-35940039D01*
X42517775Y-35940039D01*
X42320238Y-36032151D01*
X42320233Y-36032154D01*
X42315251Y-36034477D01*
X42210389Y-36107902D01*
X42132211Y-36162643D01*
X42132208Y-36162645D01*
X42127700Y-36165802D01*
X41965802Y-36327700D01*
X41962643Y-36332211D01*
X41959108Y-36336424D01*
X41957974Y-36335473D01*
X41907929Y-36375471D01*
X41837310Y-36382776D01*
X41773951Y-36350742D01*
X41737970Y-36289538D01*
X41734918Y-36272483D01*
X41733745Y-36261684D01*
X41682615Y-36125295D01*
X41595261Y-36008739D01*
X41478705Y-35921385D01*
X41342316Y-35870255D01*
X41280134Y-35863500D01*
X39583866Y-35863500D01*
X39521684Y-35870255D01*
X39385295Y-35921385D01*
X39268739Y-36008739D01*
X39181385Y-36125295D01*
X39130255Y-36261684D01*
X39123500Y-36323866D01*
X39123500Y-38820134D01*
X39130255Y-38882316D01*
X39181385Y-39018705D01*
X39268739Y-39135261D01*
X39385295Y-39222615D01*
X39521684Y-39273745D01*
X39583866Y-39280500D01*
X41280134Y-39280500D01*
X41342316Y-39273745D01*
X41478705Y-39222615D01*
X41595261Y-39135261D01*
X41682615Y-39018705D01*
X41733745Y-38882316D01*
X41734917Y-38871526D01*
X41735803Y-38869394D01*
X41736425Y-38866778D01*
X41736848Y-38866879D01*
X41762155Y-38805965D01*
X41820517Y-38765537D01*
X41891471Y-38763078D01*
X41952490Y-38799371D01*
X41959489Y-38808031D01*
X41962643Y-38811789D01*
X41965802Y-38816300D01*
X42127700Y-38978198D01*
X42132208Y-38981355D01*
X42132211Y-38981357D01*
X42173542Y-39010297D01*
X42315251Y-39109523D01*
X42320233Y-39111846D01*
X42320238Y-39111849D01*
X42517775Y-39203961D01*
X42522757Y-39206284D01*
X42528065Y-39207706D01*
X42528067Y-39207707D01*
X42738598Y-39264119D01*
X42738600Y-39264119D01*
X42743913Y-39265543D01*
X42972000Y-39285498D01*
X43200087Y-39265543D01*
X43205400Y-39264119D01*
X43205402Y-39264119D01*
X43415933Y-39207707D01*
X43415935Y-39207706D01*
X43421243Y-39206284D01*
X43426225Y-39203961D01*
X43623762Y-39111849D01*
X43623767Y-39111846D01*
X43628749Y-39109523D01*
X43770458Y-39010297D01*
X43811789Y-38981357D01*
X43811792Y-38981355D01*
X43816300Y-38978198D01*
X43978198Y-38816300D01*
X44109523Y-38628749D01*
X44111846Y-38623767D01*
X44111849Y-38623762D01*
X44127805Y-38589543D01*
X44174722Y-38536258D01*
X44242999Y-38516797D01*
X44310959Y-38537339D01*
X44356195Y-38589543D01*
X44372151Y-38623762D01*
X44372154Y-38623767D01*
X44374477Y-38628749D01*
X44505802Y-38816300D01*
X44667700Y-38978198D01*
X44672208Y-38981355D01*
X44672211Y-38981357D01*
X44713542Y-39010297D01*
X44855251Y-39109523D01*
X44860233Y-39111846D01*
X44860238Y-39111849D01*
X45057775Y-39203961D01*
X45062757Y-39206284D01*
X45068065Y-39207706D01*
X45068067Y-39207707D01*
X45278598Y-39264119D01*
X45278600Y-39264119D01*
X45283913Y-39265543D01*
X45512000Y-39285498D01*
X45740087Y-39265543D01*
X45745400Y-39264119D01*
X45745402Y-39264119D01*
X45955933Y-39207707D01*
X45955935Y-39207706D01*
X45961243Y-39206284D01*
X45966225Y-39203961D01*
X46163762Y-39111849D01*
X46163767Y-39111846D01*
X46168749Y-39109523D01*
X46310458Y-39010297D01*
X46351789Y-38981357D01*
X46351792Y-38981355D01*
X46356300Y-38978198D01*
X46518198Y-38816300D01*
X46649523Y-38628749D01*
X46651846Y-38623767D01*
X46651849Y-38623762D01*
X46667805Y-38589543D01*
X46714722Y-38536258D01*
X46782999Y-38516797D01*
X46850959Y-38537339D01*
X46896195Y-38589543D01*
X46912151Y-38623762D01*
X46912154Y-38623767D01*
X46914477Y-38628749D01*
X47045802Y-38816300D01*
X47207700Y-38978198D01*
X47212208Y-38981355D01*
X47212211Y-38981357D01*
X47367411Y-39090029D01*
X47411739Y-39145486D01*
X47419420Y-39181501D01*
X47419837Y-39181435D01*
X47421078Y-39189269D01*
X47421327Y-39197189D01*
X47424383Y-39207707D01*
X47426978Y-39216639D01*
X47430987Y-39236000D01*
X47433526Y-39256097D01*
X47436445Y-39263468D01*
X47436445Y-39263470D01*
X47449804Y-39297212D01*
X47453649Y-39308442D01*
X47465982Y-39350893D01*
X47470015Y-39357712D01*
X47470017Y-39357717D01*
X47476293Y-39368328D01*
X47484988Y-39386076D01*
X47492448Y-39404917D01*
X47497110Y-39411333D01*
X47497110Y-39411334D01*
X47518436Y-39440687D01*
X47524952Y-39450607D01*
X47547458Y-39488662D01*
X47561779Y-39502983D01*
X47574619Y-39518016D01*
X47586528Y-39534407D01*
X47592634Y-39539458D01*
X47620605Y-39562598D01*
X47629384Y-39570588D01*
X48449043Y-40390247D01*
X48456587Y-40398537D01*
X48460700Y-40405018D01*
X48466477Y-40410443D01*
X48510367Y-40451658D01*
X48513209Y-40454413D01*
X48532930Y-40474134D01*
X48536125Y-40476612D01*
X48545147Y-40484318D01*
X48577379Y-40514586D01*
X48584328Y-40518406D01*
X48595132Y-40524346D01*
X48611656Y-40535199D01*
X48627659Y-40547613D01*
X48668243Y-40565176D01*
X48678873Y-40570383D01*
X48717640Y-40591695D01*
X48725317Y-40593666D01*
X48725322Y-40593668D01*
X48737258Y-40596732D01*
X48755966Y-40603137D01*
X48774555Y-40611181D01*
X48782383Y-40612421D01*
X48782390Y-40612423D01*
X48818224Y-40618099D01*
X48829844Y-40620505D01*
X48861659Y-40628673D01*
X48872670Y-40631500D01*
X48892924Y-40631500D01*
X48912634Y-40633051D01*
X48932643Y-40636220D01*
X48940535Y-40635474D01*
X48959280Y-40633702D01*
X48976662Y-40632059D01*
X48988519Y-40631500D01*
X70430433Y-40631500D01*
X70441616Y-40632027D01*
X70449109Y-40633702D01*
X70457035Y-40633453D01*
X70457036Y-40633453D01*
X70517186Y-40631562D01*
X70521145Y-40631500D01*
X70549056Y-40631500D01*
X70552991Y-40631003D01*
X70553056Y-40630995D01*
X70564893Y-40630062D01*
X70597151Y-40629048D01*
X70601170Y-40628922D01*
X70609089Y-40628673D01*
X70628543Y-40623021D01*
X70647900Y-40619013D01*
X70660130Y-40617468D01*
X70660131Y-40617468D01*
X70667997Y-40616474D01*
X70675368Y-40613555D01*
X70675370Y-40613555D01*
X70709112Y-40600196D01*
X70720342Y-40596351D01*
X70755183Y-40586229D01*
X70755184Y-40586229D01*
X70762793Y-40584018D01*
X70769612Y-40579985D01*
X70769617Y-40579983D01*
X70780228Y-40573707D01*
X70797976Y-40565012D01*
X70816817Y-40557552D01*
X70837187Y-40542753D01*
X70852587Y-40531564D01*
X70862507Y-40525048D01*
X70893735Y-40506580D01*
X70893738Y-40506578D01*
X70900562Y-40502542D01*
X70914883Y-40488221D01*
X70929917Y-40475380D01*
X70931632Y-40474134D01*
X70946307Y-40463472D01*
X70974498Y-40429395D01*
X70982488Y-40420616D01*
X71630527Y-39772577D01*
X72427210Y-38975895D01*
X72489520Y-38941870D01*
X72560335Y-38946935D01*
X72598839Y-38971681D01*
X72599600Y-38970774D01*
X72603803Y-38974301D01*
X72607700Y-38978198D01*
X72612208Y-38981355D01*
X72612211Y-38981357D01*
X72653542Y-39010297D01*
X72795251Y-39109523D01*
X72800233Y-39111846D01*
X72800238Y-39111849D01*
X72997775Y-39203961D01*
X73002757Y-39206284D01*
X73008065Y-39207706D01*
X73008067Y-39207707D01*
X73218598Y-39264119D01*
X73218600Y-39264119D01*
X73223913Y-39265543D01*
X73452000Y-39285498D01*
X73680087Y-39265543D01*
X73685400Y-39264119D01*
X73685402Y-39264119D01*
X73895933Y-39207707D01*
X73895935Y-39207706D01*
X73901243Y-39206284D01*
X73906225Y-39203961D01*
X74103762Y-39111849D01*
X74103767Y-39111846D01*
X74108749Y-39109523D01*
X74250458Y-39010297D01*
X74291789Y-38981357D01*
X74291792Y-38981355D01*
X74296300Y-38978198D01*
X74458198Y-38816300D01*
X74589523Y-38628749D01*
X74591846Y-38623767D01*
X74591849Y-38623762D01*
X74607805Y-38589543D01*
X74654722Y-38536258D01*
X74722999Y-38516797D01*
X74790959Y-38537339D01*
X74836195Y-38589543D01*
X74852151Y-38623762D01*
X74852154Y-38623767D01*
X74854477Y-38628749D01*
X74985802Y-38816300D01*
X75147700Y-38978198D01*
X75152208Y-38981355D01*
X75152211Y-38981357D01*
X75193542Y-39010297D01*
X75335251Y-39109523D01*
X75340233Y-39111846D01*
X75340238Y-39111849D01*
X75537775Y-39203961D01*
X75542757Y-39206284D01*
X75548065Y-39207706D01*
X75548067Y-39207707D01*
X75758598Y-39264119D01*
X75758600Y-39264119D01*
X75763913Y-39265543D01*
X75992000Y-39285498D01*
X76220087Y-39265543D01*
X76225400Y-39264119D01*
X76225402Y-39264119D01*
X76435933Y-39207707D01*
X76435935Y-39207706D01*
X76441243Y-39206284D01*
X76446225Y-39203961D01*
X76643762Y-39111849D01*
X76643767Y-39111846D01*
X76648749Y-39109523D01*
X76790458Y-39010297D01*
X76831789Y-38981357D01*
X76831792Y-38981355D01*
X76836300Y-38978198D01*
X76998198Y-38816300D01*
X77129523Y-38628749D01*
X77131846Y-38623767D01*
X77131849Y-38623762D01*
X77147805Y-38589543D01*
X77194722Y-38536258D01*
X77262999Y-38516797D01*
X77330959Y-38537339D01*
X77376195Y-38589543D01*
X77392151Y-38623762D01*
X77392154Y-38623767D01*
X77394477Y-38628749D01*
X77525802Y-38816300D01*
X77687700Y-38978198D01*
X77692208Y-38981355D01*
X77692211Y-38981357D01*
X77733542Y-39010297D01*
X77875251Y-39109523D01*
X77880233Y-39111846D01*
X77880238Y-39111849D01*
X78077775Y-39203961D01*
X78082757Y-39206284D01*
X78088065Y-39207706D01*
X78088067Y-39207707D01*
X78298598Y-39264119D01*
X78298600Y-39264119D01*
X78303913Y-39265543D01*
X78532000Y-39285498D01*
X78760087Y-39265543D01*
X78765400Y-39264119D01*
X78765402Y-39264119D01*
X78975933Y-39207707D01*
X78975935Y-39207706D01*
X78981243Y-39206284D01*
X78986225Y-39203961D01*
X79183762Y-39111849D01*
X79183767Y-39111846D01*
X79188749Y-39109523D01*
X79330458Y-39010297D01*
X79371789Y-38981357D01*
X79371792Y-38981355D01*
X79376300Y-38978198D01*
X79538198Y-38816300D01*
X79669523Y-38628749D01*
X79671846Y-38623767D01*
X79671849Y-38623762D01*
X79763959Y-38426228D01*
X79766284Y-38421243D01*
X79799069Y-38298889D01*
X79836021Y-38238266D01*
X79899881Y-38207245D01*
X79920776Y-38205500D01*
X82063233Y-38205500D01*
X82074416Y-38206027D01*
X82081909Y-38207702D01*
X82089835Y-38207453D01*
X82089836Y-38207453D01*
X82149986Y-38205562D01*
X82153945Y-38205500D01*
X82181856Y-38205500D01*
X82185791Y-38205003D01*
X82185856Y-38204995D01*
X82197693Y-38204062D01*
X82229951Y-38203048D01*
X82233970Y-38202922D01*
X82241889Y-38202673D01*
X82261343Y-38197021D01*
X82280700Y-38193013D01*
X82292930Y-38191468D01*
X82292931Y-38191468D01*
X82300797Y-38190474D01*
X82308168Y-38187555D01*
X82308170Y-38187555D01*
X82341912Y-38174196D01*
X82353142Y-38170351D01*
X82387983Y-38160229D01*
X82387984Y-38160229D01*
X82395593Y-38158018D01*
X82402412Y-38153985D01*
X82402417Y-38153983D01*
X82413028Y-38147707D01*
X82430776Y-38139012D01*
X82449617Y-38131552D01*
X82485387Y-38105564D01*
X82495307Y-38099048D01*
X82526535Y-38080580D01*
X82526538Y-38080578D01*
X82533362Y-38076542D01*
X82547683Y-38062221D01*
X82562717Y-38049380D01*
X82572694Y-38042131D01*
X82579107Y-38037472D01*
X82607298Y-38003395D01*
X82615288Y-37994616D01*
X86429473Y-34180431D01*
X86491785Y-34146405D01*
X86560109Y-34150571D01*
X86664251Y-34186939D01*
X86745590Y-34215344D01*
X86750183Y-34216216D01*
X86997785Y-34263224D01*
X86997788Y-34263224D01*
X87002374Y-34264095D01*
X87132958Y-34269226D01*
X87258875Y-34274174D01*
X87258881Y-34274174D01*
X87263543Y-34274357D01*
X87343447Y-34265606D01*
X87518707Y-34246412D01*
X87518712Y-34246411D01*
X87523360Y-34245902D01*
X87613885Y-34222069D01*
X87771594Y-34180548D01*
X87771596Y-34180547D01*
X87776117Y-34179357D01*
X87852815Y-34146405D01*
X87907451Y-34122931D01*
X88016262Y-34076182D01*
X88209401Y-33956665D01*
X88234547Y-33941104D01*
X88234548Y-33941104D01*
X88238519Y-33938646D01*
X88242082Y-33935629D01*
X88242087Y-33935626D01*
X88434439Y-33772787D01*
X88434440Y-33772786D01*
X88438005Y-33769768D01*
X88512377Y-33684963D01*
X88607257Y-33576774D01*
X88607261Y-33576769D01*
X88610339Y-33573259D01*
X88652915Y-33507068D01*
X88749205Y-33357367D01*
X88751733Y-33353437D01*
X88859083Y-33115129D01*
X88897607Y-32978535D01*
X88928760Y-32868076D01*
X88928761Y-32868073D01*
X88930030Y-32863572D01*
X88946840Y-32731435D01*
X88962616Y-32607421D01*
X88962616Y-32607417D01*
X88963014Y-32604291D01*
X88963098Y-32601108D01*
X88965348Y-32515160D01*
X88965431Y-32512000D01*
X88946061Y-32251348D01*
X88936825Y-32210528D01*
X88889408Y-32000980D01*
X88888377Y-31996423D01*
X88869603Y-31948146D01*
X88795340Y-31757176D01*
X88795339Y-31757173D01*
X88793647Y-31752823D01*
X88779264Y-31727657D01*
X88733896Y-31648280D01*
X88663951Y-31525902D01*
X88502138Y-31320643D01*
X88311763Y-31141557D01*
X88133973Y-31018219D01*
X88100851Y-30995241D01*
X88100848Y-30995239D01*
X88097009Y-30992576D01*
X87905771Y-30898268D01*
X87853523Y-30850199D01*
X87835500Y-30785262D01*
X87835500Y-29156847D01*
X87855502Y-29088726D01*
X87911762Y-29041079D01*
X87935454Y-29030900D01*
X88016262Y-28996182D01*
X88022649Y-28992230D01*
X88234547Y-28861104D01*
X88234548Y-28861104D01*
X88238519Y-28858646D01*
X88242082Y-28855629D01*
X88242087Y-28855626D01*
X88434439Y-28692787D01*
X88434440Y-28692786D01*
X88438005Y-28689768D01*
X88483657Y-28637712D01*
X88607257Y-28496774D01*
X88607261Y-28496769D01*
X88610339Y-28493259D01*
X88751733Y-28273437D01*
X88859083Y-28035129D01*
X88930030Y-27783572D01*
X88946832Y-27651496D01*
X88962616Y-27527421D01*
X88962616Y-27527417D01*
X88963014Y-27524291D01*
X88965431Y-27432000D01*
X88946061Y-27171348D01*
X88934725Y-27121248D01*
X88889408Y-26920980D01*
X88888377Y-26916423D01*
X88811864Y-26719669D01*
X88795340Y-26677176D01*
X88795339Y-26677173D01*
X88793647Y-26672823D01*
X88663951Y-26445902D01*
X88502138Y-26240643D01*
X88311763Y-26061557D01*
X88115920Y-25925695D01*
X88100851Y-25915241D01*
X88100848Y-25915239D01*
X88097009Y-25912576D01*
X88071250Y-25899873D01*
X87866781Y-25799040D01*
X87866778Y-25799039D01*
X87862593Y-25796975D01*
X87816455Y-25782206D01*
X87618123Y-25718720D01*
X87613665Y-25717293D01*
X87355693Y-25675279D01*
X87241942Y-25673790D01*
X87099022Y-25671919D01*
X87099019Y-25671919D01*
X87094345Y-25671858D01*
X86835362Y-25707104D01*
X86830876Y-25708412D01*
X86830874Y-25708412D01*
X86802988Y-25716540D01*
X86584433Y-25780243D01*
X86580180Y-25782203D01*
X86580179Y-25782204D01*
X86547073Y-25797466D01*
X86347072Y-25889668D01*
X86308067Y-25915241D01*
X86132404Y-26030410D01*
X86132399Y-26030414D01*
X86128491Y-26032976D01*
X85933494Y-26207018D01*
X85766363Y-26407970D01*
X85763934Y-26411973D01*
X85634058Y-26626003D01*
X85630771Y-26631419D01*
X85529697Y-26872455D01*
X85465359Y-27125783D01*
X85439173Y-27385839D01*
X85451713Y-27646908D01*
X85502704Y-27903256D01*
X85591026Y-28149252D01*
X85593242Y-28153376D01*
X85704092Y-28359679D01*
X85714737Y-28379491D01*
X85717532Y-28383234D01*
X85717534Y-28383237D01*
X85868330Y-28585177D01*
X85868335Y-28585183D01*
X85871122Y-28588915D01*
X85874431Y-28592195D01*
X85874436Y-28592201D01*
X86053426Y-28769635D01*
X86056743Y-28772923D01*
X86060505Y-28775681D01*
X86060508Y-28775684D01*
X86263750Y-28924707D01*
X86267524Y-28927474D01*
X86271667Y-28929654D01*
X86271669Y-28929655D01*
X86498834Y-29049172D01*
X86498084Y-29050598D01*
X86547252Y-29091674D01*
X86568500Y-29161695D01*
X86568500Y-30786930D01*
X86548498Y-30855051D01*
X86495251Y-30901356D01*
X86469777Y-30913100D01*
X86347072Y-30969668D01*
X86308067Y-30995241D01*
X86132404Y-31110410D01*
X86132399Y-31110414D01*
X86128491Y-31112976D01*
X85933494Y-31287018D01*
X85766363Y-31487970D01*
X85763934Y-31491973D01*
X85660348Y-31662678D01*
X85630771Y-31711419D01*
X85529697Y-31952455D01*
X85465359Y-32205783D01*
X85439173Y-32465839D01*
X85439397Y-32470505D01*
X85439397Y-32470511D01*
X85445443Y-32596373D01*
X85451713Y-32726908D01*
X85502704Y-32983256D01*
X85563455Y-33152462D01*
X85567649Y-33223333D01*
X85533962Y-33284133D01*
X81916500Y-36901595D01*
X81854188Y-36935621D01*
X81827405Y-36938500D01*
X79920776Y-36938500D01*
X79852655Y-36918498D01*
X79806162Y-36864842D01*
X79799069Y-36845111D01*
X79767708Y-36728071D01*
X79767708Y-36728070D01*
X79766284Y-36722757D01*
X79687805Y-36554457D01*
X79671849Y-36520238D01*
X79671846Y-36520233D01*
X79669523Y-36515251D01*
X79538198Y-36327700D01*
X79376300Y-36165802D01*
X79371792Y-36162645D01*
X79371789Y-36162643D01*
X79293611Y-36107902D01*
X79188749Y-36034477D01*
X79183767Y-36032154D01*
X79183762Y-36032151D01*
X78986225Y-35940039D01*
X78986224Y-35940039D01*
X78981243Y-35937716D01*
X78975935Y-35936294D01*
X78975933Y-35936293D01*
X78765402Y-35879881D01*
X78765400Y-35879881D01*
X78760087Y-35878457D01*
X78532000Y-35858502D01*
X78303913Y-35878457D01*
X78298600Y-35879881D01*
X78298598Y-35879881D01*
X78088067Y-35936293D01*
X78088065Y-35936294D01*
X78082757Y-35937716D01*
X78077776Y-35940039D01*
X78077775Y-35940039D01*
X77880238Y-36032151D01*
X77880233Y-36032154D01*
X77875251Y-36034477D01*
X77770389Y-36107902D01*
X77692211Y-36162643D01*
X77692208Y-36162645D01*
X77687700Y-36165802D01*
X77525802Y-36327700D01*
X77394477Y-36515251D01*
X77392154Y-36520233D01*
X77392151Y-36520238D01*
X77376195Y-36554457D01*
X77329278Y-36607742D01*
X77261001Y-36627203D01*
X77193041Y-36606661D01*
X77147805Y-36554457D01*
X77131849Y-36520238D01*
X77131846Y-36520233D01*
X77129523Y-36515251D01*
X76998198Y-36327700D01*
X76836300Y-36165802D01*
X76831792Y-36162645D01*
X76831789Y-36162643D01*
X76753611Y-36107902D01*
X76648749Y-36034477D01*
X76643767Y-36032154D01*
X76643762Y-36032151D01*
X76446225Y-35940039D01*
X76446224Y-35940039D01*
X76441243Y-35937716D01*
X76435935Y-35936294D01*
X76435933Y-35936293D01*
X76225402Y-35879881D01*
X76225400Y-35879881D01*
X76220087Y-35878457D01*
X75992000Y-35858502D01*
X75763913Y-35878457D01*
X75758600Y-35879881D01*
X75758598Y-35879881D01*
X75548067Y-35936293D01*
X75548065Y-35936294D01*
X75542757Y-35937716D01*
X75537776Y-35940039D01*
X75537775Y-35940039D01*
X75340238Y-36032151D01*
X75340233Y-36032154D01*
X75335251Y-36034477D01*
X75230389Y-36107902D01*
X75152211Y-36162643D01*
X75152208Y-36162645D01*
X75147700Y-36165802D01*
X74985802Y-36327700D01*
X74854477Y-36515251D01*
X74852154Y-36520233D01*
X74852151Y-36520238D01*
X74836195Y-36554457D01*
X74789278Y-36607742D01*
X74721001Y-36627203D01*
X74653041Y-36606661D01*
X74607805Y-36554457D01*
X74591849Y-36520238D01*
X74591846Y-36520233D01*
X74589523Y-36515251D01*
X74458198Y-36327700D01*
X74296300Y-36165802D01*
X74291792Y-36162645D01*
X74291789Y-36162643D01*
X74213611Y-36107902D01*
X74108749Y-36034477D01*
X74103767Y-36032154D01*
X74103762Y-36032151D01*
X73906225Y-35940039D01*
X73906224Y-35940039D01*
X73901243Y-35937716D01*
X73895935Y-35936294D01*
X73895933Y-35936293D01*
X73685402Y-35879881D01*
X73685400Y-35879881D01*
X73680087Y-35878457D01*
X73452000Y-35858502D01*
X73223913Y-35878457D01*
X73218600Y-35879881D01*
X73218598Y-35879881D01*
X73008067Y-35936293D01*
X73008065Y-35936294D01*
X73002757Y-35937716D01*
X72939891Y-35967031D01*
X72920249Y-35976190D01*
X72850057Y-35986851D01*
X72785244Y-35957871D01*
X72746388Y-35898451D01*
X72745825Y-35827457D01*
X72777904Y-35772900D01*
X73734247Y-34816557D01*
X73742537Y-34809013D01*
X73749018Y-34804900D01*
X73795659Y-34755232D01*
X73798413Y-34752391D01*
X73818134Y-34732670D01*
X73820612Y-34729475D01*
X73828318Y-34720453D01*
X73853158Y-34694001D01*
X73858586Y-34688221D01*
X73868346Y-34670468D01*
X73879199Y-34653945D01*
X73886753Y-34644206D01*
X73891613Y-34637941D01*
X73909176Y-34597357D01*
X73914383Y-34586727D01*
X73935695Y-34547960D01*
X73937666Y-34540283D01*
X73937668Y-34540278D01*
X73940732Y-34528342D01*
X73947138Y-34509630D01*
X73952033Y-34498319D01*
X73955181Y-34491045D01*
X73956421Y-34483217D01*
X73956423Y-34483210D01*
X73962099Y-34447376D01*
X73964505Y-34435756D01*
X73973528Y-34400611D01*
X73973528Y-34400610D01*
X73975500Y-34392930D01*
X73975500Y-34372676D01*
X73977051Y-34352965D01*
X73978980Y-34340786D01*
X73980220Y-34332957D01*
X73976059Y-34288938D01*
X73975500Y-34277081D01*
X73975500Y-33953905D01*
X73995502Y-33885784D01*
X74049158Y-33839291D01*
X74119432Y-33829187D01*
X74175541Y-33854562D01*
X74176743Y-33852923D01*
X74314044Y-33953596D01*
X74387524Y-34007474D01*
X74391667Y-34009654D01*
X74391669Y-34009655D01*
X74614684Y-34126989D01*
X74614689Y-34126991D01*
X74618834Y-34129172D01*
X74865590Y-34215344D01*
X74870183Y-34216216D01*
X75117785Y-34263224D01*
X75117788Y-34263224D01*
X75122374Y-34264095D01*
X75252958Y-34269226D01*
X75378875Y-34274174D01*
X75378881Y-34274174D01*
X75383543Y-34274357D01*
X75463447Y-34265606D01*
X75638707Y-34246412D01*
X75638712Y-34246411D01*
X75643360Y-34245902D01*
X75733885Y-34222069D01*
X75891594Y-34180548D01*
X75891596Y-34180547D01*
X75896117Y-34179357D01*
X75972815Y-34146405D01*
X76027451Y-34122931D01*
X76136262Y-34076182D01*
X76329401Y-33956665D01*
X76354547Y-33941104D01*
X76354548Y-33941104D01*
X76358519Y-33938646D01*
X76362082Y-33935629D01*
X76362087Y-33935626D01*
X76554439Y-33772787D01*
X76554440Y-33772786D01*
X76558005Y-33769768D01*
X76632377Y-33684963D01*
X76727257Y-33576774D01*
X76727261Y-33576769D01*
X76730339Y-33573259D01*
X76772915Y-33507068D01*
X76869205Y-33357367D01*
X76871733Y-33353437D01*
X76979083Y-33115129D01*
X77017607Y-32978535D01*
X77048760Y-32868076D01*
X77048761Y-32868073D01*
X77050030Y-32863572D01*
X77066840Y-32731435D01*
X77082616Y-32607421D01*
X77082616Y-32607417D01*
X77083014Y-32604291D01*
X77083098Y-32601108D01*
X77085348Y-32515160D01*
X77085431Y-32512000D01*
X77082001Y-32465839D01*
X77519173Y-32465839D01*
X77519397Y-32470505D01*
X77519397Y-32470511D01*
X77525443Y-32596373D01*
X77531713Y-32726908D01*
X77582704Y-32983256D01*
X77671026Y-33229252D01*
X77673242Y-33233376D01*
X77775861Y-33424360D01*
X77794737Y-33459491D01*
X77797532Y-33463234D01*
X77797534Y-33463237D01*
X77948330Y-33665177D01*
X77948335Y-33665183D01*
X77951122Y-33668915D01*
X77954431Y-33672195D01*
X77954436Y-33672201D01*
X78133426Y-33849635D01*
X78136743Y-33852923D01*
X78140505Y-33855681D01*
X78140508Y-33855684D01*
X78274465Y-33953905D01*
X78347524Y-34007474D01*
X78351667Y-34009654D01*
X78351669Y-34009655D01*
X78574684Y-34126989D01*
X78574689Y-34126991D01*
X78578834Y-34129172D01*
X78825590Y-34215344D01*
X78830183Y-34216216D01*
X79077785Y-34263224D01*
X79077788Y-34263224D01*
X79082374Y-34264095D01*
X79212958Y-34269226D01*
X79338875Y-34274174D01*
X79338881Y-34274174D01*
X79343543Y-34274357D01*
X79423447Y-34265606D01*
X79598707Y-34246412D01*
X79598712Y-34246411D01*
X79603360Y-34245902D01*
X79693885Y-34222069D01*
X79851594Y-34180548D01*
X79851596Y-34180547D01*
X79856117Y-34179357D01*
X79932815Y-34146405D01*
X79987451Y-34122931D01*
X80096262Y-34076182D01*
X80289401Y-33956665D01*
X80314547Y-33941104D01*
X80314548Y-33941104D01*
X80318519Y-33938646D01*
X80322082Y-33935629D01*
X80322087Y-33935626D01*
X80514439Y-33772787D01*
X80514440Y-33772786D01*
X80518005Y-33769768D01*
X80592377Y-33684963D01*
X80687257Y-33576774D01*
X80687261Y-33576769D01*
X80690339Y-33573259D01*
X80732915Y-33507068D01*
X80829205Y-33357367D01*
X80831733Y-33353437D01*
X80939083Y-33115129D01*
X80977607Y-32978535D01*
X81008760Y-32868076D01*
X81008761Y-32868073D01*
X81010030Y-32863572D01*
X81026840Y-32731435D01*
X81042616Y-32607421D01*
X81042616Y-32607417D01*
X81043014Y-32604291D01*
X81043098Y-32601108D01*
X81045348Y-32515160D01*
X81045431Y-32512000D01*
X81042001Y-32465839D01*
X81479173Y-32465839D01*
X81479397Y-32470505D01*
X81479397Y-32470511D01*
X81485443Y-32596373D01*
X81491713Y-32726908D01*
X81542704Y-32983256D01*
X81631026Y-33229252D01*
X81633242Y-33233376D01*
X81735861Y-33424360D01*
X81754737Y-33459491D01*
X81757532Y-33463234D01*
X81757534Y-33463237D01*
X81908330Y-33665177D01*
X81908335Y-33665183D01*
X81911122Y-33668915D01*
X81914431Y-33672195D01*
X81914436Y-33672201D01*
X82093426Y-33849635D01*
X82096743Y-33852923D01*
X82100505Y-33855681D01*
X82100508Y-33855684D01*
X82234465Y-33953905D01*
X82307524Y-34007474D01*
X82311667Y-34009654D01*
X82311669Y-34009655D01*
X82534684Y-34126989D01*
X82534689Y-34126991D01*
X82538834Y-34129172D01*
X82785590Y-34215344D01*
X82790183Y-34216216D01*
X83037785Y-34263224D01*
X83037788Y-34263224D01*
X83042374Y-34264095D01*
X83172958Y-34269226D01*
X83298875Y-34274174D01*
X83298881Y-34274174D01*
X83303543Y-34274357D01*
X83383447Y-34265606D01*
X83558707Y-34246412D01*
X83558712Y-34246411D01*
X83563360Y-34245902D01*
X83653885Y-34222069D01*
X83811594Y-34180548D01*
X83811596Y-34180547D01*
X83816117Y-34179357D01*
X83892815Y-34146405D01*
X83947451Y-34122931D01*
X84056262Y-34076182D01*
X84249401Y-33956665D01*
X84274547Y-33941104D01*
X84274548Y-33941104D01*
X84278519Y-33938646D01*
X84282082Y-33935629D01*
X84282087Y-33935626D01*
X84474439Y-33772787D01*
X84474440Y-33772786D01*
X84478005Y-33769768D01*
X84552377Y-33684963D01*
X84647257Y-33576774D01*
X84647261Y-33576769D01*
X84650339Y-33573259D01*
X84692915Y-33507068D01*
X84789205Y-33357367D01*
X84791733Y-33353437D01*
X84899083Y-33115129D01*
X84937607Y-32978535D01*
X84968760Y-32868076D01*
X84968761Y-32868073D01*
X84970030Y-32863572D01*
X84986840Y-32731435D01*
X85002616Y-32607421D01*
X85002616Y-32607417D01*
X85003014Y-32604291D01*
X85003098Y-32601108D01*
X85005348Y-32515160D01*
X85005431Y-32512000D01*
X84986061Y-32251348D01*
X84976825Y-32210528D01*
X84929408Y-32000980D01*
X84928377Y-31996423D01*
X84909603Y-31948146D01*
X84835340Y-31757176D01*
X84835339Y-31757173D01*
X84833647Y-31752823D01*
X84819264Y-31727657D01*
X84773896Y-31648280D01*
X84703951Y-31525902D01*
X84542138Y-31320643D01*
X84351763Y-31141557D01*
X84173973Y-31018219D01*
X84140851Y-30995241D01*
X84140848Y-30995239D01*
X84137009Y-30992576D01*
X84132816Y-30990508D01*
X83906781Y-30879040D01*
X83906776Y-30879038D01*
X83902593Y-30876975D01*
X83888901Y-30872592D01*
X83658123Y-30798720D01*
X83653665Y-30797293D01*
X83395693Y-30755279D01*
X83281942Y-30753790D01*
X83139022Y-30751919D01*
X83139019Y-30751919D01*
X83134345Y-30751858D01*
X82875362Y-30787104D01*
X82624433Y-30860243D01*
X82620180Y-30862203D01*
X82620179Y-30862204D01*
X82579661Y-30880883D01*
X82387072Y-30969668D01*
X82348067Y-30995241D01*
X82172404Y-31110410D01*
X82172399Y-31110414D01*
X82168491Y-31112976D01*
X81973494Y-31287018D01*
X81806363Y-31487970D01*
X81803934Y-31491973D01*
X81700348Y-31662678D01*
X81670771Y-31711419D01*
X81569697Y-31952455D01*
X81505359Y-32205783D01*
X81479173Y-32465839D01*
X81042001Y-32465839D01*
X81026061Y-32251348D01*
X81016825Y-32210528D01*
X80969408Y-32000980D01*
X80968377Y-31996423D01*
X80949603Y-31948146D01*
X80875340Y-31757176D01*
X80875339Y-31757173D01*
X80873647Y-31752823D01*
X80859264Y-31727657D01*
X80813896Y-31648280D01*
X80743951Y-31525902D01*
X80582138Y-31320643D01*
X80391763Y-31141557D01*
X80213973Y-31018219D01*
X80180851Y-30995241D01*
X80180848Y-30995239D01*
X80177009Y-30992576D01*
X80172816Y-30990508D01*
X79946781Y-30879040D01*
X79946776Y-30879038D01*
X79942593Y-30876975D01*
X79928901Y-30872592D01*
X79698123Y-30798720D01*
X79693665Y-30797293D01*
X79435693Y-30755279D01*
X79321942Y-30753790D01*
X79179022Y-30751919D01*
X79179019Y-30751919D01*
X79174345Y-30751858D01*
X78915362Y-30787104D01*
X78664433Y-30860243D01*
X78660180Y-30862203D01*
X78660179Y-30862204D01*
X78619661Y-30880883D01*
X78427072Y-30969668D01*
X78388067Y-30995241D01*
X78212404Y-31110410D01*
X78212399Y-31110414D01*
X78208491Y-31112976D01*
X78013494Y-31287018D01*
X77846363Y-31487970D01*
X77843934Y-31491973D01*
X77740348Y-31662678D01*
X77710771Y-31711419D01*
X77609697Y-31952455D01*
X77545359Y-32205783D01*
X77519173Y-32465839D01*
X77082001Y-32465839D01*
X77066061Y-32251348D01*
X77056825Y-32210528D01*
X77009408Y-32000980D01*
X77008377Y-31996423D01*
X76989603Y-31948146D01*
X76915340Y-31757176D01*
X76915339Y-31757173D01*
X76913647Y-31752823D01*
X76899264Y-31727657D01*
X76853896Y-31648280D01*
X76783951Y-31525902D01*
X76622138Y-31320643D01*
X76431763Y-31141557D01*
X76253973Y-31018219D01*
X76220851Y-30995241D01*
X76220848Y-30995239D01*
X76217009Y-30992576D01*
X76212816Y-30990508D01*
X75986781Y-30879040D01*
X75986776Y-30879038D01*
X75982593Y-30876975D01*
X75968901Y-30872592D01*
X75738123Y-30798720D01*
X75733665Y-30797293D01*
X75475693Y-30755279D01*
X75361942Y-30753790D01*
X75219022Y-30751919D01*
X75219019Y-30751919D01*
X75214345Y-30751858D01*
X74955362Y-30787104D01*
X74704433Y-30860243D01*
X74700180Y-30862203D01*
X74700179Y-30862204D01*
X74659661Y-30880883D01*
X74467072Y-30969668D01*
X74428067Y-30995241D01*
X74252404Y-31110410D01*
X74252399Y-31110414D01*
X74248491Y-31112976D01*
X74244999Y-31116093D01*
X74185401Y-31169286D01*
X74121260Y-31199724D01*
X74050845Y-31190652D01*
X73996513Y-31144952D01*
X73975500Y-31075283D01*
X73975500Y-29726595D01*
X73995502Y-29658474D01*
X74012405Y-29637499D01*
X74549475Y-29100430D01*
X74611787Y-29066405D01*
X74680111Y-29070571D01*
X74725174Y-29086308D01*
X74765954Y-29100549D01*
X74865590Y-29135344D01*
X74870183Y-29136216D01*
X75117785Y-29183224D01*
X75117788Y-29183224D01*
X75122374Y-29184095D01*
X75252958Y-29189226D01*
X75378875Y-29194174D01*
X75378881Y-29194174D01*
X75383543Y-29194357D01*
X75472486Y-29184616D01*
X75638707Y-29166412D01*
X75638712Y-29166411D01*
X75643360Y-29165902D01*
X75647884Y-29164711D01*
X75891594Y-29100548D01*
X75891596Y-29100547D01*
X75896117Y-29099357D01*
X75911149Y-29092899D01*
X76055454Y-29030900D01*
X76136262Y-28996182D01*
X76142649Y-28992230D01*
X76354547Y-28861104D01*
X76354548Y-28861104D01*
X76358519Y-28858646D01*
X76362082Y-28855629D01*
X76362087Y-28855626D01*
X76554439Y-28692787D01*
X76554440Y-28692786D01*
X76558005Y-28689768D01*
X76603657Y-28637712D01*
X76727257Y-28496774D01*
X76727261Y-28496769D01*
X76730339Y-28493259D01*
X76871733Y-28273437D01*
X76979083Y-28035129D01*
X77050030Y-27783572D01*
X77066832Y-27651496D01*
X77082616Y-27527421D01*
X77082616Y-27527417D01*
X77083014Y-27524291D01*
X77085431Y-27432000D01*
X77066061Y-27171348D01*
X77054725Y-27121248D01*
X77009408Y-26920980D01*
X77008377Y-26916423D01*
X76931864Y-26719669D01*
X76915340Y-26677176D01*
X76915339Y-26677173D01*
X76913647Y-26672823D01*
X76783951Y-26445902D01*
X76731299Y-26379113D01*
X76697001Y-26335606D01*
X76670536Y-26269726D01*
X76683889Y-26199997D01*
X76732821Y-26148556D01*
X76795951Y-26131600D01*
X77033506Y-26131600D01*
X77101627Y-26151602D01*
X77122601Y-26168505D01*
X77613952Y-26659856D01*
X77647978Y-26722168D01*
X77641055Y-26797674D01*
X77609697Y-26872455D01*
X77545359Y-27125783D01*
X77519173Y-27385839D01*
X77531713Y-27646908D01*
X77582704Y-27903256D01*
X77671026Y-28149252D01*
X77673242Y-28153376D01*
X77784092Y-28359679D01*
X77794737Y-28379491D01*
X77797532Y-28383234D01*
X77797534Y-28383237D01*
X77948330Y-28585177D01*
X77948335Y-28585183D01*
X77951122Y-28588915D01*
X77954431Y-28592195D01*
X77954436Y-28592201D01*
X78133426Y-28769635D01*
X78136743Y-28772923D01*
X78140505Y-28775681D01*
X78140508Y-28775684D01*
X78343750Y-28924707D01*
X78347524Y-28927474D01*
X78351667Y-28929654D01*
X78351669Y-28929655D01*
X78574684Y-29046989D01*
X78574689Y-29046991D01*
X78578834Y-29049172D01*
X78825590Y-29135344D01*
X78830183Y-29136216D01*
X79077785Y-29183224D01*
X79077788Y-29183224D01*
X79082374Y-29184095D01*
X79212958Y-29189226D01*
X79338875Y-29194174D01*
X79338881Y-29194174D01*
X79343543Y-29194357D01*
X79432486Y-29184616D01*
X79598707Y-29166412D01*
X79598712Y-29166411D01*
X79603360Y-29165902D01*
X79607884Y-29164711D01*
X79851594Y-29100548D01*
X79851596Y-29100547D01*
X79856117Y-29099357D01*
X79871149Y-29092899D01*
X80015454Y-29030900D01*
X80096262Y-28996182D01*
X80102649Y-28992230D01*
X80314547Y-28861104D01*
X80314548Y-28861104D01*
X80318519Y-28858646D01*
X80322082Y-28855629D01*
X80322087Y-28855626D01*
X80514439Y-28692787D01*
X80514440Y-28692786D01*
X80518005Y-28689768D01*
X80563657Y-28637712D01*
X80687257Y-28496774D01*
X80687261Y-28496769D01*
X80690339Y-28493259D01*
X80831733Y-28273437D01*
X80939083Y-28035129D01*
X81010030Y-27783572D01*
X81026832Y-27651496D01*
X81042616Y-27527421D01*
X81042616Y-27527417D01*
X81043014Y-27524291D01*
X81045431Y-27432000D01*
X81042001Y-27385839D01*
X81479173Y-27385839D01*
X81491713Y-27646908D01*
X81542704Y-27903256D01*
X81631026Y-28149252D01*
X81633242Y-28153376D01*
X81744092Y-28359679D01*
X81754737Y-28379491D01*
X81757532Y-28383234D01*
X81757534Y-28383237D01*
X81908330Y-28585177D01*
X81908335Y-28585183D01*
X81911122Y-28588915D01*
X81914431Y-28592195D01*
X81914436Y-28592201D01*
X82093426Y-28769635D01*
X82096743Y-28772923D01*
X82100505Y-28775681D01*
X82100508Y-28775684D01*
X82303750Y-28924707D01*
X82307524Y-28927474D01*
X82311667Y-28929654D01*
X82311669Y-28929655D01*
X82534684Y-29046989D01*
X82534689Y-29046991D01*
X82538834Y-29049172D01*
X82785590Y-29135344D01*
X82790183Y-29136216D01*
X83037785Y-29183224D01*
X83037788Y-29183224D01*
X83042374Y-29184095D01*
X83172958Y-29189226D01*
X83298875Y-29194174D01*
X83298881Y-29194174D01*
X83303543Y-29194357D01*
X83392486Y-29184616D01*
X83558707Y-29166412D01*
X83558712Y-29166411D01*
X83563360Y-29165902D01*
X83567884Y-29164711D01*
X83811594Y-29100548D01*
X83811596Y-29100547D01*
X83816117Y-29099357D01*
X83831149Y-29092899D01*
X83975454Y-29030900D01*
X84056262Y-28996182D01*
X84062649Y-28992230D01*
X84274547Y-28861104D01*
X84274548Y-28861104D01*
X84278519Y-28858646D01*
X84282082Y-28855629D01*
X84282087Y-28855626D01*
X84474439Y-28692787D01*
X84474440Y-28692786D01*
X84478005Y-28689768D01*
X84523657Y-28637712D01*
X84647257Y-28496774D01*
X84647261Y-28496769D01*
X84650339Y-28493259D01*
X84791733Y-28273437D01*
X84899083Y-28035129D01*
X84970030Y-27783572D01*
X84986832Y-27651496D01*
X85002616Y-27527421D01*
X85002616Y-27527417D01*
X85003014Y-27524291D01*
X85005431Y-27432000D01*
X84986061Y-27171348D01*
X84974725Y-27121248D01*
X84929408Y-26920980D01*
X84928377Y-26916423D01*
X84851864Y-26719669D01*
X84835340Y-26677176D01*
X84835339Y-26677173D01*
X84833647Y-26672823D01*
X84703951Y-26445902D01*
X84542138Y-26240643D01*
X84351763Y-26061557D01*
X84155920Y-25925695D01*
X84140851Y-25915241D01*
X84140848Y-25915239D01*
X84137009Y-25912576D01*
X84111250Y-25899873D01*
X83906781Y-25799040D01*
X83906778Y-25799039D01*
X83902593Y-25796975D01*
X83856455Y-25782206D01*
X83658123Y-25718720D01*
X83653665Y-25717293D01*
X83395693Y-25675279D01*
X83281942Y-25673790D01*
X83139022Y-25671919D01*
X83139019Y-25671919D01*
X83134345Y-25671858D01*
X82875362Y-25707104D01*
X82870876Y-25708412D01*
X82870874Y-25708412D01*
X82842988Y-25716540D01*
X82624433Y-25780243D01*
X82620180Y-25782203D01*
X82620179Y-25782204D01*
X82587073Y-25797466D01*
X82387072Y-25889668D01*
X82348067Y-25915241D01*
X82172404Y-26030410D01*
X82172399Y-26030414D01*
X82168491Y-26032976D01*
X81973494Y-26207018D01*
X81806363Y-26407970D01*
X81803934Y-26411973D01*
X81674058Y-26626003D01*
X81670771Y-26631419D01*
X81569697Y-26872455D01*
X81505359Y-27125783D01*
X81479173Y-27385839D01*
X81042001Y-27385839D01*
X81026061Y-27171348D01*
X81014725Y-27121248D01*
X80969408Y-26920980D01*
X80968377Y-26916423D01*
X80891864Y-26719669D01*
X80875340Y-26677176D01*
X80875339Y-26677173D01*
X80873647Y-26672823D01*
X80743951Y-26445902D01*
X80582138Y-26240643D01*
X80391763Y-26061557D01*
X80195920Y-25925695D01*
X80180851Y-25915241D01*
X80180848Y-25915239D01*
X80177009Y-25912576D01*
X80151250Y-25899873D01*
X79946781Y-25799040D01*
X79946778Y-25799039D01*
X79942593Y-25796975D01*
X79896455Y-25782206D01*
X79698123Y-25718720D01*
X79693665Y-25717293D01*
X79435693Y-25675279D01*
X79321942Y-25673790D01*
X79179022Y-25671919D01*
X79179019Y-25671919D01*
X79174345Y-25671858D01*
X78915362Y-25707104D01*
X78910876Y-25708412D01*
X78910874Y-25708412D01*
X78882988Y-25716540D01*
X78664433Y-25780243D01*
X78660186Y-25782201D01*
X78660173Y-25782206D01*
X78649529Y-25787113D01*
X78579292Y-25797466D01*
X78514607Y-25768202D01*
X78507685Y-25761781D01*
X78206484Y-25460579D01*
X77851747Y-25105842D01*
X77844213Y-25097563D01*
X77840100Y-25091082D01*
X77790448Y-25044456D01*
X77787607Y-25041702D01*
X77767870Y-25021965D01*
X77764673Y-25019485D01*
X77755651Y-25011780D01*
X77729200Y-24986941D01*
X77723421Y-24981514D01*
X77716475Y-24977695D01*
X77716472Y-24977693D01*
X77705666Y-24971752D01*
X77689147Y-24960901D01*
X77688683Y-24960541D01*
X77673141Y-24948486D01*
X77665872Y-24945341D01*
X77665868Y-24945338D01*
X77632563Y-24930926D01*
X77621913Y-24925709D01*
X77583160Y-24904405D01*
X77563537Y-24899367D01*
X77544834Y-24892963D01*
X77533520Y-24888067D01*
X77533519Y-24888067D01*
X77526245Y-24884919D01*
X77518422Y-24883680D01*
X77518412Y-24883677D01*
X77482576Y-24878001D01*
X77470956Y-24875595D01*
X77435811Y-24866572D01*
X77435810Y-24866572D01*
X77428130Y-24864600D01*
X77407876Y-24864600D01*
X77388165Y-24863049D01*
X77375986Y-24861120D01*
X77368157Y-24859880D01*
X77360265Y-24860626D01*
X77324139Y-24864041D01*
X77312281Y-24864600D01*
X69312694Y-24864600D01*
X69244573Y-24844598D01*
X69223599Y-24827695D01*
X68613516Y-24217612D01*
X68579490Y-24155300D01*
X68584555Y-24084485D01*
X68627102Y-24027649D01*
X68669999Y-24006810D01*
X68815936Y-23967706D01*
X68821243Y-23966284D01*
X68827235Y-23963490D01*
X69023762Y-23871849D01*
X69023767Y-23871846D01*
X69028749Y-23869523D01*
X69153100Y-23782451D01*
X69211789Y-23741357D01*
X69211792Y-23741355D01*
X69216300Y-23738198D01*
X69378198Y-23576300D01*
X69509523Y-23388749D01*
X69511846Y-23383767D01*
X69511849Y-23383762D01*
X69527805Y-23349543D01*
X69574722Y-23296258D01*
X69642999Y-23276797D01*
X69710959Y-23297339D01*
X69756195Y-23349543D01*
X69772151Y-23383762D01*
X69772154Y-23383767D01*
X69774477Y-23388749D01*
X69905802Y-23576300D01*
X70067700Y-23738198D01*
X70072208Y-23741355D01*
X70072211Y-23741357D01*
X70130900Y-23782451D01*
X70255251Y-23869523D01*
X70260233Y-23871846D01*
X70260238Y-23871849D01*
X70456765Y-23963490D01*
X70462757Y-23966284D01*
X70468065Y-23967706D01*
X70468067Y-23967707D01*
X70678598Y-24024119D01*
X70678600Y-24024119D01*
X70683913Y-24025543D01*
X70912000Y-24045498D01*
X71140087Y-24025543D01*
X71145400Y-24024119D01*
X71145402Y-24024119D01*
X71355933Y-23967707D01*
X71355935Y-23967706D01*
X71361243Y-23966284D01*
X71367235Y-23963490D01*
X71563762Y-23871849D01*
X71563767Y-23871846D01*
X71568749Y-23869523D01*
X71693100Y-23782451D01*
X71751789Y-23741357D01*
X71751792Y-23741355D01*
X71756300Y-23738198D01*
X71918198Y-23576300D01*
X72049523Y-23388749D01*
X72051846Y-23383767D01*
X72051849Y-23383762D01*
X72067805Y-23349543D01*
X72114722Y-23296258D01*
X72182999Y-23276797D01*
X72250959Y-23297339D01*
X72296195Y-23349543D01*
X72312151Y-23383762D01*
X72312154Y-23383767D01*
X72314477Y-23388749D01*
X72445802Y-23576300D01*
X72607700Y-23738198D01*
X72612208Y-23741355D01*
X72612211Y-23741357D01*
X72670900Y-23782451D01*
X72795251Y-23869523D01*
X72800233Y-23871846D01*
X72800238Y-23871849D01*
X72996765Y-23963490D01*
X73002757Y-23966284D01*
X73008065Y-23967706D01*
X73008067Y-23967707D01*
X73218598Y-24024119D01*
X73218600Y-24024119D01*
X73223913Y-24025543D01*
X73452000Y-24045498D01*
X73680087Y-24025543D01*
X73685400Y-24024119D01*
X73685402Y-24024119D01*
X73895933Y-23967707D01*
X73895935Y-23967706D01*
X73901243Y-23966284D01*
X73907235Y-23963490D01*
X74103762Y-23871849D01*
X74103767Y-23871846D01*
X74108749Y-23869523D01*
X74233100Y-23782451D01*
X74291789Y-23741357D01*
X74291792Y-23741355D01*
X74296300Y-23738198D01*
X74458198Y-23576300D01*
X74589523Y-23388749D01*
X74591846Y-23383767D01*
X74591849Y-23383762D01*
X74607805Y-23349543D01*
X74654722Y-23296258D01*
X74722999Y-23276797D01*
X74790959Y-23297339D01*
X74836195Y-23349543D01*
X74852151Y-23383762D01*
X74852154Y-23383767D01*
X74854477Y-23388749D01*
X74985802Y-23576300D01*
X75147700Y-23738198D01*
X75152208Y-23741355D01*
X75152211Y-23741357D01*
X75210900Y-23782451D01*
X75335251Y-23869523D01*
X75340233Y-23871846D01*
X75340238Y-23871849D01*
X75536765Y-23963490D01*
X75542757Y-23966284D01*
X75548065Y-23967706D01*
X75548067Y-23967707D01*
X75758598Y-24024119D01*
X75758600Y-24024119D01*
X75763913Y-24025543D01*
X75992000Y-24045498D01*
X76220087Y-24025543D01*
X76225400Y-24024119D01*
X76225402Y-24024119D01*
X76435933Y-23967707D01*
X76435935Y-23967706D01*
X76441243Y-23966284D01*
X76447235Y-23963490D01*
X76643762Y-23871849D01*
X76643767Y-23871846D01*
X76648749Y-23869523D01*
X76773100Y-23782451D01*
X76831789Y-23741357D01*
X76831792Y-23741355D01*
X76836300Y-23738198D01*
X76998198Y-23576300D01*
X77129523Y-23388749D01*
X77131846Y-23383767D01*
X77131849Y-23383762D01*
X77147805Y-23349543D01*
X77194722Y-23296258D01*
X77262999Y-23276797D01*
X77330959Y-23297339D01*
X77376195Y-23349543D01*
X77392151Y-23383762D01*
X77392154Y-23383767D01*
X77394477Y-23388749D01*
X77525802Y-23576300D01*
X77687700Y-23738198D01*
X77692208Y-23741355D01*
X77692211Y-23741357D01*
X77750900Y-23782451D01*
X77875251Y-23869523D01*
X77880233Y-23871846D01*
X77880238Y-23871849D01*
X78076765Y-23963490D01*
X78082757Y-23966284D01*
X78088065Y-23967706D01*
X78088067Y-23967707D01*
X78298598Y-24024119D01*
X78298600Y-24024119D01*
X78303913Y-24025543D01*
X78532000Y-24045498D01*
X78760087Y-24025543D01*
X78765400Y-24024119D01*
X78765402Y-24024119D01*
X78975933Y-23967707D01*
X78975935Y-23967706D01*
X78981243Y-23966284D01*
X78987235Y-23963490D01*
X79183762Y-23871849D01*
X79183767Y-23871846D01*
X79188749Y-23869523D01*
X79313100Y-23782451D01*
X79371789Y-23741357D01*
X79371792Y-23741355D01*
X79376300Y-23738198D01*
X79538198Y-23576300D01*
X79669523Y-23388749D01*
X79671846Y-23383767D01*
X79671849Y-23383762D01*
X79763961Y-23186225D01*
X79763961Y-23186224D01*
X79766284Y-23181243D01*
X79825543Y-22960087D01*
X79840500Y-22789127D01*
X79840500Y-21874873D01*
X79837148Y-21836552D01*
X79826022Y-21709393D01*
X79825543Y-21703913D01*
X79766284Y-21482757D01*
X79760045Y-21469377D01*
X79671849Y-21280238D01*
X79671846Y-21280233D01*
X79669523Y-21275251D01*
X79538198Y-21087700D01*
X79376300Y-20925802D01*
X79371792Y-20922645D01*
X79371789Y-20922643D01*
X79216589Y-20813971D01*
X79188749Y-20794477D01*
X79183767Y-20792154D01*
X79183762Y-20792151D01*
X78986225Y-20700039D01*
X78986224Y-20700039D01*
X78981243Y-20697716D01*
X78975935Y-20696294D01*
X78975933Y-20696293D01*
X78765402Y-20639881D01*
X78765400Y-20639881D01*
X78760087Y-20638457D01*
X78532000Y-20618502D01*
X78303913Y-20638457D01*
X78298600Y-20639881D01*
X78298598Y-20639881D01*
X78088067Y-20696293D01*
X78088065Y-20696294D01*
X78082757Y-20697716D01*
X78077776Y-20700039D01*
X78077775Y-20700039D01*
X77880238Y-20792151D01*
X77880233Y-20792154D01*
X77875251Y-20794477D01*
X77847411Y-20813971D01*
X77692211Y-20922643D01*
X77692208Y-20922645D01*
X77687700Y-20925802D01*
X77525802Y-21087700D01*
X77394477Y-21275251D01*
X77392154Y-21280233D01*
X77392151Y-21280238D01*
X77376195Y-21314457D01*
X77329278Y-21367742D01*
X77261001Y-21387203D01*
X77193041Y-21366661D01*
X77147805Y-21314457D01*
X77131849Y-21280238D01*
X77131846Y-21280233D01*
X77129523Y-21275251D01*
X76998198Y-21087700D01*
X76836300Y-20925802D01*
X76831792Y-20922645D01*
X76831789Y-20922643D01*
X76676589Y-20813971D01*
X76648749Y-20794477D01*
X76643767Y-20792154D01*
X76643762Y-20792151D01*
X76446225Y-20700039D01*
X76446224Y-20700039D01*
X76441243Y-20697716D01*
X76435935Y-20696294D01*
X76435933Y-20696293D01*
X76225402Y-20639881D01*
X76225400Y-20639881D01*
X76220087Y-20638457D01*
X75992000Y-20618502D01*
X75763913Y-20638457D01*
X75758600Y-20639881D01*
X75758598Y-20639881D01*
X75548067Y-20696293D01*
X75548065Y-20696294D01*
X75542757Y-20697716D01*
X75537776Y-20700039D01*
X75537775Y-20700039D01*
X75340238Y-20792151D01*
X75340233Y-20792154D01*
X75335251Y-20794477D01*
X75307411Y-20813971D01*
X75152211Y-20922643D01*
X75152208Y-20922645D01*
X75147700Y-20925802D01*
X74985802Y-21087700D01*
X74854477Y-21275251D01*
X74852154Y-21280233D01*
X74852151Y-21280238D01*
X74836195Y-21314457D01*
X74789278Y-21367742D01*
X74721001Y-21387203D01*
X74653041Y-21366661D01*
X74607805Y-21314457D01*
X74591849Y-21280238D01*
X74591846Y-21280233D01*
X74589523Y-21275251D01*
X74458198Y-21087700D01*
X74296300Y-20925802D01*
X74291792Y-20922645D01*
X74291789Y-20922643D01*
X74136590Y-20813971D01*
X74092262Y-20758514D01*
X74084581Y-20722498D01*
X74084163Y-20722564D01*
X74082923Y-20714736D01*
X74082674Y-20706811D01*
X74080462Y-20699197D01*
X74080461Y-20699192D01*
X74077023Y-20687359D01*
X74073012Y-20667995D01*
X74071467Y-20655764D01*
X74070474Y-20647903D01*
X74067557Y-20640536D01*
X74067556Y-20640531D01*
X74054198Y-20606792D01*
X74050354Y-20595565D01*
X74048232Y-20588261D01*
X74038018Y-20553107D01*
X74027707Y-20535672D01*
X74019012Y-20517924D01*
X74011552Y-20499083D01*
X73985564Y-20463313D01*
X73979048Y-20453393D01*
X73960580Y-20422165D01*
X73960578Y-20422162D01*
X73956542Y-20415338D01*
X73942221Y-20401017D01*
X73929380Y-20385983D01*
X73922131Y-20376006D01*
X73917472Y-20369593D01*
X73911367Y-20364542D01*
X73911362Y-20364537D01*
X73883396Y-20341401D01*
X73874618Y-20333413D01*
X73018452Y-19477247D01*
X73010912Y-19468961D01*
X73006800Y-19462482D01*
X72957148Y-19415856D01*
X72954307Y-19413102D01*
X72934570Y-19393365D01*
X72931373Y-19390885D01*
X72922351Y-19383180D01*
X72908916Y-19370564D01*
X72890121Y-19352914D01*
X72883175Y-19349095D01*
X72883172Y-19349093D01*
X72872366Y-19343152D01*
X72855847Y-19332301D01*
X72855383Y-19331941D01*
X72839841Y-19319886D01*
X72832572Y-19316741D01*
X72832568Y-19316738D01*
X72799263Y-19302326D01*
X72788613Y-19297109D01*
X72749860Y-19275805D01*
X72730237Y-19270767D01*
X72711534Y-19264363D01*
X72700220Y-19259467D01*
X72700219Y-19259467D01*
X72692945Y-19256319D01*
X72685122Y-19255080D01*
X72685112Y-19255077D01*
X72649276Y-19249401D01*
X72637656Y-19246995D01*
X72602511Y-19237972D01*
X72602510Y-19237972D01*
X72594830Y-19236000D01*
X72574576Y-19236000D01*
X72554865Y-19234449D01*
X72552334Y-19234048D01*
X72534857Y-19231280D01*
X72526965Y-19232026D01*
X72490839Y-19235441D01*
X72478981Y-19236000D01*
X48601263Y-19236000D01*
X48590079Y-19235473D01*
X48582591Y-19233799D01*
X48574668Y-19234048D01*
X48514533Y-19235938D01*
X48510575Y-19236000D01*
X48482644Y-19236000D01*
X48478729Y-19236495D01*
X48478725Y-19236495D01*
X48478667Y-19236503D01*
X48478638Y-19236506D01*
X48466796Y-19237439D01*
X48422610Y-19238827D01*
X48405244Y-19243872D01*
X48403158Y-19244478D01*
X48383806Y-19248486D01*
X48371568Y-19250032D01*
X48371566Y-19250033D01*
X48363703Y-19251026D01*
X48322586Y-19267306D01*
X48311385Y-19271141D01*
X48268906Y-19283482D01*
X48262087Y-19287515D01*
X48262082Y-19287517D01*
X48251471Y-19293793D01*
X48233721Y-19302490D01*
X48214883Y-19309948D01*
X48208467Y-19314609D01*
X48208466Y-19314610D01*
X48179125Y-19335928D01*
X48169201Y-19342447D01*
X48137960Y-19360922D01*
X48137955Y-19360926D01*
X48131137Y-19364958D01*
X48116813Y-19379282D01*
X48101781Y-19392121D01*
X48085393Y-19404028D01*
X48057212Y-19438093D01*
X48049222Y-19446873D01*
X46552390Y-20943705D01*
X46490080Y-20977729D01*
X46419265Y-20972665D01*
X46374202Y-20943704D01*
X46356300Y-20925802D01*
X46351792Y-20922645D01*
X46351789Y-20922643D01*
X46196589Y-20813971D01*
X46168749Y-20794477D01*
X46163767Y-20792154D01*
X46163762Y-20792151D01*
X45966225Y-20700039D01*
X45966224Y-20700039D01*
X45961243Y-20697716D01*
X45955935Y-20696294D01*
X45955933Y-20696293D01*
X45745402Y-20639881D01*
X45745400Y-20639881D01*
X45740087Y-20638457D01*
X45512000Y-20618502D01*
X45283913Y-20638457D01*
X45278600Y-20639881D01*
X45278598Y-20639881D01*
X45068067Y-20696293D01*
X45068065Y-20696294D01*
X45062757Y-20697716D01*
X45057776Y-20700039D01*
X45057775Y-20700039D01*
X44860238Y-20792151D01*
X44860233Y-20792154D01*
X44855251Y-20794477D01*
X44827411Y-20813971D01*
X44672211Y-20922643D01*
X44672208Y-20922645D01*
X44667700Y-20925802D01*
X44505802Y-21087700D01*
X44374477Y-21275251D01*
X44372154Y-21280233D01*
X44372151Y-21280238D01*
X44356195Y-21314457D01*
X44309278Y-21367742D01*
X44241001Y-21387203D01*
X44173041Y-21366661D01*
X44127805Y-21314457D01*
X44111849Y-21280238D01*
X44111846Y-21280233D01*
X44109523Y-21275251D01*
X43978198Y-21087700D01*
X43816300Y-20925802D01*
X43811792Y-20922645D01*
X43811789Y-20922643D01*
X43656589Y-20813971D01*
X43628749Y-20794477D01*
X43623767Y-20792154D01*
X43623762Y-20792151D01*
X43426225Y-20700039D01*
X43426224Y-20700039D01*
X43421243Y-20697716D01*
X43415935Y-20696294D01*
X43415933Y-20696293D01*
X43205402Y-20639881D01*
X43205400Y-20639881D01*
X43200087Y-20638457D01*
X42972000Y-20618502D01*
X42743913Y-20638457D01*
X42738600Y-20639881D01*
X42738598Y-20639881D01*
X42528067Y-20696293D01*
X42528065Y-20696294D01*
X42522757Y-20697716D01*
X42517776Y-20700039D01*
X42517775Y-20700039D01*
X42320238Y-20792151D01*
X42320233Y-20792154D01*
X42315251Y-20794477D01*
X42287411Y-20813971D01*
X42132211Y-20922643D01*
X42132208Y-20922645D01*
X42127700Y-20925802D01*
X41965802Y-21087700D01*
X41834477Y-21275251D01*
X41832154Y-21280233D01*
X41832151Y-21280238D01*
X41815919Y-21315049D01*
X41769002Y-21368334D01*
X41700725Y-21387795D01*
X41632765Y-21367253D01*
X41587529Y-21315049D01*
X41571414Y-21280489D01*
X41565931Y-21270993D01*
X41440972Y-21092533D01*
X41433916Y-21084125D01*
X41279875Y-20930084D01*
X41271467Y-20923028D01*
X41093007Y-20798069D01*
X41083511Y-20792586D01*
X40886053Y-20700510D01*
X40875761Y-20696764D01*
X40703497Y-20650606D01*
X40689401Y-20650942D01*
X40686000Y-20658884D01*
X40686000Y-23999967D01*
X40689973Y-24013498D01*
X40698522Y-24014727D01*
X40875761Y-23967236D01*
X40886053Y-23963490D01*
X41083511Y-23871414D01*
X41093007Y-23865931D01*
X41271467Y-23740972D01*
X41279875Y-23733916D01*
X41433916Y-23579875D01*
X41440972Y-23571467D01*
X41565931Y-23393007D01*
X41571414Y-23383511D01*
X41587529Y-23348951D01*
X41634446Y-23295666D01*
X41702723Y-23276205D01*
X41770683Y-23296747D01*
X41815919Y-23348951D01*
X41832151Y-23383762D01*
X41832154Y-23383767D01*
X41834477Y-23388749D01*
X41965802Y-23576300D01*
X42127700Y-23738198D01*
X42132208Y-23741355D01*
X42132211Y-23741357D01*
X42190900Y-23782451D01*
X42315251Y-23869523D01*
X42320233Y-23871846D01*
X42320238Y-23871849D01*
X42516765Y-23963490D01*
X42522757Y-23966284D01*
X42528065Y-23967706D01*
X42528067Y-23967707D01*
X42738598Y-24024119D01*
X42738600Y-24024119D01*
X42743913Y-24025543D01*
X42972000Y-24045498D01*
X43200087Y-24025543D01*
X43205400Y-24024119D01*
X43205402Y-24024119D01*
X43415933Y-23967707D01*
X43415935Y-23967706D01*
X43421243Y-23966284D01*
X43427235Y-23963490D01*
X43623762Y-23871849D01*
X43623767Y-23871846D01*
X43628749Y-23869523D01*
X43753100Y-23782451D01*
X43811789Y-23741357D01*
X43811792Y-23741355D01*
X43816300Y-23738198D01*
X43978198Y-23576300D01*
X44109523Y-23388749D01*
X44111846Y-23383767D01*
X44111849Y-23383762D01*
X44127805Y-23349543D01*
X44174722Y-23296258D01*
X44242999Y-23276797D01*
X44310959Y-23297339D01*
X44356195Y-23349543D01*
X44372151Y-23383762D01*
X44372154Y-23383767D01*
X44374477Y-23388749D01*
X44505802Y-23576300D01*
X44667700Y-23738198D01*
X44672208Y-23741355D01*
X44672211Y-23741357D01*
X44730900Y-23782451D01*
X44855251Y-23869523D01*
X44860233Y-23871846D01*
X44860238Y-23871849D01*
X45056765Y-23963490D01*
X45062757Y-23966284D01*
X45068065Y-23967706D01*
X45068067Y-23967707D01*
X45278598Y-24024119D01*
X45278600Y-24024119D01*
X45283913Y-24025543D01*
X45512000Y-24045498D01*
X45740087Y-24025543D01*
X45745400Y-24024119D01*
X45745402Y-24024119D01*
X45955933Y-23967707D01*
X45955935Y-23967706D01*
X45961243Y-23966284D01*
X45966225Y-23963961D01*
X45966230Y-23963959D01*
X46081226Y-23910336D01*
X46151417Y-23899675D01*
X46216230Y-23928655D01*
X46255086Y-23988075D01*
X46255649Y-24059070D01*
X46223570Y-24113626D01*
X45693612Y-24643583D01*
X45229747Y-25107448D01*
X45221461Y-25114988D01*
X45214982Y-25119100D01*
X45209557Y-25124877D01*
X45168357Y-25168751D01*
X45165602Y-25171593D01*
X45145865Y-25191330D01*
X45143385Y-25194527D01*
X45135682Y-25203547D01*
X45105414Y-25235779D01*
X45101595Y-25242725D01*
X45101593Y-25242728D01*
X45095652Y-25253534D01*
X45084801Y-25270053D01*
X45072386Y-25286059D01*
X45069241Y-25293328D01*
X45069238Y-25293332D01*
X45054826Y-25326637D01*
X45049609Y-25337287D01*
X45028305Y-25376040D01*
X45026334Y-25383715D01*
X45026334Y-25383716D01*
X45023267Y-25395662D01*
X45016863Y-25414366D01*
X45016391Y-25415458D01*
X45008819Y-25432955D01*
X45007580Y-25440778D01*
X45007577Y-25440788D01*
X45001901Y-25476624D01*
X44999495Y-25488244D01*
X44994505Y-25507680D01*
X44988500Y-25531070D01*
X44988500Y-25551324D01*
X44986949Y-25571034D01*
X44983780Y-25591043D01*
X44987039Y-25625514D01*
X44987941Y-25635061D01*
X44988500Y-25646919D01*
X44988500Y-25992739D01*
X44968498Y-26060860D01*
X44914842Y-26107353D01*
X44844568Y-26117457D01*
X44776167Y-26084514D01*
X44755171Y-26064763D01*
X44751763Y-26061557D01*
X44555920Y-25925695D01*
X44540851Y-25915241D01*
X44540848Y-25915239D01*
X44537009Y-25912576D01*
X44511250Y-25899873D01*
X44306781Y-25799040D01*
X44306778Y-25799039D01*
X44302593Y-25796975D01*
X44256455Y-25782206D01*
X44058123Y-25718720D01*
X44053665Y-25717293D01*
X43795693Y-25675279D01*
X43681942Y-25673790D01*
X43539022Y-25671919D01*
X43539019Y-25671919D01*
X43534345Y-25671858D01*
X43275362Y-25707104D01*
X43270876Y-25708412D01*
X43270874Y-25708412D01*
X43242988Y-25716540D01*
X43024433Y-25780243D01*
X43020180Y-25782203D01*
X43020179Y-25782204D01*
X42987073Y-25797466D01*
X42787072Y-25889668D01*
X42748067Y-25915241D01*
X42572404Y-26030410D01*
X42572399Y-26030414D01*
X42568491Y-26032976D01*
X42373494Y-26207018D01*
X42206363Y-26407970D01*
X42203934Y-26411973D01*
X42074058Y-26626003D01*
X42070771Y-26631419D01*
X41969697Y-26872455D01*
X41905359Y-27125783D01*
X41879173Y-27385839D01*
X41891713Y-27646908D01*
X41942704Y-27903256D01*
X42031026Y-28149252D01*
X42033242Y-28153376D01*
X42144092Y-28359679D01*
X42154737Y-28379491D01*
X42157532Y-28383234D01*
X42157534Y-28383237D01*
X42308330Y-28585177D01*
X42308335Y-28585183D01*
X42311122Y-28588915D01*
X42314431Y-28592195D01*
X42314436Y-28592201D01*
X42493426Y-28769635D01*
X42496743Y-28772923D01*
X42500505Y-28775681D01*
X42500508Y-28775684D01*
X42703750Y-28924707D01*
X42707524Y-28927474D01*
X42711667Y-28929654D01*
X42711669Y-28929655D01*
X42934684Y-29046989D01*
X42934689Y-29046991D01*
X42938834Y-29049172D01*
X43185590Y-29135344D01*
X43190183Y-29136216D01*
X43437785Y-29183224D01*
X43437788Y-29183224D01*
X43442374Y-29184095D01*
X43572958Y-29189226D01*
X43698875Y-29194174D01*
X43698881Y-29194174D01*
X43703543Y-29194357D01*
X43792486Y-29184616D01*
X43958707Y-29166412D01*
X43958712Y-29166411D01*
X43963360Y-29165902D01*
X43967884Y-29164711D01*
X44211594Y-29100548D01*
X44211596Y-29100547D01*
X44216117Y-29099357D01*
X44231149Y-29092899D01*
X44375454Y-29030900D01*
X44456262Y-28996182D01*
X44462649Y-28992230D01*
X44674547Y-28861104D01*
X44674548Y-28861104D01*
X44678519Y-28858646D01*
X44682082Y-28855629D01*
X44682087Y-28855626D01*
X44781088Y-28771815D01*
X44846004Y-28743066D01*
X44916157Y-28753978D01*
X44969275Y-28801085D01*
X44988500Y-28867982D01*
X44988500Y-30217406D01*
X44968498Y-30285527D01*
X44951595Y-30306501D01*
X44416410Y-30841686D01*
X44354098Y-30875712D01*
X44288904Y-30872593D01*
X44053665Y-30797293D01*
X43795693Y-30755279D01*
X43681942Y-30753790D01*
X43539022Y-30751919D01*
X43539019Y-30751919D01*
X43534345Y-30751858D01*
X43275362Y-30787104D01*
X43024433Y-30860243D01*
X43020180Y-30862203D01*
X43020179Y-30862204D01*
X42979661Y-30880883D01*
X42787072Y-30969668D01*
X42748067Y-30995241D01*
X42572404Y-31110410D01*
X42572399Y-31110414D01*
X42568491Y-31112976D01*
X42373494Y-31287018D01*
X42206363Y-31487970D01*
X42152859Y-31576143D01*
X42145356Y-31588507D01*
X42092917Y-31636368D01*
X42022927Y-31648280D01*
X41957607Y-31620462D01*
X41948542Y-31612237D01*
X39737423Y-29401118D01*
X39703397Y-29338806D01*
X39708462Y-29267991D01*
X39751009Y-29211155D01*
X39812801Y-29186772D01*
X39998707Y-29166412D01*
X39998712Y-29166411D01*
X40003360Y-29165902D01*
X40007884Y-29164711D01*
X40251594Y-29100548D01*
X40251596Y-29100547D01*
X40256117Y-29099357D01*
X40271149Y-29092899D01*
X40415454Y-29030900D01*
X40496262Y-28996182D01*
X40502649Y-28992230D01*
X40714547Y-28861104D01*
X40714548Y-28861104D01*
X40718519Y-28858646D01*
X40722082Y-28855629D01*
X40722087Y-28855626D01*
X40914439Y-28692787D01*
X40914440Y-28692786D01*
X40918005Y-28689768D01*
X40963657Y-28637712D01*
X41087257Y-28496774D01*
X41087261Y-28496769D01*
X41090339Y-28493259D01*
X41231733Y-28273437D01*
X41339083Y-28035129D01*
X41410030Y-27783572D01*
X41426832Y-27651496D01*
X41442616Y-27527421D01*
X41442616Y-27527417D01*
X41443014Y-27524291D01*
X41445431Y-27432000D01*
X41426061Y-27171348D01*
X41414725Y-27121248D01*
X41369408Y-26920980D01*
X41368377Y-26916423D01*
X41291864Y-26719669D01*
X41275340Y-26677176D01*
X41275339Y-26677173D01*
X41273647Y-26672823D01*
X41143951Y-26445902D01*
X40982138Y-26240643D01*
X40791763Y-26061557D01*
X40595920Y-25925695D01*
X40580851Y-25915241D01*
X40580848Y-25915239D01*
X40577009Y-25912576D01*
X40551250Y-25899873D01*
X40346781Y-25799040D01*
X40346778Y-25799039D01*
X40342593Y-25796975D01*
X40296455Y-25782206D01*
X40098123Y-25718720D01*
X40093665Y-25717293D01*
X39835693Y-25675279D01*
X39721942Y-25673790D01*
X39579022Y-25671919D01*
X39579019Y-25671919D01*
X39574345Y-25671858D01*
X39315362Y-25707104D01*
X39310876Y-25708412D01*
X39310874Y-25708412D01*
X39282988Y-25716540D01*
X39064433Y-25780243D01*
X39060180Y-25782203D01*
X39060179Y-25782204D01*
X39027073Y-25797466D01*
X38827072Y-25889668D01*
X38788067Y-25915241D01*
X38612404Y-26030410D01*
X38612399Y-26030414D01*
X38608491Y-26032976D01*
X38413494Y-26207018D01*
X38246363Y-26407970D01*
X38243934Y-26411973D01*
X38114058Y-26626003D01*
X38110771Y-26631419D01*
X38009697Y-26872455D01*
X37945359Y-27125783D01*
X37944891Y-27130434D01*
X37944890Y-27130438D01*
X37927763Y-27300526D01*
X37901037Y-27366300D01*
X37842993Y-27407183D01*
X37772060Y-27410195D01*
X37713302Y-27376997D01*
X37479656Y-27143351D01*
X37445858Y-27082064D01*
X37409408Y-26920980D01*
X37408377Y-26916423D01*
X37331864Y-26719669D01*
X37315340Y-26677176D01*
X37315339Y-26677173D01*
X37313647Y-26672823D01*
X37183951Y-26445902D01*
X37022138Y-26240643D01*
X36831763Y-26061557D01*
X36635920Y-25925695D01*
X36620851Y-25915241D01*
X36620848Y-25915239D01*
X36617009Y-25912576D01*
X36591250Y-25899873D01*
X36386781Y-25799040D01*
X36386778Y-25799039D01*
X36382593Y-25796975D01*
X36336455Y-25782206D01*
X36138123Y-25718720D01*
X36133665Y-25717293D01*
X35875693Y-25675279D01*
X35761942Y-25673790D01*
X35619022Y-25671919D01*
X35619019Y-25671919D01*
X35614345Y-25671858D01*
X35355362Y-25707104D01*
X35350876Y-25708412D01*
X35350874Y-25708412D01*
X35322988Y-25716540D01*
X35104433Y-25780243D01*
X35100180Y-25782203D01*
X35100179Y-25782204D01*
X35067073Y-25797466D01*
X34867072Y-25889668D01*
X34828067Y-25915241D01*
X34652404Y-26030410D01*
X34652399Y-26030414D01*
X34648491Y-26032976D01*
X34453494Y-26207018D01*
X34286363Y-26407970D01*
X34283934Y-26411973D01*
X34154058Y-26626003D01*
X34150771Y-26631419D01*
X34049697Y-26872455D01*
X33985359Y-27125783D01*
X33959173Y-27385839D01*
X33522001Y-27385839D01*
X33506061Y-27171348D01*
X33494725Y-27121248D01*
X33449408Y-26920980D01*
X33448377Y-26916423D01*
X33371864Y-26719669D01*
X33355340Y-26677176D01*
X33355339Y-26677173D01*
X33353647Y-26672823D01*
X33223951Y-26445902D01*
X33062138Y-26240643D01*
X32871763Y-26061557D01*
X32675920Y-25925695D01*
X32660851Y-25915241D01*
X32660848Y-25915239D01*
X32657009Y-25912576D01*
X32631250Y-25899873D01*
X32426781Y-25799040D01*
X32426778Y-25799039D01*
X32422593Y-25796975D01*
X32376455Y-25782206D01*
X32178123Y-25718720D01*
X32173665Y-25717293D01*
X31915693Y-25675279D01*
X31801942Y-25673790D01*
X31659022Y-25671919D01*
X31659019Y-25671919D01*
X31654345Y-25671858D01*
X31395362Y-25707104D01*
X31390876Y-25708412D01*
X31390874Y-25708412D01*
X31362988Y-25716540D01*
X31144433Y-25780243D01*
X31140180Y-25782203D01*
X31140179Y-25782204D01*
X31107073Y-25797466D01*
X30907072Y-25889668D01*
X30868067Y-25915241D01*
X30692404Y-26030410D01*
X30692399Y-26030414D01*
X30688491Y-26032976D01*
X30493494Y-26207018D01*
X30326363Y-26407970D01*
X30323934Y-26411973D01*
X30194058Y-26626003D01*
X30190771Y-26631419D01*
X30089697Y-26872455D01*
X30025359Y-27125783D01*
X29999173Y-27385839D01*
X15921500Y-27385839D01*
X15921500Y-22786365D01*
X39124000Y-22786365D01*
X39124238Y-22791830D01*
X39138472Y-22954519D01*
X39140375Y-22965312D01*
X39196764Y-23175761D01*
X39200510Y-23186053D01*
X39292586Y-23383511D01*
X39298069Y-23393007D01*
X39423028Y-23571467D01*
X39430084Y-23579875D01*
X39584125Y-23733916D01*
X39592533Y-23740972D01*
X39770993Y-23865931D01*
X39780489Y-23871414D01*
X39977947Y-23963490D01*
X39988239Y-23967236D01*
X40160503Y-24013394D01*
X40174599Y-24013058D01*
X40178000Y-24005116D01*
X40178000Y-22604115D01*
X40173525Y-22588876D01*
X40172135Y-22587671D01*
X40164452Y-22586000D01*
X39142115Y-22586000D01*
X39126876Y-22590475D01*
X39125671Y-22591865D01*
X39124000Y-22599548D01*
X39124000Y-22786365D01*
X15921500Y-22786365D01*
X15921500Y-22059885D01*
X39124000Y-22059885D01*
X39128475Y-22075124D01*
X39129865Y-22076329D01*
X39137548Y-22078000D01*
X40159885Y-22078000D01*
X40175124Y-22073525D01*
X40176329Y-22072135D01*
X40178000Y-22064452D01*
X40178000Y-20664033D01*
X40174027Y-20650502D01*
X40165478Y-20649273D01*
X39988239Y-20696764D01*
X39977947Y-20700510D01*
X39780489Y-20792586D01*
X39770993Y-20798069D01*
X39592533Y-20923028D01*
X39584125Y-20930084D01*
X39430084Y-21084125D01*
X39423028Y-21092533D01*
X39298069Y-21270993D01*
X39292586Y-21280489D01*
X39200510Y-21477947D01*
X39196764Y-21488239D01*
X39140375Y-21698688D01*
X39138472Y-21709481D01*
X39124238Y-21872170D01*
X39124000Y-21877635D01*
X39124000Y-22059885D01*
X15921500Y-22059885D01*
X15921500Y-21877250D01*
X15923246Y-21856345D01*
X15925770Y-21841344D01*
X15925770Y-21841341D01*
X15926576Y-21836552D01*
X15926729Y-21824000D01*
X15926040Y-21819185D01*
X15926039Y-21819177D01*
X15924550Y-21808781D01*
X15923429Y-21784735D01*
X15927131Y-21709393D01*
X15938318Y-21481676D01*
X15939529Y-21469377D01*
X15951719Y-21387203D01*
X15988910Y-21136480D01*
X15991321Y-21124355D01*
X16073095Y-20797899D01*
X16076684Y-20786067D01*
X16190061Y-20469197D01*
X16194793Y-20457773D01*
X16338683Y-20153544D01*
X16344512Y-20142639D01*
X16517530Y-19853976D01*
X16524400Y-19843695D01*
X16724874Y-19573387D01*
X16732718Y-19563829D01*
X16958725Y-19314469D01*
X16967469Y-19305725D01*
X17216829Y-19079718D01*
X17226387Y-19071874D01*
X17496695Y-18871400D01*
X17506976Y-18864530D01*
X17795639Y-18691512D01*
X17806544Y-18685683D01*
X18110773Y-18541793D01*
X18122197Y-18537061D01*
X18439067Y-18423684D01*
X18450899Y-18420095D01*
X18681428Y-18362350D01*
X18777358Y-18338320D01*
X18789480Y-18335910D01*
X19122382Y-18286528D01*
X19134676Y-18285318D01*
X19434038Y-18270610D01*
X19459598Y-18271958D01*
X19470724Y-18273691D01*
X19502286Y-18269564D01*
X19518621Y-18268500D01*
X99437633Y-18268500D01*
X99457018Y-18270000D01*
G37*
%TD.AperFunction*%
%TD*%
M02*
