M48
; DRILL file {KiCad (6.0.9)} date Sat Sep  2 19:47:15 2023
; FORMAT={-:-/ absolute / inch / decimal}
; #@! TF.CreationDate,2023-09-02T19:47:15+02:00
; #@! TF.GenerationSoftware,Kicad,Pcbnew,(6.0.9)
; #@! TF.FileFunction,Plated,1,2,PTH
FMAT,2
INCH
; #@! TA.AperFunction,Plated,PTH,ComponentDrill
T1C0.0315
; #@! TA.AperFunction,Plated,PTH,ComponentDrill
T2C0.0512
%
G90
G05
T1
X1.5918Y-0.8792
X1.5918Y-1.4792
X1.6918Y-0.8792
X1.6918Y-1.4792
X1.7918Y-0.8792
X1.7918Y-1.4792
X1.8918Y-0.8792
X1.8918Y-1.4792
X1.9918Y-0.8792
X1.9918Y-1.4792
X2.0918Y-0.8792
X2.0918Y-1.4792
X2.1918Y-0.8792
X2.1918Y-1.4792
X2.2918Y-0.8792
X2.2918Y-1.4792
X2.3918Y-0.8792
X2.3918Y-1.4792
X2.4918Y-0.8792
X2.4918Y-1.4792
X2.5918Y-0.8792
X2.5918Y-1.4792
X2.6918Y-0.8792
X2.6918Y-1.4792
X2.7918Y-0.8792
X2.7918Y-1.4792
X2.8918Y-0.8792
X2.8918Y-1.4792
X2.9918Y-0.8792
X2.9918Y-1.4792
X3.0918Y-0.8792
X3.0918Y-1.4792
T2
X1.2505Y-1.08
X1.2505Y-1.28
X1.4064Y-1.08
X1.4064Y-1.28
X1.5623Y-1.08
X1.5623Y-1.28
X1.7182Y-1.08
X1.7182Y-1.28
X1.8741Y-1.08
X1.8741Y-1.28
X2.03Y-1.08
X2.03Y-1.28
X2.1859Y-1.08
X2.1859Y-1.28
X2.3418Y-1.08
X2.3418Y-1.28
X2.4977Y-1.08
X2.4977Y-1.28
X2.6536Y-1.08
X2.6536Y-1.28
X2.8095Y-1.08
X2.8095Y-1.28
X2.9654Y-1.08
X2.9654Y-1.28
X3.1213Y-1.08
X3.1213Y-1.28
X3.2772Y-1.08
X3.2772Y-1.28
X3.4331Y-1.08
X3.4331Y-1.28
T0
M30
