%TF.GenerationSoftware,KiCad,Pcbnew,(6.0.9)*%
%TF.CreationDate,2023-01-27T11:08:56+01:00*%
%TF.ProjectId,picoflasher,7069636f-666c-4617-9368-65722e6b6963,rev?*%
%TF.SameCoordinates,Original*%
%TF.FileFunction,Paste,Bot*%
%TF.FilePolarity,Positive*%
%FSLAX46Y46*%
G04 Gerber Fmt 4.6, Leading zero omitted, Abs format (unit mm)*
G04 Created by KiCad (PCBNEW (6.0.9)) date 2023-01-27 11:08:56*
%MOMM*%
%LPD*%
G01*
G04 APERTURE LIST*
G04 Aperture macros list*
%AMRoundRect*
0 Rectangle with rounded corners*
0 $1 Rounding radius*
0 $2 $3 $4 $5 $6 $7 $8 $9 X,Y pos of 4 corners*
0 Add a 4 corners polygon primitive as box body*
4,1,4,$2,$3,$4,$5,$6,$7,$8,$9,$2,$3,0*
0 Add four circle primitives for the rounded corners*
1,1,$1+$1,$2,$3*
1,1,$1+$1,$4,$5*
1,1,$1+$1,$6,$7*
1,1,$1+$1,$8,$9*
0 Add four rect primitives between the rounded corners*
20,1,$1+$1,$2,$3,$4,$5,0*
20,1,$1+$1,$4,$5,$6,$7,0*
20,1,$1+$1,$6,$7,$8,$9,0*
20,1,$1+$1,$8,$9,$2,$3,0*%
G04 Aperture macros list end*
%ADD10RoundRect,0.150000X0.587500X0.150000X-0.587500X0.150000X-0.587500X-0.150000X0.587500X-0.150000X0*%
%ADD11RoundRect,0.150000X-0.587500X-0.150000X0.587500X-0.150000X0.587500X0.150000X-0.587500X0.150000X0*%
%ADD12R,0.500000X0.800000*%
%ADD13R,0.400000X0.800000*%
%ADD14RoundRect,0.250000X-0.450000X0.262500X-0.450000X-0.262500X0.450000X-0.262500X0.450000X0.262500X0*%
%ADD15R,0.800000X0.500000*%
%ADD16R,0.800000X0.400000*%
%ADD17RoundRect,0.150000X0.150000X-0.875000X0.150000X0.875000X-0.150000X0.875000X-0.150000X-0.875000X0*%
%ADD18RoundRect,0.250000X0.450000X-0.262500X0.450000X0.262500X-0.450000X0.262500X-0.450000X-0.262500X0*%
G04 APERTURE END LIST*
D10*
%TO.C,Q21*%
X69202500Y-49342000D03*
X69202500Y-51242000D03*
X67327500Y-50292000D03*
%TD*%
D11*
%TO.C,Q6*%
X31538200Y-40574000D03*
X31538200Y-38674000D03*
X33413200Y-39624000D03*
%TD*%
%TO.C,Q12*%
X47503900Y-40574000D03*
X47503900Y-38674000D03*
X49378900Y-39624000D03*
%TD*%
%TO.C,Q4*%
X60064700Y-82230000D03*
X60064700Y-80330000D03*
X61939700Y-81280000D03*
%TD*%
D12*
%TO.C,RN6*%
X55805800Y-88530000D03*
D13*
X55005800Y-88530000D03*
X54205800Y-88530000D03*
D12*
X53405800Y-88530000D03*
X53405800Y-86730000D03*
D13*
X54205800Y-86730000D03*
X55005800Y-86730000D03*
D12*
X55805800Y-86730000D03*
%TD*%
D14*
%TO.C,C4*%
X78486000Y-65635500D03*
X78486000Y-67460500D03*
%TD*%
D11*
%TO.C,Q5*%
X23555400Y-40574000D03*
X23555400Y-38674000D03*
X25430400Y-39624000D03*
%TD*%
D12*
%TO.C,RN5*%
X43431500Y-43804000D03*
D13*
X44231500Y-43804000D03*
X45031500Y-43804000D03*
D12*
X45831500Y-43804000D03*
X45831500Y-45604000D03*
D13*
X45031500Y-45604000D03*
X44231500Y-45604000D03*
D12*
X43431500Y-45604000D03*
%TD*%
D10*
%TO.C,Q15*%
X36275500Y-49342000D03*
X36275500Y-51242000D03*
X34400500Y-50292000D03*
%TD*%
D14*
%TO.C,C3*%
X57404000Y-67460500D03*
X57404000Y-65635500D03*
%TD*%
D15*
%TO.C,RN10*%
X56266000Y-51492000D03*
D16*
X56266000Y-50692000D03*
X56266000Y-49892000D03*
D15*
X56266000Y-49092000D03*
X58066000Y-49092000D03*
D16*
X58066000Y-49892000D03*
X58066000Y-50692000D03*
D15*
X58066000Y-51492000D03*
%TD*%
D11*
%TO.C,Q18*%
X63469700Y-40574000D03*
X63469700Y-38674000D03*
X65344700Y-39624000D03*
%TD*%
D15*
%TO.C,RN9*%
X39802500Y-51492000D03*
D16*
X39802500Y-50692000D03*
X39802500Y-49892000D03*
D15*
X39802500Y-49092000D03*
X41602500Y-49092000D03*
D16*
X41602500Y-49892000D03*
X41602500Y-50692000D03*
D15*
X41602500Y-51492000D03*
%TD*%
D11*
%TO.C,Q2*%
X73127600Y-82230000D03*
X73127600Y-80330000D03*
X75002600Y-81280000D03*
%TD*%
D10*
%TO.C,Q14*%
X30541000Y-49342000D03*
X30541000Y-51242000D03*
X28666000Y-50292000D03*
%TD*%
%TO.C,Q19*%
X52739000Y-49342000D03*
X52739000Y-51242000D03*
X50864000Y-50292000D03*
%TD*%
D11*
%TO.C,Q1*%
X79659000Y-82230000D03*
X79659000Y-80330000D03*
X81534000Y-81280000D03*
%TD*%
D12*
%TO.C,RN2*%
X28191500Y-43804000D03*
D13*
X28991500Y-43804000D03*
X29791500Y-43804000D03*
D12*
X30591500Y-43804000D03*
X30591500Y-45604000D03*
D13*
X29791500Y-45604000D03*
X28991500Y-45604000D03*
D12*
X28191500Y-45604000D03*
%TD*%
%TO.C,RN1*%
X66261200Y-88530000D03*
D13*
X65461200Y-88530000D03*
X64661200Y-88530000D03*
D12*
X63861200Y-88530000D03*
X63861200Y-86730000D03*
D13*
X64661200Y-86730000D03*
X65461200Y-86730000D03*
D12*
X66261200Y-86730000D03*
%TD*%
D11*
%TO.C,Q9*%
X40470400Y-82230000D03*
X40470400Y-80330000D03*
X42345400Y-81280000D03*
%TD*%
D17*
%TO.C,U5*%
X75006200Y-71198000D03*
X73736200Y-71198000D03*
X72466200Y-71198000D03*
X71196200Y-71198000D03*
X69926200Y-71198000D03*
X68656200Y-71198000D03*
X67386200Y-71198000D03*
X66116200Y-71198000D03*
X64846200Y-71198000D03*
X63576200Y-71198000D03*
X63576200Y-61898000D03*
X64846200Y-61898000D03*
X66116200Y-61898000D03*
X67386200Y-61898000D03*
X68656200Y-61898000D03*
X69926200Y-61898000D03*
X71196200Y-61898000D03*
X72466200Y-61898000D03*
X73736200Y-61898000D03*
X75006200Y-61898000D03*
%TD*%
D10*
%TO.C,Q22*%
X79931500Y-49342000D03*
X79931500Y-51242000D03*
X78056500Y-50292000D03*
%TD*%
D11*
%TO.C,Q23*%
X71452500Y-40574000D03*
X71452500Y-38674000D03*
X73327500Y-39624000D03*
%TD*%
D18*
%TO.C,C1*%
X22352000Y-58975000D03*
X22352000Y-57150000D03*
%TD*%
D15*
%TO.C,RN7*%
X23339000Y-51492000D03*
D16*
X23339000Y-50692000D03*
X23339000Y-49892000D03*
D15*
X23339000Y-49092000D03*
X25139000Y-49092000D03*
D16*
X25139000Y-49892000D03*
X25139000Y-50692000D03*
D15*
X25139000Y-51492000D03*
%TD*%
D17*
%TO.C,U3*%
X32131000Y-71198000D03*
X30861000Y-71198000D03*
X29591000Y-71198000D03*
X28321000Y-71198000D03*
X27051000Y-71198000D03*
X25781000Y-71198000D03*
X24511000Y-71198000D03*
X23241000Y-71198000D03*
X21971000Y-71198000D03*
X20701000Y-71198000D03*
X20701000Y-61898000D03*
X21971000Y-61898000D03*
X23241000Y-61898000D03*
X24511000Y-61898000D03*
X25781000Y-61898000D03*
X27051000Y-61898000D03*
X28321000Y-61898000D03*
X29591000Y-61898000D03*
X30861000Y-61898000D03*
X32131000Y-61898000D03*
%TD*%
D14*
%TO.C,C2*%
X35814000Y-65635500D03*
X35814000Y-67460500D03*
%TD*%
D11*
%TO.C,Q10*%
X33939000Y-82230000D03*
X33939000Y-80330000D03*
X35814000Y-81280000D03*
%TD*%
%TO.C,Q24*%
X79435400Y-40574000D03*
X79435400Y-38674000D03*
X81310400Y-39624000D03*
%TD*%
%TO.C,Q17*%
X55486800Y-40574000D03*
X55486800Y-38674000D03*
X57361800Y-39624000D03*
%TD*%
D10*
%TO.C,Q13*%
X19812000Y-49342000D03*
X19812000Y-51242000D03*
X17937000Y-50292000D03*
%TD*%
D12*
%TO.C,RN8*%
X58671500Y-43804000D03*
D13*
X59471500Y-43804000D03*
X60271500Y-43804000D03*
D12*
X61071500Y-43804000D03*
X61071500Y-45604000D03*
D13*
X60271500Y-45604000D03*
X59471500Y-45604000D03*
D12*
X58671500Y-45604000D03*
%TD*%
D11*
%TO.C,Q3*%
X66596100Y-82230000D03*
X66596100Y-80330000D03*
X68471100Y-81280000D03*
%TD*%
%TO.C,Q11*%
X39521100Y-40574000D03*
X39521100Y-38674000D03*
X41396100Y-39624000D03*
%TD*%
D10*
%TO.C,Q16*%
X47004500Y-49342000D03*
X47004500Y-51242000D03*
X45129500Y-50292000D03*
%TD*%
D15*
%TO.C,RN12*%
X72729500Y-51492000D03*
D16*
X72729500Y-50692000D03*
X72729500Y-49892000D03*
D15*
X72729500Y-49092000D03*
X74529500Y-49092000D03*
D16*
X74529500Y-49892000D03*
X74529500Y-50692000D03*
D15*
X74529500Y-51492000D03*
%TD*%
D11*
%TO.C,Q7*%
X53533300Y-82230000D03*
X53533300Y-80330000D03*
X55408300Y-81280000D03*
%TD*%
D17*
%TO.C,U1*%
X53568600Y-71198000D03*
X52298600Y-71198000D03*
X51028600Y-71198000D03*
X49758600Y-71198000D03*
X48488600Y-71198000D03*
X47218600Y-71198000D03*
X45948600Y-71198000D03*
X44678600Y-71198000D03*
X43408600Y-71198000D03*
X42138600Y-71198000D03*
X42138600Y-61898000D03*
X43408600Y-61898000D03*
X44678600Y-61898000D03*
X45948600Y-61898000D03*
X47218600Y-61898000D03*
X48488600Y-61898000D03*
X49758600Y-61898000D03*
X51028600Y-61898000D03*
X52298600Y-61898000D03*
X53568600Y-61898000D03*
%TD*%
D12*
%TO.C,RN11*%
X73911500Y-43804000D03*
D13*
X74711500Y-43804000D03*
X75511500Y-43804000D03*
D12*
X76311500Y-43804000D03*
X76311500Y-45604000D03*
D13*
X75511500Y-45604000D03*
X74711500Y-45604000D03*
D12*
X73911500Y-45604000D03*
%TD*%
%TO.C,RN4*%
X45350500Y-88530000D03*
D13*
X44550500Y-88530000D03*
X43750500Y-88530000D03*
D12*
X42950500Y-88530000D03*
X42950500Y-86730000D03*
D13*
X43750500Y-86730000D03*
X44550500Y-86730000D03*
D12*
X45350500Y-86730000D03*
%TD*%
D10*
%TO.C,Q20*%
X63468000Y-49342000D03*
X63468000Y-51242000D03*
X61593000Y-50292000D03*
%TD*%
D12*
%TO.C,RN3*%
X76716500Y-88530000D03*
D13*
X75916500Y-88530000D03*
X75116500Y-88530000D03*
D12*
X74316500Y-88530000D03*
X74316500Y-86730000D03*
D13*
X75116500Y-86730000D03*
X75916500Y-86730000D03*
D12*
X76716500Y-86730000D03*
%TD*%
D11*
%TO.C,Q8*%
X47001900Y-82230000D03*
X47001900Y-80330000D03*
X48876900Y-81280000D03*
%TD*%
M02*
