M48
; DRILL file {KiCad (6.0.9)} date Wed Aug 23 16:54:37 2023
; FORMAT={-:-/ absolute / inch / decimal}
; #@! TF.CreationDate,2023-08-23T16:54:37+02:00
; #@! TF.GenerationSoftware,Kicad,Pcbnew,(6.0.9)
; #@! TF.FileFunction,Plated,1,2,PTH
FMAT,2
INCH
; #@! TA.AperFunction,Plated,PTH,ViaDrill
T1C0.0157
; #@! TA.AperFunction,Plated,PTH,ComponentDrill
T2C0.0315
; #@! TA.AperFunction,Plated,PTH,ComponentDrill
T3C0.0354
; #@! TA.AperFunction,Plated,PTH,ComponentDrill
T4C0.0394
; #@! TA.AperFunction,Plated,PTH,ComponentDrill
T5C0.0402
; #@! TA.AperFunction,Plated,PTH,ComponentDrill
T6C0.0433
%
G90
G05
T1
X0.7073Y-3.0564
X0.7401Y-2.387
X0.9628Y-3.0541
X0.9817Y-2.6242
X0.9924Y-2.4968
X1.0379Y-3.0983
X1.102Y-2.0439
X1.1101Y-2.5013
X1.1239Y-1.6672
X1.1632Y-2.5035
X1.1729Y-1.599
X1.2144Y-1.685
X1.2492Y-2.8689
X1.251Y-2.04
X1.272Y-2.9825
X1.3325Y-2.7996
X1.3631Y-3.1517
X1.3719Y-2.7971
X1.429Y-2.7888
X1.4541Y-1.98
X1.4673Y-3.1714
X1.4857Y-2.731
X1.4966Y-1.989
X1.6067Y-2.4336
X1.6095Y-1.5178
X1.6288Y-2.162
X1.6525Y-2.2307
X1.6675Y-2.9859
X1.7193Y-2.731
X1.8044Y-1.6812
X1.8058Y-2.7379
X1.8429Y-2.1029
X1.8665Y-1.8966
X1.9109Y-2.6312
X1.9807Y-2.8638
X2.0151Y-2.6305
X2.054Y-2.601
X2.0749Y-2.8682
X2.0861Y-2.6314
X2.1445Y-2.1492
X2.1477Y-2.7598
X2.1637Y-2.9929
X2.1684Y-2.4099
X2.1778Y-2.5227
X2.1941Y-3.3858
X2.2205Y-3.3564
X2.2463Y-3.3265
X2.2703Y-2.2538
X2.2735Y-1.8365
X2.3337Y-1.8543
X2.3505Y-2.4932
X2.3577Y-1.9291
X2.4181Y-3.061
X2.4269Y-1.9163
X2.4305Y-1.6908
X2.4732Y-1.6512
X2.5316Y-2.6997
X2.5516Y-2.0175
X2.5655Y-3.1506
X2.5676Y-2.7241
X2.582Y-3.3092
X2.6211Y-3.0037
X2.6623Y-2.2751
X2.6721Y-2.5911
X2.7249Y-2.0529
X2.9215Y-3.1535
X2.989Y-2.8151
X3.0369Y-2.6672
X3.0376Y-2.907
X3.1821Y-2.55
X3.2267Y-1.6037
X3.2558Y-1.7942
X3.5034Y-1.698
T2
X1.68Y-3.2
X1.68Y-3.5
X2.18Y-3.2
X2.18Y-3.5
T3
X1.3698Y-3.35
X1.4698Y-3.35
X1.86Y-3.35
X1.96Y-3.35
T4
X1.0154Y-2.3214
X1.0154Y-2.9214
X1.1154Y-2.3214
X1.1154Y-2.9214
X1.2154Y-2.3214
X1.2154Y-2.9214
X1.3154Y-2.3214
X1.3154Y-2.9214
X1.4154Y-2.3214
X1.4154Y-2.9214
X1.5154Y-2.3214
X1.5154Y-2.9214
X1.6154Y-2.3214
X1.6154Y-2.9214
X1.7154Y-2.3214
X1.7154Y-2.9214
X1.8154Y-2.3214
X1.8154Y-2.9214
X1.9154Y-2.3214
X1.9154Y-2.9214
X2.0154Y-2.3214
X2.0154Y-2.9214
X2.1154Y-2.3214
X2.1154Y-2.9214
X2.2154Y-2.3214
X2.2154Y-2.9214
X2.3154Y-2.3214
X2.3154Y-2.9214
X2.4154Y-2.3214
X2.4154Y-2.9214
X2.5154Y-2.3214
X2.5154Y-2.9214
T5
X3.45Y-1.45
X3.45Y-1.55
X3.45Y-1.65
X3.45Y-1.75
X3.45Y-1.85
X3.45Y-1.95
X3.45Y-2.05
X3.45Y-2.15
X3.45Y-2.25
X3.45Y-2.35
X3.45Y-2.45
X3.45Y-2.55
X3.45Y-2.65
X3.45Y-2.75
X3.45Y-2.85
X3.45Y-2.95
X3.45Y-3.05
X3.45Y-3.15
X3.45Y-3.25
X3.45Y-3.35
X3.7Y-3.3409
X3.8Y-3.3409
X3.9Y-3.3409
X4.15Y-1.45
X4.15Y-1.55
X4.15Y-1.65
X4.15Y-1.75
X4.15Y-1.85
X4.15Y-1.95
X4.15Y-2.05
X4.15Y-2.15
X4.15Y-2.25
X4.15Y-2.35
X4.15Y-2.45
X4.15Y-2.55
X4.15Y-2.65
X4.15Y-2.75
X4.15Y-2.85
X4.15Y-2.95
X4.15Y-3.05
X4.15Y-3.15
X4.15Y-3.25
X4.15Y-3.35
T6
X0.912Y-3.2614
X0.912Y-3.4386
X1.168Y-3.2614
X1.168Y-3.4386
T0
M30
