%TF.GenerationSoftware,KiCad,Pcbnew,(6.0.9)*%
%TF.CreationDate,2023-01-27T11:08:56+01:00*%
%TF.ProjectId,picoflasher,7069636f-666c-4617-9368-65722e6b6963,rev?*%
%TF.SameCoordinates,Original*%
%TF.FileFunction,Legend,Bot*%
%TF.FilePolarity,Positive*%
%FSLAX46Y46*%
G04 Gerber Fmt 4.6, Leading zero omitted, Abs format (unit mm)*
G04 Created by KiCad (PCBNEW (6.0.9)) date 2023-01-27 11:08:56*
%MOMM*%
%LPD*%
G01*
G04 APERTURE LIST*
%ADD10C,0.150000*%
%ADD11C,0.100000*%
%ADD12C,0.120000*%
G04 APERTURE END LIST*
D10*
%TO.C,Q21*%
X68836428Y-48439619D02*
X68931666Y-48392000D01*
X69026904Y-48296761D01*
X69169761Y-48153904D01*
X69265000Y-48106285D01*
X69360238Y-48106285D01*
X69312619Y-48344380D02*
X69407857Y-48296761D01*
X69503095Y-48201523D01*
X69550714Y-48011047D01*
X69550714Y-47677714D01*
X69503095Y-47487238D01*
X69407857Y-47392000D01*
X69312619Y-47344380D01*
X69122142Y-47344380D01*
X69026904Y-47392000D01*
X68931666Y-47487238D01*
X68884047Y-47677714D01*
X68884047Y-48011047D01*
X68931666Y-48201523D01*
X69026904Y-48296761D01*
X69122142Y-48344380D01*
X69312619Y-48344380D01*
X68503095Y-47439619D02*
X68455476Y-47392000D01*
X68360238Y-47344380D01*
X68122142Y-47344380D01*
X68026904Y-47392000D01*
X67979285Y-47439619D01*
X67931666Y-47534857D01*
X67931666Y-47630095D01*
X67979285Y-47772952D01*
X68550714Y-48344380D01*
X67931666Y-48344380D01*
X66979285Y-48344380D02*
X67550714Y-48344380D01*
X67265000Y-48344380D02*
X67265000Y-47344380D01*
X67360238Y-47487238D01*
X67455476Y-47582476D01*
X67550714Y-47630095D01*
D11*
X69881666Y-52642000D02*
X69781666Y-52675333D01*
X69748333Y-52708666D01*
X69715000Y-52775333D01*
X69715000Y-52875333D01*
X69748333Y-52942000D01*
X69781666Y-52975333D01*
X69848333Y-53008666D01*
X70115000Y-53008666D01*
X70115000Y-52308666D01*
X69881666Y-52308666D01*
X69815000Y-52342000D01*
X69781666Y-52375333D01*
X69748333Y-52442000D01*
X69748333Y-52508666D01*
X69781666Y-52575333D01*
X69815000Y-52608666D01*
X69881666Y-52642000D01*
X70115000Y-52642000D01*
X69448333Y-52975333D02*
X69348333Y-53008666D01*
X69181666Y-53008666D01*
X69115000Y-52975333D01*
X69081666Y-52942000D01*
X69048333Y-52875333D01*
X69048333Y-52808666D01*
X69081666Y-52742000D01*
X69115000Y-52708666D01*
X69181666Y-52675333D01*
X69315000Y-52642000D01*
X69381666Y-52608666D01*
X69415000Y-52575333D01*
X69448333Y-52508666D01*
X69448333Y-52442000D01*
X69415000Y-52375333D01*
X69381666Y-52342000D01*
X69315000Y-52308666D01*
X69148333Y-52308666D01*
X69048333Y-52342000D01*
X68781666Y-52975333D02*
X68681666Y-53008666D01*
X68515000Y-53008666D01*
X68448333Y-52975333D01*
X68415000Y-52942000D01*
X68381666Y-52875333D01*
X68381666Y-52808666D01*
X68415000Y-52742000D01*
X68448333Y-52708666D01*
X68515000Y-52675333D01*
X68648333Y-52642000D01*
X68715000Y-52608666D01*
X68748333Y-52575333D01*
X68781666Y-52508666D01*
X68781666Y-52442000D01*
X68748333Y-52375333D01*
X68715000Y-52342000D01*
X68648333Y-52308666D01*
X68481666Y-52308666D01*
X68381666Y-52342000D01*
X67715000Y-53008666D02*
X68115000Y-53008666D01*
X67915000Y-53008666D02*
X67915000Y-52308666D01*
X67981666Y-52408666D01*
X68048333Y-52475333D01*
X68115000Y-52508666D01*
X67481666Y-52308666D02*
X67048333Y-52308666D01*
X67281666Y-52575333D01*
X67181666Y-52575333D01*
X67115000Y-52608666D01*
X67081666Y-52642000D01*
X67048333Y-52708666D01*
X67048333Y-52875333D01*
X67081666Y-52942000D01*
X67115000Y-52975333D01*
X67181666Y-53008666D01*
X67381666Y-53008666D01*
X67448333Y-52975333D01*
X67481666Y-52942000D01*
X66648333Y-52608666D02*
X66715000Y-52575333D01*
X66748333Y-52542000D01*
X66781666Y-52475333D01*
X66781666Y-52442000D01*
X66748333Y-52375333D01*
X66715000Y-52342000D01*
X66648333Y-52308666D01*
X66515000Y-52308666D01*
X66448333Y-52342000D01*
X66415000Y-52375333D01*
X66381666Y-52442000D01*
X66381666Y-52475333D01*
X66415000Y-52542000D01*
X66448333Y-52575333D01*
X66515000Y-52608666D01*
X66648333Y-52608666D01*
X66715000Y-52642000D01*
X66748333Y-52675333D01*
X66781666Y-52742000D01*
X66781666Y-52875333D01*
X66748333Y-52942000D01*
X66715000Y-52975333D01*
X66648333Y-53008666D01*
X66515000Y-53008666D01*
X66448333Y-52975333D01*
X66415000Y-52942000D01*
X66381666Y-52875333D01*
X66381666Y-52742000D01*
X66415000Y-52675333D01*
X66448333Y-52642000D01*
X66515000Y-52608666D01*
D10*
%TO.C,Q6*%
X32570938Y-42571619D02*
X32666176Y-42524000D01*
X32761414Y-42428761D01*
X32904271Y-42285904D01*
X32999509Y-42238285D01*
X33094747Y-42238285D01*
X33047128Y-42476380D02*
X33142366Y-42428761D01*
X33237604Y-42333523D01*
X33285223Y-42143047D01*
X33285223Y-41809714D01*
X33237604Y-41619238D01*
X33142366Y-41524000D01*
X33047128Y-41476380D01*
X32856652Y-41476380D01*
X32761414Y-41524000D01*
X32666176Y-41619238D01*
X32618557Y-41809714D01*
X32618557Y-42143047D01*
X32666176Y-42333523D01*
X32761414Y-42428761D01*
X32856652Y-42476380D01*
X33047128Y-42476380D01*
X31761414Y-41476380D02*
X31951890Y-41476380D01*
X32047128Y-41524000D01*
X32094747Y-41571619D01*
X32189985Y-41714476D01*
X32237604Y-41904952D01*
X32237604Y-42285904D01*
X32189985Y-42381142D01*
X32142366Y-42428761D01*
X32047128Y-42476380D01*
X31856652Y-42476380D01*
X31761414Y-42428761D01*
X31713795Y-42381142D01*
X31666176Y-42285904D01*
X31666176Y-42047809D01*
X31713795Y-41952571D01*
X31761414Y-41904952D01*
X31856652Y-41857333D01*
X32047128Y-41857333D01*
X32142366Y-41904952D01*
X32189985Y-41952571D01*
X32237604Y-42047809D01*
D11*
X34092366Y-37174000D02*
X33992366Y-37207333D01*
X33959033Y-37240666D01*
X33925700Y-37307333D01*
X33925700Y-37407333D01*
X33959033Y-37474000D01*
X33992366Y-37507333D01*
X34059033Y-37540666D01*
X34325700Y-37540666D01*
X34325700Y-36840666D01*
X34092366Y-36840666D01*
X34025700Y-36874000D01*
X33992366Y-36907333D01*
X33959033Y-36974000D01*
X33959033Y-37040666D01*
X33992366Y-37107333D01*
X34025700Y-37140666D01*
X34092366Y-37174000D01*
X34325700Y-37174000D01*
X33659033Y-37507333D02*
X33559033Y-37540666D01*
X33392366Y-37540666D01*
X33325700Y-37507333D01*
X33292366Y-37474000D01*
X33259033Y-37407333D01*
X33259033Y-37340666D01*
X33292366Y-37274000D01*
X33325700Y-37240666D01*
X33392366Y-37207333D01*
X33525700Y-37174000D01*
X33592366Y-37140666D01*
X33625700Y-37107333D01*
X33659033Y-37040666D01*
X33659033Y-36974000D01*
X33625700Y-36907333D01*
X33592366Y-36874000D01*
X33525700Y-36840666D01*
X33359033Y-36840666D01*
X33259033Y-36874000D01*
X32992366Y-37507333D02*
X32892366Y-37540666D01*
X32725700Y-37540666D01*
X32659033Y-37507333D01*
X32625700Y-37474000D01*
X32592366Y-37407333D01*
X32592366Y-37340666D01*
X32625700Y-37274000D01*
X32659033Y-37240666D01*
X32725700Y-37207333D01*
X32859033Y-37174000D01*
X32925700Y-37140666D01*
X32959033Y-37107333D01*
X32992366Y-37040666D01*
X32992366Y-36974000D01*
X32959033Y-36907333D01*
X32925700Y-36874000D01*
X32859033Y-36840666D01*
X32692366Y-36840666D01*
X32592366Y-36874000D01*
X31925700Y-37540666D02*
X32325700Y-37540666D01*
X32125700Y-37540666D02*
X32125700Y-36840666D01*
X32192366Y-36940666D01*
X32259033Y-37007333D01*
X32325700Y-37040666D01*
X31692366Y-36840666D02*
X31259033Y-36840666D01*
X31492366Y-37107333D01*
X31392366Y-37107333D01*
X31325700Y-37140666D01*
X31292366Y-37174000D01*
X31259033Y-37240666D01*
X31259033Y-37407333D01*
X31292366Y-37474000D01*
X31325700Y-37507333D01*
X31392366Y-37540666D01*
X31592366Y-37540666D01*
X31659033Y-37507333D01*
X31692366Y-37474000D01*
X30859033Y-37140666D02*
X30925700Y-37107333D01*
X30959033Y-37074000D01*
X30992366Y-37007333D01*
X30992366Y-36974000D01*
X30959033Y-36907333D01*
X30925700Y-36874000D01*
X30859033Y-36840666D01*
X30725700Y-36840666D01*
X30659033Y-36874000D01*
X30625700Y-36907333D01*
X30592366Y-36974000D01*
X30592366Y-37007333D01*
X30625700Y-37074000D01*
X30659033Y-37107333D01*
X30725700Y-37140666D01*
X30859033Y-37140666D01*
X30925700Y-37174000D01*
X30959033Y-37207333D01*
X30992366Y-37274000D01*
X30992366Y-37407333D01*
X30959033Y-37474000D01*
X30925700Y-37507333D01*
X30859033Y-37540666D01*
X30725700Y-37540666D01*
X30659033Y-37507333D01*
X30625700Y-37474000D01*
X30592366Y-37407333D01*
X30592366Y-37274000D01*
X30625700Y-37207333D01*
X30659033Y-37174000D01*
X30725700Y-37140666D01*
D10*
%TO.C,Q12*%
X49012828Y-42571619D02*
X49108066Y-42524000D01*
X49203304Y-42428761D01*
X49346161Y-42285904D01*
X49441400Y-42238285D01*
X49536638Y-42238285D01*
X49489019Y-42476380D02*
X49584257Y-42428761D01*
X49679495Y-42333523D01*
X49727114Y-42143047D01*
X49727114Y-41809714D01*
X49679495Y-41619238D01*
X49584257Y-41524000D01*
X49489019Y-41476380D01*
X49298542Y-41476380D01*
X49203304Y-41524000D01*
X49108066Y-41619238D01*
X49060447Y-41809714D01*
X49060447Y-42143047D01*
X49108066Y-42333523D01*
X49203304Y-42428761D01*
X49298542Y-42476380D01*
X49489019Y-42476380D01*
X48108066Y-42476380D02*
X48679495Y-42476380D01*
X48393780Y-42476380D02*
X48393780Y-41476380D01*
X48489019Y-41619238D01*
X48584257Y-41714476D01*
X48679495Y-41762095D01*
X47727114Y-41571619D02*
X47679495Y-41524000D01*
X47584257Y-41476380D01*
X47346161Y-41476380D01*
X47250923Y-41524000D01*
X47203304Y-41571619D01*
X47155685Y-41666857D01*
X47155685Y-41762095D01*
X47203304Y-41904952D01*
X47774733Y-42476380D01*
X47155685Y-42476380D01*
D11*
X50058066Y-37174000D02*
X49958066Y-37207333D01*
X49924733Y-37240666D01*
X49891400Y-37307333D01*
X49891400Y-37407333D01*
X49924733Y-37474000D01*
X49958066Y-37507333D01*
X50024733Y-37540666D01*
X50291400Y-37540666D01*
X50291400Y-36840666D01*
X50058066Y-36840666D01*
X49991400Y-36874000D01*
X49958066Y-36907333D01*
X49924733Y-36974000D01*
X49924733Y-37040666D01*
X49958066Y-37107333D01*
X49991400Y-37140666D01*
X50058066Y-37174000D01*
X50291400Y-37174000D01*
X49624733Y-37507333D02*
X49524733Y-37540666D01*
X49358066Y-37540666D01*
X49291400Y-37507333D01*
X49258066Y-37474000D01*
X49224733Y-37407333D01*
X49224733Y-37340666D01*
X49258066Y-37274000D01*
X49291400Y-37240666D01*
X49358066Y-37207333D01*
X49491400Y-37174000D01*
X49558066Y-37140666D01*
X49591400Y-37107333D01*
X49624733Y-37040666D01*
X49624733Y-36974000D01*
X49591400Y-36907333D01*
X49558066Y-36874000D01*
X49491400Y-36840666D01*
X49324733Y-36840666D01*
X49224733Y-36874000D01*
X48958066Y-37507333D02*
X48858066Y-37540666D01*
X48691400Y-37540666D01*
X48624733Y-37507333D01*
X48591400Y-37474000D01*
X48558066Y-37407333D01*
X48558066Y-37340666D01*
X48591400Y-37274000D01*
X48624733Y-37240666D01*
X48691400Y-37207333D01*
X48824733Y-37174000D01*
X48891400Y-37140666D01*
X48924733Y-37107333D01*
X48958066Y-37040666D01*
X48958066Y-36974000D01*
X48924733Y-36907333D01*
X48891400Y-36874000D01*
X48824733Y-36840666D01*
X48658066Y-36840666D01*
X48558066Y-36874000D01*
X47891400Y-37540666D02*
X48291400Y-37540666D01*
X48091400Y-37540666D02*
X48091400Y-36840666D01*
X48158066Y-36940666D01*
X48224733Y-37007333D01*
X48291400Y-37040666D01*
X47658066Y-36840666D02*
X47224733Y-36840666D01*
X47458066Y-37107333D01*
X47358066Y-37107333D01*
X47291400Y-37140666D01*
X47258066Y-37174000D01*
X47224733Y-37240666D01*
X47224733Y-37407333D01*
X47258066Y-37474000D01*
X47291400Y-37507333D01*
X47358066Y-37540666D01*
X47558066Y-37540666D01*
X47624733Y-37507333D01*
X47658066Y-37474000D01*
X46824733Y-37140666D02*
X46891400Y-37107333D01*
X46924733Y-37074000D01*
X46958066Y-37007333D01*
X46958066Y-36974000D01*
X46924733Y-36907333D01*
X46891400Y-36874000D01*
X46824733Y-36840666D01*
X46691400Y-36840666D01*
X46624733Y-36874000D01*
X46591400Y-36907333D01*
X46558066Y-36974000D01*
X46558066Y-37007333D01*
X46591400Y-37074000D01*
X46624733Y-37107333D01*
X46691400Y-37140666D01*
X46824733Y-37140666D01*
X46891400Y-37174000D01*
X46924733Y-37207333D01*
X46958066Y-37274000D01*
X46958066Y-37407333D01*
X46924733Y-37474000D01*
X46891400Y-37507333D01*
X46824733Y-37540666D01*
X46691400Y-37540666D01*
X46624733Y-37507333D01*
X46591400Y-37474000D01*
X46558066Y-37407333D01*
X46558066Y-37274000D01*
X46591400Y-37207333D01*
X46624733Y-37174000D01*
X46691400Y-37140666D01*
D10*
%TO.C,Q4*%
X61097438Y-84227619D02*
X61192676Y-84180000D01*
X61287914Y-84084761D01*
X61430771Y-83941904D01*
X61526009Y-83894285D01*
X61621247Y-83894285D01*
X61573628Y-84132380D02*
X61668866Y-84084761D01*
X61764104Y-83989523D01*
X61811723Y-83799047D01*
X61811723Y-83465714D01*
X61764104Y-83275238D01*
X61668866Y-83180000D01*
X61573628Y-83132380D01*
X61383152Y-83132380D01*
X61287914Y-83180000D01*
X61192676Y-83275238D01*
X61145057Y-83465714D01*
X61145057Y-83799047D01*
X61192676Y-83989523D01*
X61287914Y-84084761D01*
X61383152Y-84132380D01*
X61573628Y-84132380D01*
X60287914Y-83465714D02*
X60287914Y-84132380D01*
X60526009Y-83084761D02*
X60764104Y-83799047D01*
X60145057Y-83799047D01*
D11*
X62618866Y-78830000D02*
X62518866Y-78863333D01*
X62485533Y-78896666D01*
X62452200Y-78963333D01*
X62452200Y-79063333D01*
X62485533Y-79130000D01*
X62518866Y-79163333D01*
X62585533Y-79196666D01*
X62852200Y-79196666D01*
X62852200Y-78496666D01*
X62618866Y-78496666D01*
X62552200Y-78530000D01*
X62518866Y-78563333D01*
X62485533Y-78630000D01*
X62485533Y-78696666D01*
X62518866Y-78763333D01*
X62552200Y-78796666D01*
X62618866Y-78830000D01*
X62852200Y-78830000D01*
X62185533Y-79163333D02*
X62085533Y-79196666D01*
X61918866Y-79196666D01*
X61852200Y-79163333D01*
X61818866Y-79130000D01*
X61785533Y-79063333D01*
X61785533Y-78996666D01*
X61818866Y-78930000D01*
X61852200Y-78896666D01*
X61918866Y-78863333D01*
X62052200Y-78830000D01*
X62118866Y-78796666D01*
X62152200Y-78763333D01*
X62185533Y-78696666D01*
X62185533Y-78630000D01*
X62152200Y-78563333D01*
X62118866Y-78530000D01*
X62052200Y-78496666D01*
X61885533Y-78496666D01*
X61785533Y-78530000D01*
X61518866Y-79163333D02*
X61418866Y-79196666D01*
X61252200Y-79196666D01*
X61185533Y-79163333D01*
X61152200Y-79130000D01*
X61118866Y-79063333D01*
X61118866Y-78996666D01*
X61152200Y-78930000D01*
X61185533Y-78896666D01*
X61252200Y-78863333D01*
X61385533Y-78830000D01*
X61452200Y-78796666D01*
X61485533Y-78763333D01*
X61518866Y-78696666D01*
X61518866Y-78630000D01*
X61485533Y-78563333D01*
X61452200Y-78530000D01*
X61385533Y-78496666D01*
X61218866Y-78496666D01*
X61118866Y-78530000D01*
X60452200Y-79196666D02*
X60852200Y-79196666D01*
X60652200Y-79196666D02*
X60652200Y-78496666D01*
X60718866Y-78596666D01*
X60785533Y-78663333D01*
X60852200Y-78696666D01*
X60218866Y-78496666D02*
X59785533Y-78496666D01*
X60018866Y-78763333D01*
X59918866Y-78763333D01*
X59852200Y-78796666D01*
X59818866Y-78830000D01*
X59785533Y-78896666D01*
X59785533Y-79063333D01*
X59818866Y-79130000D01*
X59852200Y-79163333D01*
X59918866Y-79196666D01*
X60118866Y-79196666D01*
X60185533Y-79163333D01*
X60218866Y-79130000D01*
X59385533Y-78796666D02*
X59452200Y-78763333D01*
X59485533Y-78730000D01*
X59518866Y-78663333D01*
X59518866Y-78630000D01*
X59485533Y-78563333D01*
X59452200Y-78530000D01*
X59385533Y-78496666D01*
X59252200Y-78496666D01*
X59185533Y-78530000D01*
X59152200Y-78563333D01*
X59118866Y-78630000D01*
X59118866Y-78663333D01*
X59152200Y-78730000D01*
X59185533Y-78763333D01*
X59252200Y-78796666D01*
X59385533Y-78796666D01*
X59452200Y-78830000D01*
X59485533Y-78863333D01*
X59518866Y-78930000D01*
X59518866Y-79063333D01*
X59485533Y-79130000D01*
X59452200Y-79163333D01*
X59385533Y-79196666D01*
X59252200Y-79196666D01*
X59185533Y-79163333D01*
X59152200Y-79130000D01*
X59118866Y-79063333D01*
X59118866Y-78930000D01*
X59152200Y-78863333D01*
X59185533Y-78830000D01*
X59252200Y-78796666D01*
D10*
%TO.C,RN6*%
X57858180Y-86939523D02*
X57381990Y-86606190D01*
X57858180Y-86368095D02*
X56858180Y-86368095D01*
X56858180Y-86749047D01*
X56905800Y-86844285D01*
X56953419Y-86891904D01*
X57048657Y-86939523D01*
X57191514Y-86939523D01*
X57286752Y-86891904D01*
X57334371Y-86844285D01*
X57381990Y-86749047D01*
X57381990Y-86368095D01*
X57858180Y-87368095D02*
X56858180Y-87368095D01*
X57858180Y-87939523D01*
X56858180Y-87939523D01*
X56858180Y-88844285D02*
X56858180Y-88653809D01*
X56905800Y-88558571D01*
X56953419Y-88510952D01*
X57096276Y-88415714D01*
X57286752Y-88368095D01*
X57667704Y-88368095D01*
X57762942Y-88415714D01*
X57810561Y-88463333D01*
X57858180Y-88558571D01*
X57858180Y-88749047D01*
X57810561Y-88844285D01*
X57762942Y-88891904D01*
X57667704Y-88939523D01*
X57429609Y-88939523D01*
X57334371Y-88891904D01*
X57286752Y-88844285D01*
X57239133Y-88749047D01*
X57239133Y-88558571D01*
X57286752Y-88463333D01*
X57334371Y-88415714D01*
X57429609Y-88368095D01*
X52258180Y-87034761D02*
X52258180Y-86463333D01*
X52258180Y-86749047D02*
X51258180Y-86749047D01*
X51401038Y-86653809D01*
X51496276Y-86558571D01*
X51543895Y-86463333D01*
X51258180Y-87653809D02*
X51258180Y-87749047D01*
X51305800Y-87844285D01*
X51353419Y-87891904D01*
X51448657Y-87939523D01*
X51639133Y-87987142D01*
X51877228Y-87987142D01*
X52067704Y-87939523D01*
X52162942Y-87891904D01*
X52210561Y-87844285D01*
X52258180Y-87749047D01*
X52258180Y-87653809D01*
X52210561Y-87558571D01*
X52162942Y-87510952D01*
X52067704Y-87463333D01*
X51877228Y-87415714D01*
X51639133Y-87415714D01*
X51448657Y-87463333D01*
X51353419Y-87510952D01*
X51305800Y-87558571D01*
X51258180Y-87653809D01*
X52258180Y-88415714D02*
X51258180Y-88415714D01*
X51877228Y-88510952D02*
X52258180Y-88796666D01*
X51591514Y-88796666D02*
X51972466Y-88415714D01*
%TO.C,C4*%
X80621142Y-66381333D02*
X80668761Y-66333714D01*
X80716380Y-66190857D01*
X80716380Y-66095619D01*
X80668761Y-65952761D01*
X80573523Y-65857523D01*
X80478285Y-65809904D01*
X80287809Y-65762285D01*
X80144952Y-65762285D01*
X79954476Y-65809904D01*
X79859238Y-65857523D01*
X79764000Y-65952761D01*
X79716380Y-66095619D01*
X79716380Y-66190857D01*
X79764000Y-66333714D01*
X79811619Y-66381333D01*
X80049714Y-67238476D02*
X80716380Y-67238476D01*
X79668761Y-67000380D02*
X80383047Y-66762285D01*
X80383047Y-67381333D01*
%TO.C,Q5*%
X24588138Y-42530219D02*
X24683376Y-42482600D01*
X24778614Y-42387361D01*
X24921471Y-42244504D01*
X25016709Y-42196885D01*
X25111947Y-42196885D01*
X25064328Y-42434980D02*
X25159566Y-42387361D01*
X25254804Y-42292123D01*
X25302423Y-42101647D01*
X25302423Y-41768314D01*
X25254804Y-41577838D01*
X25159566Y-41482600D01*
X25064328Y-41434980D01*
X24873852Y-41434980D01*
X24778614Y-41482600D01*
X24683376Y-41577838D01*
X24635757Y-41768314D01*
X24635757Y-42101647D01*
X24683376Y-42292123D01*
X24778614Y-42387361D01*
X24873852Y-42434980D01*
X25064328Y-42434980D01*
X23730995Y-41434980D02*
X24207185Y-41434980D01*
X24254804Y-41911171D01*
X24207185Y-41863552D01*
X24111947Y-41815933D01*
X23873852Y-41815933D01*
X23778614Y-41863552D01*
X23730995Y-41911171D01*
X23683376Y-42006409D01*
X23683376Y-42244504D01*
X23730995Y-42339742D01*
X23778614Y-42387361D01*
X23873852Y-42434980D01*
X24111947Y-42434980D01*
X24207185Y-42387361D01*
X24254804Y-42339742D01*
D11*
X26109566Y-37174000D02*
X26009566Y-37207333D01*
X25976233Y-37240666D01*
X25942900Y-37307333D01*
X25942900Y-37407333D01*
X25976233Y-37474000D01*
X26009566Y-37507333D01*
X26076233Y-37540666D01*
X26342900Y-37540666D01*
X26342900Y-36840666D01*
X26109566Y-36840666D01*
X26042900Y-36874000D01*
X26009566Y-36907333D01*
X25976233Y-36974000D01*
X25976233Y-37040666D01*
X26009566Y-37107333D01*
X26042900Y-37140666D01*
X26109566Y-37174000D01*
X26342900Y-37174000D01*
X25676233Y-37507333D02*
X25576233Y-37540666D01*
X25409566Y-37540666D01*
X25342900Y-37507333D01*
X25309566Y-37474000D01*
X25276233Y-37407333D01*
X25276233Y-37340666D01*
X25309566Y-37274000D01*
X25342900Y-37240666D01*
X25409566Y-37207333D01*
X25542900Y-37174000D01*
X25609566Y-37140666D01*
X25642900Y-37107333D01*
X25676233Y-37040666D01*
X25676233Y-36974000D01*
X25642900Y-36907333D01*
X25609566Y-36874000D01*
X25542900Y-36840666D01*
X25376233Y-36840666D01*
X25276233Y-36874000D01*
X25009566Y-37507333D02*
X24909566Y-37540666D01*
X24742900Y-37540666D01*
X24676233Y-37507333D01*
X24642900Y-37474000D01*
X24609566Y-37407333D01*
X24609566Y-37340666D01*
X24642900Y-37274000D01*
X24676233Y-37240666D01*
X24742900Y-37207333D01*
X24876233Y-37174000D01*
X24942900Y-37140666D01*
X24976233Y-37107333D01*
X25009566Y-37040666D01*
X25009566Y-36974000D01*
X24976233Y-36907333D01*
X24942900Y-36874000D01*
X24876233Y-36840666D01*
X24709566Y-36840666D01*
X24609566Y-36874000D01*
X23942900Y-37540666D02*
X24342900Y-37540666D01*
X24142900Y-37540666D02*
X24142900Y-36840666D01*
X24209566Y-36940666D01*
X24276233Y-37007333D01*
X24342900Y-37040666D01*
X23709566Y-36840666D02*
X23276233Y-36840666D01*
X23509566Y-37107333D01*
X23409566Y-37107333D01*
X23342900Y-37140666D01*
X23309566Y-37174000D01*
X23276233Y-37240666D01*
X23276233Y-37407333D01*
X23309566Y-37474000D01*
X23342900Y-37507333D01*
X23409566Y-37540666D01*
X23609566Y-37540666D01*
X23676233Y-37507333D01*
X23709566Y-37474000D01*
X22876233Y-37140666D02*
X22942900Y-37107333D01*
X22976233Y-37074000D01*
X23009566Y-37007333D01*
X23009566Y-36974000D01*
X22976233Y-36907333D01*
X22942900Y-36874000D01*
X22876233Y-36840666D01*
X22742900Y-36840666D01*
X22676233Y-36874000D01*
X22642900Y-36907333D01*
X22609566Y-36974000D01*
X22609566Y-37007333D01*
X22642900Y-37074000D01*
X22676233Y-37107333D01*
X22742900Y-37140666D01*
X22876233Y-37140666D01*
X22942900Y-37174000D01*
X22976233Y-37207333D01*
X23009566Y-37274000D01*
X23009566Y-37407333D01*
X22976233Y-37474000D01*
X22942900Y-37507333D01*
X22876233Y-37540666D01*
X22742900Y-37540666D01*
X22676233Y-37507333D01*
X22642900Y-37474000D01*
X22609566Y-37407333D01*
X22609566Y-37274000D01*
X22642900Y-37207333D01*
X22676233Y-37174000D01*
X22742900Y-37140666D01*
D10*
%TO.C,RN5*%
X42283880Y-44013523D02*
X41807690Y-43680190D01*
X42283880Y-43442095D02*
X41283880Y-43442095D01*
X41283880Y-43823047D01*
X41331500Y-43918285D01*
X41379119Y-43965904D01*
X41474357Y-44013523D01*
X41617214Y-44013523D01*
X41712452Y-43965904D01*
X41760071Y-43918285D01*
X41807690Y-43823047D01*
X41807690Y-43442095D01*
X42283880Y-44442095D02*
X41283880Y-44442095D01*
X42283880Y-45013523D01*
X41283880Y-45013523D01*
X41283880Y-45965904D02*
X41283880Y-45489714D01*
X41760071Y-45442095D01*
X41712452Y-45489714D01*
X41664833Y-45584952D01*
X41664833Y-45823047D01*
X41712452Y-45918285D01*
X41760071Y-45965904D01*
X41855309Y-46013523D01*
X42093404Y-46013523D01*
X42188642Y-45965904D01*
X42236261Y-45918285D01*
X42283880Y-45823047D01*
X42283880Y-45584952D01*
X42236261Y-45489714D01*
X42188642Y-45442095D01*
X47883880Y-44108761D02*
X47883880Y-43537333D01*
X47883880Y-43823047D02*
X46883880Y-43823047D01*
X47026738Y-43727809D01*
X47121976Y-43632571D01*
X47169595Y-43537333D01*
X46883880Y-44727809D02*
X46883880Y-44823047D01*
X46931500Y-44918285D01*
X46979119Y-44965904D01*
X47074357Y-45013523D01*
X47264833Y-45061142D01*
X47502928Y-45061142D01*
X47693404Y-45013523D01*
X47788642Y-44965904D01*
X47836261Y-44918285D01*
X47883880Y-44823047D01*
X47883880Y-44727809D01*
X47836261Y-44632571D01*
X47788642Y-44584952D01*
X47693404Y-44537333D01*
X47502928Y-44489714D01*
X47264833Y-44489714D01*
X47074357Y-44537333D01*
X46979119Y-44584952D01*
X46931500Y-44632571D01*
X46883880Y-44727809D01*
X47883880Y-45489714D02*
X46883880Y-45489714D01*
X47502928Y-45584952D02*
X47883880Y-45870666D01*
X47217214Y-45870666D02*
X47598166Y-45489714D01*
%TO.C,Q15*%
X35909428Y-48439619D02*
X36004666Y-48392000D01*
X36099904Y-48296761D01*
X36242761Y-48153904D01*
X36338000Y-48106285D01*
X36433238Y-48106285D01*
X36385619Y-48344380D02*
X36480857Y-48296761D01*
X36576095Y-48201523D01*
X36623714Y-48011047D01*
X36623714Y-47677714D01*
X36576095Y-47487238D01*
X36480857Y-47392000D01*
X36385619Y-47344380D01*
X36195142Y-47344380D01*
X36099904Y-47392000D01*
X36004666Y-47487238D01*
X35957047Y-47677714D01*
X35957047Y-48011047D01*
X36004666Y-48201523D01*
X36099904Y-48296761D01*
X36195142Y-48344380D01*
X36385619Y-48344380D01*
X35004666Y-48344380D02*
X35576095Y-48344380D01*
X35290380Y-48344380D02*
X35290380Y-47344380D01*
X35385619Y-47487238D01*
X35480857Y-47582476D01*
X35576095Y-47630095D01*
X34099904Y-47344380D02*
X34576095Y-47344380D01*
X34623714Y-47820571D01*
X34576095Y-47772952D01*
X34480857Y-47725333D01*
X34242761Y-47725333D01*
X34147523Y-47772952D01*
X34099904Y-47820571D01*
X34052285Y-47915809D01*
X34052285Y-48153904D01*
X34099904Y-48249142D01*
X34147523Y-48296761D01*
X34242761Y-48344380D01*
X34480857Y-48344380D01*
X34576095Y-48296761D01*
X34623714Y-48249142D01*
D11*
X36954666Y-52642000D02*
X36854666Y-52675333D01*
X36821333Y-52708666D01*
X36788000Y-52775333D01*
X36788000Y-52875333D01*
X36821333Y-52942000D01*
X36854666Y-52975333D01*
X36921333Y-53008666D01*
X37188000Y-53008666D01*
X37188000Y-52308666D01*
X36954666Y-52308666D01*
X36888000Y-52342000D01*
X36854666Y-52375333D01*
X36821333Y-52442000D01*
X36821333Y-52508666D01*
X36854666Y-52575333D01*
X36888000Y-52608666D01*
X36954666Y-52642000D01*
X37188000Y-52642000D01*
X36521333Y-52975333D02*
X36421333Y-53008666D01*
X36254666Y-53008666D01*
X36188000Y-52975333D01*
X36154666Y-52942000D01*
X36121333Y-52875333D01*
X36121333Y-52808666D01*
X36154666Y-52742000D01*
X36188000Y-52708666D01*
X36254666Y-52675333D01*
X36388000Y-52642000D01*
X36454666Y-52608666D01*
X36488000Y-52575333D01*
X36521333Y-52508666D01*
X36521333Y-52442000D01*
X36488000Y-52375333D01*
X36454666Y-52342000D01*
X36388000Y-52308666D01*
X36221333Y-52308666D01*
X36121333Y-52342000D01*
X35854666Y-52975333D02*
X35754666Y-53008666D01*
X35588000Y-53008666D01*
X35521333Y-52975333D01*
X35488000Y-52942000D01*
X35454666Y-52875333D01*
X35454666Y-52808666D01*
X35488000Y-52742000D01*
X35521333Y-52708666D01*
X35588000Y-52675333D01*
X35721333Y-52642000D01*
X35788000Y-52608666D01*
X35821333Y-52575333D01*
X35854666Y-52508666D01*
X35854666Y-52442000D01*
X35821333Y-52375333D01*
X35788000Y-52342000D01*
X35721333Y-52308666D01*
X35554666Y-52308666D01*
X35454666Y-52342000D01*
X34788000Y-53008666D02*
X35188000Y-53008666D01*
X34988000Y-53008666D02*
X34988000Y-52308666D01*
X35054666Y-52408666D01*
X35121333Y-52475333D01*
X35188000Y-52508666D01*
X34554666Y-52308666D02*
X34121333Y-52308666D01*
X34354666Y-52575333D01*
X34254666Y-52575333D01*
X34188000Y-52608666D01*
X34154666Y-52642000D01*
X34121333Y-52708666D01*
X34121333Y-52875333D01*
X34154666Y-52942000D01*
X34188000Y-52975333D01*
X34254666Y-53008666D01*
X34454666Y-53008666D01*
X34521333Y-52975333D01*
X34554666Y-52942000D01*
X33721333Y-52608666D02*
X33788000Y-52575333D01*
X33821333Y-52542000D01*
X33854666Y-52475333D01*
X33854666Y-52442000D01*
X33821333Y-52375333D01*
X33788000Y-52342000D01*
X33721333Y-52308666D01*
X33588000Y-52308666D01*
X33521333Y-52342000D01*
X33488000Y-52375333D01*
X33454666Y-52442000D01*
X33454666Y-52475333D01*
X33488000Y-52542000D01*
X33521333Y-52575333D01*
X33588000Y-52608666D01*
X33721333Y-52608666D01*
X33788000Y-52642000D01*
X33821333Y-52675333D01*
X33854666Y-52742000D01*
X33854666Y-52875333D01*
X33821333Y-52942000D01*
X33788000Y-52975333D01*
X33721333Y-53008666D01*
X33588000Y-53008666D01*
X33521333Y-52975333D01*
X33488000Y-52942000D01*
X33454666Y-52875333D01*
X33454666Y-52742000D01*
X33488000Y-52675333D01*
X33521333Y-52642000D01*
X33588000Y-52608666D01*
D10*
%TO.C,C3*%
X59793142Y-66381333D02*
X59840761Y-66333714D01*
X59888380Y-66190857D01*
X59888380Y-66095619D01*
X59840761Y-65952761D01*
X59745523Y-65857523D01*
X59650285Y-65809904D01*
X59459809Y-65762285D01*
X59316952Y-65762285D01*
X59126476Y-65809904D01*
X59031238Y-65857523D01*
X58936000Y-65952761D01*
X58888380Y-66095619D01*
X58888380Y-66190857D01*
X58936000Y-66333714D01*
X58983619Y-66381333D01*
X58888380Y-66714666D02*
X58888380Y-67333714D01*
X59269333Y-67000380D01*
X59269333Y-67143238D01*
X59316952Y-67238476D01*
X59364571Y-67286095D01*
X59459809Y-67333714D01*
X59697904Y-67333714D01*
X59793142Y-67286095D01*
X59840761Y-67238476D01*
X59888380Y-67143238D01*
X59888380Y-66857523D01*
X59840761Y-66762285D01*
X59793142Y-66714666D01*
%TO.C,RN10*%
X58332666Y-53544380D02*
X58666000Y-53068190D01*
X58904095Y-53544380D02*
X58904095Y-52544380D01*
X58523142Y-52544380D01*
X58427904Y-52592000D01*
X58380285Y-52639619D01*
X58332666Y-52734857D01*
X58332666Y-52877714D01*
X58380285Y-52972952D01*
X58427904Y-53020571D01*
X58523142Y-53068190D01*
X58904095Y-53068190D01*
X57904095Y-53544380D02*
X57904095Y-52544380D01*
X57332666Y-53544380D01*
X57332666Y-52544380D01*
X56332666Y-53544380D02*
X56904095Y-53544380D01*
X56618380Y-53544380D02*
X56618380Y-52544380D01*
X56713619Y-52687238D01*
X56808857Y-52782476D01*
X56904095Y-52830095D01*
X55713619Y-52544380D02*
X55618380Y-52544380D01*
X55523142Y-52592000D01*
X55475523Y-52639619D01*
X55427904Y-52734857D01*
X55380285Y-52925333D01*
X55380285Y-53163428D01*
X55427904Y-53353904D01*
X55475523Y-53449142D01*
X55523142Y-53496761D01*
X55618380Y-53544380D01*
X55713619Y-53544380D01*
X55808857Y-53496761D01*
X55856476Y-53449142D01*
X55904095Y-53353904D01*
X55951714Y-53163428D01*
X55951714Y-52925333D01*
X55904095Y-52734857D01*
X55856476Y-52639619D01*
X55808857Y-52592000D01*
X55713619Y-52544380D01*
X57761238Y-47944380D02*
X58332666Y-47944380D01*
X58046952Y-47944380D02*
X58046952Y-46944380D01*
X58142190Y-47087238D01*
X58237428Y-47182476D01*
X58332666Y-47230095D01*
X57142190Y-46944380D02*
X57046952Y-46944380D01*
X56951714Y-46992000D01*
X56904095Y-47039619D01*
X56856476Y-47134857D01*
X56808857Y-47325333D01*
X56808857Y-47563428D01*
X56856476Y-47753904D01*
X56904095Y-47849142D01*
X56951714Y-47896761D01*
X57046952Y-47944380D01*
X57142190Y-47944380D01*
X57237428Y-47896761D01*
X57285047Y-47849142D01*
X57332666Y-47753904D01*
X57380285Y-47563428D01*
X57380285Y-47325333D01*
X57332666Y-47134857D01*
X57285047Y-47039619D01*
X57237428Y-46992000D01*
X57142190Y-46944380D01*
X56380285Y-47944380D02*
X56380285Y-46944380D01*
X56285047Y-47563428D02*
X55999333Y-47944380D01*
X55999333Y-47277714D02*
X56380285Y-47658666D01*
%TO.C,Q18*%
X64978628Y-42571619D02*
X65073866Y-42524000D01*
X65169104Y-42428761D01*
X65311961Y-42285904D01*
X65407200Y-42238285D01*
X65502438Y-42238285D01*
X65454819Y-42476380D02*
X65550057Y-42428761D01*
X65645295Y-42333523D01*
X65692914Y-42143047D01*
X65692914Y-41809714D01*
X65645295Y-41619238D01*
X65550057Y-41524000D01*
X65454819Y-41476380D01*
X65264342Y-41476380D01*
X65169104Y-41524000D01*
X65073866Y-41619238D01*
X65026247Y-41809714D01*
X65026247Y-42143047D01*
X65073866Y-42333523D01*
X65169104Y-42428761D01*
X65264342Y-42476380D01*
X65454819Y-42476380D01*
X64073866Y-42476380D02*
X64645295Y-42476380D01*
X64359580Y-42476380D02*
X64359580Y-41476380D01*
X64454819Y-41619238D01*
X64550057Y-41714476D01*
X64645295Y-41762095D01*
X63502438Y-41904952D02*
X63597676Y-41857333D01*
X63645295Y-41809714D01*
X63692914Y-41714476D01*
X63692914Y-41666857D01*
X63645295Y-41571619D01*
X63597676Y-41524000D01*
X63502438Y-41476380D01*
X63311961Y-41476380D01*
X63216723Y-41524000D01*
X63169104Y-41571619D01*
X63121485Y-41666857D01*
X63121485Y-41714476D01*
X63169104Y-41809714D01*
X63216723Y-41857333D01*
X63311961Y-41904952D01*
X63502438Y-41904952D01*
X63597676Y-41952571D01*
X63645295Y-42000190D01*
X63692914Y-42095428D01*
X63692914Y-42285904D01*
X63645295Y-42381142D01*
X63597676Y-42428761D01*
X63502438Y-42476380D01*
X63311961Y-42476380D01*
X63216723Y-42428761D01*
X63169104Y-42381142D01*
X63121485Y-42285904D01*
X63121485Y-42095428D01*
X63169104Y-42000190D01*
X63216723Y-41952571D01*
X63311961Y-41904952D01*
D11*
X66023866Y-37174000D02*
X65923866Y-37207333D01*
X65890533Y-37240666D01*
X65857200Y-37307333D01*
X65857200Y-37407333D01*
X65890533Y-37474000D01*
X65923866Y-37507333D01*
X65990533Y-37540666D01*
X66257200Y-37540666D01*
X66257200Y-36840666D01*
X66023866Y-36840666D01*
X65957200Y-36874000D01*
X65923866Y-36907333D01*
X65890533Y-36974000D01*
X65890533Y-37040666D01*
X65923866Y-37107333D01*
X65957200Y-37140666D01*
X66023866Y-37174000D01*
X66257200Y-37174000D01*
X65590533Y-37507333D02*
X65490533Y-37540666D01*
X65323866Y-37540666D01*
X65257200Y-37507333D01*
X65223866Y-37474000D01*
X65190533Y-37407333D01*
X65190533Y-37340666D01*
X65223866Y-37274000D01*
X65257200Y-37240666D01*
X65323866Y-37207333D01*
X65457200Y-37174000D01*
X65523866Y-37140666D01*
X65557200Y-37107333D01*
X65590533Y-37040666D01*
X65590533Y-36974000D01*
X65557200Y-36907333D01*
X65523866Y-36874000D01*
X65457200Y-36840666D01*
X65290533Y-36840666D01*
X65190533Y-36874000D01*
X64923866Y-37507333D02*
X64823866Y-37540666D01*
X64657200Y-37540666D01*
X64590533Y-37507333D01*
X64557200Y-37474000D01*
X64523866Y-37407333D01*
X64523866Y-37340666D01*
X64557200Y-37274000D01*
X64590533Y-37240666D01*
X64657200Y-37207333D01*
X64790533Y-37174000D01*
X64857200Y-37140666D01*
X64890533Y-37107333D01*
X64923866Y-37040666D01*
X64923866Y-36974000D01*
X64890533Y-36907333D01*
X64857200Y-36874000D01*
X64790533Y-36840666D01*
X64623866Y-36840666D01*
X64523866Y-36874000D01*
X63857200Y-37540666D02*
X64257200Y-37540666D01*
X64057200Y-37540666D02*
X64057200Y-36840666D01*
X64123866Y-36940666D01*
X64190533Y-37007333D01*
X64257200Y-37040666D01*
X63623866Y-36840666D02*
X63190533Y-36840666D01*
X63423866Y-37107333D01*
X63323866Y-37107333D01*
X63257200Y-37140666D01*
X63223866Y-37174000D01*
X63190533Y-37240666D01*
X63190533Y-37407333D01*
X63223866Y-37474000D01*
X63257200Y-37507333D01*
X63323866Y-37540666D01*
X63523866Y-37540666D01*
X63590533Y-37507333D01*
X63623866Y-37474000D01*
X62790533Y-37140666D02*
X62857200Y-37107333D01*
X62890533Y-37074000D01*
X62923866Y-37007333D01*
X62923866Y-36974000D01*
X62890533Y-36907333D01*
X62857200Y-36874000D01*
X62790533Y-36840666D01*
X62657200Y-36840666D01*
X62590533Y-36874000D01*
X62557200Y-36907333D01*
X62523866Y-36974000D01*
X62523866Y-37007333D01*
X62557200Y-37074000D01*
X62590533Y-37107333D01*
X62657200Y-37140666D01*
X62790533Y-37140666D01*
X62857200Y-37174000D01*
X62890533Y-37207333D01*
X62923866Y-37274000D01*
X62923866Y-37407333D01*
X62890533Y-37474000D01*
X62857200Y-37507333D01*
X62790533Y-37540666D01*
X62657200Y-37540666D01*
X62590533Y-37507333D01*
X62557200Y-37474000D01*
X62523866Y-37407333D01*
X62523866Y-37274000D01*
X62557200Y-37207333D01*
X62590533Y-37174000D01*
X62657200Y-37140666D01*
D10*
%TO.C,RN9*%
X41392976Y-53544380D02*
X41726309Y-53068190D01*
X41964404Y-53544380D02*
X41964404Y-52544380D01*
X41583452Y-52544380D01*
X41488214Y-52592000D01*
X41440595Y-52639619D01*
X41392976Y-52734857D01*
X41392976Y-52877714D01*
X41440595Y-52972952D01*
X41488214Y-53020571D01*
X41583452Y-53068190D01*
X41964404Y-53068190D01*
X40964404Y-53544380D02*
X40964404Y-52544380D01*
X40392976Y-53544380D01*
X40392976Y-52544380D01*
X39869166Y-53544380D02*
X39678690Y-53544380D01*
X39583452Y-53496761D01*
X39535833Y-53449142D01*
X39440595Y-53306285D01*
X39392976Y-53115809D01*
X39392976Y-52734857D01*
X39440595Y-52639619D01*
X39488214Y-52592000D01*
X39583452Y-52544380D01*
X39773928Y-52544380D01*
X39869166Y-52592000D01*
X39916785Y-52639619D01*
X39964404Y-52734857D01*
X39964404Y-52972952D01*
X39916785Y-53068190D01*
X39869166Y-53115809D01*
X39773928Y-53163428D01*
X39583452Y-53163428D01*
X39488214Y-53115809D01*
X39440595Y-53068190D01*
X39392976Y-52972952D01*
X41297738Y-47944380D02*
X41869166Y-47944380D01*
X41583452Y-47944380D02*
X41583452Y-46944380D01*
X41678690Y-47087238D01*
X41773928Y-47182476D01*
X41869166Y-47230095D01*
X40678690Y-46944380D02*
X40583452Y-46944380D01*
X40488214Y-46992000D01*
X40440595Y-47039619D01*
X40392976Y-47134857D01*
X40345357Y-47325333D01*
X40345357Y-47563428D01*
X40392976Y-47753904D01*
X40440595Y-47849142D01*
X40488214Y-47896761D01*
X40583452Y-47944380D01*
X40678690Y-47944380D01*
X40773928Y-47896761D01*
X40821547Y-47849142D01*
X40869166Y-47753904D01*
X40916785Y-47563428D01*
X40916785Y-47325333D01*
X40869166Y-47134857D01*
X40821547Y-47039619D01*
X40773928Y-46992000D01*
X40678690Y-46944380D01*
X39916785Y-47944380D02*
X39916785Y-46944380D01*
X39821547Y-47563428D02*
X39535833Y-47944380D01*
X39535833Y-47277714D02*
X39916785Y-47658666D01*
%TO.C,Q2*%
X74160338Y-84227619D02*
X74255576Y-84180000D01*
X74350814Y-84084761D01*
X74493671Y-83941904D01*
X74588909Y-83894285D01*
X74684147Y-83894285D01*
X74636528Y-84132380D02*
X74731766Y-84084761D01*
X74827004Y-83989523D01*
X74874623Y-83799047D01*
X74874623Y-83465714D01*
X74827004Y-83275238D01*
X74731766Y-83180000D01*
X74636528Y-83132380D01*
X74446052Y-83132380D01*
X74350814Y-83180000D01*
X74255576Y-83275238D01*
X74207957Y-83465714D01*
X74207957Y-83799047D01*
X74255576Y-83989523D01*
X74350814Y-84084761D01*
X74446052Y-84132380D01*
X74636528Y-84132380D01*
X73827004Y-83227619D02*
X73779385Y-83180000D01*
X73684147Y-83132380D01*
X73446052Y-83132380D01*
X73350814Y-83180000D01*
X73303195Y-83227619D01*
X73255576Y-83322857D01*
X73255576Y-83418095D01*
X73303195Y-83560952D01*
X73874623Y-84132380D01*
X73255576Y-84132380D01*
D11*
X75681766Y-78830000D02*
X75581766Y-78863333D01*
X75548433Y-78896666D01*
X75515100Y-78963333D01*
X75515100Y-79063333D01*
X75548433Y-79130000D01*
X75581766Y-79163333D01*
X75648433Y-79196666D01*
X75915100Y-79196666D01*
X75915100Y-78496666D01*
X75681766Y-78496666D01*
X75615100Y-78530000D01*
X75581766Y-78563333D01*
X75548433Y-78630000D01*
X75548433Y-78696666D01*
X75581766Y-78763333D01*
X75615100Y-78796666D01*
X75681766Y-78830000D01*
X75915100Y-78830000D01*
X75248433Y-79163333D02*
X75148433Y-79196666D01*
X74981766Y-79196666D01*
X74915100Y-79163333D01*
X74881766Y-79130000D01*
X74848433Y-79063333D01*
X74848433Y-78996666D01*
X74881766Y-78930000D01*
X74915100Y-78896666D01*
X74981766Y-78863333D01*
X75115100Y-78830000D01*
X75181766Y-78796666D01*
X75215100Y-78763333D01*
X75248433Y-78696666D01*
X75248433Y-78630000D01*
X75215100Y-78563333D01*
X75181766Y-78530000D01*
X75115100Y-78496666D01*
X74948433Y-78496666D01*
X74848433Y-78530000D01*
X74581766Y-79163333D02*
X74481766Y-79196666D01*
X74315100Y-79196666D01*
X74248433Y-79163333D01*
X74215100Y-79130000D01*
X74181766Y-79063333D01*
X74181766Y-78996666D01*
X74215100Y-78930000D01*
X74248433Y-78896666D01*
X74315100Y-78863333D01*
X74448433Y-78830000D01*
X74515100Y-78796666D01*
X74548433Y-78763333D01*
X74581766Y-78696666D01*
X74581766Y-78630000D01*
X74548433Y-78563333D01*
X74515100Y-78530000D01*
X74448433Y-78496666D01*
X74281766Y-78496666D01*
X74181766Y-78530000D01*
X73515100Y-79196666D02*
X73915100Y-79196666D01*
X73715100Y-79196666D02*
X73715100Y-78496666D01*
X73781766Y-78596666D01*
X73848433Y-78663333D01*
X73915100Y-78696666D01*
X73281766Y-78496666D02*
X72848433Y-78496666D01*
X73081766Y-78763333D01*
X72981766Y-78763333D01*
X72915100Y-78796666D01*
X72881766Y-78830000D01*
X72848433Y-78896666D01*
X72848433Y-79063333D01*
X72881766Y-79130000D01*
X72915100Y-79163333D01*
X72981766Y-79196666D01*
X73181766Y-79196666D01*
X73248433Y-79163333D01*
X73281766Y-79130000D01*
X72448433Y-78796666D02*
X72515100Y-78763333D01*
X72548433Y-78730000D01*
X72581766Y-78663333D01*
X72581766Y-78630000D01*
X72548433Y-78563333D01*
X72515100Y-78530000D01*
X72448433Y-78496666D01*
X72315100Y-78496666D01*
X72248433Y-78530000D01*
X72215100Y-78563333D01*
X72181766Y-78630000D01*
X72181766Y-78663333D01*
X72215100Y-78730000D01*
X72248433Y-78763333D01*
X72315100Y-78796666D01*
X72448433Y-78796666D01*
X72515100Y-78830000D01*
X72548433Y-78863333D01*
X72581766Y-78930000D01*
X72581766Y-79063333D01*
X72548433Y-79130000D01*
X72515100Y-79163333D01*
X72448433Y-79196666D01*
X72315100Y-79196666D01*
X72248433Y-79163333D01*
X72215100Y-79130000D01*
X72181766Y-79063333D01*
X72181766Y-78930000D01*
X72215100Y-78863333D01*
X72248433Y-78830000D01*
X72315100Y-78796666D01*
D10*
%TO.C,Q14*%
X30174928Y-48439619D02*
X30270166Y-48392000D01*
X30365404Y-48296761D01*
X30508261Y-48153904D01*
X30603500Y-48106285D01*
X30698738Y-48106285D01*
X30651119Y-48344380D02*
X30746357Y-48296761D01*
X30841595Y-48201523D01*
X30889214Y-48011047D01*
X30889214Y-47677714D01*
X30841595Y-47487238D01*
X30746357Y-47392000D01*
X30651119Y-47344380D01*
X30460642Y-47344380D01*
X30365404Y-47392000D01*
X30270166Y-47487238D01*
X30222547Y-47677714D01*
X30222547Y-48011047D01*
X30270166Y-48201523D01*
X30365404Y-48296761D01*
X30460642Y-48344380D01*
X30651119Y-48344380D01*
X29270166Y-48344380D02*
X29841595Y-48344380D01*
X29555880Y-48344380D02*
X29555880Y-47344380D01*
X29651119Y-47487238D01*
X29746357Y-47582476D01*
X29841595Y-47630095D01*
X28413023Y-47677714D02*
X28413023Y-48344380D01*
X28651119Y-47296761D02*
X28889214Y-48011047D01*
X28270166Y-48011047D01*
D11*
X31220166Y-52642000D02*
X31120166Y-52675333D01*
X31086833Y-52708666D01*
X31053500Y-52775333D01*
X31053500Y-52875333D01*
X31086833Y-52942000D01*
X31120166Y-52975333D01*
X31186833Y-53008666D01*
X31453500Y-53008666D01*
X31453500Y-52308666D01*
X31220166Y-52308666D01*
X31153500Y-52342000D01*
X31120166Y-52375333D01*
X31086833Y-52442000D01*
X31086833Y-52508666D01*
X31120166Y-52575333D01*
X31153500Y-52608666D01*
X31220166Y-52642000D01*
X31453500Y-52642000D01*
X30786833Y-52975333D02*
X30686833Y-53008666D01*
X30520166Y-53008666D01*
X30453500Y-52975333D01*
X30420166Y-52942000D01*
X30386833Y-52875333D01*
X30386833Y-52808666D01*
X30420166Y-52742000D01*
X30453500Y-52708666D01*
X30520166Y-52675333D01*
X30653500Y-52642000D01*
X30720166Y-52608666D01*
X30753500Y-52575333D01*
X30786833Y-52508666D01*
X30786833Y-52442000D01*
X30753500Y-52375333D01*
X30720166Y-52342000D01*
X30653500Y-52308666D01*
X30486833Y-52308666D01*
X30386833Y-52342000D01*
X30120166Y-52975333D02*
X30020166Y-53008666D01*
X29853500Y-53008666D01*
X29786833Y-52975333D01*
X29753500Y-52942000D01*
X29720166Y-52875333D01*
X29720166Y-52808666D01*
X29753500Y-52742000D01*
X29786833Y-52708666D01*
X29853500Y-52675333D01*
X29986833Y-52642000D01*
X30053500Y-52608666D01*
X30086833Y-52575333D01*
X30120166Y-52508666D01*
X30120166Y-52442000D01*
X30086833Y-52375333D01*
X30053500Y-52342000D01*
X29986833Y-52308666D01*
X29820166Y-52308666D01*
X29720166Y-52342000D01*
X29053500Y-53008666D02*
X29453500Y-53008666D01*
X29253500Y-53008666D02*
X29253500Y-52308666D01*
X29320166Y-52408666D01*
X29386833Y-52475333D01*
X29453500Y-52508666D01*
X28820166Y-52308666D02*
X28386833Y-52308666D01*
X28620166Y-52575333D01*
X28520166Y-52575333D01*
X28453500Y-52608666D01*
X28420166Y-52642000D01*
X28386833Y-52708666D01*
X28386833Y-52875333D01*
X28420166Y-52942000D01*
X28453500Y-52975333D01*
X28520166Y-53008666D01*
X28720166Y-53008666D01*
X28786833Y-52975333D01*
X28820166Y-52942000D01*
X27986833Y-52608666D02*
X28053500Y-52575333D01*
X28086833Y-52542000D01*
X28120166Y-52475333D01*
X28120166Y-52442000D01*
X28086833Y-52375333D01*
X28053500Y-52342000D01*
X27986833Y-52308666D01*
X27853500Y-52308666D01*
X27786833Y-52342000D01*
X27753500Y-52375333D01*
X27720166Y-52442000D01*
X27720166Y-52475333D01*
X27753500Y-52542000D01*
X27786833Y-52575333D01*
X27853500Y-52608666D01*
X27986833Y-52608666D01*
X28053500Y-52642000D01*
X28086833Y-52675333D01*
X28120166Y-52742000D01*
X28120166Y-52875333D01*
X28086833Y-52942000D01*
X28053500Y-52975333D01*
X27986833Y-53008666D01*
X27853500Y-53008666D01*
X27786833Y-52975333D01*
X27753500Y-52942000D01*
X27720166Y-52875333D01*
X27720166Y-52742000D01*
X27753500Y-52675333D01*
X27786833Y-52642000D01*
X27853500Y-52608666D01*
D10*
%TO.C,Q19*%
X52372928Y-48439619D02*
X52468166Y-48392000D01*
X52563404Y-48296761D01*
X52706261Y-48153904D01*
X52801500Y-48106285D01*
X52896738Y-48106285D01*
X52849119Y-48344380D02*
X52944357Y-48296761D01*
X53039595Y-48201523D01*
X53087214Y-48011047D01*
X53087214Y-47677714D01*
X53039595Y-47487238D01*
X52944357Y-47392000D01*
X52849119Y-47344380D01*
X52658642Y-47344380D01*
X52563404Y-47392000D01*
X52468166Y-47487238D01*
X52420547Y-47677714D01*
X52420547Y-48011047D01*
X52468166Y-48201523D01*
X52563404Y-48296761D01*
X52658642Y-48344380D01*
X52849119Y-48344380D01*
X51468166Y-48344380D02*
X52039595Y-48344380D01*
X51753880Y-48344380D02*
X51753880Y-47344380D01*
X51849119Y-47487238D01*
X51944357Y-47582476D01*
X52039595Y-47630095D01*
X50991976Y-48344380D02*
X50801500Y-48344380D01*
X50706261Y-48296761D01*
X50658642Y-48249142D01*
X50563404Y-48106285D01*
X50515785Y-47915809D01*
X50515785Y-47534857D01*
X50563404Y-47439619D01*
X50611023Y-47392000D01*
X50706261Y-47344380D01*
X50896738Y-47344380D01*
X50991976Y-47392000D01*
X51039595Y-47439619D01*
X51087214Y-47534857D01*
X51087214Y-47772952D01*
X51039595Y-47868190D01*
X50991976Y-47915809D01*
X50896738Y-47963428D01*
X50706261Y-47963428D01*
X50611023Y-47915809D01*
X50563404Y-47868190D01*
X50515785Y-47772952D01*
D11*
X53418166Y-52642000D02*
X53318166Y-52675333D01*
X53284833Y-52708666D01*
X53251500Y-52775333D01*
X53251500Y-52875333D01*
X53284833Y-52942000D01*
X53318166Y-52975333D01*
X53384833Y-53008666D01*
X53651500Y-53008666D01*
X53651500Y-52308666D01*
X53418166Y-52308666D01*
X53351500Y-52342000D01*
X53318166Y-52375333D01*
X53284833Y-52442000D01*
X53284833Y-52508666D01*
X53318166Y-52575333D01*
X53351500Y-52608666D01*
X53418166Y-52642000D01*
X53651500Y-52642000D01*
X52984833Y-52975333D02*
X52884833Y-53008666D01*
X52718166Y-53008666D01*
X52651500Y-52975333D01*
X52618166Y-52942000D01*
X52584833Y-52875333D01*
X52584833Y-52808666D01*
X52618166Y-52742000D01*
X52651500Y-52708666D01*
X52718166Y-52675333D01*
X52851500Y-52642000D01*
X52918166Y-52608666D01*
X52951500Y-52575333D01*
X52984833Y-52508666D01*
X52984833Y-52442000D01*
X52951500Y-52375333D01*
X52918166Y-52342000D01*
X52851500Y-52308666D01*
X52684833Y-52308666D01*
X52584833Y-52342000D01*
X52318166Y-52975333D02*
X52218166Y-53008666D01*
X52051500Y-53008666D01*
X51984833Y-52975333D01*
X51951500Y-52942000D01*
X51918166Y-52875333D01*
X51918166Y-52808666D01*
X51951500Y-52742000D01*
X51984833Y-52708666D01*
X52051500Y-52675333D01*
X52184833Y-52642000D01*
X52251500Y-52608666D01*
X52284833Y-52575333D01*
X52318166Y-52508666D01*
X52318166Y-52442000D01*
X52284833Y-52375333D01*
X52251500Y-52342000D01*
X52184833Y-52308666D01*
X52018166Y-52308666D01*
X51918166Y-52342000D01*
X51251500Y-53008666D02*
X51651500Y-53008666D01*
X51451500Y-53008666D02*
X51451500Y-52308666D01*
X51518166Y-52408666D01*
X51584833Y-52475333D01*
X51651500Y-52508666D01*
X51018166Y-52308666D02*
X50584833Y-52308666D01*
X50818166Y-52575333D01*
X50718166Y-52575333D01*
X50651500Y-52608666D01*
X50618166Y-52642000D01*
X50584833Y-52708666D01*
X50584833Y-52875333D01*
X50618166Y-52942000D01*
X50651500Y-52975333D01*
X50718166Y-53008666D01*
X50918166Y-53008666D01*
X50984833Y-52975333D01*
X51018166Y-52942000D01*
X50184833Y-52608666D02*
X50251500Y-52575333D01*
X50284833Y-52542000D01*
X50318166Y-52475333D01*
X50318166Y-52442000D01*
X50284833Y-52375333D01*
X50251500Y-52342000D01*
X50184833Y-52308666D01*
X50051500Y-52308666D01*
X49984833Y-52342000D01*
X49951500Y-52375333D01*
X49918166Y-52442000D01*
X49918166Y-52475333D01*
X49951500Y-52542000D01*
X49984833Y-52575333D01*
X50051500Y-52608666D01*
X50184833Y-52608666D01*
X50251500Y-52642000D01*
X50284833Y-52675333D01*
X50318166Y-52742000D01*
X50318166Y-52875333D01*
X50284833Y-52942000D01*
X50251500Y-52975333D01*
X50184833Y-53008666D01*
X50051500Y-53008666D01*
X49984833Y-52975333D01*
X49951500Y-52942000D01*
X49918166Y-52875333D01*
X49918166Y-52742000D01*
X49951500Y-52675333D01*
X49984833Y-52642000D01*
X50051500Y-52608666D01*
D10*
%TO.C,Q1*%
X80691738Y-84227619D02*
X80786976Y-84180000D01*
X80882214Y-84084761D01*
X81025071Y-83941904D01*
X81120309Y-83894285D01*
X81215547Y-83894285D01*
X81167928Y-84132380D02*
X81263166Y-84084761D01*
X81358404Y-83989523D01*
X81406023Y-83799047D01*
X81406023Y-83465714D01*
X81358404Y-83275238D01*
X81263166Y-83180000D01*
X81167928Y-83132380D01*
X80977452Y-83132380D01*
X80882214Y-83180000D01*
X80786976Y-83275238D01*
X80739357Y-83465714D01*
X80739357Y-83799047D01*
X80786976Y-83989523D01*
X80882214Y-84084761D01*
X80977452Y-84132380D01*
X81167928Y-84132380D01*
X79786976Y-84132380D02*
X80358404Y-84132380D01*
X80072690Y-84132380D02*
X80072690Y-83132380D01*
X80167928Y-83275238D01*
X80263166Y-83370476D01*
X80358404Y-83418095D01*
D11*
X82213166Y-78830000D02*
X82113166Y-78863333D01*
X82079833Y-78896666D01*
X82046500Y-78963333D01*
X82046500Y-79063333D01*
X82079833Y-79130000D01*
X82113166Y-79163333D01*
X82179833Y-79196666D01*
X82446500Y-79196666D01*
X82446500Y-78496666D01*
X82213166Y-78496666D01*
X82146500Y-78530000D01*
X82113166Y-78563333D01*
X82079833Y-78630000D01*
X82079833Y-78696666D01*
X82113166Y-78763333D01*
X82146500Y-78796666D01*
X82213166Y-78830000D01*
X82446500Y-78830000D01*
X81779833Y-79163333D02*
X81679833Y-79196666D01*
X81513166Y-79196666D01*
X81446500Y-79163333D01*
X81413166Y-79130000D01*
X81379833Y-79063333D01*
X81379833Y-78996666D01*
X81413166Y-78930000D01*
X81446500Y-78896666D01*
X81513166Y-78863333D01*
X81646500Y-78830000D01*
X81713166Y-78796666D01*
X81746500Y-78763333D01*
X81779833Y-78696666D01*
X81779833Y-78630000D01*
X81746500Y-78563333D01*
X81713166Y-78530000D01*
X81646500Y-78496666D01*
X81479833Y-78496666D01*
X81379833Y-78530000D01*
X81113166Y-79163333D02*
X81013166Y-79196666D01*
X80846500Y-79196666D01*
X80779833Y-79163333D01*
X80746500Y-79130000D01*
X80713166Y-79063333D01*
X80713166Y-78996666D01*
X80746500Y-78930000D01*
X80779833Y-78896666D01*
X80846500Y-78863333D01*
X80979833Y-78830000D01*
X81046500Y-78796666D01*
X81079833Y-78763333D01*
X81113166Y-78696666D01*
X81113166Y-78630000D01*
X81079833Y-78563333D01*
X81046500Y-78530000D01*
X80979833Y-78496666D01*
X80813166Y-78496666D01*
X80713166Y-78530000D01*
X80046500Y-79196666D02*
X80446500Y-79196666D01*
X80246500Y-79196666D02*
X80246500Y-78496666D01*
X80313166Y-78596666D01*
X80379833Y-78663333D01*
X80446500Y-78696666D01*
X79813166Y-78496666D02*
X79379833Y-78496666D01*
X79613166Y-78763333D01*
X79513166Y-78763333D01*
X79446500Y-78796666D01*
X79413166Y-78830000D01*
X79379833Y-78896666D01*
X79379833Y-79063333D01*
X79413166Y-79130000D01*
X79446500Y-79163333D01*
X79513166Y-79196666D01*
X79713166Y-79196666D01*
X79779833Y-79163333D01*
X79813166Y-79130000D01*
X78979833Y-78796666D02*
X79046500Y-78763333D01*
X79079833Y-78730000D01*
X79113166Y-78663333D01*
X79113166Y-78630000D01*
X79079833Y-78563333D01*
X79046500Y-78530000D01*
X78979833Y-78496666D01*
X78846500Y-78496666D01*
X78779833Y-78530000D01*
X78746500Y-78563333D01*
X78713166Y-78630000D01*
X78713166Y-78663333D01*
X78746500Y-78730000D01*
X78779833Y-78763333D01*
X78846500Y-78796666D01*
X78979833Y-78796666D01*
X79046500Y-78830000D01*
X79079833Y-78863333D01*
X79113166Y-78930000D01*
X79113166Y-79063333D01*
X79079833Y-79130000D01*
X79046500Y-79163333D01*
X78979833Y-79196666D01*
X78846500Y-79196666D01*
X78779833Y-79163333D01*
X78746500Y-79130000D01*
X78713166Y-79063333D01*
X78713166Y-78930000D01*
X78746500Y-78863333D01*
X78779833Y-78830000D01*
X78846500Y-78796666D01*
D10*
%TO.C,RN2*%
X27043880Y-44013523D02*
X26567690Y-43680190D01*
X27043880Y-43442095D02*
X26043880Y-43442095D01*
X26043880Y-43823047D01*
X26091500Y-43918285D01*
X26139119Y-43965904D01*
X26234357Y-44013523D01*
X26377214Y-44013523D01*
X26472452Y-43965904D01*
X26520071Y-43918285D01*
X26567690Y-43823047D01*
X26567690Y-43442095D01*
X27043880Y-44442095D02*
X26043880Y-44442095D01*
X27043880Y-45013523D01*
X26043880Y-45013523D01*
X26139119Y-45442095D02*
X26091500Y-45489714D01*
X26043880Y-45584952D01*
X26043880Y-45823047D01*
X26091500Y-45918285D01*
X26139119Y-45965904D01*
X26234357Y-46013523D01*
X26329595Y-46013523D01*
X26472452Y-45965904D01*
X27043880Y-45394476D01*
X27043880Y-46013523D01*
X32643880Y-44108761D02*
X32643880Y-43537333D01*
X32643880Y-43823047D02*
X31643880Y-43823047D01*
X31786738Y-43727809D01*
X31881976Y-43632571D01*
X31929595Y-43537333D01*
X31643880Y-44727809D02*
X31643880Y-44823047D01*
X31691500Y-44918285D01*
X31739119Y-44965904D01*
X31834357Y-45013523D01*
X32024833Y-45061142D01*
X32262928Y-45061142D01*
X32453404Y-45013523D01*
X32548642Y-44965904D01*
X32596261Y-44918285D01*
X32643880Y-44823047D01*
X32643880Y-44727809D01*
X32596261Y-44632571D01*
X32548642Y-44584952D01*
X32453404Y-44537333D01*
X32262928Y-44489714D01*
X32024833Y-44489714D01*
X31834357Y-44537333D01*
X31739119Y-44584952D01*
X31691500Y-44632571D01*
X31643880Y-44727809D01*
X32643880Y-45489714D02*
X31643880Y-45489714D01*
X32262928Y-45584952D02*
X32643880Y-45870666D01*
X31977214Y-45870666D02*
X32358166Y-45489714D01*
%TO.C,RN1*%
X68313580Y-86939523D02*
X67837390Y-86606190D01*
X68313580Y-86368095D02*
X67313580Y-86368095D01*
X67313580Y-86749047D01*
X67361200Y-86844285D01*
X67408819Y-86891904D01*
X67504057Y-86939523D01*
X67646914Y-86939523D01*
X67742152Y-86891904D01*
X67789771Y-86844285D01*
X67837390Y-86749047D01*
X67837390Y-86368095D01*
X68313580Y-87368095D02*
X67313580Y-87368095D01*
X68313580Y-87939523D01*
X67313580Y-87939523D01*
X68313580Y-88939523D02*
X68313580Y-88368095D01*
X68313580Y-88653809D02*
X67313580Y-88653809D01*
X67456438Y-88558571D01*
X67551676Y-88463333D01*
X67599295Y-88368095D01*
X62713580Y-87034761D02*
X62713580Y-86463333D01*
X62713580Y-86749047D02*
X61713580Y-86749047D01*
X61856438Y-86653809D01*
X61951676Y-86558571D01*
X61999295Y-86463333D01*
X61713580Y-87653809D02*
X61713580Y-87749047D01*
X61761200Y-87844285D01*
X61808819Y-87891904D01*
X61904057Y-87939523D01*
X62094533Y-87987142D01*
X62332628Y-87987142D01*
X62523104Y-87939523D01*
X62618342Y-87891904D01*
X62665961Y-87844285D01*
X62713580Y-87749047D01*
X62713580Y-87653809D01*
X62665961Y-87558571D01*
X62618342Y-87510952D01*
X62523104Y-87463333D01*
X62332628Y-87415714D01*
X62094533Y-87415714D01*
X61904057Y-87463333D01*
X61808819Y-87510952D01*
X61761200Y-87558571D01*
X61713580Y-87653809D01*
X62713580Y-88415714D02*
X61713580Y-88415714D01*
X62332628Y-88510952D02*
X62713580Y-88796666D01*
X62046914Y-88796666D02*
X62427866Y-88415714D01*
%TO.C,Q9*%
X41503138Y-84227619D02*
X41598376Y-84180000D01*
X41693614Y-84084761D01*
X41836471Y-83941904D01*
X41931709Y-83894285D01*
X42026947Y-83894285D01*
X41979328Y-84132380D02*
X42074566Y-84084761D01*
X42169804Y-83989523D01*
X42217423Y-83799047D01*
X42217423Y-83465714D01*
X42169804Y-83275238D01*
X42074566Y-83180000D01*
X41979328Y-83132380D01*
X41788852Y-83132380D01*
X41693614Y-83180000D01*
X41598376Y-83275238D01*
X41550757Y-83465714D01*
X41550757Y-83799047D01*
X41598376Y-83989523D01*
X41693614Y-84084761D01*
X41788852Y-84132380D01*
X41979328Y-84132380D01*
X41074566Y-84132380D02*
X40884090Y-84132380D01*
X40788852Y-84084761D01*
X40741233Y-84037142D01*
X40645995Y-83894285D01*
X40598376Y-83703809D01*
X40598376Y-83322857D01*
X40645995Y-83227619D01*
X40693614Y-83180000D01*
X40788852Y-83132380D01*
X40979328Y-83132380D01*
X41074566Y-83180000D01*
X41122185Y-83227619D01*
X41169804Y-83322857D01*
X41169804Y-83560952D01*
X41122185Y-83656190D01*
X41074566Y-83703809D01*
X40979328Y-83751428D01*
X40788852Y-83751428D01*
X40693614Y-83703809D01*
X40645995Y-83656190D01*
X40598376Y-83560952D01*
D11*
X43024566Y-78830000D02*
X42924566Y-78863333D01*
X42891233Y-78896666D01*
X42857900Y-78963333D01*
X42857900Y-79063333D01*
X42891233Y-79130000D01*
X42924566Y-79163333D01*
X42991233Y-79196666D01*
X43257900Y-79196666D01*
X43257900Y-78496666D01*
X43024566Y-78496666D01*
X42957900Y-78530000D01*
X42924566Y-78563333D01*
X42891233Y-78630000D01*
X42891233Y-78696666D01*
X42924566Y-78763333D01*
X42957900Y-78796666D01*
X43024566Y-78830000D01*
X43257900Y-78830000D01*
X42591233Y-79163333D02*
X42491233Y-79196666D01*
X42324566Y-79196666D01*
X42257900Y-79163333D01*
X42224566Y-79130000D01*
X42191233Y-79063333D01*
X42191233Y-78996666D01*
X42224566Y-78930000D01*
X42257900Y-78896666D01*
X42324566Y-78863333D01*
X42457900Y-78830000D01*
X42524566Y-78796666D01*
X42557900Y-78763333D01*
X42591233Y-78696666D01*
X42591233Y-78630000D01*
X42557900Y-78563333D01*
X42524566Y-78530000D01*
X42457900Y-78496666D01*
X42291233Y-78496666D01*
X42191233Y-78530000D01*
X41924566Y-79163333D02*
X41824566Y-79196666D01*
X41657900Y-79196666D01*
X41591233Y-79163333D01*
X41557900Y-79130000D01*
X41524566Y-79063333D01*
X41524566Y-78996666D01*
X41557900Y-78930000D01*
X41591233Y-78896666D01*
X41657900Y-78863333D01*
X41791233Y-78830000D01*
X41857900Y-78796666D01*
X41891233Y-78763333D01*
X41924566Y-78696666D01*
X41924566Y-78630000D01*
X41891233Y-78563333D01*
X41857900Y-78530000D01*
X41791233Y-78496666D01*
X41624566Y-78496666D01*
X41524566Y-78530000D01*
X40857900Y-79196666D02*
X41257900Y-79196666D01*
X41057900Y-79196666D02*
X41057900Y-78496666D01*
X41124566Y-78596666D01*
X41191233Y-78663333D01*
X41257900Y-78696666D01*
X40624566Y-78496666D02*
X40191233Y-78496666D01*
X40424566Y-78763333D01*
X40324566Y-78763333D01*
X40257900Y-78796666D01*
X40224566Y-78830000D01*
X40191233Y-78896666D01*
X40191233Y-79063333D01*
X40224566Y-79130000D01*
X40257900Y-79163333D01*
X40324566Y-79196666D01*
X40524566Y-79196666D01*
X40591233Y-79163333D01*
X40624566Y-79130000D01*
X39791233Y-78796666D02*
X39857900Y-78763333D01*
X39891233Y-78730000D01*
X39924566Y-78663333D01*
X39924566Y-78630000D01*
X39891233Y-78563333D01*
X39857900Y-78530000D01*
X39791233Y-78496666D01*
X39657900Y-78496666D01*
X39591233Y-78530000D01*
X39557900Y-78563333D01*
X39524566Y-78630000D01*
X39524566Y-78663333D01*
X39557900Y-78730000D01*
X39591233Y-78763333D01*
X39657900Y-78796666D01*
X39791233Y-78796666D01*
X39857900Y-78830000D01*
X39891233Y-78863333D01*
X39924566Y-78930000D01*
X39924566Y-79063333D01*
X39891233Y-79130000D01*
X39857900Y-79163333D01*
X39791233Y-79196666D01*
X39657900Y-79196666D01*
X39591233Y-79163333D01*
X39557900Y-79130000D01*
X39524566Y-79063333D01*
X39524566Y-78930000D01*
X39557900Y-78863333D01*
X39591233Y-78830000D01*
X39657900Y-78796666D01*
D10*
%TO.C,U5*%
X76093580Y-65786095D02*
X76903104Y-65786095D01*
X76998342Y-65833714D01*
X77045961Y-65881333D01*
X77093580Y-65976571D01*
X77093580Y-66167047D01*
X77045961Y-66262285D01*
X76998342Y-66309904D01*
X76903104Y-66357523D01*
X76093580Y-66357523D01*
X76093580Y-67309904D02*
X76093580Y-66833714D01*
X76569771Y-66786095D01*
X76522152Y-66833714D01*
X76474533Y-66928952D01*
X76474533Y-67167047D01*
X76522152Y-67262285D01*
X76569771Y-67309904D01*
X76665009Y-67357523D01*
X76903104Y-67357523D01*
X76998342Y-67309904D01*
X77045961Y-67262285D01*
X77093580Y-67167047D01*
X77093580Y-66928952D01*
X77045961Y-66833714D01*
X76998342Y-66786095D01*
X61393580Y-63286095D02*
X61393580Y-63952761D01*
X62393580Y-63524190D01*
X61726914Y-64762285D02*
X62393580Y-64762285D01*
X61345961Y-64524190D02*
X62060247Y-64286095D01*
X62060247Y-64905142D01*
X62393580Y-65286095D02*
X61393580Y-65286095D01*
X61869771Y-65286095D02*
X61869771Y-65857523D01*
X62393580Y-65857523D02*
X61393580Y-65857523D01*
X62298342Y-66905142D02*
X62345961Y-66857523D01*
X62393580Y-66714666D01*
X62393580Y-66619428D01*
X62345961Y-66476571D01*
X62250723Y-66381333D01*
X62155485Y-66333714D01*
X61965009Y-66286095D01*
X61822152Y-66286095D01*
X61631676Y-66333714D01*
X61536438Y-66381333D01*
X61441200Y-66476571D01*
X61393580Y-66619428D01*
X61393580Y-66714666D01*
X61441200Y-66857523D01*
X61488819Y-66905142D01*
X61393580Y-67809904D02*
X61393580Y-67333714D01*
X61869771Y-67286095D01*
X61822152Y-67333714D01*
X61774533Y-67428952D01*
X61774533Y-67667047D01*
X61822152Y-67762285D01*
X61869771Y-67809904D01*
X61965009Y-67857523D01*
X62203104Y-67857523D01*
X62298342Y-67809904D01*
X62345961Y-67762285D01*
X62393580Y-67667047D01*
X62393580Y-67428952D01*
X62345961Y-67333714D01*
X62298342Y-67286095D01*
X61393580Y-68190857D02*
X61393580Y-68857523D01*
X62393580Y-68428952D01*
X61393580Y-69143238D02*
X61393580Y-69762285D01*
X61774533Y-69428952D01*
X61774533Y-69571809D01*
X61822152Y-69667047D01*
X61869771Y-69714666D01*
X61965009Y-69762285D01*
X62203104Y-69762285D01*
X62298342Y-69714666D01*
X62345961Y-69667047D01*
X62393580Y-69571809D01*
X62393580Y-69286095D01*
X62345961Y-69190857D01*
X62298342Y-69143238D01*
%TO.C,Q22*%
X79565428Y-48439619D02*
X79660666Y-48392000D01*
X79755904Y-48296761D01*
X79898761Y-48153904D01*
X79994000Y-48106285D01*
X80089238Y-48106285D01*
X80041619Y-48344380D02*
X80136857Y-48296761D01*
X80232095Y-48201523D01*
X80279714Y-48011047D01*
X80279714Y-47677714D01*
X80232095Y-47487238D01*
X80136857Y-47392000D01*
X80041619Y-47344380D01*
X79851142Y-47344380D01*
X79755904Y-47392000D01*
X79660666Y-47487238D01*
X79613047Y-47677714D01*
X79613047Y-48011047D01*
X79660666Y-48201523D01*
X79755904Y-48296761D01*
X79851142Y-48344380D01*
X80041619Y-48344380D01*
X79232095Y-47439619D02*
X79184476Y-47392000D01*
X79089238Y-47344380D01*
X78851142Y-47344380D01*
X78755904Y-47392000D01*
X78708285Y-47439619D01*
X78660666Y-47534857D01*
X78660666Y-47630095D01*
X78708285Y-47772952D01*
X79279714Y-48344380D01*
X78660666Y-48344380D01*
X78279714Y-47439619D02*
X78232095Y-47392000D01*
X78136857Y-47344380D01*
X77898761Y-47344380D01*
X77803523Y-47392000D01*
X77755904Y-47439619D01*
X77708285Y-47534857D01*
X77708285Y-47630095D01*
X77755904Y-47772952D01*
X78327333Y-48344380D01*
X77708285Y-48344380D01*
D11*
X80610666Y-52642000D02*
X80510666Y-52675333D01*
X80477333Y-52708666D01*
X80444000Y-52775333D01*
X80444000Y-52875333D01*
X80477333Y-52942000D01*
X80510666Y-52975333D01*
X80577333Y-53008666D01*
X80844000Y-53008666D01*
X80844000Y-52308666D01*
X80610666Y-52308666D01*
X80544000Y-52342000D01*
X80510666Y-52375333D01*
X80477333Y-52442000D01*
X80477333Y-52508666D01*
X80510666Y-52575333D01*
X80544000Y-52608666D01*
X80610666Y-52642000D01*
X80844000Y-52642000D01*
X80177333Y-52975333D02*
X80077333Y-53008666D01*
X79910666Y-53008666D01*
X79844000Y-52975333D01*
X79810666Y-52942000D01*
X79777333Y-52875333D01*
X79777333Y-52808666D01*
X79810666Y-52742000D01*
X79844000Y-52708666D01*
X79910666Y-52675333D01*
X80044000Y-52642000D01*
X80110666Y-52608666D01*
X80144000Y-52575333D01*
X80177333Y-52508666D01*
X80177333Y-52442000D01*
X80144000Y-52375333D01*
X80110666Y-52342000D01*
X80044000Y-52308666D01*
X79877333Y-52308666D01*
X79777333Y-52342000D01*
X79510666Y-52975333D02*
X79410666Y-53008666D01*
X79244000Y-53008666D01*
X79177333Y-52975333D01*
X79144000Y-52942000D01*
X79110666Y-52875333D01*
X79110666Y-52808666D01*
X79144000Y-52742000D01*
X79177333Y-52708666D01*
X79244000Y-52675333D01*
X79377333Y-52642000D01*
X79444000Y-52608666D01*
X79477333Y-52575333D01*
X79510666Y-52508666D01*
X79510666Y-52442000D01*
X79477333Y-52375333D01*
X79444000Y-52342000D01*
X79377333Y-52308666D01*
X79210666Y-52308666D01*
X79110666Y-52342000D01*
X78444000Y-53008666D02*
X78844000Y-53008666D01*
X78644000Y-53008666D02*
X78644000Y-52308666D01*
X78710666Y-52408666D01*
X78777333Y-52475333D01*
X78844000Y-52508666D01*
X78210666Y-52308666D02*
X77777333Y-52308666D01*
X78010666Y-52575333D01*
X77910666Y-52575333D01*
X77844000Y-52608666D01*
X77810666Y-52642000D01*
X77777333Y-52708666D01*
X77777333Y-52875333D01*
X77810666Y-52942000D01*
X77844000Y-52975333D01*
X77910666Y-53008666D01*
X78110666Y-53008666D01*
X78177333Y-52975333D01*
X78210666Y-52942000D01*
X77377333Y-52608666D02*
X77444000Y-52575333D01*
X77477333Y-52542000D01*
X77510666Y-52475333D01*
X77510666Y-52442000D01*
X77477333Y-52375333D01*
X77444000Y-52342000D01*
X77377333Y-52308666D01*
X77244000Y-52308666D01*
X77177333Y-52342000D01*
X77144000Y-52375333D01*
X77110666Y-52442000D01*
X77110666Y-52475333D01*
X77144000Y-52542000D01*
X77177333Y-52575333D01*
X77244000Y-52608666D01*
X77377333Y-52608666D01*
X77444000Y-52642000D01*
X77477333Y-52675333D01*
X77510666Y-52742000D01*
X77510666Y-52875333D01*
X77477333Y-52942000D01*
X77444000Y-52975333D01*
X77377333Y-53008666D01*
X77244000Y-53008666D01*
X77177333Y-52975333D01*
X77144000Y-52942000D01*
X77110666Y-52875333D01*
X77110666Y-52742000D01*
X77144000Y-52675333D01*
X77177333Y-52642000D01*
X77244000Y-52608666D01*
D10*
%TO.C,Q23*%
X72961428Y-42571619D02*
X73056666Y-42524000D01*
X73151904Y-42428761D01*
X73294761Y-42285904D01*
X73390000Y-42238285D01*
X73485238Y-42238285D01*
X73437619Y-42476380D02*
X73532857Y-42428761D01*
X73628095Y-42333523D01*
X73675714Y-42143047D01*
X73675714Y-41809714D01*
X73628095Y-41619238D01*
X73532857Y-41524000D01*
X73437619Y-41476380D01*
X73247142Y-41476380D01*
X73151904Y-41524000D01*
X73056666Y-41619238D01*
X73009047Y-41809714D01*
X73009047Y-42143047D01*
X73056666Y-42333523D01*
X73151904Y-42428761D01*
X73247142Y-42476380D01*
X73437619Y-42476380D01*
X72628095Y-41571619D02*
X72580476Y-41524000D01*
X72485238Y-41476380D01*
X72247142Y-41476380D01*
X72151904Y-41524000D01*
X72104285Y-41571619D01*
X72056666Y-41666857D01*
X72056666Y-41762095D01*
X72104285Y-41904952D01*
X72675714Y-42476380D01*
X72056666Y-42476380D01*
X71723333Y-41476380D02*
X71104285Y-41476380D01*
X71437619Y-41857333D01*
X71294761Y-41857333D01*
X71199523Y-41904952D01*
X71151904Y-41952571D01*
X71104285Y-42047809D01*
X71104285Y-42285904D01*
X71151904Y-42381142D01*
X71199523Y-42428761D01*
X71294761Y-42476380D01*
X71580476Y-42476380D01*
X71675714Y-42428761D01*
X71723333Y-42381142D01*
D11*
X74006666Y-37174000D02*
X73906666Y-37207333D01*
X73873333Y-37240666D01*
X73840000Y-37307333D01*
X73840000Y-37407333D01*
X73873333Y-37474000D01*
X73906666Y-37507333D01*
X73973333Y-37540666D01*
X74240000Y-37540666D01*
X74240000Y-36840666D01*
X74006666Y-36840666D01*
X73940000Y-36874000D01*
X73906666Y-36907333D01*
X73873333Y-36974000D01*
X73873333Y-37040666D01*
X73906666Y-37107333D01*
X73940000Y-37140666D01*
X74006666Y-37174000D01*
X74240000Y-37174000D01*
X73573333Y-37507333D02*
X73473333Y-37540666D01*
X73306666Y-37540666D01*
X73240000Y-37507333D01*
X73206666Y-37474000D01*
X73173333Y-37407333D01*
X73173333Y-37340666D01*
X73206666Y-37274000D01*
X73240000Y-37240666D01*
X73306666Y-37207333D01*
X73440000Y-37174000D01*
X73506666Y-37140666D01*
X73540000Y-37107333D01*
X73573333Y-37040666D01*
X73573333Y-36974000D01*
X73540000Y-36907333D01*
X73506666Y-36874000D01*
X73440000Y-36840666D01*
X73273333Y-36840666D01*
X73173333Y-36874000D01*
X72906666Y-37507333D02*
X72806666Y-37540666D01*
X72640000Y-37540666D01*
X72573333Y-37507333D01*
X72540000Y-37474000D01*
X72506666Y-37407333D01*
X72506666Y-37340666D01*
X72540000Y-37274000D01*
X72573333Y-37240666D01*
X72640000Y-37207333D01*
X72773333Y-37174000D01*
X72840000Y-37140666D01*
X72873333Y-37107333D01*
X72906666Y-37040666D01*
X72906666Y-36974000D01*
X72873333Y-36907333D01*
X72840000Y-36874000D01*
X72773333Y-36840666D01*
X72606666Y-36840666D01*
X72506666Y-36874000D01*
X71840000Y-37540666D02*
X72240000Y-37540666D01*
X72040000Y-37540666D02*
X72040000Y-36840666D01*
X72106666Y-36940666D01*
X72173333Y-37007333D01*
X72240000Y-37040666D01*
X71606666Y-36840666D02*
X71173333Y-36840666D01*
X71406666Y-37107333D01*
X71306666Y-37107333D01*
X71240000Y-37140666D01*
X71206666Y-37174000D01*
X71173333Y-37240666D01*
X71173333Y-37407333D01*
X71206666Y-37474000D01*
X71240000Y-37507333D01*
X71306666Y-37540666D01*
X71506666Y-37540666D01*
X71573333Y-37507333D01*
X71606666Y-37474000D01*
X70773333Y-37140666D02*
X70840000Y-37107333D01*
X70873333Y-37074000D01*
X70906666Y-37007333D01*
X70906666Y-36974000D01*
X70873333Y-36907333D01*
X70840000Y-36874000D01*
X70773333Y-36840666D01*
X70640000Y-36840666D01*
X70573333Y-36874000D01*
X70540000Y-36907333D01*
X70506666Y-36974000D01*
X70506666Y-37007333D01*
X70540000Y-37074000D01*
X70573333Y-37107333D01*
X70640000Y-37140666D01*
X70773333Y-37140666D01*
X70840000Y-37174000D01*
X70873333Y-37207333D01*
X70906666Y-37274000D01*
X70906666Y-37407333D01*
X70873333Y-37474000D01*
X70840000Y-37507333D01*
X70773333Y-37540666D01*
X70640000Y-37540666D01*
X70573333Y-37507333D01*
X70540000Y-37474000D01*
X70506666Y-37407333D01*
X70506666Y-37274000D01*
X70540000Y-37207333D01*
X70573333Y-37174000D01*
X70640000Y-37140666D01*
D10*
%TO.C,C1*%
X20677142Y-58046333D02*
X20724761Y-57998714D01*
X20772380Y-57855857D01*
X20772380Y-57760619D01*
X20724761Y-57617761D01*
X20629523Y-57522523D01*
X20534285Y-57474904D01*
X20343809Y-57427285D01*
X20200952Y-57427285D01*
X20010476Y-57474904D01*
X19915238Y-57522523D01*
X19820000Y-57617761D01*
X19772380Y-57760619D01*
X19772380Y-57855857D01*
X19820000Y-57998714D01*
X19867619Y-58046333D01*
X20772380Y-58998714D02*
X20772380Y-58427285D01*
X20772380Y-58713000D02*
X19772380Y-58713000D01*
X19915238Y-58617761D01*
X20010476Y-58522523D01*
X20058095Y-58427285D01*
%TO.C,RN7*%
X24929476Y-53544380D02*
X25262809Y-53068190D01*
X25500904Y-53544380D02*
X25500904Y-52544380D01*
X25119952Y-52544380D01*
X25024714Y-52592000D01*
X24977095Y-52639619D01*
X24929476Y-52734857D01*
X24929476Y-52877714D01*
X24977095Y-52972952D01*
X25024714Y-53020571D01*
X25119952Y-53068190D01*
X25500904Y-53068190D01*
X24500904Y-53544380D02*
X24500904Y-52544380D01*
X23929476Y-53544380D01*
X23929476Y-52544380D01*
X23548523Y-52544380D02*
X22881857Y-52544380D01*
X23310428Y-53544380D01*
X24834238Y-47944380D02*
X25405666Y-47944380D01*
X25119952Y-47944380D02*
X25119952Y-46944380D01*
X25215190Y-47087238D01*
X25310428Y-47182476D01*
X25405666Y-47230095D01*
X24215190Y-46944380D02*
X24119952Y-46944380D01*
X24024714Y-46992000D01*
X23977095Y-47039619D01*
X23929476Y-47134857D01*
X23881857Y-47325333D01*
X23881857Y-47563428D01*
X23929476Y-47753904D01*
X23977095Y-47849142D01*
X24024714Y-47896761D01*
X24119952Y-47944380D01*
X24215190Y-47944380D01*
X24310428Y-47896761D01*
X24358047Y-47849142D01*
X24405666Y-47753904D01*
X24453285Y-47563428D01*
X24453285Y-47325333D01*
X24405666Y-47134857D01*
X24358047Y-47039619D01*
X24310428Y-46992000D01*
X24215190Y-46944380D01*
X23453285Y-47944380D02*
X23453285Y-46944380D01*
X23358047Y-47563428D02*
X23072333Y-47944380D01*
X23072333Y-47277714D02*
X23453285Y-47658666D01*
%TO.C,U3*%
X33218380Y-65786095D02*
X34027904Y-65786095D01*
X34123142Y-65833714D01*
X34170761Y-65881333D01*
X34218380Y-65976571D01*
X34218380Y-66167047D01*
X34170761Y-66262285D01*
X34123142Y-66309904D01*
X34027904Y-66357523D01*
X33218380Y-66357523D01*
X33218380Y-66738476D02*
X33218380Y-67357523D01*
X33599333Y-67024190D01*
X33599333Y-67167047D01*
X33646952Y-67262285D01*
X33694571Y-67309904D01*
X33789809Y-67357523D01*
X34027904Y-67357523D01*
X34123142Y-67309904D01*
X34170761Y-67262285D01*
X34218380Y-67167047D01*
X34218380Y-66881333D01*
X34170761Y-66786095D01*
X34123142Y-66738476D01*
X18518380Y-63286095D02*
X18518380Y-63952761D01*
X19518380Y-63524190D01*
X18851714Y-64762285D02*
X19518380Y-64762285D01*
X18470761Y-64524190D02*
X19185047Y-64286095D01*
X19185047Y-64905142D01*
X19518380Y-65286095D02*
X18518380Y-65286095D01*
X18994571Y-65286095D02*
X18994571Y-65857523D01*
X19518380Y-65857523D02*
X18518380Y-65857523D01*
X19423142Y-66905142D02*
X19470761Y-66857523D01*
X19518380Y-66714666D01*
X19518380Y-66619428D01*
X19470761Y-66476571D01*
X19375523Y-66381333D01*
X19280285Y-66333714D01*
X19089809Y-66286095D01*
X18946952Y-66286095D01*
X18756476Y-66333714D01*
X18661238Y-66381333D01*
X18566000Y-66476571D01*
X18518380Y-66619428D01*
X18518380Y-66714666D01*
X18566000Y-66857523D01*
X18613619Y-66905142D01*
X18518380Y-67809904D02*
X18518380Y-67333714D01*
X18994571Y-67286095D01*
X18946952Y-67333714D01*
X18899333Y-67428952D01*
X18899333Y-67667047D01*
X18946952Y-67762285D01*
X18994571Y-67809904D01*
X19089809Y-67857523D01*
X19327904Y-67857523D01*
X19423142Y-67809904D01*
X19470761Y-67762285D01*
X19518380Y-67667047D01*
X19518380Y-67428952D01*
X19470761Y-67333714D01*
X19423142Y-67286095D01*
X18518380Y-68190857D02*
X18518380Y-68857523D01*
X19518380Y-68428952D01*
X18518380Y-69143238D02*
X18518380Y-69762285D01*
X18899333Y-69428952D01*
X18899333Y-69571809D01*
X18946952Y-69667047D01*
X18994571Y-69714666D01*
X19089809Y-69762285D01*
X19327904Y-69762285D01*
X19423142Y-69714666D01*
X19470761Y-69667047D01*
X19518380Y-69571809D01*
X19518380Y-69286095D01*
X19470761Y-69190857D01*
X19423142Y-69143238D01*
%TO.C,C2*%
X37949142Y-66381333D02*
X37996761Y-66333714D01*
X38044380Y-66190857D01*
X38044380Y-66095619D01*
X37996761Y-65952761D01*
X37901523Y-65857523D01*
X37806285Y-65809904D01*
X37615809Y-65762285D01*
X37472952Y-65762285D01*
X37282476Y-65809904D01*
X37187238Y-65857523D01*
X37092000Y-65952761D01*
X37044380Y-66095619D01*
X37044380Y-66190857D01*
X37092000Y-66333714D01*
X37139619Y-66381333D01*
X37139619Y-66762285D02*
X37092000Y-66809904D01*
X37044380Y-66905142D01*
X37044380Y-67143238D01*
X37092000Y-67238476D01*
X37139619Y-67286095D01*
X37234857Y-67333714D01*
X37330095Y-67333714D01*
X37472952Y-67286095D01*
X38044380Y-66714666D01*
X38044380Y-67333714D01*
%TO.C,Q10*%
X35447928Y-84227619D02*
X35543166Y-84180000D01*
X35638404Y-84084761D01*
X35781261Y-83941904D01*
X35876500Y-83894285D01*
X35971738Y-83894285D01*
X35924119Y-84132380D02*
X36019357Y-84084761D01*
X36114595Y-83989523D01*
X36162214Y-83799047D01*
X36162214Y-83465714D01*
X36114595Y-83275238D01*
X36019357Y-83180000D01*
X35924119Y-83132380D01*
X35733642Y-83132380D01*
X35638404Y-83180000D01*
X35543166Y-83275238D01*
X35495547Y-83465714D01*
X35495547Y-83799047D01*
X35543166Y-83989523D01*
X35638404Y-84084761D01*
X35733642Y-84132380D01*
X35924119Y-84132380D01*
X34543166Y-84132380D02*
X35114595Y-84132380D01*
X34828880Y-84132380D02*
X34828880Y-83132380D01*
X34924119Y-83275238D01*
X35019357Y-83370476D01*
X35114595Y-83418095D01*
X33924119Y-83132380D02*
X33828880Y-83132380D01*
X33733642Y-83180000D01*
X33686023Y-83227619D01*
X33638404Y-83322857D01*
X33590785Y-83513333D01*
X33590785Y-83751428D01*
X33638404Y-83941904D01*
X33686023Y-84037142D01*
X33733642Y-84084761D01*
X33828880Y-84132380D01*
X33924119Y-84132380D01*
X34019357Y-84084761D01*
X34066976Y-84037142D01*
X34114595Y-83941904D01*
X34162214Y-83751428D01*
X34162214Y-83513333D01*
X34114595Y-83322857D01*
X34066976Y-83227619D01*
X34019357Y-83180000D01*
X33924119Y-83132380D01*
D11*
X36493166Y-78830000D02*
X36393166Y-78863333D01*
X36359833Y-78896666D01*
X36326500Y-78963333D01*
X36326500Y-79063333D01*
X36359833Y-79130000D01*
X36393166Y-79163333D01*
X36459833Y-79196666D01*
X36726500Y-79196666D01*
X36726500Y-78496666D01*
X36493166Y-78496666D01*
X36426500Y-78530000D01*
X36393166Y-78563333D01*
X36359833Y-78630000D01*
X36359833Y-78696666D01*
X36393166Y-78763333D01*
X36426500Y-78796666D01*
X36493166Y-78830000D01*
X36726500Y-78830000D01*
X36059833Y-79163333D02*
X35959833Y-79196666D01*
X35793166Y-79196666D01*
X35726500Y-79163333D01*
X35693166Y-79130000D01*
X35659833Y-79063333D01*
X35659833Y-78996666D01*
X35693166Y-78930000D01*
X35726500Y-78896666D01*
X35793166Y-78863333D01*
X35926500Y-78830000D01*
X35993166Y-78796666D01*
X36026500Y-78763333D01*
X36059833Y-78696666D01*
X36059833Y-78630000D01*
X36026500Y-78563333D01*
X35993166Y-78530000D01*
X35926500Y-78496666D01*
X35759833Y-78496666D01*
X35659833Y-78530000D01*
X35393166Y-79163333D02*
X35293166Y-79196666D01*
X35126500Y-79196666D01*
X35059833Y-79163333D01*
X35026500Y-79130000D01*
X34993166Y-79063333D01*
X34993166Y-78996666D01*
X35026500Y-78930000D01*
X35059833Y-78896666D01*
X35126500Y-78863333D01*
X35259833Y-78830000D01*
X35326500Y-78796666D01*
X35359833Y-78763333D01*
X35393166Y-78696666D01*
X35393166Y-78630000D01*
X35359833Y-78563333D01*
X35326500Y-78530000D01*
X35259833Y-78496666D01*
X35093166Y-78496666D01*
X34993166Y-78530000D01*
X34326500Y-79196666D02*
X34726500Y-79196666D01*
X34526500Y-79196666D02*
X34526500Y-78496666D01*
X34593166Y-78596666D01*
X34659833Y-78663333D01*
X34726500Y-78696666D01*
X34093166Y-78496666D02*
X33659833Y-78496666D01*
X33893166Y-78763333D01*
X33793166Y-78763333D01*
X33726500Y-78796666D01*
X33693166Y-78830000D01*
X33659833Y-78896666D01*
X33659833Y-79063333D01*
X33693166Y-79130000D01*
X33726500Y-79163333D01*
X33793166Y-79196666D01*
X33993166Y-79196666D01*
X34059833Y-79163333D01*
X34093166Y-79130000D01*
X33259833Y-78796666D02*
X33326500Y-78763333D01*
X33359833Y-78730000D01*
X33393166Y-78663333D01*
X33393166Y-78630000D01*
X33359833Y-78563333D01*
X33326500Y-78530000D01*
X33259833Y-78496666D01*
X33126500Y-78496666D01*
X33059833Y-78530000D01*
X33026500Y-78563333D01*
X32993166Y-78630000D01*
X32993166Y-78663333D01*
X33026500Y-78730000D01*
X33059833Y-78763333D01*
X33126500Y-78796666D01*
X33259833Y-78796666D01*
X33326500Y-78830000D01*
X33359833Y-78863333D01*
X33393166Y-78930000D01*
X33393166Y-79063333D01*
X33359833Y-79130000D01*
X33326500Y-79163333D01*
X33259833Y-79196666D01*
X33126500Y-79196666D01*
X33059833Y-79163333D01*
X33026500Y-79130000D01*
X32993166Y-79063333D01*
X32993166Y-78930000D01*
X33026500Y-78863333D01*
X33059833Y-78830000D01*
X33126500Y-78796666D01*
D10*
%TO.C,Q24*%
X80944328Y-42571619D02*
X81039566Y-42524000D01*
X81134804Y-42428761D01*
X81277661Y-42285904D01*
X81372900Y-42238285D01*
X81468138Y-42238285D01*
X81420519Y-42476380D02*
X81515757Y-42428761D01*
X81610995Y-42333523D01*
X81658614Y-42143047D01*
X81658614Y-41809714D01*
X81610995Y-41619238D01*
X81515757Y-41524000D01*
X81420519Y-41476380D01*
X81230042Y-41476380D01*
X81134804Y-41524000D01*
X81039566Y-41619238D01*
X80991947Y-41809714D01*
X80991947Y-42143047D01*
X81039566Y-42333523D01*
X81134804Y-42428761D01*
X81230042Y-42476380D01*
X81420519Y-42476380D01*
X80610995Y-41571619D02*
X80563376Y-41524000D01*
X80468138Y-41476380D01*
X80230042Y-41476380D01*
X80134804Y-41524000D01*
X80087185Y-41571619D01*
X80039566Y-41666857D01*
X80039566Y-41762095D01*
X80087185Y-41904952D01*
X80658614Y-42476380D01*
X80039566Y-42476380D01*
X79182423Y-41809714D02*
X79182423Y-42476380D01*
X79420519Y-41428761D02*
X79658614Y-42143047D01*
X79039566Y-42143047D01*
D11*
X81989566Y-37174000D02*
X81889566Y-37207333D01*
X81856233Y-37240666D01*
X81822900Y-37307333D01*
X81822900Y-37407333D01*
X81856233Y-37474000D01*
X81889566Y-37507333D01*
X81956233Y-37540666D01*
X82222900Y-37540666D01*
X82222900Y-36840666D01*
X81989566Y-36840666D01*
X81922900Y-36874000D01*
X81889566Y-36907333D01*
X81856233Y-36974000D01*
X81856233Y-37040666D01*
X81889566Y-37107333D01*
X81922900Y-37140666D01*
X81989566Y-37174000D01*
X82222900Y-37174000D01*
X81556233Y-37507333D02*
X81456233Y-37540666D01*
X81289566Y-37540666D01*
X81222900Y-37507333D01*
X81189566Y-37474000D01*
X81156233Y-37407333D01*
X81156233Y-37340666D01*
X81189566Y-37274000D01*
X81222900Y-37240666D01*
X81289566Y-37207333D01*
X81422900Y-37174000D01*
X81489566Y-37140666D01*
X81522900Y-37107333D01*
X81556233Y-37040666D01*
X81556233Y-36974000D01*
X81522900Y-36907333D01*
X81489566Y-36874000D01*
X81422900Y-36840666D01*
X81256233Y-36840666D01*
X81156233Y-36874000D01*
X80889566Y-37507333D02*
X80789566Y-37540666D01*
X80622900Y-37540666D01*
X80556233Y-37507333D01*
X80522900Y-37474000D01*
X80489566Y-37407333D01*
X80489566Y-37340666D01*
X80522900Y-37274000D01*
X80556233Y-37240666D01*
X80622900Y-37207333D01*
X80756233Y-37174000D01*
X80822900Y-37140666D01*
X80856233Y-37107333D01*
X80889566Y-37040666D01*
X80889566Y-36974000D01*
X80856233Y-36907333D01*
X80822900Y-36874000D01*
X80756233Y-36840666D01*
X80589566Y-36840666D01*
X80489566Y-36874000D01*
X79822900Y-37540666D02*
X80222900Y-37540666D01*
X80022900Y-37540666D02*
X80022900Y-36840666D01*
X80089566Y-36940666D01*
X80156233Y-37007333D01*
X80222900Y-37040666D01*
X79589566Y-36840666D02*
X79156233Y-36840666D01*
X79389566Y-37107333D01*
X79289566Y-37107333D01*
X79222900Y-37140666D01*
X79189566Y-37174000D01*
X79156233Y-37240666D01*
X79156233Y-37407333D01*
X79189566Y-37474000D01*
X79222900Y-37507333D01*
X79289566Y-37540666D01*
X79489566Y-37540666D01*
X79556233Y-37507333D01*
X79589566Y-37474000D01*
X78756233Y-37140666D02*
X78822900Y-37107333D01*
X78856233Y-37074000D01*
X78889566Y-37007333D01*
X78889566Y-36974000D01*
X78856233Y-36907333D01*
X78822900Y-36874000D01*
X78756233Y-36840666D01*
X78622900Y-36840666D01*
X78556233Y-36874000D01*
X78522900Y-36907333D01*
X78489566Y-36974000D01*
X78489566Y-37007333D01*
X78522900Y-37074000D01*
X78556233Y-37107333D01*
X78622900Y-37140666D01*
X78756233Y-37140666D01*
X78822900Y-37174000D01*
X78856233Y-37207333D01*
X78889566Y-37274000D01*
X78889566Y-37407333D01*
X78856233Y-37474000D01*
X78822900Y-37507333D01*
X78756233Y-37540666D01*
X78622900Y-37540666D01*
X78556233Y-37507333D01*
X78522900Y-37474000D01*
X78489566Y-37407333D01*
X78489566Y-37274000D01*
X78522900Y-37207333D01*
X78556233Y-37174000D01*
X78622900Y-37140666D01*
D10*
%TO.C,Q17*%
X56995728Y-42571619D02*
X57090966Y-42524000D01*
X57186204Y-42428761D01*
X57329061Y-42285904D01*
X57424300Y-42238285D01*
X57519538Y-42238285D01*
X57471919Y-42476380D02*
X57567157Y-42428761D01*
X57662395Y-42333523D01*
X57710014Y-42143047D01*
X57710014Y-41809714D01*
X57662395Y-41619238D01*
X57567157Y-41524000D01*
X57471919Y-41476380D01*
X57281442Y-41476380D01*
X57186204Y-41524000D01*
X57090966Y-41619238D01*
X57043347Y-41809714D01*
X57043347Y-42143047D01*
X57090966Y-42333523D01*
X57186204Y-42428761D01*
X57281442Y-42476380D01*
X57471919Y-42476380D01*
X56090966Y-42476380D02*
X56662395Y-42476380D01*
X56376680Y-42476380D02*
X56376680Y-41476380D01*
X56471919Y-41619238D01*
X56567157Y-41714476D01*
X56662395Y-41762095D01*
X55757633Y-41476380D02*
X55090966Y-41476380D01*
X55519538Y-42476380D01*
D11*
X58040966Y-37174000D02*
X57940966Y-37207333D01*
X57907633Y-37240666D01*
X57874300Y-37307333D01*
X57874300Y-37407333D01*
X57907633Y-37474000D01*
X57940966Y-37507333D01*
X58007633Y-37540666D01*
X58274300Y-37540666D01*
X58274300Y-36840666D01*
X58040966Y-36840666D01*
X57974300Y-36874000D01*
X57940966Y-36907333D01*
X57907633Y-36974000D01*
X57907633Y-37040666D01*
X57940966Y-37107333D01*
X57974300Y-37140666D01*
X58040966Y-37174000D01*
X58274300Y-37174000D01*
X57607633Y-37507333D02*
X57507633Y-37540666D01*
X57340966Y-37540666D01*
X57274300Y-37507333D01*
X57240966Y-37474000D01*
X57207633Y-37407333D01*
X57207633Y-37340666D01*
X57240966Y-37274000D01*
X57274300Y-37240666D01*
X57340966Y-37207333D01*
X57474300Y-37174000D01*
X57540966Y-37140666D01*
X57574300Y-37107333D01*
X57607633Y-37040666D01*
X57607633Y-36974000D01*
X57574300Y-36907333D01*
X57540966Y-36874000D01*
X57474300Y-36840666D01*
X57307633Y-36840666D01*
X57207633Y-36874000D01*
X56940966Y-37507333D02*
X56840966Y-37540666D01*
X56674300Y-37540666D01*
X56607633Y-37507333D01*
X56574300Y-37474000D01*
X56540966Y-37407333D01*
X56540966Y-37340666D01*
X56574300Y-37274000D01*
X56607633Y-37240666D01*
X56674300Y-37207333D01*
X56807633Y-37174000D01*
X56874300Y-37140666D01*
X56907633Y-37107333D01*
X56940966Y-37040666D01*
X56940966Y-36974000D01*
X56907633Y-36907333D01*
X56874300Y-36874000D01*
X56807633Y-36840666D01*
X56640966Y-36840666D01*
X56540966Y-36874000D01*
X55874300Y-37540666D02*
X56274300Y-37540666D01*
X56074300Y-37540666D02*
X56074300Y-36840666D01*
X56140966Y-36940666D01*
X56207633Y-37007333D01*
X56274300Y-37040666D01*
X55640966Y-36840666D02*
X55207633Y-36840666D01*
X55440966Y-37107333D01*
X55340966Y-37107333D01*
X55274300Y-37140666D01*
X55240966Y-37174000D01*
X55207633Y-37240666D01*
X55207633Y-37407333D01*
X55240966Y-37474000D01*
X55274300Y-37507333D01*
X55340966Y-37540666D01*
X55540966Y-37540666D01*
X55607633Y-37507333D01*
X55640966Y-37474000D01*
X54807633Y-37140666D02*
X54874300Y-37107333D01*
X54907633Y-37074000D01*
X54940966Y-37007333D01*
X54940966Y-36974000D01*
X54907633Y-36907333D01*
X54874300Y-36874000D01*
X54807633Y-36840666D01*
X54674300Y-36840666D01*
X54607633Y-36874000D01*
X54574300Y-36907333D01*
X54540966Y-36974000D01*
X54540966Y-37007333D01*
X54574300Y-37074000D01*
X54607633Y-37107333D01*
X54674300Y-37140666D01*
X54807633Y-37140666D01*
X54874300Y-37174000D01*
X54907633Y-37207333D01*
X54940966Y-37274000D01*
X54940966Y-37407333D01*
X54907633Y-37474000D01*
X54874300Y-37507333D01*
X54807633Y-37540666D01*
X54674300Y-37540666D01*
X54607633Y-37507333D01*
X54574300Y-37474000D01*
X54540966Y-37407333D01*
X54540966Y-37274000D01*
X54574300Y-37207333D01*
X54607633Y-37174000D01*
X54674300Y-37140666D01*
D10*
%TO.C,Q13*%
X19445928Y-48439619D02*
X19541166Y-48392000D01*
X19636404Y-48296761D01*
X19779261Y-48153904D01*
X19874500Y-48106285D01*
X19969738Y-48106285D01*
X19922119Y-48344380D02*
X20017357Y-48296761D01*
X20112595Y-48201523D01*
X20160214Y-48011047D01*
X20160214Y-47677714D01*
X20112595Y-47487238D01*
X20017357Y-47392000D01*
X19922119Y-47344380D01*
X19731642Y-47344380D01*
X19636404Y-47392000D01*
X19541166Y-47487238D01*
X19493547Y-47677714D01*
X19493547Y-48011047D01*
X19541166Y-48201523D01*
X19636404Y-48296761D01*
X19731642Y-48344380D01*
X19922119Y-48344380D01*
X18541166Y-48344380D02*
X19112595Y-48344380D01*
X18826880Y-48344380D02*
X18826880Y-47344380D01*
X18922119Y-47487238D01*
X19017357Y-47582476D01*
X19112595Y-47630095D01*
X18207833Y-47344380D02*
X17588785Y-47344380D01*
X17922119Y-47725333D01*
X17779261Y-47725333D01*
X17684023Y-47772952D01*
X17636404Y-47820571D01*
X17588785Y-47915809D01*
X17588785Y-48153904D01*
X17636404Y-48249142D01*
X17684023Y-48296761D01*
X17779261Y-48344380D01*
X18064976Y-48344380D01*
X18160214Y-48296761D01*
X18207833Y-48249142D01*
D11*
X20491166Y-52642000D02*
X20391166Y-52675333D01*
X20357833Y-52708666D01*
X20324500Y-52775333D01*
X20324500Y-52875333D01*
X20357833Y-52942000D01*
X20391166Y-52975333D01*
X20457833Y-53008666D01*
X20724500Y-53008666D01*
X20724500Y-52308666D01*
X20491166Y-52308666D01*
X20424500Y-52342000D01*
X20391166Y-52375333D01*
X20357833Y-52442000D01*
X20357833Y-52508666D01*
X20391166Y-52575333D01*
X20424500Y-52608666D01*
X20491166Y-52642000D01*
X20724500Y-52642000D01*
X20057833Y-52975333D02*
X19957833Y-53008666D01*
X19791166Y-53008666D01*
X19724500Y-52975333D01*
X19691166Y-52942000D01*
X19657833Y-52875333D01*
X19657833Y-52808666D01*
X19691166Y-52742000D01*
X19724500Y-52708666D01*
X19791166Y-52675333D01*
X19924500Y-52642000D01*
X19991166Y-52608666D01*
X20024500Y-52575333D01*
X20057833Y-52508666D01*
X20057833Y-52442000D01*
X20024500Y-52375333D01*
X19991166Y-52342000D01*
X19924500Y-52308666D01*
X19757833Y-52308666D01*
X19657833Y-52342000D01*
X19391166Y-52975333D02*
X19291166Y-53008666D01*
X19124500Y-53008666D01*
X19057833Y-52975333D01*
X19024500Y-52942000D01*
X18991166Y-52875333D01*
X18991166Y-52808666D01*
X19024500Y-52742000D01*
X19057833Y-52708666D01*
X19124500Y-52675333D01*
X19257833Y-52642000D01*
X19324500Y-52608666D01*
X19357833Y-52575333D01*
X19391166Y-52508666D01*
X19391166Y-52442000D01*
X19357833Y-52375333D01*
X19324500Y-52342000D01*
X19257833Y-52308666D01*
X19091166Y-52308666D01*
X18991166Y-52342000D01*
X18324500Y-53008666D02*
X18724500Y-53008666D01*
X18524500Y-53008666D02*
X18524500Y-52308666D01*
X18591166Y-52408666D01*
X18657833Y-52475333D01*
X18724500Y-52508666D01*
X18091166Y-52308666D02*
X17657833Y-52308666D01*
X17891166Y-52575333D01*
X17791166Y-52575333D01*
X17724500Y-52608666D01*
X17691166Y-52642000D01*
X17657833Y-52708666D01*
X17657833Y-52875333D01*
X17691166Y-52942000D01*
X17724500Y-52975333D01*
X17791166Y-53008666D01*
X17991166Y-53008666D01*
X18057833Y-52975333D01*
X18091166Y-52942000D01*
X17257833Y-52608666D02*
X17324500Y-52575333D01*
X17357833Y-52542000D01*
X17391166Y-52475333D01*
X17391166Y-52442000D01*
X17357833Y-52375333D01*
X17324500Y-52342000D01*
X17257833Y-52308666D01*
X17124500Y-52308666D01*
X17057833Y-52342000D01*
X17024500Y-52375333D01*
X16991166Y-52442000D01*
X16991166Y-52475333D01*
X17024500Y-52542000D01*
X17057833Y-52575333D01*
X17124500Y-52608666D01*
X17257833Y-52608666D01*
X17324500Y-52642000D01*
X17357833Y-52675333D01*
X17391166Y-52742000D01*
X17391166Y-52875333D01*
X17357833Y-52942000D01*
X17324500Y-52975333D01*
X17257833Y-53008666D01*
X17124500Y-53008666D01*
X17057833Y-52975333D01*
X17024500Y-52942000D01*
X16991166Y-52875333D01*
X16991166Y-52742000D01*
X17024500Y-52675333D01*
X17057833Y-52642000D01*
X17124500Y-52608666D01*
D10*
%TO.C,RN8*%
X57523880Y-44013523D02*
X57047690Y-43680190D01*
X57523880Y-43442095D02*
X56523880Y-43442095D01*
X56523880Y-43823047D01*
X56571500Y-43918285D01*
X56619119Y-43965904D01*
X56714357Y-44013523D01*
X56857214Y-44013523D01*
X56952452Y-43965904D01*
X57000071Y-43918285D01*
X57047690Y-43823047D01*
X57047690Y-43442095D01*
X57523880Y-44442095D02*
X56523880Y-44442095D01*
X57523880Y-45013523D01*
X56523880Y-45013523D01*
X56952452Y-45632571D02*
X56904833Y-45537333D01*
X56857214Y-45489714D01*
X56761976Y-45442095D01*
X56714357Y-45442095D01*
X56619119Y-45489714D01*
X56571500Y-45537333D01*
X56523880Y-45632571D01*
X56523880Y-45823047D01*
X56571500Y-45918285D01*
X56619119Y-45965904D01*
X56714357Y-46013523D01*
X56761976Y-46013523D01*
X56857214Y-45965904D01*
X56904833Y-45918285D01*
X56952452Y-45823047D01*
X56952452Y-45632571D01*
X57000071Y-45537333D01*
X57047690Y-45489714D01*
X57142928Y-45442095D01*
X57333404Y-45442095D01*
X57428642Y-45489714D01*
X57476261Y-45537333D01*
X57523880Y-45632571D01*
X57523880Y-45823047D01*
X57476261Y-45918285D01*
X57428642Y-45965904D01*
X57333404Y-46013523D01*
X57142928Y-46013523D01*
X57047690Y-45965904D01*
X57000071Y-45918285D01*
X56952452Y-45823047D01*
X63123880Y-44108761D02*
X63123880Y-43537333D01*
X63123880Y-43823047D02*
X62123880Y-43823047D01*
X62266738Y-43727809D01*
X62361976Y-43632571D01*
X62409595Y-43537333D01*
X62123880Y-44727809D02*
X62123880Y-44823047D01*
X62171500Y-44918285D01*
X62219119Y-44965904D01*
X62314357Y-45013523D01*
X62504833Y-45061142D01*
X62742928Y-45061142D01*
X62933404Y-45013523D01*
X63028642Y-44965904D01*
X63076261Y-44918285D01*
X63123880Y-44823047D01*
X63123880Y-44727809D01*
X63076261Y-44632571D01*
X63028642Y-44584952D01*
X62933404Y-44537333D01*
X62742928Y-44489714D01*
X62504833Y-44489714D01*
X62314357Y-44537333D01*
X62219119Y-44584952D01*
X62171500Y-44632571D01*
X62123880Y-44727809D01*
X63123880Y-45489714D02*
X62123880Y-45489714D01*
X62742928Y-45584952D02*
X63123880Y-45870666D01*
X62457214Y-45870666D02*
X62838166Y-45489714D01*
%TO.C,Q3*%
X67628838Y-84227619D02*
X67724076Y-84180000D01*
X67819314Y-84084761D01*
X67962171Y-83941904D01*
X68057409Y-83894285D01*
X68152647Y-83894285D01*
X68105028Y-84132380D02*
X68200266Y-84084761D01*
X68295504Y-83989523D01*
X68343123Y-83799047D01*
X68343123Y-83465714D01*
X68295504Y-83275238D01*
X68200266Y-83180000D01*
X68105028Y-83132380D01*
X67914552Y-83132380D01*
X67819314Y-83180000D01*
X67724076Y-83275238D01*
X67676457Y-83465714D01*
X67676457Y-83799047D01*
X67724076Y-83989523D01*
X67819314Y-84084761D01*
X67914552Y-84132380D01*
X68105028Y-84132380D01*
X67343123Y-83132380D02*
X66724076Y-83132380D01*
X67057409Y-83513333D01*
X66914552Y-83513333D01*
X66819314Y-83560952D01*
X66771695Y-83608571D01*
X66724076Y-83703809D01*
X66724076Y-83941904D01*
X66771695Y-84037142D01*
X66819314Y-84084761D01*
X66914552Y-84132380D01*
X67200266Y-84132380D01*
X67295504Y-84084761D01*
X67343123Y-84037142D01*
D11*
X69150266Y-78830000D02*
X69050266Y-78863333D01*
X69016933Y-78896666D01*
X68983600Y-78963333D01*
X68983600Y-79063333D01*
X69016933Y-79130000D01*
X69050266Y-79163333D01*
X69116933Y-79196666D01*
X69383600Y-79196666D01*
X69383600Y-78496666D01*
X69150266Y-78496666D01*
X69083600Y-78530000D01*
X69050266Y-78563333D01*
X69016933Y-78630000D01*
X69016933Y-78696666D01*
X69050266Y-78763333D01*
X69083600Y-78796666D01*
X69150266Y-78830000D01*
X69383600Y-78830000D01*
X68716933Y-79163333D02*
X68616933Y-79196666D01*
X68450266Y-79196666D01*
X68383600Y-79163333D01*
X68350266Y-79130000D01*
X68316933Y-79063333D01*
X68316933Y-78996666D01*
X68350266Y-78930000D01*
X68383600Y-78896666D01*
X68450266Y-78863333D01*
X68583600Y-78830000D01*
X68650266Y-78796666D01*
X68683600Y-78763333D01*
X68716933Y-78696666D01*
X68716933Y-78630000D01*
X68683600Y-78563333D01*
X68650266Y-78530000D01*
X68583600Y-78496666D01*
X68416933Y-78496666D01*
X68316933Y-78530000D01*
X68050266Y-79163333D02*
X67950266Y-79196666D01*
X67783600Y-79196666D01*
X67716933Y-79163333D01*
X67683600Y-79130000D01*
X67650266Y-79063333D01*
X67650266Y-78996666D01*
X67683600Y-78930000D01*
X67716933Y-78896666D01*
X67783600Y-78863333D01*
X67916933Y-78830000D01*
X67983600Y-78796666D01*
X68016933Y-78763333D01*
X68050266Y-78696666D01*
X68050266Y-78630000D01*
X68016933Y-78563333D01*
X67983600Y-78530000D01*
X67916933Y-78496666D01*
X67750266Y-78496666D01*
X67650266Y-78530000D01*
X66983600Y-79196666D02*
X67383600Y-79196666D01*
X67183600Y-79196666D02*
X67183600Y-78496666D01*
X67250266Y-78596666D01*
X67316933Y-78663333D01*
X67383600Y-78696666D01*
X66750266Y-78496666D02*
X66316933Y-78496666D01*
X66550266Y-78763333D01*
X66450266Y-78763333D01*
X66383600Y-78796666D01*
X66350266Y-78830000D01*
X66316933Y-78896666D01*
X66316933Y-79063333D01*
X66350266Y-79130000D01*
X66383600Y-79163333D01*
X66450266Y-79196666D01*
X66650266Y-79196666D01*
X66716933Y-79163333D01*
X66750266Y-79130000D01*
X65916933Y-78796666D02*
X65983600Y-78763333D01*
X66016933Y-78730000D01*
X66050266Y-78663333D01*
X66050266Y-78630000D01*
X66016933Y-78563333D01*
X65983600Y-78530000D01*
X65916933Y-78496666D01*
X65783600Y-78496666D01*
X65716933Y-78530000D01*
X65683600Y-78563333D01*
X65650266Y-78630000D01*
X65650266Y-78663333D01*
X65683600Y-78730000D01*
X65716933Y-78763333D01*
X65783600Y-78796666D01*
X65916933Y-78796666D01*
X65983600Y-78830000D01*
X66016933Y-78863333D01*
X66050266Y-78930000D01*
X66050266Y-79063333D01*
X66016933Y-79130000D01*
X65983600Y-79163333D01*
X65916933Y-79196666D01*
X65783600Y-79196666D01*
X65716933Y-79163333D01*
X65683600Y-79130000D01*
X65650266Y-79063333D01*
X65650266Y-78930000D01*
X65683600Y-78863333D01*
X65716933Y-78830000D01*
X65783600Y-78796666D01*
D10*
%TO.C,Q11*%
X41030028Y-42571619D02*
X41125266Y-42524000D01*
X41220504Y-42428761D01*
X41363361Y-42285904D01*
X41458600Y-42238285D01*
X41553838Y-42238285D01*
X41506219Y-42476380D02*
X41601457Y-42428761D01*
X41696695Y-42333523D01*
X41744314Y-42143047D01*
X41744314Y-41809714D01*
X41696695Y-41619238D01*
X41601457Y-41524000D01*
X41506219Y-41476380D01*
X41315742Y-41476380D01*
X41220504Y-41524000D01*
X41125266Y-41619238D01*
X41077647Y-41809714D01*
X41077647Y-42143047D01*
X41125266Y-42333523D01*
X41220504Y-42428761D01*
X41315742Y-42476380D01*
X41506219Y-42476380D01*
X40125266Y-42476380D02*
X40696695Y-42476380D01*
X40410980Y-42476380D02*
X40410980Y-41476380D01*
X40506219Y-41619238D01*
X40601457Y-41714476D01*
X40696695Y-41762095D01*
X39172885Y-42476380D02*
X39744314Y-42476380D01*
X39458600Y-42476380D02*
X39458600Y-41476380D01*
X39553838Y-41619238D01*
X39649076Y-41714476D01*
X39744314Y-41762095D01*
D11*
X42075266Y-37174000D02*
X41975266Y-37207333D01*
X41941933Y-37240666D01*
X41908600Y-37307333D01*
X41908600Y-37407333D01*
X41941933Y-37474000D01*
X41975266Y-37507333D01*
X42041933Y-37540666D01*
X42308600Y-37540666D01*
X42308600Y-36840666D01*
X42075266Y-36840666D01*
X42008600Y-36874000D01*
X41975266Y-36907333D01*
X41941933Y-36974000D01*
X41941933Y-37040666D01*
X41975266Y-37107333D01*
X42008600Y-37140666D01*
X42075266Y-37174000D01*
X42308600Y-37174000D01*
X41641933Y-37507333D02*
X41541933Y-37540666D01*
X41375266Y-37540666D01*
X41308600Y-37507333D01*
X41275266Y-37474000D01*
X41241933Y-37407333D01*
X41241933Y-37340666D01*
X41275266Y-37274000D01*
X41308600Y-37240666D01*
X41375266Y-37207333D01*
X41508600Y-37174000D01*
X41575266Y-37140666D01*
X41608600Y-37107333D01*
X41641933Y-37040666D01*
X41641933Y-36974000D01*
X41608600Y-36907333D01*
X41575266Y-36874000D01*
X41508600Y-36840666D01*
X41341933Y-36840666D01*
X41241933Y-36874000D01*
X40975266Y-37507333D02*
X40875266Y-37540666D01*
X40708600Y-37540666D01*
X40641933Y-37507333D01*
X40608600Y-37474000D01*
X40575266Y-37407333D01*
X40575266Y-37340666D01*
X40608600Y-37274000D01*
X40641933Y-37240666D01*
X40708600Y-37207333D01*
X40841933Y-37174000D01*
X40908600Y-37140666D01*
X40941933Y-37107333D01*
X40975266Y-37040666D01*
X40975266Y-36974000D01*
X40941933Y-36907333D01*
X40908600Y-36874000D01*
X40841933Y-36840666D01*
X40675266Y-36840666D01*
X40575266Y-36874000D01*
X39908600Y-37540666D02*
X40308600Y-37540666D01*
X40108600Y-37540666D02*
X40108600Y-36840666D01*
X40175266Y-36940666D01*
X40241933Y-37007333D01*
X40308600Y-37040666D01*
X39675266Y-36840666D02*
X39241933Y-36840666D01*
X39475266Y-37107333D01*
X39375266Y-37107333D01*
X39308600Y-37140666D01*
X39275266Y-37174000D01*
X39241933Y-37240666D01*
X39241933Y-37407333D01*
X39275266Y-37474000D01*
X39308600Y-37507333D01*
X39375266Y-37540666D01*
X39575266Y-37540666D01*
X39641933Y-37507333D01*
X39675266Y-37474000D01*
X38841933Y-37140666D02*
X38908600Y-37107333D01*
X38941933Y-37074000D01*
X38975266Y-37007333D01*
X38975266Y-36974000D01*
X38941933Y-36907333D01*
X38908600Y-36874000D01*
X38841933Y-36840666D01*
X38708600Y-36840666D01*
X38641933Y-36874000D01*
X38608600Y-36907333D01*
X38575266Y-36974000D01*
X38575266Y-37007333D01*
X38608600Y-37074000D01*
X38641933Y-37107333D01*
X38708600Y-37140666D01*
X38841933Y-37140666D01*
X38908600Y-37174000D01*
X38941933Y-37207333D01*
X38975266Y-37274000D01*
X38975266Y-37407333D01*
X38941933Y-37474000D01*
X38908600Y-37507333D01*
X38841933Y-37540666D01*
X38708600Y-37540666D01*
X38641933Y-37507333D01*
X38608600Y-37474000D01*
X38575266Y-37407333D01*
X38575266Y-37274000D01*
X38608600Y-37207333D01*
X38641933Y-37174000D01*
X38708600Y-37140666D01*
D10*
%TO.C,Q16*%
X46638428Y-48439619D02*
X46733666Y-48392000D01*
X46828904Y-48296761D01*
X46971761Y-48153904D01*
X47067000Y-48106285D01*
X47162238Y-48106285D01*
X47114619Y-48344380D02*
X47209857Y-48296761D01*
X47305095Y-48201523D01*
X47352714Y-48011047D01*
X47352714Y-47677714D01*
X47305095Y-47487238D01*
X47209857Y-47392000D01*
X47114619Y-47344380D01*
X46924142Y-47344380D01*
X46828904Y-47392000D01*
X46733666Y-47487238D01*
X46686047Y-47677714D01*
X46686047Y-48011047D01*
X46733666Y-48201523D01*
X46828904Y-48296761D01*
X46924142Y-48344380D01*
X47114619Y-48344380D01*
X45733666Y-48344380D02*
X46305095Y-48344380D01*
X46019380Y-48344380D02*
X46019380Y-47344380D01*
X46114619Y-47487238D01*
X46209857Y-47582476D01*
X46305095Y-47630095D01*
X44876523Y-47344380D02*
X45067000Y-47344380D01*
X45162238Y-47392000D01*
X45209857Y-47439619D01*
X45305095Y-47582476D01*
X45352714Y-47772952D01*
X45352714Y-48153904D01*
X45305095Y-48249142D01*
X45257476Y-48296761D01*
X45162238Y-48344380D01*
X44971761Y-48344380D01*
X44876523Y-48296761D01*
X44828904Y-48249142D01*
X44781285Y-48153904D01*
X44781285Y-47915809D01*
X44828904Y-47820571D01*
X44876523Y-47772952D01*
X44971761Y-47725333D01*
X45162238Y-47725333D01*
X45257476Y-47772952D01*
X45305095Y-47820571D01*
X45352714Y-47915809D01*
D11*
X47683666Y-52642000D02*
X47583666Y-52675333D01*
X47550333Y-52708666D01*
X47517000Y-52775333D01*
X47517000Y-52875333D01*
X47550333Y-52942000D01*
X47583666Y-52975333D01*
X47650333Y-53008666D01*
X47917000Y-53008666D01*
X47917000Y-52308666D01*
X47683666Y-52308666D01*
X47617000Y-52342000D01*
X47583666Y-52375333D01*
X47550333Y-52442000D01*
X47550333Y-52508666D01*
X47583666Y-52575333D01*
X47617000Y-52608666D01*
X47683666Y-52642000D01*
X47917000Y-52642000D01*
X47250333Y-52975333D02*
X47150333Y-53008666D01*
X46983666Y-53008666D01*
X46917000Y-52975333D01*
X46883666Y-52942000D01*
X46850333Y-52875333D01*
X46850333Y-52808666D01*
X46883666Y-52742000D01*
X46917000Y-52708666D01*
X46983666Y-52675333D01*
X47117000Y-52642000D01*
X47183666Y-52608666D01*
X47217000Y-52575333D01*
X47250333Y-52508666D01*
X47250333Y-52442000D01*
X47217000Y-52375333D01*
X47183666Y-52342000D01*
X47117000Y-52308666D01*
X46950333Y-52308666D01*
X46850333Y-52342000D01*
X46583666Y-52975333D02*
X46483666Y-53008666D01*
X46317000Y-53008666D01*
X46250333Y-52975333D01*
X46217000Y-52942000D01*
X46183666Y-52875333D01*
X46183666Y-52808666D01*
X46217000Y-52742000D01*
X46250333Y-52708666D01*
X46317000Y-52675333D01*
X46450333Y-52642000D01*
X46517000Y-52608666D01*
X46550333Y-52575333D01*
X46583666Y-52508666D01*
X46583666Y-52442000D01*
X46550333Y-52375333D01*
X46517000Y-52342000D01*
X46450333Y-52308666D01*
X46283666Y-52308666D01*
X46183666Y-52342000D01*
X45517000Y-53008666D02*
X45917000Y-53008666D01*
X45717000Y-53008666D02*
X45717000Y-52308666D01*
X45783666Y-52408666D01*
X45850333Y-52475333D01*
X45917000Y-52508666D01*
X45283666Y-52308666D02*
X44850333Y-52308666D01*
X45083666Y-52575333D01*
X44983666Y-52575333D01*
X44917000Y-52608666D01*
X44883666Y-52642000D01*
X44850333Y-52708666D01*
X44850333Y-52875333D01*
X44883666Y-52942000D01*
X44917000Y-52975333D01*
X44983666Y-53008666D01*
X45183666Y-53008666D01*
X45250333Y-52975333D01*
X45283666Y-52942000D01*
X44450333Y-52608666D02*
X44517000Y-52575333D01*
X44550333Y-52542000D01*
X44583666Y-52475333D01*
X44583666Y-52442000D01*
X44550333Y-52375333D01*
X44517000Y-52342000D01*
X44450333Y-52308666D01*
X44317000Y-52308666D01*
X44250333Y-52342000D01*
X44217000Y-52375333D01*
X44183666Y-52442000D01*
X44183666Y-52475333D01*
X44217000Y-52542000D01*
X44250333Y-52575333D01*
X44317000Y-52608666D01*
X44450333Y-52608666D01*
X44517000Y-52642000D01*
X44550333Y-52675333D01*
X44583666Y-52742000D01*
X44583666Y-52875333D01*
X44550333Y-52942000D01*
X44517000Y-52975333D01*
X44450333Y-53008666D01*
X44317000Y-53008666D01*
X44250333Y-52975333D01*
X44217000Y-52942000D01*
X44183666Y-52875333D01*
X44183666Y-52742000D01*
X44217000Y-52675333D01*
X44250333Y-52642000D01*
X44317000Y-52608666D01*
D10*
%TO.C,RN12*%
X74796166Y-53544380D02*
X75129500Y-53068190D01*
X75367595Y-53544380D02*
X75367595Y-52544380D01*
X74986642Y-52544380D01*
X74891404Y-52592000D01*
X74843785Y-52639619D01*
X74796166Y-52734857D01*
X74796166Y-52877714D01*
X74843785Y-52972952D01*
X74891404Y-53020571D01*
X74986642Y-53068190D01*
X75367595Y-53068190D01*
X74367595Y-53544380D02*
X74367595Y-52544380D01*
X73796166Y-53544380D01*
X73796166Y-52544380D01*
X72796166Y-53544380D02*
X73367595Y-53544380D01*
X73081880Y-53544380D02*
X73081880Y-52544380D01*
X73177119Y-52687238D01*
X73272357Y-52782476D01*
X73367595Y-52830095D01*
X72415214Y-52639619D02*
X72367595Y-52592000D01*
X72272357Y-52544380D01*
X72034261Y-52544380D01*
X71939023Y-52592000D01*
X71891404Y-52639619D01*
X71843785Y-52734857D01*
X71843785Y-52830095D01*
X71891404Y-52972952D01*
X72462833Y-53544380D01*
X71843785Y-53544380D01*
X74224738Y-47944380D02*
X74796166Y-47944380D01*
X74510452Y-47944380D02*
X74510452Y-46944380D01*
X74605690Y-47087238D01*
X74700928Y-47182476D01*
X74796166Y-47230095D01*
X73605690Y-46944380D02*
X73510452Y-46944380D01*
X73415214Y-46992000D01*
X73367595Y-47039619D01*
X73319976Y-47134857D01*
X73272357Y-47325333D01*
X73272357Y-47563428D01*
X73319976Y-47753904D01*
X73367595Y-47849142D01*
X73415214Y-47896761D01*
X73510452Y-47944380D01*
X73605690Y-47944380D01*
X73700928Y-47896761D01*
X73748547Y-47849142D01*
X73796166Y-47753904D01*
X73843785Y-47563428D01*
X73843785Y-47325333D01*
X73796166Y-47134857D01*
X73748547Y-47039619D01*
X73700928Y-46992000D01*
X73605690Y-46944380D01*
X72843785Y-47944380D02*
X72843785Y-46944380D01*
X72748547Y-47563428D02*
X72462833Y-47944380D01*
X72462833Y-47277714D02*
X72843785Y-47658666D01*
%TO.C,Q7*%
X54566038Y-84227619D02*
X54661276Y-84180000D01*
X54756514Y-84084761D01*
X54899371Y-83941904D01*
X54994609Y-83894285D01*
X55089847Y-83894285D01*
X55042228Y-84132380D02*
X55137466Y-84084761D01*
X55232704Y-83989523D01*
X55280323Y-83799047D01*
X55280323Y-83465714D01*
X55232704Y-83275238D01*
X55137466Y-83180000D01*
X55042228Y-83132380D01*
X54851752Y-83132380D01*
X54756514Y-83180000D01*
X54661276Y-83275238D01*
X54613657Y-83465714D01*
X54613657Y-83799047D01*
X54661276Y-83989523D01*
X54756514Y-84084761D01*
X54851752Y-84132380D01*
X55042228Y-84132380D01*
X54280323Y-83132380D02*
X53613657Y-83132380D01*
X54042228Y-84132380D01*
D11*
X56087466Y-78830000D02*
X55987466Y-78863333D01*
X55954133Y-78896666D01*
X55920800Y-78963333D01*
X55920800Y-79063333D01*
X55954133Y-79130000D01*
X55987466Y-79163333D01*
X56054133Y-79196666D01*
X56320800Y-79196666D01*
X56320800Y-78496666D01*
X56087466Y-78496666D01*
X56020800Y-78530000D01*
X55987466Y-78563333D01*
X55954133Y-78630000D01*
X55954133Y-78696666D01*
X55987466Y-78763333D01*
X56020800Y-78796666D01*
X56087466Y-78830000D01*
X56320800Y-78830000D01*
X55654133Y-79163333D02*
X55554133Y-79196666D01*
X55387466Y-79196666D01*
X55320800Y-79163333D01*
X55287466Y-79130000D01*
X55254133Y-79063333D01*
X55254133Y-78996666D01*
X55287466Y-78930000D01*
X55320800Y-78896666D01*
X55387466Y-78863333D01*
X55520800Y-78830000D01*
X55587466Y-78796666D01*
X55620800Y-78763333D01*
X55654133Y-78696666D01*
X55654133Y-78630000D01*
X55620800Y-78563333D01*
X55587466Y-78530000D01*
X55520800Y-78496666D01*
X55354133Y-78496666D01*
X55254133Y-78530000D01*
X54987466Y-79163333D02*
X54887466Y-79196666D01*
X54720800Y-79196666D01*
X54654133Y-79163333D01*
X54620800Y-79130000D01*
X54587466Y-79063333D01*
X54587466Y-78996666D01*
X54620800Y-78930000D01*
X54654133Y-78896666D01*
X54720800Y-78863333D01*
X54854133Y-78830000D01*
X54920800Y-78796666D01*
X54954133Y-78763333D01*
X54987466Y-78696666D01*
X54987466Y-78630000D01*
X54954133Y-78563333D01*
X54920800Y-78530000D01*
X54854133Y-78496666D01*
X54687466Y-78496666D01*
X54587466Y-78530000D01*
X53920800Y-79196666D02*
X54320800Y-79196666D01*
X54120800Y-79196666D02*
X54120800Y-78496666D01*
X54187466Y-78596666D01*
X54254133Y-78663333D01*
X54320800Y-78696666D01*
X53687466Y-78496666D02*
X53254133Y-78496666D01*
X53487466Y-78763333D01*
X53387466Y-78763333D01*
X53320800Y-78796666D01*
X53287466Y-78830000D01*
X53254133Y-78896666D01*
X53254133Y-79063333D01*
X53287466Y-79130000D01*
X53320800Y-79163333D01*
X53387466Y-79196666D01*
X53587466Y-79196666D01*
X53654133Y-79163333D01*
X53687466Y-79130000D01*
X52854133Y-78796666D02*
X52920800Y-78763333D01*
X52954133Y-78730000D01*
X52987466Y-78663333D01*
X52987466Y-78630000D01*
X52954133Y-78563333D01*
X52920800Y-78530000D01*
X52854133Y-78496666D01*
X52720800Y-78496666D01*
X52654133Y-78530000D01*
X52620800Y-78563333D01*
X52587466Y-78630000D01*
X52587466Y-78663333D01*
X52620800Y-78730000D01*
X52654133Y-78763333D01*
X52720800Y-78796666D01*
X52854133Y-78796666D01*
X52920800Y-78830000D01*
X52954133Y-78863333D01*
X52987466Y-78930000D01*
X52987466Y-79063333D01*
X52954133Y-79130000D01*
X52920800Y-79163333D01*
X52854133Y-79196666D01*
X52720800Y-79196666D01*
X52654133Y-79163333D01*
X52620800Y-79130000D01*
X52587466Y-79063333D01*
X52587466Y-78930000D01*
X52620800Y-78863333D01*
X52654133Y-78830000D01*
X52720800Y-78796666D01*
D10*
%TO.C,U1*%
X54655980Y-65786095D02*
X55465504Y-65786095D01*
X55560742Y-65833714D01*
X55608361Y-65881333D01*
X55655980Y-65976571D01*
X55655980Y-66167047D01*
X55608361Y-66262285D01*
X55560742Y-66309904D01*
X55465504Y-66357523D01*
X54655980Y-66357523D01*
X55655980Y-67357523D02*
X55655980Y-66786095D01*
X55655980Y-67071809D02*
X54655980Y-67071809D01*
X54798838Y-66976571D01*
X54894076Y-66881333D01*
X54941695Y-66786095D01*
X39955980Y-63286095D02*
X39955980Y-63952761D01*
X40955980Y-63524190D01*
X40289314Y-64762285D02*
X40955980Y-64762285D01*
X39908361Y-64524190D02*
X40622647Y-64286095D01*
X40622647Y-64905142D01*
X40955980Y-65286095D02*
X39955980Y-65286095D01*
X40432171Y-65286095D02*
X40432171Y-65857523D01*
X40955980Y-65857523D02*
X39955980Y-65857523D01*
X40860742Y-66905142D02*
X40908361Y-66857523D01*
X40955980Y-66714666D01*
X40955980Y-66619428D01*
X40908361Y-66476571D01*
X40813123Y-66381333D01*
X40717885Y-66333714D01*
X40527409Y-66286095D01*
X40384552Y-66286095D01*
X40194076Y-66333714D01*
X40098838Y-66381333D01*
X40003600Y-66476571D01*
X39955980Y-66619428D01*
X39955980Y-66714666D01*
X40003600Y-66857523D01*
X40051219Y-66905142D01*
X39955980Y-67809904D02*
X39955980Y-67333714D01*
X40432171Y-67286095D01*
X40384552Y-67333714D01*
X40336933Y-67428952D01*
X40336933Y-67667047D01*
X40384552Y-67762285D01*
X40432171Y-67809904D01*
X40527409Y-67857523D01*
X40765504Y-67857523D01*
X40860742Y-67809904D01*
X40908361Y-67762285D01*
X40955980Y-67667047D01*
X40955980Y-67428952D01*
X40908361Y-67333714D01*
X40860742Y-67286095D01*
X39955980Y-68190857D02*
X39955980Y-68857523D01*
X40955980Y-68428952D01*
X39955980Y-69143238D02*
X39955980Y-69762285D01*
X40336933Y-69428952D01*
X40336933Y-69571809D01*
X40384552Y-69667047D01*
X40432171Y-69714666D01*
X40527409Y-69762285D01*
X40765504Y-69762285D01*
X40860742Y-69714666D01*
X40908361Y-69667047D01*
X40955980Y-69571809D01*
X40955980Y-69286095D01*
X40908361Y-69190857D01*
X40860742Y-69143238D01*
%TO.C,RN11*%
X72763880Y-43537333D02*
X72287690Y-43204000D01*
X72763880Y-42965904D02*
X71763880Y-42965904D01*
X71763880Y-43346857D01*
X71811500Y-43442095D01*
X71859119Y-43489714D01*
X71954357Y-43537333D01*
X72097214Y-43537333D01*
X72192452Y-43489714D01*
X72240071Y-43442095D01*
X72287690Y-43346857D01*
X72287690Y-42965904D01*
X72763880Y-43965904D02*
X71763880Y-43965904D01*
X72763880Y-44537333D01*
X71763880Y-44537333D01*
X72763880Y-45537333D02*
X72763880Y-44965904D01*
X72763880Y-45251619D02*
X71763880Y-45251619D01*
X71906738Y-45156380D01*
X72001976Y-45061142D01*
X72049595Y-44965904D01*
X72763880Y-46489714D02*
X72763880Y-45918285D01*
X72763880Y-46204000D02*
X71763880Y-46204000D01*
X71906738Y-46108761D01*
X72001976Y-46013523D01*
X72049595Y-45918285D01*
X78363880Y-44108761D02*
X78363880Y-43537333D01*
X78363880Y-43823047D02*
X77363880Y-43823047D01*
X77506738Y-43727809D01*
X77601976Y-43632571D01*
X77649595Y-43537333D01*
X77363880Y-44727809D02*
X77363880Y-44823047D01*
X77411500Y-44918285D01*
X77459119Y-44965904D01*
X77554357Y-45013523D01*
X77744833Y-45061142D01*
X77982928Y-45061142D01*
X78173404Y-45013523D01*
X78268642Y-44965904D01*
X78316261Y-44918285D01*
X78363880Y-44823047D01*
X78363880Y-44727809D01*
X78316261Y-44632571D01*
X78268642Y-44584952D01*
X78173404Y-44537333D01*
X77982928Y-44489714D01*
X77744833Y-44489714D01*
X77554357Y-44537333D01*
X77459119Y-44584952D01*
X77411500Y-44632571D01*
X77363880Y-44727809D01*
X78363880Y-45489714D02*
X77363880Y-45489714D01*
X77982928Y-45584952D02*
X78363880Y-45870666D01*
X77697214Y-45870666D02*
X78078166Y-45489714D01*
%TO.C,RN4*%
X47402880Y-86939523D02*
X46926690Y-86606190D01*
X47402880Y-86368095D02*
X46402880Y-86368095D01*
X46402880Y-86749047D01*
X46450500Y-86844285D01*
X46498119Y-86891904D01*
X46593357Y-86939523D01*
X46736214Y-86939523D01*
X46831452Y-86891904D01*
X46879071Y-86844285D01*
X46926690Y-86749047D01*
X46926690Y-86368095D01*
X47402880Y-87368095D02*
X46402880Y-87368095D01*
X47402880Y-87939523D01*
X46402880Y-87939523D01*
X46736214Y-88844285D02*
X47402880Y-88844285D01*
X46355261Y-88606190D02*
X47069547Y-88368095D01*
X47069547Y-88987142D01*
X41802880Y-87034761D02*
X41802880Y-86463333D01*
X41802880Y-86749047D02*
X40802880Y-86749047D01*
X40945738Y-86653809D01*
X41040976Y-86558571D01*
X41088595Y-86463333D01*
X40802880Y-87653809D02*
X40802880Y-87749047D01*
X40850500Y-87844285D01*
X40898119Y-87891904D01*
X40993357Y-87939523D01*
X41183833Y-87987142D01*
X41421928Y-87987142D01*
X41612404Y-87939523D01*
X41707642Y-87891904D01*
X41755261Y-87844285D01*
X41802880Y-87749047D01*
X41802880Y-87653809D01*
X41755261Y-87558571D01*
X41707642Y-87510952D01*
X41612404Y-87463333D01*
X41421928Y-87415714D01*
X41183833Y-87415714D01*
X40993357Y-87463333D01*
X40898119Y-87510952D01*
X40850500Y-87558571D01*
X40802880Y-87653809D01*
X41802880Y-88415714D02*
X40802880Y-88415714D01*
X41421928Y-88510952D02*
X41802880Y-88796666D01*
X41136214Y-88796666D02*
X41517166Y-88415714D01*
%TO.C,Q20*%
X63101928Y-48439619D02*
X63197166Y-48392000D01*
X63292404Y-48296761D01*
X63435261Y-48153904D01*
X63530500Y-48106285D01*
X63625738Y-48106285D01*
X63578119Y-48344380D02*
X63673357Y-48296761D01*
X63768595Y-48201523D01*
X63816214Y-48011047D01*
X63816214Y-47677714D01*
X63768595Y-47487238D01*
X63673357Y-47392000D01*
X63578119Y-47344380D01*
X63387642Y-47344380D01*
X63292404Y-47392000D01*
X63197166Y-47487238D01*
X63149547Y-47677714D01*
X63149547Y-48011047D01*
X63197166Y-48201523D01*
X63292404Y-48296761D01*
X63387642Y-48344380D01*
X63578119Y-48344380D01*
X62768595Y-47439619D02*
X62720976Y-47392000D01*
X62625738Y-47344380D01*
X62387642Y-47344380D01*
X62292404Y-47392000D01*
X62244785Y-47439619D01*
X62197166Y-47534857D01*
X62197166Y-47630095D01*
X62244785Y-47772952D01*
X62816214Y-48344380D01*
X62197166Y-48344380D01*
X61578119Y-47344380D02*
X61482880Y-47344380D01*
X61387642Y-47392000D01*
X61340023Y-47439619D01*
X61292404Y-47534857D01*
X61244785Y-47725333D01*
X61244785Y-47963428D01*
X61292404Y-48153904D01*
X61340023Y-48249142D01*
X61387642Y-48296761D01*
X61482880Y-48344380D01*
X61578119Y-48344380D01*
X61673357Y-48296761D01*
X61720976Y-48249142D01*
X61768595Y-48153904D01*
X61816214Y-47963428D01*
X61816214Y-47725333D01*
X61768595Y-47534857D01*
X61720976Y-47439619D01*
X61673357Y-47392000D01*
X61578119Y-47344380D01*
D11*
X64147166Y-52642000D02*
X64047166Y-52675333D01*
X64013833Y-52708666D01*
X63980500Y-52775333D01*
X63980500Y-52875333D01*
X64013833Y-52942000D01*
X64047166Y-52975333D01*
X64113833Y-53008666D01*
X64380500Y-53008666D01*
X64380500Y-52308666D01*
X64147166Y-52308666D01*
X64080500Y-52342000D01*
X64047166Y-52375333D01*
X64013833Y-52442000D01*
X64013833Y-52508666D01*
X64047166Y-52575333D01*
X64080500Y-52608666D01*
X64147166Y-52642000D01*
X64380500Y-52642000D01*
X63713833Y-52975333D02*
X63613833Y-53008666D01*
X63447166Y-53008666D01*
X63380500Y-52975333D01*
X63347166Y-52942000D01*
X63313833Y-52875333D01*
X63313833Y-52808666D01*
X63347166Y-52742000D01*
X63380500Y-52708666D01*
X63447166Y-52675333D01*
X63580500Y-52642000D01*
X63647166Y-52608666D01*
X63680500Y-52575333D01*
X63713833Y-52508666D01*
X63713833Y-52442000D01*
X63680500Y-52375333D01*
X63647166Y-52342000D01*
X63580500Y-52308666D01*
X63413833Y-52308666D01*
X63313833Y-52342000D01*
X63047166Y-52975333D02*
X62947166Y-53008666D01*
X62780500Y-53008666D01*
X62713833Y-52975333D01*
X62680500Y-52942000D01*
X62647166Y-52875333D01*
X62647166Y-52808666D01*
X62680500Y-52742000D01*
X62713833Y-52708666D01*
X62780500Y-52675333D01*
X62913833Y-52642000D01*
X62980500Y-52608666D01*
X63013833Y-52575333D01*
X63047166Y-52508666D01*
X63047166Y-52442000D01*
X63013833Y-52375333D01*
X62980500Y-52342000D01*
X62913833Y-52308666D01*
X62747166Y-52308666D01*
X62647166Y-52342000D01*
X61980500Y-53008666D02*
X62380500Y-53008666D01*
X62180500Y-53008666D02*
X62180500Y-52308666D01*
X62247166Y-52408666D01*
X62313833Y-52475333D01*
X62380500Y-52508666D01*
X61747166Y-52308666D02*
X61313833Y-52308666D01*
X61547166Y-52575333D01*
X61447166Y-52575333D01*
X61380500Y-52608666D01*
X61347166Y-52642000D01*
X61313833Y-52708666D01*
X61313833Y-52875333D01*
X61347166Y-52942000D01*
X61380500Y-52975333D01*
X61447166Y-53008666D01*
X61647166Y-53008666D01*
X61713833Y-52975333D01*
X61747166Y-52942000D01*
X60913833Y-52608666D02*
X60980500Y-52575333D01*
X61013833Y-52542000D01*
X61047166Y-52475333D01*
X61047166Y-52442000D01*
X61013833Y-52375333D01*
X60980500Y-52342000D01*
X60913833Y-52308666D01*
X60780500Y-52308666D01*
X60713833Y-52342000D01*
X60680500Y-52375333D01*
X60647166Y-52442000D01*
X60647166Y-52475333D01*
X60680500Y-52542000D01*
X60713833Y-52575333D01*
X60780500Y-52608666D01*
X60913833Y-52608666D01*
X60980500Y-52642000D01*
X61013833Y-52675333D01*
X61047166Y-52742000D01*
X61047166Y-52875333D01*
X61013833Y-52942000D01*
X60980500Y-52975333D01*
X60913833Y-53008666D01*
X60780500Y-53008666D01*
X60713833Y-52975333D01*
X60680500Y-52942000D01*
X60647166Y-52875333D01*
X60647166Y-52742000D01*
X60680500Y-52675333D01*
X60713833Y-52642000D01*
X60780500Y-52608666D01*
D10*
%TO.C,RN3*%
X78768880Y-86939523D02*
X78292690Y-86606190D01*
X78768880Y-86368095D02*
X77768880Y-86368095D01*
X77768880Y-86749047D01*
X77816500Y-86844285D01*
X77864119Y-86891904D01*
X77959357Y-86939523D01*
X78102214Y-86939523D01*
X78197452Y-86891904D01*
X78245071Y-86844285D01*
X78292690Y-86749047D01*
X78292690Y-86368095D01*
X78768880Y-87368095D02*
X77768880Y-87368095D01*
X78768880Y-87939523D01*
X77768880Y-87939523D01*
X77768880Y-88320476D02*
X77768880Y-88939523D01*
X78149833Y-88606190D01*
X78149833Y-88749047D01*
X78197452Y-88844285D01*
X78245071Y-88891904D01*
X78340309Y-88939523D01*
X78578404Y-88939523D01*
X78673642Y-88891904D01*
X78721261Y-88844285D01*
X78768880Y-88749047D01*
X78768880Y-88463333D01*
X78721261Y-88368095D01*
X78673642Y-88320476D01*
X73168880Y-87034761D02*
X73168880Y-86463333D01*
X73168880Y-86749047D02*
X72168880Y-86749047D01*
X72311738Y-86653809D01*
X72406976Y-86558571D01*
X72454595Y-86463333D01*
X72168880Y-87653809D02*
X72168880Y-87749047D01*
X72216500Y-87844285D01*
X72264119Y-87891904D01*
X72359357Y-87939523D01*
X72549833Y-87987142D01*
X72787928Y-87987142D01*
X72978404Y-87939523D01*
X73073642Y-87891904D01*
X73121261Y-87844285D01*
X73168880Y-87749047D01*
X73168880Y-87653809D01*
X73121261Y-87558571D01*
X73073642Y-87510952D01*
X72978404Y-87463333D01*
X72787928Y-87415714D01*
X72549833Y-87415714D01*
X72359357Y-87463333D01*
X72264119Y-87510952D01*
X72216500Y-87558571D01*
X72168880Y-87653809D01*
X73168880Y-88415714D02*
X72168880Y-88415714D01*
X72787928Y-88510952D02*
X73168880Y-88796666D01*
X72502214Y-88796666D02*
X72883166Y-88415714D01*
%TO.C,Q8*%
X48034638Y-84227619D02*
X48129876Y-84180000D01*
X48225114Y-84084761D01*
X48367971Y-83941904D01*
X48463209Y-83894285D01*
X48558447Y-83894285D01*
X48510828Y-84132380D02*
X48606066Y-84084761D01*
X48701304Y-83989523D01*
X48748923Y-83799047D01*
X48748923Y-83465714D01*
X48701304Y-83275238D01*
X48606066Y-83180000D01*
X48510828Y-83132380D01*
X48320352Y-83132380D01*
X48225114Y-83180000D01*
X48129876Y-83275238D01*
X48082257Y-83465714D01*
X48082257Y-83799047D01*
X48129876Y-83989523D01*
X48225114Y-84084761D01*
X48320352Y-84132380D01*
X48510828Y-84132380D01*
X47510828Y-83560952D02*
X47606066Y-83513333D01*
X47653685Y-83465714D01*
X47701304Y-83370476D01*
X47701304Y-83322857D01*
X47653685Y-83227619D01*
X47606066Y-83180000D01*
X47510828Y-83132380D01*
X47320352Y-83132380D01*
X47225114Y-83180000D01*
X47177495Y-83227619D01*
X47129876Y-83322857D01*
X47129876Y-83370476D01*
X47177495Y-83465714D01*
X47225114Y-83513333D01*
X47320352Y-83560952D01*
X47510828Y-83560952D01*
X47606066Y-83608571D01*
X47653685Y-83656190D01*
X47701304Y-83751428D01*
X47701304Y-83941904D01*
X47653685Y-84037142D01*
X47606066Y-84084761D01*
X47510828Y-84132380D01*
X47320352Y-84132380D01*
X47225114Y-84084761D01*
X47177495Y-84037142D01*
X47129876Y-83941904D01*
X47129876Y-83751428D01*
X47177495Y-83656190D01*
X47225114Y-83608571D01*
X47320352Y-83560952D01*
D11*
X49556066Y-78830000D02*
X49456066Y-78863333D01*
X49422733Y-78896666D01*
X49389400Y-78963333D01*
X49389400Y-79063333D01*
X49422733Y-79130000D01*
X49456066Y-79163333D01*
X49522733Y-79196666D01*
X49789400Y-79196666D01*
X49789400Y-78496666D01*
X49556066Y-78496666D01*
X49489400Y-78530000D01*
X49456066Y-78563333D01*
X49422733Y-78630000D01*
X49422733Y-78696666D01*
X49456066Y-78763333D01*
X49489400Y-78796666D01*
X49556066Y-78830000D01*
X49789400Y-78830000D01*
X49122733Y-79163333D02*
X49022733Y-79196666D01*
X48856066Y-79196666D01*
X48789400Y-79163333D01*
X48756066Y-79130000D01*
X48722733Y-79063333D01*
X48722733Y-78996666D01*
X48756066Y-78930000D01*
X48789400Y-78896666D01*
X48856066Y-78863333D01*
X48989400Y-78830000D01*
X49056066Y-78796666D01*
X49089400Y-78763333D01*
X49122733Y-78696666D01*
X49122733Y-78630000D01*
X49089400Y-78563333D01*
X49056066Y-78530000D01*
X48989400Y-78496666D01*
X48822733Y-78496666D01*
X48722733Y-78530000D01*
X48456066Y-79163333D02*
X48356066Y-79196666D01*
X48189400Y-79196666D01*
X48122733Y-79163333D01*
X48089400Y-79130000D01*
X48056066Y-79063333D01*
X48056066Y-78996666D01*
X48089400Y-78930000D01*
X48122733Y-78896666D01*
X48189400Y-78863333D01*
X48322733Y-78830000D01*
X48389400Y-78796666D01*
X48422733Y-78763333D01*
X48456066Y-78696666D01*
X48456066Y-78630000D01*
X48422733Y-78563333D01*
X48389400Y-78530000D01*
X48322733Y-78496666D01*
X48156066Y-78496666D01*
X48056066Y-78530000D01*
X47389400Y-79196666D02*
X47789400Y-79196666D01*
X47589400Y-79196666D02*
X47589400Y-78496666D01*
X47656066Y-78596666D01*
X47722733Y-78663333D01*
X47789400Y-78696666D01*
X47156066Y-78496666D02*
X46722733Y-78496666D01*
X46956066Y-78763333D01*
X46856066Y-78763333D01*
X46789400Y-78796666D01*
X46756066Y-78830000D01*
X46722733Y-78896666D01*
X46722733Y-79063333D01*
X46756066Y-79130000D01*
X46789400Y-79163333D01*
X46856066Y-79196666D01*
X47056066Y-79196666D01*
X47122733Y-79163333D01*
X47156066Y-79130000D01*
X46322733Y-78796666D02*
X46389400Y-78763333D01*
X46422733Y-78730000D01*
X46456066Y-78663333D01*
X46456066Y-78630000D01*
X46422733Y-78563333D01*
X46389400Y-78530000D01*
X46322733Y-78496666D01*
X46189400Y-78496666D01*
X46122733Y-78530000D01*
X46089400Y-78563333D01*
X46056066Y-78630000D01*
X46056066Y-78663333D01*
X46089400Y-78730000D01*
X46122733Y-78763333D01*
X46189400Y-78796666D01*
X46322733Y-78796666D01*
X46389400Y-78830000D01*
X46422733Y-78863333D01*
X46456066Y-78930000D01*
X46456066Y-79063333D01*
X46422733Y-79130000D01*
X46389400Y-79163333D01*
X46322733Y-79196666D01*
X46189400Y-79196666D01*
X46122733Y-79163333D01*
X46089400Y-79130000D01*
X46056066Y-79063333D01*
X46056066Y-78930000D01*
X46089400Y-78863333D01*
X46122733Y-78830000D01*
X46189400Y-78796666D01*
D12*
%TO.C,Q21*%
X68265000Y-51852000D02*
X67615000Y-51852000D01*
X68265000Y-51852000D02*
X68915000Y-51852000D01*
X68265000Y-48732000D02*
X69940000Y-48732000D01*
X68265000Y-48732000D02*
X67615000Y-48732000D01*
%TO.C,Q6*%
X32475700Y-38064000D02*
X33125700Y-38064000D01*
X32475700Y-38064000D02*
X31825700Y-38064000D01*
X32475700Y-41184000D02*
X30800700Y-41184000D01*
X32475700Y-41184000D02*
X33125700Y-41184000D01*
%TO.C,Q12*%
X48441400Y-41184000D02*
X46766400Y-41184000D01*
X48441400Y-38064000D02*
X47791400Y-38064000D01*
X48441400Y-41184000D02*
X49091400Y-41184000D01*
X48441400Y-38064000D02*
X49091400Y-38064000D01*
%TO.C,Q4*%
X61002200Y-82840000D02*
X59327200Y-82840000D01*
X61002200Y-82840000D02*
X61652200Y-82840000D01*
X61002200Y-79720000D02*
X60352200Y-79720000D01*
X61002200Y-79720000D02*
X61652200Y-79720000D01*
%TO.C,RN6*%
X56285800Y-87130000D02*
X56285800Y-88130000D01*
X52925800Y-87130000D02*
X52925800Y-88130000D01*
%TO.C,C4*%
X77751000Y-66320936D02*
X77751000Y-66775064D01*
X79221000Y-66320936D02*
X79221000Y-66775064D01*
%TO.C,Q5*%
X24492900Y-38064000D02*
X25142900Y-38064000D01*
X24492900Y-41184000D02*
X22817900Y-41184000D01*
X24492900Y-41184000D02*
X25142900Y-41184000D01*
X24492900Y-38064000D02*
X23842900Y-38064000D01*
%TO.C,RN5*%
X42951500Y-45204000D02*
X42951500Y-44204000D01*
X46311500Y-45204000D02*
X46311500Y-44204000D01*
%TO.C,Q15*%
X35338000Y-51852000D02*
X34688000Y-51852000D01*
X35338000Y-48732000D02*
X34688000Y-48732000D01*
X35338000Y-48732000D02*
X37013000Y-48732000D01*
X35338000Y-51852000D02*
X35988000Y-51852000D01*
%TO.C,C3*%
X56669000Y-66320936D02*
X56669000Y-66775064D01*
X58139000Y-66320936D02*
X58139000Y-66775064D01*
%TO.C,RN10*%
X57666000Y-48612000D02*
X56666000Y-48612000D01*
X57666000Y-51972000D02*
X56666000Y-51972000D01*
%TO.C,Q18*%
X64407200Y-38064000D02*
X63757200Y-38064000D01*
X64407200Y-38064000D02*
X65057200Y-38064000D01*
X64407200Y-41184000D02*
X65057200Y-41184000D01*
X64407200Y-41184000D02*
X62732200Y-41184000D01*
%TO.C,RN9*%
X41202500Y-48612000D02*
X40202500Y-48612000D01*
X41202500Y-51972000D02*
X40202500Y-51972000D01*
%TO.C,Q2*%
X74065100Y-79720000D02*
X73415100Y-79720000D01*
X74065100Y-79720000D02*
X74715100Y-79720000D01*
X74065100Y-82840000D02*
X72390100Y-82840000D01*
X74065100Y-82840000D02*
X74715100Y-82840000D01*
%TO.C,Q14*%
X29603500Y-51852000D02*
X30253500Y-51852000D01*
X29603500Y-48732000D02*
X31278500Y-48732000D01*
X29603500Y-51852000D02*
X28953500Y-51852000D01*
X29603500Y-48732000D02*
X28953500Y-48732000D01*
%TO.C,Q19*%
X51801500Y-48732000D02*
X51151500Y-48732000D01*
X51801500Y-51852000D02*
X51151500Y-51852000D01*
X51801500Y-51852000D02*
X52451500Y-51852000D01*
X51801500Y-48732000D02*
X53476500Y-48732000D01*
%TO.C,Q1*%
X80596500Y-79720000D02*
X81246500Y-79720000D01*
X80596500Y-79720000D02*
X79946500Y-79720000D01*
X80596500Y-82840000D02*
X78921500Y-82840000D01*
X80596500Y-82840000D02*
X81246500Y-82840000D01*
%TO.C,RN2*%
X27711500Y-45204000D02*
X27711500Y-44204000D01*
X31071500Y-45204000D02*
X31071500Y-44204000D01*
%TO.C,RN1*%
X66741200Y-87130000D02*
X66741200Y-88130000D01*
X63381200Y-87130000D02*
X63381200Y-88130000D01*
%TO.C,Q9*%
X41407900Y-82840000D02*
X39732900Y-82840000D01*
X41407900Y-82840000D02*
X42057900Y-82840000D01*
X41407900Y-79720000D02*
X42057900Y-79720000D01*
X41407900Y-79720000D02*
X40757900Y-79720000D01*
%TO.C,U5*%
X62781200Y-70408000D02*
X63016200Y-70408000D01*
X62781200Y-66548000D02*
X62781200Y-70408000D01*
X62781200Y-66548000D02*
X62781200Y-62688000D01*
X75801200Y-66548000D02*
X75801200Y-62688000D01*
X75801200Y-70408000D02*
X75566200Y-70408000D01*
X75801200Y-62688000D02*
X75566200Y-62688000D01*
X75801200Y-66548000D02*
X75801200Y-70408000D01*
X75566200Y-70408000D02*
X75566200Y-72223000D01*
X62781200Y-62688000D02*
X63016200Y-62688000D01*
%TO.C,Q22*%
X78994000Y-51852000D02*
X79644000Y-51852000D01*
X78994000Y-48732000D02*
X78344000Y-48732000D01*
X78994000Y-48732000D02*
X80669000Y-48732000D01*
X78994000Y-51852000D02*
X78344000Y-51852000D01*
%TO.C,Q23*%
X72390000Y-41184000D02*
X73040000Y-41184000D01*
X72390000Y-38064000D02*
X71740000Y-38064000D01*
X72390000Y-41184000D02*
X70715000Y-41184000D01*
X72390000Y-38064000D02*
X73040000Y-38064000D01*
%TO.C,C1*%
X23087000Y-58289564D02*
X23087000Y-57835436D01*
X21617000Y-58289564D02*
X21617000Y-57835436D01*
%TO.C,RN7*%
X24739000Y-51972000D02*
X23739000Y-51972000D01*
X24739000Y-48612000D02*
X23739000Y-48612000D01*
%TO.C,U3*%
X32926000Y-66548000D02*
X32926000Y-70408000D01*
X32926000Y-70408000D02*
X32691000Y-70408000D01*
X19906000Y-62688000D02*
X20141000Y-62688000D01*
X19906000Y-70408000D02*
X20141000Y-70408000D01*
X32926000Y-66548000D02*
X32926000Y-62688000D01*
X32926000Y-62688000D02*
X32691000Y-62688000D01*
X32691000Y-70408000D02*
X32691000Y-72223000D01*
X19906000Y-66548000D02*
X19906000Y-62688000D01*
X19906000Y-66548000D02*
X19906000Y-70408000D01*
%TO.C,C2*%
X36549000Y-66320936D02*
X36549000Y-66775064D01*
X35079000Y-66320936D02*
X35079000Y-66775064D01*
%TO.C,Q10*%
X34876500Y-82840000D02*
X35526500Y-82840000D01*
X34876500Y-82840000D02*
X33201500Y-82840000D01*
X34876500Y-79720000D02*
X34226500Y-79720000D01*
X34876500Y-79720000D02*
X35526500Y-79720000D01*
%TO.C,Q24*%
X80372900Y-41184000D02*
X78697900Y-41184000D01*
X80372900Y-38064000D02*
X81022900Y-38064000D01*
X80372900Y-38064000D02*
X79722900Y-38064000D01*
X80372900Y-41184000D02*
X81022900Y-41184000D01*
%TO.C,Q17*%
X56424300Y-38064000D02*
X55774300Y-38064000D01*
X56424300Y-41184000D02*
X57074300Y-41184000D01*
X56424300Y-41184000D02*
X54749300Y-41184000D01*
X56424300Y-38064000D02*
X57074300Y-38064000D01*
%TO.C,Q13*%
X18874500Y-48732000D02*
X20549500Y-48732000D01*
X18874500Y-51852000D02*
X19524500Y-51852000D01*
X18874500Y-51852000D02*
X18224500Y-51852000D01*
X18874500Y-48732000D02*
X18224500Y-48732000D01*
%TO.C,RN8*%
X58191500Y-45204000D02*
X58191500Y-44204000D01*
X61551500Y-45204000D02*
X61551500Y-44204000D01*
%TO.C,Q3*%
X67533600Y-79720000D02*
X68183600Y-79720000D01*
X67533600Y-82840000D02*
X65858600Y-82840000D01*
X67533600Y-79720000D02*
X66883600Y-79720000D01*
X67533600Y-82840000D02*
X68183600Y-82840000D01*
%TO.C,Q11*%
X40458600Y-38064000D02*
X41108600Y-38064000D01*
X40458600Y-41184000D02*
X38783600Y-41184000D01*
X40458600Y-38064000D02*
X39808600Y-38064000D01*
X40458600Y-41184000D02*
X41108600Y-41184000D01*
%TO.C,Q16*%
X46067000Y-51852000D02*
X45417000Y-51852000D01*
X46067000Y-48732000D02*
X47742000Y-48732000D01*
X46067000Y-51852000D02*
X46717000Y-51852000D01*
X46067000Y-48732000D02*
X45417000Y-48732000D01*
%TO.C,RN12*%
X74129500Y-51972000D02*
X73129500Y-51972000D01*
X74129500Y-48612000D02*
X73129500Y-48612000D01*
%TO.C,Q7*%
X54470800Y-79720000D02*
X55120800Y-79720000D01*
X54470800Y-82840000D02*
X52795800Y-82840000D01*
X54470800Y-79720000D02*
X53820800Y-79720000D01*
X54470800Y-82840000D02*
X55120800Y-82840000D01*
%TO.C,U1*%
X54363600Y-70408000D02*
X54128600Y-70408000D01*
X41343600Y-70408000D02*
X41578600Y-70408000D01*
X41343600Y-66548000D02*
X41343600Y-62688000D01*
X54363600Y-66548000D02*
X54363600Y-62688000D01*
X54363600Y-66548000D02*
X54363600Y-70408000D01*
X41343600Y-66548000D02*
X41343600Y-70408000D01*
X41343600Y-62688000D02*
X41578600Y-62688000D01*
X54128600Y-70408000D02*
X54128600Y-72223000D01*
X54363600Y-62688000D02*
X54128600Y-62688000D01*
%TO.C,RN11*%
X73431500Y-45204000D02*
X73431500Y-44204000D01*
X76791500Y-45204000D02*
X76791500Y-44204000D01*
%TO.C,RN4*%
X42470500Y-87130000D02*
X42470500Y-88130000D01*
X45830500Y-87130000D02*
X45830500Y-88130000D01*
%TO.C,Q20*%
X62530500Y-48732000D02*
X64205500Y-48732000D01*
X62530500Y-48732000D02*
X61880500Y-48732000D01*
X62530500Y-51852000D02*
X63180500Y-51852000D01*
X62530500Y-51852000D02*
X61880500Y-51852000D01*
%TO.C,RN3*%
X73836500Y-87130000D02*
X73836500Y-88130000D01*
X77196500Y-87130000D02*
X77196500Y-88130000D01*
%TO.C,Q8*%
X47939400Y-82840000D02*
X46264400Y-82840000D01*
X47939400Y-82840000D02*
X48589400Y-82840000D01*
X47939400Y-79720000D02*
X48589400Y-79720000D01*
X47939400Y-79720000D02*
X47289400Y-79720000D01*
%TD*%
M02*
