%TF.GenerationSoftware,KiCad,Pcbnew,7.0.10*%
%TF.CreationDate,2024-03-08T14:18:15+01:00*%
%TF.ProjectId,pico-sst39sf0x0-pcb,7069636f-2d73-4737-9433-397366307830,rev?*%
%TF.SameCoordinates,Original*%
%TF.FileFunction,Soldermask,Bot*%
%TF.FilePolarity,Negative*%
%FSLAX46Y46*%
G04 Gerber Fmt 4.6, Leading zero omitted, Abs format (unit mm)*
G04 Created by KiCad (PCBNEW 7.0.10) date 2024-03-08 14:18:15*
%MOMM*%
%LPD*%
G01*
G04 APERTURE LIST*
G04 Aperture macros list*
%AMRoundRect*
0 Rectangle with rounded corners*
0 $1 Rounding radius*
0 $2 $3 $4 $5 $6 $7 $8 $9 X,Y pos of 4 corners*
0 Add a 4 corners polygon primitive as box body*
4,1,4,$2,$3,$4,$5,$6,$7,$8,$9,$2,$3,0*
0 Add four circle primitives for the rounded corners*
1,1,$1+$1,$2,$3*
1,1,$1+$1,$4,$5*
1,1,$1+$1,$6,$7*
1,1,$1+$1,$8,$9*
0 Add four rect primitives between the rounded corners*
20,1,$1+$1,$2,$3,$4,$5,0*
20,1,$1+$1,$4,$5,$6,$7,0*
20,1,$1+$1,$6,$7,$8,$9,0*
20,1,$1+$1,$8,$9,$2,$3,0*%
G04 Aperture macros list end*
%ADD10RoundRect,0.250000X-0.350000X-0.450000X0.350000X-0.450000X0.350000X0.450000X-0.350000X0.450000X0*%
%ADD11RoundRect,0.250000X0.450000X-0.350000X0.450000X0.350000X-0.450000X0.350000X-0.450000X-0.350000X0*%
%ADD12O,1.500000X1.500000*%
%ADD13O,1.800000X1.800000*%
%ADD14O,1.700000X1.700000*%
%ADD15R,1.700000X1.700000*%
%ADD16R,1.440000X2.000000*%
%ADD17O,1.440000X2.000000*%
%ADD18C,2.000000*%
%ADD19C,3.200000*%
%ADD20R,1.800000X1.800000*%
%ADD21C,1.800000*%
%ADD22RoundRect,0.150000X0.587500X0.150000X-0.587500X0.150000X-0.587500X-0.150000X0.587500X-0.150000X0*%
%ADD23RoundRect,0.150000X-0.587500X-0.150000X0.587500X-0.150000X0.587500X0.150000X-0.587500X0.150000X0*%
%ADD24R,0.500000X0.800000*%
%ADD25R,0.400000X0.800000*%
%ADD26RoundRect,0.250000X-0.475000X0.250000X-0.475000X-0.250000X0.475000X-0.250000X0.475000X0.250000X0*%
%ADD27R,1.800000X2.500000*%
%ADD28R,0.800000X0.500000*%
%ADD29R,0.800000X0.400000*%
%ADD30RoundRect,0.150000X0.150000X-0.875000X0.150000X0.875000X-0.150000X0.875000X-0.150000X-0.875000X0*%
%ADD31RoundRect,0.250000X0.475000X-0.250000X0.475000X0.250000X-0.475000X0.250000X-0.475000X-0.250000X0*%
G04 APERTURE END LIST*
D10*
%TO.C,R3*%
X54515000Y-81026000D03*
X56515000Y-81026000D03*
%TD*%
D11*
%TO.C,R2*%
X42672000Y-87233000D03*
X42672000Y-85233000D03*
%TD*%
D12*
%TO.C,U5*%
X98945000Y-39990000D03*
X94095000Y-39990000D03*
D13*
X93795000Y-36960000D03*
X99245000Y-36960000D03*
D14*
X87630000Y-36830000D03*
X87630000Y-39370000D03*
D15*
X87630000Y-41910000D03*
D14*
X87630000Y-44450000D03*
X87630000Y-46990000D03*
X87630000Y-49530000D03*
X87630000Y-52070000D03*
D15*
X87630000Y-54610000D03*
D14*
X87630000Y-57150000D03*
X87630000Y-59690000D03*
X87630000Y-62230000D03*
X87630000Y-64770000D03*
D15*
X87630000Y-67310000D03*
D14*
X87630000Y-69850000D03*
X87630000Y-72390000D03*
X87630000Y-74930000D03*
X87630000Y-77470000D03*
D15*
X87630000Y-80010000D03*
D14*
X87630000Y-82550000D03*
X87630000Y-85090000D03*
X105410000Y-85090000D03*
X105410000Y-82550000D03*
D15*
X105410000Y-80010000D03*
D14*
X105410000Y-77470000D03*
X105410000Y-74930000D03*
X105410000Y-72390000D03*
X105410000Y-69850000D03*
D15*
X105410000Y-67310000D03*
D14*
X105410000Y-64770000D03*
X105410000Y-62230000D03*
X105410000Y-59690000D03*
X105410000Y-57150000D03*
D15*
X105410000Y-54610000D03*
D14*
X105410000Y-52070000D03*
X105410000Y-49530000D03*
X105410000Y-46990000D03*
X105410000Y-44450000D03*
D15*
X105410000Y-41910000D03*
D14*
X105410000Y-39370000D03*
X105410000Y-36830000D03*
X93980000Y-84860000D03*
D15*
X96520000Y-84860000D03*
D14*
X99060000Y-84860000D03*
%TD*%
D16*
%TO.C,U2*%
X25790000Y-74202500D03*
D17*
X28330000Y-74202500D03*
X30870000Y-74202500D03*
X33410000Y-74202500D03*
X35950000Y-74202500D03*
X38490000Y-74202500D03*
X41030000Y-74202500D03*
X43570000Y-74202500D03*
X46110000Y-74202500D03*
X48650000Y-74202500D03*
X51190000Y-74202500D03*
X53730000Y-74202500D03*
X56270000Y-74202500D03*
X58810000Y-74202500D03*
X61350000Y-74202500D03*
X63890000Y-74202500D03*
X63890000Y-58962500D03*
X61350000Y-58962500D03*
X58810000Y-58962500D03*
X56270000Y-58962500D03*
X53730000Y-58962500D03*
X51190000Y-58962500D03*
X48650000Y-58962500D03*
X46110000Y-58962500D03*
X43570000Y-58962500D03*
X41030000Y-58962500D03*
X38490000Y-58962500D03*
X35950000Y-58962500D03*
X33410000Y-58962500D03*
X30870000Y-58962500D03*
X28330000Y-58962500D03*
X25790000Y-58962500D03*
%TD*%
D18*
%TO.C,SW1*%
X23166000Y-87340000D03*
X29666000Y-87340000D03*
X29666000Y-82840000D03*
X23166000Y-82840000D03*
%TD*%
D19*
%TO.C,H2*%
X17526000Y-86614000D03*
%TD*%
D20*
%TO.C,D2*%
X34793000Y-85090000D03*
D21*
X37333000Y-85090000D03*
%TD*%
D19*
%TO.C,H3*%
X112014000Y-86614000D03*
%TD*%
%TO.C,H1*%
X17526000Y-39116000D03*
%TD*%
D20*
%TO.C,D3*%
X47244000Y-85090000D03*
D21*
X49784000Y-85090000D03*
%TD*%
D19*
%TO.C,H4*%
X112014000Y-39116000D03*
%TD*%
D22*
%TO.C,Q21*%
X69202500Y-49342000D03*
X69202500Y-51242000D03*
X67327500Y-50292000D03*
%TD*%
D23*
%TO.C,Q6*%
X31538200Y-40574000D03*
X31538200Y-38674000D03*
X33413200Y-39624000D03*
%TD*%
%TO.C,Q12*%
X47503900Y-40574000D03*
X47503900Y-38674000D03*
X49378900Y-39624000D03*
%TD*%
%TO.C,Q4*%
X59683800Y-82738000D03*
X59683800Y-80838000D03*
X61558800Y-81788000D03*
%TD*%
D24*
%TO.C,RN6*%
X69888000Y-76708000D03*
D25*
X69088000Y-76708000D03*
X68288000Y-76708000D03*
D24*
X67488000Y-76708000D03*
X67488000Y-74908000D03*
D25*
X68288000Y-74908000D03*
X69088000Y-74908000D03*
D24*
X69888000Y-74908000D03*
%TD*%
D26*
%TO.C,C4*%
X78486000Y-65598000D03*
X78486000Y-67498000D03*
%TD*%
D10*
%TO.C,R1*%
X25432000Y-85090000D03*
X27432000Y-85090000D03*
%TD*%
D23*
%TO.C,Q5*%
X23555400Y-40574000D03*
X23555400Y-38674000D03*
X25430400Y-39624000D03*
%TD*%
D24*
%TO.C,RN5*%
X43431500Y-43804000D03*
D25*
X44231500Y-43804000D03*
X45031500Y-43804000D03*
D24*
X45831500Y-43804000D03*
X45831500Y-45604000D03*
D25*
X45031500Y-45604000D03*
X44231500Y-45604000D03*
D24*
X43431500Y-45604000D03*
%TD*%
D22*
%TO.C,Q15*%
X36275500Y-49342000D03*
X36275500Y-51242000D03*
X34400500Y-50292000D03*
%TD*%
D26*
%TO.C,C3*%
X57150000Y-65664000D03*
X57150000Y-67564000D03*
%TD*%
D27*
%TO.C,D1*%
X17272000Y-60166000D03*
X17272000Y-56166000D03*
%TD*%
D28*
%TO.C,RN10*%
X56266000Y-51492000D03*
D29*
X56266000Y-50692000D03*
X56266000Y-49892000D03*
D28*
X56266000Y-49092000D03*
X58066000Y-49092000D03*
D29*
X58066000Y-49892000D03*
X58066000Y-50692000D03*
D28*
X58066000Y-51492000D03*
%TD*%
D23*
%TO.C,Q18*%
X63469700Y-40574000D03*
X63469700Y-38674000D03*
X65344700Y-39624000D03*
%TD*%
D28*
%TO.C,RN9*%
X39802500Y-51492000D03*
D29*
X39802500Y-50692000D03*
X39802500Y-49892000D03*
D28*
X39802500Y-49092000D03*
X41602500Y-49092000D03*
D29*
X41602500Y-49892000D03*
X41602500Y-50692000D03*
D28*
X41602500Y-51492000D03*
%TD*%
D23*
%TO.C,Q2*%
X68658500Y-82738000D03*
X68658500Y-80838000D03*
X70533500Y-81788000D03*
%TD*%
D22*
%TO.C,Q14*%
X30541000Y-49342000D03*
X30541000Y-51242000D03*
X28666000Y-50292000D03*
%TD*%
%TO.C,Q19*%
X52739000Y-49342000D03*
X52739000Y-51242000D03*
X50864000Y-50292000D03*
%TD*%
D23*
%TO.C,Q1*%
X73145800Y-82738000D03*
X73145800Y-80838000D03*
X75020800Y-81788000D03*
%TD*%
D24*
%TO.C,RN2*%
X28191500Y-43804000D03*
D25*
X28991500Y-43804000D03*
X29791500Y-43804000D03*
D24*
X30591500Y-43804000D03*
X30591500Y-45604000D03*
D25*
X29791500Y-45604000D03*
X28991500Y-45604000D03*
D24*
X28191500Y-45604000D03*
%TD*%
%TO.C,RN1*%
X68510000Y-88276000D03*
D25*
X67710000Y-88276000D03*
X66910000Y-88276000D03*
D24*
X66110000Y-88276000D03*
X66110000Y-86476000D03*
D25*
X66910000Y-86476000D03*
X67710000Y-86476000D03*
D24*
X68510000Y-86476000D03*
%TD*%
D23*
%TO.C,Q9*%
X21414500Y-79690000D03*
X21414500Y-77790000D03*
X23289500Y-78740000D03*
%TD*%
D30*
%TO.C,U4*%
X75006200Y-71198000D03*
X73736200Y-71198000D03*
X72466200Y-71198000D03*
X71196200Y-71198000D03*
X69926200Y-71198000D03*
X68656200Y-71198000D03*
X67386200Y-71198000D03*
X66116200Y-71198000D03*
X64846200Y-71198000D03*
X63576200Y-71198000D03*
X63576200Y-61898000D03*
X64846200Y-61898000D03*
X66116200Y-61898000D03*
X67386200Y-61898000D03*
X68656200Y-61898000D03*
X69926200Y-61898000D03*
X71196200Y-61898000D03*
X72466200Y-61898000D03*
X73736200Y-61898000D03*
X75006200Y-61898000D03*
%TD*%
D22*
%TO.C,Q22*%
X79931500Y-49342000D03*
X79931500Y-51242000D03*
X78056500Y-50292000D03*
%TD*%
D23*
%TO.C,Q23*%
X71452500Y-40574000D03*
X71452500Y-38674000D03*
X73327500Y-39624000D03*
%TD*%
D31*
%TO.C,C1*%
X22352000Y-59012500D03*
X22352000Y-57112500D03*
%TD*%
D28*
%TO.C,RN7*%
X23339000Y-51492000D03*
D29*
X23339000Y-50692000D03*
X23339000Y-49892000D03*
D28*
X23339000Y-49092000D03*
X25139000Y-49092000D03*
D29*
X25139000Y-49892000D03*
X25139000Y-50692000D03*
D28*
X25139000Y-51492000D03*
%TD*%
D30*
%TO.C,U3*%
X32131000Y-71198000D03*
X30861000Y-71198000D03*
X29591000Y-71198000D03*
X28321000Y-71198000D03*
X27051000Y-71198000D03*
X25781000Y-71198000D03*
X24511000Y-71198000D03*
X23241000Y-71198000D03*
X21971000Y-71198000D03*
X20701000Y-71198000D03*
X20701000Y-61898000D03*
X21971000Y-61898000D03*
X23241000Y-61898000D03*
X24511000Y-61898000D03*
X25781000Y-61898000D03*
X27051000Y-61898000D03*
X28321000Y-61898000D03*
X29591000Y-61898000D03*
X30861000Y-61898000D03*
X32131000Y-61898000D03*
%TD*%
D26*
%TO.C,C2*%
X36068000Y-65532000D03*
X36068000Y-67432000D03*
%TD*%
D23*
%TO.C,Q10*%
X16588500Y-79690000D03*
X16588500Y-77790000D03*
X18463500Y-78740000D03*
%TD*%
%TO.C,Q24*%
X79435400Y-40574000D03*
X79435400Y-38674000D03*
X81310400Y-39624000D03*
%TD*%
%TO.C,Q17*%
X55486800Y-40574000D03*
X55486800Y-38674000D03*
X57361800Y-39624000D03*
%TD*%
D22*
%TO.C,Q13*%
X19812000Y-49342000D03*
X19812000Y-51242000D03*
X17937000Y-50292000D03*
%TD*%
D24*
%TO.C,RN8*%
X58671500Y-43804000D03*
D25*
X59471500Y-43804000D03*
X60271500Y-43804000D03*
D24*
X61071500Y-43804000D03*
X61071500Y-45604000D03*
D25*
X60271500Y-45604000D03*
X59471500Y-45604000D03*
D24*
X58671500Y-45604000D03*
%TD*%
D23*
%TO.C,Q3*%
X64171200Y-82738000D03*
X64171200Y-80838000D03*
X66046200Y-81788000D03*
%TD*%
%TO.C,Q11*%
X39521100Y-40574000D03*
X39521100Y-38674000D03*
X41396100Y-39624000D03*
%TD*%
D22*
%TO.C,Q16*%
X47004500Y-49342000D03*
X47004500Y-51242000D03*
X45129500Y-50292000D03*
%TD*%
D28*
%TO.C,RN12*%
X72729500Y-51492000D03*
D29*
X72729500Y-50692000D03*
X72729500Y-49892000D03*
D28*
X72729500Y-49092000D03*
X74529500Y-49092000D03*
D29*
X74529500Y-49892000D03*
X74529500Y-50692000D03*
D28*
X74529500Y-51492000D03*
%TD*%
D23*
%TO.C,Q7*%
X30558500Y-79690000D03*
X30558500Y-77790000D03*
X32433500Y-78740000D03*
%TD*%
D30*
%TO.C,U1*%
X53568600Y-71198000D03*
X52298600Y-71198000D03*
X51028600Y-71198000D03*
X49758600Y-71198000D03*
X48488600Y-71198000D03*
X47218600Y-71198000D03*
X45948600Y-71198000D03*
X44678600Y-71198000D03*
X43408600Y-71198000D03*
X42138600Y-71198000D03*
X42138600Y-61898000D03*
X43408600Y-61898000D03*
X44678600Y-61898000D03*
X45948600Y-61898000D03*
X47218600Y-61898000D03*
X48488600Y-61898000D03*
X49758600Y-61898000D03*
X51028600Y-61898000D03*
X52298600Y-61898000D03*
X53568600Y-61898000D03*
%TD*%
D24*
%TO.C,RN11*%
X73911500Y-43804000D03*
D25*
X74711500Y-43804000D03*
X75511500Y-43804000D03*
D24*
X76311500Y-43804000D03*
X76311500Y-45604000D03*
D25*
X75511500Y-45604000D03*
X74711500Y-45604000D03*
D24*
X73911500Y-45604000D03*
%TD*%
%TO.C,RN4*%
X38138000Y-79524000D03*
D25*
X37338000Y-79524000D03*
X36538000Y-79524000D03*
D24*
X35738000Y-79524000D03*
X35738000Y-77724000D03*
D25*
X36538000Y-77724000D03*
X37338000Y-77724000D03*
D24*
X38138000Y-77724000D03*
%TD*%
D22*
%TO.C,Q20*%
X63468000Y-49342000D03*
X63468000Y-51242000D03*
X61593000Y-50292000D03*
%TD*%
D24*
%TO.C,RN3*%
X77254000Y-76708000D03*
D25*
X76454000Y-76708000D03*
X75654000Y-76708000D03*
D24*
X74854000Y-76708000D03*
X74854000Y-74908000D03*
D25*
X75654000Y-74908000D03*
X76454000Y-74908000D03*
D24*
X77254000Y-74908000D03*
%TD*%
D23*
%TO.C,Q8*%
X25986500Y-79690000D03*
X25986500Y-77790000D03*
X27861500Y-78740000D03*
%TD*%
M02*
