%TF.GenerationSoftware,KiCad,Pcbnew,8.0.2*%
%TF.CreationDate,2025-01-04T14:29:41+01:00*%
%TF.ProjectId,pico-sst39sf0x0-pcb,7069636f-2d73-4737-9433-397366307830,2*%
%TF.SameCoordinates,Original*%
%TF.FileFunction,Copper,L1,Top*%
%TF.FilePolarity,Positive*%
%FSLAX46Y46*%
G04 Gerber Fmt 4.6, Leading zero omitted, Abs format (unit mm)*
G04 Created by KiCad (PCBNEW 8.0.2) date 2025-01-04 14:29:41*
%MOMM*%
%LPD*%
G01*
G04 APERTURE LIST*
%TA.AperFunction,ComponentPad*%
%ADD10O,1.700000X1.700000*%
%TD*%
%TA.AperFunction,SMDPad,CuDef*%
%ADD11R,3.500000X1.700000*%
%TD*%
%TA.AperFunction,ComponentPad*%
%ADD12R,1.700000X1.700000*%
%TD*%
%TA.AperFunction,SMDPad,CuDef*%
%ADD13R,1.700000X3.500000*%
%TD*%
%TA.AperFunction,ComponentPad*%
%ADD14R,1.440000X2.000000*%
%TD*%
%TA.AperFunction,ComponentPad*%
%ADD15O,1.440000X2.000000*%
%TD*%
%TA.AperFunction,ComponentPad*%
%ADD16C,2.000000*%
%TD*%
%TA.AperFunction,ComponentPad*%
%ADD17R,1.800000X1.800000*%
%TD*%
%TA.AperFunction,ComponentPad*%
%ADD18C,1.800000*%
%TD*%
%TA.AperFunction,ViaPad*%
%ADD19C,0.800000*%
%TD*%
%TA.AperFunction,Conductor*%
%ADD20C,0.250000*%
%TD*%
G04 APERTURE END LIST*
D10*
%TO.P,U5,1,GPIO0*%
%TO.N,LD0*%
X99060000Y-22860000D03*
D11*
X98160000Y-22860000D03*
D10*
%TO.P,U5,2,GPIO1*%
%TO.N,LD1*%
X99060000Y-25400000D03*
D11*
X98160000Y-25400000D03*
D12*
%TO.P,U5,3,GND*%
%TO.N,GND*%
X99060000Y-27940000D03*
D11*
X98160000Y-27940000D03*
D10*
%TO.P,U5,4,GPIO2*%
%TO.N,LD2*%
X99060000Y-30480000D03*
D11*
X98160000Y-30480000D03*
D10*
%TO.P,U5,5,GPIO3*%
%TO.N,LD3*%
X99060000Y-33020000D03*
D11*
X98160000Y-33020000D03*
D10*
%TO.P,U5,6,GPIO4*%
%TO.N,LD4*%
X99060000Y-35560000D03*
D11*
X98160000Y-35560000D03*
D10*
%TO.P,U5,7,GPIO5*%
%TO.N,LD5*%
X99060000Y-38100000D03*
D11*
X98160000Y-38100000D03*
D12*
%TO.P,U5,8,GND*%
%TO.N,GND*%
X99060000Y-40640000D03*
D11*
X98160000Y-40640000D03*
D10*
%TO.P,U5,9,GPIO6*%
%TO.N,LD6*%
X99060000Y-43180000D03*
D11*
X98160000Y-43180000D03*
D10*
%TO.P,U5,10,GPIO7*%
%TO.N,LD7*%
X99060000Y-45720000D03*
D11*
X98160000Y-45720000D03*
D10*
%TO.P,U5,11,GPIO8*%
%TO.N,LP0*%
X99060000Y-48260000D03*
D11*
X98160000Y-48260000D03*
D10*
%TO.P,U5,12,GPIO9*%
%TO.N,LP1*%
X99060000Y-50800000D03*
D11*
X98160000Y-50800000D03*
D12*
%TO.P,U5,13,GND*%
%TO.N,GND*%
X99060000Y-53340000D03*
D11*
X98160000Y-53340000D03*
D10*
%TO.P,U5,14,GPIO10*%
%TO.N,LP2*%
X99060000Y-55880000D03*
D11*
X98160000Y-55880000D03*
D10*
%TO.P,U5,15,GPIO11*%
%TO.N,LP3*%
X99060000Y-58420000D03*
D11*
X98160000Y-58420000D03*
D10*
%TO.P,U5,16,GPIO12*%
%TO.N,LP4*%
X99060000Y-60960000D03*
D11*
X98160000Y-60960000D03*
D10*
%TO.P,U5,17,GPIO13*%
%TO.N,LP5*%
X99060000Y-63500000D03*
D11*
X98160000Y-63500000D03*
D12*
%TO.P,U5,18,GND*%
%TO.N,GND*%
X99060000Y-66040000D03*
D11*
X98160000Y-66040000D03*
D10*
%TO.P,U5,19,GPIO14*%
%TO.N,LP6*%
X99060000Y-68580000D03*
D11*
X98160000Y-68580000D03*
D10*
%TO.P,U5,20,GPIO15*%
%TO.N,LP7*%
X99060000Y-71120000D03*
D11*
X98160000Y-71120000D03*
D10*
%TO.P,U5,21,GPIO16*%
%TO.N,~{LROE}*%
X116840000Y-71120000D03*
D11*
X117740000Y-71120000D03*
D10*
%TO.P,U5,22,GPIO17*%
%TO.N,LALS*%
X116840000Y-68580000D03*
D11*
X117740000Y-68580000D03*
D12*
%TO.P,U5,23,GND*%
%TO.N,GND*%
X116840000Y-66040000D03*
D11*
X117740000Y-66040000D03*
D10*
%TO.P,U5,24,GPIO18*%
%TO.N,LAHS*%
X116840000Y-63500000D03*
D11*
X117740000Y-63500000D03*
D10*
%TO.P,U5,25,GPIO19*%
%TO.N,LAUS*%
X116840000Y-60960000D03*
D11*
X117740000Y-60960000D03*
D10*
%TO.P,U5,26,GPIO20*%
%TO.N,~{LPGM}*%
X116840000Y-58420000D03*
D11*
X117740000Y-58420000D03*
D10*
%TO.P,U5,27,GPIO21*%
%TO.N,~{LCE}*%
X116840000Y-55880000D03*
D11*
X117740000Y-55880000D03*
D12*
%TO.P,U5,28,GND*%
%TO.N,GND*%
X116840000Y-53340000D03*
D11*
X117740000Y-53340000D03*
D10*
%TO.P,U5,29,GPIO22*%
%TO.N,~{LOE}*%
X116840000Y-50800000D03*
D11*
X117740000Y-50800000D03*
D10*
%TO.P,U5,30,RUN*%
%TO.N,RUN*%
X116840000Y-48260000D03*
D11*
X117740000Y-48260000D03*
D10*
%TO.P,U5,31,GPIO26_ADC0*%
%TO.N,GPIO26_3v3*%
X116840000Y-45720000D03*
D11*
X117740000Y-45720000D03*
D10*
%TO.P,U5,32,GPIO27_ADC1*%
%TO.N,GPIO27_3v3*%
X116840000Y-43180000D03*
D11*
X117740000Y-43180000D03*
D12*
%TO.P,U5,33,AGND*%
%TO.N,GND*%
X116840000Y-40640000D03*
D11*
X117740000Y-40640000D03*
D10*
%TO.P,U5,34,GPIO28_ADC2*%
%TO.N,unconnected-(U5-GPIO28_ADC2-Pad34)*%
X116840000Y-38100000D03*
D11*
X117740000Y-38100000D03*
D10*
%TO.P,U5,35,ADC_VREF*%
%TO.N,unconnected-(U5-ADC_VREF-Pad35)*%
X116840000Y-35560000D03*
D11*
X117740000Y-35560000D03*
D10*
%TO.P,U5,36,3V3*%
%TO.N,+3V3*%
X116840000Y-33020000D03*
D11*
X117740000Y-33020000D03*
D10*
%TO.P,U5,37,3V3_EN*%
%TO.N,unconnected-(U5-3V3_EN-Pad37)*%
X116840000Y-30480000D03*
D11*
X117740000Y-30480000D03*
D12*
%TO.P,U5,38,GND*%
%TO.N,GND*%
X116840000Y-27940000D03*
D11*
X117740000Y-27940000D03*
D10*
%TO.P,U5,39,VSYS*%
%TO.N,unconnected-(U5-VSYS-Pad39)*%
X116840000Y-25400000D03*
D11*
X117740000Y-25400000D03*
D10*
%TO.P,U5,40,VBUS*%
%TO.N,+5V*%
X116840000Y-22860000D03*
D11*
X117740000Y-22860000D03*
D10*
%TO.P,U5,41,SWCLK*%
%TO.N,unconnected-(U5-SWCLK-Pad41)*%
X105410000Y-70890000D03*
D13*
X105410000Y-71790000D03*
D12*
%TO.P,U5,42,GND*%
%TO.N,GND*%
X107950000Y-70890000D03*
D13*
X107950000Y-71790000D03*
D10*
%TO.P,U5,43,SWDIO*%
%TO.N,unconnected-(U5-SWDIO-Pad43)*%
X110490000Y-70890000D03*
D13*
X110490000Y-71790000D03*
%TD*%
D14*
%TO.P,U2,1,A18*%
%TO.N,A18*%
X37220000Y-60232500D03*
D15*
%TO.P,U2,2,A16*%
%TO.N,A16*%
X39760000Y-60232500D03*
%TO.P,U2,3,A15*%
%TO.N,A15*%
X42300000Y-60232500D03*
%TO.P,U2,4,A12*%
%TO.N,A12*%
X44840000Y-60232500D03*
%TO.P,U2,5,A7*%
%TO.N,A7*%
X47380000Y-60232500D03*
%TO.P,U2,6,A6*%
%TO.N,A6*%
X49920000Y-60232500D03*
%TO.P,U2,7,A5*%
%TO.N,A5*%
X52460000Y-60232500D03*
%TO.P,U2,8,A4*%
%TO.N,A4*%
X55000000Y-60232500D03*
%TO.P,U2,9,A3*%
%TO.N,A3*%
X57540000Y-60232500D03*
%TO.P,U2,10,A2*%
%TO.N,A2*%
X60080000Y-60232500D03*
%TO.P,U2,11,A1*%
%TO.N,A1*%
X62620000Y-60232500D03*
%TO.P,U2,12,A0*%
%TO.N,A0*%
X65160000Y-60232500D03*
%TO.P,U2,13,D0*%
%TO.N,D0*%
X67700000Y-60232500D03*
%TO.P,U2,14,D1*%
%TO.N,D1*%
X70240000Y-60232500D03*
%TO.P,U2,15,D2*%
%TO.N,D2*%
X72780000Y-60232500D03*
%TO.P,U2,16,GND*%
%TO.N,GND*%
X75320000Y-60232500D03*
%TO.P,U2,17,D3*%
%TO.N,D3*%
X75320000Y-44992500D03*
%TO.P,U2,18,D4*%
%TO.N,D4*%
X72780000Y-44992500D03*
%TO.P,U2,19,D5*%
%TO.N,D5*%
X70240000Y-44992500D03*
%TO.P,U2,20,D6*%
%TO.N,D6*%
X67700000Y-44992500D03*
%TO.P,U2,21,D7*%
%TO.N,D7*%
X65160000Y-44992500D03*
%TO.P,U2,22,CE*%
%TO.N,~{CE}*%
X62620000Y-44992500D03*
%TO.P,U2,23,A10*%
%TO.N,A10*%
X60080000Y-44992500D03*
%TO.P,U2,24,OE*%
%TO.N,~{OE}*%
X57540000Y-44992500D03*
%TO.P,U2,25,A11*%
%TO.N,A11*%
X55000000Y-44992500D03*
%TO.P,U2,26,A9*%
%TO.N,A9*%
X52460000Y-44992500D03*
%TO.P,U2,27,A8*%
%TO.N,A8*%
X49920000Y-44992500D03*
%TO.P,U2,28,A13*%
%TO.N,A13*%
X47380000Y-44992500D03*
%TO.P,U2,29,A14*%
%TO.N,A14*%
X44840000Y-44992500D03*
%TO.P,U2,30,A17*%
%TO.N,A17*%
X42300000Y-44992500D03*
%TO.P,U2,31,PGM*%
%TO.N,~{PGM}*%
X39760000Y-44992500D03*
%TO.P,U2,32,VCC*%
%TO.N,Net-(D1-K)*%
X37220000Y-44992500D03*
%TD*%
D16*
%TO.P,SW1,1,1*%
%TO.N,RUN*%
X41096000Y-73370000D03*
X34596000Y-73370000D03*
%TO.P,SW1,2,2*%
%TO.N,GND*%
X41096000Y-68870000D03*
X34596000Y-68870000D03*
%TD*%
D17*
%TO.P,D2,1,K*%
%TO.N,Net-(D2-K)*%
X46223000Y-71120000D03*
D18*
%TO.P,D2,2,A*%
%TO.N,GPIO26_3v3*%
X48763000Y-71120000D03*
%TD*%
D17*
%TO.P,D3,1,K*%
%TO.N,Net-(D3-K)*%
X58674000Y-71120000D03*
D18*
%TO.P,D3,2,A*%
%TO.N,GPIO27_3v3*%
X61214000Y-71120000D03*
%TD*%
D19*
%TO.N,+3V3*%
X94126300Y-31602500D03*
%TO.N,P0*%
X64415900Y-52867400D03*
X64131600Y-58882600D03*
X85636900Y-66128100D03*
X88584900Y-59869000D03*
X43158900Y-58901200D03*
%TO.N,LP1*%
X92256200Y-50800000D03*
%TO.N,P1*%
X45274600Y-57141000D03*
X75733400Y-54603200D03*
X65981500Y-56129800D03*
%TO.N,LP2*%
X76593000Y-66055300D03*
%TO.N,P2*%
X46275000Y-57075100D03*
X61740600Y-58770700D03*
%TO.N,LP3*%
X77011700Y-70083800D03*
%TO.N,~{ROE}*%
X66388300Y-62049200D03*
X43739100Y-61784700D03*
X87351500Y-57534700D03*
X72848800Y-63779100D03*
X39978000Y-28377900D03*
%TO.N,LALS*%
X41221500Y-26645700D03*
%TO.N,ALS*%
X42275300Y-28828300D03*
X52241100Y-47843300D03*
%TO.N,LP4*%
X68485900Y-70524300D03*
%TO.N,LP5*%
X67830400Y-71283600D03*
X37792600Y-64727900D03*
X48699700Y-66583400D03*
%TO.N,P5*%
X57296800Y-55573500D03*
X76646500Y-55221700D03*
X47725700Y-56864700D03*
%TO.N,LP6*%
X67160300Y-72028200D03*
%TO.N,P6*%
X35885000Y-63604500D03*
X53784100Y-61872600D03*
%TO.N,LP7*%
X29395000Y-63661600D03*
X46053000Y-66084400D03*
%TO.N,P7*%
X49166600Y-55396200D03*
X55099700Y-55396200D03*
%TO.N,AHS*%
X30228000Y-46660100D03*
X52311300Y-24582400D03*
%TO.N,~{PGM}*%
X57261500Y-28731900D03*
%TO.N,LD0*%
X39421200Y-37946000D03*
%TO.N,D0*%
X53402700Y-42691000D03*
%TO.N,LD1*%
X43206000Y-37845600D03*
%TO.N,D1*%
X52801000Y-40944400D03*
%TO.N,LD2*%
X49443700Y-36551800D03*
%TO.N,D2*%
X48365400Y-36322000D03*
%TO.N,LD3*%
X58839800Y-34203900D03*
%TO.N,D3*%
X58240800Y-39444800D03*
%TO.N,~{LCE}*%
X69177100Y-32678300D03*
%TO.N,~{LOE}*%
X74250100Y-27970000D03*
X100416300Y-29158700D03*
%TO.N,~{OE}*%
X73164700Y-28977000D03*
%TO.N,LD4*%
X73073300Y-34705100D03*
%TO.N,D4*%
X65899600Y-40620500D03*
%TO.N,LD5*%
X76240000Y-37273500D03*
%TO.N,D5*%
X69095500Y-43276100D03*
%TO.N,LD6*%
X80643500Y-38174800D03*
%TO.N,LD7*%
X71314800Y-35029600D03*
%TO.N,GND*%
X88568200Y-53777500D03*
X55753000Y-70739000D03*
X59436000Y-65024000D03*
%TO.N,A2*%
X59965600Y-52862100D03*
%TO.N,A1*%
X62612400Y-52844000D03*
%TO.N,A0*%
X63601000Y-52094300D03*
%TO.N,A18*%
X71132900Y-49357200D03*
%TO.N,A16*%
X66746500Y-50106200D03*
%TO.N,A15*%
X36365700Y-52684800D03*
%TO.N,A12*%
X36636300Y-49447500D03*
%TO.N,A10*%
X40975700Y-49618300D03*
%TO.N,A11*%
X39627000Y-49562300D03*
%TO.N,A17*%
X66506600Y-47241700D03*
%TO.N,Net-(D3-K)*%
X64389000Y-66384000D03*
%TO.N,+5V*%
X79052600Y-43818800D03*
X70706900Y-33128600D03*
X79302300Y-51844700D03*
X78005300Y-62323900D03*
X93387100Y-26764600D03*
%TD*%
D20*
%TO.N,+3V3*%
X116840000Y-33020000D02*
X115664700Y-33020000D01*
X94368500Y-31844700D02*
X94126300Y-31602500D01*
X114489400Y-31844700D02*
X94368500Y-31844700D01*
X115664700Y-33020000D02*
X114489400Y-31844700D01*
%TO.N,P0*%
X59652900Y-61598800D02*
X58810000Y-60755900D01*
X63022400Y-61598800D02*
X59652900Y-61598800D01*
X63890000Y-59124200D02*
X63890000Y-60731200D01*
X58810000Y-59715900D02*
X57995300Y-58901200D01*
X85636900Y-62817000D02*
X85636900Y-66128100D01*
X58810000Y-60755900D02*
X58810000Y-59715900D01*
X64131600Y-58882600D02*
X64131600Y-53151700D01*
X64131600Y-53151700D02*
X64415900Y-52867400D01*
X63890000Y-60731200D02*
X63022400Y-61598800D01*
X88584900Y-59869000D02*
X85636900Y-62817000D01*
X57995300Y-58901200D02*
X43158900Y-58901200D01*
X64131600Y-58882600D02*
X63890000Y-59124200D01*
%TO.N,LP1*%
X99060000Y-50800000D02*
X92256200Y-50800000D01*
%TO.N,P1*%
X67683400Y-54427900D02*
X65981500Y-56129800D01*
X45274600Y-57141000D02*
X45274600Y-57043700D01*
X46472600Y-56136300D02*
X48586700Y-54022200D01*
X53964100Y-54022200D02*
X56392100Y-51594200D01*
X61071400Y-51457000D02*
X61159400Y-51369000D01*
X64624400Y-51369000D02*
X67683400Y-54427900D01*
X56392100Y-51594200D02*
X60446800Y-51594200D01*
X60446800Y-51594200D02*
X60584000Y-51457000D01*
X67683400Y-54427900D02*
X67683400Y-54428000D01*
X46182000Y-56136300D02*
X46472600Y-56136300D01*
X61159400Y-51369000D02*
X64624400Y-51369000D01*
X67683400Y-54428000D02*
X75558200Y-54428000D01*
X75558200Y-54428000D02*
X75733400Y-54603200D01*
X48586700Y-54022200D02*
X53964100Y-54022200D01*
X45274600Y-57043700D02*
X46182000Y-56136300D01*
X60584000Y-51457000D02*
X61071400Y-51457000D01*
%TO.N,LP2*%
X80633000Y-66055300D02*
X90808300Y-55880000D01*
X76593000Y-66055300D02*
X80633000Y-66055300D01*
X90808300Y-55880000D02*
X99060000Y-55880000D01*
%TO.N,P2*%
X61740600Y-53597900D02*
X61740600Y-58770700D01*
X46275000Y-57075100D02*
X48877600Y-54472500D01*
X54150800Y-54472500D02*
X56495800Y-52127500D01*
X60270200Y-52127500D02*
X61740600Y-53597900D01*
X56495800Y-52127500D02*
X60270200Y-52127500D01*
X48877600Y-54472500D02*
X54150800Y-54472500D01*
%TO.N,LP3*%
X99060000Y-58420000D02*
X97884700Y-58420000D01*
X95338900Y-58420000D02*
X83675100Y-70083800D01*
X97884700Y-58420000D02*
X95338900Y-58420000D01*
X83675100Y-70083800D02*
X77011700Y-70083800D01*
%TO.N,~{ROE}*%
X43739100Y-61784700D02*
X43006800Y-62517000D01*
X35913000Y-62517000D02*
X35131600Y-61735600D01*
X66388300Y-62049200D02*
X54986500Y-62049200D01*
X81107100Y-63779100D02*
X72848800Y-63779100D01*
X35131600Y-33224300D02*
X39978000Y-28377900D01*
X52666200Y-61784700D02*
X43739100Y-61784700D01*
X87351500Y-57534700D02*
X81107100Y-63779100D01*
X53303600Y-61147300D02*
X52666200Y-61784700D01*
X43006800Y-62517000D02*
X35913000Y-62517000D01*
X54986500Y-62049200D02*
X54084600Y-61147300D01*
X35131600Y-61735600D02*
X35131600Y-33224300D01*
X54084600Y-61147300D02*
X53303600Y-61147300D01*
%TO.N,LALS*%
X52529300Y-73801600D02*
X51184200Y-75146700D01*
X115664700Y-69681800D02*
X111481100Y-73865400D01*
X39979200Y-26645700D02*
X41221500Y-26645700D01*
X95389800Y-73801600D02*
X52529300Y-73801600D01*
X95453600Y-73865400D02*
X95389800Y-73801600D01*
X51184200Y-75146700D02*
X38346700Y-75146700D01*
X111481100Y-73865400D02*
X95453600Y-73865400D01*
X116840000Y-68580000D02*
X115664700Y-68580000D01*
X28594000Y-65394000D02*
X28594000Y-38030900D01*
X115664700Y-68580000D02*
X115664700Y-69681800D01*
X38346700Y-75146700D02*
X28594000Y-65394000D01*
X28594000Y-38030900D02*
X39979200Y-26645700D01*
%TO.N,ALS*%
X42275300Y-28828300D02*
X38690500Y-32413100D01*
X38690500Y-45694500D02*
X40839300Y-47843300D01*
X38690500Y-32413100D02*
X38690500Y-45694500D01*
X40839300Y-47843300D02*
X52241100Y-47843300D01*
%TO.N,LP4*%
X68770700Y-70809100D02*
X86156100Y-70809100D01*
X96005200Y-60960000D02*
X99060000Y-60960000D01*
X68485900Y-70524300D02*
X68770700Y-70809100D01*
X86156100Y-70809100D02*
X96005200Y-60960000D01*
%TO.N,LP5*%
X95616400Y-63500000D02*
X87832800Y-71283600D01*
X87832800Y-71283600D02*
X67830400Y-71283600D01*
X37792600Y-64727900D02*
X46844200Y-64727900D01*
X46844200Y-64727900D02*
X48699700Y-66583400D01*
X99060000Y-63500000D02*
X95616400Y-63500000D01*
%TO.N,P5*%
X56005600Y-56864700D02*
X57296800Y-55573500D01*
X54901800Y-52226500D02*
X56209600Y-50918700D01*
X47725700Y-56864700D02*
X56005600Y-56864700D01*
X46724100Y-57866300D02*
X44901000Y-57866300D01*
X44901000Y-57866300D02*
X44548100Y-57513400D01*
X44548100Y-57513400D02*
X44548100Y-56787000D01*
X44548100Y-56787000D02*
X49108600Y-52226500D01*
X73078800Y-50918700D02*
X76646500Y-54486400D01*
X76646500Y-54486400D02*
X76646500Y-55221700D01*
X49108600Y-52226500D02*
X54901800Y-52226500D01*
X56209600Y-50918700D02*
X73078800Y-50918700D01*
X47725700Y-56864700D02*
X46724100Y-57866300D01*
%TO.N,LP6*%
X89162100Y-72028200D02*
X92610300Y-68580000D01*
X92610300Y-68580000D02*
X99060000Y-68580000D01*
X67160300Y-72028200D02*
X89162100Y-72028200D01*
%TO.N,P6*%
X52052200Y-63604500D02*
X53784100Y-61872600D01*
X35885000Y-63604500D02*
X52052200Y-63604500D01*
%TO.N,LP7*%
X99060000Y-71120000D02*
X97884700Y-71120000D01*
X38533200Y-74696300D02*
X50997700Y-74696300D01*
X46053000Y-66084400D02*
X34681400Y-66084400D01*
X34681400Y-66084400D02*
X33268100Y-67497700D01*
X29432000Y-63661600D02*
X29395000Y-63661600D01*
X33268100Y-67497700D02*
X29432000Y-63661600D01*
X52342700Y-73351300D02*
X95653400Y-73351300D01*
X33268100Y-69431200D02*
X38533200Y-74696300D01*
X50997700Y-74696300D02*
X52342700Y-73351300D01*
X33268100Y-67497700D02*
X33268100Y-69431200D01*
X95653400Y-73351300D02*
X97884700Y-71120000D01*
%TO.N,P7*%
X49166600Y-55396200D02*
X55099700Y-55396200D01*
%TO.N,AHS*%
X49342400Y-27551300D02*
X52311300Y-24582400D01*
X30228000Y-37098700D02*
X39775400Y-27551300D01*
X30228000Y-46660100D02*
X30228000Y-37098700D01*
X39775400Y-27551300D02*
X49342400Y-27551300D01*
%TO.N,~{PGM}*%
X54288600Y-28731900D02*
X39760000Y-43260500D01*
X39760000Y-43260500D02*
X39760000Y-43667200D01*
X57261500Y-28731900D02*
X54288600Y-28731900D01*
X39760000Y-44992500D02*
X39760000Y-43667200D01*
%TO.N,LD0*%
X39888600Y-37946000D02*
X39421200Y-37946000D01*
X57873300Y-22860000D02*
X55333300Y-25400000D01*
X99060000Y-22860000D02*
X57873300Y-22860000D01*
X55333300Y-25400000D02*
X52434600Y-25400000D01*
X52434600Y-25400000D02*
X39888600Y-37946000D01*
%TO.N,D0*%
X71137300Y-57546500D02*
X68745300Y-59938500D01*
X53402700Y-42691000D02*
X59546300Y-42691000D01*
X68745300Y-59938500D02*
X68745300Y-60232500D01*
X75347500Y-57546500D02*
X71137300Y-57546500D01*
X77371800Y-54559800D02*
X77371800Y-55522200D01*
X77371800Y-55522200D02*
X75347500Y-57546500D01*
X61350000Y-44494700D02*
X61350000Y-45564600D01*
X64063600Y-48278200D02*
X71090200Y-48278200D01*
X61350000Y-45564600D02*
X64063600Y-48278200D01*
X67700000Y-60232500D02*
X68745300Y-60232500D01*
X59546300Y-42691000D02*
X61350000Y-44494700D01*
X71090200Y-48278200D02*
X77371800Y-54559800D01*
%TO.N,LD1*%
X56288400Y-25400000D02*
X99060000Y-25400000D01*
X43842800Y-37845600D02*
X56288400Y-25400000D01*
X43206000Y-37845600D02*
X43842800Y-37845600D01*
%TO.N,D1*%
X71285300Y-59938200D02*
X71285300Y-60232500D01*
X52801000Y-40944400D02*
X62887200Y-40944400D01*
X73190900Y-58032600D02*
X71285300Y-59938200D01*
X70671800Y-47218400D02*
X77822100Y-54368700D01*
X66270700Y-44327900D02*
X66270700Y-45385500D01*
X68103600Y-47218400D02*
X70671800Y-47218400D01*
X70240000Y-60232500D02*
X71285300Y-60232500D01*
X66270700Y-45385500D02*
X68103600Y-47218400D01*
X77822100Y-54368700D02*
X77822100Y-55708800D01*
X77822100Y-55708800D02*
X75498300Y-58032600D01*
X75498300Y-58032600D02*
X73190900Y-58032600D01*
X62887200Y-40944400D02*
X66270700Y-44327900D01*
%TO.N,LD2*%
X55515500Y-30480000D02*
X99060000Y-30480000D01*
X49443700Y-36551800D02*
X55515500Y-30480000D01*
%TO.N,D2*%
X78325600Y-54179100D02*
X78325600Y-55842200D01*
X48365400Y-36322000D02*
X48365400Y-36580200D01*
X78325600Y-55842200D02*
X75684800Y-58483000D01*
X64447700Y-40194500D02*
X66600300Y-42347100D01*
X51979700Y-40194500D02*
X64447700Y-40194500D01*
X48365400Y-36580200D02*
X51979700Y-40194500D01*
X69872800Y-46383600D02*
X70530100Y-46383600D01*
X69194700Y-45705500D02*
X69872800Y-46383600D01*
X66600300Y-42347100D02*
X66832200Y-42347100D01*
X74529500Y-58483000D02*
X72780000Y-60232500D01*
X70530100Y-46383600D02*
X78325600Y-54179100D01*
X66832200Y-42347100D02*
X69194700Y-44709600D01*
X75684800Y-58483000D02*
X74529500Y-58483000D01*
X69194700Y-44709600D02*
X69194700Y-45705500D01*
%TO.N,LD3*%
X99060000Y-33020000D02*
X97884700Y-33020000D01*
X71679400Y-31914400D02*
X72785000Y-33020000D01*
X61129300Y-31914400D02*
X71679400Y-31914400D01*
X58839800Y-34203900D02*
X61129300Y-31914400D01*
X72785000Y-33020000D02*
X97884700Y-33020000D01*
%TO.N,D3*%
X74274700Y-44698500D02*
X74274700Y-44992500D01*
X75320000Y-44992500D02*
X74274700Y-44992500D01*
X58240800Y-39444800D02*
X69021000Y-39444800D01*
X69021000Y-39444800D02*
X74274700Y-44698500D01*
%TO.N,~{LCE}*%
X119815300Y-42195200D02*
X119815300Y-55880000D01*
X119624800Y-42004700D02*
X119815300Y-42195200D01*
X100235400Y-34195400D02*
X108044700Y-42004700D01*
X108044700Y-42004700D02*
X119624800Y-42004700D01*
X116840000Y-55880000D02*
X119815300Y-55880000D01*
X71531300Y-32403200D02*
X72598500Y-33470400D01*
X74340800Y-34195400D02*
X100235400Y-34195400D01*
X69177100Y-32678300D02*
X69452200Y-32403200D01*
X72598500Y-33470400D02*
X73615800Y-33470400D01*
X69452200Y-32403200D02*
X71531300Y-32403200D01*
X73615800Y-33470400D02*
X74340800Y-34195400D01*
%TO.N,~{LOE}*%
X75438800Y-29158700D02*
X100416300Y-29158700D01*
X74250100Y-27970000D02*
X75438800Y-29158700D01*
%TO.N,~{OE}*%
X46110000Y-44468100D02*
X46911200Y-43666900D01*
X72672100Y-29469600D02*
X72672100Y-29469700D01*
X41242400Y-42415000D02*
X41242400Y-45727200D01*
X73164700Y-28977000D02*
X72672100Y-29469600D01*
X56494700Y-44698500D02*
X56494700Y-44992500D01*
X54187700Y-29469700D02*
X41242400Y-42415000D01*
X46110000Y-45498000D02*
X46110000Y-44468100D01*
X55463100Y-43666900D02*
X56494700Y-44698500D01*
X46911200Y-43666900D02*
X55463100Y-43666900D01*
X57540000Y-44992500D02*
X56494700Y-44992500D01*
X41242400Y-45727200D02*
X41833100Y-46317900D01*
X45290100Y-46317900D02*
X46110000Y-45498000D01*
X72672100Y-29469700D02*
X54187700Y-29469700D01*
X41833100Y-46317900D02*
X45290100Y-46317900D01*
%TO.N,LD4*%
X97029800Y-34705100D02*
X97884700Y-35560000D01*
X99060000Y-35560000D02*
X97884700Y-35560000D01*
X73073300Y-34705100D02*
X97029800Y-34705100D01*
%TO.N,D4*%
X65899600Y-40620500D02*
X67656700Y-40620500D01*
X72780000Y-44992500D02*
X71734700Y-44992500D01*
X67656700Y-40620500D02*
X71734700Y-44698500D01*
X71734700Y-44698500D02*
X71734700Y-44992500D01*
%TO.N,LD5*%
X99060000Y-38100000D02*
X96084700Y-38100000D01*
X95258200Y-37273500D02*
X76240000Y-37273500D01*
X96084700Y-38100000D02*
X95258200Y-37273500D01*
%TO.N,D5*%
X70240000Y-44420600D02*
X70240000Y-44992500D01*
X69095500Y-43276100D02*
X70240000Y-44420600D01*
%TO.N,LD6*%
X85648700Y-43180000D02*
X80643500Y-38174800D01*
X99060000Y-43180000D02*
X85648700Y-43180000D01*
%TO.N,LD7*%
X99060000Y-45720000D02*
X82005200Y-45720000D01*
X82005200Y-45720000D02*
X71314800Y-35029600D01*
%TO.N,RUN*%
X79434100Y-67891200D02*
X90080700Y-57244600D01*
X64658100Y-72901000D02*
X69667900Y-67891200D01*
X41096000Y-73370000D02*
X41565000Y-72901000D01*
X90080700Y-57244600D02*
X106680100Y-57244600D01*
X116840000Y-48260000D02*
X115664700Y-48260000D01*
X69667900Y-67891200D02*
X79434100Y-67891200D01*
X41565000Y-72901000D02*
X64658100Y-72901000D01*
X106680100Y-57244600D02*
X115664700Y-48260000D01*
%TO.N,GND*%
X113167300Y-66040000D02*
X115664700Y-66040000D01*
X74274700Y-60232500D02*
X74274700Y-60690600D01*
X60071000Y-65659000D02*
X60325000Y-65659000D01*
X107950000Y-70890000D02*
X109125300Y-70890000D01*
X109125300Y-70082000D02*
X113167300Y-66040000D01*
X75320000Y-60232500D02*
X74274700Y-60232500D01*
X109125300Y-70890000D02*
X109125300Y-70082000D01*
X52976700Y-67310000D02*
X51416700Y-68870000D01*
X54102000Y-67310000D02*
X54102000Y-69374000D01*
X69451150Y-65514150D02*
X69306300Y-65659000D01*
X51416700Y-68870000D02*
X41096000Y-68870000D01*
X97884700Y-53340000D02*
X97447200Y-53777500D01*
X69306300Y-65659000D02*
X60325000Y-65659000D01*
X115664700Y-66040000D02*
X115664700Y-53340000D01*
X41096000Y-68870000D02*
X34596000Y-68870000D01*
X116840000Y-66040000D02*
X115664700Y-66040000D01*
X97447200Y-53777500D02*
X88568200Y-53777500D01*
X53539400Y-67310000D02*
X54102000Y-67310000D01*
X99060000Y-53340000D02*
X97884700Y-53340000D01*
X54388000Y-69374000D02*
X55753000Y-70739000D01*
X60325000Y-65659000D02*
X55753000Y-65659000D01*
X59436000Y-65024000D02*
X60071000Y-65659000D01*
X116840000Y-53340000D02*
X115664700Y-53340000D01*
X53539400Y-67310000D02*
X52976700Y-67310000D01*
X55753000Y-65659000D02*
X54102000Y-67310000D01*
X74274700Y-60690600D02*
X69451150Y-65514150D01*
X54102000Y-69374000D02*
X54388000Y-69374000D01*
%TO.N,A2*%
X60080000Y-60232500D02*
X60080000Y-58907200D01*
X59965600Y-58792800D02*
X60080000Y-58907200D01*
X59965600Y-52862100D02*
X59965600Y-58792800D01*
%TO.N,A1*%
X62612400Y-52844000D02*
X62612400Y-58899600D01*
X62620000Y-60232500D02*
X62620000Y-58907200D01*
X62612400Y-58899600D02*
X62620000Y-58907200D01*
%TO.N,A0*%
X63601000Y-52094300D02*
X64712800Y-52094300D01*
X65160000Y-52541500D02*
X65160000Y-60232500D01*
X64712800Y-52094300D02*
X65160000Y-52541500D01*
%TO.N,A18*%
X54964000Y-49357200D02*
X71132900Y-49357200D01*
X53977500Y-50343700D02*
X54964000Y-49357200D01*
X38265300Y-60232500D02*
X38265300Y-59938500D01*
X37220000Y-60232500D02*
X38265300Y-60232500D01*
X38265300Y-59938500D02*
X47860100Y-50343700D01*
X47860100Y-50343700D02*
X53977500Y-50343700D01*
%TO.N,A16*%
X39760000Y-60232500D02*
X40805300Y-60232500D01*
X40805300Y-59840500D02*
X49137600Y-51508200D01*
X40805300Y-60232500D02*
X40805300Y-59840500D01*
X54086900Y-51508200D02*
X55488900Y-50106200D01*
X49137600Y-51508200D02*
X54086900Y-51508200D01*
X55488900Y-50106200D02*
X66746500Y-50106200D01*
%TO.N,A15*%
X36174600Y-61437800D02*
X36174600Y-52875900D01*
X36335800Y-61599000D02*
X36174600Y-61437800D01*
X42300000Y-60232500D02*
X40933500Y-61599000D01*
X36174600Y-52875900D02*
X36365700Y-52684800D01*
X40933500Y-61599000D02*
X36335800Y-61599000D01*
%TO.N,A12*%
X44840000Y-60232500D02*
X43794700Y-60232500D01*
X43794700Y-60232500D02*
X43794700Y-60526500D01*
X43794700Y-60526500D02*
X42271800Y-62049400D01*
X42271800Y-62049400D02*
X36149300Y-62049400D01*
X36149300Y-62049400D02*
X35633800Y-61533900D01*
X35633800Y-50450000D02*
X36636300Y-49447500D01*
X35633800Y-61533900D02*
X35633800Y-50450000D01*
%TO.N,A10*%
X59034700Y-45286500D02*
X55703100Y-48618100D01*
X55703100Y-48618100D02*
X55066200Y-48618100D01*
X59034700Y-44992500D02*
X59034700Y-45286500D01*
X55066200Y-48618100D02*
X54066000Y-49618300D01*
X54066000Y-49618300D02*
X40975700Y-49618300D01*
X60080000Y-44992500D02*
X59034700Y-44992500D01*
%TO.N,A11*%
X55000000Y-44992500D02*
X55000000Y-46317800D01*
X52457200Y-48860600D02*
X55000000Y-46317800D01*
X39627000Y-49562300D02*
X40328700Y-48860600D01*
X40328700Y-48860600D02*
X52457200Y-48860600D01*
%TO.N,A17*%
X63890000Y-44379200D02*
X61444700Y-41933900D01*
X66506600Y-47241700D02*
X65639000Y-47241700D01*
X63890000Y-45492700D02*
X63890000Y-44379200D01*
X42300000Y-44992500D02*
X43345300Y-44992500D01*
X43345300Y-44698500D02*
X43345300Y-44992500D01*
X46109900Y-41933900D02*
X43345300Y-44698500D01*
X65639000Y-47241700D02*
X63890000Y-45492700D01*
X61444700Y-41933900D02*
X46109900Y-41933900D01*
%TO.N,GPIO26_3v3*%
X116840000Y-45720000D02*
X115664700Y-45720000D01*
X49988400Y-72345400D02*
X48763000Y-71120000D01*
X106869300Y-54515400D02*
X91536000Y-54515400D01*
X72301800Y-64620400D02*
X64576800Y-72345400D01*
X64576800Y-72345400D02*
X49988400Y-72345400D01*
X91536000Y-54515400D02*
X81431000Y-64620400D01*
X115664700Y-45720000D02*
X106869300Y-54515400D01*
X81431000Y-64620400D02*
X72301800Y-64620400D01*
%TO.N,GPIO27_3v3*%
X109376500Y-49468200D02*
X91842100Y-49468200D01*
X78301300Y-63053800D02*
X72548400Y-63053800D01*
X91842100Y-49468200D02*
X78730600Y-62579700D01*
X78730600Y-62579700D02*
X78730600Y-62624500D01*
X115664700Y-43180000D02*
X109376500Y-49468200D01*
X116840000Y-43180000D02*
X115664700Y-43180000D01*
X72548400Y-63053800D02*
X72123500Y-63478700D01*
X78730600Y-62624500D02*
X78301300Y-63053800D01*
X72123500Y-63478700D02*
X72123500Y-63773000D01*
X64776500Y-71120000D02*
X61214000Y-71120000D01*
X72123500Y-63773000D02*
X64776500Y-71120000D01*
%TO.N,Net-(D3-K)*%
X58674000Y-69215000D02*
X60579000Y-67310000D01*
X60579000Y-67310000D02*
X64802000Y-67310000D01*
X58674000Y-71120000D02*
X58674000Y-69215000D01*
X64802000Y-67310000D02*
X64802000Y-66797000D01*
X64802000Y-66797000D02*
X64389000Y-66384000D01*
%TO.N,+5V*%
X79052600Y-51595000D02*
X79302300Y-51844700D01*
X101556800Y-26764600D02*
X93387100Y-26764600D01*
X101937201Y-27145001D02*
X101556800Y-26764600D01*
X78005300Y-62323900D02*
X79302300Y-61026900D01*
X70573400Y-33262100D02*
X70706900Y-33128600D01*
X116840000Y-22860000D02*
X115664700Y-22860000D01*
X114259699Y-24265001D02*
X114259699Y-26202301D01*
X70573400Y-35339600D02*
X70573400Y-33262100D01*
X115664700Y-22860000D02*
X114259699Y-24265001D01*
X114259699Y-26202301D02*
X113316999Y-27145001D01*
X79302300Y-61026900D02*
X79302300Y-51844700D01*
X79052600Y-43818800D02*
X79052600Y-51595000D01*
X113316999Y-27145001D02*
X101937201Y-27145001D01*
X79052600Y-43818800D02*
X70573400Y-35339600D01*
%TD*%
%TA.AperFunction,Conductor*%
%TO.N,GND*%
G36*
X95910580Y-21610002D02*
G01*
X95957073Y-21663658D01*
X95967177Y-21733932D01*
X95960515Y-21760033D01*
X95959111Y-21763794D01*
X95959111Y-21763796D01*
X95936367Y-21824774D01*
X95908010Y-21900802D01*
X95908009Y-21900803D01*
X95901500Y-21961350D01*
X95901500Y-22100500D01*
X95881498Y-22168621D01*
X95827842Y-22215114D01*
X95775500Y-22226500D01*
X57810903Y-22226500D01*
X57737868Y-22241028D01*
X57688515Y-22250845D01*
X57688513Y-22250845D01*
X57688512Y-22250846D01*
X57573223Y-22298601D01*
X57469471Y-22367926D01*
X57469464Y-22367931D01*
X55107801Y-24729595D01*
X55045489Y-24763621D01*
X55018706Y-24766500D01*
X53345392Y-24766500D01*
X53277271Y-24746498D01*
X53230778Y-24692842D01*
X53220082Y-24627331D01*
X53223130Y-24598325D01*
X53224804Y-24582400D01*
X53204842Y-24392472D01*
X53145827Y-24210844D01*
X53050340Y-24045456D01*
X53050338Y-24045454D01*
X53050334Y-24045448D01*
X52922555Y-23903535D01*
X52768052Y-23791282D01*
X52593588Y-23713606D01*
X52406787Y-23673900D01*
X52215813Y-23673900D01*
X52029011Y-23713606D01*
X51854547Y-23791282D01*
X51700044Y-23903535D01*
X51572265Y-24045448D01*
X51572258Y-24045458D01*
X51476776Y-24210838D01*
X51476773Y-24210845D01*
X51417757Y-24392472D01*
X51400392Y-24557692D01*
X51373379Y-24623349D01*
X51364177Y-24633616D01*
X49116899Y-26880896D01*
X49054589Y-26914920D01*
X49027806Y-26917800D01*
X42246343Y-26917800D01*
X42178222Y-26897798D01*
X42131729Y-26844142D01*
X42121033Y-26778630D01*
X42124577Y-26744902D01*
X42135004Y-26645700D01*
X42115042Y-26455772D01*
X42056027Y-26274144D01*
X41960540Y-26108756D01*
X41960538Y-26108754D01*
X41960534Y-26108748D01*
X41832755Y-25966835D01*
X41678252Y-25854582D01*
X41503788Y-25776906D01*
X41316987Y-25737200D01*
X41126013Y-25737200D01*
X40939211Y-25776906D01*
X40764747Y-25854582D01*
X40610247Y-25966833D01*
X40606937Y-25970510D01*
X40546491Y-26007750D01*
X40513300Y-26012200D01*
X39916803Y-26012200D01*
X39843768Y-26026728D01*
X39794415Y-26036545D01*
X39794413Y-26036545D01*
X39794412Y-26036546D01*
X39679123Y-26084301D01*
X39575371Y-26153626D01*
X39575364Y-26153631D01*
X28101931Y-37627064D01*
X28101926Y-37627071D01*
X28032601Y-37730823D01*
X27984846Y-37846112D01*
X27960500Y-37968503D01*
X27960500Y-65456396D01*
X27964250Y-65475246D01*
X27984845Y-65578785D01*
X28032600Y-65694075D01*
X28101929Y-65797833D01*
X28101931Y-65797835D01*
X34070431Y-71766336D01*
X34104457Y-71828648D01*
X34099392Y-71899463D01*
X34056845Y-71956299D01*
X34029554Y-71971840D01*
X33909037Y-72021760D01*
X33794602Y-72091886D01*
X33706582Y-72145825D01*
X33706580Y-72145826D01*
X33526030Y-72300030D01*
X33371826Y-72480580D01*
X33371825Y-72480582D01*
X33247759Y-72683038D01*
X33156894Y-72902407D01*
X33101465Y-73133289D01*
X33082835Y-73370000D01*
X33101465Y-73606711D01*
X33107317Y-73631086D01*
X33156894Y-73837592D01*
X33197841Y-73936446D01*
X33247760Y-74056963D01*
X33326796Y-74185938D01*
X33371825Y-74259417D01*
X33371826Y-74259419D01*
X33526030Y-74439969D01*
X33706580Y-74594173D01*
X33706584Y-74594176D01*
X33909037Y-74718240D01*
X34128406Y-74809105D01*
X34359289Y-74864535D01*
X34596000Y-74883165D01*
X34832711Y-74864535D01*
X35063594Y-74809105D01*
X35282963Y-74718240D01*
X35485416Y-74594176D01*
X35665969Y-74439969D01*
X35820176Y-74259416D01*
X35944240Y-74056963D01*
X35994159Y-73936444D01*
X36038707Y-73881164D01*
X36106070Y-73858743D01*
X36174861Y-73876301D01*
X36199663Y-73895568D01*
X37942867Y-75638772D01*
X38046625Y-75708101D01*
X38128147Y-75741868D01*
X38161915Y-75755855D01*
X38284306Y-75780200D01*
X38284307Y-75780200D01*
X51246593Y-75780200D01*
X51246594Y-75780200D01*
X51368985Y-75755855D01*
X51484275Y-75708100D01*
X51588033Y-75638771D01*
X52754800Y-74472005D01*
X52817112Y-74437979D01*
X52843895Y-74435100D01*
X95148499Y-74435100D01*
X95196717Y-74444690D01*
X95268815Y-74474555D01*
X95391206Y-74498900D01*
X95391207Y-74498900D01*
X111543493Y-74498900D01*
X111543494Y-74498900D01*
X111665885Y-74474555D01*
X111781175Y-74426800D01*
X111884933Y-74357471D01*
X113719694Y-72522709D01*
X121593500Y-72522709D01*
X121593500Y-72765290D01*
X121625160Y-73005782D01*
X121687944Y-73240095D01*
X121687945Y-73240097D01*
X121687946Y-73240100D01*
X121780776Y-73464212D01*
X121780777Y-73464213D01*
X121780782Y-73464224D01*
X121902061Y-73674285D01*
X121902063Y-73674288D01*
X121902064Y-73674289D01*
X122049735Y-73866738D01*
X122049739Y-73866742D01*
X122049744Y-73866748D01*
X122221251Y-74038255D01*
X122221256Y-74038259D01*
X122221262Y-74038265D01*
X122413711Y-74185936D01*
X122413714Y-74185938D01*
X122623775Y-74307217D01*
X122623779Y-74307218D01*
X122623788Y-74307224D01*
X122847900Y-74400054D01*
X123082211Y-74462838D01*
X123082215Y-74462838D01*
X123082217Y-74462839D01*
X123144202Y-74470999D01*
X123322712Y-74494500D01*
X123322719Y-74494500D01*
X123565281Y-74494500D01*
X123565288Y-74494500D01*
X123782637Y-74465885D01*
X123805782Y-74462839D01*
X123805782Y-74462838D01*
X123805789Y-74462838D01*
X124040100Y-74400054D01*
X124264212Y-74307224D01*
X124474289Y-74185936D01*
X124666738Y-74038265D01*
X124838265Y-73866738D01*
X124985936Y-73674289D01*
X125107224Y-73464212D01*
X125200054Y-73240100D01*
X125262838Y-73005789D01*
X125294500Y-72765288D01*
X125294500Y-72522712D01*
X125262838Y-72282211D01*
X125200054Y-72047900D01*
X125107224Y-71823788D01*
X125107218Y-71823779D01*
X125107217Y-71823775D01*
X124985938Y-71613714D01*
X124964596Y-71585900D01*
X124838265Y-71421262D01*
X124838259Y-71421256D01*
X124838255Y-71421251D01*
X124666748Y-71249744D01*
X124666742Y-71249739D01*
X124666738Y-71249735D01*
X124474289Y-71102064D01*
X124474288Y-71102063D01*
X124474285Y-71102061D01*
X124264224Y-70980782D01*
X124264216Y-70980778D01*
X124264212Y-70980776D01*
X124040100Y-70887946D01*
X124040097Y-70887945D01*
X124040095Y-70887944D01*
X123805782Y-70825160D01*
X123565290Y-70793500D01*
X123565288Y-70793500D01*
X123322712Y-70793500D01*
X123322709Y-70793500D01*
X123082217Y-70825160D01*
X122847904Y-70887944D01*
X122847900Y-70887946D01*
X122680844Y-70957143D01*
X122623786Y-70980777D01*
X122623775Y-70980782D01*
X122413714Y-71102061D01*
X122221262Y-71249735D01*
X122221251Y-71249744D01*
X122049744Y-71421251D01*
X122049735Y-71421262D01*
X121902061Y-71613714D01*
X121780782Y-71823775D01*
X121780777Y-71823786D01*
X121780776Y-71823788D01*
X121719451Y-71971840D01*
X121687946Y-72047900D01*
X121687944Y-72047904D01*
X121625160Y-72282217D01*
X121593500Y-72522709D01*
X113719694Y-72522709D01*
X115265819Y-70976584D01*
X115328129Y-70942560D01*
X115398944Y-70947625D01*
X115455780Y-70990172D01*
X115480591Y-71056692D01*
X115480482Y-71076083D01*
X115476844Y-71119998D01*
X115481070Y-71170998D01*
X115481500Y-71181403D01*
X115481500Y-72018649D01*
X115488009Y-72079196D01*
X115488011Y-72079204D01*
X115539110Y-72216202D01*
X115539112Y-72216207D01*
X115626738Y-72333261D01*
X115743792Y-72420887D01*
X115743794Y-72420888D01*
X115743796Y-72420889D01*
X115802875Y-72442924D01*
X115880795Y-72471988D01*
X115880803Y-72471990D01*
X115941350Y-72478499D01*
X115941355Y-72478499D01*
X115941362Y-72478500D01*
X115941368Y-72478500D01*
X119538632Y-72478500D01*
X119538638Y-72478500D01*
X119538645Y-72478499D01*
X119538649Y-72478499D01*
X119599196Y-72471990D01*
X119599199Y-72471989D01*
X119599201Y-72471989D01*
X119736204Y-72420889D01*
X119764435Y-72399756D01*
X119853261Y-72333261D01*
X119940887Y-72216207D01*
X119940887Y-72216206D01*
X119940889Y-72216204D01*
X119991989Y-72079201D01*
X119993124Y-72068649D01*
X119998499Y-72018649D01*
X119998500Y-72018632D01*
X119998500Y-70221367D01*
X119998499Y-70221350D01*
X119991990Y-70160803D01*
X119991988Y-70160795D01*
X119940889Y-70023797D01*
X119940889Y-70023796D01*
X119916600Y-69991350D01*
X119867311Y-69925507D01*
X119842501Y-69858989D01*
X119857592Y-69789615D01*
X119867306Y-69774497D01*
X119940889Y-69676204D01*
X119985448Y-69556738D01*
X119991988Y-69539204D01*
X119991990Y-69539196D01*
X119998499Y-69478649D01*
X119998500Y-69478632D01*
X119998500Y-67681367D01*
X119998499Y-67681350D01*
X119991990Y-67620803D01*
X119991988Y-67620795D01*
X119944988Y-67494787D01*
X119940889Y-67483796D01*
X119940888Y-67483794D01*
X119940887Y-67483792D01*
X119867000Y-67385091D01*
X119842189Y-67318571D01*
X119857280Y-67249197D01*
X119867001Y-67234072D01*
X119940443Y-67135966D01*
X119940444Y-67135964D01*
X119991494Y-66999093D01*
X119997999Y-66938597D01*
X119998000Y-66938585D01*
X119998000Y-66294000D01*
X117282251Y-66294000D01*
X117315245Y-66236853D01*
X117350000Y-66107143D01*
X117350000Y-65972857D01*
X117315245Y-65843147D01*
X117282251Y-65786000D01*
X119998000Y-65786000D01*
X119998000Y-65141414D01*
X119997999Y-65141402D01*
X119991494Y-65080906D01*
X119940444Y-64944035D01*
X119940444Y-64944034D01*
X119867000Y-64845925D01*
X119842189Y-64779405D01*
X119857280Y-64710031D01*
X119866998Y-64694909D01*
X119940889Y-64596204D01*
X119991989Y-64459201D01*
X119992646Y-64453095D01*
X119998499Y-64398649D01*
X119998500Y-64398632D01*
X119998500Y-62601367D01*
X119998499Y-62601350D01*
X119991990Y-62540803D01*
X119991988Y-62540795D01*
X119947921Y-62422650D01*
X119940889Y-62403796D01*
X119867311Y-62305507D01*
X119842501Y-62238989D01*
X119857592Y-62169615D01*
X119867306Y-62154497D01*
X119940889Y-62056204D01*
X119991989Y-61919201D01*
X119998500Y-61858638D01*
X119998500Y-60061362D01*
X119998499Y-60061350D01*
X119991990Y-60000803D01*
X119991988Y-60000795D01*
X119940889Y-59863797D01*
X119940889Y-59863796D01*
X119917387Y-59832401D01*
X119867311Y-59765507D01*
X119842501Y-59698989D01*
X119857592Y-59629615D01*
X119867306Y-59614497D01*
X119940889Y-59516204D01*
X119991989Y-59379201D01*
X119997058Y-59332056D01*
X119998499Y-59318649D01*
X119998500Y-59318632D01*
X119998500Y-57521367D01*
X119998499Y-57521350D01*
X119991990Y-57460803D01*
X119991988Y-57460795D01*
X119953189Y-57356773D01*
X119940889Y-57323796D01*
X119867311Y-57225507D01*
X119842501Y-57158989D01*
X119857592Y-57089615D01*
X119867306Y-57074497D01*
X119940889Y-56976204D01*
X119991989Y-56839201D01*
X119998500Y-56778638D01*
X119998500Y-56574002D01*
X120018502Y-56505881D01*
X120072158Y-56459388D01*
X120076263Y-56457600D01*
X120115375Y-56441400D01*
X120219133Y-56372071D01*
X120307371Y-56283833D01*
X120376700Y-56180075D01*
X120424455Y-56064785D01*
X120448800Y-55942394D01*
X120448800Y-42132806D01*
X120424455Y-42010415D01*
X120406364Y-41966739D01*
X120376701Y-41895125D01*
X120307372Y-41791367D01*
X120307367Y-41791361D01*
X120034905Y-41518899D01*
X120000879Y-41456587D01*
X119998000Y-41429804D01*
X119998000Y-40894000D01*
X117282251Y-40894000D01*
X117315245Y-40836853D01*
X117350000Y-40707143D01*
X117350000Y-40572857D01*
X117315245Y-40443147D01*
X117282251Y-40386000D01*
X119998000Y-40386000D01*
X119998000Y-39741414D01*
X119997999Y-39741402D01*
X119991494Y-39680906D01*
X119940444Y-39544035D01*
X119940444Y-39544034D01*
X119867000Y-39445925D01*
X119842189Y-39379405D01*
X119857280Y-39310031D01*
X119866998Y-39294909D01*
X119940889Y-39196204D01*
X119991989Y-39059201D01*
X119998500Y-38998638D01*
X119998500Y-37201362D01*
X119996082Y-37178870D01*
X119991990Y-37140803D01*
X119991988Y-37140795D01*
X119959794Y-37054482D01*
X119940889Y-37003796D01*
X119867311Y-36905507D01*
X119842501Y-36838989D01*
X119857592Y-36769615D01*
X119867306Y-36754497D01*
X119940889Y-36656204D01*
X119991989Y-36519201D01*
X119995948Y-36482382D01*
X119998499Y-36458649D01*
X119998500Y-36458632D01*
X119998500Y-34661367D01*
X119998499Y-34661350D01*
X119991990Y-34600803D01*
X119991988Y-34600795D01*
X119946961Y-34480075D01*
X119940889Y-34463796D01*
X119867311Y-34365507D01*
X119842501Y-34298989D01*
X119857592Y-34229615D01*
X119867306Y-34214497D01*
X119940889Y-34116204D01*
X119991989Y-33979201D01*
X119993788Y-33962472D01*
X119998499Y-33918649D01*
X119998500Y-33918632D01*
X119998500Y-32121367D01*
X119998499Y-32121350D01*
X119991990Y-32060803D01*
X119991988Y-32060795D01*
X119940889Y-31923797D01*
X119940889Y-31923796D01*
X119917582Y-31892662D01*
X119867311Y-31825507D01*
X119842501Y-31758989D01*
X119857592Y-31689615D01*
X119867306Y-31674497D01*
X119940889Y-31576204D01*
X119991989Y-31439201D01*
X119993804Y-31422326D01*
X119998499Y-31378649D01*
X119998500Y-31378632D01*
X119998500Y-29581367D01*
X119998499Y-29581350D01*
X119991990Y-29520803D01*
X119991988Y-29520795D01*
X119940889Y-29383797D01*
X119940887Y-29383792D01*
X119867000Y-29285091D01*
X119842189Y-29218571D01*
X119857280Y-29149197D01*
X119867001Y-29134072D01*
X119940443Y-29035966D01*
X119940444Y-29035964D01*
X119991494Y-28899093D01*
X119997999Y-28838597D01*
X119998000Y-28838585D01*
X119998000Y-28194000D01*
X117282251Y-28194000D01*
X117315245Y-28136853D01*
X117350000Y-28007143D01*
X117350000Y-27872857D01*
X117315245Y-27743147D01*
X117282251Y-27686000D01*
X119998000Y-27686000D01*
X119998000Y-27041414D01*
X119997999Y-27041402D01*
X119991494Y-26980906D01*
X119940444Y-26844035D01*
X119940444Y-26844034D01*
X119867000Y-26745925D01*
X119842189Y-26679405D01*
X119857280Y-26610031D01*
X119866998Y-26594909D01*
X119940889Y-26496204D01*
X119991989Y-26359201D01*
X119992668Y-26352890D01*
X119998499Y-26298649D01*
X119998500Y-26298632D01*
X119998500Y-25024709D01*
X121593500Y-25024709D01*
X121593500Y-25267290D01*
X121625160Y-25507782D01*
X121687944Y-25742095D01*
X121687945Y-25742097D01*
X121687946Y-25742100D01*
X121780776Y-25966212D01*
X121780777Y-25966213D01*
X121780782Y-25966224D01*
X121902061Y-26176285D01*
X121902063Y-26176288D01*
X121902064Y-26176289D01*
X122049735Y-26368738D01*
X122049739Y-26368742D01*
X122049744Y-26368748D01*
X122221251Y-26540255D01*
X122221256Y-26540259D01*
X122221262Y-26540265D01*
X122413711Y-26687936D01*
X122413714Y-26687938D01*
X122623775Y-26809217D01*
X122623779Y-26809218D01*
X122623788Y-26809224D01*
X122847900Y-26902054D01*
X123082211Y-26964838D01*
X123082215Y-26964838D01*
X123082217Y-26964839D01*
X123144202Y-26972999D01*
X123322712Y-26996500D01*
X123322719Y-26996500D01*
X123565281Y-26996500D01*
X123565288Y-26996500D01*
X123782637Y-26967885D01*
X123805782Y-26964839D01*
X123805782Y-26964838D01*
X123805789Y-26964838D01*
X124040100Y-26902054D01*
X124264212Y-26809224D01*
X124474289Y-26687936D01*
X124666738Y-26540265D01*
X124838265Y-26368738D01*
X124985936Y-26176289D01*
X125107224Y-25966212D01*
X125200054Y-25742100D01*
X125262838Y-25507789D01*
X125294500Y-25267288D01*
X125294500Y-25024712D01*
X125262838Y-24784211D01*
X125200054Y-24549900D01*
X125107224Y-24325788D01*
X125107218Y-24325779D01*
X125107217Y-24325775D01*
X124985938Y-24115714D01*
X124985936Y-24115711D01*
X124838265Y-23923262D01*
X124838259Y-23923256D01*
X124838255Y-23923251D01*
X124666748Y-23751744D01*
X124666742Y-23751739D01*
X124666738Y-23751735D01*
X124474289Y-23604064D01*
X124474288Y-23604063D01*
X124474285Y-23604061D01*
X124264224Y-23482782D01*
X124264216Y-23482778D01*
X124264212Y-23482776D01*
X124040100Y-23389946D01*
X124040097Y-23389945D01*
X124040095Y-23389944D01*
X123805782Y-23327160D01*
X123565290Y-23295500D01*
X123565288Y-23295500D01*
X123322712Y-23295500D01*
X123322709Y-23295500D01*
X123082217Y-23327160D01*
X122847904Y-23389944D01*
X122847900Y-23389946D01*
X122623786Y-23482777D01*
X122623775Y-23482782D01*
X122413714Y-23604061D01*
X122221262Y-23751735D01*
X122221251Y-23751744D01*
X122049744Y-23923251D01*
X122049735Y-23923262D01*
X121902061Y-24115714D01*
X121780782Y-24325775D01*
X121780777Y-24325786D01*
X121687946Y-24549900D01*
X121687944Y-24549904D01*
X121625160Y-24784217D01*
X121593500Y-25024709D01*
X119998500Y-25024709D01*
X119998500Y-24501367D01*
X119998499Y-24501350D01*
X119991990Y-24440803D01*
X119991988Y-24440795D01*
X119961881Y-24360078D01*
X119940889Y-24303796D01*
X119867311Y-24205507D01*
X119842501Y-24138989D01*
X119857592Y-24069615D01*
X119867306Y-24054497D01*
X119940889Y-23956204D01*
X119991989Y-23819201D01*
X119996964Y-23772930D01*
X119998499Y-23758649D01*
X119998500Y-23758632D01*
X119998500Y-21961367D01*
X119998499Y-21961350D01*
X119991990Y-21900803D01*
X119991989Y-21900802D01*
X119991989Y-21900799D01*
X119940889Y-21763796D01*
X119940888Y-21763794D01*
X119939485Y-21760033D01*
X119934420Y-21689217D01*
X119968445Y-21626905D01*
X120030757Y-21592880D01*
X120057541Y-21590000D01*
X125728633Y-21590000D01*
X125731376Y-21590030D01*
X125733868Y-21590084D01*
X125831266Y-21592206D01*
X125850380Y-21594087D01*
X126048475Y-21629017D01*
X126069688Y-21634702D01*
X126122945Y-21654085D01*
X126257396Y-21703022D01*
X126277288Y-21712297D01*
X126426616Y-21798512D01*
X126450284Y-21812177D01*
X126468275Y-21824774D01*
X126621301Y-21953177D01*
X126636822Y-21968698D01*
X126709647Y-22055488D01*
X126765225Y-22121724D01*
X126777822Y-22139715D01*
X126792997Y-22165998D01*
X126877699Y-22312706D01*
X126886979Y-22332608D01*
X126955297Y-22520311D01*
X126960982Y-22541525D01*
X126995910Y-22739607D01*
X126997794Y-22758743D01*
X126999970Y-22858622D01*
X127000000Y-22861366D01*
X127000000Y-74928633D01*
X126999970Y-74931377D01*
X126997794Y-75031256D01*
X126995910Y-75050392D01*
X126960982Y-75248474D01*
X126955297Y-75269688D01*
X126886979Y-75457391D01*
X126877697Y-75477297D01*
X126777822Y-75650284D01*
X126765225Y-75668275D01*
X126636827Y-75821296D01*
X126621296Y-75836827D01*
X126468275Y-75965225D01*
X126450284Y-75977822D01*
X126277297Y-76077697D01*
X126257391Y-76086979D01*
X126069688Y-76155297D01*
X126048474Y-76160982D01*
X125850392Y-76195910D01*
X125831256Y-76197794D01*
X125731377Y-76199970D01*
X125728633Y-76200000D01*
X26671367Y-76200000D01*
X26668623Y-76199970D01*
X26568743Y-76197794D01*
X26549607Y-76195910D01*
X26351525Y-76160982D01*
X26330311Y-76155297D01*
X26142608Y-76086979D01*
X26122706Y-76077699D01*
X26036208Y-76027759D01*
X25949715Y-75977822D01*
X25931724Y-75965225D01*
X25865488Y-75909647D01*
X25778698Y-75836822D01*
X25763177Y-75821301D01*
X25634774Y-75668275D01*
X25622177Y-75650284D01*
X25611925Y-75632527D01*
X25522297Y-75477288D01*
X25513022Y-75457396D01*
X25444702Y-75269688D01*
X25439017Y-75248474D01*
X25404087Y-75050380D01*
X25402206Y-75031266D01*
X25400030Y-74931376D01*
X25400000Y-74928633D01*
X25400000Y-72522709D01*
X27105500Y-72522709D01*
X27105500Y-72765290D01*
X27137160Y-73005782D01*
X27199944Y-73240095D01*
X27199945Y-73240097D01*
X27199946Y-73240100D01*
X27292776Y-73464212D01*
X27292777Y-73464213D01*
X27292782Y-73464224D01*
X27414061Y-73674285D01*
X27414063Y-73674288D01*
X27414064Y-73674289D01*
X27561735Y-73866738D01*
X27561739Y-73866742D01*
X27561744Y-73866748D01*
X27733251Y-74038255D01*
X27733256Y-74038259D01*
X27733262Y-74038265D01*
X27925711Y-74185936D01*
X27925714Y-74185938D01*
X28135775Y-74307217D01*
X28135779Y-74307218D01*
X28135788Y-74307224D01*
X28359900Y-74400054D01*
X28594211Y-74462838D01*
X28594215Y-74462838D01*
X28594217Y-74462839D01*
X28656202Y-74470999D01*
X28834712Y-74494500D01*
X28834719Y-74494500D01*
X29077281Y-74494500D01*
X29077288Y-74494500D01*
X29294637Y-74465885D01*
X29317782Y-74462839D01*
X29317782Y-74462838D01*
X29317789Y-74462838D01*
X29552100Y-74400054D01*
X29776212Y-74307224D01*
X29986289Y-74185936D01*
X30178738Y-74038265D01*
X30350265Y-73866738D01*
X30497936Y-73674289D01*
X30619224Y-73464212D01*
X30712054Y-73240100D01*
X30774838Y-73005789D01*
X30806500Y-72765288D01*
X30806500Y-72522712D01*
X30774838Y-72282211D01*
X30712054Y-72047900D01*
X30619224Y-71823788D01*
X30619218Y-71823779D01*
X30619217Y-71823775D01*
X30497938Y-71613714D01*
X30476596Y-71585900D01*
X30350265Y-71421262D01*
X30350259Y-71421256D01*
X30350255Y-71421251D01*
X30178748Y-71249744D01*
X30178742Y-71249739D01*
X30178738Y-71249735D01*
X29986289Y-71102064D01*
X29986288Y-71102063D01*
X29986285Y-71102061D01*
X29776224Y-70980782D01*
X29776216Y-70980778D01*
X29776212Y-70980776D01*
X29552100Y-70887946D01*
X29552097Y-70887945D01*
X29552095Y-70887944D01*
X29317782Y-70825160D01*
X29077290Y-70793500D01*
X29077288Y-70793500D01*
X28834712Y-70793500D01*
X28834709Y-70793500D01*
X28594217Y-70825160D01*
X28359904Y-70887944D01*
X28359900Y-70887946D01*
X28192844Y-70957143D01*
X28135786Y-70980777D01*
X28135775Y-70980782D01*
X27925714Y-71102061D01*
X27733262Y-71249735D01*
X27733251Y-71249744D01*
X27561744Y-71421251D01*
X27561735Y-71421262D01*
X27414061Y-71613714D01*
X27292782Y-71823775D01*
X27292777Y-71823786D01*
X27292776Y-71823788D01*
X27231451Y-71971840D01*
X27199946Y-72047900D01*
X27199944Y-72047904D01*
X27137160Y-72282217D01*
X27105500Y-72522709D01*
X25400000Y-72522709D01*
X25400000Y-25024709D01*
X27105500Y-25024709D01*
X27105500Y-25267290D01*
X27137160Y-25507782D01*
X27199944Y-25742095D01*
X27199945Y-25742097D01*
X27199946Y-25742100D01*
X27292776Y-25966212D01*
X27292777Y-25966213D01*
X27292782Y-25966224D01*
X27414061Y-26176285D01*
X27414063Y-26176288D01*
X27414064Y-26176289D01*
X27561735Y-26368738D01*
X27561739Y-26368742D01*
X27561744Y-26368748D01*
X27733251Y-26540255D01*
X27733256Y-26540259D01*
X27733262Y-26540265D01*
X27925711Y-26687936D01*
X27925714Y-26687938D01*
X28135775Y-26809217D01*
X28135779Y-26809218D01*
X28135788Y-26809224D01*
X28359900Y-26902054D01*
X28594211Y-26964838D01*
X28594215Y-26964838D01*
X28594217Y-26964839D01*
X28656202Y-26972999D01*
X28834712Y-26996500D01*
X28834719Y-26996500D01*
X29077281Y-26996500D01*
X29077288Y-26996500D01*
X29294637Y-26967885D01*
X29317782Y-26964839D01*
X29317782Y-26964838D01*
X29317789Y-26964838D01*
X29552100Y-26902054D01*
X29776212Y-26809224D01*
X29986289Y-26687936D01*
X30178738Y-26540265D01*
X30350265Y-26368738D01*
X30497936Y-26176289D01*
X30619224Y-25966212D01*
X30712054Y-25742100D01*
X30774838Y-25507789D01*
X30806500Y-25267288D01*
X30806500Y-25024712D01*
X30774838Y-24784211D01*
X30712054Y-24549900D01*
X30619224Y-24325788D01*
X30619218Y-24325779D01*
X30619217Y-24325775D01*
X30497938Y-24115714D01*
X30497936Y-24115711D01*
X30350265Y-23923262D01*
X30350259Y-23923256D01*
X30350255Y-23923251D01*
X30178748Y-23751744D01*
X30178742Y-23751739D01*
X30178738Y-23751735D01*
X29986289Y-23604064D01*
X29986288Y-23604063D01*
X29986285Y-23604061D01*
X29776224Y-23482782D01*
X29776216Y-23482778D01*
X29776212Y-23482776D01*
X29552100Y-23389946D01*
X29552097Y-23389945D01*
X29552095Y-23389944D01*
X29317782Y-23327160D01*
X29077290Y-23295500D01*
X29077288Y-23295500D01*
X28834712Y-23295500D01*
X28834709Y-23295500D01*
X28594217Y-23327160D01*
X28359904Y-23389944D01*
X28359900Y-23389946D01*
X28135786Y-23482777D01*
X28135775Y-23482782D01*
X27925714Y-23604061D01*
X27733262Y-23751735D01*
X27733251Y-23751744D01*
X27561744Y-23923251D01*
X27561735Y-23923262D01*
X27414061Y-24115714D01*
X27292782Y-24325775D01*
X27292777Y-24325786D01*
X27199946Y-24549900D01*
X27199944Y-24549904D01*
X27137160Y-24784217D01*
X27105500Y-25024709D01*
X25400000Y-25024709D01*
X25400000Y-22861366D01*
X25400030Y-22858623D01*
X25401111Y-22808999D01*
X25402206Y-22758731D01*
X25404087Y-22739620D01*
X25439017Y-22541521D01*
X25444702Y-22520311D01*
X25500164Y-22367931D01*
X25513024Y-22332598D01*
X25522295Y-22312715D01*
X25622179Y-22139711D01*
X25634774Y-22121724D01*
X25652583Y-22100500D01*
X25763182Y-21968692D01*
X25778692Y-21953182D01*
X25931727Y-21824771D01*
X25949711Y-21812179D01*
X26122715Y-21712295D01*
X26142598Y-21703024D01*
X26330312Y-21634701D01*
X26351521Y-21629017D01*
X26549620Y-21594087D01*
X26568731Y-21592206D01*
X26666188Y-21590083D01*
X26668624Y-21590030D01*
X26671367Y-21590000D01*
X95842459Y-21590000D01*
X95910580Y-21610002D01*
G37*
%TD.AperFunction*%
%TA.AperFunction,Conductor*%
G36*
X78586833Y-56581038D02*
G01*
X78643668Y-56623585D01*
X78668479Y-56690105D01*
X78668800Y-56699094D01*
X78668800Y-60712306D01*
X78648798Y-60780427D01*
X78631895Y-60801401D01*
X78054801Y-61378495D01*
X77992489Y-61412521D01*
X77965706Y-61415400D01*
X77909813Y-61415400D01*
X77723011Y-61455106D01*
X77548547Y-61532782D01*
X77394044Y-61645035D01*
X77266265Y-61786948D01*
X77266258Y-61786958D01*
X77170776Y-61952338D01*
X77170773Y-61952345D01*
X77111757Y-62133972D01*
X77093523Y-62307470D01*
X77066510Y-62373127D01*
X77008289Y-62413757D01*
X76968213Y-62420300D01*
X72486003Y-62420300D01*
X72412968Y-62434828D01*
X72363615Y-62444645D01*
X72363613Y-62444645D01*
X72363612Y-62444646D01*
X72317936Y-62463566D01*
X72249634Y-62491858D01*
X72248323Y-62492401D01*
X72144571Y-62561726D01*
X72144564Y-62561731D01*
X71631431Y-63074864D01*
X71631426Y-63074871D01*
X71562101Y-63178623D01*
X71514346Y-63293912D01*
X71490000Y-63416303D01*
X71490000Y-63458406D01*
X71469998Y-63526527D01*
X71453095Y-63547501D01*
X64551001Y-70449595D01*
X64488689Y-70483621D01*
X64461906Y-70486500D01*
X62550762Y-70486500D01*
X62482641Y-70466498D01*
X62445279Y-70429415D01*
X62329314Y-70251916D01*
X62171225Y-70080186D01*
X62171221Y-70080182D01*
X62057089Y-69991350D01*
X61987017Y-69936810D01*
X61781727Y-69825713D01*
X61781724Y-69825712D01*
X61781723Y-69825711D01*
X61560955Y-69749921D01*
X61560948Y-69749919D01*
X61460645Y-69733182D01*
X61330712Y-69711500D01*
X61097288Y-69711500D01*
X61000003Y-69727734D01*
X60867051Y-69749919D01*
X60867044Y-69749921D01*
X60646276Y-69825711D01*
X60646273Y-69825713D01*
X60452091Y-69930799D01*
X60440985Y-69936809D01*
X60440983Y-69936810D01*
X60256778Y-70080182D01*
X60252946Y-70083711D01*
X60251581Y-70082228D01*
X60198129Y-70114333D01*
X60127165Y-70112180D01*
X60068630Y-70072003D01*
X60048258Y-70036449D01*
X60029947Y-69987358D01*
X60024889Y-69973796D01*
X60024888Y-69973794D01*
X60024887Y-69973792D01*
X59937261Y-69856738D01*
X59820207Y-69769112D01*
X59820202Y-69769110D01*
X59683204Y-69718011D01*
X59683196Y-69718009D01*
X59622649Y-69711500D01*
X59622638Y-69711500D01*
X59433500Y-69711500D01*
X59365379Y-69691498D01*
X59318886Y-69637842D01*
X59307500Y-69585500D01*
X59307500Y-69529594D01*
X59327502Y-69461473D01*
X59344405Y-69440499D01*
X60804499Y-67980405D01*
X60866811Y-67946379D01*
X60893594Y-67943500D01*
X64864393Y-67943500D01*
X64864394Y-67943500D01*
X64986785Y-67919155D01*
X65102075Y-67871400D01*
X65205833Y-67802071D01*
X65294071Y-67713833D01*
X65363400Y-67610075D01*
X65411155Y-67494785D01*
X65435500Y-67372394D01*
X65435500Y-66734606D01*
X65411155Y-66612215D01*
X65363400Y-66496925D01*
X65322510Y-66435729D01*
X65301968Y-66378905D01*
X65282542Y-66194072D01*
X65223527Y-66012444D01*
X65128040Y-65847056D01*
X65128038Y-65847054D01*
X65128034Y-65847048D01*
X65000255Y-65705135D01*
X64845752Y-65592882D01*
X64671288Y-65515206D01*
X64484487Y-65475500D01*
X64293513Y-65475500D01*
X64106711Y-65515206D01*
X63932247Y-65592882D01*
X63777744Y-65705135D01*
X63649965Y-65847048D01*
X63649958Y-65847058D01*
X63554476Y-66012438D01*
X63554473Y-66012445D01*
X63495457Y-66194072D01*
X63475496Y-66384000D01*
X63491611Y-66537330D01*
X63478839Y-66607168D01*
X63430336Y-66659015D01*
X63366301Y-66676500D01*
X60516603Y-66676500D01*
X60443568Y-66691028D01*
X60394215Y-66700845D01*
X60394213Y-66700845D01*
X60394212Y-66700846D01*
X60278923Y-66748601D01*
X60175171Y-66817926D01*
X60175164Y-66817931D01*
X58181931Y-68811164D01*
X58181926Y-68811171D01*
X58112601Y-68914923D01*
X58064846Y-69030212D01*
X58040500Y-69152603D01*
X58040500Y-69585500D01*
X58020498Y-69653621D01*
X57966842Y-69700114D01*
X57914500Y-69711500D01*
X57725350Y-69711500D01*
X57664803Y-69718009D01*
X57664795Y-69718011D01*
X57527797Y-69769110D01*
X57527792Y-69769112D01*
X57410738Y-69856738D01*
X57323112Y-69973792D01*
X57323110Y-69973797D01*
X57272011Y-70110795D01*
X57272009Y-70110803D01*
X57265500Y-70171350D01*
X57265500Y-71585900D01*
X57245498Y-71654021D01*
X57191842Y-71700514D01*
X57139500Y-71711900D01*
X50302994Y-71711900D01*
X50234873Y-71691898D01*
X50213899Y-71674995D01*
X50154022Y-71615118D01*
X50119996Y-71552806D01*
X50120973Y-71495091D01*
X50139673Y-71421251D01*
X50146396Y-71394700D01*
X50157049Y-71352635D01*
X50157050Y-71352630D01*
X50157050Y-71352629D01*
X50157051Y-71352626D01*
X50176327Y-71120000D01*
X50157051Y-70887374D01*
X50099749Y-70661093D01*
X50005984Y-70447331D01*
X49919716Y-70315287D01*
X49878314Y-70251916D01*
X49720225Y-70080186D01*
X49720221Y-70080182D01*
X49606089Y-69991350D01*
X49536017Y-69936810D01*
X49330727Y-69825713D01*
X49330724Y-69825712D01*
X49330723Y-69825711D01*
X49109955Y-69749921D01*
X49109948Y-69749919D01*
X49009645Y-69733182D01*
X48879712Y-69711500D01*
X48646288Y-69711500D01*
X48549003Y-69727734D01*
X48416051Y-69749919D01*
X48416044Y-69749921D01*
X48195276Y-69825711D01*
X48195273Y-69825713D01*
X48001091Y-69930799D01*
X47989985Y-69936809D01*
X47989983Y-69936810D01*
X47805778Y-70080182D01*
X47801946Y-70083711D01*
X47800581Y-70082228D01*
X47747129Y-70114333D01*
X47676165Y-70112180D01*
X47617630Y-70072003D01*
X47597258Y-70036449D01*
X47578947Y-69987358D01*
X47573889Y-69973796D01*
X47573888Y-69973794D01*
X47573887Y-69973792D01*
X47486261Y-69856738D01*
X47369207Y-69769112D01*
X47369202Y-69769110D01*
X47232204Y-69718011D01*
X47232196Y-69718009D01*
X47171649Y-69711500D01*
X47171638Y-69711500D01*
X45274362Y-69711500D01*
X45274350Y-69711500D01*
X45213803Y-69718009D01*
X45213795Y-69718011D01*
X45076797Y-69769110D01*
X45076792Y-69769112D01*
X44959738Y-69856738D01*
X44872112Y-69973792D01*
X44872110Y-69973797D01*
X44821011Y-70110795D01*
X44821009Y-70110803D01*
X44814500Y-70171350D01*
X44814500Y-72068649D01*
X44820885Y-72128032D01*
X44808279Y-72197900D01*
X44759901Y-72249862D01*
X44695607Y-72267500D01*
X42174364Y-72267500D01*
X42106243Y-72247498D01*
X42092534Y-72237311D01*
X41985419Y-72145826D01*
X41985417Y-72145825D01*
X41985416Y-72145824D01*
X41782963Y-72021760D01*
X41775453Y-72018649D01*
X41563592Y-71930894D01*
X41405651Y-71892976D01*
X41332711Y-71875465D01*
X41096000Y-71856835D01*
X40859289Y-71875465D01*
X40628407Y-71930894D01*
X40409038Y-72021759D01*
X40206582Y-72145825D01*
X40206580Y-72145826D01*
X40026030Y-72300030D01*
X39871826Y-72480580D01*
X39871825Y-72480582D01*
X39747759Y-72683038D01*
X39656894Y-72902407D01*
X39601465Y-73133289D01*
X39582835Y-73370000D01*
X39601465Y-73606711D01*
X39636261Y-73751644D01*
X39656895Y-73837593D01*
X39656895Y-73837595D01*
X39678015Y-73888583D01*
X39685604Y-73959173D01*
X39653824Y-74022659D01*
X39592766Y-74058886D01*
X39561606Y-74062800D01*
X38847794Y-74062800D01*
X38779673Y-74042798D01*
X38758699Y-74025895D01*
X35181218Y-70448414D01*
X35147192Y-70386102D01*
X35152257Y-70315287D01*
X35194804Y-70258451D01*
X35222096Y-70242910D01*
X35282735Y-70217792D01*
X35282738Y-70217791D01*
X35469890Y-70103102D01*
X35469891Y-70103101D01*
X34761772Y-69394982D01*
X34808292Y-69382518D01*
X34933708Y-69310110D01*
X35036110Y-69207708D01*
X35108518Y-69082292D01*
X35120983Y-69035772D01*
X35829102Y-69743891D01*
X35829102Y-69743890D01*
X35943791Y-69556738D01*
X36034628Y-69337437D01*
X36090039Y-69106632D01*
X36108662Y-68870000D01*
X39583337Y-68870000D01*
X39601960Y-69106632D01*
X39657371Y-69337437D01*
X39748208Y-69556738D01*
X39862896Y-69743890D01*
X39862897Y-69743890D01*
X40571016Y-69035771D01*
X40583482Y-69082292D01*
X40655890Y-69207708D01*
X40758292Y-69310110D01*
X40883708Y-69382518D01*
X40930226Y-69394982D01*
X40222107Y-70103101D01*
X40222108Y-70103102D01*
X40409261Y-70217791D01*
X40628562Y-70308628D01*
X40859367Y-70364039D01*
X41096000Y-70382662D01*
X41332632Y-70364039D01*
X41563437Y-70308628D01*
X41782738Y-70217791D01*
X41969890Y-70103102D01*
X41969891Y-70103102D01*
X41261772Y-69394982D01*
X41308292Y-69382518D01*
X41433708Y-69310110D01*
X41536110Y-69207708D01*
X41608518Y-69082292D01*
X41620983Y-69035772D01*
X42329102Y-69743891D01*
X42329102Y-69743890D01*
X42443791Y-69556738D01*
X42534628Y-69337437D01*
X42590039Y-69106632D01*
X42608662Y-68870000D01*
X42590039Y-68633367D01*
X42534628Y-68402562D01*
X42443791Y-68183261D01*
X42329102Y-67996108D01*
X42329101Y-67996107D01*
X41620982Y-68704226D01*
X41608518Y-68657708D01*
X41536110Y-68532292D01*
X41433708Y-68429890D01*
X41308292Y-68357482D01*
X41261771Y-68345016D01*
X41969890Y-67636897D01*
X41969890Y-67636896D01*
X41782738Y-67522208D01*
X41563437Y-67431371D01*
X41332632Y-67375960D01*
X41096000Y-67357337D01*
X40859367Y-67375960D01*
X40628562Y-67431371D01*
X40409266Y-67522206D01*
X40222108Y-67636897D01*
X40222108Y-67636898D01*
X40930227Y-68345017D01*
X40883708Y-68357482D01*
X40758292Y-68429890D01*
X40655890Y-68532292D01*
X40583482Y-68657708D01*
X40571017Y-68704227D01*
X39862898Y-67996108D01*
X39862897Y-67996108D01*
X39748206Y-68183266D01*
X39657371Y-68402562D01*
X39601960Y-68633367D01*
X39583337Y-68870000D01*
X36108662Y-68870000D01*
X36090039Y-68633367D01*
X36034628Y-68402562D01*
X35943791Y-68183261D01*
X35829102Y-67996108D01*
X35829101Y-67996107D01*
X35120982Y-68704226D01*
X35108518Y-68657708D01*
X35036110Y-68532292D01*
X34933708Y-68429890D01*
X34808292Y-68357482D01*
X34761772Y-68345016D01*
X35469890Y-67636897D01*
X35469890Y-67636896D01*
X35282738Y-67522208D01*
X35063437Y-67431371D01*
X34832632Y-67375960D01*
X34598116Y-67357504D01*
X34531775Y-67332219D01*
X34489635Y-67275081D01*
X34485076Y-67204231D01*
X34518905Y-67142798D01*
X34906900Y-66754804D01*
X34969212Y-66720779D01*
X34995995Y-66717900D01*
X45344800Y-66717900D01*
X45412921Y-66737902D01*
X45438437Y-66759590D01*
X45441747Y-66763266D01*
X45596248Y-66875518D01*
X45770712Y-66953194D01*
X45957513Y-66992900D01*
X46148487Y-66992900D01*
X46335288Y-66953194D01*
X46509752Y-66875518D01*
X46664253Y-66763266D01*
X46671872Y-66754804D01*
X46792034Y-66621351D01*
X46792035Y-66621349D01*
X46792040Y-66621344D01*
X46887527Y-66455956D01*
X46946542Y-66274328D01*
X46966504Y-66084400D01*
X46963964Y-66060237D01*
X46976736Y-65990401D01*
X47025237Y-65938554D01*
X47094070Y-65921159D01*
X47161380Y-65943740D01*
X47178369Y-65957973D01*
X47752577Y-66532181D01*
X47786603Y-66594493D01*
X47788792Y-66608105D01*
X47806157Y-66773327D01*
X47836226Y-66865870D01*
X47865173Y-66954956D01*
X47865176Y-66954961D01*
X47960658Y-67120341D01*
X47960665Y-67120351D01*
X48088444Y-67262264D01*
X48088447Y-67262266D01*
X48242948Y-67374518D01*
X48417412Y-67452194D01*
X48604213Y-67491900D01*
X48795187Y-67491900D01*
X48981988Y-67452194D01*
X49156452Y-67374518D01*
X49310953Y-67262266D01*
X49321551Y-67250496D01*
X49438734Y-67120351D01*
X49438735Y-67120349D01*
X49438740Y-67120344D01*
X49534227Y-66954956D01*
X49593242Y-66773328D01*
X49613204Y-66583400D01*
X49593242Y-66393472D01*
X49534227Y-66211844D01*
X49438740Y-66046456D01*
X49438738Y-66046454D01*
X49438734Y-66046448D01*
X49310955Y-65904535D01*
X49156452Y-65792282D01*
X48981988Y-65714606D01*
X48795187Y-65674900D01*
X48739294Y-65674900D01*
X48671173Y-65654898D01*
X48650199Y-65637995D01*
X47465299Y-64453095D01*
X47431273Y-64390783D01*
X47436338Y-64319968D01*
X47478885Y-64263132D01*
X47545405Y-64238321D01*
X47554394Y-64238000D01*
X52114593Y-64238000D01*
X52114594Y-64238000D01*
X52236985Y-64213655D01*
X52352275Y-64165900D01*
X52456033Y-64096571D01*
X53734599Y-62818005D01*
X53796911Y-62783979D01*
X53823694Y-62781100D01*
X53879587Y-62781100D01*
X54066388Y-62741394D01*
X54240852Y-62663718D01*
X54395353Y-62551466D01*
X54400084Y-62546211D01*
X54460523Y-62508970D01*
X54531507Y-62510316D01*
X54577293Y-62538072D01*
X54577888Y-62537348D01*
X54582659Y-62541263D01*
X54582667Y-62541271D01*
X54686425Y-62610600D01*
X54801715Y-62658355D01*
X54924106Y-62682700D01*
X55048894Y-62682700D01*
X65680100Y-62682700D01*
X65748221Y-62702702D01*
X65773737Y-62724390D01*
X65777047Y-62728066D01*
X65931548Y-62840318D01*
X66106012Y-62917994D01*
X66292813Y-62957700D01*
X66483787Y-62957700D01*
X66670588Y-62917994D01*
X66845052Y-62840318D01*
X66999553Y-62728066D01*
X67028354Y-62696079D01*
X67127334Y-62586151D01*
X67127335Y-62586149D01*
X67127340Y-62586144D01*
X67222827Y-62420756D01*
X67281842Y-62239128D01*
X67301804Y-62049200D01*
X67281842Y-61859272D01*
X67281152Y-61852704D01*
X67283593Y-61852447D01*
X67288135Y-61792750D01*
X67330938Y-61736107D01*
X67397570Y-61711598D01*
X67425688Y-61712866D01*
X67603315Y-61741000D01*
X67603319Y-61741000D01*
X67796682Y-61741000D01*
X67796685Y-61741000D01*
X67987674Y-61710750D01*
X68171580Y-61650996D01*
X68343874Y-61563208D01*
X68500314Y-61449548D01*
X68637048Y-61312814D01*
X68750708Y-61156374D01*
X68838496Y-60984080D01*
X68850168Y-60948157D01*
X68890237Y-60889555D01*
X68955633Y-60861917D01*
X69025590Y-60874021D01*
X69077897Y-60922026D01*
X69089831Y-60948157D01*
X69101500Y-60984070D01*
X69101501Y-60984072D01*
X69101504Y-60984080D01*
X69189292Y-61156374D01*
X69302952Y-61312814D01*
X69302954Y-61312816D01*
X69302956Y-61312819D01*
X69439680Y-61449543D01*
X69439683Y-61449545D01*
X69439686Y-61449548D01*
X69596126Y-61563208D01*
X69768420Y-61650996D01*
X69952320Y-61710748D01*
X69952321Y-61710748D01*
X69952326Y-61710750D01*
X70143315Y-61741000D01*
X70143318Y-61741000D01*
X70336682Y-61741000D01*
X70336685Y-61741000D01*
X70527674Y-61710750D01*
X70711580Y-61650996D01*
X70883874Y-61563208D01*
X71040314Y-61449548D01*
X71177048Y-61312814D01*
X71290708Y-61156374D01*
X71378496Y-60984080D01*
X71390168Y-60948157D01*
X71430237Y-60889555D01*
X71495633Y-60861917D01*
X71565590Y-60874021D01*
X71617897Y-60922026D01*
X71629831Y-60948157D01*
X71641500Y-60984070D01*
X71641501Y-60984072D01*
X71641504Y-60984080D01*
X71729292Y-61156374D01*
X71842952Y-61312814D01*
X71842954Y-61312816D01*
X71842956Y-61312819D01*
X71979680Y-61449543D01*
X71979683Y-61449545D01*
X71979686Y-61449548D01*
X72136126Y-61563208D01*
X72308420Y-61650996D01*
X72492320Y-61710748D01*
X72492321Y-61710748D01*
X72492326Y-61710750D01*
X72683315Y-61741000D01*
X72683318Y-61741000D01*
X72876682Y-61741000D01*
X72876685Y-61741000D01*
X73067674Y-61710750D01*
X73251580Y-61650996D01*
X73423874Y-61563208D01*
X73580314Y-61449548D01*
X73717048Y-61312814D01*
X73830708Y-61156374D01*
X73918496Y-60984080D01*
X73930430Y-60947349D01*
X73970503Y-60888744D01*
X74035899Y-60861106D01*
X74105856Y-60873212D01*
X74158162Y-60921218D01*
X74170096Y-60947349D01*
X74181966Y-60983883D01*
X74181969Y-60983889D01*
X74269722Y-61156115D01*
X74383335Y-61312490D01*
X74520009Y-61449164D01*
X74676384Y-61562777D01*
X74848610Y-61650530D01*
X74848616Y-61650533D01*
X75032437Y-61710260D01*
X75066000Y-61715576D01*
X75066000Y-60663202D01*
X75127007Y-60698425D01*
X75254174Y-60732500D01*
X75385826Y-60732500D01*
X75512993Y-60698425D01*
X75574000Y-60663202D01*
X75574000Y-61715576D01*
X75607562Y-61710260D01*
X75791383Y-61650533D01*
X75791389Y-61650530D01*
X75963615Y-61562777D01*
X76119990Y-61449164D01*
X76256664Y-61312490D01*
X76370277Y-61156115D01*
X76458030Y-60983889D01*
X76458033Y-60983883D01*
X76517760Y-60800061D01*
X76548000Y-60609142D01*
X76548000Y-60486500D01*
X75750703Y-60486500D01*
X75785925Y-60425493D01*
X75820000Y-60298326D01*
X75820000Y-60166674D01*
X75785925Y-60039507D01*
X75750703Y-59978500D01*
X76548000Y-59978500D01*
X76548000Y-59855857D01*
X76517760Y-59664938D01*
X76458033Y-59481116D01*
X76458030Y-59481110D01*
X76370277Y-59308884D01*
X76256664Y-59152509D01*
X76173024Y-59068869D01*
X76138998Y-59006557D01*
X76144063Y-58935742D01*
X76173022Y-58890681D01*
X78453705Y-56609999D01*
X78516017Y-56575973D01*
X78586833Y-56581038D01*
G37*
%TD.AperFunction*%
%TA.AperFunction,Conductor*%
G36*
X115537431Y-49387337D02*
G01*
X115594267Y-49429884D01*
X115594268Y-49429886D01*
X115612688Y-49454493D01*
X115637498Y-49521013D01*
X115622406Y-49590387D01*
X115612687Y-49605509D01*
X115539112Y-49703792D01*
X115539110Y-49703797D01*
X115488011Y-49840795D01*
X115488009Y-49840803D01*
X115481500Y-49901350D01*
X115481500Y-50738595D01*
X115481070Y-50748999D01*
X115476844Y-50799999D01*
X115481070Y-50850998D01*
X115481500Y-50861403D01*
X115481500Y-51698649D01*
X115488009Y-51759196D01*
X115488011Y-51759204D01*
X115539110Y-51896202D01*
X115539112Y-51896207D01*
X115612999Y-51994907D01*
X115637810Y-52061427D01*
X115622719Y-52130801D01*
X115613000Y-52145924D01*
X115539555Y-52244035D01*
X115488505Y-52380906D01*
X115482000Y-52441402D01*
X115482000Y-53086000D01*
X116397749Y-53086000D01*
X116364755Y-53143147D01*
X116330000Y-53272857D01*
X116330000Y-53407143D01*
X116364755Y-53536853D01*
X116397749Y-53594000D01*
X115482000Y-53594000D01*
X115482000Y-54238597D01*
X115488505Y-54299093D01*
X115539555Y-54435964D01*
X115539556Y-54435966D01*
X115612999Y-54534072D01*
X115637811Y-54600592D01*
X115622720Y-54669966D01*
X115613000Y-54685091D01*
X115539112Y-54783792D01*
X115539110Y-54783797D01*
X115488011Y-54920795D01*
X115488009Y-54920803D01*
X115481500Y-54981350D01*
X115481500Y-55818595D01*
X115481070Y-55828999D01*
X115476844Y-55879999D01*
X115481070Y-55930998D01*
X115481500Y-55941403D01*
X115481500Y-56778649D01*
X115488009Y-56839196D01*
X115488011Y-56839204D01*
X115539110Y-56976202D01*
X115539112Y-56976207D01*
X115612687Y-57074491D01*
X115637498Y-57141011D01*
X115622407Y-57210385D01*
X115612687Y-57225509D01*
X115539112Y-57323792D01*
X115539110Y-57323797D01*
X115488011Y-57460795D01*
X115488009Y-57460803D01*
X115481500Y-57521350D01*
X115481500Y-58358595D01*
X115481070Y-58368999D01*
X115476844Y-58419999D01*
X115481070Y-58470998D01*
X115481500Y-58481403D01*
X115481500Y-59318649D01*
X115488009Y-59379196D01*
X115488011Y-59379204D01*
X115539110Y-59516202D01*
X115539112Y-59516207D01*
X115612687Y-59614491D01*
X115637498Y-59681011D01*
X115622407Y-59750385D01*
X115612687Y-59765509D01*
X115539112Y-59863792D01*
X115539110Y-59863797D01*
X115488011Y-60000795D01*
X115488009Y-60000803D01*
X115481500Y-60061350D01*
X115481500Y-60898595D01*
X115481070Y-60908999D01*
X115476844Y-60960000D01*
X115481070Y-61010998D01*
X115481500Y-61021403D01*
X115481500Y-61858649D01*
X115488009Y-61919196D01*
X115488011Y-61919204D01*
X115539110Y-62056202D01*
X115539112Y-62056207D01*
X115612687Y-62154491D01*
X115637498Y-62221011D01*
X115622407Y-62290385D01*
X115612687Y-62305509D01*
X115539112Y-62403792D01*
X115539110Y-62403797D01*
X115488011Y-62540795D01*
X115488009Y-62540803D01*
X115481500Y-62601350D01*
X115481500Y-63438595D01*
X115481070Y-63448999D01*
X115476844Y-63499999D01*
X115481070Y-63550998D01*
X115481500Y-63561403D01*
X115481500Y-64398649D01*
X115488009Y-64459196D01*
X115488011Y-64459204D01*
X115539110Y-64596202D01*
X115539112Y-64596207D01*
X115612999Y-64694907D01*
X115637810Y-64761427D01*
X115622719Y-64830801D01*
X115613000Y-64845924D01*
X115539555Y-64944035D01*
X115488505Y-65080906D01*
X115482000Y-65141402D01*
X115482000Y-65786000D01*
X116397749Y-65786000D01*
X116364755Y-65843147D01*
X116330000Y-65972857D01*
X116330000Y-66107143D01*
X116364755Y-66236853D01*
X116397749Y-66294000D01*
X115482000Y-66294000D01*
X115482000Y-66938597D01*
X115488505Y-66999093D01*
X115539555Y-67135964D01*
X115539556Y-67135966D01*
X115612999Y-67234072D01*
X115637811Y-67300592D01*
X115622720Y-67369966D01*
X115613000Y-67385091D01*
X115539112Y-67483792D01*
X115539110Y-67483797D01*
X115488011Y-67620795D01*
X115488009Y-67620803D01*
X115481500Y-67681350D01*
X115481500Y-67885998D01*
X115461498Y-67954119D01*
X115407842Y-68000612D01*
X115403736Y-68002399D01*
X115391196Y-68007594D01*
X115364623Y-68018601D01*
X115260871Y-68087926D01*
X115260864Y-68087931D01*
X115172631Y-68176164D01*
X115172626Y-68176171D01*
X115103301Y-68279923D01*
X115055546Y-68395212D01*
X115031200Y-68517603D01*
X115031200Y-69367206D01*
X115011198Y-69435327D01*
X114994295Y-69456301D01*
X112063595Y-72387001D01*
X112001283Y-72421027D01*
X111930468Y-72415962D01*
X111873632Y-72373415D01*
X111848821Y-72306895D01*
X111848500Y-72297906D01*
X111848500Y-70951403D01*
X111848930Y-70940998D01*
X111853156Y-70890000D01*
X111848930Y-70838999D01*
X111848500Y-70828595D01*
X111848500Y-69991367D01*
X111848499Y-69991350D01*
X111841990Y-69930803D01*
X111841988Y-69930795D01*
X111808499Y-69841011D01*
X111790889Y-69793796D01*
X111790888Y-69793794D01*
X111790887Y-69793792D01*
X111703261Y-69676738D01*
X111586207Y-69589112D01*
X111586202Y-69589110D01*
X111449204Y-69538011D01*
X111449196Y-69538009D01*
X111388649Y-69531500D01*
X111388638Y-69531500D01*
X109591362Y-69531500D01*
X109591350Y-69531500D01*
X109530803Y-69538009D01*
X109530795Y-69538011D01*
X109393797Y-69589110D01*
X109393792Y-69589112D01*
X109295091Y-69663000D01*
X109228571Y-69687811D01*
X109159197Y-69672720D01*
X109144072Y-69662999D01*
X109045966Y-69589556D01*
X109045964Y-69589555D01*
X108909093Y-69538505D01*
X108848597Y-69532000D01*
X108204000Y-69532000D01*
X108204000Y-70447749D01*
X108146853Y-70414755D01*
X108017143Y-70380000D01*
X107882857Y-70380000D01*
X107753147Y-70414755D01*
X107696000Y-70447749D01*
X107696000Y-69532000D01*
X107051402Y-69532000D01*
X106990906Y-69538505D01*
X106854035Y-69589555D01*
X106755924Y-69663000D01*
X106689404Y-69687810D01*
X106620030Y-69672718D01*
X106604907Y-69662999D01*
X106506207Y-69589112D01*
X106506202Y-69589110D01*
X106369204Y-69538011D01*
X106369196Y-69538009D01*
X106308649Y-69531500D01*
X106308638Y-69531500D01*
X104511362Y-69531500D01*
X104511350Y-69531500D01*
X104450803Y-69538009D01*
X104450795Y-69538011D01*
X104313797Y-69589110D01*
X104313792Y-69589112D01*
X104196738Y-69676738D01*
X104109112Y-69793792D01*
X104109110Y-69793797D01*
X104058011Y-69930795D01*
X104058009Y-69930803D01*
X104051500Y-69991350D01*
X104051500Y-70828595D01*
X104051070Y-70838999D01*
X104046844Y-70889999D01*
X104051070Y-70940998D01*
X104051500Y-70951403D01*
X104051500Y-73105900D01*
X104031498Y-73174021D01*
X103977842Y-73220514D01*
X103925500Y-73231900D01*
X96972895Y-73231900D01*
X96904774Y-73211898D01*
X96858281Y-73158242D01*
X96848177Y-73087968D01*
X96877671Y-73023388D01*
X96883800Y-73016804D01*
X97385201Y-72515404D01*
X97447513Y-72481379D01*
X97474296Y-72478500D01*
X99958632Y-72478500D01*
X99958638Y-72478500D01*
X99958645Y-72478499D01*
X99958649Y-72478499D01*
X100019196Y-72471990D01*
X100019199Y-72471989D01*
X100019201Y-72471989D01*
X100156204Y-72420889D01*
X100184435Y-72399756D01*
X100273261Y-72333261D01*
X100360887Y-72216207D01*
X100360887Y-72216206D01*
X100360889Y-72216204D01*
X100411989Y-72079201D01*
X100413124Y-72068649D01*
X100418499Y-72018649D01*
X100418500Y-72018632D01*
X100418500Y-71181403D01*
X100418930Y-71170998D01*
X100423156Y-71120000D01*
X100418930Y-71068999D01*
X100418500Y-71058595D01*
X100418500Y-70221367D01*
X100418499Y-70221350D01*
X100411990Y-70160803D01*
X100411988Y-70160795D01*
X100360889Y-70023797D01*
X100360889Y-70023796D01*
X100336600Y-69991350D01*
X100287311Y-69925507D01*
X100262501Y-69858989D01*
X100277592Y-69789615D01*
X100287306Y-69774497D01*
X100360889Y-69676204D01*
X100405448Y-69556738D01*
X100411988Y-69539204D01*
X100411990Y-69539196D01*
X100418499Y-69478649D01*
X100418500Y-69478632D01*
X100418500Y-68641403D01*
X100418930Y-68630998D01*
X100423156Y-68580000D01*
X100418930Y-68528999D01*
X100418500Y-68518595D01*
X100418500Y-67681367D01*
X100418499Y-67681350D01*
X100411990Y-67620803D01*
X100411988Y-67620795D01*
X100364988Y-67494787D01*
X100360889Y-67483796D01*
X100360888Y-67483794D01*
X100360887Y-67483792D01*
X100287000Y-67385091D01*
X100262189Y-67318571D01*
X100277280Y-67249197D01*
X100287001Y-67234072D01*
X100360443Y-67135966D01*
X100360444Y-67135964D01*
X100411494Y-66999093D01*
X100417999Y-66938597D01*
X100418000Y-66938585D01*
X100418000Y-66294000D01*
X99502251Y-66294000D01*
X99535245Y-66236853D01*
X99570000Y-66107143D01*
X99570000Y-65972857D01*
X99535245Y-65843147D01*
X99502251Y-65786000D01*
X100418000Y-65786000D01*
X100418000Y-65141414D01*
X100417999Y-65141402D01*
X100411494Y-65080906D01*
X100360444Y-64944035D01*
X100360444Y-64944034D01*
X100287000Y-64845925D01*
X100262189Y-64779405D01*
X100277280Y-64710031D01*
X100286998Y-64694909D01*
X100360889Y-64596204D01*
X100411989Y-64459201D01*
X100412646Y-64453095D01*
X100418499Y-64398649D01*
X100418500Y-64398632D01*
X100418500Y-63561403D01*
X100418930Y-63550998D01*
X100419220Y-63547501D01*
X100423156Y-63500000D01*
X100418930Y-63448999D01*
X100418500Y-63438595D01*
X100418500Y-62601367D01*
X100418499Y-62601350D01*
X100411990Y-62540803D01*
X100411988Y-62540795D01*
X100367921Y-62422650D01*
X100360889Y-62403796D01*
X100287311Y-62305507D01*
X100262501Y-62238989D01*
X100277592Y-62169615D01*
X100287306Y-62154497D01*
X100360889Y-62056204D01*
X100411989Y-61919201D01*
X100418500Y-61858638D01*
X100418500Y-61021403D01*
X100418930Y-61010998D01*
X100423156Y-60960000D01*
X100418930Y-60908999D01*
X100418500Y-60898595D01*
X100418500Y-60061367D01*
X100418499Y-60061350D01*
X100411990Y-60000803D01*
X100411988Y-60000795D01*
X100360889Y-59863797D01*
X100360889Y-59863796D01*
X100337387Y-59832401D01*
X100287311Y-59765507D01*
X100262501Y-59698989D01*
X100277592Y-59629615D01*
X100287306Y-59614497D01*
X100360889Y-59516204D01*
X100411989Y-59379201D01*
X100417058Y-59332056D01*
X100418499Y-59318649D01*
X100418500Y-59318632D01*
X100418500Y-58481403D01*
X100418930Y-58470998D01*
X100423156Y-58420000D01*
X100418930Y-58368999D01*
X100418500Y-58358595D01*
X100418500Y-58004100D01*
X100438502Y-57935979D01*
X100492158Y-57889486D01*
X100544500Y-57878100D01*
X106742493Y-57878100D01*
X106742494Y-57878100D01*
X106864885Y-57853755D01*
X106980175Y-57806000D01*
X107083933Y-57736671D01*
X115404306Y-49416296D01*
X115466616Y-49382272D01*
X115537431Y-49387337D01*
G37*
%TD.AperFunction*%
%TA.AperFunction,Conductor*%
G36*
X108204000Y-71918000D02*
G01*
X108183998Y-71986121D01*
X108130342Y-72032614D01*
X108078000Y-72044000D01*
X107822000Y-72044000D01*
X107753879Y-72023998D01*
X107707386Y-71970342D01*
X107696000Y-71918000D01*
X107696000Y-71332250D01*
X107753147Y-71365245D01*
X107882857Y-71400000D01*
X108017143Y-71400000D01*
X108146853Y-71365245D01*
X108204000Y-71332250D01*
X108204000Y-71918000D01*
G37*
%TD.AperFunction*%
%TA.AperFunction,Conductor*%
G36*
X95820464Y-64296006D02*
G01*
X95877300Y-64338553D01*
X95901710Y-64400594D01*
X95908009Y-64459196D01*
X95908011Y-64459204D01*
X95959110Y-64596202D01*
X95959112Y-64596207D01*
X96032999Y-64694907D01*
X96057810Y-64761427D01*
X96042719Y-64830801D01*
X96033000Y-64845924D01*
X95959555Y-64944035D01*
X95908505Y-65080906D01*
X95902000Y-65141402D01*
X95902000Y-65786000D01*
X98617749Y-65786000D01*
X98584755Y-65843147D01*
X98550000Y-65972857D01*
X98550000Y-66107143D01*
X98584755Y-66236853D01*
X98617749Y-66294000D01*
X95902000Y-66294000D01*
X95902000Y-66938597D01*
X95908505Y-66999093D01*
X95959555Y-67135964D01*
X95959556Y-67135966D01*
X96032999Y-67234072D01*
X96057811Y-67300592D01*
X96042720Y-67369966D01*
X96033000Y-67385091D01*
X95959112Y-67483792D01*
X95959110Y-67483797D01*
X95908011Y-67620795D01*
X95908009Y-67620803D01*
X95901500Y-67681350D01*
X95901500Y-67820500D01*
X95881498Y-67888621D01*
X95827842Y-67935114D01*
X95775500Y-67946500D01*
X92547903Y-67946500D01*
X92456732Y-67964635D01*
X92425515Y-67970845D01*
X92425514Y-67970845D01*
X92425511Y-67970846D01*
X92355117Y-68000005D01*
X92284527Y-68007594D01*
X92221040Y-67975815D01*
X92184812Y-67914757D01*
X92187346Y-67843806D01*
X92217803Y-67794501D01*
X92226793Y-67785511D01*
X95687339Y-64324965D01*
X95749649Y-64290941D01*
X95820464Y-64296006D01*
G37*
%TD.AperFunction*%
%TA.AperFunction,Conductor*%
G36*
X91314496Y-50995872D02*
G01*
X91371332Y-51038419D01*
X91390296Y-51074990D01*
X91421673Y-51171556D01*
X91421676Y-51171561D01*
X91517158Y-51336941D01*
X91517165Y-51336951D01*
X91644943Y-51478863D01*
X91644946Y-51478865D01*
X91644947Y-51478866D01*
X91799448Y-51591118D01*
X91973912Y-51668794D01*
X92160713Y-51708500D01*
X92351687Y-51708500D01*
X92538488Y-51668794D01*
X92712952Y-51591118D01*
X92867453Y-51478866D01*
X92870763Y-51475190D01*
X92931209Y-51437950D01*
X92964400Y-51433500D01*
X95775500Y-51433500D01*
X95843621Y-51453502D01*
X95890114Y-51507158D01*
X95901500Y-51559500D01*
X95901500Y-51698649D01*
X95908009Y-51759196D01*
X95908011Y-51759204D01*
X95959110Y-51896202D01*
X95959112Y-51896207D01*
X96032999Y-51994907D01*
X96057810Y-52061427D01*
X96042719Y-52130801D01*
X96033000Y-52145924D01*
X95959555Y-52244035D01*
X95908505Y-52380906D01*
X95902000Y-52441402D01*
X95902000Y-53086000D01*
X98617749Y-53086000D01*
X98584755Y-53143147D01*
X98550000Y-53272857D01*
X98550000Y-53407143D01*
X98584755Y-53536853D01*
X98617749Y-53594000D01*
X95902000Y-53594000D01*
X95902000Y-53755900D01*
X95881998Y-53824021D01*
X95828342Y-53870514D01*
X95776000Y-53881900D01*
X91473603Y-53881900D01*
X91400568Y-53896428D01*
X91351215Y-53906245D01*
X91351213Y-53906245D01*
X91351212Y-53906246D01*
X91235923Y-53954001D01*
X91132171Y-54023326D01*
X91132164Y-54023331D01*
X88216265Y-56939229D01*
X88153953Y-56973255D01*
X88083137Y-56968190D01*
X88033534Y-56934445D01*
X87962753Y-56855834D01*
X87897829Y-56808664D01*
X87808252Y-56743582D01*
X87633788Y-56665906D01*
X87446987Y-56626200D01*
X87256013Y-56626200D01*
X87069211Y-56665906D01*
X86894747Y-56743582D01*
X86740244Y-56855835D01*
X86612465Y-56997748D01*
X86612458Y-56997758D01*
X86516976Y-57163138D01*
X86516973Y-57163144D01*
X86502808Y-57206739D01*
X86457957Y-57344772D01*
X86440592Y-57509993D01*
X86413579Y-57575650D01*
X86404377Y-57585917D01*
X80881601Y-63108695D01*
X80819289Y-63142721D01*
X80792506Y-63145600D01*
X79380045Y-63145600D01*
X79311924Y-63125598D01*
X79265431Y-63071942D01*
X79255327Y-63001668D01*
X79275278Y-62949599D01*
X79292000Y-62924575D01*
X79292003Y-62924566D01*
X79294915Y-62919120D01*
X79296524Y-62919980D01*
X79317054Y-62889148D01*
X91181371Y-51024831D01*
X91243681Y-50990807D01*
X91314496Y-50995872D01*
G37*
%TD.AperFunction*%
%TA.AperFunction,Conductor*%
G36*
X115537431Y-44307338D02*
G01*
X115594267Y-44349885D01*
X115612687Y-44374491D01*
X115637498Y-44441011D01*
X115622407Y-44510385D01*
X115612687Y-44525509D01*
X115539112Y-44623792D01*
X115539110Y-44623797D01*
X115488011Y-44760795D01*
X115488009Y-44760803D01*
X115481500Y-44821350D01*
X115481500Y-45025998D01*
X115461498Y-45094119D01*
X115407842Y-45140612D01*
X115403736Y-45142399D01*
X115364625Y-45158600D01*
X115364623Y-45158601D01*
X115260871Y-45227926D01*
X115260864Y-45227931D01*
X106643801Y-53844995D01*
X106581489Y-53879021D01*
X106554706Y-53881900D01*
X100544000Y-53881900D01*
X100475879Y-53861898D01*
X100429386Y-53808242D01*
X100418000Y-53755900D01*
X100418000Y-53594000D01*
X99502251Y-53594000D01*
X99535245Y-53536853D01*
X99570000Y-53407143D01*
X99570000Y-53272857D01*
X99535245Y-53143147D01*
X99502251Y-53086000D01*
X100418000Y-53086000D01*
X100418000Y-52441414D01*
X100417999Y-52441402D01*
X100411494Y-52380906D01*
X100360444Y-52244035D01*
X100360444Y-52244034D01*
X100287000Y-52145925D01*
X100262189Y-52079405D01*
X100277280Y-52010031D01*
X100286998Y-51994909D01*
X100360889Y-51896204D01*
X100411989Y-51759201D01*
X100412302Y-51756298D01*
X100418499Y-51698649D01*
X100418500Y-51698632D01*
X100418500Y-50861403D01*
X100418930Y-50850998D01*
X100423156Y-50800000D01*
X100418930Y-50748999D01*
X100418500Y-50738595D01*
X100418500Y-50227700D01*
X100438502Y-50159579D01*
X100492158Y-50113086D01*
X100544500Y-50101700D01*
X109438893Y-50101700D01*
X109438894Y-50101700D01*
X109561285Y-50077355D01*
X109676575Y-50029600D01*
X109780333Y-49960271D01*
X115404306Y-44336297D01*
X115466616Y-44302273D01*
X115537431Y-44307338D01*
G37*
%TD.AperFunction*%
%TA.AperFunction,Conductor*%
G36*
X117936121Y-53106002D02*
G01*
X117982614Y-53159658D01*
X117994000Y-53212000D01*
X117994000Y-53468000D01*
X117973998Y-53536121D01*
X117920342Y-53582614D01*
X117868000Y-53594000D01*
X117282251Y-53594000D01*
X117315245Y-53536853D01*
X117350000Y-53407143D01*
X117350000Y-53272857D01*
X117315245Y-53143147D01*
X117282251Y-53086000D01*
X117868000Y-53086000D01*
X117936121Y-53106002D01*
G37*
%TD.AperFunction*%
%TA.AperFunction,Conductor*%
G36*
X100636870Y-35492774D02*
G01*
X107552629Y-42408533D01*
X107640867Y-42496771D01*
X107744625Y-42566100D01*
X107859915Y-42613855D01*
X107982306Y-42638200D01*
X115006404Y-42638200D01*
X115074525Y-42658202D01*
X115121018Y-42711858D01*
X115131122Y-42782132D01*
X115101628Y-42846712D01*
X115095499Y-42853295D01*
X109151001Y-48797795D01*
X109088689Y-48831821D01*
X109061906Y-48834700D01*
X100544500Y-48834700D01*
X100476379Y-48814698D01*
X100429886Y-48761042D01*
X100418500Y-48708700D01*
X100418500Y-48321403D01*
X100418930Y-48310998D01*
X100423156Y-48260000D01*
X100418930Y-48208999D01*
X100418500Y-48198595D01*
X100418500Y-47361367D01*
X100418499Y-47361350D01*
X100411990Y-47300803D01*
X100411988Y-47300795D01*
X100376388Y-47205350D01*
X100360889Y-47163796D01*
X100287311Y-47065507D01*
X100262501Y-46998989D01*
X100277592Y-46929615D01*
X100287306Y-46914497D01*
X100360889Y-46816204D01*
X100411989Y-46679201D01*
X100418500Y-46618638D01*
X100418500Y-45781403D01*
X100418930Y-45770998D01*
X100423156Y-45720000D01*
X100418930Y-45668999D01*
X100418500Y-45658595D01*
X100418500Y-44821367D01*
X100418499Y-44821350D01*
X100411990Y-44760803D01*
X100411988Y-44760795D01*
X100360889Y-44623797D01*
X100360889Y-44623796D01*
X100343820Y-44600995D01*
X100287311Y-44525507D01*
X100262501Y-44458989D01*
X100277592Y-44389615D01*
X100287306Y-44374497D01*
X100360889Y-44276204D01*
X100411989Y-44139201D01*
X100418500Y-44078638D01*
X100418500Y-43241403D01*
X100418930Y-43230998D01*
X100423156Y-43180000D01*
X100418930Y-43128999D01*
X100418500Y-43118595D01*
X100418500Y-42281367D01*
X100418499Y-42281350D01*
X100411990Y-42220803D01*
X100411988Y-42220795D01*
X100360889Y-42083797D01*
X100360887Y-42083792D01*
X100287000Y-41985091D01*
X100262189Y-41918571D01*
X100277280Y-41849197D01*
X100287001Y-41834072D01*
X100360443Y-41735966D01*
X100360444Y-41735964D01*
X100411494Y-41599093D01*
X100417999Y-41538597D01*
X100418000Y-41538585D01*
X100418000Y-40894000D01*
X99502251Y-40894000D01*
X99535245Y-40836853D01*
X99570000Y-40707143D01*
X99570000Y-40572857D01*
X99535245Y-40443147D01*
X99502251Y-40386000D01*
X100418000Y-40386000D01*
X100418000Y-39741414D01*
X100417999Y-39741402D01*
X100411494Y-39680906D01*
X100360444Y-39544035D01*
X100360444Y-39544034D01*
X100287000Y-39445925D01*
X100262189Y-39379405D01*
X100277280Y-39310031D01*
X100286998Y-39294909D01*
X100360889Y-39196204D01*
X100411989Y-39059201D01*
X100418500Y-38998638D01*
X100418500Y-38161403D01*
X100418930Y-38150998D01*
X100419725Y-38141399D01*
X100423156Y-38100000D01*
X100418930Y-38048999D01*
X100418500Y-38038595D01*
X100418500Y-37201367D01*
X100418499Y-37201350D01*
X100411990Y-37140803D01*
X100411988Y-37140795D01*
X100379794Y-37054482D01*
X100360889Y-37003796D01*
X100287311Y-36905507D01*
X100262501Y-36838989D01*
X100277592Y-36769615D01*
X100287306Y-36754497D01*
X100360889Y-36656204D01*
X100411989Y-36519201D01*
X100415948Y-36482382D01*
X100418499Y-36458649D01*
X100418500Y-36458632D01*
X100418500Y-35621403D01*
X100418930Y-35611001D01*
X100419539Y-35603639D01*
X100422206Y-35571464D01*
X100447763Y-35505230D01*
X100505074Y-35463325D01*
X100575942Y-35459058D01*
X100636870Y-35492774D01*
G37*
%TD.AperFunction*%
%TA.AperFunction,Conductor*%
G36*
X95011726Y-37927002D02*
G01*
X95032700Y-37943904D01*
X95680867Y-38592072D01*
X95784625Y-38661401D01*
X95823717Y-38677593D01*
X95878999Y-38722141D01*
X95901420Y-38789504D01*
X95901500Y-38794002D01*
X95901500Y-38998649D01*
X95908009Y-39059196D01*
X95908011Y-39059204D01*
X95959110Y-39196202D01*
X95959112Y-39196207D01*
X96032999Y-39294907D01*
X96057810Y-39361427D01*
X96042719Y-39430801D01*
X96033000Y-39445924D01*
X95959555Y-39544035D01*
X95908505Y-39680906D01*
X95902000Y-39741402D01*
X95902000Y-40386000D01*
X98617749Y-40386000D01*
X98584755Y-40443147D01*
X98550000Y-40572857D01*
X98550000Y-40707143D01*
X98584755Y-40836853D01*
X98617749Y-40894000D01*
X95902000Y-40894000D01*
X95902000Y-41538597D01*
X95908505Y-41599093D01*
X95959555Y-41735964D01*
X95959556Y-41735966D01*
X96032999Y-41834072D01*
X96057811Y-41900592D01*
X96042720Y-41969966D01*
X96033000Y-41985091D01*
X95959112Y-42083792D01*
X95959110Y-42083797D01*
X95908011Y-42220795D01*
X95908009Y-42220803D01*
X95901500Y-42281350D01*
X95901500Y-42420500D01*
X95881498Y-42488621D01*
X95827842Y-42535114D01*
X95775500Y-42546500D01*
X85963295Y-42546500D01*
X85895174Y-42526498D01*
X85874200Y-42509595D01*
X81590622Y-38226018D01*
X81556596Y-38163706D01*
X81554407Y-38150093D01*
X81553587Y-38142294D01*
X81545424Y-38064618D01*
X81543485Y-38046170D01*
X81556258Y-37976331D01*
X81604760Y-37924485D01*
X81668795Y-37907000D01*
X94943605Y-37907000D01*
X95011726Y-37927002D01*
G37*
%TD.AperFunction*%
%TA.AperFunction,Conductor*%
G36*
X114242927Y-32498202D02*
G01*
X114263901Y-32515105D01*
X115260867Y-33512071D01*
X115364625Y-33581400D01*
X115403719Y-33597593D01*
X115458999Y-33642142D01*
X115481420Y-33709505D01*
X115481500Y-33714002D01*
X115481500Y-33918649D01*
X115488009Y-33979196D01*
X115488011Y-33979204D01*
X115539110Y-34116202D01*
X115539112Y-34116207D01*
X115612687Y-34214491D01*
X115637498Y-34281011D01*
X115622407Y-34350385D01*
X115612687Y-34365509D01*
X115539112Y-34463792D01*
X115539110Y-34463797D01*
X115488011Y-34600795D01*
X115488009Y-34600803D01*
X115481500Y-34661350D01*
X115481500Y-35498595D01*
X115481070Y-35508999D01*
X115476844Y-35559999D01*
X115481070Y-35610998D01*
X115481500Y-35621403D01*
X115481500Y-36458649D01*
X115488009Y-36519196D01*
X115488011Y-36519204D01*
X115539110Y-36656202D01*
X115539112Y-36656207D01*
X115612687Y-36754491D01*
X115637498Y-36821011D01*
X115622407Y-36890385D01*
X115612687Y-36905509D01*
X115539112Y-37003792D01*
X115539110Y-37003797D01*
X115488011Y-37140795D01*
X115488009Y-37140803D01*
X115481500Y-37201350D01*
X115481500Y-38038595D01*
X115481070Y-38048999D01*
X115476844Y-38099999D01*
X115481070Y-38150998D01*
X115481500Y-38161403D01*
X115481500Y-38998649D01*
X115488009Y-39059196D01*
X115488011Y-39059204D01*
X115539110Y-39196202D01*
X115539112Y-39196207D01*
X115612999Y-39294907D01*
X115637810Y-39361427D01*
X115622719Y-39430801D01*
X115613000Y-39445924D01*
X115539555Y-39544035D01*
X115488505Y-39680906D01*
X115482000Y-39741402D01*
X115482000Y-40386000D01*
X116397749Y-40386000D01*
X116364755Y-40443147D01*
X116330000Y-40572857D01*
X116330000Y-40707143D01*
X116364755Y-40836853D01*
X116397749Y-40894000D01*
X115482000Y-40894000D01*
X115482000Y-41245200D01*
X115461998Y-41313321D01*
X115408342Y-41359814D01*
X115356000Y-41371200D01*
X108359294Y-41371200D01*
X108291173Y-41351198D01*
X108270199Y-41334295D01*
X100639235Y-33703331D01*
X100639233Y-33703329D01*
X100535475Y-33634000D01*
X100535473Y-33633999D01*
X100496280Y-33617764D01*
X100441000Y-33573215D01*
X100418580Y-33505851D01*
X100418500Y-33501356D01*
X100418500Y-33081403D01*
X100418930Y-33070998D01*
X100423156Y-33020000D01*
X100418930Y-32968999D01*
X100418500Y-32958595D01*
X100418500Y-32604200D01*
X100438502Y-32536079D01*
X100492158Y-32489586D01*
X100544500Y-32478200D01*
X114174806Y-32478200D01*
X114242927Y-32498202D01*
G37*
%TD.AperFunction*%
%TA.AperFunction,Conductor*%
G36*
X115537431Y-23987338D02*
G01*
X115594267Y-24029885D01*
X115612687Y-24054491D01*
X115637498Y-24121011D01*
X115622407Y-24190385D01*
X115612687Y-24205509D01*
X115539112Y-24303792D01*
X115539110Y-24303797D01*
X115488011Y-24440795D01*
X115488009Y-24440803D01*
X115481500Y-24501350D01*
X115481500Y-25338595D01*
X115481070Y-25348999D01*
X115476844Y-25399999D01*
X115481070Y-25450998D01*
X115481500Y-25461403D01*
X115481500Y-26298649D01*
X115488009Y-26359196D01*
X115488011Y-26359204D01*
X115539110Y-26496202D01*
X115539112Y-26496207D01*
X115612999Y-26594907D01*
X115637810Y-26661427D01*
X115622719Y-26730801D01*
X115613000Y-26745924D01*
X115539555Y-26844035D01*
X115488505Y-26980906D01*
X115482000Y-27041402D01*
X115482000Y-27686000D01*
X116397749Y-27686000D01*
X116364755Y-27743147D01*
X116330000Y-27872857D01*
X116330000Y-28007143D01*
X116364755Y-28136853D01*
X116397749Y-28194000D01*
X115482000Y-28194000D01*
X115482000Y-28838597D01*
X115488505Y-28899093D01*
X115539555Y-29035964D01*
X115539556Y-29035966D01*
X115612999Y-29134072D01*
X115637811Y-29200592D01*
X115622720Y-29269966D01*
X115613000Y-29285091D01*
X115539112Y-29383792D01*
X115539110Y-29383797D01*
X115488011Y-29520795D01*
X115488009Y-29520803D01*
X115481500Y-29581350D01*
X115481500Y-30418595D01*
X115481070Y-30428999D01*
X115476844Y-30479999D01*
X115481070Y-30530998D01*
X115481500Y-30541403D01*
X115481500Y-31378649D01*
X115488009Y-31439196D01*
X115488011Y-31439204D01*
X115539110Y-31576202D01*
X115539112Y-31576207D01*
X115612687Y-31674491D01*
X115637498Y-31741011D01*
X115622407Y-31810385D01*
X115612685Y-31825511D01*
X115594265Y-31850116D01*
X115537429Y-31892662D01*
X115466613Y-31897725D01*
X115404304Y-31863700D01*
X114893235Y-31352631D01*
X114893233Y-31352629D01*
X114789475Y-31283300D01*
X114674185Y-31235545D01*
X114600486Y-31220885D01*
X114551796Y-31211200D01*
X114551794Y-31211200D01*
X100544500Y-31211200D01*
X100476379Y-31191198D01*
X100429886Y-31137542D01*
X100418500Y-31085200D01*
X100418500Y-30541403D01*
X100418930Y-30530998D01*
X100423156Y-30480000D01*
X100418930Y-30428999D01*
X100418500Y-30418595D01*
X100418500Y-30189062D01*
X100438502Y-30120941D01*
X100492158Y-30074448D01*
X100518303Y-30065815D01*
X100522921Y-30064833D01*
X100698588Y-30027494D01*
X100873052Y-29949818D01*
X101027553Y-29837566D01*
X101149106Y-29702568D01*
X101155334Y-29695651D01*
X101155335Y-29695649D01*
X101155340Y-29695644D01*
X101250827Y-29530256D01*
X101309842Y-29348628D01*
X101329804Y-29158700D01*
X101309842Y-28968772D01*
X101250827Y-28787144D01*
X101155340Y-28621756D01*
X101155338Y-28621754D01*
X101155334Y-28621748D01*
X101027555Y-28479835D01*
X100873052Y-28367582D01*
X100698588Y-28289906D01*
X100505328Y-28248827D01*
X100505721Y-28246977D01*
X100448501Y-28223434D01*
X100438235Y-28214234D01*
X100418001Y-28194000D01*
X99502251Y-28194000D01*
X99535245Y-28136853D01*
X99570000Y-28007143D01*
X99570000Y-27872857D01*
X99535245Y-27743147D01*
X99502251Y-27686000D01*
X100418000Y-27686000D01*
X100418000Y-27524100D01*
X100438002Y-27455979D01*
X100491658Y-27409486D01*
X100544000Y-27398100D01*
X101242206Y-27398100D01*
X101310327Y-27418102D01*
X101331301Y-27435005D01*
X101445130Y-27548834D01*
X101533368Y-27637072D01*
X101637126Y-27706401D01*
X101752416Y-27754156D01*
X101874807Y-27778501D01*
X101874808Y-27778501D01*
X113379392Y-27778501D01*
X113379393Y-27778501D01*
X113501784Y-27754156D01*
X113617074Y-27706401D01*
X113720832Y-27637072D01*
X114751770Y-26606134D01*
X114821099Y-26502376D01*
X114868854Y-26387086D01*
X114893199Y-26264695D01*
X114893199Y-26139907D01*
X114893199Y-24579595D01*
X114913201Y-24511474D01*
X114930099Y-24490504D01*
X115404305Y-24016297D01*
X115466616Y-23982274D01*
X115537431Y-23987338D01*
G37*
%TD.AperFunction*%
%TA.AperFunction,Conductor*%
G36*
X92610039Y-26053502D02*
G01*
X92656532Y-26107158D01*
X92666636Y-26177432D01*
X92651037Y-26222500D01*
X92552576Y-26393038D01*
X92552573Y-26393045D01*
X92493557Y-26574672D01*
X92473596Y-26764600D01*
X92493557Y-26954527D01*
X92521785Y-27041402D01*
X92552573Y-27136156D01*
X92552576Y-27136161D01*
X92648058Y-27301541D01*
X92648065Y-27301551D01*
X92775844Y-27443464D01*
X92805149Y-27464755D01*
X92930348Y-27555718D01*
X93104812Y-27633394D01*
X93291613Y-27673100D01*
X93482587Y-27673100D01*
X93669388Y-27633394D01*
X93843852Y-27555718D01*
X93998353Y-27443466D01*
X94001663Y-27439790D01*
X94062109Y-27402550D01*
X94095300Y-27398100D01*
X95776000Y-27398100D01*
X95844121Y-27418102D01*
X95890614Y-27471758D01*
X95902000Y-27524100D01*
X95902000Y-27686000D01*
X98617749Y-27686000D01*
X98584755Y-27743147D01*
X98550000Y-27872857D01*
X98550000Y-28007143D01*
X98584755Y-28136853D01*
X98617749Y-28194000D01*
X95902000Y-28194000D01*
X95902000Y-28399200D01*
X95881998Y-28467321D01*
X95828342Y-28513814D01*
X95776000Y-28525200D01*
X75753395Y-28525200D01*
X75685274Y-28505198D01*
X75664300Y-28488295D01*
X75197221Y-28021216D01*
X75163195Y-27958904D01*
X75161008Y-27945306D01*
X75143642Y-27780072D01*
X75084627Y-27598444D01*
X74989140Y-27433056D01*
X74989138Y-27433054D01*
X74989134Y-27433048D01*
X74861355Y-27291135D01*
X74706852Y-27178882D01*
X74532388Y-27101206D01*
X74345587Y-27061500D01*
X74154613Y-27061500D01*
X73967811Y-27101206D01*
X73793347Y-27178882D01*
X73638844Y-27291135D01*
X73511065Y-27433048D01*
X73511058Y-27433058D01*
X73415576Y-27598438D01*
X73415573Y-27598445D01*
X73356557Y-27780072D01*
X73338102Y-27955670D01*
X73311089Y-28021327D01*
X73252867Y-28061957D01*
X73212792Y-28068500D01*
X73069213Y-28068500D01*
X72882411Y-28108206D01*
X72707947Y-28185882D01*
X72553444Y-28298135D01*
X72425665Y-28440048D01*
X72425658Y-28440058D01*
X72330176Y-28605438D01*
X72330173Y-28605444D01*
X72319474Y-28638372D01*
X72283484Y-28749137D01*
X72243410Y-28807742D01*
X72178013Y-28835379D01*
X72163651Y-28836200D01*
X58299417Y-28836200D01*
X58231296Y-28816198D01*
X58184803Y-28762542D01*
X58174107Y-28723370D01*
X58163427Y-28621756D01*
X58155042Y-28541972D01*
X58096027Y-28360344D01*
X58000540Y-28194956D01*
X58000538Y-28194954D01*
X58000534Y-28194948D01*
X57872755Y-28053035D01*
X57718252Y-27940782D01*
X57543788Y-27863106D01*
X57356987Y-27823400D01*
X57166013Y-27823400D01*
X56979211Y-27863106D01*
X56804747Y-27940782D01*
X56650247Y-28053033D01*
X56646937Y-28056710D01*
X56586491Y-28093950D01*
X56553300Y-28098400D01*
X54790094Y-28098400D01*
X54721973Y-28078398D01*
X54675480Y-28024742D01*
X54665376Y-27954468D01*
X54694870Y-27889888D01*
X54700999Y-27883305D01*
X56513899Y-26070405D01*
X56576211Y-26036379D01*
X56602994Y-26033500D01*
X92541918Y-26033500D01*
X92610039Y-26053502D01*
G37*
%TD.AperFunction*%
%TD*%
M02*
