%TF.GenerationSoftware,KiCad,Pcbnew,7.0.10*%
%TF.CreationDate,2024-03-08T14:18:15+01:00*%
%TF.ProjectId,pico-sst39sf0x0-pcb,7069636f-2d73-4737-9433-397366307830,rev?*%
%TF.SameCoordinates,Original*%
%TF.FileFunction,Copper,L2,Bot*%
%TF.FilePolarity,Positive*%
%FSLAX46Y46*%
G04 Gerber Fmt 4.6, Leading zero omitted, Abs format (unit mm)*
G04 Created by KiCad (PCBNEW 7.0.10) date 2024-03-08 14:18:15*
%MOMM*%
%LPD*%
G01*
G04 APERTURE LIST*
G04 Aperture macros list*
%AMRoundRect*
0 Rectangle with rounded corners*
0 $1 Rounding radius*
0 $2 $3 $4 $5 $6 $7 $8 $9 X,Y pos of 4 corners*
0 Add a 4 corners polygon primitive as box body*
4,1,4,$2,$3,$4,$5,$6,$7,$8,$9,$2,$3,0*
0 Add four circle primitives for the rounded corners*
1,1,$1+$1,$2,$3*
1,1,$1+$1,$4,$5*
1,1,$1+$1,$6,$7*
1,1,$1+$1,$8,$9*
0 Add four rect primitives between the rounded corners*
20,1,$1+$1,$2,$3,$4,$5,0*
20,1,$1+$1,$4,$5,$6,$7,0*
20,1,$1+$1,$6,$7,$8,$9,0*
20,1,$1+$1,$8,$9,$2,$3,0*%
G04 Aperture macros list end*
%TA.AperFunction,SMDPad,CuDef*%
%ADD10RoundRect,0.250000X-0.350000X-0.450000X0.350000X-0.450000X0.350000X0.450000X-0.350000X0.450000X0*%
%TD*%
%TA.AperFunction,SMDPad,CuDef*%
%ADD11RoundRect,0.250000X0.450000X-0.350000X0.450000X0.350000X-0.450000X0.350000X-0.450000X-0.350000X0*%
%TD*%
%TA.AperFunction,ComponentPad*%
%ADD12O,1.700000X1.700000*%
%TD*%
%TA.AperFunction,ComponentPad*%
%ADD13R,1.700000X1.700000*%
%TD*%
%TA.AperFunction,ComponentPad*%
%ADD14R,1.440000X2.000000*%
%TD*%
%TA.AperFunction,ComponentPad*%
%ADD15O,1.440000X2.000000*%
%TD*%
%TA.AperFunction,ComponentPad*%
%ADD16C,2.000000*%
%TD*%
%TA.AperFunction,ComponentPad*%
%ADD17R,1.800000X1.800000*%
%TD*%
%TA.AperFunction,ComponentPad*%
%ADD18C,1.800000*%
%TD*%
%TA.AperFunction,SMDPad,CuDef*%
%ADD19RoundRect,0.150000X0.587500X0.150000X-0.587500X0.150000X-0.587500X-0.150000X0.587500X-0.150000X0*%
%TD*%
%TA.AperFunction,SMDPad,CuDef*%
%ADD20RoundRect,0.150000X-0.587500X-0.150000X0.587500X-0.150000X0.587500X0.150000X-0.587500X0.150000X0*%
%TD*%
%TA.AperFunction,SMDPad,CuDef*%
%ADD21R,0.500000X0.800000*%
%TD*%
%TA.AperFunction,SMDPad,CuDef*%
%ADD22R,0.400000X0.800000*%
%TD*%
%TA.AperFunction,SMDPad,CuDef*%
%ADD23RoundRect,0.250000X-0.475000X0.250000X-0.475000X-0.250000X0.475000X-0.250000X0.475000X0.250000X0*%
%TD*%
%TA.AperFunction,SMDPad,CuDef*%
%ADD24R,1.800000X2.500000*%
%TD*%
%TA.AperFunction,SMDPad,CuDef*%
%ADD25R,0.800000X0.500000*%
%TD*%
%TA.AperFunction,SMDPad,CuDef*%
%ADD26R,0.800000X0.400000*%
%TD*%
%TA.AperFunction,SMDPad,CuDef*%
%ADD27RoundRect,0.150000X0.150000X-0.875000X0.150000X0.875000X-0.150000X0.875000X-0.150000X-0.875000X0*%
%TD*%
%TA.AperFunction,SMDPad,CuDef*%
%ADD28RoundRect,0.250000X0.475000X-0.250000X0.475000X0.250000X-0.475000X0.250000X-0.475000X-0.250000X0*%
%TD*%
%TA.AperFunction,ViaPad*%
%ADD29C,0.800000*%
%TD*%
%TA.AperFunction,Conductor*%
%ADD30C,0.250000*%
%TD*%
G04 APERTURE END LIST*
D10*
%TO.P,R3,1*%
%TO.N,Net-(D3-K)*%
X54515000Y-81026000D03*
%TO.P,R3,2*%
%TO.N,GND*%
X56515000Y-81026000D03*
%TD*%
D11*
%TO.P,R2,1*%
%TO.N,Net-(D2-K)*%
X42672000Y-87233000D03*
%TO.P,R2,2*%
%TO.N,GND*%
X42672000Y-85233000D03*
%TD*%
D12*
%TO.P,U5,1,GPIO0*%
%TO.N,LD0*%
X87630000Y-36830000D03*
%TO.P,U5,2,GPIO1*%
%TO.N,LD1*%
X87630000Y-39370000D03*
D13*
%TO.P,U5,3,GND*%
%TO.N,GND*%
X87630000Y-41910000D03*
D12*
%TO.P,U5,4,GPIO2*%
%TO.N,LD2*%
X87630000Y-44450000D03*
%TO.P,U5,5,GPIO3*%
%TO.N,LD3*%
X87630000Y-46990000D03*
%TO.P,U5,6,GPIO4*%
%TO.N,LD4*%
X87630000Y-49530000D03*
%TO.P,U5,7,GPIO5*%
%TO.N,LD5*%
X87630000Y-52070000D03*
D13*
%TO.P,U5,8,GND*%
%TO.N,GND*%
X87630000Y-54610000D03*
D12*
%TO.P,U5,9,GPIO6*%
%TO.N,LD6*%
X87630000Y-57150000D03*
%TO.P,U5,10,GPIO7*%
%TO.N,LD7*%
X87630000Y-59690000D03*
%TO.P,U5,11,GPIO8*%
%TO.N,LP0*%
X87630000Y-62230000D03*
%TO.P,U5,12,GPIO9*%
%TO.N,LP1*%
X87630000Y-64770000D03*
D13*
%TO.P,U5,13,GND*%
%TO.N,GND*%
X87630000Y-67310000D03*
D12*
%TO.P,U5,14,GPIO10*%
%TO.N,LP2*%
X87630000Y-69850000D03*
%TO.P,U5,15,GPIO11*%
%TO.N,LP3*%
X87630000Y-72390000D03*
%TO.P,U5,16,GPIO12*%
%TO.N,LP4*%
X87630000Y-74930000D03*
%TO.P,U5,17,GPIO13*%
%TO.N,LP5*%
X87630000Y-77470000D03*
D13*
%TO.P,U5,18,GND*%
%TO.N,GND*%
X87630000Y-80010000D03*
D12*
%TO.P,U5,19,GPIO14*%
%TO.N,LP6*%
X87630000Y-82550000D03*
%TO.P,U5,20,GPIO15*%
%TO.N,LP7*%
X87630000Y-85090000D03*
%TO.P,U5,21,GPIO16*%
%TO.N,~{LROE}*%
X105410000Y-85090000D03*
%TO.P,U5,22,GPIO17*%
%TO.N,LALS*%
X105410000Y-82550000D03*
D13*
%TO.P,U5,23,GND*%
%TO.N,GND*%
X105410000Y-80010000D03*
D12*
%TO.P,U5,24,GPIO18*%
%TO.N,LAHS*%
X105410000Y-77470000D03*
%TO.P,U5,25,GPIO19*%
%TO.N,LAUS*%
X105410000Y-74930000D03*
%TO.P,U5,26,GPIO20*%
%TO.N,~{LPGM}*%
X105410000Y-72390000D03*
%TO.P,U5,27,GPIO21*%
%TO.N,~{LCE}*%
X105410000Y-69850000D03*
D13*
%TO.P,U5,28,GND*%
%TO.N,GND*%
X105410000Y-67310000D03*
D12*
%TO.P,U5,29,GPIO22*%
%TO.N,~{LOE}*%
X105410000Y-64770000D03*
%TO.P,U5,30,RUN*%
%TO.N,RUN*%
X105410000Y-62230000D03*
%TO.P,U5,31,GPIO26_ADC0*%
%TO.N,GPIO26_3v3*%
X105410000Y-59690000D03*
%TO.P,U5,32,GPIO27_ADC1*%
%TO.N,GPIO27_3v3*%
X105410000Y-57150000D03*
D13*
%TO.P,U5,33,AGND*%
%TO.N,GND*%
X105410000Y-54610000D03*
D12*
%TO.P,U5,34,GPIO28_ADC2*%
%TO.N,unconnected-(U5-GPIO28_ADC2-Pad34)*%
X105410000Y-52070000D03*
%TO.P,U5,35,ADC_VREF*%
%TO.N,unconnected-(U5-ADC_VREF-Pad35)*%
X105410000Y-49530000D03*
%TO.P,U5,36,3V3*%
%TO.N,+3V3*%
X105410000Y-46990000D03*
%TO.P,U5,37,3V3_EN*%
%TO.N,unconnected-(U5-3V3_EN-Pad37)*%
X105410000Y-44450000D03*
D13*
%TO.P,U5,38,GND*%
%TO.N,GND*%
X105410000Y-41910000D03*
D12*
%TO.P,U5,39,VSYS*%
%TO.N,unconnected-(U5-VSYS-Pad39)*%
X105410000Y-39370000D03*
%TO.P,U5,40,VBUS*%
%TO.N,+5V*%
X105410000Y-36830000D03*
%TO.P,U5,41,SWCLK*%
%TO.N,unconnected-(U5-SWCLK-Pad41)*%
X93980000Y-84860000D03*
D13*
%TO.P,U5,42,GND*%
%TO.N,GND*%
X96520000Y-84860000D03*
D12*
%TO.P,U5,43,SWDIO*%
%TO.N,unconnected-(U5-SWDIO-Pad43)*%
X99060000Y-84860000D03*
%TD*%
D14*
%TO.P,U2,1,A18*%
%TO.N,A18*%
X25790000Y-74202500D03*
D15*
%TO.P,U2,2,A16*%
%TO.N,A16*%
X28330000Y-74202500D03*
%TO.P,U2,3,A15*%
%TO.N,A15*%
X30870000Y-74202500D03*
%TO.P,U2,4,A12*%
%TO.N,A12*%
X33410000Y-74202500D03*
%TO.P,U2,5,A7*%
%TO.N,A7*%
X35950000Y-74202500D03*
%TO.P,U2,6,A6*%
%TO.N,A6*%
X38490000Y-74202500D03*
%TO.P,U2,7,A5*%
%TO.N,A5*%
X41030000Y-74202500D03*
%TO.P,U2,8,A4*%
%TO.N,A4*%
X43570000Y-74202500D03*
%TO.P,U2,9,A3*%
%TO.N,A3*%
X46110000Y-74202500D03*
%TO.P,U2,10,A2*%
%TO.N,A2*%
X48650000Y-74202500D03*
%TO.P,U2,11,A1*%
%TO.N,A1*%
X51190000Y-74202500D03*
%TO.P,U2,12,A0*%
%TO.N,A0*%
X53730000Y-74202500D03*
%TO.P,U2,13,D0*%
%TO.N,D0*%
X56270000Y-74202500D03*
%TO.P,U2,14,D1*%
%TO.N,D1*%
X58810000Y-74202500D03*
%TO.P,U2,15,D2*%
%TO.N,D2*%
X61350000Y-74202500D03*
%TO.P,U2,16,GND*%
%TO.N,GND*%
X63890000Y-74202500D03*
%TO.P,U2,17,D3*%
%TO.N,D3*%
X63890000Y-58962500D03*
%TO.P,U2,18,D4*%
%TO.N,D4*%
X61350000Y-58962500D03*
%TO.P,U2,19,D5*%
%TO.N,D5*%
X58810000Y-58962500D03*
%TO.P,U2,20,D6*%
%TO.N,D6*%
X56270000Y-58962500D03*
%TO.P,U2,21,D7*%
%TO.N,D7*%
X53730000Y-58962500D03*
%TO.P,U2,22,CE*%
%TO.N,~{CE}*%
X51190000Y-58962500D03*
%TO.P,U2,23,A10*%
%TO.N,A10*%
X48650000Y-58962500D03*
%TO.P,U2,24,OE*%
%TO.N,~{OE}*%
X46110000Y-58962500D03*
%TO.P,U2,25,A11*%
%TO.N,A11*%
X43570000Y-58962500D03*
%TO.P,U2,26,A9*%
%TO.N,A9*%
X41030000Y-58962500D03*
%TO.P,U2,27,A8*%
%TO.N,A8*%
X38490000Y-58962500D03*
%TO.P,U2,28,A13*%
%TO.N,A13*%
X35950000Y-58962500D03*
%TO.P,U2,29,A14*%
%TO.N,A14*%
X33410000Y-58962500D03*
%TO.P,U2,30,A17*%
%TO.N,A17*%
X30870000Y-58962500D03*
%TO.P,U2,31,PGM*%
%TO.N,~{PGM}*%
X28330000Y-58962500D03*
%TO.P,U2,32,VCC*%
%TO.N,Net-(D1-K)*%
X25790000Y-58962500D03*
%TD*%
D16*
%TO.P,SW1,1,1*%
%TO.N,RUN*%
X23166000Y-87340000D03*
X29666000Y-87340000D03*
%TO.P,SW1,2,2*%
%TO.N,GND*%
X29666000Y-82840000D03*
X23166000Y-82840000D03*
%TD*%
D17*
%TO.P,D2,1,K*%
%TO.N,Net-(D2-K)*%
X34793000Y-85090000D03*
D18*
%TO.P,D2,2,A*%
%TO.N,GPIO26_3v3*%
X37333000Y-85090000D03*
%TD*%
D17*
%TO.P,D3,1,K*%
%TO.N,Net-(D3-K)*%
X47244000Y-85090000D03*
D18*
%TO.P,D3,2,A*%
%TO.N,GPIO27_3v3*%
X49784000Y-85090000D03*
%TD*%
D19*
%TO.P,Q21,1,G*%
%TO.N,+3V3*%
X69202500Y-49342000D03*
%TO.P,Q21,2,S*%
%TO.N,LD6*%
X69202500Y-51242000D03*
%TO.P,Q21,3,D*%
%TO.N,D6*%
X67327500Y-50292000D03*
%TD*%
D20*
%TO.P,Q6,1,G*%
%TO.N,+3V3*%
X31538200Y-40574000D03*
%TO.P,Q6,2,S*%
%TO.N,LALS*%
X31538200Y-38674000D03*
%TO.P,Q6,3,D*%
%TO.N,ALS*%
X33413200Y-39624000D03*
%TD*%
%TO.P,Q12,1,G*%
%TO.N,+3V3*%
X47503900Y-40574000D03*
%TO.P,Q12,2,S*%
%TO.N,~{LPGM}*%
X47503900Y-38674000D03*
%TO.P,Q12,3,D*%
%TO.N,~{PGM}*%
X49378900Y-39624000D03*
%TD*%
%TO.P,Q4,1,G*%
%TO.N,+3V3*%
X59683800Y-82738000D03*
%TO.P,Q4,2,S*%
%TO.N,LP3*%
X59683800Y-80838000D03*
%TO.P,Q4,3,D*%
%TO.N,P3*%
X61558800Y-81788000D03*
%TD*%
D21*
%TO.P,RN6,1,R1.1*%
%TO.N,+5V*%
X69888000Y-76708000D03*
D22*
%TO.P,RN6,2,R2.1*%
X69088000Y-76708000D03*
%TO.P,RN6,3,R3.1*%
X68288000Y-76708000D03*
D21*
%TO.P,RN6,4,R4.1*%
X67488000Y-76708000D03*
%TO.P,RN6,5,R4.2*%
%TO.N,P7*%
X67488000Y-74908000D03*
D22*
%TO.P,RN6,6,R3.2*%
%TO.N,P6*%
X68288000Y-74908000D03*
%TO.P,RN6,7,R2.2*%
%TO.N,P5*%
X69088000Y-74908000D03*
D21*
%TO.P,RN6,8,R1.2*%
%TO.N,P4*%
X69888000Y-74908000D03*
%TD*%
D23*
%TO.P,C4,1*%
%TO.N,+5V*%
X78486000Y-65598000D03*
%TO.P,C4,2*%
%TO.N,GND*%
X78486000Y-67498000D03*
%TD*%
D10*
%TO.P,R1,1*%
%TO.N,+3V3*%
X25432000Y-85090000D03*
%TO.P,R1,2*%
%TO.N,RUN*%
X27432000Y-85090000D03*
%TD*%
D20*
%TO.P,Q5,1,G*%
%TO.N,+3V3*%
X23555400Y-40574000D03*
%TO.P,Q5,2,S*%
%TO.N,~{LROE}*%
X23555400Y-38674000D03*
%TO.P,Q5,3,D*%
%TO.N,~{ROE}*%
X25430400Y-39624000D03*
%TD*%
D21*
%TO.P,RN5,1,R1.1*%
%TO.N,LAHS*%
X43431500Y-43804000D03*
D22*
%TO.P,RN5,2,R2.1*%
%TO.N,AHS*%
X44231500Y-43804000D03*
%TO.P,RN5,3,R3.1*%
%TO.N,~{LPGM}*%
X45031500Y-43804000D03*
D21*
%TO.P,RN5,4,R4.1*%
%TO.N,~{PGM}*%
X45831500Y-43804000D03*
%TO.P,RN5,5,R4.2*%
%TO.N,+5V*%
X45831500Y-45604000D03*
D22*
%TO.P,RN5,6,R3.2*%
%TO.N,+3V3*%
X45031500Y-45604000D03*
%TO.P,RN5,7,R2.2*%
%TO.N,+5V*%
X44231500Y-45604000D03*
D21*
%TO.P,RN5,8,R1.2*%
%TO.N,+3V3*%
X43431500Y-45604000D03*
%TD*%
D19*
%TO.P,Q15,1,G*%
%TO.N,+3V3*%
X36275500Y-49342000D03*
%TO.P,Q15,2,S*%
%TO.N,LD2*%
X36275500Y-51242000D03*
%TO.P,Q15,3,D*%
%TO.N,D2*%
X34400500Y-50292000D03*
%TD*%
D23*
%TO.P,C3,1*%
%TO.N,+5V*%
X57150000Y-65664000D03*
%TO.P,C3,2*%
%TO.N,GND*%
X57150000Y-67564000D03*
%TD*%
D24*
%TO.P,D1,1,K*%
%TO.N,Net-(D1-K)*%
X17272000Y-60166000D03*
%TO.P,D1,2,A*%
%TO.N,+5V*%
X17272000Y-56166000D03*
%TD*%
D25*
%TO.P,RN10,1,R1.1*%
%TO.N,+3V3*%
X56266000Y-51492000D03*
D26*
%TO.P,RN10,2,R2.1*%
X56266000Y-50692000D03*
%TO.P,RN10,3,R3.1*%
X56266000Y-49892000D03*
D25*
%TO.P,RN10,4,R4.1*%
X56266000Y-49092000D03*
%TO.P,RN10,5,R4.2*%
%TO.N,LD7*%
X58066000Y-49092000D03*
D26*
%TO.P,RN10,6,R3.2*%
%TO.N,LD6*%
X58066000Y-49892000D03*
%TO.P,RN10,7,R2.2*%
%TO.N,LD5*%
X58066000Y-50692000D03*
D25*
%TO.P,RN10,8,R1.2*%
%TO.N,LD4*%
X58066000Y-51492000D03*
%TD*%
D20*
%TO.P,Q18,1,G*%
%TO.N,+3V3*%
X63469700Y-40574000D03*
%TO.P,Q18,2,S*%
%TO.N,~{LOE}*%
X63469700Y-38674000D03*
%TO.P,Q18,3,D*%
%TO.N,~{OE}*%
X65344700Y-39624000D03*
%TD*%
D25*
%TO.P,RN9,1,R1.1*%
%TO.N,D0*%
X39802500Y-51492000D03*
D26*
%TO.P,RN9,2,R2.1*%
%TO.N,D1*%
X39802500Y-50692000D03*
%TO.P,RN9,3,R3.1*%
%TO.N,D2*%
X39802500Y-49892000D03*
D25*
%TO.P,RN9,4,R4.1*%
%TO.N,D3*%
X39802500Y-49092000D03*
%TO.P,RN9,5,R4.2*%
%TO.N,+5V*%
X41602500Y-49092000D03*
D26*
%TO.P,RN9,6,R3.2*%
X41602500Y-49892000D03*
%TO.P,RN9,7,R2.2*%
X41602500Y-50692000D03*
D25*
%TO.P,RN9,8,R1.2*%
X41602500Y-51492000D03*
%TD*%
D20*
%TO.P,Q2,1,G*%
%TO.N,+3V3*%
X68658500Y-82738000D03*
%TO.P,Q2,2,S*%
%TO.N,LP1*%
X68658500Y-80838000D03*
%TO.P,Q2,3,D*%
%TO.N,P1*%
X70533500Y-81788000D03*
%TD*%
D19*
%TO.P,Q14,1,G*%
%TO.N,+3V3*%
X30541000Y-49342000D03*
%TO.P,Q14,2,S*%
%TO.N,LD1*%
X30541000Y-51242000D03*
%TO.P,Q14,3,D*%
%TO.N,D1*%
X28666000Y-50292000D03*
%TD*%
%TO.P,Q19,1,G*%
%TO.N,+3V3*%
X52739000Y-49342000D03*
%TO.P,Q19,2,S*%
%TO.N,LD4*%
X52739000Y-51242000D03*
%TO.P,Q19,3,D*%
%TO.N,D4*%
X50864000Y-50292000D03*
%TD*%
D20*
%TO.P,Q1,1,G*%
%TO.N,+3V3*%
X73145800Y-82738000D03*
%TO.P,Q1,2,S*%
%TO.N,LP0*%
X73145800Y-80838000D03*
%TO.P,Q1,3,D*%
%TO.N,P0*%
X75020800Y-81788000D03*
%TD*%
D21*
%TO.P,RN2,1,R1.1*%
%TO.N,~{LROE}*%
X28191500Y-43804000D03*
D22*
%TO.P,RN2,2,R2.1*%
%TO.N,~{ROE}*%
X28991500Y-43804000D03*
%TO.P,RN2,3,R3.1*%
%TO.N,LALS*%
X29791500Y-43804000D03*
D21*
%TO.P,RN2,4,R4.1*%
%TO.N,ALS*%
X30591500Y-43804000D03*
%TO.P,RN2,5,R4.2*%
%TO.N,+5V*%
X30591500Y-45604000D03*
D22*
%TO.P,RN2,6,R3.2*%
%TO.N,+3V3*%
X29791500Y-45604000D03*
%TO.P,RN2,7,R2.2*%
%TO.N,+5V*%
X28991500Y-45604000D03*
D21*
%TO.P,RN2,8,R1.2*%
%TO.N,+3V3*%
X28191500Y-45604000D03*
%TD*%
%TO.P,RN1,1,R1.1*%
%TO.N,LP0*%
X68510000Y-88276000D03*
D22*
%TO.P,RN1,2,R2.1*%
%TO.N,LP1*%
X67710000Y-88276000D03*
%TO.P,RN1,3,R3.1*%
%TO.N,LP2*%
X66910000Y-88276000D03*
D21*
%TO.P,RN1,4,R4.1*%
%TO.N,LP3*%
X66110000Y-88276000D03*
%TO.P,RN1,5,R4.2*%
%TO.N,+3V3*%
X66110000Y-86476000D03*
D22*
%TO.P,RN1,6,R3.2*%
X66910000Y-86476000D03*
%TO.P,RN1,7,R2.2*%
X67710000Y-86476000D03*
D21*
%TO.P,RN1,8,R1.2*%
X68510000Y-86476000D03*
%TD*%
D20*
%TO.P,Q9,1,G*%
%TO.N,+3V3*%
X21414500Y-79690000D03*
%TO.P,Q9,2,S*%
%TO.N,LP6*%
X21414500Y-77790000D03*
%TO.P,Q9,3,D*%
%TO.N,P6*%
X23289500Y-78740000D03*
%TD*%
D27*
%TO.P,U4,1,OE*%
%TO.N,~{ROE}*%
X75006200Y-71198000D03*
%TO.P,U4,2,D0*%
%TO.N,P0*%
X73736200Y-71198000D03*
%TO.P,U4,3,D1*%
%TO.N,P1*%
X72466200Y-71198000D03*
%TO.P,U4,4,D2*%
%TO.N,P2*%
X71196200Y-71198000D03*
%TO.P,U4,5,D3*%
%TO.N,P3*%
X69926200Y-71198000D03*
%TO.P,U4,6,D4*%
%TO.N,P4*%
X68656200Y-71198000D03*
%TO.P,U4,7,D5*%
%TO.N,P5*%
X67386200Y-71198000D03*
%TO.P,U4,8,D6*%
%TO.N,P6*%
X66116200Y-71198000D03*
%TO.P,U4,9,D7*%
%TO.N,P7*%
X64846200Y-71198000D03*
%TO.P,U4,10,GND*%
%TO.N,GND*%
X63576200Y-71198000D03*
%TO.P,U4,11,Load*%
%TO.N,AUS*%
X63576200Y-61898000D03*
%TO.P,U4,12,Q7*%
%TO.N,unconnected-(U4-Q7-Pad12)*%
X64846200Y-61898000D03*
%TO.P,U4,13,Q6*%
%TO.N,unconnected-(U4-Q6-Pad13)*%
X66116200Y-61898000D03*
%TO.P,U4,14,Q5*%
%TO.N,unconnected-(U4-Q5-Pad14)*%
X67386200Y-61898000D03*
%TO.P,U4,15,Q4*%
%TO.N,unconnected-(U4-Q4-Pad15)*%
X68656200Y-61898000D03*
%TO.P,U4,16,Q3*%
%TO.N,unconnected-(U4-Q3-Pad16)*%
X69926200Y-61898000D03*
%TO.P,U4,17,Q2*%
%TO.N,A18*%
X71196200Y-61898000D03*
%TO.P,U4,18,Q1*%
%TO.N,A17*%
X72466200Y-61898000D03*
%TO.P,U4,19,Q0*%
%TO.N,A16*%
X73736200Y-61898000D03*
%TO.P,U4,20,VCC*%
%TO.N,+5V*%
X75006200Y-61898000D03*
%TD*%
D19*
%TO.P,Q22,1,G*%
%TO.N,+3V3*%
X79931500Y-49342000D03*
%TO.P,Q22,2,S*%
%TO.N,LD7*%
X79931500Y-51242000D03*
%TO.P,Q22,3,D*%
%TO.N,D7*%
X78056500Y-50292000D03*
%TD*%
D20*
%TO.P,Q23,1,G*%
%TO.N,+3V3*%
X71452500Y-40574000D03*
%TO.P,Q23,2,S*%
%TO.N,LAUS*%
X71452500Y-38674000D03*
%TO.P,Q23,3,D*%
%TO.N,AUS*%
X73327500Y-39624000D03*
%TD*%
D28*
%TO.P,C1,1*%
%TO.N,+5V*%
X22352000Y-59012500D03*
%TO.P,C1,2*%
%TO.N,GND*%
X22352000Y-57112500D03*
%TD*%
D25*
%TO.P,RN7,1,R1.1*%
%TO.N,+3V3*%
X23339000Y-51492000D03*
D26*
%TO.P,RN7,2,R2.1*%
X23339000Y-50692000D03*
%TO.P,RN7,3,R3.1*%
X23339000Y-49892000D03*
D25*
%TO.P,RN7,4,R4.1*%
X23339000Y-49092000D03*
%TO.P,RN7,5,R4.2*%
%TO.N,LD3*%
X25139000Y-49092000D03*
D26*
%TO.P,RN7,6,R3.2*%
%TO.N,LD2*%
X25139000Y-49892000D03*
%TO.P,RN7,7,R2.2*%
%TO.N,LD1*%
X25139000Y-50692000D03*
D25*
%TO.P,RN7,8,R1.2*%
%TO.N,LD0*%
X25139000Y-51492000D03*
%TD*%
D27*
%TO.P,U3,1,OE*%
%TO.N,~{ROE}*%
X32131000Y-71198000D03*
%TO.P,U3,2,D0*%
%TO.N,P0*%
X30861000Y-71198000D03*
%TO.P,U3,3,D1*%
%TO.N,P1*%
X29591000Y-71198000D03*
%TO.P,U3,4,D2*%
%TO.N,P2*%
X28321000Y-71198000D03*
%TO.P,U3,5,D3*%
%TO.N,P3*%
X27051000Y-71198000D03*
%TO.P,U3,6,D4*%
%TO.N,P4*%
X25781000Y-71198000D03*
%TO.P,U3,7,D5*%
%TO.N,P5*%
X24511000Y-71198000D03*
%TO.P,U3,8,D6*%
%TO.N,P6*%
X23241000Y-71198000D03*
%TO.P,U3,9,D7*%
%TO.N,P7*%
X21971000Y-71198000D03*
%TO.P,U3,10,GND*%
%TO.N,GND*%
X20701000Y-71198000D03*
%TO.P,U3,11,Load*%
%TO.N,AHS*%
X20701000Y-61898000D03*
%TO.P,U3,12,Q7*%
%TO.N,A15*%
X21971000Y-61898000D03*
%TO.P,U3,13,Q6*%
%TO.N,A14*%
X23241000Y-61898000D03*
%TO.P,U3,14,Q5*%
%TO.N,A13*%
X24511000Y-61898000D03*
%TO.P,U3,15,Q4*%
%TO.N,A12*%
X25781000Y-61898000D03*
%TO.P,U3,16,Q3*%
%TO.N,A11*%
X27051000Y-61898000D03*
%TO.P,U3,17,Q2*%
%TO.N,A10*%
X28321000Y-61898000D03*
%TO.P,U3,18,Q1*%
%TO.N,A9*%
X29591000Y-61898000D03*
%TO.P,U3,19,Q0*%
%TO.N,A8*%
X30861000Y-61898000D03*
%TO.P,U3,20,VCC*%
%TO.N,+5V*%
X32131000Y-61898000D03*
%TD*%
D23*
%TO.P,C2,1*%
%TO.N,+5V*%
X36068000Y-65532000D03*
%TO.P,C2,2*%
%TO.N,GND*%
X36068000Y-67432000D03*
%TD*%
D20*
%TO.P,Q10,1,G*%
%TO.N,+3V3*%
X16588500Y-79690000D03*
%TO.P,Q10,2,S*%
%TO.N,LP7*%
X16588500Y-77790000D03*
%TO.P,Q10,3,D*%
%TO.N,P7*%
X18463500Y-78740000D03*
%TD*%
%TO.P,Q24,1,G*%
%TO.N,+3V3*%
X79435400Y-40574000D03*
%TO.P,Q24,2,S*%
%TO.N,unconnected-(Q24-S-Pad2)*%
X79435400Y-38674000D03*
%TO.P,Q24,3,D*%
%TO.N,unconnected-(Q24-D-Pad3)*%
X81310400Y-39624000D03*
%TD*%
%TO.P,Q17,1,G*%
%TO.N,+3V3*%
X55486800Y-40574000D03*
%TO.P,Q17,2,S*%
%TO.N,~{LCE}*%
X55486800Y-38674000D03*
%TO.P,Q17,3,D*%
%TO.N,~{CE}*%
X57361800Y-39624000D03*
%TD*%
D19*
%TO.P,Q13,1,G*%
%TO.N,+3V3*%
X19812000Y-49342000D03*
%TO.P,Q13,2,S*%
%TO.N,LD0*%
X19812000Y-51242000D03*
%TO.P,Q13,3,D*%
%TO.N,D0*%
X17937000Y-50292000D03*
%TD*%
D21*
%TO.P,RN8,1,R1.1*%
%TO.N,~{LCE}*%
X58671500Y-43804000D03*
D22*
%TO.P,RN8,2,R2.1*%
%TO.N,~{CE}*%
X59471500Y-43804000D03*
%TO.P,RN8,3,R3.1*%
%TO.N,~{LOE}*%
X60271500Y-43804000D03*
D21*
%TO.P,RN8,4,R4.1*%
%TO.N,~{OE}*%
X61071500Y-43804000D03*
%TO.P,RN8,5,R4.2*%
%TO.N,+5V*%
X61071500Y-45604000D03*
D22*
%TO.P,RN8,6,R3.2*%
%TO.N,+3V3*%
X60271500Y-45604000D03*
%TO.P,RN8,7,R2.2*%
%TO.N,+5V*%
X59471500Y-45604000D03*
D21*
%TO.P,RN8,8,R1.2*%
%TO.N,+3V3*%
X58671500Y-45604000D03*
%TD*%
D20*
%TO.P,Q3,1,G*%
%TO.N,+3V3*%
X64171200Y-82738000D03*
%TO.P,Q3,2,S*%
%TO.N,LP2*%
X64171200Y-80838000D03*
%TO.P,Q3,3,D*%
%TO.N,P2*%
X66046200Y-81788000D03*
%TD*%
%TO.P,Q11,1,G*%
%TO.N,+3V3*%
X39521100Y-40574000D03*
%TO.P,Q11,2,S*%
%TO.N,LAHS*%
X39521100Y-38674000D03*
%TO.P,Q11,3,D*%
%TO.N,AHS*%
X41396100Y-39624000D03*
%TD*%
D19*
%TO.P,Q16,1,G*%
%TO.N,+3V3*%
X47004500Y-49342000D03*
%TO.P,Q16,2,S*%
%TO.N,LD3*%
X47004500Y-51242000D03*
%TO.P,Q16,3,D*%
%TO.N,D3*%
X45129500Y-50292000D03*
%TD*%
D25*
%TO.P,RN12,1,R1.1*%
%TO.N,D4*%
X72729500Y-51492000D03*
D26*
%TO.P,RN12,2,R2.1*%
%TO.N,D5*%
X72729500Y-50692000D03*
%TO.P,RN12,3,R3.1*%
%TO.N,D6*%
X72729500Y-49892000D03*
D25*
%TO.P,RN12,4,R4.1*%
%TO.N,D7*%
X72729500Y-49092000D03*
%TO.P,RN12,5,R4.2*%
%TO.N,+5V*%
X74529500Y-49092000D03*
D26*
%TO.P,RN12,6,R3.2*%
X74529500Y-49892000D03*
%TO.P,RN12,7,R2.2*%
X74529500Y-50692000D03*
D25*
%TO.P,RN12,8,R1.2*%
X74529500Y-51492000D03*
%TD*%
D20*
%TO.P,Q7,1,G*%
%TO.N,+3V3*%
X30558500Y-79690000D03*
%TO.P,Q7,2,S*%
%TO.N,LP4*%
X30558500Y-77790000D03*
%TO.P,Q7,3,D*%
%TO.N,P4*%
X32433500Y-78740000D03*
%TD*%
D27*
%TO.P,U1,1,OE*%
%TO.N,~{ROE}*%
X53568600Y-71198000D03*
%TO.P,U1,2,D0*%
%TO.N,P0*%
X52298600Y-71198000D03*
%TO.P,U1,3,D1*%
%TO.N,P1*%
X51028600Y-71198000D03*
%TO.P,U1,4,D2*%
%TO.N,P2*%
X49758600Y-71198000D03*
%TO.P,U1,5,D3*%
%TO.N,P3*%
X48488600Y-71198000D03*
%TO.P,U1,6,D4*%
%TO.N,P4*%
X47218600Y-71198000D03*
%TO.P,U1,7,D5*%
%TO.N,P5*%
X45948600Y-71198000D03*
%TO.P,U1,8,D6*%
%TO.N,P6*%
X44678600Y-71198000D03*
%TO.P,U1,9,D7*%
%TO.N,P7*%
X43408600Y-71198000D03*
%TO.P,U1,10,GND*%
%TO.N,GND*%
X42138600Y-71198000D03*
%TO.P,U1,11,Load*%
%TO.N,ALS*%
X42138600Y-61898000D03*
%TO.P,U1,12,Q7*%
%TO.N,A7*%
X43408600Y-61898000D03*
%TO.P,U1,13,Q6*%
%TO.N,A6*%
X44678600Y-61898000D03*
%TO.P,U1,14,Q5*%
%TO.N,A5*%
X45948600Y-61898000D03*
%TO.P,U1,15,Q4*%
%TO.N,A4*%
X47218600Y-61898000D03*
%TO.P,U1,16,Q3*%
%TO.N,A3*%
X48488600Y-61898000D03*
%TO.P,U1,17,Q2*%
%TO.N,A2*%
X49758600Y-61898000D03*
%TO.P,U1,18,Q1*%
%TO.N,A1*%
X51028600Y-61898000D03*
%TO.P,U1,19,Q0*%
%TO.N,A0*%
X52298600Y-61898000D03*
%TO.P,U1,20,VCC*%
%TO.N,+5V*%
X53568600Y-61898000D03*
%TD*%
D21*
%TO.P,RN11,1,R1.1*%
%TO.N,LAUS*%
X73911500Y-43804000D03*
D22*
%TO.P,RN11,2,R2.1*%
%TO.N,AUS*%
X74711500Y-43804000D03*
%TO.P,RN11,3,R3.1*%
%TO.N,unconnected-(Q24-S-Pad2)*%
X75511500Y-43804000D03*
D21*
%TO.P,RN11,4,R4.1*%
%TO.N,unconnected-(Q24-D-Pad3)*%
X76311500Y-43804000D03*
%TO.P,RN11,5,R4.2*%
%TO.N,+5V*%
X76311500Y-45604000D03*
D22*
%TO.P,RN11,6,R3.2*%
%TO.N,+3V3*%
X75511500Y-45604000D03*
%TO.P,RN11,7,R2.2*%
%TO.N,+5V*%
X74711500Y-45604000D03*
D21*
%TO.P,RN11,8,R1.2*%
%TO.N,+3V3*%
X73911500Y-45604000D03*
%TD*%
%TO.P,RN4,1,R1.1*%
%TO.N,LP4*%
X38138000Y-79524000D03*
D22*
%TO.P,RN4,2,R2.1*%
%TO.N,LP5*%
X37338000Y-79524000D03*
%TO.P,RN4,3,R3.1*%
%TO.N,LP6*%
X36538000Y-79524000D03*
D21*
%TO.P,RN4,4,R4.1*%
%TO.N,LP7*%
X35738000Y-79524000D03*
%TO.P,RN4,5,R4.2*%
%TO.N,+3V3*%
X35738000Y-77724000D03*
D22*
%TO.P,RN4,6,R3.2*%
X36538000Y-77724000D03*
%TO.P,RN4,7,R2.2*%
X37338000Y-77724000D03*
D21*
%TO.P,RN4,8,R1.2*%
X38138000Y-77724000D03*
%TD*%
D19*
%TO.P,Q20,1,G*%
%TO.N,+3V3*%
X63468000Y-49342000D03*
%TO.P,Q20,2,S*%
%TO.N,LD5*%
X63468000Y-51242000D03*
%TO.P,Q20,3,D*%
%TO.N,D5*%
X61593000Y-50292000D03*
%TD*%
D21*
%TO.P,RN3,1,R1.1*%
%TO.N,+5V*%
X77254000Y-76708000D03*
D22*
%TO.P,RN3,2,R2.1*%
X76454000Y-76708000D03*
%TO.P,RN3,3,R3.1*%
X75654000Y-76708000D03*
D21*
%TO.P,RN3,4,R4.1*%
X74854000Y-76708000D03*
%TO.P,RN3,5,R4.2*%
%TO.N,P3*%
X74854000Y-74908000D03*
D22*
%TO.P,RN3,6,R3.2*%
%TO.N,P2*%
X75654000Y-74908000D03*
%TO.P,RN3,7,R2.2*%
%TO.N,P1*%
X76454000Y-74908000D03*
D21*
%TO.P,RN3,8,R1.2*%
%TO.N,P0*%
X77254000Y-74908000D03*
%TD*%
D20*
%TO.P,Q8,1,G*%
%TO.N,+3V3*%
X25986500Y-79690000D03*
%TO.P,Q8,2,S*%
%TO.N,LP5*%
X25986500Y-77790000D03*
%TO.P,Q8,3,D*%
%TO.N,P5*%
X27861500Y-78740000D03*
%TD*%
D29*
%TO.N,GND*%
X48006000Y-78994000D03*
X44323000Y-84709000D03*
%TO.N,Net-(D3-K)*%
X52959000Y-80354000D03*
%TO.N,+3V3*%
X82696300Y-45572500D03*
%TO.N,P0*%
X52985900Y-66837400D03*
X52701600Y-72852600D03*
X74206900Y-80098100D03*
X77154900Y-73839000D03*
X31728900Y-72871200D03*
%TO.N,LP1*%
X80826200Y-64770000D03*
%TO.N,P1*%
X33844600Y-71111000D03*
X64303400Y-68573200D03*
X54551500Y-70099800D03*
%TO.N,LP2*%
X65163000Y-80025300D03*
%TO.N,P2*%
X34845000Y-71045100D03*
X50310600Y-72740700D03*
%TO.N,LP3*%
X65581700Y-84053800D03*
%TO.N,~{ROE}*%
X54958300Y-76019200D03*
X32309100Y-75754700D03*
X75921500Y-71504700D03*
X61418800Y-77749100D03*
X28548000Y-42347900D03*
%TO.N,LALS*%
X29791500Y-40615700D03*
%TO.N,ALS*%
X30845300Y-42798300D03*
X40811100Y-61813300D03*
%TO.N,LP4*%
X57055900Y-84494300D03*
%TO.N,LP5*%
X56400400Y-85253600D03*
X26362600Y-78697900D03*
X37269700Y-80553400D03*
%TO.N,P5*%
X45866800Y-69543500D03*
X65216500Y-69191700D03*
X36295700Y-70834700D03*
%TO.N,LP6*%
X55730300Y-85998200D03*
%TO.N,P6*%
X24455000Y-77574500D03*
X42354100Y-75842600D03*
%TO.N,LP7*%
X17965000Y-77631600D03*
X34623000Y-80054400D03*
%TO.N,P7*%
X37736600Y-69366200D03*
X43669700Y-69366200D03*
%TO.N,AHS*%
X18798000Y-60630100D03*
X40881300Y-38552400D03*
%TO.N,~{PGM}*%
X45831500Y-42701900D03*
%TO.N,LD0*%
X27991200Y-51916000D03*
%TO.N,D0*%
X41972700Y-56661000D03*
%TO.N,LD1*%
X31776000Y-51815600D03*
%TO.N,D1*%
X41371000Y-54914400D03*
%TO.N,LD2*%
X38013700Y-50521800D03*
%TO.N,D2*%
X36935400Y-50292000D03*
%TO.N,LD3*%
X47409800Y-48173900D03*
%TO.N,D3*%
X46810800Y-53414800D03*
%TO.N,~{LCE}*%
X57747100Y-46648300D03*
%TO.N,~{LOE}*%
X62820100Y-41940000D03*
X88986300Y-43128700D03*
%TO.N,~{OE}*%
X61734700Y-42947000D03*
%TO.N,LD4*%
X61643300Y-48675100D03*
%TO.N,D4*%
X54469600Y-54590500D03*
%TO.N,LD5*%
X64810000Y-51243500D03*
%TO.N,D5*%
X57665500Y-57246100D03*
%TO.N,LD6*%
X69213500Y-52144800D03*
%TO.N,LD7*%
X59884800Y-48999600D03*
%TO.N,GND*%
X77138200Y-67747500D03*
%TO.N,A2*%
X48535600Y-66832100D03*
%TO.N,A1*%
X51182400Y-66814000D03*
%TO.N,A0*%
X52171000Y-66064300D03*
%TO.N,A18*%
X59702900Y-63327200D03*
%TO.N,A16*%
X55316500Y-64076200D03*
%TO.N,A15*%
X24935700Y-66654800D03*
%TO.N,A12*%
X25206300Y-63417500D03*
%TO.N,A10*%
X29545700Y-63588300D03*
%TO.N,A11*%
X28197000Y-63532300D03*
%TO.N,A17*%
X55076600Y-61211700D03*
%TO.N,+5V*%
X67622600Y-57788800D03*
X59276900Y-47098600D03*
X67872300Y-65814700D03*
X66575300Y-76293900D03*
X81957100Y-40734600D03*
%TD*%
D30*
%TO.N,GND*%
X48386600Y-79374600D02*
X48006000Y-78994000D01*
X54863600Y-79374600D02*
X48386600Y-79374600D01*
X56515000Y-81026000D02*
X54863600Y-79374600D01*
X56515000Y-81026000D02*
X56515000Y-80897252D01*
%TO.N,P3*%
X61558800Y-79338800D02*
X61558800Y-81788000D01*
X61144600Y-78924600D02*
X61558800Y-79338800D01*
X51103900Y-78924600D02*
X61144600Y-78924600D01*
X49741100Y-77562400D02*
X51103600Y-78924900D01*
X51103600Y-78924900D02*
X51103900Y-78924600D01*
%TO.N,GND*%
X43196000Y-84709000D02*
X42672000Y-85233000D01*
X44323000Y-84709000D02*
X43196000Y-84709000D01*
%TO.N,Net-(D2-K)*%
X34793000Y-86228000D02*
X34793000Y-85090000D01*
X35798000Y-87233000D02*
X34793000Y-86228000D01*
X42672000Y-87233000D02*
X35798000Y-87233000D01*
%TO.N,GND*%
X56515000Y-81026000D02*
X56515000Y-80896195D01*
%TO.N,Net-(D3-K)*%
X52959000Y-80354000D02*
X53843000Y-80354000D01*
X53843000Y-80354000D02*
X54515000Y-81026000D01*
%TO.N,+3V3*%
X38138000Y-77724000D02*
X37338000Y-77724000D01*
X22493500Y-77448800D02*
X22159100Y-77114400D01*
X61570200Y-44878700D02*
X66408200Y-40040700D01*
X22976400Y-50692000D02*
X22613700Y-51054700D01*
X73911500Y-45604000D02*
X73911500Y-44878700D01*
X66408200Y-39245900D02*
X66143300Y-38981000D01*
X35038000Y-78086600D02*
X35738000Y-78086600D01*
X24505300Y-82286300D02*
X24505300Y-84213800D01*
X45890200Y-44878700D02*
X45031500Y-44878700D01*
X60358400Y-82063400D02*
X59683800Y-82738000D01*
X32630500Y-38994200D02*
X34275900Y-38994200D01*
X72960800Y-82923000D02*
X73145800Y-82738000D01*
X70919200Y-40040700D02*
X66408200Y-40040700D01*
X68510000Y-86476000D02*
X67710000Y-86476000D01*
X66335100Y-85525600D02*
X66110000Y-85750700D01*
X60271500Y-45604000D02*
X60271500Y-44878700D01*
X66110000Y-86476000D02*
X66110000Y-85750700D01*
X29791500Y-45604000D02*
X29791500Y-44878700D01*
X66910000Y-86838600D02*
X66472600Y-86838600D01*
X23339000Y-49092000D02*
X24064300Y-49092000D01*
X58671500Y-44878700D02*
X58617800Y-44878700D01*
X15045200Y-78323700D02*
X15045200Y-51754000D01*
X20676300Y-77114400D02*
X19849700Y-77941000D01*
X26266100Y-46799500D02*
X26266100Y-43284700D01*
X21414500Y-79690000D02*
X22196500Y-79690000D01*
X23339000Y-49092000D02*
X22613700Y-49092000D01*
X64171200Y-82738000D02*
X64371600Y-82938400D01*
X56266000Y-49092000D02*
X57984400Y-47373600D01*
X17457200Y-49342000D02*
X19812000Y-49342000D01*
X60271500Y-44878700D02*
X58671500Y-44878700D01*
X48547600Y-51122000D02*
X47754300Y-51915300D01*
X43396100Y-44884800D02*
X43431500Y-44884800D01*
X24505300Y-84213800D02*
X21112300Y-84213800D01*
X55540700Y-49787600D02*
X55540700Y-49342000D01*
X25381500Y-85090000D02*
X25432000Y-85090000D01*
X82132400Y-38959600D02*
X82696300Y-39523500D01*
X34957600Y-40574000D02*
X30652900Y-44878700D01*
X58671500Y-45604000D02*
X58671500Y-46329300D01*
X55540700Y-49342000D02*
X55540700Y-49092000D01*
X73911500Y-44878700D02*
X75511500Y-44878700D01*
X64575200Y-38981000D02*
X64575200Y-38282800D01*
X58671500Y-45241300D02*
X58671500Y-45604000D01*
X51261100Y-40574000D02*
X47503900Y-40574000D01*
X23339000Y-51492000D02*
X22613700Y-51492000D01*
X45907000Y-50927000D02*
X47004500Y-49829500D01*
X58617800Y-44878700D02*
X55486800Y-41747700D01*
X36538000Y-78086600D02*
X35738000Y-78086600D01*
X66408200Y-40040700D02*
X66408200Y-39245900D01*
X24064300Y-49001300D02*
X24064300Y-49092000D01*
X26524900Y-83997100D02*
X28885700Y-83997100D01*
X22196500Y-79690000D02*
X22196500Y-78418600D01*
X43431500Y-45604000D02*
X43431500Y-44884800D01*
X19849700Y-77941000D02*
X19849700Y-80226800D01*
X36538000Y-77724000D02*
X36538000Y-77905300D01*
X69202500Y-49342000D02*
X63468000Y-49342000D01*
X21112300Y-84213800D02*
X16588500Y-79690000D01*
X29791500Y-44878700D02*
X28191500Y-44878700D01*
X31538200Y-40086500D02*
X32630500Y-38994200D01*
X80560400Y-38959600D02*
X82132400Y-38959600D01*
X34275900Y-38994200D02*
X34957600Y-39675900D01*
X22196500Y-78418600D02*
X22493500Y-78121600D01*
X23339000Y-49892000D02*
X22976400Y-49892000D01*
X28191500Y-45604000D02*
X28191500Y-46329300D01*
X58671500Y-46329300D02*
X58472400Y-46528400D01*
X71452500Y-42491700D02*
X73839500Y-44878700D01*
X47503900Y-40574000D02*
X47503900Y-43265000D01*
X54251900Y-37583200D02*
X51261100Y-40574000D01*
X39521100Y-41009800D02*
X43396100Y-44884800D01*
X55903400Y-49892000D02*
X55645100Y-49892000D01*
X66335100Y-83605400D02*
X66335100Y-85525600D01*
X22976400Y-49892000D02*
X22976400Y-50692000D01*
X28191500Y-46799500D02*
X47066700Y-46799500D01*
X34957600Y-39675900D02*
X34957600Y-40574000D01*
X24505300Y-84213800D02*
X25381500Y-85090000D01*
X26266100Y-43284700D02*
X23555400Y-40574000D01*
X57984400Y-47373600D02*
X58330000Y-47373600D01*
X61949900Y-47823900D02*
X63468000Y-49342000D01*
X35738000Y-77724000D02*
X35738000Y-78086600D01*
X47754300Y-51915300D02*
X46239300Y-51915300D01*
X22613700Y-49092000D02*
X22613700Y-49342000D01*
X15045200Y-51754000D02*
X17457200Y-49342000D01*
X36945900Y-78449300D02*
X37338000Y-78449300D01*
X79435400Y-40574000D02*
X79435400Y-40084600D01*
X73839500Y-44878700D02*
X73911500Y-44878700D01*
X56266000Y-50692000D02*
X55903400Y-50692000D01*
X70529400Y-48015100D02*
X79931500Y-48015100D01*
X63875600Y-37583200D02*
X54251900Y-37583200D01*
X61033000Y-82738000D02*
X64171200Y-82738000D01*
X47004500Y-49342000D02*
X45695200Y-48032700D01*
X66910000Y-86476000D02*
X66910000Y-86838600D01*
X79931500Y-48015100D02*
X79931500Y-49342000D01*
X56266000Y-49892000D02*
X55903400Y-49892000D01*
X45907000Y-51583000D02*
X45907000Y-50927000D01*
X45695200Y-48032700D02*
X37584800Y-48032700D01*
X79435400Y-40084600D02*
X80560400Y-38959600D01*
X28191500Y-46799500D02*
X28191500Y-46329300D01*
X65668100Y-82938400D02*
X66335100Y-83605400D01*
X22613700Y-49529300D02*
X22976400Y-49892000D01*
X60781300Y-80497000D02*
X60781300Y-81153000D01*
X56266000Y-49092000D02*
X55540700Y-49092000D01*
X63469700Y-40086500D02*
X63469700Y-40574000D01*
X64575200Y-38981000D02*
X63469700Y-40086500D01*
X66910000Y-86838600D02*
X66910000Y-87201300D01*
X66472600Y-86838600D02*
X66110000Y-86476000D01*
X58472400Y-46528400D02*
X58472400Y-47231200D01*
X25432000Y-85090000D02*
X26524900Y-83997100D01*
X60358400Y-82063400D02*
X61033000Y-82738000D01*
X56054200Y-86751000D02*
X57835900Y-84969300D01*
X68658500Y-82738000D02*
X68843500Y-82923000D01*
X55645100Y-49892000D02*
X55540700Y-49787600D01*
X47503900Y-43265000D02*
X45890200Y-44878700D01*
X57835900Y-81270300D02*
X58938100Y-80168100D01*
X22159100Y-77114400D02*
X20676300Y-77114400D01*
X36538000Y-77905300D02*
X36538000Y-78086600D01*
X55540700Y-49342000D02*
X52739000Y-49342000D01*
X60271500Y-44878700D02*
X61570200Y-44878700D01*
X34957600Y-40574000D02*
X39521100Y-40574000D01*
X58976500Y-47823900D02*
X61949900Y-47823900D01*
X22493500Y-78121600D02*
X22493500Y-77448800D01*
X82696300Y-39523500D02*
X82696300Y-45572500D01*
X68843500Y-82923000D02*
X72960800Y-82923000D01*
X71452500Y-40574000D02*
X70919200Y-40040700D01*
X67710000Y-86476000D02*
X67710000Y-87201300D01*
X80253700Y-48015100D02*
X79931500Y-48015100D01*
X55486800Y-41747700D02*
X55486800Y-40574000D01*
X54814600Y-86751000D02*
X56054200Y-86751000D01*
X45031500Y-45604000D02*
X45031500Y-44878700D01*
X47066700Y-46799500D02*
X48547600Y-48280400D01*
X36538000Y-77905300D02*
X36538000Y-78041400D01*
X33434600Y-79690000D02*
X35038000Y-78086600D01*
X20907100Y-81284200D02*
X23503200Y-81284200D01*
X66335100Y-83605400D02*
X67791100Y-83605400D01*
X60781300Y-81153000D02*
X60358400Y-81575900D01*
X58671500Y-45241300D02*
X58671500Y-44878700D01*
X55903400Y-50692000D02*
X55540700Y-51054700D01*
X37338000Y-77724000D02*
X37338000Y-78449300D01*
X43431500Y-44884800D02*
X43437600Y-44878700D01*
X47004500Y-49829500D02*
X47004500Y-49342000D01*
X66143300Y-38981000D02*
X64575200Y-38981000D01*
X30541000Y-49342000D02*
X36275500Y-49342000D01*
X28885700Y-83997100D02*
X29070800Y-84182200D01*
X23503200Y-81284200D02*
X24505300Y-82286300D01*
X82696300Y-45572500D02*
X80253700Y-48015100D01*
X48547600Y-48280400D02*
X48547600Y-51122000D01*
X30652900Y-44878700D02*
X29791500Y-44878700D01*
X23339000Y-50692000D02*
X22976400Y-50692000D01*
X22613700Y-51054700D02*
X22613700Y-51492000D01*
X55903400Y-49892000D02*
X55903400Y-50692000D01*
X28191500Y-46799500D02*
X26266100Y-46799500D01*
X75511500Y-45604000D02*
X75511500Y-44878700D01*
X31020600Y-83835400D02*
X51899000Y-83835400D01*
X67791100Y-83605400D02*
X68658500Y-82738000D01*
X25986500Y-79690000D02*
X30558500Y-79690000D01*
X39521100Y-40574000D02*
X39521100Y-41009800D01*
X60452400Y-80168100D02*
X60781300Y-80497000D01*
X51899000Y-83835400D02*
X54814600Y-86751000D01*
X19849700Y-80226800D02*
X20907100Y-81284200D01*
X69202500Y-49342000D02*
X70529400Y-48015100D01*
X71452500Y-40574000D02*
X71452500Y-42491700D01*
X64575200Y-38282800D02*
X63875600Y-37583200D01*
X60358400Y-81575900D02*
X60358400Y-82063400D01*
X58938100Y-80168100D02*
X60452400Y-80168100D01*
X28191500Y-45604000D02*
X28191500Y-44878700D01*
X16411500Y-79690000D02*
X15045200Y-78323700D01*
X30558500Y-79690000D02*
X33434600Y-79690000D01*
X30673800Y-84182200D02*
X31020600Y-83835400D01*
X58330000Y-47373600D02*
X58428100Y-47275500D01*
X56266000Y-51492000D02*
X55540700Y-51492000D01*
X36538000Y-78041400D02*
X36945900Y-78449300D01*
X64371600Y-82938400D02*
X65668100Y-82938400D01*
X19812000Y-49342000D02*
X22613700Y-49342000D01*
X58428100Y-47275500D02*
X58976500Y-47823900D01*
X22196500Y-79690000D02*
X25986500Y-79690000D01*
X57835900Y-84969300D02*
X57835900Y-81270300D01*
X43437600Y-44878700D02*
X45031500Y-44878700D01*
X26266100Y-46799500D02*
X24064300Y-49001300D01*
X55540700Y-51054700D02*
X55540700Y-51492000D01*
X67710000Y-87201300D02*
X66910000Y-87201300D01*
X58472400Y-47231200D02*
X58428100Y-47275500D01*
X16588500Y-79690000D02*
X16411500Y-79690000D01*
X31538200Y-40574000D02*
X31538200Y-40086500D01*
X29070800Y-84182200D02*
X30673800Y-84182200D01*
X37584800Y-48032700D02*
X36275500Y-49342000D01*
X22613700Y-49342000D02*
X22613700Y-49529300D01*
X46239300Y-51915300D02*
X45907000Y-51583000D01*
%TO.N,LP0*%
X68510000Y-87550700D02*
X69748900Y-87550700D01*
X69748900Y-87550700D02*
X74219700Y-83079900D01*
X74219700Y-83079900D02*
X74219700Y-82399400D01*
X83923100Y-71821800D02*
X83923100Y-66744900D01*
X73145800Y-81325500D02*
X73145800Y-80838000D01*
X87630000Y-62230000D02*
X87630000Y-63405300D01*
X73145800Y-80133200D02*
X74218700Y-79060300D01*
X76684600Y-79060300D02*
X83923100Y-71821800D01*
X68510000Y-88276000D02*
X68510000Y-87550700D01*
X87262700Y-63405300D02*
X87630000Y-63405300D01*
X74218700Y-79060300D02*
X76684600Y-79060300D01*
X73145800Y-80838000D02*
X73145800Y-80133200D01*
X74219700Y-82399400D02*
X73145800Y-81325500D01*
X83923100Y-66744900D02*
X87262700Y-63405300D01*
%TO.N,P0*%
X73736200Y-71198000D02*
X73736200Y-71696100D01*
X73736200Y-71696100D02*
X74618400Y-72578300D01*
X52298600Y-71198000D02*
X52298600Y-72449600D01*
X31728900Y-72871200D02*
X30861000Y-72003300D01*
X74206900Y-80098100D02*
X75020800Y-80912000D01*
X79168500Y-66619800D02*
X53203500Y-66619800D01*
X77254000Y-73938100D02*
X77254000Y-74182700D01*
X30861000Y-72003300D02*
X30861000Y-71198000D01*
X75020800Y-80912000D02*
X75020800Y-81788000D01*
X75894200Y-72578300D02*
X79540900Y-68931600D01*
X52298600Y-72449600D02*
X52701600Y-72852600D01*
X79540900Y-66992200D02*
X79168500Y-66619800D01*
X74618400Y-72578300D02*
X75894200Y-72578300D01*
X75894200Y-72578300D02*
X77154900Y-73839000D01*
X77254000Y-74908000D02*
X77254000Y-74182700D01*
X53203500Y-66619800D02*
X52985900Y-66837400D01*
X79540900Y-68931600D02*
X79540900Y-66992200D01*
X77154900Y-73839000D02*
X77254000Y-73938100D01*
%TO.N,LP1*%
X80826200Y-74245900D02*
X80826200Y-64770000D01*
X69242700Y-89001300D02*
X67710000Y-89001300D01*
X69789500Y-82456500D02*
X71301300Y-82456500D01*
X84568200Y-67831800D02*
X84568200Y-73675800D01*
X71596900Y-82160900D02*
X71596900Y-80922600D01*
X67710000Y-88276000D02*
X67710000Y-89001300D01*
X77188500Y-77883600D02*
X80826200Y-74245900D01*
X71596900Y-80922600D02*
X74635900Y-77883600D01*
X68658500Y-80838000D02*
X68658500Y-81325500D01*
X87630000Y-64770000D02*
X84568200Y-67831800D01*
X84568200Y-73675800D02*
X69242700Y-89001300D01*
X71301300Y-82456500D02*
X71596900Y-82160900D01*
X68658500Y-81325500D02*
X69789500Y-82456500D01*
X74635900Y-77883600D02*
X77188500Y-77883600D01*
%TO.N,P1*%
X30509500Y-69822000D02*
X32491300Y-69822000D01*
X51946000Y-69824900D02*
X51028600Y-70742300D01*
X33780300Y-71111000D02*
X33844600Y-71111000D01*
X72466200Y-70745300D02*
X70176900Y-68456000D01*
X70533500Y-79911500D02*
X70533500Y-81788000D01*
X29591000Y-70740500D02*
X30509500Y-69822000D01*
X54551500Y-70099800D02*
X54276600Y-69824900D01*
X76454000Y-75633300D02*
X74811700Y-75633300D01*
X75480900Y-73209600D02*
X74048100Y-73209600D01*
X64420600Y-68456000D02*
X64303400Y-68573200D01*
X29591000Y-71198000D02*
X29591000Y-70740500D01*
X76454000Y-74545300D02*
X76454000Y-74182700D01*
X74048100Y-73209600D02*
X72466200Y-71627700D01*
X76454000Y-74182700D02*
X75480900Y-73209600D01*
X54276600Y-69824900D02*
X51946000Y-69824900D01*
X51028600Y-70742300D02*
X51028600Y-71198000D01*
X72466200Y-71627700D02*
X72466200Y-71198000D01*
X72466200Y-71198000D02*
X72466200Y-70745300D01*
X32491300Y-69822000D02*
X33780300Y-71111000D01*
X76454000Y-74908000D02*
X76454000Y-75633300D01*
X76454000Y-74545300D02*
X76454000Y-74908000D01*
X70176900Y-68456000D02*
X64420600Y-68456000D01*
X74811700Y-75633300D02*
X70533500Y-79911500D01*
%TO.N,LP2*%
X64350300Y-80838000D02*
X65163000Y-80025300D01*
X67365700Y-89457000D02*
X66910000Y-89001300D01*
X86454700Y-71833200D02*
X86454700Y-72466000D01*
X64171200Y-80838000D02*
X64350300Y-80838000D01*
X87262600Y-71025300D02*
X86454700Y-71833200D01*
X87630000Y-71025300D02*
X87262600Y-71025300D01*
X87630000Y-69850000D02*
X87630000Y-71025300D01*
X69463700Y-89457000D02*
X67365700Y-89457000D01*
X86454700Y-72466000D02*
X69463700Y-89457000D01*
X66910000Y-88276000D02*
X66910000Y-89001300D01*
%TO.N,P2*%
X70941300Y-74426500D02*
X70941300Y-77471200D01*
X56167400Y-78474600D02*
X52460000Y-74767200D01*
X75654000Y-74182700D02*
X73689800Y-74182700D01*
X69579900Y-69837700D02*
X69291200Y-70126400D01*
X33116100Y-69766500D02*
X32696300Y-69346700D01*
X70324600Y-69837700D02*
X69579900Y-69837700D01*
X34845000Y-71045100D02*
X33566400Y-69766500D01*
X66046200Y-81788000D02*
X66046200Y-79882700D01*
X29689400Y-69346700D02*
X28321000Y-70715100D01*
X73689800Y-74182700D02*
X71196200Y-71689100D01*
X71196200Y-70709300D02*
X70324600Y-69837700D01*
X71196200Y-71198000D02*
X71196200Y-70709300D01*
X75654000Y-74908000D02*
X75654000Y-74182700D01*
X68980100Y-79432400D02*
X66496500Y-79432400D01*
X52460000Y-73675400D02*
X51525300Y-72740700D01*
X70941300Y-77471200D02*
X68980100Y-79432400D01*
X49758600Y-72188700D02*
X50310600Y-72740700D01*
X66496500Y-79432400D02*
X66046200Y-79882700D01*
X32696300Y-69346700D02*
X29689400Y-69346700D01*
X71196200Y-71689100D02*
X71196200Y-71198000D01*
X64638100Y-78474600D02*
X56167400Y-78474600D01*
X28321000Y-70715100D02*
X28321000Y-71198000D01*
X69291200Y-70126400D02*
X69291200Y-72776400D01*
X33566400Y-69766500D02*
X33116100Y-69766500D01*
X51525300Y-72740700D02*
X50310600Y-72740700D01*
X49758600Y-71198000D02*
X49758600Y-72188700D01*
X52460000Y-74767200D02*
X52460000Y-73675400D01*
X66046200Y-79882700D02*
X64638100Y-78474600D01*
X69291200Y-72776400D02*
X70941300Y-74426500D01*
%TO.N,LP3*%
X65518900Y-84116600D02*
X65581700Y-84053800D01*
X59585100Y-84116600D02*
X58569000Y-83100500D01*
X58569000Y-81952800D02*
X59683800Y-80838000D01*
X65518900Y-87031600D02*
X65518900Y-84116600D01*
X66110000Y-87550700D02*
X66038000Y-87550700D01*
X66038000Y-87550700D02*
X65518900Y-87031600D01*
X66110000Y-88276000D02*
X66110000Y-87550700D01*
X58569000Y-83100500D02*
X58569000Y-81952800D01*
X65518900Y-84116600D02*
X59585100Y-84116600D01*
%TO.N,P3*%
X28130500Y-72713100D02*
X27051000Y-71633600D01*
X69183100Y-79882700D02*
X72675700Y-76390100D01*
X49741100Y-73463200D02*
X49741100Y-77562400D01*
X48488600Y-71198000D02*
X48488600Y-72210700D01*
X69926200Y-72158500D02*
X69926200Y-71198000D01*
X39706100Y-76533100D02*
X31344900Y-76533100D01*
X66853700Y-82416600D02*
X67447200Y-81823100D01*
X40735400Y-77562400D02*
X39706100Y-76533100D01*
X72675700Y-74908000D02*
X69926200Y-72158500D01*
X27051000Y-71633600D02*
X27051000Y-71198000D01*
X49741100Y-77562400D02*
X40735400Y-77562400D01*
X29436000Y-74624200D02*
X29436000Y-73537700D01*
X61558800Y-81788000D02*
X64635600Y-81788000D01*
X65264200Y-82416600D02*
X66853700Y-82416600D01*
X29436000Y-73537700D02*
X28611400Y-72713100D01*
X74854000Y-74908000D02*
X72675700Y-74908000D01*
X28611400Y-72713100D02*
X28130500Y-72713100D01*
X48488600Y-72210700D02*
X49741100Y-73463200D01*
X72675700Y-76390100D02*
X72675700Y-74908000D01*
X67447200Y-81823100D02*
X67447200Y-80638200D01*
X67447200Y-80638200D02*
X68202700Y-79882700D01*
X31344900Y-76533100D02*
X29436000Y-74624200D01*
X68202700Y-79882700D02*
X69183100Y-79882700D01*
X64635600Y-81788000D02*
X65264200Y-82416600D01*
%TO.N,~{LROE}*%
X39049300Y-36220500D02*
X82578000Y-36220500D01*
X37221800Y-38048000D02*
X39049300Y-36220500D01*
X24730700Y-38048000D02*
X37221800Y-38048000D01*
X106360200Y-40734700D02*
X106394800Y-40734700D01*
X107035700Y-41375600D02*
X107035700Y-49434700D01*
X23830100Y-38948600D02*
X24730700Y-38048000D01*
X107035700Y-49434700D02*
X107491300Y-49890300D01*
X82578000Y-36220500D02*
X82656800Y-36299300D01*
X88805400Y-38100000D02*
X91820401Y-41115001D01*
X23830000Y-38948700D02*
X23830100Y-38948600D01*
X83534200Y-36299300D02*
X85240300Y-38005400D01*
X107491300Y-82200700D02*
X105777300Y-83914700D01*
X105410000Y-85090000D02*
X105410000Y-83914700D01*
X107491300Y-49890300D02*
X107491300Y-82200700D01*
X105777300Y-83914700D02*
X105410000Y-83914700D01*
X103983799Y-41115001D02*
X104553400Y-40545400D01*
X23830100Y-38948600D02*
X23555400Y-38674000D01*
X91820401Y-41115001D02*
X103983799Y-41115001D01*
X82656800Y-36299300D02*
X83534200Y-36299300D01*
X105578300Y-40734600D02*
X106360100Y-40734600D01*
X28191500Y-43804000D02*
X28191500Y-43078700D01*
X28191500Y-43078700D02*
X27472800Y-43078700D01*
X27472800Y-43078700D02*
X23830000Y-39435900D01*
X86905200Y-38005400D02*
X86999800Y-38100000D01*
X104553400Y-40545400D02*
X105389100Y-40545400D01*
X23830000Y-39435900D02*
X23830000Y-38948700D01*
X85240300Y-38005400D02*
X86905200Y-38005400D01*
X86999800Y-38100000D02*
X88805400Y-38100000D01*
X105389100Y-40545400D02*
X105578300Y-40734600D01*
X106360100Y-40734600D02*
X106360200Y-40734700D01*
X106394800Y-40734700D02*
X107035700Y-41375600D01*
%TO.N,~{ROE}*%
X75312800Y-71504600D02*
X75921500Y-71504600D01*
X61418800Y-77749100D02*
X56688200Y-77749100D01*
X53568600Y-71198000D02*
X54958300Y-72587700D01*
X28053800Y-42141000D02*
X27947400Y-42141000D01*
X75921500Y-71504600D02*
X75921500Y-71504700D01*
X28991500Y-43078700D02*
X28404400Y-42491500D01*
X32454200Y-73171700D02*
X32454200Y-71521200D01*
X32309100Y-73316800D02*
X32454200Y-73171700D01*
X32454200Y-71521200D02*
X32131000Y-71198000D01*
X56688200Y-77749100D02*
X54958300Y-76019200D01*
X28404400Y-42491500D02*
X28053800Y-42141000D01*
X28548000Y-42347900D02*
X28404400Y-42491500D01*
X32309100Y-75754700D02*
X32309100Y-73316800D01*
X28991500Y-43804000D02*
X28991500Y-43078700D01*
X75006200Y-71198000D02*
X75312800Y-71504600D01*
X27947400Y-42141000D02*
X25430400Y-39624000D01*
X54958300Y-72587700D02*
X54958300Y-76019200D01*
%TO.N,LALS*%
X29791500Y-43078700D02*
X29791500Y-40615700D01*
X29791500Y-40615700D02*
X29791500Y-40420700D01*
X29791500Y-43804000D02*
X29791500Y-43078700D01*
X29791500Y-40420700D02*
X31538200Y-38674000D01*
%TO.N,ALS*%
X30845300Y-42798300D02*
X33413200Y-40230400D01*
X30591500Y-43052100D02*
X30845300Y-42798300D01*
X42138600Y-61898000D02*
X40895800Y-61898000D01*
X40895800Y-61898000D02*
X40811100Y-61813300D01*
X30591500Y-43804000D02*
X30591500Y-43052100D01*
X33413200Y-40230400D02*
X33413200Y-39624000D01*
%TO.N,LP4*%
X38210000Y-78798700D02*
X38713300Y-78295400D01*
X38569400Y-80249300D02*
X38750700Y-80068000D01*
X38138000Y-80249300D02*
X38569400Y-80249300D01*
X55938700Y-84494300D02*
X57055900Y-84494300D01*
X38138000Y-79524000D02*
X38138000Y-79886600D01*
X38713300Y-77136800D02*
X38575100Y-76998600D01*
X31349900Y-76998600D02*
X30558500Y-77790000D01*
X38138000Y-79886600D02*
X38138000Y-80249300D01*
X38138000Y-78798700D02*
X38210000Y-78798700D01*
X38750700Y-80068000D02*
X51512400Y-80068000D01*
X38138000Y-79524000D02*
X38138000Y-78798700D01*
X38575100Y-76998600D02*
X31349900Y-76998600D01*
X51512400Y-80068000D02*
X55938700Y-84494300D01*
X38713300Y-78295400D02*
X38713300Y-77136800D01*
%TO.N,P4*%
X32433500Y-78740000D02*
X30092300Y-78740000D01*
X48573900Y-69374400D02*
X47218600Y-70729700D01*
X25781000Y-71635200D02*
X25781000Y-71198000D01*
X62137200Y-77441700D02*
X61719300Y-77023800D01*
X70463300Y-76136600D02*
X70463300Y-77286300D01*
X34862000Y-72053900D02*
X35570300Y-71345600D01*
X25781000Y-70704900D02*
X25781000Y-71198000D01*
X27619900Y-68866000D02*
X25781000Y-70704900D01*
X30092300Y-78740000D02*
X26900700Y-75548400D01*
X33302700Y-69316200D02*
X32852500Y-68866000D01*
X54907800Y-69374400D02*
X48573900Y-69374400D01*
X47218600Y-74946000D02*
X45090300Y-77074300D01*
X26900700Y-75548400D02*
X26900700Y-72754900D01*
X45090300Y-77074300D02*
X40991800Y-77074300D01*
X69960000Y-75633300D02*
X70463300Y-76136600D01*
X70307900Y-77441700D02*
X62137200Y-77441700D01*
X35570300Y-71345600D02*
X35570300Y-70744600D01*
X34141900Y-69316200D02*
X33302700Y-69316200D01*
X47218600Y-71198000D02*
X47218600Y-74946000D01*
X59838300Y-77023800D02*
X57315400Y-74500900D01*
X69888000Y-75633300D02*
X69960000Y-75633300D01*
X69888000Y-74908000D02*
X69888000Y-75633300D01*
X70463300Y-77286300D02*
X70307900Y-77441700D01*
X61719300Y-77023800D02*
X59838300Y-77023800D01*
X57315400Y-71782000D02*
X54907800Y-69374400D01*
X26900700Y-72754900D02*
X25781000Y-71635200D01*
X47218600Y-70729700D02*
X47218600Y-71198000D01*
X57315400Y-74500900D02*
X57315400Y-71782000D01*
X69888000Y-74908000D02*
X69888000Y-74182700D01*
X68656200Y-72950900D02*
X68656200Y-71198000D01*
X32852500Y-68866000D02*
X27619900Y-68866000D01*
X40991800Y-77074300D02*
X39484900Y-75567400D01*
X69888000Y-74182700D02*
X68656200Y-72950900D01*
X35521400Y-75567400D02*
X34862000Y-74908000D01*
X39484900Y-75567400D02*
X35521400Y-75567400D01*
X35570300Y-70744600D02*
X34141900Y-69316200D01*
X34862000Y-74908000D02*
X34862000Y-72053900D01*
%TO.N,LP5*%
X56400400Y-85253500D02*
X56400400Y-85253600D01*
X37338000Y-79524000D02*
X37338000Y-80485100D01*
X37338000Y-80485100D02*
X37269700Y-80553400D01*
X56061000Y-85253500D02*
X56400400Y-85253500D01*
X53212900Y-82405400D02*
X56061000Y-85253500D01*
X25986500Y-78321800D02*
X26362600Y-78697900D01*
X37338000Y-80485100D02*
X39258300Y-82405400D01*
X25986500Y-77790000D02*
X25986500Y-78321800D01*
X39258300Y-82405400D02*
X53212900Y-82405400D01*
%TO.N,P5*%
X65816900Y-69191700D02*
X65216500Y-69191700D01*
X27861500Y-78740000D02*
X27861500Y-78211300D01*
X26832900Y-68415600D02*
X24511000Y-70737500D01*
X33039000Y-68415600D02*
X26832900Y-68415600D01*
X36295700Y-70833100D02*
X34328500Y-68865900D01*
X24511000Y-75104100D02*
X24511000Y-71198000D01*
X45948600Y-69625300D02*
X45866800Y-69543500D01*
X26807600Y-77157400D02*
X26564300Y-77157400D01*
X67386200Y-71198000D02*
X67386200Y-72480900D01*
X67386200Y-72480900D02*
X69088000Y-74182700D01*
X67386200Y-70761000D02*
X65816900Y-69191700D01*
X24511000Y-70737500D02*
X24511000Y-71198000D01*
X34328500Y-68865900D02*
X33489300Y-68865900D01*
X36295700Y-70834700D02*
X36295700Y-70833100D01*
X45948600Y-71198000D02*
X45948600Y-69625300D01*
X27861500Y-78211300D02*
X26807600Y-77157400D01*
X67386200Y-71198000D02*
X67386200Y-70761000D01*
X26564300Y-77157400D02*
X24511000Y-75104100D01*
X33489300Y-68865900D02*
X33039000Y-68415600D01*
X69088000Y-74908000D02*
X69088000Y-74182700D01*
%TO.N,LP6*%
X52712900Y-82980800D02*
X55730300Y-85998200D01*
X21414500Y-77790000D02*
X20304100Y-78900400D01*
X20304100Y-78900400D02*
X20304100Y-80009600D01*
X21099900Y-80805400D02*
X36538000Y-80805400D01*
X36538000Y-80805400D02*
X36538000Y-80249300D01*
X36538000Y-79524000D02*
X36538000Y-80249300D01*
X38634000Y-82980800D02*
X52712900Y-82980800D01*
X36538000Y-80805400D02*
X36538000Y-80884800D01*
X20304100Y-80009600D02*
X21099900Y-80805400D01*
X36538000Y-80884800D02*
X38634000Y-82980800D01*
%TO.N,P6*%
X55291900Y-68858900D02*
X47814500Y-68858900D01*
X44678600Y-72618000D02*
X44678600Y-74859100D01*
X68288000Y-74908000D02*
X68288000Y-74182700D01*
X23241000Y-71198000D02*
X23241000Y-76360500D01*
X44678600Y-74859100D02*
X43695100Y-75842600D01*
X66866100Y-75558900D02*
X65557300Y-75558900D01*
X68288000Y-75633300D02*
X66940500Y-75633300D01*
X24455000Y-77574500D02*
X23289500Y-78740000D01*
X65557300Y-75558900D02*
X65131200Y-75985000D01*
X46583600Y-70089800D02*
X46583600Y-72278800D01*
X60080000Y-74709300D02*
X60080000Y-73647000D01*
X23241000Y-76360500D02*
X24455000Y-77574500D01*
X66116200Y-71198000D02*
X66116200Y-72010900D01*
X65131200Y-75985000D02*
X61355700Y-75985000D01*
X44678600Y-72618000D02*
X44678600Y-71198000D01*
X60080000Y-73647000D02*
X55291900Y-68858900D01*
X43695100Y-75842600D02*
X42354100Y-75842600D01*
X66940500Y-75633300D02*
X66866100Y-75558900D01*
X61355700Y-75985000D02*
X60080000Y-74709300D01*
X46583600Y-72278800D02*
X46244400Y-72618000D01*
X46244400Y-72618000D02*
X44678600Y-72618000D01*
X47814500Y-68858900D02*
X46583600Y-70089800D01*
X66116200Y-72010900D02*
X68288000Y-74182700D01*
X68288000Y-74908000D02*
X68288000Y-75633300D01*
%TO.N,LP7*%
X16746900Y-77631600D02*
X17965000Y-77631600D01*
X35738000Y-80249300D02*
X34817900Y-80249300D01*
X35738000Y-79524000D02*
X35738000Y-80249300D01*
X34817900Y-80249300D02*
X34623000Y-80054400D01*
X16588500Y-77790000D02*
X16746900Y-77631600D01*
%TO.N,P7*%
X36653900Y-68283500D02*
X33862100Y-68283500D01*
X24698800Y-67965200D02*
X21971000Y-70693000D01*
X37736600Y-69366200D02*
X36653900Y-68283500D01*
X65262500Y-71614300D02*
X65262500Y-74908000D01*
X65262500Y-74908000D02*
X67488000Y-74908000D01*
X21971000Y-74776200D02*
X18463500Y-78283700D01*
X43408600Y-69627300D02*
X43669700Y-69366200D01*
X33543800Y-67965200D02*
X24698800Y-67965200D01*
X64846200Y-71198000D02*
X65262500Y-71614300D01*
X63434000Y-75534700D02*
X62741000Y-74841700D01*
X62741000Y-74841700D02*
X62741000Y-73835100D01*
X65262500Y-74908000D02*
X64635800Y-75534700D01*
X62741000Y-73835100D02*
X57296300Y-68390400D01*
X64635800Y-75534700D02*
X63434000Y-75534700D01*
X44645500Y-68390400D02*
X43669700Y-69366200D01*
X33862100Y-68283500D02*
X33543800Y-67965200D01*
X57296300Y-68390400D02*
X44645500Y-68390400D01*
X18463500Y-78283700D02*
X18463500Y-78740000D01*
X43408600Y-71198000D02*
X43408600Y-69627300D01*
X21971000Y-71198000D02*
X21971000Y-74776200D01*
X21971000Y-70693000D02*
X21971000Y-71198000D01*
%TO.N,LAHS*%
X87158400Y-45720000D02*
X88063400Y-45720000D01*
X41524200Y-36670900D02*
X82391400Y-36670900D01*
X82391400Y-36670900D02*
X86454600Y-40734100D01*
X106585300Y-69351000D02*
X106585300Y-75486800D01*
X104234600Y-68299800D02*
X104420200Y-68485400D01*
X43431500Y-43071900D02*
X39521100Y-39161500D01*
X86454600Y-40734100D02*
X86454600Y-45016200D01*
X39521100Y-39161500D02*
X39521100Y-38674000D01*
X104420200Y-68485400D02*
X105719700Y-68485400D01*
X88063400Y-45720000D02*
X104234600Y-61891200D01*
X43431500Y-43804000D02*
X43431500Y-43071900D01*
X105777400Y-76294700D02*
X105410000Y-76294700D01*
X105410000Y-77470000D02*
X105410000Y-76294700D01*
X86454600Y-45016200D02*
X87158400Y-45720000D01*
X104234600Y-61891200D02*
X104234600Y-68299800D01*
X106585300Y-75486800D02*
X105777400Y-76294700D01*
X105719700Y-68485400D02*
X106585300Y-69351000D01*
X39521100Y-38674000D02*
X41524200Y-36670900D01*
%TO.N,AHS*%
X41396100Y-39624000D02*
X41396100Y-39067200D01*
X20065900Y-61898000D02*
X18798000Y-60630100D01*
X44231500Y-43804000D02*
X44231500Y-43078700D01*
X41396100Y-40243300D02*
X41396100Y-39624000D01*
X41396100Y-39067200D02*
X40881300Y-38552400D01*
X20701000Y-61898000D02*
X20065900Y-61898000D01*
X44231500Y-43078700D02*
X41396100Y-40243300D01*
%TO.N,~{LPGM}*%
X105410000Y-72390000D02*
X105410000Y-71214700D01*
X45031500Y-40929000D02*
X47286500Y-38674000D01*
X84497500Y-39413900D02*
X84497500Y-45538500D01*
X47286500Y-38674000D02*
X47503900Y-38674000D01*
X88032000Y-48260000D02*
X103710300Y-63938300D01*
X49045000Y-37132900D02*
X82216500Y-37132900D01*
X87219000Y-48260000D02*
X88032000Y-48260000D01*
X105041600Y-71214700D02*
X105410000Y-71214700D01*
X47503900Y-38674000D02*
X49045000Y-37132900D01*
X84497500Y-45538500D02*
X87219000Y-48260000D01*
X45031500Y-43804000D02*
X45031500Y-40929000D01*
X103710300Y-69883400D02*
X105041600Y-71214700D01*
X103710300Y-63938300D02*
X103710300Y-69883400D01*
X82216500Y-37132900D02*
X84497500Y-39413900D01*
%TO.N,~{PGM}*%
X45831500Y-43804000D02*
X45831500Y-42701900D01*
X45831600Y-42701900D02*
X45831500Y-42701900D01*
X49378900Y-39624000D02*
X46973400Y-39624000D01*
X45831600Y-40765800D02*
X45831600Y-42701900D01*
X46973400Y-39624000D02*
X45831600Y-40765800D01*
%TO.N,LD0*%
X20637300Y-52067300D02*
X23910400Y-52067300D01*
X24413700Y-51564000D02*
X24413700Y-51492000D01*
X25864300Y-51492000D02*
X26288300Y-51916000D01*
X19812000Y-51242000D02*
X20637300Y-52067300D01*
X26288300Y-51916000D02*
X27991200Y-51916000D01*
X23910400Y-52067300D02*
X24413700Y-51564000D01*
X25139000Y-51492000D02*
X25864300Y-51492000D01*
X25139000Y-51492000D02*
X24413700Y-51492000D01*
%TO.N,D0*%
X38048000Y-52736300D02*
X41972700Y-56661000D01*
X38048000Y-52521200D02*
X38048000Y-52641300D01*
X17937000Y-50292000D02*
X17937000Y-50809100D01*
X17937000Y-50809100D02*
X19769200Y-52641300D01*
X19769200Y-52641300D02*
X38048000Y-52641300D01*
X39077200Y-51492000D02*
X38048000Y-52521200D01*
X39802500Y-51492000D02*
X39077200Y-51492000D01*
X38048000Y-52641300D02*
X38048000Y-52736300D01*
%TO.N,LD1*%
X31114600Y-51815600D02*
X31776000Y-51815600D01*
X30541000Y-51242000D02*
X31114600Y-51815600D01*
X30541000Y-51242000D02*
X30489700Y-51190700D01*
X26363000Y-51190700D02*
X25864300Y-50692000D01*
X25139000Y-50692000D02*
X25864300Y-50692000D01*
X30489700Y-51190700D02*
X26363000Y-51190700D01*
%TO.N,D1*%
X39802500Y-50692000D02*
X40527800Y-50692000D01*
X40527800Y-54071200D02*
X41371000Y-54914400D01*
X28666000Y-50292000D02*
X28891200Y-50517200D01*
X32881000Y-51877800D02*
X37891400Y-51877800D01*
X39802500Y-50692000D02*
X39077200Y-50692000D01*
X40527800Y-50692000D02*
X40527800Y-54071200D01*
X37891400Y-51877800D02*
X39077200Y-50692000D01*
X31520400Y-50517200D02*
X32881000Y-51877800D01*
X28891200Y-50517200D02*
X31520400Y-50517200D01*
%TO.N,LD2*%
X37293500Y-51242000D02*
X38013700Y-50521800D01*
X25139000Y-49892000D02*
X25864300Y-49892000D01*
X36275500Y-51242000D02*
X37293500Y-51242000D01*
X31799100Y-49968000D02*
X33073100Y-51242000D01*
X25864300Y-49892000D02*
X26112000Y-49644300D01*
X29430800Y-49644300D02*
X29754500Y-49968000D01*
X29754500Y-49968000D02*
X31799100Y-49968000D01*
X33073100Y-51242000D02*
X36275500Y-51242000D01*
X26112000Y-49644300D02*
X29430800Y-49644300D01*
%TO.N,D2*%
X39077200Y-49892000D02*
X38981700Y-49796500D01*
X38981700Y-49796500D02*
X37430900Y-49796500D01*
X37430900Y-49796500D02*
X36935400Y-50292000D01*
X39802500Y-49892000D02*
X39077200Y-49892000D01*
X36935400Y-50292000D02*
X34400500Y-50292000D01*
%TO.N,LD3*%
X25864300Y-49092000D02*
X27417000Y-47539300D01*
X25139000Y-49092000D02*
X25864300Y-49092000D01*
X48084100Y-50162400D02*
X48084100Y-48848200D01*
X27417000Y-47539300D02*
X46775200Y-47539300D01*
X48084100Y-48848200D02*
X47409800Y-48173900D01*
X47004500Y-51242000D02*
X48084100Y-50162400D01*
X46775200Y-47539300D02*
X47409800Y-48173900D01*
%TO.N,D3*%
X40527800Y-49020000D02*
X40527800Y-49092000D01*
X46810800Y-53414800D02*
X45129500Y-51733500D01*
X45129500Y-51733500D02*
X45129500Y-50292000D01*
X43354200Y-48516700D02*
X41031100Y-48516700D01*
X45129500Y-50292000D02*
X43354200Y-48516700D01*
X39802500Y-49092000D02*
X40527800Y-49092000D01*
X41031100Y-48516700D02*
X40527800Y-49020000D01*
%TO.N,~{LCE}*%
X55597900Y-39272500D02*
X55486800Y-39272500D01*
X58671500Y-43804000D02*
X58671500Y-42346100D01*
X54416500Y-43317700D02*
X57747100Y-46648300D01*
X55377600Y-39272500D02*
X54416500Y-40233600D01*
X58671500Y-42346100D02*
X55597900Y-39272500D01*
X55486800Y-38674000D02*
X55486800Y-39272500D01*
X55486800Y-39272500D02*
X55377600Y-39272500D01*
X54416500Y-40233600D02*
X54416500Y-43317700D01*
%TO.N,~{CE}*%
X56283600Y-38044600D02*
X57361800Y-39122800D01*
X51190000Y-58962500D02*
X49800500Y-57573000D01*
X59471500Y-41733700D02*
X57361800Y-39624000D01*
X59471500Y-43804000D02*
X59471500Y-41733700D01*
X57361800Y-39122800D02*
X57361800Y-39624000D01*
X49800500Y-57573000D02*
X49800500Y-42936500D01*
X54692400Y-38044600D02*
X56283600Y-38044600D01*
X49800500Y-42936500D02*
X54692400Y-38044600D01*
%TO.N,~{LOE}*%
X106585300Y-62720700D02*
X106585300Y-59179300D01*
X62160400Y-41280300D02*
X62820100Y-41940000D01*
X62160400Y-39983300D02*
X62160400Y-41280300D01*
X105410000Y-63594700D02*
X105711300Y-63594700D01*
X63469700Y-38674000D02*
X62160400Y-39983300D01*
X60271500Y-43804000D02*
X60271500Y-43078700D01*
X106585300Y-59179300D02*
X105826000Y-58420000D01*
X105826000Y-58420000D02*
X104277600Y-58420000D01*
X60271500Y-43078700D02*
X60362000Y-43078700D01*
X105410000Y-64770000D02*
X105410000Y-63594700D01*
X105711300Y-63594700D02*
X106585300Y-62720700D01*
X104277600Y-58420000D02*
X88986300Y-43128700D01*
X60362000Y-43078700D02*
X62160400Y-41280300D01*
%TO.N,~{OE}*%
X61071500Y-43804000D02*
X61071500Y-43078700D01*
X65344700Y-40441200D02*
X65344700Y-39624000D01*
X61603000Y-43078700D02*
X61734700Y-42947000D01*
X62838900Y-42947000D02*
X65344700Y-40441200D01*
X61071500Y-43078700D02*
X61603000Y-43078700D01*
X61734700Y-42947000D02*
X62838900Y-42947000D01*
%TO.N,LD4*%
X58066000Y-51492000D02*
X57509600Y-51492000D01*
X57340700Y-51492000D02*
X57340700Y-48707200D01*
X56837400Y-52067300D02*
X53564300Y-52067300D01*
X53564300Y-52067300D02*
X52739000Y-51242000D01*
X57340700Y-48707200D02*
X57773700Y-48274200D01*
X57340700Y-51492000D02*
X57340700Y-51564000D01*
X57340700Y-51564000D02*
X56837400Y-52067300D01*
X57509600Y-51492000D02*
X57340700Y-51492000D01*
X57773700Y-48274200D02*
X61242400Y-48274200D01*
X61242400Y-48274200D02*
X61643300Y-48675100D01*
%TO.N,D4*%
X72004200Y-51653700D02*
X72004200Y-51492000D01*
X50864000Y-50984900D02*
X54469600Y-54590500D01*
X66597700Y-57060200D02*
X72004200Y-51653700D01*
X62395300Y-58962500D02*
X62395300Y-58668500D01*
X50864000Y-50292000D02*
X50864000Y-50984900D01*
X72729500Y-51492000D02*
X72004200Y-51492000D01*
X64003600Y-57060200D02*
X66597700Y-57060200D01*
X62395300Y-58668500D02*
X64003600Y-57060200D01*
X61350000Y-58962500D02*
X62395300Y-58962500D01*
%TO.N,LD5*%
X63468000Y-51242000D02*
X63469500Y-51243500D01*
X58066000Y-50692000D02*
X58791300Y-50692000D01*
X63469500Y-51243500D02*
X64810000Y-51243500D01*
X59341300Y-51242000D02*
X58791300Y-50692000D01*
X63468000Y-51242000D02*
X59341300Y-51242000D01*
%TO.N,D5*%
X65582700Y-51517000D02*
X64676200Y-52423500D01*
X62488100Y-52423500D02*
X57665500Y-57246100D01*
X65582700Y-50987500D02*
X65582700Y-51517000D01*
X59855300Y-58962500D02*
X59855300Y-58674000D01*
X64638800Y-53890500D02*
X69130500Y-53890500D01*
X61767400Y-50466400D02*
X65061600Y-50466400D01*
X70389100Y-52631900D02*
X70389100Y-52307100D01*
X58810000Y-58962500D02*
X59855300Y-58962500D01*
X64676200Y-52423500D02*
X62488100Y-52423500D01*
X61593000Y-50292000D02*
X61767400Y-50466400D01*
X59855300Y-58674000D02*
X64638800Y-53890500D01*
X70389100Y-52307100D02*
X72004200Y-50692000D01*
X65061600Y-50466400D02*
X65582700Y-50987500D01*
X69130500Y-53890500D02*
X70389100Y-52631900D01*
X72729500Y-50692000D02*
X72004200Y-50692000D01*
%TO.N,LD6*%
X69202500Y-52133800D02*
X69213500Y-52144800D01*
X62374700Y-49661200D02*
X62729500Y-50016000D01*
X62729500Y-50016000D02*
X65518200Y-50016000D01*
X66744200Y-51242000D02*
X69202500Y-51242000D01*
X60018200Y-49892000D02*
X60249000Y-49661200D01*
X69202500Y-51242000D02*
X69202500Y-52133800D01*
X60249000Y-49661200D02*
X62374700Y-49661200D01*
X58066000Y-49892000D02*
X58791300Y-49892000D01*
X58791300Y-49892000D02*
X60018200Y-49892000D01*
X65518200Y-50016000D02*
X66744200Y-51242000D01*
%TO.N,D6*%
X57315300Y-58962500D02*
X57315300Y-58668500D01*
X69938800Y-52445300D02*
X69938800Y-51948200D01*
X70284200Y-51602800D02*
X70284200Y-50292000D01*
X72729500Y-49892000D02*
X72004200Y-49892000D01*
X62543700Y-53440100D02*
X68944000Y-53440100D01*
X68944000Y-53440100D02*
X69938800Y-52445300D01*
X69938800Y-51948200D02*
X70284200Y-51602800D01*
X57315300Y-58668500D02*
X62543700Y-53440100D01*
X71604200Y-50292000D02*
X72004200Y-49892000D01*
X67327500Y-50292000D02*
X70284200Y-50292000D01*
X70284200Y-50292000D02*
X71604200Y-50292000D01*
X56270000Y-58962500D02*
X57315300Y-58962500D01*
%TO.N,LD7*%
X87204200Y-58514700D02*
X79931500Y-51242000D01*
X58791300Y-49092000D02*
X58883700Y-48999600D01*
X87630000Y-59690000D02*
X87630000Y-58514700D01*
X87630000Y-58514700D02*
X87204200Y-58514700D01*
X58066000Y-49092000D02*
X58791300Y-49092000D01*
X58883700Y-48999600D02*
X59884800Y-48999600D01*
%TO.N,D7*%
X76937800Y-50292000D02*
X68639100Y-58590700D01*
X76937800Y-50292000D02*
X75136300Y-48490500D01*
X68639100Y-58590700D02*
X66842300Y-58590700D01*
X73331000Y-48490500D02*
X72729500Y-49092000D01*
X66842300Y-58590700D02*
X65136600Y-60296400D01*
X78056500Y-50292000D02*
X76937800Y-50292000D01*
X75136300Y-48490500D02*
X73331000Y-48490500D01*
X54775300Y-59256500D02*
X54775300Y-58962500D01*
X55815200Y-60296400D02*
X54775300Y-59256500D01*
X53730000Y-58962500D02*
X54775300Y-58962500D01*
X65136600Y-60296400D02*
X55815200Y-60296400D01*
%TO.N,LAUS*%
X71727200Y-38948600D02*
X71452500Y-38674000D01*
X71727100Y-38948700D02*
X71727200Y-38948600D01*
X87252400Y-53434700D02*
X88642400Y-53434700D01*
X83596900Y-39150300D02*
X83596900Y-41810500D01*
X81843300Y-38033500D02*
X82480100Y-38033500D01*
X82480100Y-38033500D02*
X83596900Y-39150300D01*
X76848400Y-37583200D02*
X81393000Y-37583200D01*
X84014200Y-50196500D02*
X87252400Y-53434700D01*
X105410000Y-74930000D02*
X105410000Y-73754700D01*
X102849200Y-67641500D02*
X102849200Y-71561200D01*
X71727100Y-39436100D02*
X71727100Y-38948700D01*
X72312000Y-38363800D02*
X76067800Y-38363800D01*
X83596900Y-41810500D02*
X84014200Y-42227800D01*
X76067800Y-38363800D02*
X76848400Y-37583200D01*
X73911500Y-43804000D02*
X73911500Y-41620500D01*
X105042700Y-73754700D02*
X105410000Y-73754700D01*
X71727200Y-38948600D02*
X72312000Y-38363800D01*
X88642400Y-53434700D02*
X102849200Y-67641500D01*
X102849200Y-71561200D02*
X105042700Y-73754700D01*
X73911500Y-41620500D02*
X71727100Y-39436100D01*
X84014200Y-42227800D02*
X84014200Y-50196500D01*
X81393000Y-37583200D02*
X81843300Y-38033500D01*
%TO.N,AUS*%
X83459600Y-47244600D02*
X80571500Y-50132700D01*
X81206400Y-38033500D02*
X81656700Y-38483800D01*
X82293500Y-38483800D02*
X83146600Y-39336900D01*
X77686000Y-38033500D02*
X81206400Y-38033500D01*
X81656700Y-38483800D02*
X82293500Y-38483800D01*
X65481200Y-60766500D02*
X65481200Y-63008300D01*
X83459600Y-42310100D02*
X83459600Y-47244600D01*
X79628400Y-50132700D02*
X69468000Y-60293100D01*
X74711500Y-43804000D02*
X74711500Y-41008000D01*
X64445300Y-63267200D02*
X63576200Y-62398100D01*
X69468000Y-60293100D02*
X65954600Y-60293100D01*
X83146600Y-41997100D02*
X83459600Y-42310100D01*
X74711500Y-41008000D02*
X73327500Y-39624000D01*
X80571500Y-50132700D02*
X79628400Y-50132700D01*
X65481200Y-63008300D02*
X65222300Y-63267200D01*
X65222300Y-63267200D02*
X64445300Y-63267200D01*
X74711500Y-41008000D02*
X77686000Y-38033500D01*
X63576200Y-62398100D02*
X63576200Y-61898000D01*
X65954600Y-60293100D02*
X65481200Y-60766500D01*
X83146600Y-39336900D02*
X83146600Y-41997100D01*
%TO.N,RUN*%
X23166000Y-87340000D02*
X25198000Y-87340000D01*
X25198000Y-87340000D02*
X27432000Y-85106000D01*
X27432000Y-85106000D02*
X27432000Y-85090000D01*
X29666000Y-87340000D02*
X27432000Y-85106000D01*
%TO.N,GND*%
X105777300Y-66134700D02*
X107040900Y-64871100D01*
X63576200Y-72563400D02*
X63890000Y-72877200D01*
X87997400Y-66134700D02*
X87630000Y-66134700D01*
X78486000Y-67498000D02*
X77138200Y-67498000D01*
X106585300Y-43893300D02*
X106585300Y-52626800D01*
X88915500Y-78026800D02*
X88805300Y-78026800D01*
X88805300Y-65326800D02*
X87997400Y-66134700D01*
X15499400Y-76399600D02*
X20701000Y-71198000D01*
X21151000Y-82840000D02*
X17006700Y-78695700D01*
X95344700Y-84456000D02*
X88915500Y-78026800D01*
X21184700Y-67715300D02*
X16047000Y-62577600D01*
X105410000Y-67310000D02*
X105410000Y-66134700D01*
X87630000Y-67310000D02*
X87630000Y-66722300D01*
X88805300Y-56593300D02*
X88805300Y-65326800D01*
X87630000Y-80010000D02*
X87630000Y-78834700D01*
X23166000Y-82840000D02*
X21151000Y-82840000D01*
X105777300Y-55785300D02*
X105410000Y-55785300D01*
X77138200Y-67498000D02*
X77138200Y-67747500D01*
X16047000Y-58629000D02*
X16489900Y-58186100D01*
X87997300Y-55785300D02*
X88805300Y-56593300D01*
X21468000Y-67432000D02*
X21184700Y-67715300D01*
X105410000Y-66134700D02*
X105777300Y-66134700D01*
X63576200Y-67995800D02*
X63576200Y-71198000D01*
X96520000Y-84860000D02*
X95344700Y-84860000D01*
X43180000Y-67564000D02*
X42138600Y-68605400D01*
X105410000Y-54610000D02*
X105410000Y-55785300D01*
X87630000Y-41910000D02*
X88805300Y-41910000D01*
X16489900Y-58186100D02*
X21278400Y-58186100D01*
X87630000Y-66722300D02*
X87630000Y-66134700D01*
X87997400Y-68485300D02*
X88805300Y-69293200D01*
X21278400Y-58186100D02*
X22352000Y-57112500D01*
X63576200Y-67995800D02*
X57581800Y-67995800D01*
X87630000Y-54610000D02*
X87630000Y-55785300D01*
X88805300Y-69293200D02*
X88805300Y-78026800D01*
X42138600Y-68605400D02*
X42138600Y-71198000D01*
X107040900Y-64871100D02*
X107040900Y-57048900D01*
X105410000Y-41910000D02*
X105410000Y-43085300D01*
X36068000Y-67432000D02*
X21468000Y-67432000D01*
X20701000Y-68199000D02*
X20701000Y-71198000D01*
X95344700Y-84860000D02*
X95344700Y-84456000D01*
X87997400Y-78834700D02*
X87630000Y-78834700D01*
X17006700Y-78695700D02*
X16054300Y-78695700D01*
X64074000Y-67498000D02*
X63576200Y-67995800D01*
X88805300Y-78026800D02*
X87997400Y-78834700D01*
X105410000Y-54610000D02*
X105410000Y-53434700D01*
X57581800Y-67995800D02*
X57150000Y-67564000D01*
X57150000Y-67564000D02*
X43180000Y-67564000D01*
X16054300Y-78695700D02*
X15499400Y-78140800D01*
X15499400Y-78140800D02*
X15499400Y-76399600D01*
X105777400Y-53434700D02*
X105410000Y-53434700D01*
X16047000Y-62577600D02*
X16047000Y-58629000D01*
X63890000Y-74202500D02*
X63890000Y-72877200D01*
X106585300Y-52626800D02*
X105777400Y-53434700D01*
X105410000Y-43085300D02*
X105777300Y-43085300D01*
X21184700Y-67715300D02*
X20701000Y-68199000D01*
X77138200Y-67498000D02*
X64074000Y-67498000D01*
X63576200Y-71198000D02*
X63576200Y-72563400D01*
X105410000Y-41910000D02*
X88805300Y-41910000D01*
X105777300Y-43085300D02*
X106585300Y-43893300D01*
X107040900Y-57048900D02*
X105777300Y-55785300D01*
X87630000Y-68485300D02*
X87997400Y-68485300D01*
X87630000Y-67310000D02*
X87630000Y-68485300D01*
X87630000Y-55785300D02*
X87997300Y-55785300D01*
%TO.N,A7*%
X35950000Y-74202500D02*
X36995300Y-74202500D01*
X38935400Y-71217100D02*
X36995300Y-73157200D01*
X36995300Y-73157200D02*
X36995300Y-74202500D01*
X38935400Y-67722200D02*
X38935400Y-71217100D01*
X43408600Y-61898000D02*
X43408600Y-63249000D01*
X43408600Y-63249000D02*
X38935400Y-67722200D01*
%TO.N,A6*%
X44678600Y-63313600D02*
X44678600Y-61898000D01*
X39385800Y-68606400D02*
X44678600Y-63313600D01*
X38490000Y-72877200D02*
X39385800Y-71981400D01*
X39385800Y-71981400D02*
X39385800Y-68606400D01*
X38490000Y-74202500D02*
X38490000Y-72877200D01*
%TO.N,A5*%
X45948600Y-63394200D02*
X41030000Y-68312800D01*
X45948600Y-61898000D02*
X45948600Y-63394200D01*
X41030000Y-68312800D02*
X41030000Y-74202500D01*
%TO.N,A4*%
X41480400Y-72353900D02*
X42524700Y-73398200D01*
X43570000Y-74202500D02*
X42524700Y-74202500D01*
X47218600Y-61898000D02*
X47218600Y-62761100D01*
X41480400Y-68499300D02*
X41480400Y-72353900D01*
X42524700Y-73398200D02*
X42524700Y-74202500D01*
X47218600Y-62761100D02*
X41480400Y-68499300D01*
%TO.N,A3*%
X48488600Y-61391400D02*
X48488600Y-61898000D01*
X45650300Y-60495500D02*
X47592700Y-60495500D01*
X45313600Y-60832200D02*
X45650300Y-60495500D01*
X41663800Y-76606100D02*
X39984600Y-74926900D01*
X45313600Y-63392300D02*
X45313600Y-60832200D01*
X46110000Y-74202500D02*
X43706400Y-76606100D01*
X43706400Y-76606100D02*
X41663800Y-76606100D01*
X47592700Y-60495500D02*
X48488600Y-61391400D01*
X39984600Y-68721300D02*
X45313600Y-63392300D01*
X39984600Y-74926900D02*
X39984600Y-68721300D01*
%TO.N,A2*%
X49758600Y-61898000D02*
X49758600Y-65609100D01*
X49758600Y-65609100D02*
X48535600Y-66832100D01*
%TO.N,A1*%
X51182400Y-62051800D02*
X51182400Y-66814000D01*
X51028600Y-61898000D02*
X51182400Y-62051800D01*
%TO.N,A0*%
X52298600Y-61898000D02*
X52171000Y-62025600D01*
X52171000Y-62025600D02*
X52171000Y-66064300D01*
%TO.N,A18*%
X60136900Y-63761200D02*
X59702900Y-63327200D01*
X71196200Y-62410900D02*
X69845900Y-63761200D01*
X71196200Y-61898000D02*
X71196200Y-62410900D01*
X69845900Y-63761200D02*
X60136900Y-63761200D01*
%TO.N,A16*%
X71478900Y-64661900D02*
X55902200Y-64661900D01*
X73736200Y-61898000D02*
X73736200Y-62404600D01*
X73736200Y-62404600D02*
X71478900Y-64661900D01*
X55902200Y-64661900D02*
X55316500Y-64076200D01*
%TO.N,A15*%
X21971000Y-61898000D02*
X21971000Y-63690100D01*
X21971000Y-63690100D02*
X24935700Y-66654800D01*
%TO.N,A12*%
X25781000Y-61898000D02*
X25206300Y-62472700D01*
X25206300Y-62472700D02*
X25206300Y-63417500D01*
%TO.N,A10*%
X28321000Y-62363600D02*
X29545700Y-63588300D01*
X28321000Y-61898000D02*
X28321000Y-62363600D01*
%TO.N,A11*%
X27051000Y-62386300D02*
X28197000Y-63532300D01*
X27051000Y-61898000D02*
X27051000Y-62386300D01*
%TO.N,A9*%
X40085800Y-63076800D02*
X36793200Y-66369400D01*
X33457900Y-66369400D02*
X29591000Y-62502500D01*
X36793200Y-66369400D02*
X33457900Y-66369400D01*
X40085800Y-61232000D02*
X40085800Y-63076800D01*
X29591000Y-62502500D02*
X29591000Y-61898000D01*
X41030000Y-58962500D02*
X41030000Y-60287800D01*
X41030000Y-60287800D02*
X40085800Y-61232000D01*
%TO.N,A8*%
X36155600Y-60545600D02*
X37444700Y-59256500D01*
X38490000Y-58962500D02*
X37444700Y-58962500D01*
X30861000Y-61469400D02*
X31784800Y-60545600D01*
X37444700Y-59256500D02*
X37444700Y-58962500D01*
X30861000Y-61898000D02*
X30861000Y-61469400D01*
X31784800Y-60545600D02*
X36155600Y-60545600D01*
%TO.N,A13*%
X27060000Y-58459100D02*
X27900900Y-57618200D01*
X24511000Y-61452500D02*
X25502000Y-60461500D01*
X26053900Y-60461500D02*
X27060000Y-59455400D01*
X33854400Y-57618200D02*
X34904700Y-58668500D01*
X24511000Y-61898000D02*
X24511000Y-61452500D01*
X34904700Y-58668500D02*
X34904700Y-58962500D01*
X27900900Y-57618200D02*
X33854400Y-57618200D01*
X27060000Y-59455400D02*
X27060000Y-58459100D01*
X35950000Y-58962500D02*
X34904700Y-58962500D01*
X25502000Y-60461500D02*
X26053900Y-60461500D01*
%TO.N,A14*%
X26765400Y-60461500D02*
X31159400Y-60461500D01*
X23241000Y-61898000D02*
X23241100Y-61898000D01*
X24905700Y-64151400D02*
X25553000Y-64151400D01*
X32364700Y-59256200D02*
X32364700Y-58962500D01*
X26416000Y-63288400D02*
X26416000Y-60810900D01*
X23241100Y-62486800D02*
X24905700Y-64151400D01*
X33410000Y-58962500D02*
X32364700Y-58962500D01*
X25553000Y-64151400D02*
X26416000Y-63288400D01*
X23241100Y-61898000D02*
X23241100Y-62486800D01*
X31159400Y-60461500D02*
X32364700Y-59256200D01*
X26416000Y-60810900D02*
X26765400Y-60461500D01*
%TO.N,A17*%
X70692500Y-64211600D02*
X72466200Y-62437900D01*
X58076500Y-64211600D02*
X70692500Y-64211600D01*
X72466200Y-62437900D02*
X72466200Y-61898000D01*
X55076600Y-61211700D02*
X58076500Y-64211600D01*
%TO.N,Net-(D1-K)*%
X18218000Y-60166000D02*
X17272000Y-60166000D01*
X25790000Y-58962500D02*
X24744700Y-58962500D01*
X24744700Y-58962500D02*
X23814200Y-59893000D01*
X23814200Y-59893000D02*
X18491000Y-59893000D01*
X18491000Y-59893000D02*
X18218000Y-60166000D01*
%TO.N,unconnected-(Q24-S-Pad2)*%
X75511500Y-42597900D02*
X79435400Y-38674000D01*
X75511500Y-43804000D02*
X75511500Y-42597900D01*
%TO.N,unconnected-(Q24-D-Pad3)*%
X76311500Y-43078700D02*
X78355900Y-43078700D01*
X78355900Y-43078700D02*
X81310400Y-40124200D01*
X81310400Y-40124200D02*
X81310400Y-39624000D01*
X76311500Y-43804000D02*
X76311500Y-43078700D01*
%TO.N,+5V*%
X44231500Y-46216700D02*
X44231500Y-46329300D01*
X59471500Y-46329300D02*
X59471500Y-46904000D01*
X49032500Y-48070500D02*
X49032500Y-55293500D01*
X76891400Y-77070600D02*
X77254000Y-76708000D01*
X76454000Y-77070600D02*
X76891400Y-77070600D01*
X74711500Y-46329300D02*
X61071500Y-46329300D01*
X40835700Y-57389700D02*
X42269800Y-57389700D01*
X44231500Y-46329300D02*
X45831500Y-46329300D01*
X73804200Y-51054700D02*
X74166900Y-50692000D01*
X74442400Y-65664000D02*
X75006200Y-65100200D01*
X73804200Y-49527000D02*
X73804200Y-49092000D01*
X75006200Y-65100200D02*
X75006200Y-61898000D01*
X44231500Y-46329300D02*
X30591500Y-46329300D01*
X74380700Y-49892000D02*
X74169200Y-49892000D01*
X74529500Y-49092000D02*
X73804200Y-49092000D01*
X79994100Y-73314500D02*
X77325900Y-75982700D01*
X23458600Y-57905900D02*
X22352000Y-59012500D01*
X42269800Y-57389700D02*
X43239600Y-56419900D01*
X41602500Y-50692000D02*
X41965200Y-50692000D01*
X23458600Y-57118400D02*
X23458600Y-57905900D01*
X74169200Y-49892000D02*
X73804200Y-49527000D01*
X18631500Y-56281800D02*
X23068300Y-56281800D01*
X74529500Y-51492000D02*
X73804200Y-51492000D01*
X18147300Y-56766000D02*
X18631500Y-56281800D01*
X66575300Y-76293900D02*
X67073900Y-76293900D01*
X32131000Y-61898000D02*
X32131000Y-64389000D01*
X28991500Y-46329300D02*
X30591500Y-46329300D01*
X68288000Y-76708000D02*
X67488000Y-76708000D01*
X23068300Y-56281800D02*
X23458600Y-56672100D01*
X74854000Y-77433300D02*
X75654000Y-77433300D01*
X23458600Y-56672100D02*
X23458600Y-57118400D01*
X36068000Y-65532000D02*
X39635500Y-61964500D01*
X45831500Y-45604000D02*
X45831500Y-46329300D01*
X59471500Y-46329300D02*
X61071500Y-46329300D01*
X57150000Y-65664000D02*
X67872300Y-65664000D01*
X41965200Y-51492000D02*
X41965200Y-50692000D01*
X74711500Y-46216700D02*
X74711500Y-46329300D01*
X39635500Y-61964500D02*
X39635500Y-58589900D01*
X43239600Y-56419900D02*
X43239600Y-52403800D01*
X41602500Y-51492000D02*
X41965200Y-51492000D01*
X78486000Y-65598000D02*
X75504000Y-65598000D01*
X17272000Y-56766000D02*
X18147300Y-56766000D01*
X59471500Y-45604000D02*
X59471500Y-46329300D01*
X47291300Y-46329300D02*
X49032500Y-48070500D01*
X41965200Y-51492000D02*
X42327800Y-51492000D01*
X47906100Y-56419900D02*
X49920000Y-58433800D01*
X73804200Y-51607200D02*
X73804200Y-51492000D01*
X43239600Y-56419900D02*
X47906100Y-56419900D01*
X59471500Y-46904000D02*
X59276900Y-47098600D01*
X79994100Y-66744800D02*
X79994100Y-73314500D01*
X69088000Y-76708000D02*
X68288000Y-76708000D01*
X74711500Y-45604000D02*
X74711500Y-46216700D01*
X69088000Y-76708000D02*
X69888000Y-76708000D01*
X49032500Y-55293500D02*
X47906100Y-56419900D01*
X33274000Y-65532000D02*
X36068000Y-65532000D01*
X76311500Y-44878700D02*
X77813000Y-44878700D01*
X74529500Y-50692000D02*
X74166900Y-50692000D01*
X45831500Y-46329300D02*
X47291300Y-46329300D01*
X42327800Y-50329400D02*
X42327800Y-49892000D01*
X53980000Y-65664000D02*
X53568600Y-65252600D01*
X51008800Y-60547000D02*
X52689600Y-60547000D01*
X52689600Y-60547000D02*
X53568600Y-61426000D01*
X41965200Y-49892000D02*
X42327800Y-49892000D01*
X75504000Y-65598000D02*
X75006200Y-65100200D01*
X39635500Y-58589900D02*
X39785500Y-58439900D01*
X41602500Y-49892000D02*
X41965200Y-49892000D01*
X76016700Y-77433300D02*
X76454000Y-77433300D01*
X41965200Y-49892000D02*
X42327800Y-49529400D01*
X75654000Y-77070600D02*
X75654000Y-77433300D01*
X78486000Y-65598000D02*
X78847300Y-65598000D01*
X67872300Y-65664000D02*
X74442400Y-65664000D01*
X57150000Y-65664000D02*
X53980000Y-65664000D01*
X28991500Y-45604000D02*
X28991500Y-46329300D01*
X41602500Y-49092000D02*
X42327800Y-49092000D01*
X32131000Y-64389000D02*
X33274000Y-65532000D01*
X77254000Y-76708000D02*
X77254000Y-75982700D01*
X67622600Y-57788800D02*
X73804200Y-51607200D01*
X74854000Y-76708000D02*
X74854000Y-77433300D01*
X73804200Y-51492000D02*
X73804200Y-51054700D01*
X49920000Y-58433800D02*
X49920000Y-59458200D01*
X61071500Y-45604000D02*
X61071500Y-46329300D01*
X74529500Y-49892000D02*
X74380700Y-49892000D01*
X76454000Y-76708000D02*
X76454000Y-77070600D01*
X77325900Y-75982700D02*
X77254000Y-75982700D01*
X77813000Y-44878700D02*
X81957100Y-40734600D01*
X39785500Y-58439900D02*
X40835700Y-57389700D01*
X67872300Y-65664000D02*
X67872300Y-65814700D01*
X76311500Y-45604000D02*
X76311500Y-44878700D01*
X39785500Y-58439900D02*
X38464000Y-57118400D01*
X78847300Y-65598000D02*
X79994100Y-66744800D01*
X43239600Y-52403800D02*
X42327800Y-51492000D01*
X76454000Y-77070600D02*
X76454000Y-77433300D01*
X42327800Y-49529400D02*
X42327800Y-49092000D01*
X67073900Y-76293900D02*
X67488000Y-76708000D01*
X74169200Y-50689700D02*
X74169200Y-49892000D01*
X75654000Y-77070600D02*
X76016700Y-77433300D01*
X53568600Y-61426000D02*
X53568600Y-61898000D01*
X76311500Y-45604000D02*
X76311500Y-46329300D01*
X41965200Y-50692000D02*
X42327800Y-50329400D01*
X74166900Y-50692000D02*
X74169200Y-50689700D01*
X74711500Y-46329300D02*
X76311500Y-46329300D01*
X30591500Y-45604000D02*
X30591500Y-46329300D01*
X38464000Y-57118400D02*
X23458600Y-57118400D01*
X49920000Y-59458200D02*
X51008800Y-60547000D01*
X53568600Y-65252600D02*
X53568600Y-61898000D01*
X75654000Y-76708000D02*
X75654000Y-77070600D01*
X44231500Y-45604000D02*
X44231500Y-46216700D01*
%TD*%
%TA.AperFunction,Conductor*%
%TO.N,+5V*%
G36*
X114304929Y-35560888D02*
G01*
X114308462Y-35561166D01*
X114356516Y-35564948D01*
X114357447Y-35565026D01*
X114497423Y-35577273D01*
X114515854Y-35580274D01*
X114534699Y-35584798D01*
X114594434Y-35599139D01*
X114597537Y-35599927D01*
X114702681Y-35628100D01*
X114718265Y-35633390D01*
X114798446Y-35666602D01*
X114803413Y-35668787D01*
X114896686Y-35712282D01*
X114909237Y-35719026D01*
X114985121Y-35765528D01*
X114991505Y-35769713D01*
X115074082Y-35827534D01*
X115083630Y-35834928D01*
X115151919Y-35893252D01*
X115159184Y-35899968D01*
X115230030Y-35970814D01*
X115236746Y-35978079D01*
X115295070Y-36046368D01*
X115302469Y-36055923D01*
X115360275Y-36138479D01*
X115364481Y-36144894D01*
X115402435Y-36206829D01*
X115410963Y-36220744D01*
X115417726Y-36233330D01*
X115461200Y-36326561D01*
X115463414Y-36331593D01*
X115496603Y-36411719D01*
X115501901Y-36427326D01*
X115530057Y-36532406D01*
X115530869Y-36535604D01*
X115549724Y-36614144D01*
X115552725Y-36632574D01*
X115564981Y-36772647D01*
X115565072Y-36773743D01*
X115569111Y-36825057D01*
X115569500Y-36834944D01*
X115569500Y-88895055D01*
X115569111Y-88904942D01*
X115565072Y-88956255D01*
X115564981Y-88957351D01*
X115552725Y-89097424D01*
X115549724Y-89115854D01*
X115530869Y-89194394D01*
X115530057Y-89197592D01*
X115501901Y-89302672D01*
X115496603Y-89318279D01*
X115463414Y-89398405D01*
X115461200Y-89403437D01*
X115417726Y-89496668D01*
X115410963Y-89509254D01*
X115364482Y-89585103D01*
X115360263Y-89591538D01*
X115302472Y-89674071D01*
X115295070Y-89683630D01*
X115236746Y-89751919D01*
X115230030Y-89759184D01*
X115159184Y-89830030D01*
X115151919Y-89836746D01*
X115083630Y-89895070D01*
X115074071Y-89902472D01*
X114991538Y-89960263D01*
X114985103Y-89964482D01*
X114909254Y-90010963D01*
X114896668Y-90017726D01*
X114803437Y-90061200D01*
X114798405Y-90063414D01*
X114718279Y-90096603D01*
X114702672Y-90101901D01*
X114597592Y-90130057D01*
X114594394Y-90130869D01*
X114515854Y-90149724D01*
X114497424Y-90152725D01*
X114357351Y-90164981D01*
X114356255Y-90165072D01*
X114304942Y-90169111D01*
X114295055Y-90169500D01*
X69951295Y-90169500D01*
X69883174Y-90149498D01*
X69836681Y-90095842D01*
X69826577Y-90025568D01*
X69856071Y-89960988D01*
X69862193Y-89954411D01*
X69869379Y-89947224D01*
X69884424Y-89934374D01*
X69900807Y-89922472D01*
X69929003Y-89888386D01*
X69936972Y-89879630D01*
X73134837Y-86681765D01*
X110159788Y-86681765D01*
X110189412Y-86951014D01*
X110257928Y-87213090D01*
X110363869Y-87462389D01*
X110408923Y-87536211D01*
X110504982Y-87693610D01*
X110678255Y-87901820D01*
X110678257Y-87901822D01*
X110678259Y-87901824D01*
X110757690Y-87972994D01*
X110879998Y-88082582D01*
X111105910Y-88232044D01*
X111351176Y-88347020D01*
X111610569Y-88425060D01*
X111610572Y-88425060D01*
X111610574Y-88425061D01*
X111878557Y-88464500D01*
X111878561Y-88464500D01*
X112081631Y-88464500D01*
X112284156Y-88449677D01*
X112284160Y-88449676D01*
X112284161Y-88449676D01*
X112394665Y-88425060D01*
X112548553Y-88390780D01*
X112801558Y-88294014D01*
X113037777Y-88161441D01*
X113252177Y-87995888D01*
X113440186Y-87800881D01*
X113597799Y-87580579D01*
X113599789Y-87576710D01*
X113721656Y-87339675D01*
X113721657Y-87339672D01*
X113734982Y-87300614D01*
X113809118Y-87083305D01*
X113840331Y-86914321D01*
X113858318Y-86816941D01*
X113858319Y-86816930D01*
X113861548Y-86728574D01*
X113868212Y-86546235D01*
X113845338Y-86338343D01*
X113838587Y-86276985D01*
X113794498Y-86108342D01*
X113770072Y-86014912D01*
X113764240Y-86001189D01*
X113664130Y-85765610D01*
X113647764Y-85738793D01*
X113523018Y-85534390D01*
X113349745Y-85326180D01*
X113349741Y-85326177D01*
X113349740Y-85326175D01*
X113148012Y-85145427D01*
X113148002Y-85145418D01*
X112922090Y-84995956D01*
X112676824Y-84880980D01*
X112470606Y-84818938D01*
X112417425Y-84802938D01*
X112149442Y-84763500D01*
X112149439Y-84763500D01*
X111946369Y-84763500D01*
X111743839Y-84778323D01*
X111743838Y-84778323D01*
X111479456Y-84837217D01*
X111479441Y-84837222D01*
X111226441Y-84933986D01*
X110990229Y-85066555D01*
X110990225Y-85066557D01*
X110775818Y-85232116D01*
X110587815Y-85427117D01*
X110587810Y-85427123D01*
X110430203Y-85647417D01*
X110430196Y-85647427D01*
X110306343Y-85888324D01*
X110306342Y-85888327D01*
X110218883Y-86144689D01*
X110218880Y-86144702D01*
X110169681Y-86411058D01*
X110169680Y-86411069D01*
X110159788Y-86681765D01*
X73134837Y-86681765D01*
X86478227Y-73338375D01*
X86540537Y-73304351D01*
X86611352Y-73309416D01*
X86660022Y-73342135D01*
X86703435Y-73389295D01*
X86706760Y-73392906D01*
X86706764Y-73392909D01*
X86706765Y-73392910D01*
X86802526Y-73467445D01*
X86884424Y-73531189D01*
X86917680Y-73549186D01*
X86968071Y-73599200D01*
X86983423Y-73668516D01*
X86958862Y-73735129D01*
X86917680Y-73770814D01*
X86884426Y-73788810D01*
X86884424Y-73788811D01*
X86706762Y-73927091D01*
X86554279Y-74092729D01*
X86554275Y-74092734D01*
X86431141Y-74281206D01*
X86340703Y-74487386D01*
X86340702Y-74487387D01*
X86285437Y-74705624D01*
X86285436Y-74705630D01*
X86285436Y-74705632D01*
X86266844Y-74930000D01*
X86285200Y-75151521D01*
X86285437Y-75154375D01*
X86340702Y-75372612D01*
X86340703Y-75372613D01*
X86340704Y-75372616D01*
X86428677Y-75573176D01*
X86431141Y-75578793D01*
X86554275Y-75767265D01*
X86554279Y-75767270D01*
X86706762Y-75932908D01*
X86710356Y-75935705D01*
X86884424Y-76071189D01*
X86917678Y-76089185D01*
X86917680Y-76089186D01*
X86968071Y-76139200D01*
X86983423Y-76208516D01*
X86958862Y-76275129D01*
X86917680Y-76310814D01*
X86884426Y-76328810D01*
X86884424Y-76328811D01*
X86706762Y-76467091D01*
X86554279Y-76632729D01*
X86554275Y-76632734D01*
X86431141Y-76821206D01*
X86340703Y-77027386D01*
X86340702Y-77027387D01*
X86285437Y-77245624D01*
X86285436Y-77245630D01*
X86285436Y-77245632D01*
X86266844Y-77470000D01*
X86285165Y-77691100D01*
X86285437Y-77694375D01*
X86340702Y-77912612D01*
X86340703Y-77912613D01*
X86340704Y-77912616D01*
X86428167Y-78112014D01*
X86431141Y-78118793D01*
X86554275Y-78307265D01*
X86554278Y-78307268D01*
X86614831Y-78373045D01*
X86697475Y-78462820D01*
X86728896Y-78526485D01*
X86720909Y-78597031D01*
X86676051Y-78652060D01*
X86648807Y-78666213D01*
X86533797Y-78709110D01*
X86533792Y-78709112D01*
X86416738Y-78796738D01*
X86329112Y-78913792D01*
X86329110Y-78913797D01*
X86278011Y-79050795D01*
X86278009Y-79050803D01*
X86271500Y-79111350D01*
X86271500Y-80908649D01*
X86278009Y-80969196D01*
X86278011Y-80969204D01*
X86329110Y-81106202D01*
X86329112Y-81106207D01*
X86416738Y-81223261D01*
X86533791Y-81310886D01*
X86533792Y-81310886D01*
X86533796Y-81310889D01*
X86648810Y-81353787D01*
X86705642Y-81396332D01*
X86730453Y-81462852D01*
X86715362Y-81532226D01*
X86697475Y-81557179D01*
X86554280Y-81712729D01*
X86554275Y-81712734D01*
X86431141Y-81901206D01*
X86340703Y-82107386D01*
X86340702Y-82107387D01*
X86285437Y-82325624D01*
X86285436Y-82325630D01*
X86285436Y-82325632D01*
X86266844Y-82550000D01*
X86279087Y-82697753D01*
X86285437Y-82774375D01*
X86340702Y-82992612D01*
X86340703Y-82992613D01*
X86340704Y-82992616D01*
X86372899Y-83066014D01*
X86431141Y-83198793D01*
X86554275Y-83387265D01*
X86554279Y-83387270D01*
X86706762Y-83552908D01*
X86734393Y-83574414D01*
X86884424Y-83691189D01*
X86917678Y-83709185D01*
X86917680Y-83709186D01*
X86968071Y-83759200D01*
X86983423Y-83828516D01*
X86958862Y-83895129D01*
X86917680Y-83930813D01*
X86884428Y-83948809D01*
X86884426Y-83948810D01*
X86884424Y-83948811D01*
X86706762Y-84087091D01*
X86554279Y-84252729D01*
X86554275Y-84252734D01*
X86431141Y-84441206D01*
X86340703Y-84647386D01*
X86340702Y-84647387D01*
X86285437Y-84865624D01*
X86285436Y-84865630D01*
X86285436Y-84865632D01*
X86266844Y-85090000D01*
X86284462Y-85302616D01*
X86285437Y-85314375D01*
X86340702Y-85532612D01*
X86340703Y-85532613D01*
X86340704Y-85532616D01*
X86419712Y-85712738D01*
X86431141Y-85738793D01*
X86554275Y-85927265D01*
X86554279Y-85927270D01*
X86706762Y-86092908D01*
X86736206Y-86115825D01*
X86884424Y-86231189D01*
X87082426Y-86338342D01*
X87082427Y-86338342D01*
X87082428Y-86338343D01*
X87173949Y-86369762D01*
X87295365Y-86411444D01*
X87517431Y-86448500D01*
X87517435Y-86448500D01*
X87742565Y-86448500D01*
X87742569Y-86448500D01*
X87964635Y-86411444D01*
X88177574Y-86338342D01*
X88375576Y-86231189D01*
X88553240Y-86092906D01*
X88705722Y-85927268D01*
X88828860Y-85738791D01*
X88919296Y-85532616D01*
X88974564Y-85314368D01*
X88993156Y-85090000D01*
X88974564Y-84865632D01*
X88971117Y-84852019D01*
X88919297Y-84647387D01*
X88919296Y-84647386D01*
X88919296Y-84647384D01*
X88828860Y-84441209D01*
X88779005Y-84364900D01*
X88705724Y-84252734D01*
X88705720Y-84252729D01*
X88553237Y-84087091D01*
X88389865Y-83959933D01*
X88375576Y-83948811D01*
X88342319Y-83930813D01*
X88291929Y-83880802D01*
X88276576Y-83811485D01*
X88301136Y-83744872D01*
X88342320Y-83709186D01*
X88342322Y-83709185D01*
X88375576Y-83691189D01*
X88553240Y-83552906D01*
X88705722Y-83387268D01*
X88828860Y-83198791D01*
X88919296Y-82992616D01*
X88974564Y-82774368D01*
X88993156Y-82550000D01*
X88974564Y-82325632D01*
X88962086Y-82276359D01*
X88919297Y-82107387D01*
X88919296Y-82107386D01*
X88919296Y-82107384D01*
X88828860Y-81901209D01*
X88790933Y-81843157D01*
X88705724Y-81712734D01*
X88705719Y-81712729D01*
X88644750Y-81646500D01*
X88562524Y-81557179D01*
X88531103Y-81493514D01*
X88539090Y-81422968D01*
X88583948Y-81367939D01*
X88611183Y-81353789D01*
X88726204Y-81310889D01*
X88756082Y-81288523D01*
X88843261Y-81223261D01*
X88930887Y-81106207D01*
X88930887Y-81106206D01*
X88930889Y-81106204D01*
X88981989Y-80969201D01*
X88988500Y-80908638D01*
X88988500Y-79299894D01*
X89008502Y-79231773D01*
X89062158Y-79185280D01*
X89132432Y-79175176D01*
X89197012Y-79204670D01*
X89203595Y-79210799D01*
X93424562Y-83431766D01*
X93458588Y-83494078D01*
X93453523Y-83564893D01*
X93410976Y-83621729D01*
X93395437Y-83631674D01*
X93234430Y-83718807D01*
X93234424Y-83718811D01*
X93056762Y-83857091D01*
X92904279Y-84022729D01*
X92904275Y-84022734D01*
X92781141Y-84211206D01*
X92690703Y-84417386D01*
X92690702Y-84417387D01*
X92635437Y-84635624D01*
X92635436Y-84635630D01*
X92635436Y-84635632D01*
X92616844Y-84860000D01*
X92635120Y-85080556D01*
X92635437Y-85084375D01*
X92690702Y-85302612D01*
X92690703Y-85302613D01*
X92690704Y-85302616D01*
X92762681Y-85466708D01*
X92781141Y-85508793D01*
X92904275Y-85697265D01*
X92904279Y-85697270D01*
X92972511Y-85771388D01*
X93056605Y-85862738D01*
X93056762Y-85862908D01*
X93098653Y-85895513D01*
X93234424Y-86001189D01*
X93432426Y-86108342D01*
X93432427Y-86108342D01*
X93432428Y-86108343D01*
X93538301Y-86144689D01*
X93645365Y-86181444D01*
X93867431Y-86218500D01*
X93867435Y-86218500D01*
X94092565Y-86218500D01*
X94092569Y-86218500D01*
X94314635Y-86181444D01*
X94527574Y-86108342D01*
X94725576Y-86001189D01*
X94903240Y-85862906D01*
X94964245Y-85796637D01*
X95025096Y-85760067D01*
X95096061Y-85762200D01*
X95154606Y-85802362D01*
X95175000Y-85837941D01*
X95219111Y-85956204D01*
X95219112Y-85956207D01*
X95306738Y-86073261D01*
X95423792Y-86160887D01*
X95423794Y-86160888D01*
X95423796Y-86160889D01*
X95478900Y-86181442D01*
X95560795Y-86211988D01*
X95560803Y-86211990D01*
X95621350Y-86218499D01*
X95621355Y-86218499D01*
X95621362Y-86218500D01*
X95621368Y-86218500D01*
X97418632Y-86218500D01*
X97418638Y-86218500D01*
X97418645Y-86218499D01*
X97418649Y-86218499D01*
X97479196Y-86211990D01*
X97479199Y-86211989D01*
X97479201Y-86211989D01*
X97616204Y-86160889D01*
X97637828Y-86144702D01*
X97733261Y-86073261D01*
X97820886Y-85956208D01*
X97820885Y-85956208D01*
X97820889Y-85956204D01*
X97864999Y-85837939D01*
X97907545Y-85781107D01*
X97974066Y-85756296D01*
X98043440Y-85771388D01*
X98075753Y-85796635D01*
X98136760Y-85862906D01*
X98136762Y-85862908D01*
X98178653Y-85895513D01*
X98314424Y-86001189D01*
X98512426Y-86108342D01*
X98512427Y-86108342D01*
X98512428Y-86108343D01*
X98618301Y-86144689D01*
X98725365Y-86181444D01*
X98947431Y-86218500D01*
X98947435Y-86218500D01*
X99172565Y-86218500D01*
X99172569Y-86218500D01*
X99394635Y-86181444D01*
X99607574Y-86108342D01*
X99805576Y-86001189D01*
X99983240Y-85862906D01*
X100135722Y-85697268D01*
X100258860Y-85508791D01*
X100349296Y-85302616D01*
X100404564Y-85084368D01*
X100423156Y-84860000D01*
X100404564Y-84635632D01*
X100385478Y-84560262D01*
X100349297Y-84417387D01*
X100349296Y-84417386D01*
X100349296Y-84417384D01*
X100258860Y-84211209D01*
X100228638Y-84164951D01*
X100135724Y-84022734D01*
X100135720Y-84022729D01*
X100006220Y-83882057D01*
X99983240Y-83857094D01*
X99983239Y-83857093D01*
X99983237Y-83857091D01*
X99863367Y-83763792D01*
X99805576Y-83718811D01*
X99607574Y-83611658D01*
X99607572Y-83611657D01*
X99607571Y-83611656D01*
X99394639Y-83538557D01*
X99394630Y-83538555D01*
X99325161Y-83526963D01*
X99172569Y-83501500D01*
X98947431Y-83501500D01*
X98799211Y-83526233D01*
X98725369Y-83538555D01*
X98725360Y-83538557D01*
X98512428Y-83611656D01*
X98512426Y-83611658D01*
X98314432Y-83718807D01*
X98314426Y-83718810D01*
X98314424Y-83718811D01*
X98136762Y-83857091D01*
X98075754Y-83923363D01*
X98014901Y-83959933D01*
X97943936Y-83957798D01*
X97885391Y-83917636D01*
X97864999Y-83882057D01*
X97823798Y-83771595D01*
X97820889Y-83763796D01*
X97820888Y-83763794D01*
X97820887Y-83763792D01*
X97733261Y-83646738D01*
X97616207Y-83559112D01*
X97616202Y-83559110D01*
X97479204Y-83508011D01*
X97479196Y-83508009D01*
X97418649Y-83501500D01*
X97418638Y-83501500D01*
X95621362Y-83501500D01*
X95621350Y-83501500D01*
X95560803Y-83508009D01*
X95560802Y-83508010D01*
X95560799Y-83508010D01*
X95560799Y-83508011D01*
X95441338Y-83552568D01*
X95370523Y-83557633D01*
X95308213Y-83523609D01*
X89475705Y-77691100D01*
X89441679Y-77628788D01*
X89438800Y-77602005D01*
X89438800Y-69377055D01*
X89440549Y-69361214D01*
X89440256Y-69361187D01*
X89441001Y-69353294D01*
X89441002Y-69353291D01*
X89438862Y-69285213D01*
X89438800Y-69281254D01*
X89438800Y-69253349D01*
X89438800Y-69253344D01*
X89438292Y-69249330D01*
X89437361Y-69237497D01*
X89435973Y-69193310D01*
X89430322Y-69173863D01*
X89426312Y-69154500D01*
X89424421Y-69139526D01*
X89423774Y-69134403D01*
X89407495Y-69093290D01*
X89403653Y-69082069D01*
X89391318Y-69039607D01*
X89381006Y-69022170D01*
X89372310Y-69004421D01*
X89364852Y-68985583D01*
X89338852Y-68949798D01*
X89332359Y-68939914D01*
X89309842Y-68901838D01*
X89295514Y-68887510D01*
X89282684Y-68872489D01*
X89270772Y-68856093D01*
X89270769Y-68856091D01*
X89270769Y-68856090D01*
X89236694Y-68827900D01*
X89227916Y-68819912D01*
X88956375Y-68548371D01*
X88922349Y-68486059D01*
X88927414Y-68415244D01*
X88927973Y-68414018D01*
X88930886Y-68406207D01*
X88930889Y-68406204D01*
X88981989Y-68269201D01*
X88982685Y-68262732D01*
X88988499Y-68208649D01*
X88988500Y-68208632D01*
X88988500Y-66411367D01*
X88988499Y-66411350D01*
X88981990Y-66350803D01*
X88981988Y-66350795D01*
X88927740Y-66205353D01*
X88931175Y-66204071D01*
X88919790Y-66151736D01*
X88944600Y-66085216D01*
X88956367Y-66071635D01*
X89193957Y-65834045D01*
X89206392Y-65824084D01*
X89206205Y-65823857D01*
X89212316Y-65818801D01*
X89212315Y-65818801D01*
X89212318Y-65818800D01*
X89258976Y-65769112D01*
X89261667Y-65766335D01*
X89281434Y-65746570D01*
X89283917Y-65743367D01*
X89291608Y-65734362D01*
X89321886Y-65702121D01*
X89331645Y-65684367D01*
X89342497Y-65667846D01*
X89354913Y-65651841D01*
X89372468Y-65611270D01*
X89377692Y-65600608D01*
X89398995Y-65561860D01*
X89404033Y-65542235D01*
X89410438Y-65523530D01*
X89418481Y-65504945D01*
X89425396Y-65461281D01*
X89427804Y-65449652D01*
X89438800Y-65406830D01*
X89438800Y-65386575D01*
X89440351Y-65366863D01*
X89441157Y-65361774D01*
X89443520Y-65346857D01*
X89439359Y-65302836D01*
X89438800Y-65290979D01*
X89438800Y-56677154D01*
X89440549Y-56661312D01*
X89440256Y-56661285D01*
X89441000Y-56653399D01*
X89441002Y-56653392D01*
X89438862Y-56585300D01*
X89438800Y-56581342D01*
X89438800Y-56553450D01*
X89438800Y-56553444D01*
X89438293Y-56549435D01*
X89437362Y-56537606D01*
X89437127Y-56530125D01*
X89435974Y-56493411D01*
X89430320Y-56473952D01*
X89426312Y-56454597D01*
X89423774Y-56434503D01*
X89407495Y-56393387D01*
X89403656Y-56382172D01*
X89402242Y-56377306D01*
X89391319Y-56339707D01*
X89381003Y-56322264D01*
X89372305Y-56304509D01*
X89364852Y-56285683D01*
X89338863Y-56249912D01*
X89332352Y-56240000D01*
X89309842Y-56201938D01*
X89295514Y-56187610D01*
X89282684Y-56172589D01*
X89270772Y-56156193D01*
X89270769Y-56156191D01*
X89270769Y-56156190D01*
X89236694Y-56128000D01*
X89227916Y-56120012D01*
X88956339Y-55848435D01*
X88922313Y-55786123D01*
X88927378Y-55715308D01*
X88927999Y-55713949D01*
X88930886Y-55706207D01*
X88930889Y-55706204D01*
X88981989Y-55569201D01*
X88984118Y-55549405D01*
X88988499Y-55508649D01*
X88988500Y-55508632D01*
X88988500Y-54980894D01*
X89008502Y-54912773D01*
X89062158Y-54866280D01*
X89132432Y-54856176D01*
X89197012Y-54885670D01*
X89203595Y-54891799D01*
X102178795Y-67866999D01*
X102212821Y-67929311D01*
X102215700Y-67956094D01*
X102215700Y-71477346D01*
X102213951Y-71493188D01*
X102214244Y-71493216D01*
X102213498Y-71501107D01*
X102215638Y-71569184D01*
X102215700Y-71573143D01*
X102215700Y-71601051D01*
X102215701Y-71601069D01*
X102216207Y-71605077D01*
X102217137Y-71616896D01*
X102218526Y-71661088D01*
X102218527Y-71661093D01*
X102224177Y-71680539D01*
X102228186Y-71699897D01*
X102230725Y-71719993D01*
X102230726Y-71720000D01*
X102247000Y-71761103D01*
X102250844Y-71772329D01*
X102263182Y-71814793D01*
X102273494Y-71832231D01*
X102282188Y-71849979D01*
X102289644Y-71868809D01*
X102289650Y-71868820D01*
X102315632Y-71904581D01*
X102322149Y-71914501D01*
X102344658Y-71952562D01*
X102344659Y-71952563D01*
X102344661Y-71952566D01*
X102358979Y-71966884D01*
X102371817Y-71981914D01*
X102383726Y-71998304D01*
X102383730Y-71998309D01*
X102417798Y-72026492D01*
X102426578Y-72034482D01*
X104321490Y-73929394D01*
X104355516Y-73991706D01*
X104350451Y-74062521D01*
X104336324Y-74087844D01*
X104337128Y-74088369D01*
X104211141Y-74281206D01*
X104120703Y-74487386D01*
X104120702Y-74487387D01*
X104065437Y-74705624D01*
X104065436Y-74705630D01*
X104065436Y-74705632D01*
X104046844Y-74930000D01*
X104065200Y-75151521D01*
X104065437Y-75154375D01*
X104120702Y-75372612D01*
X104120703Y-75372613D01*
X104120704Y-75372616D01*
X104208677Y-75573176D01*
X104211141Y-75578793D01*
X104334275Y-75767265D01*
X104334279Y-75767270D01*
X104486762Y-75932908D01*
X104490356Y-75935705D01*
X104664424Y-76071189D01*
X104689165Y-76084578D01*
X104697678Y-76089185D01*
X104748069Y-76139197D01*
X104763422Y-76208514D01*
X104738862Y-76275127D01*
X104697683Y-76310811D01*
X104664426Y-76328809D01*
X104664424Y-76328811D01*
X104486762Y-76467091D01*
X104334279Y-76632729D01*
X104334275Y-76632734D01*
X104211141Y-76821206D01*
X104120703Y-77027386D01*
X104120702Y-77027387D01*
X104065437Y-77245624D01*
X104065436Y-77245630D01*
X104065436Y-77245632D01*
X104046844Y-77470000D01*
X104065165Y-77691100D01*
X104065437Y-77694375D01*
X104120702Y-77912612D01*
X104120703Y-77912613D01*
X104120704Y-77912616D01*
X104208167Y-78112014D01*
X104211141Y-78118793D01*
X104334275Y-78307265D01*
X104334278Y-78307268D01*
X104394831Y-78373045D01*
X104477475Y-78462820D01*
X104508896Y-78526485D01*
X104500909Y-78597031D01*
X104456051Y-78652060D01*
X104428807Y-78666213D01*
X104313797Y-78709110D01*
X104313792Y-78709112D01*
X104196738Y-78796738D01*
X104109112Y-78913792D01*
X104109110Y-78913797D01*
X104058011Y-79050795D01*
X104058009Y-79050803D01*
X104051500Y-79111350D01*
X104051500Y-80908649D01*
X104058009Y-80969196D01*
X104058011Y-80969204D01*
X104109110Y-81106202D01*
X104109112Y-81106207D01*
X104196738Y-81223261D01*
X104313791Y-81310886D01*
X104313792Y-81310886D01*
X104313796Y-81310889D01*
X104428810Y-81353787D01*
X104485642Y-81396332D01*
X104510453Y-81462852D01*
X104495362Y-81532226D01*
X104477475Y-81557179D01*
X104334280Y-81712729D01*
X104334275Y-81712734D01*
X104211141Y-81901206D01*
X104120703Y-82107386D01*
X104120702Y-82107387D01*
X104065437Y-82325624D01*
X104065436Y-82325630D01*
X104065436Y-82325632D01*
X104046844Y-82550000D01*
X104059087Y-82697753D01*
X104065437Y-82774375D01*
X104120702Y-82992612D01*
X104120703Y-82992613D01*
X104120704Y-82992616D01*
X104152899Y-83066014D01*
X104211141Y-83198793D01*
X104334275Y-83387265D01*
X104334279Y-83387270D01*
X104486762Y-83552908D01*
X104514393Y-83574414D01*
X104664424Y-83691189D01*
X104664430Y-83691192D01*
X104697678Y-83709185D01*
X104748069Y-83759197D01*
X104763422Y-83828514D01*
X104738862Y-83895127D01*
X104697683Y-83930811D01*
X104664426Y-83948809D01*
X104664424Y-83948811D01*
X104486762Y-84087091D01*
X104334279Y-84252729D01*
X104334275Y-84252734D01*
X104211141Y-84441206D01*
X104120703Y-84647386D01*
X104120702Y-84647387D01*
X104065437Y-84865624D01*
X104065436Y-84865630D01*
X104065436Y-84865632D01*
X104046844Y-85090000D01*
X104064462Y-85302616D01*
X104065437Y-85314375D01*
X104120702Y-85532612D01*
X104120703Y-85532613D01*
X104120704Y-85532616D01*
X104199712Y-85712738D01*
X104211141Y-85738793D01*
X104334275Y-85927265D01*
X104334279Y-85927270D01*
X104486762Y-86092908D01*
X104516206Y-86115825D01*
X104664424Y-86231189D01*
X104862426Y-86338342D01*
X104862427Y-86338342D01*
X104862428Y-86338343D01*
X104953949Y-86369762D01*
X105075365Y-86411444D01*
X105297431Y-86448500D01*
X105297435Y-86448500D01*
X105522565Y-86448500D01*
X105522569Y-86448500D01*
X105744635Y-86411444D01*
X105957574Y-86338342D01*
X106155576Y-86231189D01*
X106333240Y-86092906D01*
X106485722Y-85927268D01*
X106608860Y-85738791D01*
X106699296Y-85532616D01*
X106754564Y-85314368D01*
X106773156Y-85090000D01*
X106754564Y-84865632D01*
X106751117Y-84852019D01*
X106699297Y-84647387D01*
X106699296Y-84647386D01*
X106699296Y-84647384D01*
X106608860Y-84441209D01*
X106559005Y-84364900D01*
X106482872Y-84248369D01*
X106484728Y-84247155D01*
X106462115Y-84189830D01*
X106475905Y-84120186D01*
X106498506Y-84089397D01*
X107879960Y-82707943D01*
X107892398Y-82697980D01*
X107892210Y-82697753D01*
X107898316Y-82692701D01*
X107898315Y-82692701D01*
X107898318Y-82692700D01*
X107944962Y-82643027D01*
X107947652Y-82640251D01*
X107967435Y-82620470D01*
X107969914Y-82617273D01*
X107977611Y-82608259D01*
X108007886Y-82576021D01*
X108017646Y-82558265D01*
X108028495Y-82541750D01*
X108040914Y-82525741D01*
X108058479Y-82485146D01*
X108063684Y-82474521D01*
X108084995Y-82435760D01*
X108090033Y-82416134D01*
X108096437Y-82397432D01*
X108104480Y-82378847D01*
X108104479Y-82378847D01*
X108104481Y-82378845D01*
X108111396Y-82335181D01*
X108113804Y-82323552D01*
X108124800Y-82280730D01*
X108124800Y-82260475D01*
X108126351Y-82240763D01*
X108129520Y-82220757D01*
X108125359Y-82176736D01*
X108124800Y-82164879D01*
X108124800Y-49974154D01*
X108126549Y-49958312D01*
X108126256Y-49958285D01*
X108127000Y-49950399D01*
X108127002Y-49950392D01*
X108124862Y-49882300D01*
X108124800Y-49878342D01*
X108124800Y-49850450D01*
X108124800Y-49850444D01*
X108124293Y-49846435D01*
X108123362Y-49834606D01*
X108121974Y-49790411D01*
X108116317Y-49770942D01*
X108112312Y-49751598D01*
X108109774Y-49731503D01*
X108093496Y-49690392D01*
X108089656Y-49679177D01*
X108077318Y-49636707D01*
X108067006Y-49619270D01*
X108058310Y-49601521D01*
X108050852Y-49582683D01*
X108024852Y-49546898D01*
X108018359Y-49537014D01*
X107995842Y-49498938D01*
X107981514Y-49484610D01*
X107968684Y-49469589D01*
X107956772Y-49453193D01*
X107956769Y-49453191D01*
X107956769Y-49453190D01*
X107922700Y-49425005D01*
X107913921Y-49417017D01*
X107706104Y-49209199D01*
X107672079Y-49146887D01*
X107669200Y-49120104D01*
X107669200Y-41459449D01*
X107670949Y-41443612D01*
X107670655Y-41443585D01*
X107671401Y-41435692D01*
X107669262Y-41367631D01*
X107669200Y-41363673D01*
X107669200Y-41335751D01*
X107669200Y-41335744D01*
X107668691Y-41331723D01*
X107667761Y-41319896D01*
X107667712Y-41318323D01*
X107666373Y-41275710D01*
X107660722Y-41256263D01*
X107656712Y-41236900D01*
X107656335Y-41233913D01*
X107654174Y-41216803D01*
X107637892Y-41175681D01*
X107634058Y-41164482D01*
X107621718Y-41122006D01*
X107611400Y-41104561D01*
X107602705Y-41086809D01*
X107595253Y-41067985D01*
X107595250Y-41067979D01*
X107569264Y-41032213D01*
X107562745Y-41022289D01*
X107562521Y-41021911D01*
X107542234Y-40987605D01*
X107540241Y-40984235D01*
X107525918Y-40969912D01*
X107513077Y-40954879D01*
X107501171Y-40938492D01*
X107467105Y-40910310D01*
X107458326Y-40902321D01*
X106902044Y-40346039D01*
X106892079Y-40333601D01*
X106891852Y-40333790D01*
X106886801Y-40327684D01*
X106886800Y-40327682D01*
X106878800Y-40320170D01*
X106837149Y-40281057D01*
X106834305Y-40278300D01*
X106814577Y-40258571D01*
X106814571Y-40258566D01*
X106811367Y-40256080D01*
X106802356Y-40248383D01*
X106770125Y-40218117D01*
X106770119Y-40218113D01*
X106752363Y-40208351D01*
X106735847Y-40197502D01*
X106719841Y-40185086D01*
X106681468Y-40168481D01*
X106626896Y-40123073D01*
X106605535Y-40055366D01*
X106616122Y-40002234D01*
X106699296Y-39812616D01*
X106754564Y-39594368D01*
X106773156Y-39370000D01*
X106757724Y-39183765D01*
X110159788Y-39183765D01*
X110189412Y-39453014D01*
X110257928Y-39715090D01*
X110363869Y-39964389D01*
X110397072Y-40018793D01*
X110504982Y-40195610D01*
X110678255Y-40403820D01*
X110678257Y-40403822D01*
X110678259Y-40403824D01*
X110755556Y-40473082D01*
X110879998Y-40584582D01*
X111105910Y-40734044D01*
X111351176Y-40849020D01*
X111610569Y-40927060D01*
X111610572Y-40927060D01*
X111610574Y-40927061D01*
X111878557Y-40966500D01*
X111878561Y-40966500D01*
X112081631Y-40966500D01*
X112284156Y-40951677D01*
X112284160Y-40951676D01*
X112284161Y-40951676D01*
X112469858Y-40910310D01*
X112548553Y-40892780D01*
X112801558Y-40796014D01*
X113037777Y-40663441D01*
X113252177Y-40497888D01*
X113440186Y-40302881D01*
X113597799Y-40082579D01*
X113599853Y-40078585D01*
X113721656Y-39841675D01*
X113721657Y-39841672D01*
X113740785Y-39785603D01*
X113809118Y-39585305D01*
X113839256Y-39422139D01*
X113858318Y-39318941D01*
X113858319Y-39318930D01*
X113859657Y-39282313D01*
X113868212Y-39048235D01*
X113852482Y-38905270D01*
X113838587Y-38778985D01*
X113779387Y-38552542D01*
X113770072Y-38516912D01*
X113768611Y-38513475D01*
X113664130Y-38267610D01*
X113652226Y-38248105D01*
X113523018Y-38036390D01*
X113349745Y-37828180D01*
X113349741Y-37828177D01*
X113349740Y-37828175D01*
X113148012Y-37647427D01*
X113148002Y-37647418D01*
X112922090Y-37497956D01*
X112676824Y-37382980D01*
X112482120Y-37324402D01*
X112417425Y-37304938D01*
X112149442Y-37265500D01*
X112149439Y-37265500D01*
X111946369Y-37265500D01*
X111743839Y-37280323D01*
X111743838Y-37280323D01*
X111479456Y-37339217D01*
X111479441Y-37339222D01*
X111226441Y-37435986D01*
X110990229Y-37568555D01*
X110990225Y-37568557D01*
X110880274Y-37653458D01*
X110818502Y-37701157D01*
X110775818Y-37734116D01*
X110587815Y-37929117D01*
X110587810Y-37929123D01*
X110430203Y-38149417D01*
X110430196Y-38149427D01*
X110306343Y-38390324D01*
X110306342Y-38390327D01*
X110218883Y-38646689D01*
X110218880Y-38646702D01*
X110169681Y-38913058D01*
X110169680Y-38913069D01*
X110159788Y-39183765D01*
X106757724Y-39183765D01*
X106754564Y-39145632D01*
X106739869Y-39087601D01*
X106699297Y-38927387D01*
X106699296Y-38927386D01*
X106699296Y-38927384D01*
X106608860Y-38721209D01*
X106587167Y-38688005D01*
X106485724Y-38532734D01*
X106485720Y-38532729D01*
X106344938Y-38379801D01*
X106333240Y-38367094D01*
X106333239Y-38367093D01*
X106333237Y-38367091D01*
X106212128Y-38272828D01*
X106155576Y-38228811D01*
X106121792Y-38210528D01*
X106071402Y-38160516D01*
X106056050Y-38091199D01*
X106080610Y-38024586D01*
X106121793Y-37988901D01*
X106155300Y-37970767D01*
X106155301Y-37970767D01*
X106332902Y-37832534D01*
X106485325Y-37666958D01*
X106608419Y-37478548D01*
X106698820Y-37272456D01*
X106698823Y-37272449D01*
X106746544Y-37084000D01*
X105853001Y-37084000D01*
X105878682Y-37044040D01*
X105920000Y-36903327D01*
X105920000Y-36756673D01*
X105878682Y-36615960D01*
X105853001Y-36576000D01*
X106746544Y-36576000D01*
X106746544Y-36575999D01*
X106698823Y-36387550D01*
X106698820Y-36387543D01*
X106608419Y-36181451D01*
X106485325Y-35993041D01*
X106332902Y-35827465D01*
X106279540Y-35785932D01*
X106238069Y-35728307D01*
X106234335Y-35657409D01*
X106269525Y-35595747D01*
X106332465Y-35562898D01*
X106356931Y-35560500D01*
X114295045Y-35560500D01*
X114304929Y-35560888D01*
G37*
%TD.AperFunction*%
%TA.AperFunction,Conductor*%
G36*
X75620930Y-76478002D02*
G01*
X75641904Y-76494905D01*
X75654999Y-76508000D01*
X76453001Y-76508000D01*
X76466096Y-76494905D01*
X76528408Y-76460879D01*
X76555191Y-76458000D01*
X77378000Y-76458000D01*
X77446121Y-76478002D01*
X77492614Y-76531658D01*
X77504000Y-76584000D01*
X77504000Y-76620005D01*
X77483998Y-76688126D01*
X77467095Y-76709100D01*
X77255100Y-76921095D01*
X77192788Y-76955121D01*
X77166005Y-76958000D01*
X76555191Y-76958000D01*
X76487070Y-76937998D01*
X76466096Y-76921095D01*
X76453001Y-76908000D01*
X75654999Y-76908000D01*
X75641904Y-76921095D01*
X75579592Y-76955121D01*
X75552809Y-76958000D01*
X74730000Y-76958000D01*
X74661879Y-76937998D01*
X74615386Y-76884342D01*
X74604000Y-76832000D01*
X74604000Y-76789094D01*
X74624002Y-76720973D01*
X74640905Y-76699999D01*
X74845999Y-76494905D01*
X74908311Y-76460879D01*
X74935094Y-76458000D01*
X75552809Y-76458000D01*
X75620930Y-76478002D01*
G37*
%TD.AperFunction*%
%TA.AperFunction,Conductor*%
G36*
X66672121Y-76212402D02*
G01*
X66718614Y-76266058D01*
X66730000Y-76318400D01*
X66730000Y-76458000D01*
X68186809Y-76458000D01*
X68254930Y-76478002D01*
X68275904Y-76494905D01*
X68288999Y-76508000D01*
X69087001Y-76508000D01*
X69100096Y-76494905D01*
X69162408Y-76460879D01*
X69189191Y-76458000D01*
X69703800Y-76458000D01*
X69771921Y-76478002D01*
X69818414Y-76531658D01*
X69829800Y-76584000D01*
X69829800Y-76682200D01*
X69809798Y-76750321D01*
X69756142Y-76796814D01*
X69703800Y-76808200D01*
X65444320Y-76808200D01*
X65376199Y-76788198D01*
X65329706Y-76734542D01*
X65319602Y-76664268D01*
X65349096Y-76599688D01*
X65380176Y-76573749D01*
X65395330Y-76564786D01*
X65402229Y-76560705D01*
X65419980Y-76552009D01*
X65438817Y-76544552D01*
X65474592Y-76518558D01*
X65484498Y-76512051D01*
X65522562Y-76489542D01*
X65536885Y-76475218D01*
X65551924Y-76462374D01*
X65553982Y-76460879D01*
X65568307Y-76450472D01*
X65596499Y-76416392D01*
X65604467Y-76407635D01*
X65782800Y-76229304D01*
X65845112Y-76195279D01*
X65871895Y-76192400D01*
X66604000Y-76192400D01*
X66672121Y-76212402D01*
G37*
%TD.AperFunction*%
%TA.AperFunction,Conductor*%
G36*
X80107001Y-69361791D02*
G01*
X80165145Y-69402530D01*
X80192034Y-69468238D01*
X80192700Y-69481172D01*
X80192700Y-73931304D01*
X80172698Y-73999425D01*
X80155795Y-74020399D01*
X78125641Y-76050552D01*
X78063329Y-76084578D01*
X77992513Y-76079513D01*
X77935678Y-76036966D01*
X77866904Y-75945095D01*
X77818926Y-75909180D01*
X77776379Y-75852345D01*
X77771314Y-75781529D01*
X77805339Y-75719217D01*
X77818922Y-75707446D01*
X77867261Y-75671261D01*
X77954889Y-75554204D01*
X78005989Y-75417201D01*
X78007199Y-75405953D01*
X78012499Y-75356649D01*
X78012500Y-75356632D01*
X78012500Y-74459367D01*
X78012499Y-74459350D01*
X78005990Y-74398803D01*
X78005989Y-74398799D01*
X77977578Y-74322629D01*
X77972513Y-74251817D01*
X77986516Y-74215597D01*
X77989427Y-74210556D01*
X78048442Y-74028928D01*
X78068404Y-73839000D01*
X78048442Y-73649072D01*
X77989427Y-73467444D01*
X77893940Y-73302056D01*
X77893938Y-73302054D01*
X77893934Y-73302048D01*
X77766155Y-73160135D01*
X77611652Y-73047882D01*
X77437188Y-72970206D01*
X77250387Y-72930500D01*
X77194495Y-72930500D01*
X77126374Y-72910498D01*
X77105399Y-72893595D01*
X76879198Y-72667393D01*
X76845173Y-72605081D01*
X76850238Y-72534265D01*
X76879197Y-72489205D01*
X79929557Y-69438845D01*
X79941992Y-69428884D01*
X79941805Y-69428657D01*
X79947916Y-69423601D01*
X79947915Y-69423601D01*
X79947918Y-69423600D01*
X79974849Y-69394920D01*
X80036061Y-69358954D01*
X80107001Y-69361791D01*
G37*
%TD.AperFunction*%
%TA.AperFunction,Conductor*%
G36*
X78882903Y-51878266D02*
G01*
X78927966Y-51907227D01*
X78937189Y-51916450D01*
X78937196Y-51916455D01*
X79080394Y-52001143D01*
X79080397Y-52001143D01*
X79080399Y-52001145D01*
X79240169Y-52047562D01*
X79277488Y-52050499D01*
X79277489Y-52050500D01*
X79277498Y-52050500D01*
X79791906Y-52050500D01*
X79860027Y-52070502D01*
X79881001Y-52087405D01*
X86518300Y-58724705D01*
X86552326Y-58787017D01*
X86547261Y-58857832D01*
X86534688Y-58882715D01*
X86431141Y-59041206D01*
X86340703Y-59247386D01*
X86340702Y-59247387D01*
X86285437Y-59465624D01*
X86285436Y-59465630D01*
X86285436Y-59465632D01*
X86266844Y-59690000D01*
X86282185Y-59875137D01*
X86285437Y-59914375D01*
X86340702Y-60132612D01*
X86340703Y-60132613D01*
X86340704Y-60132616D01*
X86431140Y-60338791D01*
X86431141Y-60338793D01*
X86554275Y-60527265D01*
X86554279Y-60527270D01*
X86706762Y-60692908D01*
X86747682Y-60724757D01*
X86884424Y-60831189D01*
X86917680Y-60849186D01*
X86968071Y-60899200D01*
X86983423Y-60968516D01*
X86958862Y-61035129D01*
X86917680Y-61070813D01*
X86884426Y-61088810D01*
X86884424Y-61088811D01*
X86706762Y-61227091D01*
X86554279Y-61392729D01*
X86554275Y-61392734D01*
X86431141Y-61581206D01*
X86340703Y-61787386D01*
X86340702Y-61787387D01*
X86285437Y-62005624D01*
X86285436Y-62005630D01*
X86285436Y-62005632D01*
X86266844Y-62230000D01*
X86284876Y-62447613D01*
X86285437Y-62454375D01*
X86340702Y-62672612D01*
X86340703Y-62672613D01*
X86340704Y-62672616D01*
X86430280Y-62876831D01*
X86431141Y-62878793D01*
X86557128Y-63071631D01*
X86555276Y-63072840D01*
X86577886Y-63130204D01*
X86564076Y-63199844D01*
X86541489Y-63230604D01*
X83534436Y-66237657D01*
X83522001Y-66247621D01*
X83522189Y-66247848D01*
X83516079Y-66252902D01*
X83469470Y-66302535D01*
X83466720Y-66305373D01*
X83446963Y-66325131D01*
X83444474Y-66328339D01*
X83436788Y-66337336D01*
X83406518Y-66369573D01*
X83406511Y-66369583D01*
X83396751Y-66387335D01*
X83385903Y-66403850D01*
X83373486Y-66419858D01*
X83355924Y-66460440D01*
X83350704Y-66471095D01*
X83329405Y-66509839D01*
X83329403Y-66509844D01*
X83324367Y-66529459D01*
X83317964Y-66548162D01*
X83309919Y-66566752D01*
X83303001Y-66610425D01*
X83300595Y-66622042D01*
X83289600Y-66664868D01*
X83289600Y-66685123D01*
X83288049Y-66704833D01*
X83284880Y-66724842D01*
X83289041Y-66768861D01*
X83289600Y-66780719D01*
X83289600Y-71507205D01*
X83269598Y-71575326D01*
X83252695Y-71596300D01*
X81674795Y-73174200D01*
X81612483Y-73208226D01*
X81541668Y-73203161D01*
X81484832Y-73160614D01*
X81460021Y-73094094D01*
X81459700Y-73085105D01*
X81459700Y-65472524D01*
X81479702Y-65404403D01*
X81492058Y-65388220D01*
X81565240Y-65306944D01*
X81660727Y-65141556D01*
X81719742Y-64959928D01*
X81739704Y-64770000D01*
X81719742Y-64580072D01*
X81660727Y-64398444D01*
X81565240Y-64233056D01*
X81565238Y-64233054D01*
X81565234Y-64233048D01*
X81437455Y-64091135D01*
X81282952Y-63978882D01*
X81108488Y-63901206D01*
X80921687Y-63861500D01*
X80730713Y-63861500D01*
X80543911Y-63901206D01*
X80369447Y-63978882D01*
X80214944Y-64091135D01*
X80087165Y-64233048D01*
X80087158Y-64233058D01*
X79991676Y-64398438D01*
X79991673Y-64398444D01*
X79990812Y-64401094D01*
X79932657Y-64580072D01*
X79912696Y-64770000D01*
X79932657Y-64959927D01*
X79947206Y-65004702D01*
X79991673Y-65141556D01*
X79991676Y-65141561D01*
X80081697Y-65297483D01*
X80087160Y-65306944D01*
X80160337Y-65388215D01*
X80191053Y-65452220D01*
X80192700Y-65472524D01*
X80192700Y-66441472D01*
X80172698Y-66509593D01*
X80119042Y-66556086D01*
X80048768Y-66566190D01*
X79986384Y-66538556D01*
X79972297Y-66526902D01*
X79963518Y-66518913D01*
X79698272Y-66253667D01*
X79664246Y-66191355D01*
X79667763Y-66124939D01*
X79708392Y-66002330D01*
X79708394Y-66002318D01*
X79718999Y-65898516D01*
X79719000Y-65898516D01*
X79719000Y-65852000D01*
X77253000Y-65852000D01*
X77253000Y-65860300D01*
X77232998Y-65928421D01*
X77179342Y-65974914D01*
X77127000Y-65986300D01*
X58503491Y-65986300D01*
X58435370Y-65966298D01*
X58414396Y-65949395D01*
X58383001Y-65918000D01*
X55916999Y-65918000D01*
X55885604Y-65949395D01*
X55823292Y-65983421D01*
X55796509Y-65986300D01*
X53334712Y-65986300D01*
X53283464Y-65975407D01*
X53268188Y-65968606D01*
X53268184Y-65968604D01*
X53153479Y-65944222D01*
X53091006Y-65910494D01*
X53059844Y-65859913D01*
X53051440Y-65834050D01*
X53005527Y-65692744D01*
X52910040Y-65527356D01*
X52836863Y-65446084D01*
X52806146Y-65382076D01*
X52804500Y-65361774D01*
X52804500Y-63398666D01*
X52824502Y-63330545D01*
X52853281Y-63299101D01*
X52855402Y-63297455D01*
X52855407Y-63297453D01*
X52855410Y-63297449D01*
X52856792Y-63296378D01*
X52922879Y-63270436D01*
X52992501Y-63284341D01*
X53011239Y-63296385D01*
X53012100Y-63297052D01*
X53155200Y-63381681D01*
X53314600Y-63427991D01*
X53314600Y-61770000D01*
X53334602Y-61701879D01*
X53388258Y-61655386D01*
X53440600Y-61644000D01*
X53696600Y-61644000D01*
X53764721Y-61664002D01*
X53811214Y-61717658D01*
X53822600Y-61770000D01*
X53822600Y-63427991D01*
X53981999Y-63381681D01*
X54125102Y-63297051D01*
X54242650Y-63179503D01*
X54242651Y-63179501D01*
X54327281Y-63036401D01*
X54373665Y-62876749D01*
X54376599Y-62839456D01*
X54376599Y-62073376D01*
X54396601Y-62005255D01*
X54450257Y-61958762D01*
X54520531Y-61948658D01*
X54576660Y-61971440D01*
X54619848Y-62002818D01*
X54794312Y-62080494D01*
X54981113Y-62120200D01*
X55037006Y-62120200D01*
X55105127Y-62140202D01*
X55126101Y-62157105D01*
X56782301Y-63813305D01*
X56816327Y-63875617D01*
X56811262Y-63946432D01*
X56768715Y-64003268D01*
X56702195Y-64028079D01*
X56693206Y-64028400D01*
X56338432Y-64028400D01*
X56270311Y-64008398D01*
X56223818Y-63954742D01*
X56213122Y-63915572D01*
X56210042Y-63886272D01*
X56197898Y-63848897D01*
X56151027Y-63704644D01*
X56055540Y-63539256D01*
X56055538Y-63539254D01*
X56055534Y-63539248D01*
X55927755Y-63397335D01*
X55773252Y-63285082D01*
X55598788Y-63207406D01*
X55411987Y-63167700D01*
X55221013Y-63167700D01*
X55034211Y-63207406D01*
X54859747Y-63285082D01*
X54705244Y-63397335D01*
X54577465Y-63539248D01*
X54577458Y-63539258D01*
X54481976Y-63704638D01*
X54481973Y-63704644D01*
X54473750Y-63729951D01*
X54422957Y-63886272D01*
X54402996Y-64076200D01*
X54422957Y-64266127D01*
X54423295Y-64267166D01*
X54481973Y-64447756D01*
X54481976Y-64447761D01*
X54577458Y-64613141D01*
X54577465Y-64613151D01*
X54705244Y-64755064D01*
X54748717Y-64786649D01*
X54859748Y-64867318D01*
X55034212Y-64944994D01*
X55221013Y-64984700D01*
X55276905Y-64984700D01*
X55345026Y-65004702D01*
X55366000Y-65021605D01*
X55394954Y-65050559D01*
X55404919Y-65062996D01*
X55405146Y-65062809D01*
X55410200Y-65068918D01*
X55436165Y-65093301D01*
X55459850Y-65115542D01*
X55462694Y-65118299D01*
X55482423Y-65138029D01*
X55482424Y-65138030D01*
X55482428Y-65138033D01*
X55482430Y-65138035D01*
X55485635Y-65140521D01*
X55494642Y-65148214D01*
X55526879Y-65178486D01*
X55544628Y-65188243D01*
X55561153Y-65199098D01*
X55577159Y-65211514D01*
X55617742Y-65229075D01*
X55628393Y-65234293D01*
X55667140Y-65255595D01*
X55667148Y-65255597D01*
X55686758Y-65260632D01*
X55705467Y-65267037D01*
X55724055Y-65275081D01*
X55767730Y-65281998D01*
X55779341Y-65284402D01*
X55798601Y-65289348D01*
X55822339Y-65295444D01*
X55883344Y-65331760D01*
X55915031Y-65395294D01*
X55916271Y-65409272D01*
X55916999Y-65410000D01*
X58383001Y-65410000D01*
X58387738Y-65405262D01*
X58403002Y-65353279D01*
X58413711Y-65344000D01*
X77253000Y-65344000D01*
X78232000Y-65344000D01*
X78232000Y-64590000D01*
X78740000Y-64590000D01*
X78740000Y-65344000D01*
X79719000Y-65344000D01*
X79719000Y-65297483D01*
X79708394Y-65193681D01*
X79708393Y-65193678D01*
X79652657Y-65025474D01*
X79559634Y-64874660D01*
X79559629Y-64874654D01*
X79434345Y-64749370D01*
X79434339Y-64749365D01*
X79283525Y-64656342D01*
X79115321Y-64600606D01*
X79115318Y-64600605D01*
X79011516Y-64590000D01*
X78740000Y-64590000D01*
X78232000Y-64590000D01*
X77960483Y-64590000D01*
X77856681Y-64600605D01*
X77856678Y-64600606D01*
X77688474Y-64656342D01*
X77537660Y-64749365D01*
X77537654Y-64749370D01*
X77412370Y-64874654D01*
X77412365Y-64874660D01*
X77319342Y-65025474D01*
X77263606Y-65193678D01*
X77263605Y-65193681D01*
X77253000Y-65297483D01*
X77253000Y-65344000D01*
X58413711Y-65344000D01*
X58456658Y-65306786D01*
X58509000Y-65295400D01*
X71395047Y-65295400D01*
X71410888Y-65297149D01*
X71410916Y-65296856D01*
X71418802Y-65297600D01*
X71418809Y-65297602D01*
X71486886Y-65295462D01*
X71490845Y-65295400D01*
X71518751Y-65295400D01*
X71518756Y-65295400D01*
X71522767Y-65294892D01*
X71534599Y-65293961D01*
X71578789Y-65292573D01*
X71598247Y-65286919D01*
X71617594Y-65282913D01*
X71637697Y-65280374D01*
X71678810Y-65264095D01*
X71690030Y-65260253D01*
X71714813Y-65253054D01*
X71732491Y-65247919D01*
X71732495Y-65247917D01*
X71749926Y-65237608D01*
X71767680Y-65228909D01*
X71786517Y-65221452D01*
X71822292Y-65195458D01*
X71832198Y-65188951D01*
X71870262Y-65166442D01*
X71884585Y-65152118D01*
X71899624Y-65139274D01*
X71916007Y-65127372D01*
X71944203Y-65093286D01*
X71952162Y-65084540D01*
X73568301Y-63468402D01*
X73630611Y-63434379D01*
X73657394Y-63431500D01*
X73952711Y-63431500D01*
X73952711Y-63431499D01*
X73990031Y-63428562D01*
X74149801Y-63382145D01*
X74149803Y-63382143D01*
X74149805Y-63382143D01*
X74242708Y-63327200D01*
X74293007Y-63297453D01*
X74293015Y-63297444D01*
X74294376Y-63296390D01*
X74295654Y-63295887D01*
X74299831Y-63293418D01*
X74300229Y-63294091D01*
X74360459Y-63270437D01*
X74430083Y-63284332D01*
X74448839Y-63296385D01*
X74449700Y-63297052D01*
X74592800Y-63381681D01*
X74752200Y-63427991D01*
X74752200Y-62152000D01*
X75260200Y-62152000D01*
X75260200Y-63427991D01*
X75419599Y-63381681D01*
X75562702Y-63297051D01*
X75680250Y-63179503D01*
X75680251Y-63179501D01*
X75764881Y-63036401D01*
X75811265Y-62876749D01*
X75814200Y-62839456D01*
X75814200Y-62152000D01*
X75260200Y-62152000D01*
X74752200Y-62152000D01*
X74752200Y-60368007D01*
X75260200Y-60368007D01*
X75260200Y-61644000D01*
X75814199Y-61644000D01*
X75814199Y-60956543D01*
X75811265Y-60919249D01*
X75764881Y-60759599D01*
X75680251Y-60616498D01*
X75680250Y-60616496D01*
X75562703Y-60498949D01*
X75562701Y-60498948D01*
X75419601Y-60414318D01*
X75260200Y-60368007D01*
X74752200Y-60368007D01*
X74592798Y-60414318D01*
X74449699Y-60498946D01*
X74448839Y-60499614D01*
X74448040Y-60499927D01*
X74442879Y-60502980D01*
X74442386Y-60502147D01*
X74382754Y-60525562D01*
X74313131Y-60511663D01*
X74294384Y-60499615D01*
X74293003Y-60498544D01*
X74149805Y-60413856D01*
X73990029Y-60367437D01*
X73952711Y-60364500D01*
X73952702Y-60364500D01*
X73519698Y-60364500D01*
X73519689Y-60364500D01*
X73482371Y-60367437D01*
X73482370Y-60367437D01*
X73322594Y-60413856D01*
X73179397Y-60498543D01*
X73178425Y-60499298D01*
X73177523Y-60499652D01*
X73172569Y-60502582D01*
X73172096Y-60501782D01*
X73112339Y-60525244D01*
X73042717Y-60511342D01*
X73023975Y-60499298D01*
X73023002Y-60498543D01*
X72879805Y-60413856D01*
X72720029Y-60367437D01*
X72682711Y-60364500D01*
X72682702Y-60364500D01*
X72249698Y-60364500D01*
X72249689Y-60364500D01*
X72212371Y-60367437D01*
X72212370Y-60367437D01*
X72052594Y-60413856D01*
X71909397Y-60498543D01*
X71908425Y-60499298D01*
X71907523Y-60499652D01*
X71902569Y-60502582D01*
X71902096Y-60501782D01*
X71842339Y-60525244D01*
X71772717Y-60511342D01*
X71753975Y-60499298D01*
X71753002Y-60498543D01*
X71609805Y-60413856D01*
X71450029Y-60367437D01*
X71412711Y-60364500D01*
X71412702Y-60364500D01*
X70979698Y-60364500D01*
X70979689Y-60364500D01*
X70942371Y-60367437D01*
X70942370Y-60367437D01*
X70782594Y-60413856D01*
X70639397Y-60498543D01*
X70638425Y-60499298D01*
X70637523Y-60499652D01*
X70632569Y-60502582D01*
X70632096Y-60501782D01*
X70572339Y-60525244D01*
X70502717Y-60511342D01*
X70483975Y-60499298D01*
X70483005Y-60498545D01*
X70418882Y-60460623D01*
X70370430Y-60408730D01*
X70357725Y-60338880D01*
X70384801Y-60273249D01*
X70393918Y-60263084D01*
X78749778Y-51907225D01*
X78812088Y-51873201D01*
X78882903Y-51878266D01*
G37*
%TD.AperFunction*%
%TA.AperFunction,Conductor*%
G36*
X39817957Y-59610056D02*
G01*
X39868057Y-59660361D01*
X39874667Y-59674831D01*
X39971129Y-59875137D01*
X39971133Y-59875144D01*
X40101112Y-60054045D01*
X40144334Y-60095369D01*
X40179749Y-60156902D01*
X40176275Y-60227813D01*
X40146356Y-60275537D01*
X39697136Y-60724757D01*
X39684701Y-60734721D01*
X39684889Y-60734948D01*
X39678779Y-60740002D01*
X39632170Y-60789635D01*
X39629420Y-60792473D01*
X39609663Y-60812231D01*
X39607174Y-60815439D01*
X39599488Y-60824436D01*
X39569218Y-60856673D01*
X39569211Y-60856683D01*
X39559451Y-60874435D01*
X39548603Y-60890950D01*
X39536186Y-60906958D01*
X39518624Y-60947540D01*
X39513404Y-60958195D01*
X39492105Y-60996939D01*
X39492103Y-60996944D01*
X39487067Y-61016559D01*
X39480664Y-61035262D01*
X39472619Y-61053852D01*
X39465701Y-61097525D01*
X39463295Y-61109142D01*
X39452300Y-61151968D01*
X39452300Y-61172223D01*
X39450749Y-61191933D01*
X39447580Y-61211942D01*
X39451741Y-61255961D01*
X39452300Y-61267819D01*
X39452300Y-62762204D01*
X39432298Y-62830325D01*
X39415395Y-62851299D01*
X37375019Y-64891674D01*
X37312707Y-64925700D01*
X37241891Y-64920635D01*
X37185056Y-64878088D01*
X37178683Y-64868726D01*
X37141634Y-64808660D01*
X37141629Y-64808654D01*
X37016345Y-64683370D01*
X37016339Y-64683365D01*
X36865525Y-64590342D01*
X36697321Y-64534606D01*
X36697318Y-64534605D01*
X36593516Y-64524000D01*
X36322000Y-64524000D01*
X36322000Y-65609900D01*
X36301998Y-65678021D01*
X36248342Y-65724514D01*
X36196000Y-65735900D01*
X33772495Y-65735900D01*
X33704374Y-65715898D01*
X33683400Y-65698995D01*
X33262405Y-65278000D01*
X34835000Y-65278000D01*
X35814000Y-65278000D01*
X35814000Y-64524000D01*
X35542483Y-64524000D01*
X35438681Y-64534605D01*
X35438678Y-64534606D01*
X35270474Y-64590342D01*
X35119660Y-64683365D01*
X35119654Y-64683370D01*
X34994370Y-64808654D01*
X34994365Y-64808660D01*
X34901342Y-64959474D01*
X34845606Y-65127678D01*
X34845605Y-65127681D01*
X34835000Y-65231483D01*
X34835000Y-65278000D01*
X33262405Y-65278000D01*
X31562577Y-63578172D01*
X31528551Y-63515860D01*
X31533616Y-63445045D01*
X31576163Y-63388209D01*
X31642683Y-63363398D01*
X31712057Y-63378489D01*
X31715814Y-63380625D01*
X31717600Y-63381681D01*
X31877000Y-63427991D01*
X31877000Y-62152000D01*
X32385000Y-62152000D01*
X32385000Y-63427991D01*
X32544399Y-63381681D01*
X32687502Y-63297051D01*
X32805050Y-63179503D01*
X32805051Y-63179501D01*
X32889681Y-63036401D01*
X32936065Y-62876749D01*
X32939000Y-62839456D01*
X32939000Y-62152000D01*
X32385000Y-62152000D01*
X31877000Y-62152000D01*
X31877000Y-61770000D01*
X31897002Y-61701879D01*
X31950658Y-61655386D01*
X32003000Y-61644000D01*
X32938999Y-61644000D01*
X32938999Y-61305100D01*
X32959001Y-61236979D01*
X33012657Y-61190486D01*
X33064999Y-61179100D01*
X36071747Y-61179100D01*
X36087588Y-61180849D01*
X36087616Y-61180556D01*
X36095502Y-61181300D01*
X36095509Y-61181302D01*
X36163586Y-61179162D01*
X36167545Y-61179100D01*
X36195451Y-61179100D01*
X36195456Y-61179100D01*
X36199467Y-61178592D01*
X36211299Y-61177661D01*
X36255489Y-61176273D01*
X36274947Y-61170619D01*
X36294294Y-61166613D01*
X36314397Y-61164074D01*
X36355510Y-61147795D01*
X36366730Y-61143953D01*
X36391513Y-61136754D01*
X36409191Y-61131619D01*
X36409195Y-61131617D01*
X36426626Y-61121308D01*
X36444380Y-61112609D01*
X36463217Y-61105152D01*
X36498992Y-61079158D01*
X36508898Y-61072651D01*
X36546962Y-61050142D01*
X36561285Y-61035818D01*
X36576324Y-61022974D01*
X36592707Y-61011072D01*
X36620903Y-60976986D01*
X36628872Y-60968230D01*
X37464765Y-60132337D01*
X37527075Y-60098313D01*
X37597890Y-60103378D01*
X37640932Y-60130362D01*
X37720947Y-60206863D01*
X37905498Y-60328685D01*
X38108825Y-60415591D01*
X38108832Y-60415593D01*
X38108838Y-60415596D01*
X38324428Y-60464803D01*
X38545339Y-60474724D01*
X38764472Y-60445040D01*
X38974783Y-60376706D01*
X39169513Y-60271918D01*
X39342402Y-60134043D01*
X39479063Y-59977622D01*
X39487896Y-59967512D01*
X39601307Y-59777693D01*
X39601307Y-59777691D01*
X39601314Y-59777681D01*
X39639382Y-59676246D01*
X39682043Y-59619499D01*
X39748614Y-59594824D01*
X39817957Y-59610056D01*
G37*
%TD.AperFunction*%
%TA.AperFunction,Conductor*%
G36*
X49977957Y-59610056D02*
G01*
X50028057Y-59660361D01*
X50034667Y-59674831D01*
X50131129Y-59875137D01*
X50131133Y-59875144D01*
X50261112Y-60054045D01*
X50261113Y-60054046D01*
X50420947Y-60206863D01*
X50509850Y-60265548D01*
X50555683Y-60319768D01*
X50564926Y-60390161D01*
X50534644Y-60454376D01*
X50504579Y-60479156D01*
X50471794Y-60498545D01*
X50470825Y-60499298D01*
X50469926Y-60499650D01*
X50464972Y-60502581D01*
X50464499Y-60501781D01*
X50404739Y-60525244D01*
X50335117Y-60511342D01*
X50316375Y-60499298D01*
X50315402Y-60498543D01*
X50172205Y-60413856D01*
X50012429Y-60367437D01*
X49975111Y-60364500D01*
X49975102Y-60364500D01*
X49573506Y-60364500D01*
X49505385Y-60344498D01*
X49458892Y-60290842D01*
X49448788Y-60220568D01*
X49478282Y-60155988D01*
X49494946Y-60139989D01*
X49495016Y-60139932D01*
X49502402Y-60134043D01*
X49639063Y-59977622D01*
X49647896Y-59967512D01*
X49761307Y-59777693D01*
X49761307Y-59777691D01*
X49761314Y-59777681D01*
X49799382Y-59676246D01*
X49842043Y-59619499D01*
X49908614Y-59594824D01*
X49977957Y-59610056D01*
G37*
%TD.AperFunction*%
%TA.AperFunction,Conductor*%
G36*
X16879703Y-50919566D02*
G01*
X16924766Y-50948527D01*
X16942689Y-50966450D01*
X16942696Y-50966455D01*
X17085894Y-51051143D01*
X17085897Y-51051143D01*
X17085899Y-51051145D01*
X17245669Y-51097562D01*
X17282988Y-51100499D01*
X17282989Y-51100500D01*
X17282998Y-51100500D01*
X17301466Y-51100500D01*
X17369587Y-51120502D01*
X17403152Y-51152096D01*
X17403182Y-51152137D01*
X17409949Y-51162401D01*
X17426671Y-51190677D01*
X17432459Y-51200463D01*
X17432462Y-51200467D01*
X17446779Y-51214784D01*
X17459617Y-51229814D01*
X17471526Y-51246204D01*
X17471530Y-51246209D01*
X17505598Y-51274392D01*
X17514378Y-51282382D01*
X19261955Y-53029960D01*
X19271920Y-53042397D01*
X19272147Y-53042210D01*
X19277199Y-53048317D01*
X19326850Y-53094942D01*
X19329694Y-53097699D01*
X19349423Y-53117429D01*
X19349424Y-53117430D01*
X19349428Y-53117433D01*
X19349430Y-53117435D01*
X19352635Y-53119921D01*
X19361642Y-53127614D01*
X19393879Y-53157886D01*
X19411628Y-53167643D01*
X19428153Y-53178498D01*
X19444159Y-53190914D01*
X19484742Y-53208475D01*
X19495393Y-53213693D01*
X19534140Y-53234995D01*
X19534148Y-53234997D01*
X19553758Y-53240032D01*
X19572467Y-53246437D01*
X19591055Y-53254481D01*
X19634730Y-53261398D01*
X19646341Y-53263802D01*
X19689170Y-53274800D01*
X19709424Y-53274800D01*
X19729134Y-53276351D01*
X19731341Y-53276700D01*
X19749143Y-53279520D01*
X19793161Y-53275358D01*
X19805019Y-53274800D01*
X37638406Y-53274800D01*
X37706527Y-53294802D01*
X37727501Y-53311705D01*
X41025577Y-56609782D01*
X41059603Y-56672094D01*
X41061792Y-56685706D01*
X41079157Y-56850927D01*
X41103428Y-56925624D01*
X41138173Y-57032556D01*
X41145822Y-57045805D01*
X41233658Y-57197941D01*
X41233665Y-57197951D01*
X41279940Y-57249345D01*
X41310657Y-57313352D01*
X41301892Y-57383806D01*
X41256428Y-57438337D01*
X41188701Y-57459631D01*
X41180654Y-57459527D01*
X41090652Y-57455485D01*
X40974665Y-57450276D01*
X40974664Y-57450276D01*
X40974661Y-57450276D01*
X40755528Y-57479960D01*
X40755526Y-57479960D01*
X40755523Y-57479961D01*
X40545217Y-57548293D01*
X40350492Y-57653078D01*
X40350485Y-57653082D01*
X40177596Y-57790958D01*
X40032103Y-57957487D01*
X39918692Y-58147306D01*
X39918684Y-58147322D01*
X39880617Y-58248752D01*
X39837955Y-58305500D01*
X39771384Y-58330175D01*
X39702041Y-58314942D01*
X39651941Y-58264637D01*
X39645338Y-58250179D01*
X39548870Y-58049862D01*
X39548866Y-58049855D01*
X39536474Y-58032798D01*
X39418888Y-57870955D01*
X39259053Y-57718137D01*
X39259052Y-57718136D01*
X39074501Y-57596314D01*
X38871174Y-57509408D01*
X38871160Y-57509403D01*
X38681106Y-57466025D01*
X38655572Y-57460197D01*
X38611389Y-57458212D01*
X38434665Y-57450276D01*
X38434664Y-57450276D01*
X38434661Y-57450276D01*
X38215528Y-57479960D01*
X38215526Y-57479960D01*
X38215523Y-57479961D01*
X38005217Y-57548293D01*
X37810492Y-57653078D01*
X37810485Y-57653082D01*
X37637596Y-57790958D01*
X37492103Y-57957487D01*
X37378692Y-58147306D01*
X37378684Y-58147322D01*
X37340617Y-58248752D01*
X37297955Y-58305500D01*
X37231384Y-58330175D01*
X37162041Y-58314942D01*
X37111941Y-58264637D01*
X37105338Y-58250179D01*
X37008870Y-58049862D01*
X37008866Y-58049855D01*
X36996474Y-58032798D01*
X36878888Y-57870955D01*
X36719053Y-57718137D01*
X36719052Y-57718136D01*
X36534501Y-57596314D01*
X36331174Y-57509408D01*
X36331160Y-57509403D01*
X36141106Y-57466025D01*
X36115572Y-57460197D01*
X36071389Y-57458212D01*
X35894665Y-57450276D01*
X35894664Y-57450276D01*
X35894661Y-57450276D01*
X35675528Y-57479960D01*
X35675526Y-57479960D01*
X35675523Y-57479961D01*
X35465217Y-57548293D01*
X35270492Y-57653078D01*
X35270485Y-57653082D01*
X35097586Y-57790966D01*
X35097413Y-57791132D01*
X35097314Y-57791182D01*
X35093174Y-57794485D01*
X35092518Y-57793663D01*
X35034351Y-57823745D01*
X34963667Y-57817087D01*
X34921252Y-57789148D01*
X34361647Y-57229543D01*
X34351680Y-57217102D01*
X34351453Y-57217291D01*
X34346399Y-57211181D01*
X34296748Y-57164556D01*
X34293904Y-57161799D01*
X34274177Y-57142071D01*
X34274171Y-57142066D01*
X34270967Y-57139580D01*
X34261956Y-57131883D01*
X34229725Y-57101617D01*
X34229719Y-57101613D01*
X34211963Y-57091851D01*
X34195447Y-57081002D01*
X34179441Y-57068586D01*
X34147091Y-57054587D01*
X34138864Y-57051027D01*
X34128207Y-57045805D01*
X34089463Y-57024506D01*
X34089460Y-57024505D01*
X34069836Y-57019466D01*
X34051136Y-57013064D01*
X34047441Y-57011465D01*
X34032545Y-57005019D01*
X34032543Y-57005018D01*
X34032541Y-57005018D01*
X33988874Y-56998101D01*
X33977255Y-56995695D01*
X33934430Y-56984700D01*
X33914176Y-56984700D01*
X33894466Y-56983149D01*
X33874457Y-56979980D01*
X33830439Y-56984141D01*
X33818581Y-56984700D01*
X27984753Y-56984700D01*
X27968911Y-56982950D01*
X27968884Y-56983244D01*
X27960992Y-56982498D01*
X27960991Y-56982498D01*
X27940282Y-56983149D01*
X27892914Y-56984638D01*
X27888955Y-56984700D01*
X27861044Y-56984700D01*
X27861041Y-56984700D01*
X27861026Y-56984701D01*
X27857021Y-56985207D01*
X27845204Y-56986137D01*
X27801012Y-56987526D01*
X27801010Y-56987527D01*
X27781555Y-56993178D01*
X27762202Y-56997186D01*
X27742110Y-56999724D01*
X27742103Y-56999726D01*
X27700996Y-57016001D01*
X27689771Y-57019844D01*
X27659112Y-57028752D01*
X27647307Y-57032182D01*
X27647305Y-57032182D01*
X27647302Y-57032184D01*
X27629863Y-57042497D01*
X27612118Y-57051190D01*
X27593279Y-57058649D01*
X27557527Y-57084626D01*
X27547604Y-57091144D01*
X27509540Y-57113654D01*
X27495207Y-57127987D01*
X27480181Y-57140820D01*
X27463795Y-57152725D01*
X27435611Y-57186793D01*
X27427623Y-57195570D01*
X26823055Y-57800138D01*
X26760743Y-57834164D01*
X26689928Y-57829099D01*
X26646887Y-57802115D01*
X26559053Y-57718137D01*
X26559052Y-57718136D01*
X26374501Y-57596314D01*
X26171174Y-57509408D01*
X26171160Y-57509403D01*
X25981106Y-57466025D01*
X25955572Y-57460197D01*
X25911389Y-57458212D01*
X25734665Y-57450276D01*
X25734664Y-57450276D01*
X25734661Y-57450276D01*
X25515528Y-57479960D01*
X25515526Y-57479960D01*
X25515523Y-57479961D01*
X25305217Y-57548293D01*
X25110492Y-57653078D01*
X25110485Y-57653082D01*
X24937596Y-57790958D01*
X24792103Y-57957487D01*
X24678692Y-58147306D01*
X24678684Y-58147322D01*
X24627801Y-58282900D01*
X24585139Y-58339648D01*
X24556217Y-58355779D01*
X24544790Y-58360303D01*
X24533564Y-58364146D01*
X24491109Y-58376480D01*
X24473664Y-58386797D01*
X24455918Y-58395490D01*
X24437082Y-58402948D01*
X24401310Y-58428937D01*
X24391394Y-58435451D01*
X24353337Y-58457958D01*
X24339011Y-58472284D01*
X24323985Y-58485117D01*
X24307595Y-58497025D01*
X24307593Y-58497027D01*
X24279400Y-58531105D01*
X24271414Y-58539881D01*
X23588698Y-59222596D01*
X23526388Y-59256620D01*
X23499605Y-59259500D01*
X18806500Y-59259500D01*
X18738379Y-59239498D01*
X18691886Y-59185842D01*
X18680500Y-59133500D01*
X18680500Y-58945600D01*
X18700502Y-58877479D01*
X18754158Y-58830986D01*
X18806500Y-58819600D01*
X21194547Y-58819600D01*
X21210388Y-58821349D01*
X21210416Y-58821056D01*
X21218302Y-58821800D01*
X21218309Y-58821802D01*
X21286386Y-58819662D01*
X21290345Y-58819600D01*
X21318251Y-58819600D01*
X21318256Y-58819600D01*
X21322267Y-58819092D01*
X21334099Y-58818161D01*
X21378289Y-58816773D01*
X21397747Y-58811119D01*
X21417094Y-58807113D01*
X21437197Y-58804574D01*
X21478310Y-58788295D01*
X21489530Y-58784453D01*
X21519066Y-58775873D01*
X21531987Y-58772120D01*
X21531988Y-58772119D01*
X21531993Y-58772118D01*
X21531996Y-58772115D01*
X21539264Y-58768971D01*
X21540535Y-58771907D01*
X21589489Y-58758500D01*
X23585000Y-58758500D01*
X23585000Y-58711983D01*
X23574394Y-58608181D01*
X23574393Y-58608178D01*
X23518657Y-58439974D01*
X23425634Y-58289160D01*
X23425629Y-58289154D01*
X23300344Y-58163869D01*
X23297551Y-58161661D01*
X23296131Y-58159656D01*
X23295150Y-58158675D01*
X23295317Y-58158507D01*
X23256519Y-58103722D01*
X23253325Y-58032798D01*
X23288983Y-57971405D01*
X23297554Y-57963978D01*
X23300639Y-57961537D01*
X23300652Y-57961530D01*
X23426030Y-57836152D01*
X23519115Y-57685238D01*
X23574887Y-57516926D01*
X23585500Y-57413045D01*
X23585499Y-56811956D01*
X23574887Y-56708074D01*
X23519115Y-56539762D01*
X23426030Y-56388848D01*
X23426029Y-56388847D01*
X23426024Y-56388841D01*
X23300658Y-56263475D01*
X23300652Y-56263470D01*
X23270886Y-56245110D01*
X23149738Y-56170385D01*
X23034580Y-56132226D01*
X22981427Y-56114613D01*
X22981420Y-56114612D01*
X22877553Y-56104000D01*
X21826455Y-56104000D01*
X21722574Y-56114612D01*
X21554261Y-56170385D01*
X21403347Y-56263470D01*
X21403341Y-56263475D01*
X21277975Y-56388841D01*
X21277970Y-56388847D01*
X21184885Y-56539762D01*
X21129113Y-56708072D01*
X21129112Y-56708079D01*
X21118500Y-56811946D01*
X21118500Y-57397904D01*
X21098498Y-57466025D01*
X21081597Y-57486998D01*
X21052899Y-57515695D01*
X20990590Y-57549720D01*
X20963805Y-57552600D01*
X18806000Y-57552600D01*
X18737879Y-57532598D01*
X18691386Y-57478942D01*
X18680000Y-57426600D01*
X18680000Y-56420000D01*
X17144000Y-56420000D01*
X17075879Y-56399998D01*
X17029386Y-56346342D01*
X17018000Y-56294000D01*
X17018000Y-54408000D01*
X17526000Y-54408000D01*
X17526000Y-55912000D01*
X18680000Y-55912000D01*
X18680000Y-54867414D01*
X18679999Y-54867402D01*
X18673494Y-54806906D01*
X18622444Y-54670035D01*
X18622444Y-54670034D01*
X18534904Y-54553095D01*
X18417965Y-54465555D01*
X18281093Y-54414505D01*
X18220597Y-54408000D01*
X17526000Y-54408000D01*
X17018000Y-54408000D01*
X16323402Y-54408000D01*
X16262906Y-54414505D01*
X16126035Y-54465555D01*
X16126034Y-54465555D01*
X16009095Y-54553095D01*
X15921555Y-54670034D01*
X15917238Y-54677943D01*
X15915242Y-54676853D01*
X15880204Y-54723656D01*
X15813683Y-54748463D01*
X15744309Y-54733369D01*
X15694109Y-54683164D01*
X15678700Y-54622784D01*
X15678700Y-52068594D01*
X15698702Y-52000473D01*
X15715605Y-51979499D01*
X16225564Y-51469540D01*
X16746578Y-50948525D01*
X16808888Y-50914502D01*
X16879703Y-50919566D01*
G37*
%TD.AperFunction*%
%TA.AperFunction,Conductor*%
G36*
X73718907Y-52043339D02*
G01*
X73730680Y-52056926D01*
X73766595Y-52104904D01*
X73883533Y-52192443D01*
X73887688Y-52193993D01*
X73891235Y-52196648D01*
X73891443Y-52196762D01*
X73891426Y-52196791D01*
X73944523Y-52236540D01*
X73969334Y-52303061D01*
X73954242Y-52372435D01*
X73932750Y-52401144D01*
X68413600Y-57920295D01*
X68351288Y-57954321D01*
X68324505Y-57957200D01*
X66926153Y-57957200D01*
X66910311Y-57955450D01*
X66910284Y-57955744D01*
X66902392Y-57954998D01*
X66902391Y-57954998D01*
X66878660Y-57955744D01*
X66834314Y-57957138D01*
X66830355Y-57957200D01*
X66802444Y-57957200D01*
X66802441Y-57957200D01*
X66802426Y-57957201D01*
X66798421Y-57957707D01*
X66786604Y-57958637D01*
X66742413Y-57960026D01*
X66742411Y-57960027D01*
X66722956Y-57965678D01*
X66703603Y-57969686D01*
X66683511Y-57972224D01*
X66683505Y-57972225D01*
X66683503Y-57972226D01*
X66642398Y-57988500D01*
X66631174Y-57992343D01*
X66588707Y-58004682D01*
X66571264Y-58014997D01*
X66553518Y-58023690D01*
X66534682Y-58031148D01*
X66498910Y-58057137D01*
X66488994Y-58063651D01*
X66450937Y-58086158D01*
X66436611Y-58100484D01*
X66421585Y-58113317D01*
X66405195Y-58125225D01*
X66405193Y-58125227D01*
X66377000Y-58159305D01*
X66369013Y-58168081D01*
X65333595Y-59203499D01*
X65271283Y-59237525D01*
X65200468Y-59232460D01*
X65143632Y-59189913D01*
X65118821Y-59123393D01*
X65118500Y-59114404D01*
X65118500Y-58627328D01*
X65118500Y-58627322D01*
X65103644Y-58462256D01*
X65103644Y-58462254D01*
X65103643Y-58462253D01*
X65097494Y-58439974D01*
X65077853Y-58368805D01*
X65044815Y-58249093D01*
X64948870Y-58049862D01*
X64948866Y-58049855D01*
X64936473Y-58032798D01*
X64886473Y-57963978D01*
X64835458Y-57893761D01*
X64811599Y-57826893D01*
X64827680Y-57757741D01*
X64878594Y-57708261D01*
X64937394Y-57693700D01*
X66513847Y-57693700D01*
X66529688Y-57695449D01*
X66529716Y-57695156D01*
X66537602Y-57695900D01*
X66537609Y-57695902D01*
X66605686Y-57693762D01*
X66609645Y-57693700D01*
X66637551Y-57693700D01*
X66637556Y-57693700D01*
X66641567Y-57693192D01*
X66653399Y-57692261D01*
X66697589Y-57690873D01*
X66717047Y-57685219D01*
X66736394Y-57681213D01*
X66756497Y-57678674D01*
X66797610Y-57662395D01*
X66808830Y-57658553D01*
X66833613Y-57651354D01*
X66851291Y-57646219D01*
X66851295Y-57646217D01*
X66868726Y-57635908D01*
X66886480Y-57627209D01*
X66905317Y-57619752D01*
X66941092Y-57593758D01*
X66950998Y-57587251D01*
X66989062Y-57564742D01*
X67003385Y-57550418D01*
X67018424Y-57537574D01*
X67034807Y-57525672D01*
X67063003Y-57491586D01*
X67070972Y-57482830D01*
X72266399Y-52287405D01*
X72328711Y-52253379D01*
X72355494Y-52250500D01*
X73178132Y-52250500D01*
X73178138Y-52250500D01*
X73178145Y-52250499D01*
X73178149Y-52250499D01*
X73238696Y-52243990D01*
X73238699Y-52243989D01*
X73238701Y-52243989D01*
X73240211Y-52243426D01*
X73258672Y-52236540D01*
X73375704Y-52192889D01*
X73376299Y-52192444D01*
X73405473Y-52170604D01*
X73492761Y-52105261D01*
X73528944Y-52056926D01*
X73585779Y-52014380D01*
X73656595Y-52009314D01*
X73718907Y-52043339D01*
G37*
%TD.AperFunction*%
%TA.AperFunction,Conductor*%
G36*
X41794621Y-49170202D02*
G01*
X41841114Y-49223858D01*
X41852500Y-49276200D01*
X41852500Y-49692000D01*
X42510500Y-49692000D01*
X42510500Y-49643414D01*
X42510499Y-49643402D01*
X42503994Y-49582906D01*
X42503993Y-49582904D01*
X42495837Y-49561037D01*
X42490769Y-49490222D01*
X42495837Y-49472963D01*
X42503993Y-49451095D01*
X42503994Y-49451093D01*
X42510499Y-49390597D01*
X42510500Y-49390585D01*
X42510500Y-49276200D01*
X42530502Y-49208079D01*
X42584158Y-49161586D01*
X42636500Y-49150200D01*
X43039606Y-49150200D01*
X43107727Y-49170202D01*
X43128701Y-49187105D01*
X43854757Y-49913161D01*
X43888783Y-49975473D01*
X43886856Y-50031702D01*
X43887595Y-50031837D01*
X43886680Y-50036847D01*
X43886661Y-50037402D01*
X43886439Y-50038165D01*
X43886437Y-50038175D01*
X43883500Y-50075488D01*
X43883500Y-50508511D01*
X43886437Y-50545828D01*
X43886437Y-50545829D01*
X43932856Y-50705605D01*
X44017544Y-50848803D01*
X44017549Y-50848810D01*
X44135189Y-50966450D01*
X44135196Y-50966455D01*
X44278395Y-51051143D01*
X44278396Y-51051143D01*
X44278399Y-51051145D01*
X44405154Y-51087970D01*
X44464988Y-51126181D01*
X44494666Y-51190677D01*
X44496000Y-51208966D01*
X44496000Y-51649646D01*
X44494251Y-51665488D01*
X44494544Y-51665516D01*
X44493798Y-51673407D01*
X44495938Y-51741484D01*
X44496000Y-51745443D01*
X44496000Y-51773351D01*
X44496001Y-51773369D01*
X44496507Y-51777377D01*
X44497437Y-51789196D01*
X44498826Y-51833388D01*
X44498827Y-51833393D01*
X44504477Y-51852839D01*
X44508486Y-51872197D01*
X44511025Y-51892293D01*
X44511026Y-51892300D01*
X44527300Y-51933403D01*
X44531144Y-51944629D01*
X44543482Y-51987093D01*
X44553794Y-52004531D01*
X44562488Y-52022279D01*
X44569944Y-52041109D01*
X44569950Y-52041120D01*
X44595932Y-52076881D01*
X44602449Y-52086801D01*
X44624958Y-52124862D01*
X44624959Y-52124863D01*
X44624961Y-52124866D01*
X44639279Y-52139184D01*
X44652117Y-52154214D01*
X44664026Y-52170604D01*
X44664030Y-52170609D01*
X44698098Y-52198792D01*
X44706878Y-52206782D01*
X45863677Y-53363581D01*
X45897703Y-53425893D01*
X45899892Y-53439505D01*
X45917257Y-53604727D01*
X45935866Y-53661998D01*
X45976273Y-53786356D01*
X45976276Y-53786361D01*
X46071758Y-53951741D01*
X46071765Y-53951751D01*
X46199544Y-54093664D01*
X46199547Y-54093666D01*
X46354048Y-54205918D01*
X46528512Y-54283594D01*
X46715313Y-54323300D01*
X46906287Y-54323300D01*
X47093088Y-54283594D01*
X47267552Y-54205918D01*
X47422053Y-54093666D01*
X47437528Y-54076479D01*
X47549834Y-53951751D01*
X47549835Y-53951749D01*
X47549840Y-53951744D01*
X47645327Y-53786356D01*
X47704342Y-53604728D01*
X47724304Y-53414800D01*
X47704342Y-53224872D01*
X47645327Y-53043244D01*
X47549840Y-52877856D01*
X47549838Y-52877854D01*
X47549834Y-52877848D01*
X47442922Y-52759110D01*
X47412204Y-52695103D01*
X47420969Y-52624649D01*
X47466432Y-52570118D01*
X47534159Y-52548823D01*
X47536558Y-52548800D01*
X47670447Y-52548800D01*
X47686288Y-52550549D01*
X47686316Y-52550256D01*
X47694202Y-52551000D01*
X47694209Y-52551002D01*
X47762286Y-52548862D01*
X47766245Y-52548800D01*
X47794151Y-52548800D01*
X47794156Y-52548800D01*
X47798167Y-52548292D01*
X47809999Y-52547361D01*
X47854189Y-52545973D01*
X47873647Y-52540319D01*
X47892994Y-52536313D01*
X47913097Y-52533774D01*
X47954210Y-52517495D01*
X47965430Y-52513653D01*
X47990213Y-52506454D01*
X48007891Y-52501319D01*
X48007895Y-52501317D01*
X48025326Y-52491008D01*
X48043080Y-52482309D01*
X48061917Y-52474852D01*
X48097692Y-52448858D01*
X48107598Y-52442351D01*
X48145662Y-52419842D01*
X48159985Y-52405518D01*
X48175024Y-52392674D01*
X48191407Y-52380772D01*
X48219603Y-52346686D01*
X48227572Y-52337930D01*
X48936257Y-51629245D01*
X48948688Y-51619287D01*
X48948501Y-51619061D01*
X48960681Y-51608984D01*
X49025917Y-51580971D01*
X49095943Y-51592675D01*
X49148524Y-51640379D01*
X49167000Y-51706065D01*
X49167000Y-57382409D01*
X49146998Y-57450530D01*
X49093342Y-57497023D01*
X49023068Y-57507127D01*
X49012962Y-57505250D01*
X49003358Y-57503058D01*
X48815572Y-57460197D01*
X48771389Y-57458212D01*
X48594665Y-57450276D01*
X48594664Y-57450276D01*
X48594661Y-57450276D01*
X48375528Y-57479960D01*
X48375526Y-57479960D01*
X48375523Y-57479961D01*
X48165217Y-57548293D01*
X47970492Y-57653078D01*
X47970485Y-57653082D01*
X47797596Y-57790958D01*
X47652103Y-57957487D01*
X47538692Y-58147306D01*
X47538684Y-58147322D01*
X47500617Y-58248752D01*
X47457955Y-58305500D01*
X47391384Y-58330175D01*
X47322041Y-58314942D01*
X47271941Y-58264637D01*
X47265338Y-58250179D01*
X47168870Y-58049862D01*
X47168866Y-58049855D01*
X47156474Y-58032798D01*
X47038888Y-57870955D01*
X46879053Y-57718137D01*
X46879052Y-57718136D01*
X46694501Y-57596314D01*
X46491174Y-57509408D01*
X46491160Y-57509403D01*
X46301106Y-57466025D01*
X46275572Y-57460197D01*
X46231389Y-57458212D01*
X46054665Y-57450276D01*
X46054664Y-57450276D01*
X46054661Y-57450276D01*
X45835528Y-57479960D01*
X45835526Y-57479960D01*
X45835523Y-57479961D01*
X45625217Y-57548293D01*
X45430492Y-57653078D01*
X45430485Y-57653082D01*
X45257596Y-57790958D01*
X45112103Y-57957487D01*
X44998692Y-58147306D01*
X44998684Y-58147322D01*
X44960617Y-58248752D01*
X44917955Y-58305500D01*
X44851384Y-58330175D01*
X44782041Y-58314942D01*
X44731941Y-58264637D01*
X44725338Y-58250179D01*
X44628870Y-58049862D01*
X44628866Y-58049855D01*
X44616474Y-58032798D01*
X44498888Y-57870955D01*
X44339053Y-57718137D01*
X44339052Y-57718136D01*
X44154501Y-57596314D01*
X43951174Y-57509408D01*
X43951160Y-57509403D01*
X43761106Y-57466025D01*
X43735572Y-57460197D01*
X43691389Y-57458212D01*
X43514665Y-57450276D01*
X43514664Y-57450276D01*
X43514661Y-57450276D01*
X43295528Y-57479960D01*
X43295526Y-57479960D01*
X43295523Y-57479961D01*
X43085217Y-57548293D01*
X42890492Y-57653078D01*
X42890485Y-57653082D01*
X42717596Y-57790958D01*
X42572103Y-57957487D01*
X42458692Y-58147306D01*
X42458684Y-58147322D01*
X42420617Y-58248752D01*
X42377955Y-58305500D01*
X42311384Y-58330175D01*
X42242041Y-58314942D01*
X42191941Y-58264637D01*
X42185338Y-58250179D01*
X42088870Y-58049862D01*
X42088866Y-58049855D01*
X42076474Y-58032798D01*
X41958888Y-57870955D01*
X41958886Y-57870953D01*
X41870631Y-57786572D01*
X41835216Y-57725039D01*
X41838691Y-57654127D01*
X41879952Y-57596351D01*
X41945899Y-57570054D01*
X41957705Y-57569500D01*
X42068187Y-57569500D01*
X42254988Y-57529794D01*
X42429452Y-57452118D01*
X42583953Y-57339866D01*
X42583955Y-57339864D01*
X42711734Y-57197951D01*
X42711735Y-57197949D01*
X42711740Y-57197944D01*
X42807227Y-57032556D01*
X42866242Y-56850928D01*
X42886204Y-56661000D01*
X42866242Y-56471072D01*
X42807227Y-56289444D01*
X42711740Y-56124056D01*
X42711738Y-56124054D01*
X42711734Y-56124048D01*
X42583955Y-55982135D01*
X42429452Y-55869882D01*
X42254988Y-55792206D01*
X42089184Y-55756963D01*
X42026710Y-55723234D01*
X41992389Y-55661085D01*
X41997117Y-55590246D01*
X42021743Y-55549406D01*
X42110040Y-55451344D01*
X42205527Y-55285956D01*
X42264542Y-55104328D01*
X42284504Y-54914400D01*
X42264542Y-54724472D01*
X42205527Y-54542844D01*
X42110040Y-54377456D01*
X42110038Y-54377454D01*
X42110034Y-54377448D01*
X41982255Y-54235535D01*
X41827752Y-54123282D01*
X41653288Y-54045606D01*
X41466487Y-54005900D01*
X41410595Y-54005900D01*
X41342474Y-53985898D01*
X41321500Y-53968995D01*
X41198205Y-53845700D01*
X41164179Y-53783388D01*
X41161300Y-53756605D01*
X41161300Y-52376000D01*
X41181302Y-52307879D01*
X41234958Y-52261386D01*
X41287300Y-52250000D01*
X41352500Y-52250000D01*
X41352500Y-51742000D01*
X41852500Y-51742000D01*
X41852500Y-52250000D01*
X42051085Y-52250000D01*
X42051097Y-52249999D01*
X42111593Y-52243494D01*
X42248464Y-52192444D01*
X42248465Y-52192444D01*
X42365404Y-52104904D01*
X42452944Y-51987965D01*
X42452944Y-51987964D01*
X42503994Y-51851093D01*
X42510499Y-51790597D01*
X42510500Y-51790585D01*
X42510500Y-51742000D01*
X41852500Y-51742000D01*
X41352500Y-51742000D01*
X41352500Y-50892000D01*
X41852500Y-50892000D01*
X41852500Y-51242000D01*
X42510500Y-51242000D01*
X42510500Y-51193414D01*
X42510499Y-51193402D01*
X42503994Y-51132906D01*
X42503993Y-51132904D01*
X42495837Y-51111037D01*
X42490769Y-51040222D01*
X42495837Y-51022963D01*
X42503993Y-51001095D01*
X42503994Y-51001093D01*
X42510499Y-50940597D01*
X42510500Y-50940585D01*
X42510500Y-50892000D01*
X41852500Y-50892000D01*
X41352500Y-50892000D01*
X41352500Y-50793191D01*
X41372502Y-50725070D01*
X41389405Y-50704096D01*
X41402500Y-50691001D01*
X41402500Y-50092000D01*
X41802500Y-50092000D01*
X41802500Y-50492000D01*
X42510500Y-50492000D01*
X42510500Y-50443414D01*
X42510499Y-50443402D01*
X42503994Y-50382906D01*
X42503993Y-50382901D01*
X42486512Y-50336034D01*
X42481446Y-50265218D01*
X42486512Y-50247966D01*
X42503993Y-50201098D01*
X42503994Y-50201093D01*
X42510499Y-50140597D01*
X42510500Y-50140585D01*
X42510500Y-50092000D01*
X41802500Y-50092000D01*
X41402500Y-50092000D01*
X41402500Y-49892999D01*
X41389405Y-49879904D01*
X41355379Y-49817592D01*
X41352500Y-49790809D01*
X41352500Y-49276200D01*
X41372502Y-49208079D01*
X41426158Y-49161586D01*
X41478500Y-49150200D01*
X41726500Y-49150200D01*
X41794621Y-49170202D01*
G37*
%TD.AperFunction*%
%TA.AperFunction,Conductor*%
G36*
X74721621Y-49144002D02*
G01*
X74768114Y-49197658D01*
X74779500Y-49250000D01*
X74779500Y-49692000D01*
X75389705Y-49692000D01*
X75457826Y-49712002D01*
X75478798Y-49728902D01*
X75720895Y-49971000D01*
X75952800Y-50202905D01*
X75986825Y-50265217D01*
X75981760Y-50336033D01*
X75952800Y-50381095D01*
X75478798Y-50855096D01*
X75416488Y-50889120D01*
X75389705Y-50892000D01*
X74779500Y-50892000D01*
X74779500Y-51502205D01*
X74759498Y-51570326D01*
X74742595Y-51591300D01*
X74628800Y-51705095D01*
X74566488Y-51739121D01*
X74539705Y-51742000D01*
X74405500Y-51742000D01*
X74337379Y-51721998D01*
X74290886Y-51668342D01*
X74279500Y-51616000D01*
X74279500Y-50793191D01*
X74299502Y-50725070D01*
X74316405Y-50704096D01*
X74329500Y-50691001D01*
X74329500Y-50092000D01*
X74729500Y-50092000D01*
X74729500Y-50492000D01*
X75437500Y-50492000D01*
X75437500Y-50443414D01*
X75437499Y-50443402D01*
X75430994Y-50382906D01*
X75430993Y-50382901D01*
X75413512Y-50336034D01*
X75408446Y-50265218D01*
X75413512Y-50247966D01*
X75430993Y-50201098D01*
X75430994Y-50201093D01*
X75437499Y-50140597D01*
X75437500Y-50140585D01*
X75437500Y-50092000D01*
X74729500Y-50092000D01*
X74329500Y-50092000D01*
X74329500Y-49892999D01*
X74316405Y-49879904D01*
X74282379Y-49817592D01*
X74279500Y-49790809D01*
X74279500Y-49250000D01*
X74299502Y-49181879D01*
X74353158Y-49135386D01*
X74405500Y-49124000D01*
X74653500Y-49124000D01*
X74721621Y-49144002D01*
G37*
%TD.AperFunction*%
%TA.AperFunction,Conductor*%
G36*
X82012587Y-40460654D02*
G01*
X82054977Y-40517607D01*
X82062800Y-40561313D01*
X82062800Y-44869974D01*
X82042798Y-44938095D01*
X82030437Y-44954284D01*
X81957257Y-45035559D01*
X81861776Y-45200938D01*
X81861773Y-45200944D01*
X81853200Y-45227329D01*
X81802757Y-45382572D01*
X81785392Y-45547792D01*
X81758379Y-45613449D01*
X81749177Y-45623716D01*
X80030311Y-47342582D01*
X79967999Y-47376608D01*
X79949129Y-47379238D01*
X79921420Y-47380981D01*
X79915547Y-47381351D01*
X79907637Y-47381600D01*
X70613253Y-47381600D01*
X70597411Y-47379850D01*
X70597384Y-47380144D01*
X70589491Y-47379397D01*
X70521401Y-47381538D01*
X70517443Y-47381600D01*
X70489544Y-47381600D01*
X70489538Y-47381600D01*
X70489532Y-47381601D01*
X70485533Y-47382106D01*
X70473713Y-47383036D01*
X70429514Y-47384425D01*
X70429507Y-47384427D01*
X70410049Y-47390079D01*
X70390704Y-47394085D01*
X70370606Y-47396625D01*
X70370598Y-47396627D01*
X70329490Y-47412902D01*
X70318266Y-47416745D01*
X70275809Y-47429081D01*
X70258364Y-47439397D01*
X70240618Y-47448090D01*
X70221782Y-47455548D01*
X70186010Y-47481537D01*
X70176094Y-47488051D01*
X70138037Y-47510558D01*
X70123711Y-47524884D01*
X70108685Y-47537717D01*
X70092295Y-47549625D01*
X70092293Y-47549627D01*
X70064100Y-47583705D01*
X70056114Y-47592481D01*
X69151998Y-48496596D01*
X69089688Y-48530620D01*
X69062905Y-48533500D01*
X68548489Y-48533500D01*
X68511171Y-48536437D01*
X68511170Y-48536437D01*
X68351394Y-48582856D01*
X68208196Y-48667544D01*
X68208189Y-48667549D01*
X68204144Y-48671595D01*
X68141832Y-48705621D01*
X68115049Y-48708500D01*
X64555451Y-48708500D01*
X64487330Y-48688498D01*
X64466356Y-48671595D01*
X64462310Y-48667549D01*
X64462303Y-48667544D01*
X64319105Y-48582856D01*
X64159329Y-48536437D01*
X64122011Y-48533500D01*
X64122002Y-48533500D01*
X63607594Y-48533500D01*
X63539473Y-48513498D01*
X63518499Y-48496595D01*
X62994687Y-47972783D01*
X62457144Y-47435239D01*
X62447179Y-47422801D01*
X62446952Y-47422990D01*
X62441901Y-47416884D01*
X62441900Y-47416882D01*
X62420330Y-47396627D01*
X62392248Y-47370256D01*
X62389404Y-47367499D01*
X62369677Y-47347771D01*
X62369671Y-47347766D01*
X62366467Y-47345280D01*
X62357456Y-47337583D01*
X62325225Y-47307317D01*
X62325219Y-47307313D01*
X62307463Y-47297551D01*
X62290947Y-47286702D01*
X62274941Y-47274286D01*
X62234364Y-47256727D01*
X62223707Y-47251505D01*
X62184963Y-47230206D01*
X62184960Y-47230205D01*
X62165336Y-47225166D01*
X62146636Y-47218764D01*
X62128045Y-47210719D01*
X62128043Y-47210718D01*
X62128041Y-47210718D01*
X62084374Y-47203801D01*
X62072755Y-47201395D01*
X62029930Y-47190400D01*
X62009676Y-47190400D01*
X61989966Y-47188849D01*
X61969957Y-47185680D01*
X61925939Y-47189841D01*
X61914081Y-47190400D01*
X59291095Y-47190400D01*
X59222974Y-47170398D01*
X59201999Y-47153495D01*
X59142804Y-47094299D01*
X59108779Y-47031986D01*
X59105900Y-47005204D01*
X59105900Y-46842995D01*
X59125902Y-46774874D01*
X59142806Y-46753897D01*
X59147635Y-46749070D01*
X59150114Y-46745873D01*
X59157811Y-46736859D01*
X59188086Y-46704621D01*
X59197846Y-46686865D01*
X59208695Y-46670350D01*
X59221114Y-46654341D01*
X59238679Y-46613746D01*
X59243884Y-46603121D01*
X59265195Y-46564360D01*
X59270233Y-46544734D01*
X59276637Y-46526032D01*
X59284680Y-46507447D01*
X59284679Y-46507447D01*
X59284681Y-46507445D01*
X59291596Y-46463781D01*
X59294004Y-46452152D01*
X59300485Y-46426912D01*
X59305000Y-46409330D01*
X59305000Y-46389075D01*
X59306549Y-46369376D01*
X59306884Y-46367261D01*
X59307938Y-46360602D01*
X59331518Y-46304800D01*
X59372389Y-46250204D01*
X59378445Y-46233965D01*
X59420990Y-46177132D01*
X59487511Y-46152321D01*
X59556885Y-46167412D01*
X59607087Y-46217614D01*
X59614551Y-46233958D01*
X59620611Y-46250204D01*
X59645097Y-46282914D01*
X59646368Y-46284611D01*
X59671179Y-46351131D01*
X59671500Y-46360120D01*
X59671500Y-46512000D01*
X59720085Y-46512000D01*
X59720097Y-46511999D01*
X59780593Y-46505494D01*
X59780598Y-46505493D01*
X59826750Y-46488279D01*
X59897565Y-46483213D01*
X59914813Y-46488277D01*
X59926236Y-46492538D01*
X59962298Y-46505989D01*
X59962303Y-46505990D01*
X60022850Y-46512499D01*
X60022855Y-46512499D01*
X60022862Y-46512500D01*
X60022868Y-46512500D01*
X60520132Y-46512500D01*
X60520138Y-46512500D01*
X60520145Y-46512499D01*
X60520149Y-46512499D01*
X60580696Y-46505990D01*
X60580699Y-46505989D01*
X60580701Y-46505989D01*
X60603182Y-46497603D01*
X60673996Y-46492538D01*
X60691246Y-46497603D01*
X60712404Y-46505494D01*
X60712403Y-46505494D01*
X60772902Y-46511999D01*
X60772915Y-46512000D01*
X60821500Y-46512000D01*
X60821500Y-46426912D01*
X60841502Y-46358791D01*
X60846620Y-46351419D01*
X60922389Y-46250204D01*
X60973489Y-46113201D01*
X60974036Y-46108121D01*
X60979999Y-46052649D01*
X60980000Y-46052632D01*
X60980000Y-45854000D01*
X61321500Y-45854000D01*
X61321500Y-46512000D01*
X61370085Y-46512000D01*
X61370097Y-46511999D01*
X61430593Y-46505494D01*
X61567464Y-46454444D01*
X61567465Y-46454444D01*
X61684404Y-46366904D01*
X61771944Y-46249965D01*
X61771944Y-46249964D01*
X61822994Y-46113093D01*
X61829499Y-46052597D01*
X61829500Y-46052585D01*
X61829500Y-45854000D01*
X61321500Y-45854000D01*
X60980000Y-45854000D01*
X60980000Y-45638200D01*
X61000002Y-45570079D01*
X61053658Y-45523586D01*
X61106000Y-45512200D01*
X61486347Y-45512200D01*
X61502188Y-45513949D01*
X61502216Y-45513656D01*
X61510102Y-45514400D01*
X61510109Y-45514402D01*
X61578186Y-45512262D01*
X61582145Y-45512200D01*
X61610051Y-45512200D01*
X61610056Y-45512200D01*
X61614067Y-45511692D01*
X61625899Y-45510761D01*
X61670089Y-45509373D01*
X61689547Y-45503719D01*
X61708894Y-45499713D01*
X61728997Y-45497174D01*
X61770110Y-45480895D01*
X61781330Y-45477053D01*
X61806113Y-45469854D01*
X61823791Y-45464719D01*
X61823795Y-45464717D01*
X61841226Y-45454408D01*
X61858980Y-45445709D01*
X61877817Y-45438252D01*
X61913592Y-45412258D01*
X61923498Y-45405751D01*
X61961562Y-45383242D01*
X61975885Y-45368918D01*
X61990924Y-45356074D01*
X61993779Y-45354000D01*
X62007307Y-45344172D01*
X62035503Y-45310086D01*
X62043472Y-45301330D01*
X66633699Y-40711105D01*
X66696011Y-40677079D01*
X66722794Y-40674200D01*
X70080873Y-40674200D01*
X70148994Y-40694202D01*
X70195487Y-40747858D01*
X70206484Y-40790311D01*
X70209437Y-40827829D01*
X70255856Y-40987605D01*
X70340544Y-41130803D01*
X70340549Y-41130810D01*
X70458189Y-41248450D01*
X70458196Y-41248455D01*
X70601395Y-41333143D01*
X70601396Y-41333143D01*
X70601399Y-41333145D01*
X70728154Y-41369970D01*
X70787988Y-41408181D01*
X70817666Y-41472677D01*
X70819000Y-41490966D01*
X70819000Y-42407846D01*
X70817251Y-42423688D01*
X70817544Y-42423716D01*
X70816798Y-42431607D01*
X70818938Y-42499684D01*
X70819000Y-42503643D01*
X70819000Y-42531551D01*
X70819001Y-42531569D01*
X70819507Y-42535577D01*
X70820437Y-42547396D01*
X70821826Y-42591588D01*
X70821827Y-42591593D01*
X70827477Y-42611039D01*
X70831486Y-42630397D01*
X70834025Y-42650493D01*
X70834026Y-42650500D01*
X70850300Y-42691603D01*
X70854144Y-42702829D01*
X70866482Y-42745293D01*
X70876794Y-42762731D01*
X70885488Y-42780479D01*
X70892944Y-42799309D01*
X70892950Y-42799320D01*
X70918932Y-42835081D01*
X70925449Y-42845001D01*
X70947958Y-42883062D01*
X70947959Y-42883063D01*
X70947961Y-42883066D01*
X70962279Y-42897384D01*
X70975117Y-42912414D01*
X70987026Y-42928804D01*
X70987030Y-42928809D01*
X71021098Y-42956992D01*
X71029878Y-42964982D01*
X73116901Y-45052006D01*
X73150927Y-45114318D01*
X73152949Y-45151976D01*
X73153181Y-45151989D01*
X73153065Y-45154142D01*
X73153087Y-45154541D01*
X73153001Y-45155336D01*
X73153000Y-45155367D01*
X73153000Y-46052649D01*
X73159509Y-46113196D01*
X73159511Y-46113204D01*
X73210610Y-46250202D01*
X73210612Y-46250207D01*
X73298238Y-46367261D01*
X73415292Y-46454887D01*
X73415294Y-46454888D01*
X73415296Y-46454889D01*
X73423396Y-46457910D01*
X73552295Y-46505988D01*
X73552303Y-46505990D01*
X73612850Y-46512499D01*
X73612855Y-46512499D01*
X73612862Y-46512500D01*
X73612868Y-46512500D01*
X74210132Y-46512500D01*
X74210138Y-46512500D01*
X74210145Y-46512499D01*
X74210149Y-46512499D01*
X74270696Y-46505990D01*
X74270699Y-46505989D01*
X74270701Y-46505989D01*
X74293182Y-46497603D01*
X74363996Y-46492538D01*
X74381246Y-46497603D01*
X74402404Y-46505494D01*
X74402403Y-46505494D01*
X74462902Y-46511999D01*
X74462915Y-46512000D01*
X74511500Y-46512000D01*
X74511500Y-46426912D01*
X74531502Y-46358791D01*
X74536620Y-46351419D01*
X74612389Y-46250204D01*
X74618445Y-46233965D01*
X74660990Y-46177132D01*
X74727511Y-46152321D01*
X74796885Y-46167412D01*
X74847087Y-46217614D01*
X74854551Y-46233958D01*
X74860611Y-46250204D01*
X74885097Y-46282914D01*
X74886368Y-46284611D01*
X74911179Y-46351131D01*
X74911500Y-46360120D01*
X74911500Y-46512000D01*
X74960085Y-46512000D01*
X74960097Y-46511999D01*
X75020593Y-46505494D01*
X75020598Y-46505493D01*
X75066750Y-46488279D01*
X75137565Y-46483213D01*
X75154813Y-46488277D01*
X75166236Y-46492538D01*
X75202298Y-46505989D01*
X75202303Y-46505990D01*
X75262850Y-46512499D01*
X75262855Y-46512499D01*
X75262862Y-46512500D01*
X75262868Y-46512500D01*
X75760132Y-46512500D01*
X75760138Y-46512500D01*
X75760145Y-46512499D01*
X75760149Y-46512499D01*
X75820696Y-46505990D01*
X75820699Y-46505989D01*
X75820701Y-46505989D01*
X75843182Y-46497603D01*
X75913996Y-46492538D01*
X75931246Y-46497603D01*
X75952404Y-46505494D01*
X75952403Y-46505494D01*
X76012902Y-46511999D01*
X76012915Y-46512000D01*
X76061500Y-46512000D01*
X76061500Y-46426912D01*
X76081502Y-46358791D01*
X76086620Y-46351419D01*
X76162389Y-46250204D01*
X76213489Y-46113201D01*
X76214036Y-46108121D01*
X76219999Y-46052649D01*
X76220000Y-46052632D01*
X76220000Y-45854000D01*
X76561500Y-45854000D01*
X76561500Y-46512000D01*
X76610085Y-46512000D01*
X76610097Y-46511999D01*
X76670593Y-46505494D01*
X76807464Y-46454444D01*
X76807465Y-46454444D01*
X76924404Y-46366904D01*
X77011944Y-46249965D01*
X77011944Y-46249964D01*
X77062994Y-46113093D01*
X77069499Y-46052597D01*
X77069500Y-46052585D01*
X77069500Y-45854000D01*
X76561500Y-45854000D01*
X76220000Y-45854000D01*
X76220000Y-45480000D01*
X76240002Y-45411879D01*
X76293658Y-45365386D01*
X76346000Y-45354000D01*
X77069500Y-45354000D01*
X77069500Y-45155414D01*
X77069499Y-45155402D01*
X77062994Y-45094906D01*
X77011944Y-44958035D01*
X77011944Y-44958034D01*
X76924404Y-44841095D01*
X76876426Y-44805180D01*
X76833879Y-44748345D01*
X76828814Y-44677529D01*
X76862839Y-44615217D01*
X76876422Y-44603446D01*
X76924761Y-44567261D01*
X77012389Y-44450204D01*
X77063489Y-44313201D01*
X77070000Y-44252638D01*
X77070000Y-43838200D01*
X77090002Y-43770079D01*
X77143658Y-43723586D01*
X77196000Y-43712200D01*
X78272047Y-43712200D01*
X78287888Y-43713949D01*
X78287916Y-43713656D01*
X78295802Y-43714400D01*
X78295809Y-43714402D01*
X78363886Y-43712262D01*
X78367845Y-43712200D01*
X78395751Y-43712200D01*
X78395756Y-43712200D01*
X78399767Y-43711692D01*
X78411599Y-43710761D01*
X78455789Y-43709373D01*
X78475247Y-43703719D01*
X78494594Y-43699713D01*
X78514697Y-43697174D01*
X78515246Y-43696957D01*
X78546012Y-43684775D01*
X78555810Y-43680895D01*
X78567030Y-43677053D01*
X78591813Y-43669854D01*
X78609491Y-43664719D01*
X78609495Y-43664717D01*
X78626926Y-43654408D01*
X78644680Y-43645709D01*
X78663517Y-43638252D01*
X78699292Y-43612258D01*
X78709198Y-43605751D01*
X78747262Y-43583242D01*
X78761585Y-43568918D01*
X78776624Y-43556074D01*
X78778331Y-43554834D01*
X78793007Y-43544172D01*
X78821203Y-43510086D01*
X78829172Y-43501330D01*
X81699060Y-40631443D01*
X81711498Y-40621480D01*
X81711310Y-40621253D01*
X81717416Y-40616201D01*
X81717415Y-40616201D01*
X81717418Y-40616200D01*
X81764061Y-40566528D01*
X81766751Y-40563752D01*
X81786535Y-40543970D01*
X81789014Y-40540773D01*
X81796711Y-40531759D01*
X81826986Y-40499521D01*
X81826989Y-40499516D01*
X81831647Y-40493106D01*
X81832970Y-40494067D01*
X81876720Y-40450559D01*
X81946136Y-40435659D01*
X82012587Y-40460654D01*
G37*
%TD.AperFunction*%
%TA.AperFunction,Conductor*%
G36*
X50397526Y-41227502D02*
G01*
X50444019Y-41281158D01*
X50454123Y-41351432D01*
X50424629Y-41416012D01*
X50418515Y-41422579D01*
X49637206Y-42203888D01*
X49411836Y-42429258D01*
X49399401Y-42439221D01*
X49399589Y-42439448D01*
X49393479Y-42444502D01*
X49346870Y-42494135D01*
X49344120Y-42496973D01*
X49324363Y-42516731D01*
X49321874Y-42519939D01*
X49314188Y-42528936D01*
X49283918Y-42561173D01*
X49283911Y-42561183D01*
X49274151Y-42578935D01*
X49263303Y-42595450D01*
X49250886Y-42611458D01*
X49233324Y-42652040D01*
X49228104Y-42662695D01*
X49206805Y-42701439D01*
X49206803Y-42701444D01*
X49201767Y-42721059D01*
X49195364Y-42739762D01*
X49187319Y-42758352D01*
X49180401Y-42802025D01*
X49177995Y-42813642D01*
X49167000Y-42856468D01*
X49167000Y-42876723D01*
X49165449Y-42896433D01*
X49164188Y-42904397D01*
X49162280Y-42916443D01*
X49163449Y-42928807D01*
X49166441Y-42960461D01*
X49167000Y-42972319D01*
X49167000Y-47699705D01*
X49146998Y-47767826D01*
X49093342Y-47814319D01*
X49023068Y-47824423D01*
X48958488Y-47794929D01*
X48951905Y-47788800D01*
X47573944Y-46410839D01*
X47563979Y-46398401D01*
X47563752Y-46398590D01*
X47558701Y-46392484D01*
X47558700Y-46392482D01*
X47534094Y-46369376D01*
X47509048Y-46345856D01*
X47506204Y-46343099D01*
X47486477Y-46323371D01*
X47486471Y-46323366D01*
X47483267Y-46320880D01*
X47474256Y-46313183D01*
X47442025Y-46282917D01*
X47442019Y-46282913D01*
X47424263Y-46273151D01*
X47407747Y-46262302D01*
X47391741Y-46249886D01*
X47351164Y-46232327D01*
X47340507Y-46227105D01*
X47301763Y-46205806D01*
X47301760Y-46205805D01*
X47282136Y-46200766D01*
X47263436Y-46194364D01*
X47244845Y-46186319D01*
X47244843Y-46186318D01*
X47244841Y-46186318D01*
X47201174Y-46179401D01*
X47189555Y-46176995D01*
X47146730Y-46166000D01*
X47126476Y-46166000D01*
X47106766Y-46164449D01*
X47086757Y-46161280D01*
X47042739Y-46165441D01*
X47030881Y-46166000D01*
X46715500Y-46166000D01*
X46647379Y-46145998D01*
X46600886Y-46092342D01*
X46589500Y-46040000D01*
X46589500Y-45854000D01*
X45866000Y-45854000D01*
X45797879Y-45833998D01*
X45751386Y-45780342D01*
X45740000Y-45728000D01*
X45740000Y-45639336D01*
X45760002Y-45571215D01*
X45813658Y-45524722D01*
X45862041Y-45513398D01*
X45891488Y-45512472D01*
X45898187Y-45512262D01*
X45902145Y-45512200D01*
X45930051Y-45512200D01*
X45930056Y-45512200D01*
X45934067Y-45511692D01*
X45945899Y-45510761D01*
X45990089Y-45509373D01*
X46009547Y-45503719D01*
X46028894Y-45499713D01*
X46048997Y-45497174D01*
X46090110Y-45480895D01*
X46101330Y-45477053D01*
X46126113Y-45469854D01*
X46143791Y-45464719D01*
X46143795Y-45464717D01*
X46161226Y-45454408D01*
X46178980Y-45445709D01*
X46197817Y-45438252D01*
X46233592Y-45412258D01*
X46243498Y-45405751D01*
X46281562Y-45383242D01*
X46281567Y-45383236D01*
X46285171Y-45380442D01*
X46351256Y-45354494D01*
X46362400Y-45354000D01*
X46589500Y-45354000D01*
X46589500Y-45155414D01*
X46589498Y-45155393D01*
X46588168Y-45143020D01*
X46600770Y-45073151D01*
X46624344Y-45040458D01*
X47892557Y-43772245D01*
X47904992Y-43762284D01*
X47904805Y-43762057D01*
X47910916Y-43757001D01*
X47910915Y-43757001D01*
X47910918Y-43757000D01*
X47957576Y-43707312D01*
X47960267Y-43704535D01*
X47980034Y-43684770D01*
X47982517Y-43681567D01*
X47990208Y-43672562D01*
X48020486Y-43640321D01*
X48030245Y-43622567D01*
X48041097Y-43606046D01*
X48053513Y-43590041D01*
X48071068Y-43549470D01*
X48076292Y-43538808D01*
X48081778Y-43528829D01*
X48097595Y-43500060D01*
X48102633Y-43480435D01*
X48109038Y-43461730D01*
X48117081Y-43443145D01*
X48123996Y-43399476D01*
X48126403Y-43387856D01*
X48131641Y-43367459D01*
X48137400Y-43345030D01*
X48137400Y-43324769D01*
X48138951Y-43305058D01*
X48140333Y-43296332D01*
X48142119Y-43285057D01*
X48137959Y-43241045D01*
X48137400Y-43229188D01*
X48137400Y-41490966D01*
X48157402Y-41422845D01*
X48211058Y-41376352D01*
X48228238Y-41369972D01*
X48355001Y-41333145D01*
X48498207Y-41248453D01*
X48499923Y-41246737D01*
X48502256Y-41244405D01*
X48564568Y-41210379D01*
X48591351Y-41207500D01*
X50329405Y-41207500D01*
X50397526Y-41227502D01*
G37*
%TD.AperFunction*%
%TA.AperFunction,Conductor*%
G36*
X38501770Y-41227502D02*
G01*
X38522744Y-41244405D01*
X38526789Y-41248450D01*
X38526796Y-41248455D01*
X38669994Y-41333143D01*
X38669997Y-41333143D01*
X38669999Y-41333145D01*
X38829769Y-41379562D01*
X38867088Y-41382499D01*
X38867089Y-41382500D01*
X38867098Y-41382500D01*
X38944634Y-41382500D01*
X39012755Y-41402502D01*
X39046568Y-41434437D01*
X39055628Y-41446907D01*
X39055629Y-41446908D01*
X39055630Y-41446909D01*
X39089698Y-41475092D01*
X39098478Y-41483082D01*
X42639862Y-45024466D01*
X42673888Y-45086778D01*
X42676045Y-45127027D01*
X42673001Y-45155345D01*
X42673000Y-45155367D01*
X42673000Y-46040000D01*
X42652998Y-46108121D01*
X42599342Y-46154614D01*
X42547000Y-46166000D01*
X31475500Y-46166000D01*
X31407379Y-46145998D01*
X31360886Y-46092342D01*
X31349500Y-46040000D01*
X31349500Y-45854000D01*
X30626000Y-45854000D01*
X30557879Y-45833998D01*
X30511386Y-45780342D01*
X30500000Y-45728000D01*
X30500000Y-45639421D01*
X30520002Y-45571300D01*
X30573658Y-45524807D01*
X30622040Y-45513483D01*
X30660886Y-45512262D01*
X30664845Y-45512200D01*
X30692751Y-45512200D01*
X30692756Y-45512200D01*
X30696767Y-45511692D01*
X30708599Y-45510761D01*
X30752789Y-45509373D01*
X30772247Y-45503719D01*
X30791594Y-45499713D01*
X30811697Y-45497174D01*
X30852810Y-45480895D01*
X30864030Y-45477053D01*
X30888813Y-45469854D01*
X30906491Y-45464719D01*
X30906495Y-45464717D01*
X30923926Y-45454408D01*
X30941680Y-45445709D01*
X30960517Y-45438252D01*
X30996292Y-45412258D01*
X31006198Y-45405751D01*
X31044262Y-45383242D01*
X31044267Y-45383236D01*
X31047871Y-45380442D01*
X31113956Y-45354494D01*
X31125100Y-45354000D01*
X31349500Y-45354000D01*
X31349500Y-45155414D01*
X31349499Y-45155398D01*
X31348430Y-45145460D01*
X31361031Y-45075591D01*
X31384603Y-45042899D01*
X35183102Y-41244402D01*
X35245412Y-41210379D01*
X35272195Y-41207500D01*
X38433649Y-41207500D01*
X38501770Y-41227502D01*
G37*
%TD.AperFunction*%
%TA.AperFunction,Conductor*%
G36*
X93000993Y-35580502D02*
G01*
X93047486Y-35634158D01*
X93057590Y-35704432D01*
X93028096Y-35769012D01*
X93010262Y-35785932D01*
X92970479Y-35816896D01*
X92963654Y-35821850D01*
X92961701Y-35823171D01*
X92906953Y-35860174D01*
X92877382Y-35888515D01*
X92867594Y-35896975D01*
X92837784Y-35920178D01*
X92837778Y-35920183D01*
X92791254Y-35970720D01*
X92785741Y-35976345D01*
X92733858Y-36026071D01*
X92711544Y-36056240D01*
X92702950Y-36066643D01*
X92679686Y-36091916D01*
X92679682Y-36091921D01*
X92640231Y-36152305D01*
X92636053Y-36158311D01*
X92591286Y-36218840D01*
X92575940Y-36249275D01*
X92568919Y-36261456D01*
X92552021Y-36287321D01*
X92552012Y-36287338D01*
X92521663Y-36356524D01*
X92518787Y-36362631D01*
X92483341Y-36432936D01*
X92474371Y-36462224D01*
X92469286Y-36475930D01*
X92458253Y-36501086D01*
X92458251Y-36501091D01*
X92438859Y-36577668D01*
X92437192Y-36583630D01*
X92413138Y-36662177D01*
X92413136Y-36662184D01*
X92409681Y-36689159D01*
X92406848Y-36704073D01*
X92400950Y-36727365D01*
X92400947Y-36727383D01*
X92394140Y-36809523D01*
X92393551Y-36815118D01*
X92382681Y-36900009D01*
X92383689Y-36923740D01*
X92383372Y-36939481D01*
X92381673Y-36959997D01*
X92381673Y-36959998D01*
X92388763Y-37045576D01*
X92389079Y-37050631D01*
X92392856Y-37139551D01*
X92397136Y-37159407D01*
X92399533Y-37175545D01*
X92400948Y-37192622D01*
X92400948Y-37192624D01*
X92422865Y-37279174D01*
X92423892Y-37283557D01*
X92443370Y-37373933D01*
X92443371Y-37373935D01*
X92449660Y-37389588D01*
X92454887Y-37405626D01*
X92457851Y-37417327D01*
X92458251Y-37418907D01*
X92475304Y-37457784D01*
X92495490Y-37503804D01*
X92497015Y-37507436D01*
X92532761Y-37596390D01*
X92532771Y-37596412D01*
X92539805Y-37607836D01*
X92547892Y-37623270D01*
X92552014Y-37632666D01*
X92552018Y-37632673D01*
X92604604Y-37713162D01*
X92606413Y-37716014D01*
X92644445Y-37777782D01*
X92658475Y-37800567D01*
X92658475Y-37800568D01*
X92665067Y-37808058D01*
X92675957Y-37822376D01*
X92679685Y-37828082D01*
X92679693Y-37828091D01*
X92747124Y-37901341D01*
X92749007Y-37903433D01*
X92816872Y-37980543D01*
X92816883Y-37980553D01*
X92821956Y-37984649D01*
X92835496Y-37997338D01*
X92837772Y-37999810D01*
X92837775Y-37999812D01*
X92837780Y-37999818D01*
X92884768Y-38036390D01*
X92919084Y-38063100D01*
X92920848Y-38064499D01*
X93003424Y-38131175D01*
X93006113Y-38132677D01*
X93021123Y-38142627D01*
X93021980Y-38143188D01*
X93021983Y-38143190D01*
X93115646Y-38193877D01*
X93117002Y-38194622D01*
X93212740Y-38248105D01*
X93212748Y-38248107D01*
X93216831Y-38249954D01*
X93222399Y-38252427D01*
X93222502Y-38252194D01*
X93227275Y-38254288D01*
X93245076Y-38260399D01*
X93331364Y-38290022D01*
X93332121Y-38290285D01*
X93437442Y-38327498D01*
X93438812Y-38327982D01*
X93440426Y-38328402D01*
X93446565Y-38329703D01*
X93448034Y-38330075D01*
X93448049Y-38330080D01*
X93560044Y-38348768D01*
X93560141Y-38348784D01*
X93675119Y-38368500D01*
X93675122Y-38368500D01*
X93911712Y-38368500D01*
X93965929Y-38359452D01*
X93975976Y-38358188D01*
X94033898Y-38353259D01*
X94083495Y-38340344D01*
X94094505Y-38337996D01*
X94141951Y-38330080D01*
X94197190Y-38311115D01*
X94206339Y-38308358D01*
X94265924Y-38292844D01*
X94309523Y-38273135D01*
X94320472Y-38268792D01*
X94362727Y-38254287D01*
X94417117Y-38224851D01*
X94425148Y-38220869D01*
X94484402Y-38194086D01*
X94521178Y-38169228D01*
X94531761Y-38162809D01*
X94568017Y-38143190D01*
X94619527Y-38103096D01*
X94626337Y-38098153D01*
X94683047Y-38059825D01*
X94712622Y-38031478D01*
X94722397Y-38023028D01*
X94752220Y-37999818D01*
X94798751Y-37949270D01*
X94804235Y-37943675D01*
X94856144Y-37893925D01*
X94878450Y-37863763D01*
X94887050Y-37853353D01*
X94910314Y-37828083D01*
X94949769Y-37767689D01*
X94953941Y-37761693D01*
X94956144Y-37758715D01*
X94998715Y-37701157D01*
X95014059Y-37670722D01*
X95021083Y-37658536D01*
X95037984Y-37632669D01*
X95068336Y-37563470D01*
X95071214Y-37557362D01*
X95106657Y-37487067D01*
X95115626Y-37457776D01*
X95120711Y-37444069D01*
X95131749Y-37418907D01*
X95151146Y-37342304D01*
X95152794Y-37336409D01*
X95176864Y-37257815D01*
X95180318Y-37230837D01*
X95183149Y-37215930D01*
X95189051Y-37192626D01*
X95195860Y-37110439D01*
X95196445Y-37104895D01*
X95207318Y-37019995D01*
X95206310Y-36996270D01*
X95206625Y-36980527D01*
X95208327Y-36960000D01*
X95201233Y-36874392D01*
X95200922Y-36869437D01*
X95197143Y-36780449D01*
X95192861Y-36760585D01*
X95190466Y-36744460D01*
X95189051Y-36727374D01*
X95167129Y-36640808D01*
X95166109Y-36636453D01*
X95146630Y-36546068D01*
X95140340Y-36530416D01*
X95135110Y-36514368D01*
X95131749Y-36501093D01*
X95101851Y-36432933D01*
X95094509Y-36416195D01*
X95092982Y-36412561D01*
X95057232Y-36323594D01*
X95057231Y-36323592D01*
X95050199Y-36312172D01*
X95042100Y-36296716D01*
X95037982Y-36287327D01*
X94985390Y-36206829D01*
X94983580Y-36203976D01*
X94969560Y-36181206D01*
X94931525Y-36119433D01*
X94931526Y-36119433D01*
X94924936Y-36111946D01*
X94914038Y-36097617D01*
X94910312Y-36091914D01*
X94842874Y-36018657D01*
X94840990Y-36016565D01*
X94773120Y-35939450D01*
X94773119Y-35939449D01*
X94768044Y-35935352D01*
X94754488Y-35922646D01*
X94752218Y-35920180D01*
X94752215Y-35920177D01*
X94670915Y-35856898D01*
X94669150Y-35855499D01*
X94582412Y-35785462D01*
X94583762Y-35783789D01*
X94544397Y-35736175D01*
X94535923Y-35665686D01*
X94566903Y-35601805D01*
X94627502Y-35564815D01*
X94660192Y-35560500D01*
X98382872Y-35560500D01*
X98450993Y-35580502D01*
X98497486Y-35634158D01*
X98507590Y-35704432D01*
X98478096Y-35769012D01*
X98460262Y-35785932D01*
X98420479Y-35816896D01*
X98413654Y-35821850D01*
X98411701Y-35823171D01*
X98356953Y-35860174D01*
X98327382Y-35888515D01*
X98317594Y-35896975D01*
X98287784Y-35920178D01*
X98287778Y-35920183D01*
X98241254Y-35970720D01*
X98235741Y-35976345D01*
X98183858Y-36026071D01*
X98161544Y-36056240D01*
X98152950Y-36066643D01*
X98129686Y-36091916D01*
X98129682Y-36091921D01*
X98090231Y-36152305D01*
X98086053Y-36158311D01*
X98041286Y-36218840D01*
X98025940Y-36249275D01*
X98018919Y-36261456D01*
X98002021Y-36287321D01*
X98002012Y-36287338D01*
X97971663Y-36356524D01*
X97968787Y-36362631D01*
X97933341Y-36432936D01*
X97924371Y-36462224D01*
X97919286Y-36475930D01*
X97908253Y-36501086D01*
X97908251Y-36501091D01*
X97888859Y-36577668D01*
X97887192Y-36583630D01*
X97863138Y-36662177D01*
X97863136Y-36662184D01*
X97859681Y-36689159D01*
X97856848Y-36704073D01*
X97850950Y-36727365D01*
X97850947Y-36727383D01*
X97844140Y-36809523D01*
X97843551Y-36815118D01*
X97832681Y-36900009D01*
X97833689Y-36923740D01*
X97833372Y-36939481D01*
X97831673Y-36959997D01*
X97831673Y-36959998D01*
X97838763Y-37045576D01*
X97839079Y-37050631D01*
X97842856Y-37139551D01*
X97847136Y-37159407D01*
X97849533Y-37175545D01*
X97850948Y-37192622D01*
X97850948Y-37192624D01*
X97872865Y-37279174D01*
X97873892Y-37283557D01*
X97893370Y-37373933D01*
X97893371Y-37373935D01*
X97899660Y-37389588D01*
X97904887Y-37405626D01*
X97907851Y-37417327D01*
X97908251Y-37418907D01*
X97925304Y-37457784D01*
X97945490Y-37503804D01*
X97947015Y-37507436D01*
X97982761Y-37596390D01*
X97982771Y-37596412D01*
X97989805Y-37607836D01*
X97997892Y-37623270D01*
X98002014Y-37632666D01*
X98002018Y-37632673D01*
X98054604Y-37713162D01*
X98056413Y-37716014D01*
X98094445Y-37777782D01*
X98108475Y-37800567D01*
X98108475Y-37800568D01*
X98115067Y-37808058D01*
X98125957Y-37822376D01*
X98129685Y-37828082D01*
X98129693Y-37828091D01*
X98197124Y-37901341D01*
X98199007Y-37903433D01*
X98266872Y-37980543D01*
X98266883Y-37980553D01*
X98271956Y-37984649D01*
X98285496Y-37997338D01*
X98287772Y-37999810D01*
X98287775Y-37999812D01*
X98287780Y-37999818D01*
X98334768Y-38036390D01*
X98369084Y-38063100D01*
X98370848Y-38064499D01*
X98453424Y-38131175D01*
X98456113Y-38132677D01*
X98471123Y-38142627D01*
X98471980Y-38143188D01*
X98471983Y-38143190D01*
X98565646Y-38193877D01*
X98567002Y-38194622D01*
X98662740Y-38248105D01*
X98662748Y-38248107D01*
X98666831Y-38249954D01*
X98672399Y-38252427D01*
X98672502Y-38252194D01*
X98677275Y-38254288D01*
X98695076Y-38260399D01*
X98781364Y-38290022D01*
X98782121Y-38290285D01*
X98887442Y-38327498D01*
X98888812Y-38327982D01*
X98890426Y-38328402D01*
X98896565Y-38329703D01*
X98898034Y-38330075D01*
X98898049Y-38330080D01*
X99010044Y-38348768D01*
X99010141Y-38348784D01*
X99125119Y-38368500D01*
X99125122Y-38368500D01*
X99361712Y-38368500D01*
X99415929Y-38359452D01*
X99425976Y-38358188D01*
X99483898Y-38353259D01*
X99533495Y-38340344D01*
X99544505Y-38337996D01*
X99591951Y-38330080D01*
X99647190Y-38311115D01*
X99656339Y-38308358D01*
X99715924Y-38292844D01*
X99759523Y-38273135D01*
X99770472Y-38268792D01*
X99812727Y-38254287D01*
X99867117Y-38224851D01*
X99875148Y-38220869D01*
X99934402Y-38194086D01*
X99971178Y-38169228D01*
X99981761Y-38162809D01*
X100018017Y-38143190D01*
X100069527Y-38103096D01*
X100076337Y-38098153D01*
X100133047Y-38059825D01*
X100162622Y-38031478D01*
X100172397Y-38023028D01*
X100202220Y-37999818D01*
X100248751Y-37949270D01*
X100254235Y-37943675D01*
X100306144Y-37893925D01*
X100328450Y-37863763D01*
X100337050Y-37853353D01*
X100360314Y-37828083D01*
X100399769Y-37767689D01*
X100403941Y-37761693D01*
X100406144Y-37758715D01*
X100448715Y-37701157D01*
X100464059Y-37670722D01*
X100471083Y-37658536D01*
X100487984Y-37632669D01*
X100518336Y-37563470D01*
X100521214Y-37557362D01*
X100556657Y-37487067D01*
X100565626Y-37457776D01*
X100570711Y-37444069D01*
X100581749Y-37418907D01*
X100601146Y-37342304D01*
X100602794Y-37336409D01*
X100626864Y-37257815D01*
X100630318Y-37230837D01*
X100633149Y-37215930D01*
X100639051Y-37192626D01*
X100645860Y-37110439D01*
X100646445Y-37104895D01*
X100657318Y-37019995D01*
X100656310Y-36996270D01*
X100656625Y-36980527D01*
X100658327Y-36960000D01*
X100651233Y-36874392D01*
X100650922Y-36869437D01*
X100647143Y-36780449D01*
X100642861Y-36760585D01*
X100640466Y-36744460D01*
X100639051Y-36727374D01*
X100617129Y-36640808D01*
X100616109Y-36636453D01*
X100596630Y-36546068D01*
X100590340Y-36530416D01*
X100585110Y-36514368D01*
X100581749Y-36501093D01*
X100551851Y-36432933D01*
X100544509Y-36416195D01*
X100542982Y-36412561D01*
X100507232Y-36323594D01*
X100507231Y-36323592D01*
X100500199Y-36312172D01*
X100492100Y-36296716D01*
X100487982Y-36287327D01*
X100435390Y-36206829D01*
X100433580Y-36203976D01*
X100419560Y-36181206D01*
X100381525Y-36119433D01*
X100381526Y-36119433D01*
X100374936Y-36111946D01*
X100364038Y-36097617D01*
X100360312Y-36091914D01*
X100292874Y-36018657D01*
X100290990Y-36016565D01*
X100223120Y-35939450D01*
X100223119Y-35939449D01*
X100218044Y-35935352D01*
X100204488Y-35922646D01*
X100202218Y-35920180D01*
X100202215Y-35920177D01*
X100120915Y-35856898D01*
X100119150Y-35855499D01*
X100032412Y-35785462D01*
X100033762Y-35783789D01*
X99994397Y-35736175D01*
X99985923Y-35665686D01*
X100016903Y-35601805D01*
X100077502Y-35564815D01*
X100110192Y-35560500D01*
X104463069Y-35560500D01*
X104531190Y-35580502D01*
X104577683Y-35634158D01*
X104587787Y-35704432D01*
X104558293Y-35769012D01*
X104540460Y-35785932D01*
X104487097Y-35827465D01*
X104334674Y-35993041D01*
X104211580Y-36181451D01*
X104121179Y-36387543D01*
X104121176Y-36387550D01*
X104073455Y-36575999D01*
X104073456Y-36576000D01*
X104966999Y-36576000D01*
X104941318Y-36615960D01*
X104900000Y-36756673D01*
X104900000Y-36903327D01*
X104941318Y-37044040D01*
X104966999Y-37084000D01*
X104073455Y-37084000D01*
X104121176Y-37272449D01*
X104121179Y-37272456D01*
X104211580Y-37478548D01*
X104334674Y-37666958D01*
X104487097Y-37832534D01*
X104664698Y-37970767D01*
X104664704Y-37970771D01*
X104698207Y-37988902D01*
X104748597Y-38038915D01*
X104763949Y-38108232D01*
X104739388Y-38174845D01*
X104698207Y-38210528D01*
X104664430Y-38228807D01*
X104664424Y-38228811D01*
X104486762Y-38367091D01*
X104334279Y-38532729D01*
X104334275Y-38532734D01*
X104211141Y-38721206D01*
X104120703Y-38927386D01*
X104120702Y-38927387D01*
X104065437Y-39145624D01*
X104065436Y-39145630D01*
X104065436Y-39145632D01*
X104046844Y-39370000D01*
X104065298Y-39592706D01*
X104065437Y-39594375D01*
X104120702Y-39812612D01*
X104120703Y-39812613D01*
X104120704Y-39812616D01*
X104160468Y-39903270D01*
X104167799Y-39919982D01*
X104176845Y-39990400D01*
X104146384Y-40054530D01*
X104126478Y-40072527D01*
X104116294Y-40079926D01*
X104088115Y-40113988D01*
X104080128Y-40122765D01*
X103758299Y-40444596D01*
X103695987Y-40478621D01*
X103669203Y-40481501D01*
X100281681Y-40481501D01*
X100213560Y-40461499D01*
X100167067Y-40407843D01*
X100156963Y-40337569D01*
X100158839Y-40327468D01*
X100166198Y-40295222D01*
X100167305Y-40290759D01*
X100189115Y-40209371D01*
X100190153Y-40197499D01*
X100190424Y-40194405D01*
X100193103Y-40177344D01*
X100197151Y-40159615D01*
X100200917Y-40075739D01*
X100201266Y-40070469D01*
X100208307Y-39990000D01*
X100206694Y-39971573D01*
X100206343Y-39954942D01*
X100206359Y-39954589D01*
X100207315Y-39933309D01*
X100196513Y-39853579D01*
X100195852Y-39847647D01*
X100195227Y-39840502D01*
X100189115Y-39770629D01*
X100183429Y-39749409D01*
X100180279Y-39733729D01*
X100176906Y-39708825D01*
X100153103Y-39635568D01*
X100151232Y-39629252D01*
X100148805Y-39620196D01*
X100132120Y-39557924D01*
X100132118Y-39557921D01*
X100132117Y-39557916D01*
X100121375Y-39534882D01*
X100115741Y-39520581D01*
X100106903Y-39493379D01*
X100072030Y-39428574D01*
X100068820Y-39422178D01*
X100039056Y-39358347D01*
X100022481Y-39334677D01*
X100014748Y-39322128D01*
X99999556Y-39293894D01*
X99968682Y-39255179D01*
X99955832Y-39239065D01*
X99951129Y-39232775D01*
X99949748Y-39230803D01*
X99925749Y-39196528D01*
X99912753Y-39177967D01*
X99912746Y-39177959D01*
X99889882Y-39155095D01*
X99880466Y-39144559D01*
X99858317Y-39116785D01*
X99858314Y-39116782D01*
X99808094Y-39072906D01*
X99801930Y-39067143D01*
X99757038Y-39022251D01*
X99757037Y-39022250D01*
X99757036Y-39022249D01*
X99757033Y-39022246D01*
X99727699Y-39001707D01*
X99717078Y-38993389D01*
X99687718Y-38967737D01*
X99687715Y-38967735D01*
X99633469Y-38935324D01*
X99625825Y-38930373D01*
X99576659Y-38895946D01*
X99576653Y-38895943D01*
X99541055Y-38879344D01*
X99529688Y-38873318D01*
X99505183Y-38858677D01*
X99493254Y-38851549D01*
X99493252Y-38851548D01*
X99493251Y-38851547D01*
X99493250Y-38851547D01*
X99472073Y-38843599D01*
X99437308Y-38830551D01*
X99428336Y-38826782D01*
X99377079Y-38802881D01*
X99377065Y-38802876D01*
X99335800Y-38791819D01*
X99324139Y-38788079D01*
X99281160Y-38771948D01*
X99225780Y-38761897D01*
X99215672Y-38759630D01*
X99164371Y-38745884D01*
X99118345Y-38741857D01*
X99106832Y-38740312D01*
X99058270Y-38731500D01*
X99058267Y-38731500D01*
X99005451Y-38731500D01*
X98994471Y-38731021D01*
X98990631Y-38730685D01*
X98945000Y-38726693D01*
X98944999Y-38726693D01*
X98944998Y-38726693D01*
X98894362Y-38731122D01*
X98889075Y-38731472D01*
X98888502Y-38731497D01*
X98833887Y-38736412D01*
X98833578Y-38736439D01*
X98723673Y-38746055D01*
X98721299Y-38746370D01*
X98719381Y-38746718D01*
X98615123Y-38775491D01*
X98614216Y-38775737D01*
X98512927Y-38802878D01*
X98508350Y-38804544D01*
X98502720Y-38806342D01*
X98501005Y-38806986D01*
X98406634Y-38852431D01*
X98405218Y-38853102D01*
X98313353Y-38895940D01*
X98308589Y-38898691D01*
X98308512Y-38898559D01*
X98297690Y-38904897D01*
X98296914Y-38905270D01*
X98296901Y-38905278D01*
X98214993Y-38964787D01*
X98213206Y-38966062D01*
X98132956Y-39022255D01*
X98132138Y-39023073D01*
X98117133Y-39035888D01*
X98113645Y-39038422D01*
X98113640Y-39038426D01*
X98113637Y-39038429D01*
X98082536Y-39070958D01*
X98046077Y-39109090D01*
X98044103Y-39111108D01*
X97977250Y-39177961D01*
X97974597Y-39181751D01*
X97962477Y-39196528D01*
X97957088Y-39202164D01*
X97957086Y-39202168D01*
X97905145Y-39280855D01*
X97903203Y-39283711D01*
X97850944Y-39358346D01*
X97847519Y-39365689D01*
X97838495Y-39381825D01*
X97832291Y-39391225D01*
X97832288Y-39391230D01*
X97796582Y-39474768D01*
X97794918Y-39478494D01*
X97757879Y-39557925D01*
X97754889Y-39569084D01*
X97749049Y-39585977D01*
X97743257Y-39599528D01*
X97723815Y-39684709D01*
X97722681Y-39689279D01*
X97700885Y-39770625D01*
X97700884Y-39770635D01*
X97699574Y-39785603D01*
X97696897Y-39802646D01*
X97692849Y-39820382D01*
X97692848Y-39820389D01*
X97689083Y-39904218D01*
X97688731Y-39909543D01*
X97681693Y-39990001D01*
X97683304Y-40008424D01*
X97683656Y-40025049D01*
X97682684Y-40046686D01*
X97682684Y-40046688D01*
X97693487Y-40126435D01*
X97694147Y-40132365D01*
X97700884Y-40209365D01*
X97700885Y-40209375D01*
X97706568Y-40230582D01*
X97709720Y-40246276D01*
X97713092Y-40271170D01*
X97713093Y-40271175D01*
X97721957Y-40298453D01*
X97724540Y-40306404D01*
X97727842Y-40316564D01*
X97729870Y-40387531D01*
X97693208Y-40448330D01*
X97629496Y-40479655D01*
X97608009Y-40481501D01*
X95431681Y-40481501D01*
X95363560Y-40461499D01*
X95317067Y-40407843D01*
X95306963Y-40337569D01*
X95308839Y-40327468D01*
X95316198Y-40295222D01*
X95317305Y-40290759D01*
X95339115Y-40209371D01*
X95340153Y-40197499D01*
X95340424Y-40194405D01*
X95343103Y-40177344D01*
X95347151Y-40159615D01*
X95350917Y-40075739D01*
X95351266Y-40070469D01*
X95358307Y-39990000D01*
X95356694Y-39971573D01*
X95356343Y-39954942D01*
X95356359Y-39954589D01*
X95357315Y-39933309D01*
X95346513Y-39853579D01*
X95345852Y-39847647D01*
X95345227Y-39840502D01*
X95339115Y-39770629D01*
X95333429Y-39749409D01*
X95330279Y-39733729D01*
X95326906Y-39708825D01*
X95303103Y-39635568D01*
X95301232Y-39629252D01*
X95298805Y-39620196D01*
X95282120Y-39557924D01*
X95282118Y-39557921D01*
X95282117Y-39557916D01*
X95271375Y-39534882D01*
X95265741Y-39520581D01*
X95256903Y-39493379D01*
X95222030Y-39428574D01*
X95218820Y-39422178D01*
X95189056Y-39358347D01*
X95172481Y-39334677D01*
X95164748Y-39322128D01*
X95149556Y-39293894D01*
X95118682Y-39255179D01*
X95105832Y-39239065D01*
X95101129Y-39232775D01*
X95099748Y-39230803D01*
X95075749Y-39196528D01*
X95062753Y-39177967D01*
X95062746Y-39177959D01*
X95039882Y-39155095D01*
X95030466Y-39144559D01*
X95008317Y-39116785D01*
X95008314Y-39116782D01*
X94958094Y-39072906D01*
X94951930Y-39067143D01*
X94907038Y-39022251D01*
X94907037Y-39022250D01*
X94907036Y-39022249D01*
X94907033Y-39022246D01*
X94877699Y-39001707D01*
X94867078Y-38993389D01*
X94837718Y-38967737D01*
X94837715Y-38967735D01*
X94783469Y-38935324D01*
X94775825Y-38930373D01*
X94726659Y-38895946D01*
X94726653Y-38895943D01*
X94691055Y-38879344D01*
X94679688Y-38873318D01*
X94655183Y-38858677D01*
X94643254Y-38851549D01*
X94643252Y-38851548D01*
X94643251Y-38851547D01*
X94643250Y-38851547D01*
X94622073Y-38843599D01*
X94587308Y-38830551D01*
X94578336Y-38826782D01*
X94527079Y-38802881D01*
X94527065Y-38802876D01*
X94485800Y-38791819D01*
X94474139Y-38788079D01*
X94431160Y-38771948D01*
X94375780Y-38761897D01*
X94365672Y-38759630D01*
X94314371Y-38745884D01*
X94268345Y-38741857D01*
X94256832Y-38740312D01*
X94208270Y-38731500D01*
X94208267Y-38731500D01*
X94155451Y-38731500D01*
X94144471Y-38731021D01*
X94140631Y-38730685D01*
X94095000Y-38726693D01*
X94094999Y-38726693D01*
X94094998Y-38726693D01*
X94044362Y-38731122D01*
X94039075Y-38731472D01*
X94038502Y-38731497D01*
X93983887Y-38736412D01*
X93983578Y-38736439D01*
X93873673Y-38746055D01*
X93871299Y-38746370D01*
X93869381Y-38746718D01*
X93765123Y-38775491D01*
X93764216Y-38775737D01*
X93662927Y-38802878D01*
X93658350Y-38804544D01*
X93652720Y-38806342D01*
X93651005Y-38806986D01*
X93556634Y-38852431D01*
X93555218Y-38853102D01*
X93463353Y-38895940D01*
X93458589Y-38898691D01*
X93458512Y-38898559D01*
X93447690Y-38904897D01*
X93446914Y-38905270D01*
X93446901Y-38905278D01*
X93364993Y-38964787D01*
X93363206Y-38966062D01*
X93282956Y-39022255D01*
X93282138Y-39023073D01*
X93267133Y-39035888D01*
X93263645Y-39038422D01*
X93263640Y-39038426D01*
X93263637Y-39038429D01*
X93232536Y-39070958D01*
X93196077Y-39109090D01*
X93194103Y-39111108D01*
X93127250Y-39177961D01*
X93124597Y-39181751D01*
X93112477Y-39196528D01*
X93107088Y-39202164D01*
X93107086Y-39202168D01*
X93055145Y-39280855D01*
X93053203Y-39283711D01*
X93000944Y-39358346D01*
X92997519Y-39365689D01*
X92988495Y-39381825D01*
X92982291Y-39391225D01*
X92982288Y-39391230D01*
X92946582Y-39474768D01*
X92944918Y-39478494D01*
X92907879Y-39557925D01*
X92904889Y-39569084D01*
X92899049Y-39585977D01*
X92893257Y-39599528D01*
X92873815Y-39684709D01*
X92872681Y-39689279D01*
X92850885Y-39770625D01*
X92850884Y-39770635D01*
X92849574Y-39785603D01*
X92846897Y-39802646D01*
X92842849Y-39820382D01*
X92842848Y-39820389D01*
X92839083Y-39904218D01*
X92838731Y-39909543D01*
X92831693Y-39990001D01*
X92833304Y-40008424D01*
X92833656Y-40025049D01*
X92832684Y-40046686D01*
X92832684Y-40046688D01*
X92843487Y-40126435D01*
X92844147Y-40132365D01*
X92850884Y-40209365D01*
X92850885Y-40209375D01*
X92856568Y-40230582D01*
X92859720Y-40246276D01*
X92863092Y-40271170D01*
X92863093Y-40271175D01*
X92871957Y-40298453D01*
X92874540Y-40306404D01*
X92877842Y-40316564D01*
X92879870Y-40387531D01*
X92843208Y-40448330D01*
X92779496Y-40479655D01*
X92758009Y-40481501D01*
X92134996Y-40481501D01*
X92066875Y-40461499D01*
X92045901Y-40444596D01*
X89312644Y-37711339D01*
X89302679Y-37698901D01*
X89302452Y-37699090D01*
X89297401Y-37692984D01*
X89297400Y-37692982D01*
X89247748Y-37646356D01*
X89244905Y-37643600D01*
X89225177Y-37623871D01*
X89225171Y-37623866D01*
X89221967Y-37621380D01*
X89212956Y-37613683D01*
X89180725Y-37583417D01*
X89180719Y-37583413D01*
X89179107Y-37582527D01*
X89177395Y-37581586D01*
X89162963Y-37573651D01*
X89146447Y-37562802D01*
X89130441Y-37550386D01*
X89089864Y-37532827D01*
X89079207Y-37527605D01*
X89040463Y-37506306D01*
X89040460Y-37506305D01*
X89020836Y-37501266D01*
X89002136Y-37494864D01*
X88983545Y-37486819D01*
X88983542Y-37486818D01*
X88983541Y-37486818D01*
X88981149Y-37486123D01*
X88979497Y-37485068D01*
X88976273Y-37483673D01*
X88976498Y-37483152D01*
X88921314Y-37447909D01*
X88891639Y-37383412D01*
X88900917Y-37314514D01*
X88919296Y-37272616D01*
X88974564Y-37054368D01*
X88993156Y-36830000D01*
X88974564Y-36605632D01*
X88959480Y-36546067D01*
X88919297Y-36387387D01*
X88919296Y-36387386D01*
X88919296Y-36387384D01*
X88828860Y-36181209D01*
X88788500Y-36119433D01*
X88705724Y-35992734D01*
X88705720Y-35992729D01*
X88647513Y-35929501D01*
X88553240Y-35827094D01*
X88553234Y-35827089D01*
X88553233Y-35827088D01*
X88500356Y-35785931D01*
X88458885Y-35728306D01*
X88455152Y-35657408D01*
X88490342Y-35595746D01*
X88553282Y-35562898D01*
X88577747Y-35560500D01*
X92932872Y-35560500D01*
X93000993Y-35580502D01*
G37*
%TD.AperFunction*%
%TD*%
M02*
