%TF.GenerationSoftware,KiCad,Pcbnew,7.0.10*%
%TF.CreationDate,2024-04-06T15:07:32+02:00*%
%TF.ProjectId,pico-sst39sf0x0-pcb,7069636f-2d73-4737-9433-397366307830,2*%
%TF.SameCoordinates,Original*%
%TF.FileFunction,Copper,L2,Bot*%
%TF.FilePolarity,Positive*%
%FSLAX46Y46*%
G04 Gerber Fmt 4.6, Leading zero omitted, Abs format (unit mm)*
G04 Created by KiCad (PCBNEW 7.0.10) date 2024-04-06 15:07:32*
%MOMM*%
%LPD*%
G01*
G04 APERTURE LIST*
G04 Aperture macros list*
%AMRoundRect*
0 Rectangle with rounded corners*
0 $1 Rounding radius*
0 $2 $3 $4 $5 $6 $7 $8 $9 X,Y pos of 4 corners*
0 Add a 4 corners polygon primitive as box body*
4,1,4,$2,$3,$4,$5,$6,$7,$8,$9,$2,$3,0*
0 Add four circle primitives for the rounded corners*
1,1,$1+$1,$2,$3*
1,1,$1+$1,$4,$5*
1,1,$1+$1,$6,$7*
1,1,$1+$1,$8,$9*
0 Add four rect primitives between the rounded corners*
20,1,$1+$1,$2,$3,$4,$5,0*
20,1,$1+$1,$4,$5,$6,$7,0*
20,1,$1+$1,$6,$7,$8,$9,0*
20,1,$1+$1,$8,$9,$2,$3,0*%
G04 Aperture macros list end*
%TA.AperFunction,ComponentPad*%
%ADD10O,1.700000X1.700000*%
%TD*%
%TA.AperFunction,ComponentPad*%
%ADD11R,1.700000X1.700000*%
%TD*%
%TA.AperFunction,ComponentPad*%
%ADD12R,1.440000X2.000000*%
%TD*%
%TA.AperFunction,ComponentPad*%
%ADD13O,1.440000X2.000000*%
%TD*%
%TA.AperFunction,ComponentPad*%
%ADD14C,2.000000*%
%TD*%
%TA.AperFunction,ComponentPad*%
%ADD15C,1.800000*%
%TD*%
%TA.AperFunction,ComponentPad*%
%ADD16R,1.800000X1.800000*%
%TD*%
%TA.AperFunction,SMDPad,CuDef*%
%ADD17RoundRect,0.150000X0.587500X0.150000X-0.587500X0.150000X-0.587500X-0.150000X0.587500X-0.150000X0*%
%TD*%
%TA.AperFunction,SMDPad,CuDef*%
%ADD18RoundRect,0.150000X-0.587500X-0.150000X0.587500X-0.150000X0.587500X0.150000X-0.587500X0.150000X0*%
%TD*%
%TA.AperFunction,SMDPad,CuDef*%
%ADD19R,0.500000X0.800000*%
%TD*%
%TA.AperFunction,SMDPad,CuDef*%
%ADD20R,0.400000X0.800000*%
%TD*%
%TA.AperFunction,SMDPad,CuDef*%
%ADD21RoundRect,0.250000X-0.475000X0.250000X-0.475000X-0.250000X0.475000X-0.250000X0.475000X0.250000X0*%
%TD*%
%TA.AperFunction,SMDPad,CuDef*%
%ADD22RoundRect,0.250000X-0.350000X-0.450000X0.350000X-0.450000X0.350000X0.450000X-0.350000X0.450000X0*%
%TD*%
%TA.AperFunction,SMDPad,CuDef*%
%ADD23R,1.800000X2.500000*%
%TD*%
%TA.AperFunction,SMDPad,CuDef*%
%ADD24R,0.800000X0.500000*%
%TD*%
%TA.AperFunction,SMDPad,CuDef*%
%ADD25R,0.800000X0.400000*%
%TD*%
%TA.AperFunction,SMDPad,CuDef*%
%ADD26RoundRect,0.150000X0.150000X-0.875000X0.150000X0.875000X-0.150000X0.875000X-0.150000X-0.875000X0*%
%TD*%
%TA.AperFunction,SMDPad,CuDef*%
%ADD27RoundRect,0.250000X0.475000X-0.250000X0.475000X0.250000X-0.475000X0.250000X-0.475000X-0.250000X0*%
%TD*%
%TA.AperFunction,SMDPad,CuDef*%
%ADD28RoundRect,0.250000X0.450000X-0.350000X0.450000X0.350000X-0.450000X0.350000X-0.450000X-0.350000X0*%
%TD*%
%TA.AperFunction,ViaPad*%
%ADD29C,0.800000*%
%TD*%
%TA.AperFunction,Conductor*%
%ADD30C,0.250000*%
%TD*%
G04 APERTURE END LIST*
D10*
%TO.P,U5,1,GPIO0*%
%TO.N,LD0*%
X99060000Y-22860000D03*
%TO.P,U5,2,GPIO1*%
%TO.N,LD1*%
X99060000Y-25400000D03*
D11*
%TO.P,U5,3,GND*%
%TO.N,GND*%
X99060000Y-27940000D03*
D10*
%TO.P,U5,4,GPIO2*%
%TO.N,LD2*%
X99060000Y-30480000D03*
%TO.P,U5,5,GPIO3*%
%TO.N,LD3*%
X99060000Y-33020000D03*
%TO.P,U5,6,GPIO4*%
%TO.N,LD4*%
X99060000Y-35560000D03*
%TO.P,U5,7,GPIO5*%
%TO.N,LD5*%
X99060000Y-38100000D03*
D11*
%TO.P,U5,8,GND*%
%TO.N,GND*%
X99060000Y-40640000D03*
D10*
%TO.P,U5,9,GPIO6*%
%TO.N,LD6*%
X99060000Y-43180000D03*
%TO.P,U5,10,GPIO7*%
%TO.N,LD7*%
X99060000Y-45720000D03*
%TO.P,U5,11,GPIO8*%
%TO.N,LP0*%
X99060000Y-48260000D03*
%TO.P,U5,12,GPIO9*%
%TO.N,LP1*%
X99060000Y-50800000D03*
D11*
%TO.P,U5,13,GND*%
%TO.N,GND*%
X99060000Y-53340000D03*
D10*
%TO.P,U5,14,GPIO10*%
%TO.N,LP2*%
X99060000Y-55880000D03*
%TO.P,U5,15,GPIO11*%
%TO.N,LP3*%
X99060000Y-58420000D03*
%TO.P,U5,16,GPIO12*%
%TO.N,LP4*%
X99060000Y-60960000D03*
%TO.P,U5,17,GPIO13*%
%TO.N,LP5*%
X99060000Y-63500000D03*
D11*
%TO.P,U5,18,GND*%
%TO.N,GND*%
X99060000Y-66040000D03*
D10*
%TO.P,U5,19,GPIO14*%
%TO.N,LP6*%
X99060000Y-68580000D03*
%TO.P,U5,20,GPIO15*%
%TO.N,LP7*%
X99060000Y-71120000D03*
%TO.P,U5,21,GPIO16*%
%TO.N,~{LROE}*%
X116840000Y-71120000D03*
%TO.P,U5,22,GPIO17*%
%TO.N,LALS*%
X116840000Y-68580000D03*
D11*
%TO.P,U5,23,GND*%
%TO.N,GND*%
X116840000Y-66040000D03*
D10*
%TO.P,U5,24,GPIO18*%
%TO.N,LAHS*%
X116840000Y-63500000D03*
%TO.P,U5,25,GPIO19*%
%TO.N,LAUS*%
X116840000Y-60960000D03*
%TO.P,U5,26,GPIO20*%
%TO.N,~{LPGM}*%
X116840000Y-58420000D03*
%TO.P,U5,27,GPIO21*%
%TO.N,~{LCE}*%
X116840000Y-55880000D03*
D11*
%TO.P,U5,28,GND*%
%TO.N,GND*%
X116840000Y-53340000D03*
D10*
%TO.P,U5,29,GPIO22*%
%TO.N,~{LOE}*%
X116840000Y-50800000D03*
%TO.P,U5,30,RUN*%
%TO.N,RUN*%
X116840000Y-48260000D03*
%TO.P,U5,31,GPIO26_ADC0*%
%TO.N,GPIO26_3v3*%
X116840000Y-45720000D03*
%TO.P,U5,32,GPIO27_ADC1*%
%TO.N,GPIO27_3v3*%
X116840000Y-43180000D03*
D11*
%TO.P,U5,33,AGND*%
%TO.N,GND*%
X116840000Y-40640000D03*
D10*
%TO.P,U5,34,GPIO28_ADC2*%
%TO.N,unconnected-(U5-GPIO28_ADC2-Pad34)*%
X116840000Y-38100000D03*
%TO.P,U5,35,ADC_VREF*%
%TO.N,unconnected-(U5-ADC_VREF-Pad35)*%
X116840000Y-35560000D03*
%TO.P,U5,36,3V3*%
%TO.N,+3V3*%
X116840000Y-33020000D03*
%TO.P,U5,37,3V3_EN*%
%TO.N,unconnected-(U5-3V3_EN-Pad37)*%
X116840000Y-30480000D03*
D11*
%TO.P,U5,38,GND*%
%TO.N,GND*%
X116840000Y-27940000D03*
D10*
%TO.P,U5,39,VSYS*%
%TO.N,unconnected-(U5-VSYS-Pad39)*%
X116840000Y-25400000D03*
%TO.P,U5,40,VBUS*%
%TO.N,+5V*%
X116840000Y-22860000D03*
%TO.P,U5,41,SWCLK*%
%TO.N,unconnected-(U5-SWCLK-Pad41)*%
X105410000Y-70890000D03*
D11*
%TO.P,U5,42,GND*%
%TO.N,GND*%
X107950000Y-70890000D03*
D10*
%TO.P,U5,43,SWDIO*%
%TO.N,unconnected-(U5-SWDIO-Pad43)*%
X110490000Y-70890000D03*
%TD*%
D12*
%TO.P,U2,1,A18*%
%TO.N,A18*%
X37220000Y-60232500D03*
D13*
%TO.P,U2,2,A16*%
%TO.N,A16*%
X39760000Y-60232500D03*
%TO.P,U2,3,A15*%
%TO.N,A15*%
X42300000Y-60232500D03*
%TO.P,U2,4,A12*%
%TO.N,A12*%
X44840000Y-60232500D03*
%TO.P,U2,5,A7*%
%TO.N,A7*%
X47380000Y-60232500D03*
%TO.P,U2,6,A6*%
%TO.N,A6*%
X49920000Y-60232500D03*
%TO.P,U2,7,A5*%
%TO.N,A5*%
X52460000Y-60232500D03*
%TO.P,U2,8,A4*%
%TO.N,A4*%
X55000000Y-60232500D03*
%TO.P,U2,9,A3*%
%TO.N,A3*%
X57540000Y-60232500D03*
%TO.P,U2,10,A2*%
%TO.N,A2*%
X60080000Y-60232500D03*
%TO.P,U2,11,A1*%
%TO.N,A1*%
X62620000Y-60232500D03*
%TO.P,U2,12,A0*%
%TO.N,A0*%
X65160000Y-60232500D03*
%TO.P,U2,13,D0*%
%TO.N,D0*%
X67700000Y-60232500D03*
%TO.P,U2,14,D1*%
%TO.N,D1*%
X70240000Y-60232500D03*
%TO.P,U2,15,D2*%
%TO.N,D2*%
X72780000Y-60232500D03*
%TO.P,U2,16,GND*%
%TO.N,GND*%
X75320000Y-60232500D03*
%TO.P,U2,17,D3*%
%TO.N,D3*%
X75320000Y-44992500D03*
%TO.P,U2,18,D4*%
%TO.N,D4*%
X72780000Y-44992500D03*
%TO.P,U2,19,D5*%
%TO.N,D5*%
X70240000Y-44992500D03*
%TO.P,U2,20,D6*%
%TO.N,D6*%
X67700000Y-44992500D03*
%TO.P,U2,21,D7*%
%TO.N,D7*%
X65160000Y-44992500D03*
%TO.P,U2,22,CE*%
%TO.N,~{CE}*%
X62620000Y-44992500D03*
%TO.P,U2,23,A10*%
%TO.N,A10*%
X60080000Y-44992500D03*
%TO.P,U2,24,OE*%
%TO.N,~{OE}*%
X57540000Y-44992500D03*
%TO.P,U2,25,A11*%
%TO.N,A11*%
X55000000Y-44992500D03*
%TO.P,U2,26,A9*%
%TO.N,A9*%
X52460000Y-44992500D03*
%TO.P,U2,27,A8*%
%TO.N,A8*%
X49920000Y-44992500D03*
%TO.P,U2,28,A13*%
%TO.N,A13*%
X47380000Y-44992500D03*
%TO.P,U2,29,A14*%
%TO.N,A14*%
X44840000Y-44992500D03*
%TO.P,U2,30,A17*%
%TO.N,A17*%
X42300000Y-44992500D03*
%TO.P,U2,31,PGM*%
%TO.N,~{PGM}*%
X39760000Y-44992500D03*
%TO.P,U2,32,VCC*%
%TO.N,Net-(D1-K)*%
X37220000Y-44992500D03*
%TD*%
D14*
%TO.P,SW1,1,1*%
%TO.N,RUN*%
X41096000Y-73370000D03*
X34596000Y-73370000D03*
%TO.P,SW1,2,2*%
%TO.N,GND*%
X41096000Y-68870000D03*
X34596000Y-68870000D03*
%TD*%
D15*
%TO.P,D2,2,A*%
%TO.N,GPIO26_3v3*%
X48763000Y-71120000D03*
D16*
%TO.P,D2,1,K*%
%TO.N,Net-(D2-K)*%
X46223000Y-71120000D03*
%TD*%
%TO.P,D3,1,K*%
%TO.N,Net-(D3-K)*%
X58674000Y-71120000D03*
D15*
%TO.P,D3,2,A*%
%TO.N,GPIO27_3v3*%
X61214000Y-71120000D03*
%TD*%
D17*
%TO.P,Q21,1,G*%
%TO.N,+3V3*%
X80632500Y-35372000D03*
%TO.P,Q21,2,S*%
%TO.N,LD6*%
X80632500Y-37272000D03*
%TO.P,Q21,3,D*%
%TO.N,D6*%
X78757500Y-36322000D03*
%TD*%
D18*
%TO.P,Q6,1,G*%
%TO.N,+3V3*%
X42968200Y-26604000D03*
%TO.P,Q6,2,S*%
%TO.N,LALS*%
X42968200Y-24704000D03*
%TO.P,Q6,3,D*%
%TO.N,ALS*%
X44843200Y-25654000D03*
%TD*%
%TO.P,Q12,1,G*%
%TO.N,+3V3*%
X58933900Y-26604000D03*
%TO.P,Q12,2,S*%
%TO.N,~{LPGM}*%
X58933900Y-24704000D03*
%TO.P,Q12,3,D*%
%TO.N,~{PGM}*%
X60808900Y-25654000D03*
%TD*%
%TO.P,Q4,1,G*%
%TO.N,+3V3*%
X71113800Y-68768000D03*
%TO.P,Q4,2,S*%
%TO.N,LP3*%
X71113800Y-66868000D03*
%TO.P,Q4,3,D*%
%TO.N,P3*%
X72988800Y-67818000D03*
%TD*%
D19*
%TO.P,RN6,1,R1.1*%
%TO.N,+5V*%
X81318000Y-62738000D03*
D20*
%TO.P,RN6,2,R2.1*%
X80518000Y-62738000D03*
%TO.P,RN6,3,R3.1*%
X79718000Y-62738000D03*
D19*
%TO.P,RN6,4,R4.1*%
X78918000Y-62738000D03*
%TO.P,RN6,5,R4.2*%
%TO.N,P7*%
X78918000Y-60938000D03*
D20*
%TO.P,RN6,6,R3.2*%
%TO.N,P6*%
X79718000Y-60938000D03*
%TO.P,RN6,7,R2.2*%
%TO.N,P5*%
X80518000Y-60938000D03*
D19*
%TO.P,RN6,8,R1.2*%
%TO.N,P4*%
X81318000Y-60938000D03*
%TD*%
D21*
%TO.P,C4,1*%
%TO.N,+5V*%
X89916000Y-51628000D03*
%TO.P,C4,2*%
%TO.N,GND*%
X89916000Y-53528000D03*
%TD*%
D22*
%TO.P,R1,1*%
%TO.N,+3V3*%
X36862000Y-71120000D03*
%TO.P,R1,2*%
%TO.N,RUN*%
X38862000Y-71120000D03*
%TD*%
D18*
%TO.P,Q5,1,G*%
%TO.N,+3V3*%
X34985400Y-26604000D03*
%TO.P,Q5,2,S*%
%TO.N,~{LROE}*%
X34985400Y-24704000D03*
%TO.P,Q5,3,D*%
%TO.N,~{ROE}*%
X36860400Y-25654000D03*
%TD*%
D19*
%TO.P,RN5,1,R1.1*%
%TO.N,LAHS*%
X54861500Y-29834000D03*
D20*
%TO.P,RN5,2,R2.1*%
%TO.N,AHS*%
X55661500Y-29834000D03*
%TO.P,RN5,3,R3.1*%
%TO.N,~{LPGM}*%
X56461500Y-29834000D03*
D19*
%TO.P,RN5,4,R4.1*%
%TO.N,~{PGM}*%
X57261500Y-29834000D03*
%TO.P,RN5,5,R4.2*%
%TO.N,+5V*%
X57261500Y-31634000D03*
D20*
%TO.P,RN5,6,R3.2*%
%TO.N,+3V3*%
X56461500Y-31634000D03*
%TO.P,RN5,7,R2.2*%
%TO.N,+5V*%
X55661500Y-31634000D03*
D19*
%TO.P,RN5,8,R1.2*%
%TO.N,+3V3*%
X54861500Y-31634000D03*
%TD*%
D17*
%TO.P,Q15,1,G*%
%TO.N,+3V3*%
X47705500Y-35372000D03*
%TO.P,Q15,2,S*%
%TO.N,LD2*%
X47705500Y-37272000D03*
%TO.P,Q15,3,D*%
%TO.N,D2*%
X45830500Y-36322000D03*
%TD*%
D21*
%TO.P,C3,1*%
%TO.N,+5V*%
X68580000Y-51694000D03*
%TO.P,C3,2*%
%TO.N,GND*%
X68580000Y-53594000D03*
%TD*%
D23*
%TO.P,D1,1,K*%
%TO.N,Net-(D1-K)*%
X28702000Y-46196000D03*
%TO.P,D1,2,A*%
%TO.N,+5V*%
X28702000Y-42196000D03*
%TD*%
D24*
%TO.P,RN10,1,R1.1*%
%TO.N,+3V3*%
X67696000Y-37522000D03*
D25*
%TO.P,RN10,2,R2.1*%
X67696000Y-36722000D03*
%TO.P,RN10,3,R3.1*%
X67696000Y-35922000D03*
D24*
%TO.P,RN10,4,R4.1*%
X67696000Y-35122000D03*
%TO.P,RN10,5,R4.2*%
%TO.N,LD7*%
X69496000Y-35122000D03*
D25*
%TO.P,RN10,6,R3.2*%
%TO.N,LD6*%
X69496000Y-35922000D03*
%TO.P,RN10,7,R2.2*%
%TO.N,LD5*%
X69496000Y-36722000D03*
D24*
%TO.P,RN10,8,R1.2*%
%TO.N,LD4*%
X69496000Y-37522000D03*
%TD*%
D18*
%TO.P,Q18,1,G*%
%TO.N,+3V3*%
X74899700Y-26604000D03*
%TO.P,Q18,2,S*%
%TO.N,~{LOE}*%
X74899700Y-24704000D03*
%TO.P,Q18,3,D*%
%TO.N,~{OE}*%
X76774700Y-25654000D03*
%TD*%
D24*
%TO.P,RN9,1,R1.1*%
%TO.N,D0*%
X51232500Y-37522000D03*
D25*
%TO.P,RN9,2,R2.1*%
%TO.N,D1*%
X51232500Y-36722000D03*
%TO.P,RN9,3,R3.1*%
%TO.N,D2*%
X51232500Y-35922000D03*
D24*
%TO.P,RN9,4,R4.1*%
%TO.N,D3*%
X51232500Y-35122000D03*
%TO.P,RN9,5,R4.2*%
%TO.N,+5V*%
X53032500Y-35122000D03*
D25*
%TO.P,RN9,6,R3.2*%
X53032500Y-35922000D03*
%TO.P,RN9,7,R2.2*%
X53032500Y-36722000D03*
D24*
%TO.P,RN9,8,R1.2*%
X53032500Y-37522000D03*
%TD*%
D18*
%TO.P,Q2,1,G*%
%TO.N,+3V3*%
X80088500Y-68768000D03*
%TO.P,Q2,2,S*%
%TO.N,LP1*%
X80088500Y-66868000D03*
%TO.P,Q2,3,D*%
%TO.N,P1*%
X81963500Y-67818000D03*
%TD*%
D17*
%TO.P,Q14,1,G*%
%TO.N,+3V3*%
X41971000Y-35372000D03*
%TO.P,Q14,2,S*%
%TO.N,LD1*%
X41971000Y-37272000D03*
%TO.P,Q14,3,D*%
%TO.N,D1*%
X40096000Y-36322000D03*
%TD*%
%TO.P,Q19,1,G*%
%TO.N,+3V3*%
X64169000Y-35372000D03*
%TO.P,Q19,2,S*%
%TO.N,LD4*%
X64169000Y-37272000D03*
%TO.P,Q19,3,D*%
%TO.N,D4*%
X62294000Y-36322000D03*
%TD*%
D22*
%TO.P,R3,1*%
%TO.N,Net-(D3-K)*%
X65945000Y-67056000D03*
%TO.P,R3,2*%
%TO.N,GND*%
X67945000Y-67056000D03*
%TD*%
D18*
%TO.P,Q1,1,G*%
%TO.N,+3V3*%
X84575800Y-68768000D03*
%TO.P,Q1,2,S*%
%TO.N,LP0*%
X84575800Y-66868000D03*
%TO.P,Q1,3,D*%
%TO.N,P0*%
X86450800Y-67818000D03*
%TD*%
D19*
%TO.P,RN2,1,R1.1*%
%TO.N,~{LROE}*%
X39621500Y-29834000D03*
D20*
%TO.P,RN2,2,R2.1*%
%TO.N,~{ROE}*%
X40421500Y-29834000D03*
%TO.P,RN2,3,R3.1*%
%TO.N,LALS*%
X41221500Y-29834000D03*
D19*
%TO.P,RN2,4,R4.1*%
%TO.N,ALS*%
X42021500Y-29834000D03*
%TO.P,RN2,5,R4.2*%
%TO.N,+5V*%
X42021500Y-31634000D03*
D20*
%TO.P,RN2,6,R3.2*%
%TO.N,+3V3*%
X41221500Y-31634000D03*
%TO.P,RN2,7,R2.2*%
%TO.N,+5V*%
X40421500Y-31634000D03*
D19*
%TO.P,RN2,8,R1.2*%
%TO.N,+3V3*%
X39621500Y-31634000D03*
%TD*%
%TO.P,RN1,1,R1.1*%
%TO.N,LP0*%
X79940000Y-74306000D03*
D20*
%TO.P,RN1,2,R2.1*%
%TO.N,LP1*%
X79140000Y-74306000D03*
%TO.P,RN1,3,R3.1*%
%TO.N,LP2*%
X78340000Y-74306000D03*
D19*
%TO.P,RN1,4,R4.1*%
%TO.N,LP3*%
X77540000Y-74306000D03*
%TO.P,RN1,5,R4.2*%
%TO.N,+3V3*%
X77540000Y-72506000D03*
D20*
%TO.P,RN1,6,R3.2*%
X78340000Y-72506000D03*
%TO.P,RN1,7,R2.2*%
X79140000Y-72506000D03*
D19*
%TO.P,RN1,8,R1.2*%
X79940000Y-72506000D03*
%TD*%
D18*
%TO.P,Q9,1,G*%
%TO.N,+3V3*%
X32844500Y-65720000D03*
%TO.P,Q9,2,S*%
%TO.N,LP6*%
X32844500Y-63820000D03*
%TO.P,Q9,3,D*%
%TO.N,P6*%
X34719500Y-64770000D03*
%TD*%
D26*
%TO.P,U4,1,OE*%
%TO.N,~{ROE}*%
X86436200Y-57228000D03*
%TO.P,U4,2,D0*%
%TO.N,P0*%
X85166200Y-57228000D03*
%TO.P,U4,3,D1*%
%TO.N,P1*%
X83896200Y-57228000D03*
%TO.P,U4,4,D2*%
%TO.N,P2*%
X82626200Y-57228000D03*
%TO.P,U4,5,D3*%
%TO.N,P3*%
X81356200Y-57228000D03*
%TO.P,U4,6,D4*%
%TO.N,P4*%
X80086200Y-57228000D03*
%TO.P,U4,7,D5*%
%TO.N,P5*%
X78816200Y-57228000D03*
%TO.P,U4,8,D6*%
%TO.N,P6*%
X77546200Y-57228000D03*
%TO.P,U4,9,D7*%
%TO.N,P7*%
X76276200Y-57228000D03*
%TO.P,U4,10,GND*%
%TO.N,GND*%
X75006200Y-57228000D03*
%TO.P,U4,11,Load*%
%TO.N,AUS*%
X75006200Y-47928000D03*
%TO.P,U4,12,Q7*%
%TO.N,unconnected-(U4-Q7-Pad12)*%
X76276200Y-47928000D03*
%TO.P,U4,13,Q6*%
%TO.N,unconnected-(U4-Q6-Pad13)*%
X77546200Y-47928000D03*
%TO.P,U4,14,Q5*%
%TO.N,unconnected-(U4-Q5-Pad14)*%
X78816200Y-47928000D03*
%TO.P,U4,15,Q4*%
%TO.N,unconnected-(U4-Q4-Pad15)*%
X80086200Y-47928000D03*
%TO.P,U4,16,Q3*%
%TO.N,unconnected-(U4-Q3-Pad16)*%
X81356200Y-47928000D03*
%TO.P,U4,17,Q2*%
%TO.N,A18*%
X82626200Y-47928000D03*
%TO.P,U4,18,Q1*%
%TO.N,A17*%
X83896200Y-47928000D03*
%TO.P,U4,19,Q0*%
%TO.N,A16*%
X85166200Y-47928000D03*
%TO.P,U4,20,VCC*%
%TO.N,+5V*%
X86436200Y-47928000D03*
%TD*%
D17*
%TO.P,Q22,1,G*%
%TO.N,+3V3*%
X91361500Y-35372000D03*
%TO.P,Q22,2,S*%
%TO.N,LD7*%
X91361500Y-37272000D03*
%TO.P,Q22,3,D*%
%TO.N,D7*%
X89486500Y-36322000D03*
%TD*%
D18*
%TO.P,Q23,1,G*%
%TO.N,+3V3*%
X82882500Y-26604000D03*
%TO.P,Q23,2,S*%
%TO.N,LAUS*%
X82882500Y-24704000D03*
%TO.P,Q23,3,D*%
%TO.N,AUS*%
X84757500Y-25654000D03*
%TD*%
D27*
%TO.P,C1,1*%
%TO.N,+5V*%
X33782000Y-45042500D03*
%TO.P,C1,2*%
%TO.N,GND*%
X33782000Y-43142500D03*
%TD*%
D24*
%TO.P,RN7,1,R1.1*%
%TO.N,+3V3*%
X34769000Y-37522000D03*
D25*
%TO.P,RN7,2,R2.1*%
X34769000Y-36722000D03*
%TO.P,RN7,3,R3.1*%
X34769000Y-35922000D03*
D24*
%TO.P,RN7,4,R4.1*%
X34769000Y-35122000D03*
%TO.P,RN7,5,R4.2*%
%TO.N,LD3*%
X36569000Y-35122000D03*
D25*
%TO.P,RN7,6,R3.2*%
%TO.N,LD2*%
X36569000Y-35922000D03*
%TO.P,RN7,7,R2.2*%
%TO.N,LD1*%
X36569000Y-36722000D03*
D24*
%TO.P,RN7,8,R1.2*%
%TO.N,LD0*%
X36569000Y-37522000D03*
%TD*%
D26*
%TO.P,U3,1,OE*%
%TO.N,~{ROE}*%
X43561000Y-57228000D03*
%TO.P,U3,2,D0*%
%TO.N,P0*%
X42291000Y-57228000D03*
%TO.P,U3,3,D1*%
%TO.N,P1*%
X41021000Y-57228000D03*
%TO.P,U3,4,D2*%
%TO.N,P2*%
X39751000Y-57228000D03*
%TO.P,U3,5,D3*%
%TO.N,P3*%
X38481000Y-57228000D03*
%TO.P,U3,6,D4*%
%TO.N,P4*%
X37211000Y-57228000D03*
%TO.P,U3,7,D5*%
%TO.N,P5*%
X35941000Y-57228000D03*
%TO.P,U3,8,D6*%
%TO.N,P6*%
X34671000Y-57228000D03*
%TO.P,U3,9,D7*%
%TO.N,P7*%
X33401000Y-57228000D03*
%TO.P,U3,10,GND*%
%TO.N,GND*%
X32131000Y-57228000D03*
%TO.P,U3,11,Load*%
%TO.N,AHS*%
X32131000Y-47928000D03*
%TO.P,U3,12,Q7*%
%TO.N,A15*%
X33401000Y-47928000D03*
%TO.P,U3,13,Q6*%
%TO.N,A14*%
X34671000Y-47928000D03*
%TO.P,U3,14,Q5*%
%TO.N,A13*%
X35941000Y-47928000D03*
%TO.P,U3,15,Q4*%
%TO.N,A12*%
X37211000Y-47928000D03*
%TO.P,U3,16,Q3*%
%TO.N,A11*%
X38481000Y-47928000D03*
%TO.P,U3,17,Q2*%
%TO.N,A10*%
X39751000Y-47928000D03*
%TO.P,U3,18,Q1*%
%TO.N,A9*%
X41021000Y-47928000D03*
%TO.P,U3,19,Q0*%
%TO.N,A8*%
X42291000Y-47928000D03*
%TO.P,U3,20,VCC*%
%TO.N,+5V*%
X43561000Y-47928000D03*
%TD*%
D21*
%TO.P,C2,1*%
%TO.N,+5V*%
X47498000Y-51562000D03*
%TO.P,C2,2*%
%TO.N,GND*%
X47498000Y-53462000D03*
%TD*%
D18*
%TO.P,Q10,1,G*%
%TO.N,+3V3*%
X28018500Y-65720000D03*
%TO.P,Q10,2,S*%
%TO.N,LP7*%
X28018500Y-63820000D03*
%TO.P,Q10,3,D*%
%TO.N,P7*%
X29893500Y-64770000D03*
%TD*%
%TO.P,Q24,1,G*%
%TO.N,+3V3*%
X90865400Y-26604000D03*
%TO.P,Q24,2,S*%
%TO.N,unconnected-(Q24-S-Pad2)*%
X90865400Y-24704000D03*
%TO.P,Q24,3,D*%
%TO.N,unconnected-(Q24-D-Pad3)*%
X92740400Y-25654000D03*
%TD*%
%TO.P,Q17,1,G*%
%TO.N,+3V3*%
X66916800Y-26604000D03*
%TO.P,Q17,2,S*%
%TO.N,~{LCE}*%
X66916800Y-24704000D03*
%TO.P,Q17,3,D*%
%TO.N,~{CE}*%
X68791800Y-25654000D03*
%TD*%
D17*
%TO.P,Q13,1,G*%
%TO.N,+3V3*%
X31242000Y-35372000D03*
%TO.P,Q13,2,S*%
%TO.N,LD0*%
X31242000Y-37272000D03*
%TO.P,Q13,3,D*%
%TO.N,D0*%
X29367000Y-36322000D03*
%TD*%
D19*
%TO.P,RN8,1,R1.1*%
%TO.N,~{LCE}*%
X70101500Y-29834000D03*
D20*
%TO.P,RN8,2,R2.1*%
%TO.N,~{CE}*%
X70901500Y-29834000D03*
%TO.P,RN8,3,R3.1*%
%TO.N,~{LOE}*%
X71701500Y-29834000D03*
D19*
%TO.P,RN8,4,R4.1*%
%TO.N,~{OE}*%
X72501500Y-29834000D03*
%TO.P,RN8,5,R4.2*%
%TO.N,+5V*%
X72501500Y-31634000D03*
D20*
%TO.P,RN8,6,R3.2*%
%TO.N,+3V3*%
X71701500Y-31634000D03*
%TO.P,RN8,7,R2.2*%
%TO.N,+5V*%
X70901500Y-31634000D03*
D19*
%TO.P,RN8,8,R1.2*%
%TO.N,+3V3*%
X70101500Y-31634000D03*
%TD*%
D18*
%TO.P,Q3,1,G*%
%TO.N,+3V3*%
X75601200Y-68768000D03*
%TO.P,Q3,2,S*%
%TO.N,LP2*%
X75601200Y-66868000D03*
%TO.P,Q3,3,D*%
%TO.N,P2*%
X77476200Y-67818000D03*
%TD*%
%TO.P,Q11,1,G*%
%TO.N,+3V3*%
X50951100Y-26604000D03*
%TO.P,Q11,2,S*%
%TO.N,LAHS*%
X50951100Y-24704000D03*
%TO.P,Q11,3,D*%
%TO.N,AHS*%
X52826100Y-25654000D03*
%TD*%
D17*
%TO.P,Q16,1,G*%
%TO.N,+3V3*%
X58434500Y-35372000D03*
%TO.P,Q16,2,S*%
%TO.N,LD3*%
X58434500Y-37272000D03*
%TO.P,Q16,3,D*%
%TO.N,D3*%
X56559500Y-36322000D03*
%TD*%
D24*
%TO.P,RN12,1,R1.1*%
%TO.N,D4*%
X84159500Y-37522000D03*
D25*
%TO.P,RN12,2,R2.1*%
%TO.N,D5*%
X84159500Y-36722000D03*
%TO.P,RN12,3,R3.1*%
%TO.N,D6*%
X84159500Y-35922000D03*
D24*
%TO.P,RN12,4,R4.1*%
%TO.N,D7*%
X84159500Y-35122000D03*
%TO.P,RN12,5,R4.2*%
%TO.N,+5V*%
X85959500Y-35122000D03*
D25*
%TO.P,RN12,6,R3.2*%
X85959500Y-35922000D03*
%TO.P,RN12,7,R2.2*%
X85959500Y-36722000D03*
D24*
%TO.P,RN12,8,R1.2*%
X85959500Y-37522000D03*
%TD*%
D28*
%TO.P,R2,1*%
%TO.N,Net-(D2-K)*%
X54102000Y-73263000D03*
%TO.P,R2,2*%
%TO.N,GND*%
X54102000Y-71263000D03*
%TD*%
D18*
%TO.P,Q7,1,G*%
%TO.N,+3V3*%
X41988500Y-65720000D03*
%TO.P,Q7,2,S*%
%TO.N,LP4*%
X41988500Y-63820000D03*
%TO.P,Q7,3,D*%
%TO.N,P4*%
X43863500Y-64770000D03*
%TD*%
D26*
%TO.P,U1,1,OE*%
%TO.N,~{ROE}*%
X64998600Y-57228000D03*
%TO.P,U1,2,D0*%
%TO.N,P0*%
X63728600Y-57228000D03*
%TO.P,U1,3,D1*%
%TO.N,P1*%
X62458600Y-57228000D03*
%TO.P,U1,4,D2*%
%TO.N,P2*%
X61188600Y-57228000D03*
%TO.P,U1,5,D3*%
%TO.N,P3*%
X59918600Y-57228000D03*
%TO.P,U1,6,D4*%
%TO.N,P4*%
X58648600Y-57228000D03*
%TO.P,U1,7,D5*%
%TO.N,P5*%
X57378600Y-57228000D03*
%TO.P,U1,8,D6*%
%TO.N,P6*%
X56108600Y-57228000D03*
%TO.P,U1,9,D7*%
%TO.N,P7*%
X54838600Y-57228000D03*
%TO.P,U1,10,GND*%
%TO.N,GND*%
X53568600Y-57228000D03*
%TO.P,U1,11,Load*%
%TO.N,ALS*%
X53568600Y-47928000D03*
%TO.P,U1,12,Q7*%
%TO.N,A7*%
X54838600Y-47928000D03*
%TO.P,U1,13,Q6*%
%TO.N,A6*%
X56108600Y-47928000D03*
%TO.P,U1,14,Q5*%
%TO.N,A5*%
X57378600Y-47928000D03*
%TO.P,U1,15,Q4*%
%TO.N,A4*%
X58648600Y-47928000D03*
%TO.P,U1,16,Q3*%
%TO.N,A3*%
X59918600Y-47928000D03*
%TO.P,U1,17,Q2*%
%TO.N,A2*%
X61188600Y-47928000D03*
%TO.P,U1,18,Q1*%
%TO.N,A1*%
X62458600Y-47928000D03*
%TO.P,U1,19,Q0*%
%TO.N,A0*%
X63728600Y-47928000D03*
%TO.P,U1,20,VCC*%
%TO.N,+5V*%
X64998600Y-47928000D03*
%TD*%
D19*
%TO.P,RN11,1,R1.1*%
%TO.N,LAUS*%
X85341500Y-29834000D03*
D20*
%TO.P,RN11,2,R2.1*%
%TO.N,AUS*%
X86141500Y-29834000D03*
%TO.P,RN11,3,R3.1*%
%TO.N,unconnected-(Q24-S-Pad2)*%
X86941500Y-29834000D03*
D19*
%TO.P,RN11,4,R4.1*%
%TO.N,unconnected-(Q24-D-Pad3)*%
X87741500Y-29834000D03*
%TO.P,RN11,5,R4.2*%
%TO.N,+5V*%
X87741500Y-31634000D03*
D20*
%TO.P,RN11,6,R3.2*%
%TO.N,+3V3*%
X86941500Y-31634000D03*
%TO.P,RN11,7,R2.2*%
%TO.N,+5V*%
X86141500Y-31634000D03*
D19*
%TO.P,RN11,8,R1.2*%
%TO.N,+3V3*%
X85341500Y-31634000D03*
%TD*%
%TO.P,RN4,1,R1.1*%
%TO.N,LP4*%
X49568000Y-65554000D03*
D20*
%TO.P,RN4,2,R2.1*%
%TO.N,LP5*%
X48768000Y-65554000D03*
%TO.P,RN4,3,R3.1*%
%TO.N,LP6*%
X47968000Y-65554000D03*
D19*
%TO.P,RN4,4,R4.1*%
%TO.N,LP7*%
X47168000Y-65554000D03*
%TO.P,RN4,5,R4.2*%
%TO.N,+3V3*%
X47168000Y-63754000D03*
D20*
%TO.P,RN4,6,R3.2*%
X47968000Y-63754000D03*
%TO.P,RN4,7,R2.2*%
X48768000Y-63754000D03*
D19*
%TO.P,RN4,8,R1.2*%
X49568000Y-63754000D03*
%TD*%
D17*
%TO.P,Q20,1,G*%
%TO.N,+3V3*%
X74898000Y-35372000D03*
%TO.P,Q20,2,S*%
%TO.N,LD5*%
X74898000Y-37272000D03*
%TO.P,Q20,3,D*%
%TO.N,D5*%
X73023000Y-36322000D03*
%TD*%
D19*
%TO.P,RN3,1,R1.1*%
%TO.N,+5V*%
X88684000Y-62738000D03*
D20*
%TO.P,RN3,2,R2.1*%
X87884000Y-62738000D03*
%TO.P,RN3,3,R3.1*%
X87084000Y-62738000D03*
D19*
%TO.P,RN3,4,R4.1*%
X86284000Y-62738000D03*
%TO.P,RN3,5,R4.2*%
%TO.N,P3*%
X86284000Y-60938000D03*
D20*
%TO.P,RN3,6,R3.2*%
%TO.N,P2*%
X87084000Y-60938000D03*
%TO.P,RN3,7,R2.2*%
%TO.N,P1*%
X87884000Y-60938000D03*
D19*
%TO.P,RN3,8,R1.2*%
%TO.N,P0*%
X88684000Y-60938000D03*
%TD*%
D18*
%TO.P,Q8,1,G*%
%TO.N,+3V3*%
X37416500Y-65720000D03*
%TO.P,Q8,2,S*%
%TO.N,LP5*%
X37416500Y-63820000D03*
%TO.P,Q8,3,D*%
%TO.N,P5*%
X39291500Y-64770000D03*
%TD*%
D29*
%TO.N,+3V3*%
X94126300Y-31602500D03*
%TO.N,P0*%
X64415900Y-52867400D03*
X64131600Y-58882600D03*
X85636900Y-66128100D03*
X88584900Y-59869000D03*
X43158900Y-58901200D03*
%TO.N,LP1*%
X92256200Y-50800000D03*
%TO.N,P1*%
X45274600Y-57141000D03*
X75733400Y-54603200D03*
X65981500Y-56129800D03*
%TO.N,LP2*%
X76593000Y-66055300D03*
%TO.N,P2*%
X46275000Y-57075100D03*
X61740600Y-58770700D03*
%TO.N,LP3*%
X77011700Y-70083800D03*
%TO.N,~{ROE}*%
X66388300Y-62049200D03*
X43739100Y-61784700D03*
X87351500Y-57534700D03*
X72848800Y-63779100D03*
X39978000Y-28377900D03*
%TO.N,LALS*%
X41221500Y-26645700D03*
%TO.N,ALS*%
X42275300Y-28828300D03*
X52241100Y-47843300D03*
%TO.N,LP4*%
X68485900Y-70524300D03*
%TO.N,LP5*%
X67830400Y-71283600D03*
X37792600Y-64727900D03*
X48699700Y-66583400D03*
%TO.N,P5*%
X57296800Y-55573500D03*
X76646500Y-55221700D03*
X47725700Y-56864700D03*
%TO.N,LP6*%
X67160300Y-72028200D03*
%TO.N,P6*%
X35885000Y-63604500D03*
X53784100Y-61872600D03*
%TO.N,LP7*%
X29395000Y-63661600D03*
X46053000Y-66084400D03*
%TO.N,P7*%
X49166600Y-55396200D03*
X55099700Y-55396200D03*
%TO.N,AHS*%
X30228000Y-46660100D03*
X52311300Y-24582400D03*
%TO.N,~{PGM}*%
X57261500Y-28731900D03*
%TO.N,LD0*%
X39421200Y-37946000D03*
%TO.N,D0*%
X53402700Y-42691000D03*
%TO.N,LD1*%
X43206000Y-37845600D03*
%TO.N,D1*%
X52801000Y-40944400D03*
%TO.N,LD2*%
X49443700Y-36551800D03*
%TO.N,D2*%
X48365400Y-36322000D03*
%TO.N,LD3*%
X58839800Y-34203900D03*
%TO.N,D3*%
X58240800Y-39444800D03*
%TO.N,~{LCE}*%
X69177100Y-32678300D03*
%TO.N,~{LOE}*%
X74250100Y-27970000D03*
X100416300Y-29158700D03*
%TO.N,~{OE}*%
X73164700Y-28977000D03*
%TO.N,LD4*%
X73073300Y-34705100D03*
%TO.N,D4*%
X65899600Y-40620500D03*
%TO.N,LD5*%
X76240000Y-37273500D03*
%TO.N,D5*%
X69095500Y-43276100D03*
%TO.N,LD6*%
X80643500Y-38174800D03*
%TO.N,LD7*%
X71314800Y-35029600D03*
%TO.N,GND*%
X88568200Y-53777500D03*
X55753000Y-70739000D03*
X59436000Y-65024000D03*
%TO.N,A2*%
X59965600Y-52862100D03*
%TO.N,A1*%
X62612400Y-52844000D03*
%TO.N,A0*%
X63601000Y-52094300D03*
%TO.N,A18*%
X71132900Y-49357200D03*
%TO.N,A16*%
X66746500Y-50106200D03*
%TO.N,A15*%
X36365700Y-52684800D03*
%TO.N,A12*%
X36636300Y-49447500D03*
%TO.N,A10*%
X40975700Y-49618300D03*
%TO.N,A11*%
X39627000Y-49562300D03*
%TO.N,A17*%
X66506600Y-47241700D03*
%TO.N,Net-(D3-K)*%
X64389000Y-66384000D03*
%TO.N,+5V*%
X79052600Y-43818800D03*
X70706900Y-33128600D03*
X79302300Y-51844700D03*
X78005300Y-62323900D03*
X93387100Y-26764600D03*
%TD*%
D30*
%TO.N,+3V3*%
X49568000Y-63754000D02*
X48768000Y-63754000D01*
X33923500Y-63478800D02*
X33589100Y-63144400D01*
X73000200Y-30908700D02*
X77838200Y-26070700D01*
X34406400Y-36722000D02*
X34043700Y-37084700D01*
X85341500Y-31634000D02*
X85341500Y-30908700D01*
X77838200Y-25275900D02*
X77573300Y-25011000D01*
X46468000Y-64116600D02*
X47168000Y-64116600D01*
X35935300Y-68316300D02*
X35935300Y-70243800D01*
X57320200Y-30908700D02*
X56461500Y-30908700D01*
X71788400Y-68093400D02*
X71113800Y-68768000D01*
X44060500Y-25024200D02*
X45705900Y-25024200D01*
X84390800Y-68953000D02*
X84575800Y-68768000D01*
X82349200Y-26070700D02*
X77838200Y-26070700D01*
X79940000Y-72506000D02*
X79140000Y-72506000D01*
X77765100Y-71555600D02*
X77540000Y-71780700D01*
X71701500Y-31634000D02*
X71701500Y-30908700D01*
X77540000Y-72506000D02*
X77540000Y-71780700D01*
X41221500Y-31634000D02*
X41221500Y-30908700D01*
X78340000Y-72868600D02*
X77902600Y-72868600D01*
X34769000Y-35122000D02*
X35494300Y-35122000D01*
X70101500Y-30908700D02*
X70047800Y-30908700D01*
X26475200Y-64353700D02*
X26475200Y-37784000D01*
X32106300Y-63144400D02*
X31279700Y-63971000D01*
X37696100Y-32829500D02*
X37696100Y-29314700D01*
X32844500Y-65720000D02*
X33626500Y-65720000D01*
X34769000Y-35122000D02*
X34043700Y-35122000D01*
X75601200Y-68768000D02*
X75801600Y-68968400D01*
X67696000Y-35122000D02*
X69414400Y-33403600D01*
X28887200Y-35372000D02*
X31242000Y-35372000D01*
X71701500Y-30908700D02*
X70101500Y-30908700D01*
X59977600Y-37152000D02*
X59184300Y-37945300D01*
X54826100Y-30914800D02*
X54861500Y-30914800D01*
X35935300Y-70243800D02*
X32542300Y-70243800D01*
X66970700Y-35817600D02*
X66970700Y-35372000D01*
X36811500Y-71120000D02*
X36862000Y-71120000D01*
X93562400Y-24989600D02*
X94126300Y-25553500D01*
X46387600Y-26604000D02*
X42082900Y-30908700D01*
X70101500Y-31634000D02*
X70101500Y-32359300D01*
X66970700Y-35372000D02*
X66970700Y-35122000D01*
X85341500Y-30908700D02*
X86941500Y-30908700D01*
X76005200Y-25011000D02*
X76005200Y-24312800D01*
X70101500Y-31271300D02*
X70101500Y-31634000D01*
X62691100Y-26604000D02*
X58933900Y-26604000D01*
X34769000Y-37522000D02*
X34043700Y-37522000D01*
X57337000Y-36957000D02*
X58434500Y-35859500D01*
X70047800Y-30908700D02*
X66916800Y-27777700D01*
X47968000Y-64116600D02*
X47168000Y-64116600D01*
X77838200Y-26070700D02*
X77838200Y-25275900D01*
X35494300Y-35031300D02*
X35494300Y-35122000D01*
X37954900Y-70027100D02*
X40315700Y-70027100D01*
X33626500Y-65720000D02*
X33626500Y-64448600D01*
X54861500Y-31634000D02*
X54861500Y-30914800D01*
X31279700Y-63971000D02*
X31279700Y-66256800D01*
X47968000Y-63754000D02*
X47968000Y-63935300D01*
X80632500Y-35372000D02*
X74898000Y-35372000D01*
X32542300Y-70243800D02*
X28018500Y-65720000D01*
X41221500Y-30908700D02*
X39621500Y-30908700D01*
X42968200Y-26116500D02*
X44060500Y-25024200D01*
X91990400Y-24989600D02*
X93562400Y-24989600D01*
X45705900Y-25024200D02*
X46387600Y-25705900D01*
X33626500Y-64448600D02*
X33923500Y-64151600D01*
X34769000Y-35922000D02*
X34406400Y-35922000D01*
X39621500Y-31634000D02*
X39621500Y-32359300D01*
X70101500Y-32359300D02*
X69902400Y-32558400D01*
X82882500Y-28521700D02*
X85269500Y-30908700D01*
X58933900Y-26604000D02*
X58933900Y-29295000D01*
X65681900Y-23613200D02*
X62691100Y-26604000D01*
X50951100Y-27039800D02*
X54826100Y-30914800D01*
X67333400Y-35922000D02*
X67075100Y-35922000D01*
X77765100Y-69635400D02*
X77765100Y-71555600D01*
X34406400Y-35922000D02*
X34406400Y-36722000D01*
X39621500Y-32829500D02*
X58496700Y-32829500D01*
X46387600Y-25705900D02*
X46387600Y-26604000D01*
X35935300Y-70243800D02*
X36811500Y-71120000D01*
X37696100Y-29314700D02*
X34985400Y-26604000D01*
X69414400Y-33403600D02*
X69760000Y-33403600D01*
X73379900Y-33853900D02*
X74898000Y-35372000D01*
X47168000Y-63754000D02*
X47168000Y-64116600D01*
X59184300Y-37945300D02*
X57669300Y-37945300D01*
X34043700Y-35122000D02*
X34043700Y-35372000D01*
X26475200Y-37784000D02*
X28887200Y-35372000D01*
X48375900Y-64479300D02*
X48768000Y-64479300D01*
X90865400Y-26604000D02*
X90865400Y-26114600D01*
X85269500Y-30908700D02*
X85341500Y-30908700D01*
X67696000Y-36722000D02*
X67333400Y-36722000D01*
X81959400Y-34045100D02*
X91361500Y-34045100D01*
X75305600Y-23613200D02*
X65681900Y-23613200D01*
X72463000Y-68768000D02*
X75601200Y-68768000D01*
X58434500Y-35372000D02*
X57125200Y-34062700D01*
X78340000Y-72506000D02*
X78340000Y-72868600D01*
X91361500Y-34045100D02*
X91361500Y-35372000D01*
X67696000Y-35922000D02*
X67333400Y-35922000D01*
X57337000Y-37613000D02*
X57337000Y-36957000D01*
X57125200Y-34062700D02*
X49014800Y-34062700D01*
X90865400Y-26114600D02*
X91990400Y-24989600D01*
X39621500Y-32829500D02*
X39621500Y-32359300D01*
X77098100Y-68968400D02*
X77765100Y-69635400D01*
X34043700Y-35559300D02*
X34406400Y-35922000D01*
X72211300Y-66527000D02*
X72211300Y-67183000D01*
X67696000Y-35122000D02*
X66970700Y-35122000D01*
X74899700Y-26116500D02*
X74899700Y-26604000D01*
X76005200Y-25011000D02*
X74899700Y-26116500D01*
X78340000Y-72868600D02*
X78340000Y-73231300D01*
X77902600Y-72868600D02*
X77540000Y-72506000D01*
X69902400Y-32558400D02*
X69902400Y-33261200D01*
X36862000Y-71120000D02*
X37954900Y-70027100D01*
X71788400Y-68093400D02*
X72463000Y-68768000D01*
X67484200Y-72781000D02*
X69265900Y-70999300D01*
X80088500Y-68768000D02*
X80273500Y-68953000D01*
X67075100Y-35922000D02*
X66970700Y-35817600D01*
X58933900Y-29295000D02*
X57320200Y-30908700D01*
X69265900Y-67300300D02*
X70368100Y-66198100D01*
X33589100Y-63144400D02*
X32106300Y-63144400D01*
X47968000Y-63935300D02*
X47968000Y-64116600D01*
X66970700Y-35372000D02*
X64169000Y-35372000D01*
X71701500Y-30908700D02*
X73000200Y-30908700D01*
X46387600Y-26604000D02*
X50951100Y-26604000D01*
X70406500Y-33853900D02*
X73379900Y-33853900D01*
X33923500Y-64151600D02*
X33923500Y-63478800D01*
X94126300Y-25553500D02*
X94126300Y-31602500D01*
X80273500Y-68953000D02*
X84390800Y-68953000D01*
X82882500Y-26604000D02*
X82349200Y-26070700D01*
X79140000Y-72506000D02*
X79140000Y-73231300D01*
X91683700Y-34045100D02*
X91361500Y-34045100D01*
X66916800Y-27777700D02*
X66916800Y-26604000D01*
X66244600Y-72781000D02*
X67484200Y-72781000D01*
X56461500Y-31634000D02*
X56461500Y-30908700D01*
X58496700Y-32829500D02*
X59977600Y-34310400D01*
X47968000Y-63935300D02*
X47968000Y-64071400D01*
X44864600Y-65720000D02*
X46468000Y-64116600D01*
X32337100Y-67314200D02*
X34933200Y-67314200D01*
X77765100Y-69635400D02*
X79221100Y-69635400D01*
X72211300Y-67183000D02*
X71788400Y-67605900D01*
X70101500Y-31271300D02*
X70101500Y-30908700D01*
X67333400Y-36722000D02*
X66970700Y-37084700D01*
X48768000Y-63754000D02*
X48768000Y-64479300D01*
X54861500Y-30914800D02*
X54867600Y-30908700D01*
X58434500Y-35859500D02*
X58434500Y-35372000D01*
X77573300Y-25011000D02*
X76005200Y-25011000D01*
X41971000Y-35372000D02*
X47705500Y-35372000D01*
X40315700Y-70027100D02*
X40500800Y-70212200D01*
X34933200Y-67314200D02*
X35935300Y-68316300D01*
X94126300Y-31602500D02*
X91683700Y-34045100D01*
X59977600Y-34310400D02*
X59977600Y-37152000D01*
X42082900Y-30908700D02*
X41221500Y-30908700D01*
X34769000Y-36722000D02*
X34406400Y-36722000D01*
X34043700Y-37084700D02*
X34043700Y-37522000D01*
X67333400Y-35922000D02*
X67333400Y-36722000D01*
X39621500Y-32829500D02*
X37696100Y-32829500D01*
X86941500Y-31634000D02*
X86941500Y-30908700D01*
X42450600Y-69865400D02*
X63329000Y-69865400D01*
X79221100Y-69635400D02*
X80088500Y-68768000D01*
X37416500Y-65720000D02*
X41988500Y-65720000D01*
X50951100Y-26604000D02*
X50951100Y-27039800D01*
X71882400Y-66198100D02*
X72211300Y-66527000D01*
X63329000Y-69865400D02*
X66244600Y-72781000D01*
X31279700Y-66256800D02*
X32337100Y-67314200D01*
X80632500Y-35372000D02*
X81959400Y-34045100D01*
X82882500Y-26604000D02*
X82882500Y-28521700D01*
X76005200Y-24312800D02*
X75305600Y-23613200D01*
X71788400Y-67605900D02*
X71788400Y-68093400D01*
X70368100Y-66198100D02*
X71882400Y-66198100D01*
X39621500Y-31634000D02*
X39621500Y-30908700D01*
X27841500Y-65720000D02*
X26475200Y-64353700D01*
X41988500Y-65720000D02*
X44864600Y-65720000D01*
X42103800Y-70212200D02*
X42450600Y-69865400D01*
X69760000Y-33403600D02*
X69858100Y-33305500D01*
X67696000Y-37522000D02*
X66970700Y-37522000D01*
X47968000Y-64071400D02*
X48375900Y-64479300D01*
X75801600Y-68968400D02*
X77098100Y-68968400D01*
X31242000Y-35372000D02*
X34043700Y-35372000D01*
X69858100Y-33305500D02*
X70406500Y-33853900D01*
X33626500Y-65720000D02*
X37416500Y-65720000D01*
X69265900Y-70999300D02*
X69265900Y-67300300D01*
X54867600Y-30908700D02*
X56461500Y-30908700D01*
X37696100Y-32829500D02*
X35494300Y-35031300D01*
X66970700Y-37084700D02*
X66970700Y-37522000D01*
X79140000Y-73231300D02*
X78340000Y-73231300D01*
X69902400Y-33261200D02*
X69858100Y-33305500D01*
X28018500Y-65720000D02*
X27841500Y-65720000D01*
X42968200Y-26604000D02*
X42968200Y-26116500D01*
X40500800Y-70212200D02*
X42103800Y-70212200D01*
X49014800Y-34062700D02*
X47705500Y-35372000D01*
X34043700Y-35372000D02*
X34043700Y-35559300D01*
X57669300Y-37945300D02*
X57337000Y-37613000D01*
%TO.N,LP0*%
X79940000Y-73580700D02*
X81178900Y-73580700D01*
X81178900Y-73580700D02*
X85649700Y-69109900D01*
X85649700Y-69109900D02*
X85649700Y-68429400D01*
X95353100Y-57851800D02*
X95353100Y-52774900D01*
X84575800Y-67355500D02*
X84575800Y-66868000D01*
X99060000Y-48260000D02*
X99060000Y-49435300D01*
X84575800Y-66163200D02*
X85648700Y-65090300D01*
X88114600Y-65090300D02*
X95353100Y-57851800D01*
X79940000Y-74306000D02*
X79940000Y-73580700D01*
X98692700Y-49435300D02*
X99060000Y-49435300D01*
X85648700Y-65090300D02*
X88114600Y-65090300D01*
X84575800Y-66868000D02*
X84575800Y-66163200D01*
X85649700Y-68429400D02*
X84575800Y-67355500D01*
X95353100Y-52774900D02*
X98692700Y-49435300D01*
%TO.N,P0*%
X85166200Y-57228000D02*
X85166200Y-57726100D01*
X85166200Y-57726100D02*
X86048400Y-58608300D01*
X63728600Y-57228000D02*
X63728600Y-58479600D01*
X43158900Y-58901200D02*
X42291000Y-58033300D01*
X85636900Y-66128100D02*
X86450800Y-66942000D01*
X90598500Y-52649800D02*
X64633500Y-52649800D01*
X88684000Y-59968100D02*
X88684000Y-60212700D01*
X42291000Y-58033300D02*
X42291000Y-57228000D01*
X86450800Y-66942000D02*
X86450800Y-67818000D01*
X87324200Y-58608300D02*
X90970900Y-54961600D01*
X63728600Y-58479600D02*
X64131600Y-58882600D01*
X90970900Y-53022200D02*
X90598500Y-52649800D01*
X86048400Y-58608300D02*
X87324200Y-58608300D01*
X87324200Y-58608300D02*
X88584900Y-59869000D01*
X88684000Y-60938000D02*
X88684000Y-60212700D01*
X64633500Y-52649800D02*
X64415900Y-52867400D01*
X90970900Y-54961600D02*
X90970900Y-53022200D01*
X88584900Y-59869000D02*
X88684000Y-59968100D01*
%TO.N,LP1*%
X92256200Y-60275900D02*
X92256200Y-50800000D01*
X80672700Y-75031300D02*
X79140000Y-75031300D01*
X81219500Y-68486500D02*
X82731300Y-68486500D01*
X95998200Y-53861800D02*
X95998200Y-59705800D01*
X83026900Y-68190900D02*
X83026900Y-66952600D01*
X79140000Y-74306000D02*
X79140000Y-75031300D01*
X88618500Y-63913600D02*
X92256200Y-60275900D01*
X83026900Y-66952600D02*
X86065900Y-63913600D01*
X80088500Y-66868000D02*
X80088500Y-67355500D01*
X99060000Y-50800000D02*
X95998200Y-53861800D01*
X95998200Y-59705800D02*
X80672700Y-75031300D01*
X82731300Y-68486500D02*
X83026900Y-68190900D01*
X80088500Y-67355500D02*
X81219500Y-68486500D01*
X86065900Y-63913600D02*
X88618500Y-63913600D01*
%TO.N,P1*%
X41939500Y-55852000D02*
X43921300Y-55852000D01*
X63376000Y-55854900D02*
X62458600Y-56772300D01*
X45210300Y-57141000D02*
X45274600Y-57141000D01*
X83896200Y-56775300D02*
X81606900Y-54486000D01*
X81963500Y-65941500D02*
X81963500Y-67818000D01*
X41021000Y-56770500D02*
X41939500Y-55852000D01*
X65981500Y-56129800D02*
X65706600Y-55854900D01*
X87884000Y-61663300D02*
X86241700Y-61663300D01*
X86910900Y-59239600D02*
X85478100Y-59239600D01*
X75850600Y-54486000D02*
X75733400Y-54603200D01*
X41021000Y-57228000D02*
X41021000Y-56770500D01*
X87884000Y-60575300D02*
X87884000Y-60212700D01*
X85478100Y-59239600D02*
X83896200Y-57657700D01*
X87884000Y-60212700D02*
X86910900Y-59239600D01*
X65706600Y-55854900D02*
X63376000Y-55854900D01*
X62458600Y-56772300D02*
X62458600Y-57228000D01*
X83896200Y-57657700D02*
X83896200Y-57228000D01*
X83896200Y-57228000D02*
X83896200Y-56775300D01*
X43921300Y-55852000D02*
X45210300Y-57141000D01*
X87884000Y-60938000D02*
X87884000Y-61663300D01*
X87884000Y-60575300D02*
X87884000Y-60938000D01*
X81606900Y-54486000D02*
X75850600Y-54486000D01*
X86241700Y-61663300D02*
X81963500Y-65941500D01*
%TO.N,LP2*%
X75780300Y-66868000D02*
X76593000Y-66055300D01*
X78795700Y-75487000D02*
X78340000Y-75031300D01*
X97884700Y-57863200D02*
X97884700Y-58496000D01*
X75601200Y-66868000D02*
X75780300Y-66868000D01*
X98692600Y-57055300D02*
X97884700Y-57863200D01*
X99060000Y-57055300D02*
X98692600Y-57055300D01*
X99060000Y-55880000D02*
X99060000Y-57055300D01*
X80893700Y-75487000D02*
X78795700Y-75487000D01*
X97884700Y-58496000D02*
X80893700Y-75487000D01*
X78340000Y-74306000D02*
X78340000Y-75031300D01*
%TO.N,P2*%
X82371300Y-60456500D02*
X82371300Y-63501200D01*
X67597400Y-64504600D02*
X63890000Y-60797200D01*
X87084000Y-60212700D02*
X85119800Y-60212700D01*
X81009900Y-55867700D02*
X80721200Y-56156400D01*
X44546100Y-55796500D02*
X44126300Y-55376700D01*
X81754600Y-55867700D02*
X81009900Y-55867700D01*
X46275000Y-57075100D02*
X44996400Y-55796500D01*
X77476200Y-67818000D02*
X77476200Y-65912700D01*
X41119400Y-55376700D02*
X39751000Y-56745100D01*
X85119800Y-60212700D02*
X82626200Y-57719100D01*
X82626200Y-56739300D02*
X81754600Y-55867700D01*
X82626200Y-57228000D02*
X82626200Y-56739300D01*
X87084000Y-60938000D02*
X87084000Y-60212700D01*
X80410100Y-65462400D02*
X77926500Y-65462400D01*
X63890000Y-59705400D02*
X62955300Y-58770700D01*
X82371300Y-63501200D02*
X80410100Y-65462400D01*
X61188600Y-58218700D02*
X61740600Y-58770700D01*
X77926500Y-65462400D02*
X77476200Y-65912700D01*
X44126300Y-55376700D02*
X41119400Y-55376700D01*
X82626200Y-57719100D02*
X82626200Y-57228000D01*
X76068100Y-64504600D02*
X67597400Y-64504600D01*
X39751000Y-56745100D02*
X39751000Y-57228000D01*
X80721200Y-56156400D02*
X80721200Y-58806400D01*
X44996400Y-55796500D02*
X44546100Y-55796500D01*
X62955300Y-58770700D02*
X61740600Y-58770700D01*
X61188600Y-57228000D02*
X61188600Y-58218700D01*
X63890000Y-60797200D02*
X63890000Y-59705400D01*
X77476200Y-65912700D02*
X76068100Y-64504600D01*
X80721200Y-58806400D02*
X82371300Y-60456500D01*
%TO.N,LP3*%
X76948900Y-70146600D02*
X77011700Y-70083800D01*
X71015100Y-70146600D02*
X69999000Y-69130500D01*
X69999000Y-67982800D02*
X71113800Y-66868000D01*
X76948900Y-73061600D02*
X76948900Y-70146600D01*
X77540000Y-73580700D02*
X77468000Y-73580700D01*
X77468000Y-73580700D02*
X76948900Y-73061600D01*
X77540000Y-74306000D02*
X77540000Y-73580700D01*
X69999000Y-69130500D02*
X69999000Y-67982800D01*
X76948900Y-70146600D02*
X71015100Y-70146600D01*
%TO.N,P3*%
X39560500Y-58743100D02*
X38481000Y-57663600D01*
X61171100Y-63592400D02*
X62533600Y-64954900D01*
X80613100Y-65912700D02*
X84105700Y-62420100D01*
X61171100Y-59493200D02*
X61171100Y-63592400D01*
X59918600Y-57228000D02*
X59918600Y-58240700D01*
X81356200Y-58188500D02*
X81356200Y-57228000D01*
X51136100Y-62563100D02*
X42774900Y-62563100D01*
X78283700Y-68446600D02*
X78877200Y-67853100D01*
X52165400Y-63592400D02*
X51136100Y-62563100D01*
X84105700Y-60938000D02*
X81356200Y-58188500D01*
X38481000Y-57663600D02*
X38481000Y-57228000D01*
X61171100Y-63592400D02*
X52165400Y-63592400D01*
X40866000Y-60654200D02*
X40866000Y-59567700D01*
X72988800Y-67818000D02*
X76065600Y-67818000D01*
X76694200Y-68446600D02*
X78283700Y-68446600D01*
X40866000Y-59567700D02*
X40041400Y-58743100D01*
X62533900Y-64954600D02*
X72574600Y-64954600D01*
X86284000Y-60938000D02*
X84105700Y-60938000D01*
X40041400Y-58743100D02*
X39560500Y-58743100D01*
X59918600Y-58240700D02*
X61171100Y-59493200D01*
X84105700Y-62420100D02*
X84105700Y-60938000D01*
X72574600Y-64954600D02*
X72988800Y-65368800D01*
X72988800Y-65368800D02*
X72988800Y-67818000D01*
X78877200Y-67853100D02*
X78877200Y-66668200D01*
X78877200Y-66668200D02*
X79632700Y-65912700D01*
X42774900Y-62563100D02*
X40866000Y-60654200D01*
X79632700Y-65912700D02*
X80613100Y-65912700D01*
X62533600Y-64954900D02*
X62533900Y-64954600D01*
X76065600Y-67818000D02*
X76694200Y-68446600D01*
%TO.N,~{LROE}*%
X50479300Y-22250500D02*
X94008000Y-22250500D01*
X48651800Y-24078000D02*
X50479300Y-22250500D01*
X36160700Y-24078000D02*
X48651800Y-24078000D01*
X117790200Y-26764700D02*
X117824800Y-26764700D01*
X118465700Y-27405600D02*
X118465700Y-35464700D01*
X35260100Y-24978600D02*
X36160700Y-24078000D01*
X118465700Y-35464700D02*
X118921300Y-35920300D01*
X94008000Y-22250500D02*
X94086800Y-22329300D01*
X100235400Y-24130000D02*
X103250401Y-27145001D01*
X35260000Y-24978700D02*
X35260100Y-24978600D01*
X94964200Y-22329300D02*
X96670300Y-24035400D01*
X118921300Y-68230700D02*
X117207300Y-69944700D01*
X116840000Y-71120000D02*
X116840000Y-69944700D01*
X118921300Y-35920300D02*
X118921300Y-68230700D01*
X117207300Y-69944700D02*
X116840000Y-69944700D01*
X115413799Y-27145001D02*
X115983400Y-26575400D01*
X35260100Y-24978600D02*
X34985400Y-24704000D01*
X103250401Y-27145001D02*
X115413799Y-27145001D01*
X94086800Y-22329300D02*
X94964200Y-22329300D01*
X117008300Y-26764600D02*
X117790100Y-26764600D01*
X39621500Y-29834000D02*
X39621500Y-29108700D01*
X39621500Y-29108700D02*
X38902800Y-29108700D01*
X38902800Y-29108700D02*
X35260000Y-25465900D01*
X98335200Y-24035400D02*
X98429800Y-24130000D01*
X115983400Y-26575400D02*
X116819100Y-26575400D01*
X35260000Y-25465900D02*
X35260000Y-24978700D01*
X96670300Y-24035400D02*
X98335200Y-24035400D01*
X98429800Y-24130000D02*
X100235400Y-24130000D01*
X116819100Y-26575400D02*
X117008300Y-26764600D01*
X117790100Y-26764600D02*
X117790200Y-26764700D01*
X117824800Y-26764700D02*
X118465700Y-27405600D01*
%TO.N,~{ROE}*%
X86742800Y-57534600D02*
X87351500Y-57534600D01*
X72848800Y-63779100D02*
X68118200Y-63779100D01*
X64998600Y-57228000D02*
X66388300Y-58617700D01*
X39483800Y-28171000D02*
X39377400Y-28171000D01*
X87351500Y-57534600D02*
X87351500Y-57534700D01*
X40421500Y-29108700D02*
X39834400Y-28521500D01*
X43884200Y-59201700D02*
X43884200Y-57551200D01*
X43739100Y-59346800D02*
X43884200Y-59201700D01*
X43884200Y-57551200D02*
X43561000Y-57228000D01*
X68118200Y-63779100D02*
X66388300Y-62049200D01*
X39834400Y-28521500D02*
X39483800Y-28171000D01*
X39978000Y-28377900D02*
X39834400Y-28521500D01*
X43739100Y-61784700D02*
X43739100Y-59346800D01*
X40421500Y-29834000D02*
X40421500Y-29108700D01*
X86436200Y-57228000D02*
X86742800Y-57534600D01*
X39377400Y-28171000D02*
X36860400Y-25654000D01*
X66388300Y-58617700D02*
X66388300Y-62049200D01*
%TO.N,LALS*%
X41221500Y-29108700D02*
X41221500Y-26645700D01*
X41221500Y-26645700D02*
X41221500Y-26450700D01*
X41221500Y-29834000D02*
X41221500Y-29108700D01*
X41221500Y-26450700D02*
X42968200Y-24704000D01*
%TO.N,ALS*%
X42275300Y-28828300D02*
X44843200Y-26260400D01*
X42021500Y-29082100D02*
X42275300Y-28828300D01*
X53568600Y-47928000D02*
X52325800Y-47928000D01*
X52325800Y-47928000D02*
X52241100Y-47843300D01*
X42021500Y-29834000D02*
X42021500Y-29082100D01*
X44843200Y-26260400D02*
X44843200Y-25654000D01*
%TO.N,LP4*%
X49640000Y-64828700D02*
X50143300Y-64325400D01*
X49999400Y-66279300D02*
X50180700Y-66098000D01*
X49568000Y-66279300D02*
X49999400Y-66279300D01*
X67368700Y-70524300D02*
X68485900Y-70524300D01*
X49568000Y-65554000D02*
X49568000Y-65916600D01*
X50143300Y-63166800D02*
X50005100Y-63028600D01*
X42779900Y-63028600D02*
X41988500Y-63820000D01*
X49568000Y-65916600D02*
X49568000Y-66279300D01*
X49568000Y-64828700D02*
X49640000Y-64828700D01*
X50180700Y-66098000D02*
X62942400Y-66098000D01*
X49568000Y-65554000D02*
X49568000Y-64828700D01*
X50005100Y-63028600D02*
X42779900Y-63028600D01*
X62942400Y-66098000D02*
X67368700Y-70524300D01*
X50143300Y-64325400D02*
X50143300Y-63166800D01*
%TO.N,P4*%
X43863500Y-64770000D02*
X41522300Y-64770000D01*
X60003900Y-55404400D02*
X58648600Y-56759700D01*
X37211000Y-57665200D02*
X37211000Y-57228000D01*
X73567200Y-63471700D02*
X73149300Y-63053800D01*
X81893300Y-62166600D02*
X81893300Y-63316300D01*
X46292000Y-58083900D02*
X47000300Y-57375600D01*
X37211000Y-56734900D02*
X37211000Y-57228000D01*
X39049900Y-54896000D02*
X37211000Y-56734900D01*
X41522300Y-64770000D02*
X38330700Y-61578400D01*
X44732700Y-55346200D02*
X44282500Y-54896000D01*
X66337800Y-55404400D02*
X60003900Y-55404400D01*
X58648600Y-60976000D02*
X56520300Y-63104300D01*
X38330700Y-61578400D02*
X38330700Y-58784900D01*
X56520300Y-63104300D02*
X52421800Y-63104300D01*
X81390000Y-61663300D02*
X81893300Y-62166600D01*
X81737900Y-63471700D02*
X73567200Y-63471700D01*
X47000300Y-57375600D02*
X47000300Y-56774600D01*
X45571900Y-55346200D02*
X44732700Y-55346200D01*
X58648600Y-57228000D02*
X58648600Y-60976000D01*
X71268300Y-63053800D02*
X68745400Y-60530900D01*
X81318000Y-61663300D02*
X81390000Y-61663300D01*
X81318000Y-60938000D02*
X81318000Y-61663300D01*
X81893300Y-63316300D02*
X81737900Y-63471700D01*
X73149300Y-63053800D02*
X71268300Y-63053800D01*
X68745400Y-57812000D02*
X66337800Y-55404400D01*
X38330700Y-58784900D02*
X37211000Y-57665200D01*
X58648600Y-56759700D02*
X58648600Y-57228000D01*
X68745400Y-60530900D02*
X68745400Y-57812000D01*
X81318000Y-60938000D02*
X81318000Y-60212700D01*
X80086200Y-58980900D02*
X80086200Y-57228000D01*
X44282500Y-54896000D02*
X39049900Y-54896000D01*
X52421800Y-63104300D02*
X50914900Y-61597400D01*
X81318000Y-60212700D02*
X80086200Y-58980900D01*
X46951400Y-61597400D02*
X46292000Y-60938000D01*
X50914900Y-61597400D02*
X46951400Y-61597400D01*
X47000300Y-56774600D02*
X45571900Y-55346200D01*
X46292000Y-60938000D02*
X46292000Y-58083900D01*
%TO.N,LP5*%
X67830400Y-71283500D02*
X67830400Y-71283600D01*
X48768000Y-65554000D02*
X48768000Y-66515100D01*
X48768000Y-66515100D02*
X48699700Y-66583400D01*
X67491000Y-71283500D02*
X67830400Y-71283500D01*
X64642900Y-68435400D02*
X67491000Y-71283500D01*
X37416500Y-64351800D02*
X37792600Y-64727900D01*
X48768000Y-66515100D02*
X50688300Y-68435400D01*
X37416500Y-63820000D02*
X37416500Y-64351800D01*
X50688300Y-68435400D02*
X64642900Y-68435400D01*
%TO.N,P5*%
X77246900Y-55221700D02*
X76646500Y-55221700D01*
X39291500Y-64770000D02*
X39291500Y-64241300D01*
X38262900Y-54445600D02*
X35941000Y-56767500D01*
X44469000Y-54445600D02*
X38262900Y-54445600D01*
X47725700Y-56863100D02*
X45758500Y-54895900D01*
X35941000Y-61134100D02*
X35941000Y-57228000D01*
X57378600Y-55655300D02*
X57296800Y-55573500D01*
X38237600Y-63187400D02*
X37994300Y-63187400D01*
X78816200Y-57228000D02*
X78816200Y-58510900D01*
X78816200Y-58510900D02*
X80518000Y-60212700D01*
X78816200Y-56791000D02*
X77246900Y-55221700D01*
X35941000Y-56767500D02*
X35941000Y-57228000D01*
X45758500Y-54895900D02*
X44919300Y-54895900D01*
X47725700Y-56864700D02*
X47725700Y-56863100D01*
X57378600Y-57228000D02*
X57378600Y-55655300D01*
X39291500Y-64241300D02*
X38237600Y-63187400D01*
X78816200Y-57228000D02*
X78816200Y-56791000D01*
X37994300Y-63187400D02*
X35941000Y-61134100D01*
X44919300Y-54895900D02*
X44469000Y-54445600D01*
X80518000Y-60938000D02*
X80518000Y-60212700D01*
%TO.N,LP6*%
X64142900Y-69010800D02*
X67160300Y-72028200D01*
X32844500Y-63820000D02*
X31734100Y-64930400D01*
X31734100Y-64930400D02*
X31734100Y-66039600D01*
X32529900Y-66835400D02*
X47968000Y-66835400D01*
X47968000Y-66835400D02*
X47968000Y-66279300D01*
X47968000Y-65554000D02*
X47968000Y-66279300D01*
X50064000Y-69010800D02*
X64142900Y-69010800D01*
X47968000Y-66835400D02*
X47968000Y-66914800D01*
X31734100Y-66039600D02*
X32529900Y-66835400D01*
X47968000Y-66914800D02*
X50064000Y-69010800D01*
%TO.N,P6*%
X66721900Y-54888900D02*
X59244500Y-54888900D01*
X56108600Y-58648000D02*
X56108600Y-60889100D01*
X79718000Y-60938000D02*
X79718000Y-60212700D01*
X34671000Y-57228000D02*
X34671000Y-62390500D01*
X56108600Y-60889100D02*
X55125100Y-61872600D01*
X78296100Y-61588900D02*
X76987300Y-61588900D01*
X79718000Y-61663300D02*
X78370500Y-61663300D01*
X35885000Y-63604500D02*
X34719500Y-64770000D01*
X76987300Y-61588900D02*
X76561200Y-62015000D01*
X58013600Y-56119800D02*
X58013600Y-58308800D01*
X71510000Y-60739300D02*
X71510000Y-59677000D01*
X34671000Y-62390500D02*
X35885000Y-63604500D01*
X77546200Y-57228000D02*
X77546200Y-58040900D01*
X76561200Y-62015000D02*
X72785700Y-62015000D01*
X56108600Y-58648000D02*
X56108600Y-57228000D01*
X71510000Y-59677000D02*
X66721900Y-54888900D01*
X55125100Y-61872600D02*
X53784100Y-61872600D01*
X78370500Y-61663300D02*
X78296100Y-61588900D01*
X72785700Y-62015000D02*
X71510000Y-60739300D01*
X58013600Y-58308800D02*
X57674400Y-58648000D01*
X57674400Y-58648000D02*
X56108600Y-58648000D01*
X59244500Y-54888900D02*
X58013600Y-56119800D01*
X77546200Y-58040900D02*
X79718000Y-60212700D01*
X79718000Y-60938000D02*
X79718000Y-61663300D01*
%TO.N,LP7*%
X28176900Y-63661600D02*
X29395000Y-63661600D01*
X47168000Y-66279300D02*
X46247900Y-66279300D01*
X47168000Y-65554000D02*
X47168000Y-66279300D01*
X46247900Y-66279300D02*
X46053000Y-66084400D01*
X28018500Y-63820000D02*
X28176900Y-63661600D01*
%TO.N,P7*%
X48083900Y-54313500D02*
X45292100Y-54313500D01*
X36128800Y-53995200D02*
X33401000Y-56723000D01*
X49166600Y-55396200D02*
X48083900Y-54313500D01*
X76692500Y-57644300D02*
X76692500Y-60938000D01*
X76692500Y-60938000D02*
X78918000Y-60938000D01*
X33401000Y-60806200D02*
X29893500Y-64313700D01*
X54838600Y-55657300D02*
X55099700Y-55396200D01*
X44973800Y-53995200D02*
X36128800Y-53995200D01*
X76276200Y-57228000D02*
X76692500Y-57644300D01*
X74864000Y-61564700D02*
X74171000Y-60871700D01*
X74171000Y-60871700D02*
X74171000Y-59865100D01*
X76692500Y-60938000D02*
X76065800Y-61564700D01*
X74171000Y-59865100D02*
X68726300Y-54420400D01*
X76065800Y-61564700D02*
X74864000Y-61564700D01*
X56075500Y-54420400D02*
X55099700Y-55396200D01*
X45292100Y-54313500D02*
X44973800Y-53995200D01*
X68726300Y-54420400D02*
X56075500Y-54420400D01*
X29893500Y-64313700D02*
X29893500Y-64770000D01*
X54838600Y-57228000D02*
X54838600Y-55657300D01*
X33401000Y-57228000D02*
X33401000Y-60806200D01*
X33401000Y-56723000D02*
X33401000Y-57228000D01*
%TO.N,LAHS*%
X98588400Y-31750000D02*
X99493400Y-31750000D01*
X52954200Y-22700900D02*
X93821400Y-22700900D01*
X93821400Y-22700900D02*
X97884600Y-26764100D01*
X118015300Y-55381000D02*
X118015300Y-61516800D01*
X115664600Y-54329800D02*
X115850200Y-54515400D01*
X54861500Y-29101900D02*
X50951100Y-25191500D01*
X97884600Y-26764100D02*
X97884600Y-31046200D01*
X50951100Y-25191500D02*
X50951100Y-24704000D01*
X115850200Y-54515400D02*
X117149700Y-54515400D01*
X99493400Y-31750000D02*
X115664600Y-47921200D01*
X54861500Y-29834000D02*
X54861500Y-29101900D01*
X117207400Y-62324700D02*
X116840000Y-62324700D01*
X116840000Y-63500000D02*
X116840000Y-62324700D01*
X97884600Y-31046200D02*
X98588400Y-31750000D01*
X115664600Y-47921200D02*
X115664600Y-54329800D01*
X118015300Y-61516800D02*
X117207400Y-62324700D01*
X117149700Y-54515400D02*
X118015300Y-55381000D01*
X50951100Y-24704000D02*
X52954200Y-22700900D01*
%TO.N,AHS*%
X52826100Y-25654000D02*
X52826100Y-25097200D01*
X31495900Y-47928000D02*
X30228000Y-46660100D01*
X55661500Y-29834000D02*
X55661500Y-29108700D01*
X52826100Y-26273300D02*
X52826100Y-25654000D01*
X52826100Y-25097200D02*
X52311300Y-24582400D01*
X32131000Y-47928000D02*
X31495900Y-47928000D01*
X55661500Y-29108700D02*
X52826100Y-26273300D01*
%TO.N,~{LPGM}*%
X116840000Y-58420000D02*
X116840000Y-57244700D01*
X56461500Y-26959000D02*
X58716500Y-24704000D01*
X95927500Y-25443900D02*
X95927500Y-31568500D01*
X58716500Y-24704000D02*
X58933900Y-24704000D01*
X99462000Y-34290000D02*
X115140300Y-49968300D01*
X60475000Y-23162900D02*
X93646500Y-23162900D01*
X98649000Y-34290000D02*
X99462000Y-34290000D01*
X116471600Y-57244700D02*
X116840000Y-57244700D01*
X58933900Y-24704000D02*
X60475000Y-23162900D01*
X95927500Y-31568500D02*
X98649000Y-34290000D01*
X56461500Y-29834000D02*
X56461500Y-26959000D01*
X115140300Y-55913400D02*
X116471600Y-57244700D01*
X115140300Y-49968300D02*
X115140300Y-55913400D01*
X93646500Y-23162900D02*
X95927500Y-25443900D01*
%TO.N,~{PGM}*%
X57261500Y-29834000D02*
X57261500Y-28731900D01*
X57261600Y-28731900D02*
X57261500Y-28731900D01*
X60808900Y-25654000D02*
X58403400Y-25654000D01*
X57261600Y-26795800D02*
X57261600Y-28731900D01*
X58403400Y-25654000D02*
X57261600Y-26795800D01*
%TO.N,LD0*%
X32067300Y-38097300D02*
X35340400Y-38097300D01*
X35843700Y-37594000D02*
X35843700Y-37522000D01*
X37294300Y-37522000D02*
X37718300Y-37946000D01*
X31242000Y-37272000D02*
X32067300Y-38097300D01*
X37718300Y-37946000D02*
X39421200Y-37946000D01*
X35340400Y-38097300D02*
X35843700Y-37594000D01*
X36569000Y-37522000D02*
X37294300Y-37522000D01*
X36569000Y-37522000D02*
X35843700Y-37522000D01*
%TO.N,D0*%
X49478000Y-38766300D02*
X53402700Y-42691000D01*
X49478000Y-38551200D02*
X49478000Y-38671300D01*
X29367000Y-36322000D02*
X29367000Y-36839100D01*
X29367000Y-36839100D02*
X31199200Y-38671300D01*
X31199200Y-38671300D02*
X49478000Y-38671300D01*
X50507200Y-37522000D02*
X49478000Y-38551200D01*
X51232500Y-37522000D02*
X50507200Y-37522000D01*
X49478000Y-38671300D02*
X49478000Y-38766300D01*
%TO.N,LD1*%
X42544600Y-37845600D02*
X43206000Y-37845600D01*
X41971000Y-37272000D02*
X42544600Y-37845600D01*
X41971000Y-37272000D02*
X41919700Y-37220700D01*
X37793000Y-37220700D02*
X37294300Y-36722000D01*
X36569000Y-36722000D02*
X37294300Y-36722000D01*
X41919700Y-37220700D02*
X37793000Y-37220700D01*
%TO.N,D1*%
X51232500Y-36722000D02*
X51957800Y-36722000D01*
X51957800Y-40101200D02*
X52801000Y-40944400D01*
X40096000Y-36322000D02*
X40321200Y-36547200D01*
X44311000Y-37907800D02*
X49321400Y-37907800D01*
X51232500Y-36722000D02*
X50507200Y-36722000D01*
X51957800Y-36722000D02*
X51957800Y-40101200D01*
X49321400Y-37907800D02*
X50507200Y-36722000D01*
X42950400Y-36547200D02*
X44311000Y-37907800D01*
X40321200Y-36547200D02*
X42950400Y-36547200D01*
%TO.N,LD2*%
X48723500Y-37272000D02*
X49443700Y-36551800D01*
X36569000Y-35922000D02*
X37294300Y-35922000D01*
X47705500Y-37272000D02*
X48723500Y-37272000D01*
X43229100Y-35998000D02*
X44503100Y-37272000D01*
X37294300Y-35922000D02*
X37542000Y-35674300D01*
X40860800Y-35674300D02*
X41184500Y-35998000D01*
X41184500Y-35998000D02*
X43229100Y-35998000D01*
X44503100Y-37272000D02*
X47705500Y-37272000D01*
X37542000Y-35674300D02*
X40860800Y-35674300D01*
%TO.N,D2*%
X50507200Y-35922000D02*
X50411700Y-35826500D01*
X50411700Y-35826500D02*
X48860900Y-35826500D01*
X48860900Y-35826500D02*
X48365400Y-36322000D01*
X51232500Y-35922000D02*
X50507200Y-35922000D01*
X48365400Y-36322000D02*
X45830500Y-36322000D01*
%TO.N,LD3*%
X37294300Y-35122000D02*
X38847000Y-33569300D01*
X36569000Y-35122000D02*
X37294300Y-35122000D01*
X59514100Y-36192400D02*
X59514100Y-34878200D01*
X38847000Y-33569300D02*
X58205200Y-33569300D01*
X59514100Y-34878200D02*
X58839800Y-34203900D01*
X58434500Y-37272000D02*
X59514100Y-36192400D01*
X58205200Y-33569300D02*
X58839800Y-34203900D01*
%TO.N,D3*%
X51957800Y-35050000D02*
X51957800Y-35122000D01*
X58240800Y-39444800D02*
X56559500Y-37763500D01*
X56559500Y-37763500D02*
X56559500Y-36322000D01*
X54784200Y-34546700D02*
X52461100Y-34546700D01*
X56559500Y-36322000D02*
X54784200Y-34546700D01*
X51232500Y-35122000D02*
X51957800Y-35122000D01*
X52461100Y-34546700D02*
X51957800Y-35050000D01*
%TO.N,~{LCE}*%
X67027900Y-25302500D02*
X66916800Y-25302500D01*
X70101500Y-29834000D02*
X70101500Y-28376100D01*
X65846500Y-29347700D02*
X69177100Y-32678300D01*
X66807600Y-25302500D02*
X65846500Y-26263600D01*
X70101500Y-28376100D02*
X67027900Y-25302500D01*
X66916800Y-24704000D02*
X66916800Y-25302500D01*
X66916800Y-25302500D02*
X66807600Y-25302500D01*
X65846500Y-26263600D02*
X65846500Y-29347700D01*
%TO.N,~{CE}*%
X67713600Y-24074600D02*
X68791800Y-25152800D01*
X62620000Y-44992500D02*
X61230500Y-43603000D01*
X70901500Y-27763700D02*
X68791800Y-25654000D01*
X70901500Y-29834000D02*
X70901500Y-27763700D01*
X68791800Y-25152800D02*
X68791800Y-25654000D01*
X61230500Y-43603000D02*
X61230500Y-28966500D01*
X66122400Y-24074600D02*
X67713600Y-24074600D01*
X61230500Y-28966500D02*
X66122400Y-24074600D01*
%TO.N,~{LOE}*%
X118015300Y-48750700D02*
X118015300Y-45209300D01*
X73590400Y-27310300D02*
X74250100Y-27970000D01*
X73590400Y-26013300D02*
X73590400Y-27310300D01*
X116840000Y-49624700D02*
X117141300Y-49624700D01*
X74899700Y-24704000D02*
X73590400Y-26013300D01*
X71701500Y-29834000D02*
X71701500Y-29108700D01*
X118015300Y-45209300D02*
X117256000Y-44450000D01*
X117256000Y-44450000D02*
X115707600Y-44450000D01*
X71701500Y-29108700D02*
X71792000Y-29108700D01*
X116840000Y-50800000D02*
X116840000Y-49624700D01*
X117141300Y-49624700D02*
X118015300Y-48750700D01*
X115707600Y-44450000D02*
X100416300Y-29158700D01*
X71792000Y-29108700D02*
X73590400Y-27310300D01*
%TO.N,~{OE}*%
X72501500Y-29834000D02*
X72501500Y-29108700D01*
X76774700Y-26471200D02*
X76774700Y-25654000D01*
X73033000Y-29108700D02*
X73164700Y-28977000D01*
X74268900Y-28977000D02*
X76774700Y-26471200D01*
X72501500Y-29108700D02*
X73033000Y-29108700D01*
X73164700Y-28977000D02*
X74268900Y-28977000D01*
%TO.N,LD4*%
X69496000Y-37522000D02*
X68939600Y-37522000D01*
X68770700Y-37522000D02*
X68770700Y-34737200D01*
X68267400Y-38097300D02*
X64994300Y-38097300D01*
X64994300Y-38097300D02*
X64169000Y-37272000D01*
X68770700Y-34737200D02*
X69203700Y-34304200D01*
X68770700Y-37522000D02*
X68770700Y-37594000D01*
X68770700Y-37594000D02*
X68267400Y-38097300D01*
X68939600Y-37522000D02*
X68770700Y-37522000D01*
X69203700Y-34304200D02*
X72672400Y-34304200D01*
X72672400Y-34304200D02*
X73073300Y-34705100D01*
%TO.N,D4*%
X83434200Y-37683700D02*
X83434200Y-37522000D01*
X62294000Y-37014900D02*
X65899600Y-40620500D01*
X78027700Y-43090200D02*
X83434200Y-37683700D01*
X73825300Y-44992500D02*
X73825300Y-44698500D01*
X62294000Y-36322000D02*
X62294000Y-37014900D01*
X84159500Y-37522000D02*
X83434200Y-37522000D01*
X75433600Y-43090200D02*
X78027700Y-43090200D01*
X73825300Y-44698500D02*
X75433600Y-43090200D01*
X72780000Y-44992500D02*
X73825300Y-44992500D01*
%TO.N,LD5*%
X74898000Y-37272000D02*
X74899500Y-37273500D01*
X69496000Y-36722000D02*
X70221300Y-36722000D01*
X74899500Y-37273500D02*
X76240000Y-37273500D01*
X70771300Y-37272000D02*
X70221300Y-36722000D01*
X74898000Y-37272000D02*
X70771300Y-37272000D01*
%TO.N,D5*%
X77012700Y-37547000D02*
X76106200Y-38453500D01*
X73918100Y-38453500D02*
X69095500Y-43276100D01*
X77012700Y-37017500D02*
X77012700Y-37547000D01*
X71285300Y-44992500D02*
X71285300Y-44704000D01*
X76068800Y-39920500D02*
X80560500Y-39920500D01*
X73197400Y-36496400D02*
X76491600Y-36496400D01*
X81819100Y-38661900D02*
X81819100Y-38337100D01*
X70240000Y-44992500D02*
X71285300Y-44992500D01*
X76106200Y-38453500D02*
X73918100Y-38453500D01*
X73023000Y-36322000D02*
X73197400Y-36496400D01*
X71285300Y-44704000D02*
X76068800Y-39920500D01*
X81819100Y-38337100D02*
X83434200Y-36722000D01*
X76491600Y-36496400D02*
X77012700Y-37017500D01*
X80560500Y-39920500D02*
X81819100Y-38661900D01*
X84159500Y-36722000D02*
X83434200Y-36722000D01*
%TO.N,LD6*%
X80632500Y-38163800D02*
X80643500Y-38174800D01*
X73804700Y-35691200D02*
X74159500Y-36046000D01*
X74159500Y-36046000D02*
X76948200Y-36046000D01*
X78174200Y-37272000D02*
X80632500Y-37272000D01*
X71448200Y-35922000D02*
X71679000Y-35691200D01*
X80632500Y-37272000D02*
X80632500Y-38163800D01*
X71679000Y-35691200D02*
X73804700Y-35691200D01*
X69496000Y-35922000D02*
X70221300Y-35922000D01*
X70221300Y-35922000D02*
X71448200Y-35922000D01*
X76948200Y-36046000D02*
X78174200Y-37272000D01*
%TO.N,D6*%
X68745300Y-44992500D02*
X68745300Y-44698500D01*
X81368800Y-38475300D02*
X81368800Y-37978200D01*
X81714200Y-37632800D02*
X81714200Y-36322000D01*
X84159500Y-35922000D02*
X83434200Y-35922000D01*
X73973700Y-39470100D02*
X80374000Y-39470100D01*
X80374000Y-39470100D02*
X81368800Y-38475300D01*
X81368800Y-37978200D02*
X81714200Y-37632800D01*
X68745300Y-44698500D02*
X73973700Y-39470100D01*
X83034200Y-36322000D02*
X83434200Y-35922000D01*
X78757500Y-36322000D02*
X81714200Y-36322000D01*
X81714200Y-36322000D02*
X83034200Y-36322000D01*
X67700000Y-44992500D02*
X68745300Y-44992500D01*
%TO.N,LD7*%
X98634200Y-44544700D02*
X91361500Y-37272000D01*
X70221300Y-35122000D02*
X70313700Y-35029600D01*
X99060000Y-45720000D02*
X99060000Y-44544700D01*
X99060000Y-44544700D02*
X98634200Y-44544700D01*
X69496000Y-35122000D02*
X70221300Y-35122000D01*
X70313700Y-35029600D02*
X71314800Y-35029600D01*
%TO.N,D7*%
X88367800Y-36322000D02*
X80069100Y-44620700D01*
X88367800Y-36322000D02*
X86566300Y-34520500D01*
X80069100Y-44620700D02*
X78272300Y-44620700D01*
X84761000Y-34520500D02*
X84159500Y-35122000D01*
X78272300Y-44620700D02*
X76566600Y-46326400D01*
X89486500Y-36322000D02*
X88367800Y-36322000D01*
X86566300Y-34520500D02*
X84761000Y-34520500D01*
X66205300Y-45286500D02*
X66205300Y-44992500D01*
X67245200Y-46326400D02*
X66205300Y-45286500D01*
X65160000Y-44992500D02*
X66205300Y-44992500D01*
X76566600Y-46326400D02*
X67245200Y-46326400D01*
%TO.N,LAUS*%
X83157200Y-24978600D02*
X82882500Y-24704000D01*
X83157100Y-24978700D02*
X83157200Y-24978600D01*
X98682400Y-39464700D02*
X100072400Y-39464700D01*
X95026900Y-25180300D02*
X95026900Y-27840500D01*
X93273300Y-24063500D02*
X93910100Y-24063500D01*
X93910100Y-24063500D02*
X95026900Y-25180300D01*
X88278400Y-23613200D02*
X92823000Y-23613200D01*
X95444200Y-36226500D02*
X98682400Y-39464700D01*
X116840000Y-60960000D02*
X116840000Y-59784700D01*
X114279200Y-53671500D02*
X114279200Y-57591200D01*
X83157100Y-25466100D02*
X83157100Y-24978700D01*
X83742000Y-24393800D02*
X87497800Y-24393800D01*
X95026900Y-27840500D02*
X95444200Y-28257800D01*
X87497800Y-24393800D02*
X88278400Y-23613200D01*
X85341500Y-29834000D02*
X85341500Y-27650500D01*
X116472700Y-59784700D02*
X116840000Y-59784700D01*
X83157200Y-24978600D02*
X83742000Y-24393800D01*
X100072400Y-39464700D02*
X114279200Y-53671500D01*
X114279200Y-57591200D02*
X116472700Y-59784700D01*
X85341500Y-27650500D02*
X83157100Y-25466100D01*
X95444200Y-28257800D02*
X95444200Y-36226500D01*
X92823000Y-23613200D02*
X93273300Y-24063500D01*
%TO.N,AUS*%
X94889600Y-33274600D02*
X92001500Y-36162700D01*
X92636400Y-24063500D02*
X93086700Y-24513800D01*
X93723500Y-24513800D02*
X94576600Y-25366900D01*
X89116000Y-24063500D02*
X92636400Y-24063500D01*
X93086700Y-24513800D02*
X93723500Y-24513800D01*
X76911200Y-46796500D02*
X76911200Y-49038300D01*
X94889600Y-28340100D02*
X94889600Y-33274600D01*
X91058400Y-36162700D02*
X80898000Y-46323100D01*
X86141500Y-29834000D02*
X86141500Y-27038000D01*
X75875300Y-49297200D02*
X75006200Y-48428100D01*
X80898000Y-46323100D02*
X77384600Y-46323100D01*
X94576600Y-28027100D02*
X94889600Y-28340100D01*
X86141500Y-27038000D02*
X84757500Y-25654000D01*
X92001500Y-36162700D02*
X91058400Y-36162700D01*
X76911200Y-49038300D02*
X76652300Y-49297200D01*
X76652300Y-49297200D02*
X75875300Y-49297200D01*
X86141500Y-27038000D02*
X89116000Y-24063500D01*
X75006200Y-48428100D02*
X75006200Y-47928000D01*
X77384600Y-46323100D02*
X76911200Y-46796500D01*
X94576600Y-25366900D02*
X94576600Y-28027100D01*
%TO.N,RUN*%
X34596000Y-73370000D02*
X36628000Y-73370000D01*
X36628000Y-73370000D02*
X38862000Y-71136000D01*
X38862000Y-71136000D02*
X38862000Y-71120000D01*
X41096000Y-73370000D02*
X38862000Y-71136000D01*
%TO.N,GND*%
X117207300Y-52164700D02*
X118470900Y-50901100D01*
X75006200Y-58593400D02*
X75320000Y-58907200D01*
X99427400Y-52164700D02*
X99060000Y-52164700D01*
X67945000Y-67056000D02*
X67945000Y-66926195D01*
X89916000Y-53528000D02*
X88568200Y-53528000D01*
X118015300Y-29923300D02*
X118015300Y-38656800D01*
X100345500Y-64056800D02*
X100235300Y-64056800D01*
X100235300Y-51356800D02*
X99427400Y-52164700D01*
X26929400Y-62429600D02*
X32131000Y-57228000D01*
X32581000Y-68870000D02*
X28436700Y-64725700D01*
X106774700Y-70486000D02*
X100345500Y-64056800D01*
X32614700Y-53745300D02*
X27477000Y-48607600D01*
X116840000Y-53340000D02*
X116840000Y-52164700D01*
X99060000Y-53340000D02*
X99060000Y-52752300D01*
X100235300Y-42623300D02*
X100235300Y-51356800D01*
X99060000Y-66040000D02*
X99060000Y-64864700D01*
X34596000Y-68870000D02*
X32581000Y-68870000D01*
X117207300Y-41815300D02*
X116840000Y-41815300D01*
X59816600Y-65404600D02*
X59436000Y-65024000D01*
X54626000Y-70739000D02*
X54102000Y-71263000D01*
X88568200Y-53528000D02*
X88568200Y-53777500D01*
X27477000Y-44659000D02*
X27919900Y-44216100D01*
X99427300Y-41815300D02*
X100235300Y-42623300D01*
X32898000Y-53462000D02*
X32614700Y-53745300D01*
X116840000Y-52164700D02*
X117207300Y-52164700D01*
X75006200Y-54025800D02*
X75006200Y-57228000D01*
X107950000Y-70890000D02*
X106774700Y-70890000D01*
X54610000Y-53594000D02*
X53568600Y-54635400D01*
X116840000Y-40640000D02*
X116840000Y-41815300D01*
X99060000Y-27940000D02*
X100235300Y-27940000D01*
X27919900Y-44216100D02*
X32708400Y-44216100D01*
X99060000Y-52752300D02*
X99060000Y-52164700D01*
X99427400Y-54515300D02*
X100235300Y-55323200D01*
X32708400Y-44216100D02*
X33782000Y-43142500D01*
X75006200Y-54025800D02*
X69011800Y-54025800D01*
X99060000Y-40640000D02*
X99060000Y-41815300D01*
X100235300Y-55323200D02*
X100235300Y-64056800D01*
X53568600Y-54635400D02*
X53568600Y-57228000D01*
X118470900Y-50901100D02*
X118470900Y-43078900D01*
X66293600Y-65404600D02*
X59816600Y-65404600D01*
X116840000Y-27940000D02*
X116840000Y-29115300D01*
X47498000Y-53462000D02*
X32898000Y-53462000D01*
X32131000Y-54229000D02*
X32131000Y-57228000D01*
X106774700Y-70890000D02*
X106774700Y-70486000D01*
X99427400Y-64864700D02*
X99060000Y-64864700D01*
X28436700Y-64725700D02*
X27484300Y-64725700D01*
X75504000Y-53528000D02*
X75006200Y-54025800D01*
X100235300Y-64056800D02*
X99427400Y-64864700D01*
X67945000Y-67056000D02*
X67945000Y-66927252D01*
X116840000Y-40640000D02*
X116840000Y-39464700D01*
X69011800Y-54025800D02*
X68580000Y-53594000D01*
X67945000Y-67056000D02*
X66293600Y-65404600D01*
X68580000Y-53594000D02*
X54610000Y-53594000D01*
X27484300Y-64725700D02*
X26929400Y-64170800D01*
X26929400Y-64170800D02*
X26929400Y-62429600D01*
X117207400Y-39464700D02*
X116840000Y-39464700D01*
X27477000Y-48607600D02*
X27477000Y-44659000D01*
X75320000Y-60232500D02*
X75320000Y-58907200D01*
X118015300Y-38656800D02*
X117207400Y-39464700D01*
X55753000Y-70739000D02*
X54626000Y-70739000D01*
X116840000Y-29115300D02*
X117207300Y-29115300D01*
X32614700Y-53745300D02*
X32131000Y-54229000D01*
X88568200Y-53528000D02*
X75504000Y-53528000D01*
X75006200Y-57228000D02*
X75006200Y-58593400D01*
X116840000Y-27940000D02*
X100235300Y-27940000D01*
X117207300Y-29115300D02*
X118015300Y-29923300D01*
X118470900Y-43078900D02*
X117207300Y-41815300D01*
X99060000Y-54515300D02*
X99427400Y-54515300D01*
X99060000Y-53340000D02*
X99060000Y-54515300D01*
X99060000Y-41815300D02*
X99427300Y-41815300D01*
%TO.N,A7*%
X47380000Y-60232500D02*
X48425300Y-60232500D01*
X50365400Y-57247100D02*
X48425300Y-59187200D01*
X48425300Y-59187200D02*
X48425300Y-60232500D01*
X50365400Y-53752200D02*
X50365400Y-57247100D01*
X54838600Y-47928000D02*
X54838600Y-49279000D01*
X54838600Y-49279000D02*
X50365400Y-53752200D01*
%TO.N,A6*%
X56108600Y-49343600D02*
X56108600Y-47928000D01*
X50815800Y-54636400D02*
X56108600Y-49343600D01*
X49920000Y-58907200D02*
X50815800Y-58011400D01*
X50815800Y-58011400D02*
X50815800Y-54636400D01*
X49920000Y-60232500D02*
X49920000Y-58907200D01*
%TO.N,A5*%
X57378600Y-49424200D02*
X52460000Y-54342800D01*
X57378600Y-47928000D02*
X57378600Y-49424200D01*
X52460000Y-54342800D02*
X52460000Y-60232500D01*
%TO.N,A4*%
X52910400Y-58383900D02*
X53954700Y-59428200D01*
X55000000Y-60232500D02*
X53954700Y-60232500D01*
X58648600Y-47928000D02*
X58648600Y-48791100D01*
X52910400Y-54529300D02*
X52910400Y-58383900D01*
X53954700Y-59428200D02*
X53954700Y-60232500D01*
X58648600Y-48791100D02*
X52910400Y-54529300D01*
%TO.N,A3*%
X59918600Y-47421400D02*
X59918600Y-47928000D01*
X57080300Y-46525500D02*
X59022700Y-46525500D01*
X56743600Y-46862200D02*
X57080300Y-46525500D01*
X53093800Y-62636100D02*
X51414600Y-60956900D01*
X56743600Y-49422300D02*
X56743600Y-46862200D01*
X57540000Y-60232500D02*
X55136400Y-62636100D01*
X55136400Y-62636100D02*
X53093800Y-62636100D01*
X59022700Y-46525500D02*
X59918600Y-47421400D01*
X51414600Y-54751300D02*
X56743600Y-49422300D01*
X51414600Y-60956900D02*
X51414600Y-54751300D01*
%TO.N,A2*%
X61188600Y-47928000D02*
X61188600Y-51639100D01*
X61188600Y-51639100D02*
X59965600Y-52862100D01*
%TO.N,A1*%
X62612400Y-48081800D02*
X62612400Y-52844000D01*
X62458600Y-47928000D02*
X62612400Y-48081800D01*
%TO.N,A0*%
X63728600Y-47928000D02*
X63601000Y-48055600D01*
X63601000Y-48055600D02*
X63601000Y-52094300D01*
%TO.N,A18*%
X71566900Y-49791200D02*
X71132900Y-49357200D01*
X82626200Y-48440900D02*
X81275900Y-49791200D01*
X82626200Y-47928000D02*
X82626200Y-48440900D01*
X81275900Y-49791200D02*
X71566900Y-49791200D01*
%TO.N,A16*%
X82908900Y-50691900D02*
X67332200Y-50691900D01*
X85166200Y-47928000D02*
X85166200Y-48434600D01*
X85166200Y-48434600D02*
X82908900Y-50691900D01*
X67332200Y-50691900D02*
X66746500Y-50106200D01*
%TO.N,A15*%
X33401000Y-47928000D02*
X33401000Y-49720100D01*
X33401000Y-49720100D02*
X36365700Y-52684800D01*
%TO.N,A12*%
X37211000Y-47928000D02*
X36636300Y-48502700D01*
X36636300Y-48502700D02*
X36636300Y-49447500D01*
%TO.N,A10*%
X39751000Y-48393600D02*
X40975700Y-49618300D01*
X39751000Y-47928000D02*
X39751000Y-48393600D01*
%TO.N,A11*%
X38481000Y-48416300D02*
X39627000Y-49562300D01*
X38481000Y-47928000D02*
X38481000Y-48416300D01*
%TO.N,A9*%
X51515800Y-49106800D02*
X48223200Y-52399400D01*
X44887900Y-52399400D02*
X41021000Y-48532500D01*
X48223200Y-52399400D02*
X44887900Y-52399400D01*
X51515800Y-47262000D02*
X51515800Y-49106800D01*
X41021000Y-48532500D02*
X41021000Y-47928000D01*
X52460000Y-44992500D02*
X52460000Y-46317800D01*
X52460000Y-46317800D02*
X51515800Y-47262000D01*
%TO.N,A8*%
X47585600Y-46575600D02*
X48874700Y-45286500D01*
X49920000Y-44992500D02*
X48874700Y-44992500D01*
X42291000Y-47499400D02*
X43214800Y-46575600D01*
X48874700Y-45286500D02*
X48874700Y-44992500D01*
X42291000Y-47928000D02*
X42291000Y-47499400D01*
X43214800Y-46575600D02*
X47585600Y-46575600D01*
%TO.N,A13*%
X38490000Y-44489100D02*
X39330900Y-43648200D01*
X35941000Y-47482500D02*
X36932000Y-46491500D01*
X37483900Y-46491500D02*
X38490000Y-45485400D01*
X45284400Y-43648200D02*
X46334700Y-44698500D01*
X35941000Y-47928000D02*
X35941000Y-47482500D01*
X46334700Y-44698500D02*
X46334700Y-44992500D01*
X39330900Y-43648200D02*
X45284400Y-43648200D01*
X38490000Y-45485400D02*
X38490000Y-44489100D01*
X47380000Y-44992500D02*
X46334700Y-44992500D01*
X36932000Y-46491500D02*
X37483900Y-46491500D01*
%TO.N,A14*%
X38195400Y-46491500D02*
X42589400Y-46491500D01*
X34671000Y-47928000D02*
X34671100Y-47928000D01*
X36335700Y-50181400D02*
X36983000Y-50181400D01*
X43794700Y-45286200D02*
X43794700Y-44992500D01*
X37846000Y-49318400D02*
X37846000Y-46840900D01*
X34671100Y-48516800D02*
X36335700Y-50181400D01*
X44840000Y-44992500D02*
X43794700Y-44992500D01*
X36983000Y-50181400D02*
X37846000Y-49318400D01*
X34671100Y-47928000D02*
X34671100Y-48516800D01*
X42589400Y-46491500D02*
X43794700Y-45286200D01*
X37846000Y-46840900D02*
X38195400Y-46491500D01*
%TO.N,A17*%
X82122500Y-50241600D02*
X83896200Y-48467900D01*
X69506500Y-50241600D02*
X82122500Y-50241600D01*
X83896200Y-48467900D02*
X83896200Y-47928000D01*
X66506600Y-47241700D02*
X69506500Y-50241600D01*
%TO.N,Net-(D1-K)*%
X29648000Y-46196000D02*
X28702000Y-46196000D01*
X37220000Y-44992500D02*
X36174700Y-44992500D01*
X36174700Y-44992500D02*
X35244200Y-45923000D01*
X35244200Y-45923000D02*
X29921000Y-45923000D01*
X29921000Y-45923000D02*
X29648000Y-46196000D01*
%TO.N,Net-(D2-K)*%
X47228000Y-73263000D02*
X46223000Y-72258000D01*
X54102000Y-73263000D02*
X47228000Y-73263000D01*
X46223000Y-72258000D02*
X46223000Y-71120000D01*
%TO.N,Net-(D3-K)*%
X64389000Y-66384000D02*
X65273000Y-66384000D01*
X65273000Y-66384000D02*
X65945000Y-67056000D01*
%TO.N,unconnected-(Q24-S-Pad2)*%
X86941500Y-28627900D02*
X90865400Y-24704000D01*
X86941500Y-29834000D02*
X86941500Y-28627900D01*
%TO.N,unconnected-(Q24-D-Pad3)*%
X87741500Y-29108700D02*
X89785900Y-29108700D01*
X89785900Y-29108700D02*
X92740400Y-26154200D01*
X92740400Y-26154200D02*
X92740400Y-25654000D01*
X87741500Y-29834000D02*
X87741500Y-29108700D01*
%TO.N,+5V*%
X55661500Y-32246700D02*
X55661500Y-32359300D01*
X70901500Y-32359300D02*
X70901500Y-32934000D01*
X60462500Y-34100500D02*
X60462500Y-41323500D01*
X88321400Y-63100600D02*
X88684000Y-62738000D01*
X87884000Y-63100600D02*
X88321400Y-63100600D01*
X86141500Y-32359300D02*
X72501500Y-32359300D01*
X52265700Y-43419700D02*
X53699800Y-43419700D01*
X55661500Y-32359300D02*
X57261500Y-32359300D01*
X85234200Y-37084700D02*
X85596900Y-36722000D01*
X85872400Y-51694000D02*
X86436200Y-51130200D01*
X85234200Y-35557000D02*
X85234200Y-35122000D01*
X86436200Y-51130200D02*
X86436200Y-47928000D01*
X55661500Y-32359300D02*
X42021500Y-32359300D01*
X85810700Y-35922000D02*
X85599200Y-35922000D01*
X85959500Y-35122000D02*
X85234200Y-35122000D01*
X91424100Y-59344500D02*
X88755900Y-62012700D01*
X34888600Y-43935900D02*
X33782000Y-45042500D01*
X53699800Y-43419700D02*
X54669600Y-42449900D01*
X53032500Y-36722000D02*
X53395200Y-36722000D01*
X34888600Y-43148400D02*
X34888600Y-43935900D01*
X85599200Y-35922000D02*
X85234200Y-35557000D01*
X30061500Y-42311800D02*
X34498300Y-42311800D01*
X85959500Y-37522000D02*
X85234200Y-37522000D01*
X29577300Y-42796000D02*
X30061500Y-42311800D01*
X78005300Y-62323900D02*
X78503900Y-62323900D01*
X43561000Y-47928000D02*
X43561000Y-50419000D01*
X40421500Y-32359300D02*
X42021500Y-32359300D01*
X79718000Y-62738000D02*
X78918000Y-62738000D01*
X34498300Y-42311800D02*
X34888600Y-42702100D01*
X86284000Y-63463300D02*
X87084000Y-63463300D01*
X34888600Y-42702100D02*
X34888600Y-43148400D01*
X47498000Y-51562000D02*
X51065500Y-47994500D01*
X57261500Y-31634000D02*
X57261500Y-32359300D01*
X70901500Y-32359300D02*
X72501500Y-32359300D01*
X68580000Y-51694000D02*
X79302300Y-51694000D01*
X53395200Y-37522000D02*
X53395200Y-36722000D01*
X86141500Y-32246700D02*
X86141500Y-32359300D01*
X51065500Y-47994500D02*
X51065500Y-44619900D01*
X54669600Y-42449900D02*
X54669600Y-38433800D01*
X53032500Y-37522000D02*
X53395200Y-37522000D01*
X89916000Y-51628000D02*
X86934000Y-51628000D01*
X28702000Y-42796000D02*
X29577300Y-42796000D01*
X70901500Y-31634000D02*
X70901500Y-32359300D01*
X58721300Y-32359300D02*
X60462500Y-34100500D01*
X53395200Y-37522000D02*
X53757800Y-37522000D01*
X59336100Y-42449900D02*
X61350000Y-44463800D01*
X85234200Y-37637200D02*
X85234200Y-37522000D01*
X54669600Y-42449900D02*
X59336100Y-42449900D01*
X70901500Y-32934000D02*
X70706900Y-33128600D01*
X91424100Y-52774800D02*
X91424100Y-59344500D01*
X80518000Y-62738000D02*
X79718000Y-62738000D01*
X86141500Y-31634000D02*
X86141500Y-32246700D01*
X80518000Y-62738000D02*
X81318000Y-62738000D01*
X60462500Y-41323500D02*
X59336100Y-42449900D01*
X44704000Y-51562000D02*
X47498000Y-51562000D01*
X87741500Y-30908700D02*
X89243000Y-30908700D01*
X85959500Y-36722000D02*
X85596900Y-36722000D01*
X57261500Y-32359300D02*
X58721300Y-32359300D01*
X53757800Y-36359400D02*
X53757800Y-35922000D01*
X65410000Y-51694000D02*
X64998600Y-51282600D01*
X62438800Y-46577000D02*
X64119600Y-46577000D01*
X64119600Y-46577000D02*
X64998600Y-47456000D01*
X53395200Y-35922000D02*
X53757800Y-35922000D01*
X86934000Y-51628000D02*
X86436200Y-51130200D01*
X51065500Y-44619900D02*
X51215500Y-44469900D01*
X53032500Y-35922000D02*
X53395200Y-35922000D01*
X87446700Y-63463300D02*
X87884000Y-63463300D01*
X53395200Y-35922000D02*
X53757800Y-35559400D01*
X87084000Y-63100600D02*
X87084000Y-63463300D01*
X89916000Y-51628000D02*
X90277300Y-51628000D01*
X79302300Y-51694000D02*
X85872400Y-51694000D01*
X68580000Y-51694000D02*
X65410000Y-51694000D01*
X40421500Y-31634000D02*
X40421500Y-32359300D01*
X53032500Y-35122000D02*
X53757800Y-35122000D01*
X43561000Y-50419000D02*
X44704000Y-51562000D01*
X88684000Y-62738000D02*
X88684000Y-62012700D01*
X79052600Y-43818800D02*
X85234200Y-37637200D01*
X86284000Y-62738000D02*
X86284000Y-63463300D01*
X85234200Y-37522000D02*
X85234200Y-37084700D01*
X61350000Y-44463800D02*
X61350000Y-45488200D01*
X72501500Y-31634000D02*
X72501500Y-32359300D01*
X85959500Y-35922000D02*
X85810700Y-35922000D01*
X87884000Y-62738000D02*
X87884000Y-63100600D01*
X88755900Y-62012700D02*
X88684000Y-62012700D01*
X89243000Y-30908700D02*
X93387100Y-26764600D01*
X51215500Y-44469900D02*
X52265700Y-43419700D01*
X79302300Y-51694000D02*
X79302300Y-51844700D01*
X87741500Y-31634000D02*
X87741500Y-30908700D01*
X51215500Y-44469900D02*
X49894000Y-43148400D01*
X90277300Y-51628000D02*
X91424100Y-52774800D01*
X54669600Y-38433800D02*
X53757800Y-37522000D01*
X87884000Y-63100600D02*
X87884000Y-63463300D01*
X53757800Y-35559400D02*
X53757800Y-35122000D01*
X78503900Y-62323900D02*
X78918000Y-62738000D01*
X85599200Y-36719700D02*
X85599200Y-35922000D01*
X87084000Y-63100600D02*
X87446700Y-63463300D01*
X64998600Y-47456000D02*
X64998600Y-47928000D01*
X87741500Y-31634000D02*
X87741500Y-32359300D01*
X53395200Y-36722000D02*
X53757800Y-36359400D01*
X85596900Y-36722000D02*
X85599200Y-36719700D01*
X86141500Y-32359300D02*
X87741500Y-32359300D01*
X42021500Y-31634000D02*
X42021500Y-32359300D01*
X49894000Y-43148400D02*
X34888600Y-43148400D01*
X61350000Y-45488200D02*
X62438800Y-46577000D01*
X64998600Y-51282600D02*
X64998600Y-47928000D01*
X87084000Y-62738000D02*
X87084000Y-63100600D01*
X55661500Y-31634000D02*
X55661500Y-32246700D01*
%TD*%
%TA.AperFunction,Conductor*%
%TO.N,+5V*%
G36*
X125734929Y-21590888D02*
G01*
X125738462Y-21591166D01*
X125786516Y-21594948D01*
X125787447Y-21595026D01*
X125927423Y-21607273D01*
X125945854Y-21610274D01*
X125964699Y-21614798D01*
X126024434Y-21629139D01*
X126027537Y-21629927D01*
X126132681Y-21658100D01*
X126148265Y-21663390D01*
X126228446Y-21696602D01*
X126233413Y-21698787D01*
X126326686Y-21742282D01*
X126339237Y-21749026D01*
X126415121Y-21795528D01*
X126421505Y-21799713D01*
X126504082Y-21857534D01*
X126513630Y-21864928D01*
X126581919Y-21923252D01*
X126589184Y-21929968D01*
X126660030Y-22000814D01*
X126666746Y-22008079D01*
X126725070Y-22076368D01*
X126732469Y-22085923D01*
X126790275Y-22168479D01*
X126794481Y-22174894D01*
X126832435Y-22236829D01*
X126840963Y-22250744D01*
X126847726Y-22263330D01*
X126891200Y-22356561D01*
X126893414Y-22361593D01*
X126926603Y-22441719D01*
X126931901Y-22457326D01*
X126960057Y-22562406D01*
X126960869Y-22565604D01*
X126979724Y-22644144D01*
X126982725Y-22662574D01*
X126994981Y-22802647D01*
X126995072Y-22803743D01*
X126999111Y-22855057D01*
X126999500Y-22864944D01*
X126999500Y-74925055D01*
X126999111Y-74934942D01*
X126995072Y-74986255D01*
X126994981Y-74987351D01*
X126982725Y-75127424D01*
X126979724Y-75145854D01*
X126960869Y-75224394D01*
X126960057Y-75227592D01*
X126931901Y-75332672D01*
X126926603Y-75348279D01*
X126893414Y-75428405D01*
X126891200Y-75433437D01*
X126847726Y-75526668D01*
X126840963Y-75539254D01*
X126794482Y-75615103D01*
X126790263Y-75621538D01*
X126732472Y-75704071D01*
X126725070Y-75713630D01*
X126666746Y-75781919D01*
X126660030Y-75789184D01*
X126589184Y-75860030D01*
X126581919Y-75866746D01*
X126513630Y-75925070D01*
X126504071Y-75932472D01*
X126421538Y-75990263D01*
X126415103Y-75994482D01*
X126339254Y-76040963D01*
X126326668Y-76047726D01*
X126233437Y-76091200D01*
X126228405Y-76093414D01*
X126148279Y-76126603D01*
X126132672Y-76131901D01*
X126027592Y-76160057D01*
X126024394Y-76160869D01*
X125945854Y-76179724D01*
X125927424Y-76182725D01*
X125787351Y-76194981D01*
X125786255Y-76195072D01*
X125734942Y-76199111D01*
X125725055Y-76199500D01*
X81381295Y-76199500D01*
X81313174Y-76179498D01*
X81266681Y-76125842D01*
X81256577Y-76055568D01*
X81286071Y-75990988D01*
X81292193Y-75984411D01*
X81299379Y-75977224D01*
X81314424Y-75964374D01*
X81330807Y-75952472D01*
X81359003Y-75918386D01*
X81366972Y-75909630D01*
X84564837Y-72711765D01*
X121589788Y-72711765D01*
X121619412Y-72981014D01*
X121687928Y-73243090D01*
X121793869Y-73492389D01*
X121838923Y-73566211D01*
X121934982Y-73723610D01*
X122108255Y-73931820D01*
X122108257Y-73931822D01*
X122108259Y-73931824D01*
X122187690Y-74002994D01*
X122309998Y-74112582D01*
X122535910Y-74262044D01*
X122781176Y-74377020D01*
X123040569Y-74455060D01*
X123040572Y-74455060D01*
X123040574Y-74455061D01*
X123308557Y-74494500D01*
X123308561Y-74494500D01*
X123511631Y-74494500D01*
X123714156Y-74479677D01*
X123714160Y-74479676D01*
X123714161Y-74479676D01*
X123824665Y-74455060D01*
X123978553Y-74420780D01*
X124231558Y-74324014D01*
X124467777Y-74191441D01*
X124682177Y-74025888D01*
X124870186Y-73830881D01*
X125027799Y-73610579D01*
X125029789Y-73606710D01*
X125151656Y-73369675D01*
X125151657Y-73369672D01*
X125164982Y-73330614D01*
X125239118Y-73113305D01*
X125270331Y-72944321D01*
X125288318Y-72846941D01*
X125288319Y-72846930D01*
X125291548Y-72758574D01*
X125298212Y-72576235D01*
X125275338Y-72368343D01*
X125268587Y-72306985D01*
X125224498Y-72138342D01*
X125200072Y-72044912D01*
X125194240Y-72031189D01*
X125094130Y-71795610D01*
X125077764Y-71768793D01*
X124953018Y-71564390D01*
X124779745Y-71356180D01*
X124779741Y-71356177D01*
X124779740Y-71356175D01*
X124578012Y-71175427D01*
X124578002Y-71175418D01*
X124352090Y-71025956D01*
X124106824Y-70910980D01*
X123900606Y-70848938D01*
X123847425Y-70832938D01*
X123579442Y-70793500D01*
X123579439Y-70793500D01*
X123376369Y-70793500D01*
X123173839Y-70808323D01*
X123173838Y-70808323D01*
X122909456Y-70867217D01*
X122909441Y-70867222D01*
X122656441Y-70963986D01*
X122420229Y-71096555D01*
X122420225Y-71096557D01*
X122205818Y-71262116D01*
X122017815Y-71457117D01*
X122017810Y-71457123D01*
X121860203Y-71677417D01*
X121860196Y-71677427D01*
X121736343Y-71918324D01*
X121736342Y-71918327D01*
X121648883Y-72174689D01*
X121648880Y-72174702D01*
X121599681Y-72441058D01*
X121599680Y-72441069D01*
X121589788Y-72711765D01*
X84564837Y-72711765D01*
X97908227Y-59368375D01*
X97970537Y-59334351D01*
X98041352Y-59339416D01*
X98090022Y-59372135D01*
X98133435Y-59419295D01*
X98136760Y-59422906D01*
X98136764Y-59422909D01*
X98136765Y-59422910D01*
X98232526Y-59497445D01*
X98314424Y-59561189D01*
X98347680Y-59579186D01*
X98398071Y-59629200D01*
X98413423Y-59698516D01*
X98388862Y-59765129D01*
X98347680Y-59800814D01*
X98314426Y-59818810D01*
X98314424Y-59818811D01*
X98136762Y-59957091D01*
X97984279Y-60122729D01*
X97984275Y-60122734D01*
X97861141Y-60311206D01*
X97770703Y-60517386D01*
X97770702Y-60517387D01*
X97715437Y-60735624D01*
X97715436Y-60735630D01*
X97715436Y-60735632D01*
X97696844Y-60960000D01*
X97715200Y-61181521D01*
X97715437Y-61184375D01*
X97770702Y-61402612D01*
X97770703Y-61402613D01*
X97770704Y-61402616D01*
X97858677Y-61603176D01*
X97861141Y-61608793D01*
X97984275Y-61797265D01*
X97984279Y-61797270D01*
X98136762Y-61962908D01*
X98140356Y-61965705D01*
X98314424Y-62101189D01*
X98347678Y-62119185D01*
X98347680Y-62119186D01*
X98398071Y-62169200D01*
X98413423Y-62238516D01*
X98388862Y-62305129D01*
X98347680Y-62340814D01*
X98314426Y-62358810D01*
X98314424Y-62358811D01*
X98136762Y-62497091D01*
X97984279Y-62662729D01*
X97984275Y-62662734D01*
X97861141Y-62851206D01*
X97770703Y-63057386D01*
X97770702Y-63057387D01*
X97715437Y-63275624D01*
X97715436Y-63275630D01*
X97715436Y-63275632D01*
X97696844Y-63500000D01*
X97715165Y-63721100D01*
X97715437Y-63724375D01*
X97770702Y-63942612D01*
X97770703Y-63942613D01*
X97770704Y-63942616D01*
X97858167Y-64142014D01*
X97861141Y-64148793D01*
X97984275Y-64337265D01*
X97984278Y-64337268D01*
X98044831Y-64403045D01*
X98127475Y-64492820D01*
X98158896Y-64556485D01*
X98150909Y-64627031D01*
X98106051Y-64682060D01*
X98078807Y-64696213D01*
X97963797Y-64739110D01*
X97963792Y-64739112D01*
X97846738Y-64826738D01*
X97759112Y-64943792D01*
X97759110Y-64943797D01*
X97708011Y-65080795D01*
X97708009Y-65080803D01*
X97701500Y-65141350D01*
X97701500Y-66938649D01*
X97708009Y-66999196D01*
X97708011Y-66999204D01*
X97759110Y-67136202D01*
X97759112Y-67136207D01*
X97846738Y-67253261D01*
X97963791Y-67340886D01*
X97963792Y-67340886D01*
X97963796Y-67340889D01*
X98078810Y-67383787D01*
X98135642Y-67426332D01*
X98160453Y-67492852D01*
X98145362Y-67562226D01*
X98127475Y-67587179D01*
X97984280Y-67742729D01*
X97984275Y-67742734D01*
X97861141Y-67931206D01*
X97770703Y-68137386D01*
X97770702Y-68137387D01*
X97715437Y-68355624D01*
X97715436Y-68355630D01*
X97715436Y-68355632D01*
X97696844Y-68580000D01*
X97709087Y-68727753D01*
X97715437Y-68804375D01*
X97770702Y-69022612D01*
X97770703Y-69022613D01*
X97770704Y-69022616D01*
X97802899Y-69096014D01*
X97861141Y-69228793D01*
X97984275Y-69417265D01*
X97984279Y-69417270D01*
X98136762Y-69582908D01*
X98164393Y-69604414D01*
X98314424Y-69721189D01*
X98347678Y-69739185D01*
X98347680Y-69739186D01*
X98398071Y-69789200D01*
X98413423Y-69858516D01*
X98388862Y-69925129D01*
X98347680Y-69960813D01*
X98314428Y-69978809D01*
X98314426Y-69978810D01*
X98314424Y-69978811D01*
X98136762Y-70117091D01*
X97984279Y-70282729D01*
X97984275Y-70282734D01*
X97861141Y-70471206D01*
X97770703Y-70677386D01*
X97770702Y-70677387D01*
X97715437Y-70895624D01*
X97715436Y-70895630D01*
X97715436Y-70895632D01*
X97696844Y-71120000D01*
X97714462Y-71332616D01*
X97715437Y-71344375D01*
X97770702Y-71562612D01*
X97770703Y-71562613D01*
X97770704Y-71562616D01*
X97849712Y-71742738D01*
X97861141Y-71768793D01*
X97984275Y-71957265D01*
X97984279Y-71957270D01*
X98136762Y-72122908D01*
X98166206Y-72145825D01*
X98314424Y-72261189D01*
X98512426Y-72368342D01*
X98512427Y-72368342D01*
X98512428Y-72368343D01*
X98603949Y-72399762D01*
X98725365Y-72441444D01*
X98947431Y-72478500D01*
X98947435Y-72478500D01*
X99172565Y-72478500D01*
X99172569Y-72478500D01*
X99394635Y-72441444D01*
X99607574Y-72368342D01*
X99805576Y-72261189D01*
X99983240Y-72122906D01*
X100135722Y-71957268D01*
X100258860Y-71768791D01*
X100349296Y-71562616D01*
X100404564Y-71344368D01*
X100423156Y-71120000D01*
X100404564Y-70895632D01*
X100401117Y-70882019D01*
X100349297Y-70677387D01*
X100349296Y-70677386D01*
X100349296Y-70677384D01*
X100258860Y-70471209D01*
X100209005Y-70394900D01*
X100135724Y-70282734D01*
X100135720Y-70282729D01*
X99983237Y-70117091D01*
X99819865Y-69989933D01*
X99805576Y-69978811D01*
X99772319Y-69960813D01*
X99721929Y-69910802D01*
X99706576Y-69841485D01*
X99731136Y-69774872D01*
X99772320Y-69739186D01*
X99772322Y-69739185D01*
X99805576Y-69721189D01*
X99983240Y-69582906D01*
X100135722Y-69417268D01*
X100258860Y-69228791D01*
X100349296Y-69022616D01*
X100404564Y-68804368D01*
X100423156Y-68580000D01*
X100404564Y-68355632D01*
X100392086Y-68306359D01*
X100349297Y-68137387D01*
X100349296Y-68137386D01*
X100349296Y-68137384D01*
X100258860Y-67931209D01*
X100220933Y-67873157D01*
X100135724Y-67742734D01*
X100135719Y-67742729D01*
X100074750Y-67676500D01*
X99992524Y-67587179D01*
X99961103Y-67523514D01*
X99969090Y-67452968D01*
X100013948Y-67397939D01*
X100041183Y-67383789D01*
X100156204Y-67340889D01*
X100186082Y-67318523D01*
X100273261Y-67253261D01*
X100360887Y-67136207D01*
X100360887Y-67136206D01*
X100360889Y-67136204D01*
X100411989Y-66999201D01*
X100418500Y-66938638D01*
X100418500Y-65329894D01*
X100438502Y-65261773D01*
X100492158Y-65215280D01*
X100562432Y-65205176D01*
X100627012Y-65234670D01*
X100633595Y-65240799D01*
X104854562Y-69461766D01*
X104888588Y-69524078D01*
X104883523Y-69594893D01*
X104840976Y-69651729D01*
X104825437Y-69661674D01*
X104664430Y-69748807D01*
X104664424Y-69748811D01*
X104486762Y-69887091D01*
X104334279Y-70052729D01*
X104334275Y-70052734D01*
X104211141Y-70241206D01*
X104120703Y-70447386D01*
X104120702Y-70447387D01*
X104065437Y-70665624D01*
X104065436Y-70665630D01*
X104065436Y-70665632D01*
X104046844Y-70890000D01*
X104065120Y-71110556D01*
X104065437Y-71114375D01*
X104120702Y-71332612D01*
X104120703Y-71332613D01*
X104120704Y-71332616D01*
X104192681Y-71496708D01*
X104211141Y-71538793D01*
X104334275Y-71727265D01*
X104334279Y-71727270D01*
X104402511Y-71801388D01*
X104486605Y-71892738D01*
X104486762Y-71892908D01*
X104528653Y-71925513D01*
X104664424Y-72031189D01*
X104862426Y-72138342D01*
X104862427Y-72138342D01*
X104862428Y-72138343D01*
X104968301Y-72174689D01*
X105075365Y-72211444D01*
X105297431Y-72248500D01*
X105297435Y-72248500D01*
X105522565Y-72248500D01*
X105522569Y-72248500D01*
X105744635Y-72211444D01*
X105957574Y-72138342D01*
X106155576Y-72031189D01*
X106333240Y-71892906D01*
X106394245Y-71826637D01*
X106455096Y-71790067D01*
X106526061Y-71792200D01*
X106584606Y-71832362D01*
X106605000Y-71867941D01*
X106649111Y-71986204D01*
X106649112Y-71986207D01*
X106736738Y-72103261D01*
X106853792Y-72190887D01*
X106853794Y-72190888D01*
X106853796Y-72190889D01*
X106908900Y-72211442D01*
X106990795Y-72241988D01*
X106990803Y-72241990D01*
X107051350Y-72248499D01*
X107051355Y-72248499D01*
X107051362Y-72248500D01*
X107051368Y-72248500D01*
X108848632Y-72248500D01*
X108848638Y-72248500D01*
X108848645Y-72248499D01*
X108848649Y-72248499D01*
X108909196Y-72241990D01*
X108909199Y-72241989D01*
X108909201Y-72241989D01*
X109046204Y-72190889D01*
X109067828Y-72174702D01*
X109163261Y-72103261D01*
X109250886Y-71986208D01*
X109250885Y-71986208D01*
X109250889Y-71986204D01*
X109294999Y-71867939D01*
X109337545Y-71811107D01*
X109404066Y-71786296D01*
X109473440Y-71801388D01*
X109505753Y-71826635D01*
X109566760Y-71892906D01*
X109566762Y-71892908D01*
X109608653Y-71925513D01*
X109744424Y-72031189D01*
X109942426Y-72138342D01*
X109942427Y-72138342D01*
X109942428Y-72138343D01*
X110048301Y-72174689D01*
X110155365Y-72211444D01*
X110377431Y-72248500D01*
X110377435Y-72248500D01*
X110602565Y-72248500D01*
X110602569Y-72248500D01*
X110824635Y-72211444D01*
X111037574Y-72138342D01*
X111235576Y-72031189D01*
X111413240Y-71892906D01*
X111565722Y-71727268D01*
X111688860Y-71538791D01*
X111779296Y-71332616D01*
X111834564Y-71114368D01*
X111853156Y-70890000D01*
X111834564Y-70665632D01*
X111815478Y-70590262D01*
X111779297Y-70447387D01*
X111779296Y-70447386D01*
X111779296Y-70447384D01*
X111688860Y-70241209D01*
X111658638Y-70194951D01*
X111565724Y-70052734D01*
X111565720Y-70052729D01*
X111436220Y-69912057D01*
X111413240Y-69887094D01*
X111413239Y-69887093D01*
X111413237Y-69887091D01*
X111293367Y-69793792D01*
X111235576Y-69748811D01*
X111037574Y-69641658D01*
X111037572Y-69641657D01*
X111037571Y-69641656D01*
X110824639Y-69568557D01*
X110824630Y-69568555D01*
X110755161Y-69556963D01*
X110602569Y-69531500D01*
X110377431Y-69531500D01*
X110229211Y-69556233D01*
X110155369Y-69568555D01*
X110155360Y-69568557D01*
X109942428Y-69641656D01*
X109942426Y-69641658D01*
X109744432Y-69748807D01*
X109744426Y-69748810D01*
X109744424Y-69748811D01*
X109566762Y-69887091D01*
X109505754Y-69953363D01*
X109444901Y-69989933D01*
X109373936Y-69987798D01*
X109315391Y-69947636D01*
X109294999Y-69912057D01*
X109253798Y-69801595D01*
X109250889Y-69793796D01*
X109250888Y-69793794D01*
X109250887Y-69793792D01*
X109163261Y-69676738D01*
X109046207Y-69589112D01*
X109046202Y-69589110D01*
X108909204Y-69538011D01*
X108909196Y-69538009D01*
X108848649Y-69531500D01*
X108848638Y-69531500D01*
X107051362Y-69531500D01*
X107051350Y-69531500D01*
X106990803Y-69538009D01*
X106990802Y-69538010D01*
X106990799Y-69538010D01*
X106990799Y-69538011D01*
X106871338Y-69582568D01*
X106800523Y-69587633D01*
X106738213Y-69553609D01*
X100905705Y-63721100D01*
X100871679Y-63658788D01*
X100868800Y-63632005D01*
X100868800Y-55407055D01*
X100870549Y-55391214D01*
X100870256Y-55391187D01*
X100871001Y-55383294D01*
X100871002Y-55383291D01*
X100868862Y-55315213D01*
X100868800Y-55311254D01*
X100868800Y-55283349D01*
X100868800Y-55283344D01*
X100868292Y-55279330D01*
X100867361Y-55267497D01*
X100865973Y-55223310D01*
X100860322Y-55203863D01*
X100856312Y-55184500D01*
X100854421Y-55169526D01*
X100853774Y-55164403D01*
X100837495Y-55123290D01*
X100833653Y-55112069D01*
X100821318Y-55069607D01*
X100811006Y-55052170D01*
X100802310Y-55034421D01*
X100794852Y-55015583D01*
X100768852Y-54979798D01*
X100762359Y-54969914D01*
X100739842Y-54931838D01*
X100725514Y-54917510D01*
X100712684Y-54902489D01*
X100700772Y-54886093D01*
X100700769Y-54886091D01*
X100700769Y-54886090D01*
X100666694Y-54857900D01*
X100657916Y-54849912D01*
X100386375Y-54578371D01*
X100352349Y-54516059D01*
X100357414Y-54445244D01*
X100357973Y-54444018D01*
X100360886Y-54436207D01*
X100360889Y-54436204D01*
X100411989Y-54299201D01*
X100412685Y-54292732D01*
X100418499Y-54238649D01*
X100418500Y-54238632D01*
X100418500Y-52441367D01*
X100418499Y-52441350D01*
X100411990Y-52380803D01*
X100411988Y-52380795D01*
X100357740Y-52235353D01*
X100361175Y-52234071D01*
X100349790Y-52181736D01*
X100374600Y-52115216D01*
X100386367Y-52101635D01*
X100623957Y-51864045D01*
X100636392Y-51854084D01*
X100636205Y-51853857D01*
X100642316Y-51848801D01*
X100642315Y-51848801D01*
X100642318Y-51848800D01*
X100688976Y-51799112D01*
X100691667Y-51796335D01*
X100711434Y-51776570D01*
X100713917Y-51773367D01*
X100721608Y-51764362D01*
X100751886Y-51732121D01*
X100761645Y-51714367D01*
X100772497Y-51697846D01*
X100784913Y-51681841D01*
X100802468Y-51641270D01*
X100807692Y-51630608D01*
X100828995Y-51591860D01*
X100834033Y-51572235D01*
X100840438Y-51553530D01*
X100848481Y-51534945D01*
X100855396Y-51491281D01*
X100857804Y-51479652D01*
X100868800Y-51436830D01*
X100868800Y-51416575D01*
X100870351Y-51396863D01*
X100871157Y-51391774D01*
X100873520Y-51376857D01*
X100869359Y-51332836D01*
X100868800Y-51320979D01*
X100868800Y-42707154D01*
X100870549Y-42691312D01*
X100870256Y-42691285D01*
X100871000Y-42683399D01*
X100871002Y-42683392D01*
X100868862Y-42615300D01*
X100868800Y-42611342D01*
X100868800Y-42583450D01*
X100868800Y-42583444D01*
X100868293Y-42579435D01*
X100867362Y-42567606D01*
X100867127Y-42560125D01*
X100865974Y-42523411D01*
X100860320Y-42503952D01*
X100856312Y-42484597D01*
X100853774Y-42464503D01*
X100837495Y-42423387D01*
X100833656Y-42412172D01*
X100832242Y-42407306D01*
X100821319Y-42369707D01*
X100811003Y-42352264D01*
X100802305Y-42334509D01*
X100794852Y-42315683D01*
X100768863Y-42279912D01*
X100762352Y-42270000D01*
X100739842Y-42231938D01*
X100725514Y-42217610D01*
X100712684Y-42202589D01*
X100700772Y-42186193D01*
X100700769Y-42186191D01*
X100700769Y-42186190D01*
X100666694Y-42158000D01*
X100657916Y-42150012D01*
X100386339Y-41878435D01*
X100352313Y-41816123D01*
X100357378Y-41745308D01*
X100357999Y-41743949D01*
X100360886Y-41736207D01*
X100360889Y-41736204D01*
X100411989Y-41599201D01*
X100414118Y-41579405D01*
X100418499Y-41538649D01*
X100418500Y-41538632D01*
X100418500Y-41010894D01*
X100438502Y-40942773D01*
X100492158Y-40896280D01*
X100562432Y-40886176D01*
X100627012Y-40915670D01*
X100633595Y-40921799D01*
X113608795Y-53896999D01*
X113642821Y-53959311D01*
X113645700Y-53986094D01*
X113645700Y-57507346D01*
X113643951Y-57523188D01*
X113644244Y-57523216D01*
X113643498Y-57531107D01*
X113645638Y-57599184D01*
X113645700Y-57603143D01*
X113645700Y-57631051D01*
X113645701Y-57631069D01*
X113646207Y-57635077D01*
X113647137Y-57646896D01*
X113648526Y-57691088D01*
X113648527Y-57691093D01*
X113654177Y-57710539D01*
X113658186Y-57729897D01*
X113660725Y-57749993D01*
X113660726Y-57750000D01*
X113677000Y-57791103D01*
X113680844Y-57802329D01*
X113693182Y-57844793D01*
X113703494Y-57862231D01*
X113712188Y-57879979D01*
X113719644Y-57898809D01*
X113719650Y-57898820D01*
X113745632Y-57934581D01*
X113752149Y-57944501D01*
X113774658Y-57982562D01*
X113774659Y-57982563D01*
X113774661Y-57982566D01*
X113788979Y-57996884D01*
X113801817Y-58011914D01*
X113813726Y-58028304D01*
X113813730Y-58028309D01*
X113847798Y-58056492D01*
X113856578Y-58064482D01*
X115751490Y-59959394D01*
X115785516Y-60021706D01*
X115780451Y-60092521D01*
X115766324Y-60117844D01*
X115767128Y-60118369D01*
X115641141Y-60311206D01*
X115550703Y-60517386D01*
X115550702Y-60517387D01*
X115495437Y-60735624D01*
X115495436Y-60735630D01*
X115495436Y-60735632D01*
X115476844Y-60960000D01*
X115495200Y-61181521D01*
X115495437Y-61184375D01*
X115550702Y-61402612D01*
X115550703Y-61402613D01*
X115550704Y-61402616D01*
X115638677Y-61603176D01*
X115641141Y-61608793D01*
X115764275Y-61797265D01*
X115764279Y-61797270D01*
X115916762Y-61962908D01*
X115920356Y-61965705D01*
X116094424Y-62101189D01*
X116119165Y-62114578D01*
X116127678Y-62119185D01*
X116178069Y-62169197D01*
X116193422Y-62238514D01*
X116168862Y-62305127D01*
X116127683Y-62340811D01*
X116094426Y-62358809D01*
X116094424Y-62358811D01*
X115916762Y-62497091D01*
X115764279Y-62662729D01*
X115764275Y-62662734D01*
X115641141Y-62851206D01*
X115550703Y-63057386D01*
X115550702Y-63057387D01*
X115495437Y-63275624D01*
X115495436Y-63275630D01*
X115495436Y-63275632D01*
X115476844Y-63500000D01*
X115495165Y-63721100D01*
X115495437Y-63724375D01*
X115550702Y-63942612D01*
X115550703Y-63942613D01*
X115550704Y-63942616D01*
X115638167Y-64142014D01*
X115641141Y-64148793D01*
X115764275Y-64337265D01*
X115764278Y-64337268D01*
X115824831Y-64403045D01*
X115907475Y-64492820D01*
X115938896Y-64556485D01*
X115930909Y-64627031D01*
X115886051Y-64682060D01*
X115858807Y-64696213D01*
X115743797Y-64739110D01*
X115743792Y-64739112D01*
X115626738Y-64826738D01*
X115539112Y-64943792D01*
X115539110Y-64943797D01*
X115488011Y-65080795D01*
X115488009Y-65080803D01*
X115481500Y-65141350D01*
X115481500Y-66938649D01*
X115488009Y-66999196D01*
X115488011Y-66999204D01*
X115539110Y-67136202D01*
X115539112Y-67136207D01*
X115626738Y-67253261D01*
X115743791Y-67340886D01*
X115743792Y-67340886D01*
X115743796Y-67340889D01*
X115858810Y-67383787D01*
X115915642Y-67426332D01*
X115940453Y-67492852D01*
X115925362Y-67562226D01*
X115907475Y-67587179D01*
X115764280Y-67742729D01*
X115764275Y-67742734D01*
X115641141Y-67931206D01*
X115550703Y-68137386D01*
X115550702Y-68137387D01*
X115495437Y-68355624D01*
X115495436Y-68355630D01*
X115495436Y-68355632D01*
X115476844Y-68580000D01*
X115489087Y-68727753D01*
X115495437Y-68804375D01*
X115550702Y-69022612D01*
X115550703Y-69022613D01*
X115550704Y-69022616D01*
X115582899Y-69096014D01*
X115641141Y-69228793D01*
X115764275Y-69417265D01*
X115764279Y-69417270D01*
X115916762Y-69582908D01*
X115944393Y-69604414D01*
X116094424Y-69721189D01*
X116094430Y-69721192D01*
X116127678Y-69739185D01*
X116178069Y-69789197D01*
X116193422Y-69858514D01*
X116168862Y-69925127D01*
X116127683Y-69960811D01*
X116094426Y-69978809D01*
X116094424Y-69978811D01*
X115916762Y-70117091D01*
X115764279Y-70282729D01*
X115764275Y-70282734D01*
X115641141Y-70471206D01*
X115550703Y-70677386D01*
X115550702Y-70677387D01*
X115495437Y-70895624D01*
X115495436Y-70895630D01*
X115495436Y-70895632D01*
X115476844Y-71120000D01*
X115494462Y-71332616D01*
X115495437Y-71344375D01*
X115550702Y-71562612D01*
X115550703Y-71562613D01*
X115550704Y-71562616D01*
X115629712Y-71742738D01*
X115641141Y-71768793D01*
X115764275Y-71957265D01*
X115764279Y-71957270D01*
X115916762Y-72122908D01*
X115946206Y-72145825D01*
X116094424Y-72261189D01*
X116292426Y-72368342D01*
X116292427Y-72368342D01*
X116292428Y-72368343D01*
X116383949Y-72399762D01*
X116505365Y-72441444D01*
X116727431Y-72478500D01*
X116727435Y-72478500D01*
X116952565Y-72478500D01*
X116952569Y-72478500D01*
X117174635Y-72441444D01*
X117387574Y-72368342D01*
X117585576Y-72261189D01*
X117763240Y-72122906D01*
X117915722Y-71957268D01*
X118038860Y-71768791D01*
X118129296Y-71562616D01*
X118184564Y-71344368D01*
X118203156Y-71120000D01*
X118184564Y-70895632D01*
X118181117Y-70882019D01*
X118129297Y-70677387D01*
X118129296Y-70677386D01*
X118129296Y-70677384D01*
X118038860Y-70471209D01*
X117989005Y-70394900D01*
X117912872Y-70278369D01*
X117914728Y-70277155D01*
X117892115Y-70219830D01*
X117905905Y-70150186D01*
X117928506Y-70119397D01*
X119309960Y-68737943D01*
X119322398Y-68727980D01*
X119322210Y-68727753D01*
X119328316Y-68722701D01*
X119328315Y-68722701D01*
X119328318Y-68722700D01*
X119374962Y-68673027D01*
X119377652Y-68670251D01*
X119397435Y-68650470D01*
X119399914Y-68647273D01*
X119407611Y-68638259D01*
X119437886Y-68606021D01*
X119447646Y-68588265D01*
X119458495Y-68571750D01*
X119470914Y-68555741D01*
X119488479Y-68515146D01*
X119493684Y-68504521D01*
X119514995Y-68465760D01*
X119520033Y-68446134D01*
X119526437Y-68427432D01*
X119534480Y-68408847D01*
X119534479Y-68408847D01*
X119534481Y-68408845D01*
X119541396Y-68365181D01*
X119543804Y-68353552D01*
X119554800Y-68310730D01*
X119554800Y-68290475D01*
X119556351Y-68270763D01*
X119559520Y-68250757D01*
X119555359Y-68206736D01*
X119554800Y-68194879D01*
X119554800Y-36004154D01*
X119556549Y-35988312D01*
X119556256Y-35988285D01*
X119557000Y-35980399D01*
X119557002Y-35980392D01*
X119554862Y-35912300D01*
X119554800Y-35908342D01*
X119554800Y-35880450D01*
X119554800Y-35880444D01*
X119554293Y-35876435D01*
X119553362Y-35864606D01*
X119551974Y-35820411D01*
X119546317Y-35800942D01*
X119542312Y-35781598D01*
X119539774Y-35761503D01*
X119523496Y-35720392D01*
X119519656Y-35709177D01*
X119507318Y-35666707D01*
X119497006Y-35649270D01*
X119488310Y-35631521D01*
X119480852Y-35612683D01*
X119454852Y-35576898D01*
X119448359Y-35567014D01*
X119425842Y-35528938D01*
X119411514Y-35514610D01*
X119398684Y-35499589D01*
X119386772Y-35483193D01*
X119386769Y-35483191D01*
X119386769Y-35483190D01*
X119352700Y-35455005D01*
X119343921Y-35447017D01*
X119136104Y-35239199D01*
X119102079Y-35176887D01*
X119099200Y-35150104D01*
X119099200Y-27489449D01*
X119100949Y-27473612D01*
X119100655Y-27473585D01*
X119101401Y-27465692D01*
X119099262Y-27397631D01*
X119099200Y-27393673D01*
X119099200Y-27365751D01*
X119099200Y-27365744D01*
X119098691Y-27361723D01*
X119097761Y-27349896D01*
X119097712Y-27348323D01*
X119096373Y-27305710D01*
X119090722Y-27286263D01*
X119086712Y-27266900D01*
X119086335Y-27263913D01*
X119084174Y-27246803D01*
X119067892Y-27205681D01*
X119064058Y-27194482D01*
X119051718Y-27152006D01*
X119041400Y-27134561D01*
X119032705Y-27116809D01*
X119025253Y-27097985D01*
X119025250Y-27097979D01*
X118999264Y-27062213D01*
X118992745Y-27052289D01*
X118992521Y-27051911D01*
X118972234Y-27017605D01*
X118970241Y-27014235D01*
X118955918Y-26999912D01*
X118943077Y-26984879D01*
X118931171Y-26968492D01*
X118897105Y-26940310D01*
X118888326Y-26932321D01*
X118332044Y-26376039D01*
X118322079Y-26363601D01*
X118321852Y-26363790D01*
X118316801Y-26357684D01*
X118316800Y-26357682D01*
X118308800Y-26350170D01*
X118267149Y-26311057D01*
X118264305Y-26308300D01*
X118244577Y-26288571D01*
X118244571Y-26288566D01*
X118241367Y-26286080D01*
X118232356Y-26278383D01*
X118200125Y-26248117D01*
X118200119Y-26248113D01*
X118182363Y-26238351D01*
X118165847Y-26227502D01*
X118149841Y-26215086D01*
X118111468Y-26198481D01*
X118056896Y-26153073D01*
X118035535Y-26085366D01*
X118046122Y-26032234D01*
X118129296Y-25842616D01*
X118184564Y-25624368D01*
X118203156Y-25400000D01*
X118187724Y-25213765D01*
X121589788Y-25213765D01*
X121619412Y-25483014D01*
X121687928Y-25745090D01*
X121793869Y-25994389D01*
X121827072Y-26048793D01*
X121934982Y-26225610D01*
X122108255Y-26433820D01*
X122108257Y-26433822D01*
X122108259Y-26433824D01*
X122185556Y-26503082D01*
X122309998Y-26614582D01*
X122535910Y-26764044D01*
X122781176Y-26879020D01*
X123040569Y-26957060D01*
X123040572Y-26957060D01*
X123040574Y-26957061D01*
X123308557Y-26996500D01*
X123308561Y-26996500D01*
X123511631Y-26996500D01*
X123714156Y-26981677D01*
X123714160Y-26981676D01*
X123714161Y-26981676D01*
X123899858Y-26940310D01*
X123978553Y-26922780D01*
X124231558Y-26826014D01*
X124467777Y-26693441D01*
X124682177Y-26527888D01*
X124870186Y-26332881D01*
X125027799Y-26112579D01*
X125029853Y-26108585D01*
X125151656Y-25871675D01*
X125151657Y-25871672D01*
X125170785Y-25815603D01*
X125239118Y-25615305D01*
X125269256Y-25452139D01*
X125288318Y-25348941D01*
X125288319Y-25348930D01*
X125289657Y-25312313D01*
X125298212Y-25078235D01*
X125282482Y-24935270D01*
X125268587Y-24808985D01*
X125209387Y-24582542D01*
X125200072Y-24546912D01*
X125198611Y-24543475D01*
X125094130Y-24297610D01*
X125082226Y-24278105D01*
X124953018Y-24066390D01*
X124779745Y-23858180D01*
X124779741Y-23858177D01*
X124779740Y-23858175D01*
X124578012Y-23677427D01*
X124578002Y-23677418D01*
X124352090Y-23527956D01*
X124106824Y-23412980D01*
X123912120Y-23354402D01*
X123847425Y-23334938D01*
X123579442Y-23295500D01*
X123579439Y-23295500D01*
X123376369Y-23295500D01*
X123173839Y-23310323D01*
X123173838Y-23310323D01*
X122909456Y-23369217D01*
X122909441Y-23369222D01*
X122656441Y-23465986D01*
X122420229Y-23598555D01*
X122420225Y-23598557D01*
X122310274Y-23683458D01*
X122248502Y-23731157D01*
X122205818Y-23764116D01*
X122017815Y-23959117D01*
X122017810Y-23959123D01*
X121860203Y-24179417D01*
X121860196Y-24179427D01*
X121736343Y-24420324D01*
X121736342Y-24420327D01*
X121648883Y-24676689D01*
X121648880Y-24676702D01*
X121599681Y-24943058D01*
X121599680Y-24943069D01*
X121589788Y-25213765D01*
X118187724Y-25213765D01*
X118184564Y-25175632D01*
X118169869Y-25117601D01*
X118129297Y-24957387D01*
X118129296Y-24957386D01*
X118129296Y-24957384D01*
X118038860Y-24751209D01*
X118017167Y-24718005D01*
X117915724Y-24562734D01*
X117915720Y-24562729D01*
X117774938Y-24409801D01*
X117763240Y-24397094D01*
X117763239Y-24397093D01*
X117763237Y-24397091D01*
X117642128Y-24302828D01*
X117585576Y-24258811D01*
X117551792Y-24240528D01*
X117501402Y-24190516D01*
X117486050Y-24121199D01*
X117510610Y-24054586D01*
X117551793Y-24018901D01*
X117585300Y-24000767D01*
X117585301Y-24000767D01*
X117762902Y-23862534D01*
X117915325Y-23696958D01*
X118038419Y-23508548D01*
X118128820Y-23302456D01*
X118128823Y-23302449D01*
X118176544Y-23114000D01*
X117283001Y-23114000D01*
X117308682Y-23074040D01*
X117350000Y-22933327D01*
X117350000Y-22786673D01*
X117308682Y-22645960D01*
X117283001Y-22606000D01*
X118176544Y-22606000D01*
X118176544Y-22605999D01*
X118128823Y-22417550D01*
X118128820Y-22417543D01*
X118038419Y-22211451D01*
X117915325Y-22023041D01*
X117762902Y-21857465D01*
X117709540Y-21815932D01*
X117668069Y-21758307D01*
X117664335Y-21687409D01*
X117699525Y-21625747D01*
X117762465Y-21592898D01*
X117786931Y-21590500D01*
X125725045Y-21590500D01*
X125734929Y-21590888D01*
G37*
%TD.AperFunction*%
%TA.AperFunction,Conductor*%
G36*
X87050930Y-62508002D02*
G01*
X87071904Y-62524905D01*
X87084999Y-62538000D01*
X87883001Y-62538000D01*
X87896096Y-62524905D01*
X87958408Y-62490879D01*
X87985191Y-62488000D01*
X88808000Y-62488000D01*
X88876121Y-62508002D01*
X88922614Y-62561658D01*
X88934000Y-62614000D01*
X88934000Y-62650005D01*
X88913998Y-62718126D01*
X88897095Y-62739100D01*
X88685100Y-62951095D01*
X88622788Y-62985121D01*
X88596005Y-62988000D01*
X87985191Y-62988000D01*
X87917070Y-62967998D01*
X87896096Y-62951095D01*
X87883001Y-62938000D01*
X87084999Y-62938000D01*
X87071904Y-62951095D01*
X87009592Y-62985121D01*
X86982809Y-62988000D01*
X86160000Y-62988000D01*
X86091879Y-62967998D01*
X86045386Y-62914342D01*
X86034000Y-62862000D01*
X86034000Y-62819094D01*
X86054002Y-62750973D01*
X86070905Y-62729999D01*
X86275999Y-62524905D01*
X86338311Y-62490879D01*
X86365094Y-62488000D01*
X86982809Y-62488000D01*
X87050930Y-62508002D01*
G37*
%TD.AperFunction*%
%TA.AperFunction,Conductor*%
G36*
X78102121Y-62242402D02*
G01*
X78148614Y-62296058D01*
X78160000Y-62348400D01*
X78160000Y-62488000D01*
X79616809Y-62488000D01*
X79684930Y-62508002D01*
X79705904Y-62524905D01*
X79718999Y-62538000D01*
X80517001Y-62538000D01*
X80530096Y-62524905D01*
X80592408Y-62490879D01*
X80619191Y-62488000D01*
X81133800Y-62488000D01*
X81201921Y-62508002D01*
X81248414Y-62561658D01*
X81259800Y-62614000D01*
X81259800Y-62712200D01*
X81239798Y-62780321D01*
X81186142Y-62826814D01*
X81133800Y-62838200D01*
X76874320Y-62838200D01*
X76806199Y-62818198D01*
X76759706Y-62764542D01*
X76749602Y-62694268D01*
X76779096Y-62629688D01*
X76810176Y-62603749D01*
X76825330Y-62594786D01*
X76832229Y-62590705D01*
X76849980Y-62582009D01*
X76868817Y-62574552D01*
X76904592Y-62548558D01*
X76914498Y-62542051D01*
X76952562Y-62519542D01*
X76966885Y-62505218D01*
X76981924Y-62492374D01*
X76983982Y-62490879D01*
X76998307Y-62480472D01*
X77026499Y-62446392D01*
X77034467Y-62437635D01*
X77212800Y-62259304D01*
X77275112Y-62225279D01*
X77301895Y-62222400D01*
X78034000Y-62222400D01*
X78102121Y-62242402D01*
G37*
%TD.AperFunction*%
%TA.AperFunction,Conductor*%
G36*
X91537001Y-55391791D02*
G01*
X91595145Y-55432530D01*
X91622034Y-55498238D01*
X91622700Y-55511172D01*
X91622700Y-59961304D01*
X91602698Y-60029425D01*
X91585795Y-60050399D01*
X89555641Y-62080552D01*
X89493329Y-62114578D01*
X89422513Y-62109513D01*
X89365678Y-62066966D01*
X89296904Y-61975095D01*
X89248926Y-61939180D01*
X89206379Y-61882345D01*
X89201314Y-61811529D01*
X89235339Y-61749217D01*
X89248922Y-61737446D01*
X89297261Y-61701261D01*
X89384889Y-61584204D01*
X89435989Y-61447201D01*
X89437199Y-61435953D01*
X89442499Y-61386649D01*
X89442500Y-61386632D01*
X89442500Y-60489367D01*
X89442499Y-60489350D01*
X89435990Y-60428803D01*
X89435989Y-60428799D01*
X89407578Y-60352629D01*
X89402513Y-60281817D01*
X89416516Y-60245597D01*
X89419427Y-60240556D01*
X89478442Y-60058928D01*
X89498404Y-59869000D01*
X89478442Y-59679072D01*
X89419427Y-59497444D01*
X89323940Y-59332056D01*
X89323938Y-59332054D01*
X89323934Y-59332048D01*
X89196155Y-59190135D01*
X89041652Y-59077882D01*
X88867188Y-59000206D01*
X88680387Y-58960500D01*
X88624495Y-58960500D01*
X88556374Y-58940498D01*
X88535399Y-58923595D01*
X88309198Y-58697393D01*
X88275173Y-58635081D01*
X88280238Y-58564265D01*
X88309197Y-58519205D01*
X91359557Y-55468845D01*
X91371992Y-55458884D01*
X91371805Y-55458657D01*
X91377916Y-55453601D01*
X91377915Y-55453601D01*
X91377918Y-55453600D01*
X91404849Y-55424920D01*
X91466061Y-55388954D01*
X91537001Y-55391791D01*
G37*
%TD.AperFunction*%
%TA.AperFunction,Conductor*%
G36*
X90312903Y-37908266D02*
G01*
X90357966Y-37937227D01*
X90367189Y-37946450D01*
X90367196Y-37946455D01*
X90510394Y-38031143D01*
X90510397Y-38031143D01*
X90510399Y-38031145D01*
X90670169Y-38077562D01*
X90707488Y-38080499D01*
X90707489Y-38080500D01*
X90707498Y-38080500D01*
X91221906Y-38080500D01*
X91290027Y-38100502D01*
X91311001Y-38117405D01*
X97948300Y-44754705D01*
X97982326Y-44817017D01*
X97977261Y-44887832D01*
X97964688Y-44912715D01*
X97861141Y-45071206D01*
X97770703Y-45277386D01*
X97770702Y-45277387D01*
X97715437Y-45495624D01*
X97715436Y-45495630D01*
X97715436Y-45495632D01*
X97696844Y-45720000D01*
X97712185Y-45905137D01*
X97715437Y-45944375D01*
X97770702Y-46162612D01*
X97770703Y-46162613D01*
X97770704Y-46162616D01*
X97861140Y-46368791D01*
X97861141Y-46368793D01*
X97984275Y-46557265D01*
X97984279Y-46557270D01*
X98136762Y-46722908D01*
X98177682Y-46754757D01*
X98314424Y-46861189D01*
X98347680Y-46879186D01*
X98398071Y-46929200D01*
X98413423Y-46998516D01*
X98388862Y-47065129D01*
X98347680Y-47100813D01*
X98314426Y-47118810D01*
X98314424Y-47118811D01*
X98136762Y-47257091D01*
X97984279Y-47422729D01*
X97984275Y-47422734D01*
X97861141Y-47611206D01*
X97770703Y-47817386D01*
X97770702Y-47817387D01*
X97715437Y-48035624D01*
X97715436Y-48035630D01*
X97715436Y-48035632D01*
X97696844Y-48260000D01*
X97714876Y-48477613D01*
X97715437Y-48484375D01*
X97770702Y-48702612D01*
X97770703Y-48702613D01*
X97770704Y-48702616D01*
X97860280Y-48906831D01*
X97861141Y-48908793D01*
X97987128Y-49101631D01*
X97985276Y-49102840D01*
X98007886Y-49160204D01*
X97994076Y-49229844D01*
X97971489Y-49260604D01*
X94964436Y-52267657D01*
X94952001Y-52277621D01*
X94952189Y-52277848D01*
X94946079Y-52282902D01*
X94899470Y-52332535D01*
X94896720Y-52335373D01*
X94876963Y-52355131D01*
X94874474Y-52358339D01*
X94866788Y-52367336D01*
X94836518Y-52399573D01*
X94836511Y-52399583D01*
X94826751Y-52417335D01*
X94815903Y-52433850D01*
X94803486Y-52449858D01*
X94785924Y-52490440D01*
X94780704Y-52501095D01*
X94759405Y-52539839D01*
X94759403Y-52539844D01*
X94754367Y-52559459D01*
X94747964Y-52578162D01*
X94739919Y-52596752D01*
X94733001Y-52640425D01*
X94730595Y-52652042D01*
X94719600Y-52694868D01*
X94719600Y-52715123D01*
X94718049Y-52734833D01*
X94714880Y-52754842D01*
X94719041Y-52798861D01*
X94719600Y-52810719D01*
X94719600Y-57537205D01*
X94699598Y-57605326D01*
X94682695Y-57626300D01*
X93104795Y-59204200D01*
X93042483Y-59238226D01*
X92971668Y-59233161D01*
X92914832Y-59190614D01*
X92890021Y-59124094D01*
X92889700Y-59115105D01*
X92889700Y-51502524D01*
X92909702Y-51434403D01*
X92922058Y-51418220D01*
X92995240Y-51336944D01*
X93090727Y-51171556D01*
X93149742Y-50989928D01*
X93169704Y-50800000D01*
X93149742Y-50610072D01*
X93090727Y-50428444D01*
X92995240Y-50263056D01*
X92995238Y-50263054D01*
X92995234Y-50263048D01*
X92867455Y-50121135D01*
X92712952Y-50008882D01*
X92538488Y-49931206D01*
X92351687Y-49891500D01*
X92160713Y-49891500D01*
X91973911Y-49931206D01*
X91799447Y-50008882D01*
X91644944Y-50121135D01*
X91517165Y-50263048D01*
X91517158Y-50263058D01*
X91421676Y-50428438D01*
X91421673Y-50428444D01*
X91420812Y-50431094D01*
X91362657Y-50610072D01*
X91342696Y-50800000D01*
X91362657Y-50989927D01*
X91377206Y-51034702D01*
X91421673Y-51171556D01*
X91421676Y-51171561D01*
X91511697Y-51327483D01*
X91517160Y-51336944D01*
X91590337Y-51418215D01*
X91621053Y-51482220D01*
X91622700Y-51502524D01*
X91622700Y-52471472D01*
X91602698Y-52539593D01*
X91549042Y-52586086D01*
X91478768Y-52596190D01*
X91416384Y-52568556D01*
X91402297Y-52556902D01*
X91393518Y-52548913D01*
X91128272Y-52283667D01*
X91094246Y-52221355D01*
X91097763Y-52154939D01*
X91138392Y-52032330D01*
X91138394Y-52032318D01*
X91148999Y-51928516D01*
X91149000Y-51928516D01*
X91149000Y-51882000D01*
X88683000Y-51882000D01*
X88683000Y-51890300D01*
X88662998Y-51958421D01*
X88609342Y-52004914D01*
X88557000Y-52016300D01*
X69933491Y-52016300D01*
X69865370Y-51996298D01*
X69844396Y-51979395D01*
X69813001Y-51948000D01*
X67346999Y-51948000D01*
X67315604Y-51979395D01*
X67253292Y-52013421D01*
X67226509Y-52016300D01*
X64764712Y-52016300D01*
X64713464Y-52005407D01*
X64698188Y-51998606D01*
X64698184Y-51998604D01*
X64583479Y-51974222D01*
X64521006Y-51940494D01*
X64489844Y-51889913D01*
X64481440Y-51864050D01*
X64435527Y-51722744D01*
X64340040Y-51557356D01*
X64266863Y-51476084D01*
X64236146Y-51412076D01*
X64234500Y-51391774D01*
X64234500Y-49428666D01*
X64254502Y-49360545D01*
X64283281Y-49329101D01*
X64285402Y-49327455D01*
X64285407Y-49327453D01*
X64285410Y-49327449D01*
X64286792Y-49326378D01*
X64352879Y-49300436D01*
X64422501Y-49314341D01*
X64441239Y-49326385D01*
X64442100Y-49327052D01*
X64585200Y-49411681D01*
X64744600Y-49457991D01*
X64744600Y-47800000D01*
X64764602Y-47731879D01*
X64818258Y-47685386D01*
X64870600Y-47674000D01*
X65126600Y-47674000D01*
X65194721Y-47694002D01*
X65241214Y-47747658D01*
X65252600Y-47800000D01*
X65252600Y-49457991D01*
X65411999Y-49411681D01*
X65555102Y-49327051D01*
X65672650Y-49209503D01*
X65672651Y-49209501D01*
X65757281Y-49066401D01*
X65803665Y-48906749D01*
X65806599Y-48869456D01*
X65806599Y-48103376D01*
X65826601Y-48035255D01*
X65880257Y-47988762D01*
X65950531Y-47978658D01*
X66006660Y-48001440D01*
X66049848Y-48032818D01*
X66224312Y-48110494D01*
X66411113Y-48150200D01*
X66467006Y-48150200D01*
X66535127Y-48170202D01*
X66556101Y-48187105D01*
X68212301Y-49843305D01*
X68246327Y-49905617D01*
X68241262Y-49976432D01*
X68198715Y-50033268D01*
X68132195Y-50058079D01*
X68123206Y-50058400D01*
X67768432Y-50058400D01*
X67700311Y-50038398D01*
X67653818Y-49984742D01*
X67643122Y-49945572D01*
X67640042Y-49916272D01*
X67627898Y-49878897D01*
X67581027Y-49734644D01*
X67485540Y-49569256D01*
X67485538Y-49569254D01*
X67485534Y-49569248D01*
X67357755Y-49427335D01*
X67203252Y-49315082D01*
X67028788Y-49237406D01*
X66841987Y-49197700D01*
X66651013Y-49197700D01*
X66464211Y-49237406D01*
X66289747Y-49315082D01*
X66135244Y-49427335D01*
X66007465Y-49569248D01*
X66007458Y-49569258D01*
X65911976Y-49734638D01*
X65911973Y-49734644D01*
X65903750Y-49759951D01*
X65852957Y-49916272D01*
X65832996Y-50106200D01*
X65852957Y-50296127D01*
X65853295Y-50297166D01*
X65911973Y-50477756D01*
X65911976Y-50477761D01*
X66007458Y-50643141D01*
X66007465Y-50643151D01*
X66135244Y-50785064D01*
X66178717Y-50816649D01*
X66289748Y-50897318D01*
X66464212Y-50974994D01*
X66651013Y-51014700D01*
X66706905Y-51014700D01*
X66775026Y-51034702D01*
X66796000Y-51051605D01*
X66824954Y-51080559D01*
X66834919Y-51092996D01*
X66835146Y-51092809D01*
X66840200Y-51098918D01*
X66866165Y-51123301D01*
X66889850Y-51145542D01*
X66892694Y-51148299D01*
X66912423Y-51168029D01*
X66912424Y-51168030D01*
X66912428Y-51168033D01*
X66912430Y-51168035D01*
X66915635Y-51170521D01*
X66924642Y-51178214D01*
X66956879Y-51208486D01*
X66974628Y-51218243D01*
X66991153Y-51229098D01*
X67007159Y-51241514D01*
X67047742Y-51259075D01*
X67058393Y-51264293D01*
X67097140Y-51285595D01*
X67097148Y-51285597D01*
X67116758Y-51290632D01*
X67135467Y-51297037D01*
X67154055Y-51305081D01*
X67197730Y-51311998D01*
X67209341Y-51314402D01*
X67228601Y-51319348D01*
X67252339Y-51325444D01*
X67313344Y-51361760D01*
X67345031Y-51425294D01*
X67346271Y-51439272D01*
X67346999Y-51440000D01*
X69813001Y-51440000D01*
X69817738Y-51435262D01*
X69833002Y-51383279D01*
X69843711Y-51374000D01*
X88683000Y-51374000D01*
X89662000Y-51374000D01*
X89662000Y-50620000D01*
X90170000Y-50620000D01*
X90170000Y-51374000D01*
X91149000Y-51374000D01*
X91149000Y-51327483D01*
X91138394Y-51223681D01*
X91138393Y-51223678D01*
X91082657Y-51055474D01*
X90989634Y-50904660D01*
X90989629Y-50904654D01*
X90864345Y-50779370D01*
X90864339Y-50779365D01*
X90713525Y-50686342D01*
X90545321Y-50630606D01*
X90545318Y-50630605D01*
X90441516Y-50620000D01*
X90170000Y-50620000D01*
X89662000Y-50620000D01*
X89390483Y-50620000D01*
X89286681Y-50630605D01*
X89286678Y-50630606D01*
X89118474Y-50686342D01*
X88967660Y-50779365D01*
X88967654Y-50779370D01*
X88842370Y-50904654D01*
X88842365Y-50904660D01*
X88749342Y-51055474D01*
X88693606Y-51223678D01*
X88693605Y-51223681D01*
X88683000Y-51327483D01*
X88683000Y-51374000D01*
X69843711Y-51374000D01*
X69886658Y-51336786D01*
X69939000Y-51325400D01*
X82825047Y-51325400D01*
X82840888Y-51327149D01*
X82840916Y-51326856D01*
X82848802Y-51327600D01*
X82848809Y-51327602D01*
X82916886Y-51325462D01*
X82920845Y-51325400D01*
X82948751Y-51325400D01*
X82948756Y-51325400D01*
X82952767Y-51324892D01*
X82964599Y-51323961D01*
X83008789Y-51322573D01*
X83028247Y-51316919D01*
X83047594Y-51312913D01*
X83067697Y-51310374D01*
X83108810Y-51294095D01*
X83120030Y-51290253D01*
X83144813Y-51283054D01*
X83162491Y-51277919D01*
X83162495Y-51277917D01*
X83179926Y-51267608D01*
X83197680Y-51258909D01*
X83216517Y-51251452D01*
X83252292Y-51225458D01*
X83262198Y-51218951D01*
X83300262Y-51196442D01*
X83314585Y-51182118D01*
X83329624Y-51169274D01*
X83346007Y-51157372D01*
X83374203Y-51123286D01*
X83382162Y-51114540D01*
X84998301Y-49498402D01*
X85060611Y-49464379D01*
X85087394Y-49461500D01*
X85382711Y-49461500D01*
X85382711Y-49461499D01*
X85420031Y-49458562D01*
X85579801Y-49412145D01*
X85579803Y-49412143D01*
X85579805Y-49412143D01*
X85672708Y-49357200D01*
X85723007Y-49327453D01*
X85723015Y-49327444D01*
X85724376Y-49326390D01*
X85725654Y-49325887D01*
X85729831Y-49323418D01*
X85730229Y-49324091D01*
X85790459Y-49300437D01*
X85860083Y-49314332D01*
X85878839Y-49326385D01*
X85879700Y-49327052D01*
X86022800Y-49411681D01*
X86182200Y-49457991D01*
X86182200Y-48182000D01*
X86690200Y-48182000D01*
X86690200Y-49457991D01*
X86849599Y-49411681D01*
X86992702Y-49327051D01*
X87110250Y-49209503D01*
X87110251Y-49209501D01*
X87194881Y-49066401D01*
X87241265Y-48906749D01*
X87244200Y-48869456D01*
X87244200Y-48182000D01*
X86690200Y-48182000D01*
X86182200Y-48182000D01*
X86182200Y-46398007D01*
X86690200Y-46398007D01*
X86690200Y-47674000D01*
X87244199Y-47674000D01*
X87244199Y-46986543D01*
X87241265Y-46949249D01*
X87194881Y-46789599D01*
X87110251Y-46646498D01*
X87110250Y-46646496D01*
X86992703Y-46528949D01*
X86992701Y-46528948D01*
X86849601Y-46444318D01*
X86690200Y-46398007D01*
X86182200Y-46398007D01*
X86022798Y-46444318D01*
X85879699Y-46528946D01*
X85878839Y-46529614D01*
X85878040Y-46529927D01*
X85872879Y-46532980D01*
X85872386Y-46532147D01*
X85812754Y-46555562D01*
X85743131Y-46541663D01*
X85724384Y-46529615D01*
X85723003Y-46528544D01*
X85579805Y-46443856D01*
X85420029Y-46397437D01*
X85382711Y-46394500D01*
X85382702Y-46394500D01*
X84949698Y-46394500D01*
X84949689Y-46394500D01*
X84912371Y-46397437D01*
X84912370Y-46397437D01*
X84752594Y-46443856D01*
X84609397Y-46528543D01*
X84608425Y-46529298D01*
X84607523Y-46529652D01*
X84602569Y-46532582D01*
X84602096Y-46531782D01*
X84542339Y-46555244D01*
X84472717Y-46541342D01*
X84453975Y-46529298D01*
X84453002Y-46528543D01*
X84309805Y-46443856D01*
X84150029Y-46397437D01*
X84112711Y-46394500D01*
X84112702Y-46394500D01*
X83679698Y-46394500D01*
X83679689Y-46394500D01*
X83642371Y-46397437D01*
X83642370Y-46397437D01*
X83482594Y-46443856D01*
X83339397Y-46528543D01*
X83338425Y-46529298D01*
X83337523Y-46529652D01*
X83332569Y-46532582D01*
X83332096Y-46531782D01*
X83272339Y-46555244D01*
X83202717Y-46541342D01*
X83183975Y-46529298D01*
X83183002Y-46528543D01*
X83039805Y-46443856D01*
X82880029Y-46397437D01*
X82842711Y-46394500D01*
X82842702Y-46394500D01*
X82409698Y-46394500D01*
X82409689Y-46394500D01*
X82372371Y-46397437D01*
X82372370Y-46397437D01*
X82212594Y-46443856D01*
X82069397Y-46528543D01*
X82068425Y-46529298D01*
X82067523Y-46529652D01*
X82062569Y-46532582D01*
X82062096Y-46531782D01*
X82002339Y-46555244D01*
X81932717Y-46541342D01*
X81913975Y-46529298D01*
X81913005Y-46528545D01*
X81848882Y-46490623D01*
X81800430Y-46438730D01*
X81787725Y-46368880D01*
X81814801Y-46303249D01*
X81823918Y-46293084D01*
X90179778Y-37937225D01*
X90242088Y-37903201D01*
X90312903Y-37908266D01*
G37*
%TD.AperFunction*%
%TA.AperFunction,Conductor*%
G36*
X51247957Y-45640056D02*
G01*
X51298057Y-45690361D01*
X51304667Y-45704831D01*
X51401129Y-45905137D01*
X51401133Y-45905144D01*
X51531112Y-46084045D01*
X51574334Y-46125369D01*
X51609749Y-46186902D01*
X51606275Y-46257813D01*
X51576356Y-46305537D01*
X51127136Y-46754757D01*
X51114701Y-46764721D01*
X51114889Y-46764948D01*
X51108779Y-46770002D01*
X51062170Y-46819635D01*
X51059420Y-46822473D01*
X51039663Y-46842231D01*
X51037174Y-46845439D01*
X51029488Y-46854436D01*
X50999218Y-46886673D01*
X50999211Y-46886683D01*
X50989451Y-46904435D01*
X50978603Y-46920950D01*
X50966186Y-46936958D01*
X50948624Y-46977540D01*
X50943404Y-46988195D01*
X50922105Y-47026939D01*
X50922103Y-47026944D01*
X50917067Y-47046559D01*
X50910664Y-47065262D01*
X50902619Y-47083852D01*
X50895701Y-47127525D01*
X50893295Y-47139142D01*
X50882300Y-47181968D01*
X50882300Y-47202223D01*
X50880749Y-47221933D01*
X50877580Y-47241942D01*
X50881741Y-47285961D01*
X50882300Y-47297819D01*
X50882300Y-48792204D01*
X50862298Y-48860325D01*
X50845395Y-48881299D01*
X48805019Y-50921674D01*
X48742707Y-50955700D01*
X48671891Y-50950635D01*
X48615056Y-50908088D01*
X48608683Y-50898726D01*
X48571634Y-50838660D01*
X48571629Y-50838654D01*
X48446345Y-50713370D01*
X48446339Y-50713365D01*
X48295525Y-50620342D01*
X48127321Y-50564606D01*
X48127318Y-50564605D01*
X48023516Y-50554000D01*
X47752000Y-50554000D01*
X47752000Y-51639900D01*
X47731998Y-51708021D01*
X47678342Y-51754514D01*
X47626000Y-51765900D01*
X45202495Y-51765900D01*
X45134374Y-51745898D01*
X45113400Y-51728995D01*
X44692405Y-51308000D01*
X46265000Y-51308000D01*
X47244000Y-51308000D01*
X47244000Y-50554000D01*
X46972483Y-50554000D01*
X46868681Y-50564605D01*
X46868678Y-50564606D01*
X46700474Y-50620342D01*
X46549660Y-50713365D01*
X46549654Y-50713370D01*
X46424370Y-50838654D01*
X46424365Y-50838660D01*
X46331342Y-50989474D01*
X46275606Y-51157678D01*
X46275605Y-51157681D01*
X46265000Y-51261483D01*
X46265000Y-51308000D01*
X44692405Y-51308000D01*
X42992577Y-49608172D01*
X42958551Y-49545860D01*
X42963616Y-49475045D01*
X43006163Y-49418209D01*
X43072683Y-49393398D01*
X43142057Y-49408489D01*
X43145814Y-49410625D01*
X43147600Y-49411681D01*
X43307000Y-49457991D01*
X43307000Y-48182000D01*
X43815000Y-48182000D01*
X43815000Y-49457991D01*
X43974399Y-49411681D01*
X44117502Y-49327051D01*
X44235050Y-49209503D01*
X44235051Y-49209501D01*
X44319681Y-49066401D01*
X44366065Y-48906749D01*
X44369000Y-48869456D01*
X44369000Y-48182000D01*
X43815000Y-48182000D01*
X43307000Y-48182000D01*
X43307000Y-47800000D01*
X43327002Y-47731879D01*
X43380658Y-47685386D01*
X43433000Y-47674000D01*
X44368999Y-47674000D01*
X44368999Y-47335100D01*
X44389001Y-47266979D01*
X44442657Y-47220486D01*
X44494999Y-47209100D01*
X47501747Y-47209100D01*
X47517588Y-47210849D01*
X47517616Y-47210556D01*
X47525502Y-47211300D01*
X47525509Y-47211302D01*
X47593586Y-47209162D01*
X47597545Y-47209100D01*
X47625451Y-47209100D01*
X47625456Y-47209100D01*
X47629467Y-47208592D01*
X47641299Y-47207661D01*
X47685489Y-47206273D01*
X47704947Y-47200619D01*
X47724294Y-47196613D01*
X47744397Y-47194074D01*
X47785510Y-47177795D01*
X47796730Y-47173953D01*
X47821513Y-47166754D01*
X47839191Y-47161619D01*
X47839195Y-47161617D01*
X47856626Y-47151308D01*
X47874380Y-47142609D01*
X47893217Y-47135152D01*
X47928992Y-47109158D01*
X47938898Y-47102651D01*
X47976962Y-47080142D01*
X47991285Y-47065818D01*
X48006324Y-47052974D01*
X48022707Y-47041072D01*
X48050903Y-47006986D01*
X48058872Y-46998230D01*
X48894765Y-46162337D01*
X48957075Y-46128313D01*
X49027890Y-46133378D01*
X49070932Y-46160362D01*
X49150947Y-46236863D01*
X49335498Y-46358685D01*
X49538825Y-46445591D01*
X49538832Y-46445593D01*
X49538838Y-46445596D01*
X49754428Y-46494803D01*
X49975339Y-46504724D01*
X50194472Y-46475040D01*
X50404783Y-46406706D01*
X50599513Y-46301918D01*
X50772402Y-46164043D01*
X50909063Y-46007622D01*
X50917896Y-45997512D01*
X51031307Y-45807693D01*
X51031307Y-45807691D01*
X51031314Y-45807681D01*
X51069382Y-45706246D01*
X51112043Y-45649499D01*
X51178614Y-45624824D01*
X51247957Y-45640056D01*
G37*
%TD.AperFunction*%
%TA.AperFunction,Conductor*%
G36*
X61407957Y-45640056D02*
G01*
X61458057Y-45690361D01*
X61464667Y-45704831D01*
X61561129Y-45905137D01*
X61561133Y-45905144D01*
X61691112Y-46084045D01*
X61691113Y-46084046D01*
X61850947Y-46236863D01*
X61939850Y-46295548D01*
X61985683Y-46349768D01*
X61994926Y-46420161D01*
X61964644Y-46484376D01*
X61934579Y-46509156D01*
X61901794Y-46528545D01*
X61900825Y-46529298D01*
X61899926Y-46529650D01*
X61894972Y-46532581D01*
X61894499Y-46531781D01*
X61834739Y-46555244D01*
X61765117Y-46541342D01*
X61746375Y-46529298D01*
X61745402Y-46528543D01*
X61602205Y-46443856D01*
X61442429Y-46397437D01*
X61405111Y-46394500D01*
X61405102Y-46394500D01*
X61003506Y-46394500D01*
X60935385Y-46374498D01*
X60888892Y-46320842D01*
X60878788Y-46250568D01*
X60908282Y-46185988D01*
X60924946Y-46169989D01*
X60925016Y-46169932D01*
X60932402Y-46164043D01*
X61069063Y-46007622D01*
X61077896Y-45997512D01*
X61191307Y-45807693D01*
X61191307Y-45807691D01*
X61191314Y-45807681D01*
X61229382Y-45706246D01*
X61272043Y-45649499D01*
X61338614Y-45624824D01*
X61407957Y-45640056D01*
G37*
%TD.AperFunction*%
%TA.AperFunction,Conductor*%
G36*
X28309703Y-36949566D02*
G01*
X28354766Y-36978527D01*
X28372689Y-36996450D01*
X28372696Y-36996455D01*
X28515894Y-37081143D01*
X28515897Y-37081143D01*
X28515899Y-37081145D01*
X28675669Y-37127562D01*
X28712988Y-37130499D01*
X28712989Y-37130500D01*
X28712998Y-37130500D01*
X28731466Y-37130500D01*
X28799587Y-37150502D01*
X28833152Y-37182096D01*
X28833182Y-37182137D01*
X28839949Y-37192401D01*
X28856671Y-37220677D01*
X28862459Y-37230463D01*
X28862462Y-37230467D01*
X28876779Y-37244784D01*
X28889617Y-37259814D01*
X28901526Y-37276204D01*
X28901530Y-37276209D01*
X28935598Y-37304392D01*
X28944378Y-37312382D01*
X30691955Y-39059960D01*
X30701920Y-39072397D01*
X30702147Y-39072210D01*
X30707199Y-39078317D01*
X30756850Y-39124942D01*
X30759694Y-39127699D01*
X30779423Y-39147429D01*
X30779424Y-39147430D01*
X30779428Y-39147433D01*
X30779430Y-39147435D01*
X30782635Y-39149921D01*
X30791642Y-39157614D01*
X30823879Y-39187886D01*
X30841628Y-39197643D01*
X30858153Y-39208498D01*
X30874159Y-39220914D01*
X30914742Y-39238475D01*
X30925393Y-39243693D01*
X30964140Y-39264995D01*
X30964148Y-39264997D01*
X30983758Y-39270032D01*
X31002467Y-39276437D01*
X31021055Y-39284481D01*
X31064730Y-39291398D01*
X31076341Y-39293802D01*
X31119170Y-39304800D01*
X31139424Y-39304800D01*
X31159134Y-39306351D01*
X31161341Y-39306700D01*
X31179143Y-39309520D01*
X31223161Y-39305358D01*
X31235019Y-39304800D01*
X49068406Y-39304800D01*
X49136527Y-39324802D01*
X49157501Y-39341705D01*
X52455577Y-42639782D01*
X52489603Y-42702094D01*
X52491792Y-42715706D01*
X52509157Y-42880927D01*
X52533428Y-42955624D01*
X52568173Y-43062556D01*
X52575822Y-43075805D01*
X52663658Y-43227941D01*
X52663665Y-43227951D01*
X52709940Y-43279345D01*
X52740657Y-43343352D01*
X52731892Y-43413806D01*
X52686428Y-43468337D01*
X52618701Y-43489631D01*
X52610654Y-43489527D01*
X52520652Y-43485485D01*
X52404665Y-43480276D01*
X52404664Y-43480276D01*
X52404661Y-43480276D01*
X52185528Y-43509960D01*
X52185526Y-43509960D01*
X52185523Y-43509961D01*
X51975217Y-43578293D01*
X51780492Y-43683078D01*
X51780485Y-43683082D01*
X51607596Y-43820958D01*
X51462103Y-43987487D01*
X51348692Y-44177306D01*
X51348684Y-44177322D01*
X51310617Y-44278752D01*
X51267955Y-44335500D01*
X51201384Y-44360175D01*
X51132041Y-44344942D01*
X51081941Y-44294637D01*
X51075338Y-44280179D01*
X50978870Y-44079862D01*
X50978866Y-44079855D01*
X50966474Y-44062798D01*
X50848888Y-43900955D01*
X50689053Y-43748137D01*
X50689052Y-43748136D01*
X50504501Y-43626314D01*
X50301174Y-43539408D01*
X50301160Y-43539403D01*
X50111106Y-43496025D01*
X50085572Y-43490197D01*
X50041389Y-43488212D01*
X49864665Y-43480276D01*
X49864664Y-43480276D01*
X49864661Y-43480276D01*
X49645528Y-43509960D01*
X49645526Y-43509960D01*
X49645523Y-43509961D01*
X49435217Y-43578293D01*
X49240492Y-43683078D01*
X49240485Y-43683082D01*
X49067596Y-43820958D01*
X48922103Y-43987487D01*
X48808692Y-44177306D01*
X48808684Y-44177322D01*
X48770617Y-44278752D01*
X48727955Y-44335500D01*
X48661384Y-44360175D01*
X48592041Y-44344942D01*
X48541941Y-44294637D01*
X48535338Y-44280179D01*
X48438870Y-44079862D01*
X48438866Y-44079855D01*
X48426474Y-44062798D01*
X48308888Y-43900955D01*
X48149053Y-43748137D01*
X48149052Y-43748136D01*
X47964501Y-43626314D01*
X47761174Y-43539408D01*
X47761160Y-43539403D01*
X47571106Y-43496025D01*
X47545572Y-43490197D01*
X47501389Y-43488212D01*
X47324665Y-43480276D01*
X47324664Y-43480276D01*
X47324661Y-43480276D01*
X47105528Y-43509960D01*
X47105526Y-43509960D01*
X47105523Y-43509961D01*
X46895217Y-43578293D01*
X46700492Y-43683078D01*
X46700485Y-43683082D01*
X46527586Y-43820966D01*
X46527413Y-43821132D01*
X46527314Y-43821182D01*
X46523174Y-43824485D01*
X46522518Y-43823663D01*
X46464351Y-43853745D01*
X46393667Y-43847087D01*
X46351252Y-43819148D01*
X45791647Y-43259543D01*
X45781680Y-43247102D01*
X45781453Y-43247291D01*
X45776399Y-43241181D01*
X45726748Y-43194556D01*
X45723904Y-43191799D01*
X45704177Y-43172071D01*
X45704171Y-43172066D01*
X45700967Y-43169580D01*
X45691956Y-43161883D01*
X45659725Y-43131617D01*
X45659719Y-43131613D01*
X45641963Y-43121851D01*
X45625447Y-43111002D01*
X45609441Y-43098586D01*
X45577091Y-43084587D01*
X45568864Y-43081027D01*
X45558207Y-43075805D01*
X45519463Y-43054506D01*
X45519460Y-43054505D01*
X45499836Y-43049466D01*
X45481136Y-43043064D01*
X45477441Y-43041465D01*
X45462545Y-43035019D01*
X45462543Y-43035018D01*
X45462541Y-43035018D01*
X45418874Y-43028101D01*
X45407255Y-43025695D01*
X45364430Y-43014700D01*
X45344176Y-43014700D01*
X45324466Y-43013149D01*
X45304457Y-43009980D01*
X45260439Y-43014141D01*
X45248581Y-43014700D01*
X39414753Y-43014700D01*
X39398911Y-43012950D01*
X39398884Y-43013244D01*
X39390992Y-43012498D01*
X39390991Y-43012498D01*
X39370282Y-43013149D01*
X39322914Y-43014638D01*
X39318955Y-43014700D01*
X39291044Y-43014700D01*
X39291041Y-43014700D01*
X39291026Y-43014701D01*
X39287021Y-43015207D01*
X39275204Y-43016137D01*
X39231012Y-43017526D01*
X39231010Y-43017527D01*
X39211555Y-43023178D01*
X39192202Y-43027186D01*
X39172110Y-43029724D01*
X39172103Y-43029726D01*
X39130996Y-43046001D01*
X39119771Y-43049844D01*
X39089112Y-43058752D01*
X39077307Y-43062182D01*
X39077305Y-43062182D01*
X39077302Y-43062184D01*
X39059863Y-43072497D01*
X39042118Y-43081190D01*
X39023279Y-43088649D01*
X38987527Y-43114626D01*
X38977604Y-43121144D01*
X38939540Y-43143654D01*
X38925207Y-43157987D01*
X38910181Y-43170820D01*
X38893795Y-43182725D01*
X38865611Y-43216793D01*
X38857623Y-43225570D01*
X38253055Y-43830138D01*
X38190743Y-43864164D01*
X38119928Y-43859099D01*
X38076887Y-43832115D01*
X37989053Y-43748137D01*
X37989052Y-43748136D01*
X37804501Y-43626314D01*
X37601174Y-43539408D01*
X37601160Y-43539403D01*
X37411106Y-43496025D01*
X37385572Y-43490197D01*
X37341389Y-43488212D01*
X37164665Y-43480276D01*
X37164664Y-43480276D01*
X37164661Y-43480276D01*
X36945528Y-43509960D01*
X36945526Y-43509960D01*
X36945523Y-43509961D01*
X36735217Y-43578293D01*
X36540492Y-43683078D01*
X36540485Y-43683082D01*
X36367596Y-43820958D01*
X36222103Y-43987487D01*
X36108692Y-44177306D01*
X36108684Y-44177322D01*
X36057801Y-44312900D01*
X36015139Y-44369648D01*
X35986217Y-44385779D01*
X35974790Y-44390303D01*
X35963564Y-44394146D01*
X35921109Y-44406480D01*
X35903664Y-44416797D01*
X35885918Y-44425490D01*
X35867082Y-44432948D01*
X35831310Y-44458937D01*
X35821394Y-44465451D01*
X35783337Y-44487958D01*
X35769011Y-44502284D01*
X35753985Y-44515117D01*
X35737595Y-44527025D01*
X35737593Y-44527027D01*
X35709400Y-44561105D01*
X35701414Y-44569881D01*
X35018698Y-45252596D01*
X34956388Y-45286620D01*
X34929605Y-45289500D01*
X30236500Y-45289500D01*
X30168379Y-45269498D01*
X30121886Y-45215842D01*
X30110500Y-45163500D01*
X30110500Y-44975600D01*
X30130502Y-44907479D01*
X30184158Y-44860986D01*
X30236500Y-44849600D01*
X32624547Y-44849600D01*
X32640388Y-44851349D01*
X32640416Y-44851056D01*
X32648302Y-44851800D01*
X32648309Y-44851802D01*
X32716386Y-44849662D01*
X32720345Y-44849600D01*
X32748251Y-44849600D01*
X32748256Y-44849600D01*
X32752267Y-44849092D01*
X32764099Y-44848161D01*
X32808289Y-44846773D01*
X32827747Y-44841119D01*
X32847094Y-44837113D01*
X32867197Y-44834574D01*
X32908310Y-44818295D01*
X32919530Y-44814453D01*
X32949066Y-44805873D01*
X32961987Y-44802120D01*
X32961988Y-44802119D01*
X32961993Y-44802118D01*
X32961996Y-44802115D01*
X32969264Y-44798971D01*
X32970535Y-44801907D01*
X33019489Y-44788500D01*
X35015000Y-44788500D01*
X35015000Y-44741983D01*
X35004394Y-44638181D01*
X35004393Y-44638178D01*
X34948657Y-44469974D01*
X34855634Y-44319160D01*
X34855629Y-44319154D01*
X34730344Y-44193869D01*
X34727551Y-44191661D01*
X34726131Y-44189656D01*
X34725150Y-44188675D01*
X34725317Y-44188507D01*
X34686519Y-44133722D01*
X34683325Y-44062798D01*
X34718983Y-44001405D01*
X34727554Y-43993978D01*
X34730639Y-43991537D01*
X34730652Y-43991530D01*
X34856030Y-43866152D01*
X34949115Y-43715238D01*
X35004887Y-43546926D01*
X35015500Y-43443045D01*
X35015499Y-42841956D01*
X35004887Y-42738074D01*
X34949115Y-42569762D01*
X34856030Y-42418848D01*
X34856029Y-42418847D01*
X34856024Y-42418841D01*
X34730658Y-42293475D01*
X34730652Y-42293470D01*
X34700886Y-42275110D01*
X34579738Y-42200385D01*
X34464580Y-42162226D01*
X34411427Y-42144613D01*
X34411420Y-42144612D01*
X34307553Y-42134000D01*
X33256455Y-42134000D01*
X33152574Y-42144612D01*
X32984261Y-42200385D01*
X32833347Y-42293470D01*
X32833341Y-42293475D01*
X32707975Y-42418841D01*
X32707970Y-42418847D01*
X32614885Y-42569762D01*
X32559113Y-42738072D01*
X32559112Y-42738079D01*
X32548500Y-42841946D01*
X32548500Y-43427904D01*
X32528498Y-43496025D01*
X32511597Y-43516998D01*
X32482899Y-43545695D01*
X32420590Y-43579720D01*
X32393805Y-43582600D01*
X30236000Y-43582600D01*
X30167879Y-43562598D01*
X30121386Y-43508942D01*
X30110000Y-43456600D01*
X30110000Y-42450000D01*
X28574000Y-42450000D01*
X28505879Y-42429998D01*
X28459386Y-42376342D01*
X28448000Y-42324000D01*
X28448000Y-40438000D01*
X28956000Y-40438000D01*
X28956000Y-41942000D01*
X30110000Y-41942000D01*
X30110000Y-40897414D01*
X30109999Y-40897402D01*
X30103494Y-40836906D01*
X30052444Y-40700035D01*
X30052444Y-40700034D01*
X29964904Y-40583095D01*
X29847965Y-40495555D01*
X29711093Y-40444505D01*
X29650597Y-40438000D01*
X28956000Y-40438000D01*
X28448000Y-40438000D01*
X27753402Y-40438000D01*
X27692906Y-40444505D01*
X27556035Y-40495555D01*
X27556034Y-40495555D01*
X27439095Y-40583095D01*
X27351555Y-40700034D01*
X27347238Y-40707943D01*
X27345242Y-40706853D01*
X27310204Y-40753656D01*
X27243683Y-40778463D01*
X27174309Y-40763369D01*
X27124109Y-40713164D01*
X27108700Y-40652784D01*
X27108700Y-38098594D01*
X27128702Y-38030473D01*
X27145605Y-38009499D01*
X27655564Y-37499540D01*
X28176578Y-36978525D01*
X28238888Y-36944502D01*
X28309703Y-36949566D01*
G37*
%TD.AperFunction*%
%TA.AperFunction,Conductor*%
G36*
X85148907Y-38073339D02*
G01*
X85160680Y-38086926D01*
X85196595Y-38134904D01*
X85313533Y-38222443D01*
X85317688Y-38223993D01*
X85321235Y-38226648D01*
X85321443Y-38226762D01*
X85321426Y-38226791D01*
X85374523Y-38266540D01*
X85399334Y-38333061D01*
X85384242Y-38402435D01*
X85362750Y-38431144D01*
X79843600Y-43950295D01*
X79781288Y-43984321D01*
X79754505Y-43987200D01*
X78356153Y-43987200D01*
X78340311Y-43985450D01*
X78340284Y-43985744D01*
X78332392Y-43984998D01*
X78332391Y-43984998D01*
X78308660Y-43985744D01*
X78264314Y-43987138D01*
X78260355Y-43987200D01*
X78232444Y-43987200D01*
X78232441Y-43987200D01*
X78232426Y-43987201D01*
X78228421Y-43987707D01*
X78216604Y-43988637D01*
X78172413Y-43990026D01*
X78172411Y-43990027D01*
X78152956Y-43995678D01*
X78133603Y-43999686D01*
X78113511Y-44002224D01*
X78113505Y-44002225D01*
X78113503Y-44002226D01*
X78072398Y-44018500D01*
X78061174Y-44022343D01*
X78018707Y-44034682D01*
X78001264Y-44044997D01*
X77983518Y-44053690D01*
X77964682Y-44061148D01*
X77928910Y-44087137D01*
X77918994Y-44093651D01*
X77880937Y-44116158D01*
X77866611Y-44130484D01*
X77851585Y-44143317D01*
X77835195Y-44155225D01*
X77835193Y-44155227D01*
X77807000Y-44189305D01*
X77799013Y-44198081D01*
X76763595Y-45233499D01*
X76701283Y-45267525D01*
X76630468Y-45262460D01*
X76573632Y-45219913D01*
X76548821Y-45153393D01*
X76548500Y-45144404D01*
X76548500Y-44657328D01*
X76548500Y-44657322D01*
X76533644Y-44492256D01*
X76533644Y-44492254D01*
X76533643Y-44492253D01*
X76527494Y-44469974D01*
X76507853Y-44398805D01*
X76474815Y-44279093D01*
X76378870Y-44079862D01*
X76378866Y-44079855D01*
X76366473Y-44062798D01*
X76316473Y-43993978D01*
X76265458Y-43923761D01*
X76241599Y-43856893D01*
X76257680Y-43787741D01*
X76308594Y-43738261D01*
X76367394Y-43723700D01*
X77943847Y-43723700D01*
X77959688Y-43725449D01*
X77959716Y-43725156D01*
X77967602Y-43725900D01*
X77967609Y-43725902D01*
X78035686Y-43723762D01*
X78039645Y-43723700D01*
X78067551Y-43723700D01*
X78067556Y-43723700D01*
X78071567Y-43723192D01*
X78083399Y-43722261D01*
X78127589Y-43720873D01*
X78147047Y-43715219D01*
X78166394Y-43711213D01*
X78186497Y-43708674D01*
X78227610Y-43692395D01*
X78238830Y-43688553D01*
X78263613Y-43681354D01*
X78281291Y-43676219D01*
X78281295Y-43676217D01*
X78298726Y-43665908D01*
X78316480Y-43657209D01*
X78335317Y-43649752D01*
X78371092Y-43623758D01*
X78380998Y-43617251D01*
X78419062Y-43594742D01*
X78433385Y-43580418D01*
X78448424Y-43567574D01*
X78464807Y-43555672D01*
X78493003Y-43521586D01*
X78500972Y-43512830D01*
X83696399Y-38317405D01*
X83758711Y-38283379D01*
X83785494Y-38280500D01*
X84608132Y-38280500D01*
X84608138Y-38280500D01*
X84608145Y-38280499D01*
X84608149Y-38280499D01*
X84668696Y-38273990D01*
X84668699Y-38273989D01*
X84668701Y-38273989D01*
X84670211Y-38273426D01*
X84688672Y-38266540D01*
X84805704Y-38222889D01*
X84806299Y-38222444D01*
X84835473Y-38200604D01*
X84922761Y-38135261D01*
X84958944Y-38086926D01*
X85015779Y-38044380D01*
X85086595Y-38039314D01*
X85148907Y-38073339D01*
G37*
%TD.AperFunction*%
%TA.AperFunction,Conductor*%
G36*
X53224621Y-35200202D02*
G01*
X53271114Y-35253858D01*
X53282500Y-35306200D01*
X53282500Y-35722000D01*
X53940500Y-35722000D01*
X53940500Y-35673414D01*
X53940499Y-35673402D01*
X53933994Y-35612906D01*
X53933993Y-35612904D01*
X53925837Y-35591037D01*
X53920769Y-35520222D01*
X53925837Y-35502963D01*
X53933993Y-35481095D01*
X53933994Y-35481093D01*
X53940499Y-35420597D01*
X53940500Y-35420585D01*
X53940500Y-35306200D01*
X53960502Y-35238079D01*
X54014158Y-35191586D01*
X54066500Y-35180200D01*
X54469606Y-35180200D01*
X54537727Y-35200202D01*
X54558701Y-35217105D01*
X55284757Y-35943161D01*
X55318783Y-36005473D01*
X55316856Y-36061702D01*
X55317595Y-36061837D01*
X55316680Y-36066847D01*
X55316661Y-36067402D01*
X55316439Y-36068165D01*
X55316437Y-36068175D01*
X55313500Y-36105488D01*
X55313500Y-36538511D01*
X55316437Y-36575828D01*
X55316437Y-36575829D01*
X55362856Y-36735605D01*
X55447544Y-36878803D01*
X55447549Y-36878810D01*
X55565189Y-36996450D01*
X55565196Y-36996455D01*
X55708395Y-37081143D01*
X55708396Y-37081143D01*
X55708399Y-37081145D01*
X55835154Y-37117970D01*
X55894988Y-37156181D01*
X55924666Y-37220677D01*
X55926000Y-37238966D01*
X55926000Y-37679646D01*
X55924251Y-37695488D01*
X55924544Y-37695516D01*
X55923798Y-37703407D01*
X55925938Y-37771484D01*
X55926000Y-37775443D01*
X55926000Y-37803351D01*
X55926001Y-37803369D01*
X55926507Y-37807377D01*
X55927437Y-37819196D01*
X55928826Y-37863388D01*
X55928827Y-37863393D01*
X55934477Y-37882839D01*
X55938486Y-37902197D01*
X55941025Y-37922293D01*
X55941026Y-37922300D01*
X55957300Y-37963403D01*
X55961144Y-37974629D01*
X55973482Y-38017093D01*
X55983794Y-38034531D01*
X55992488Y-38052279D01*
X55999944Y-38071109D01*
X55999950Y-38071120D01*
X56025932Y-38106881D01*
X56032449Y-38116801D01*
X56054958Y-38154862D01*
X56054959Y-38154863D01*
X56054961Y-38154866D01*
X56069279Y-38169184D01*
X56082117Y-38184214D01*
X56094026Y-38200604D01*
X56094030Y-38200609D01*
X56128098Y-38228792D01*
X56136878Y-38236782D01*
X57293677Y-39393581D01*
X57327703Y-39455893D01*
X57329892Y-39469505D01*
X57347257Y-39634727D01*
X57365866Y-39691998D01*
X57406273Y-39816356D01*
X57406276Y-39816361D01*
X57501758Y-39981741D01*
X57501765Y-39981751D01*
X57629544Y-40123664D01*
X57629547Y-40123666D01*
X57784048Y-40235918D01*
X57958512Y-40313594D01*
X58145313Y-40353300D01*
X58336287Y-40353300D01*
X58523088Y-40313594D01*
X58697552Y-40235918D01*
X58852053Y-40123666D01*
X58867528Y-40106479D01*
X58979834Y-39981751D01*
X58979835Y-39981749D01*
X58979840Y-39981744D01*
X59075327Y-39816356D01*
X59134342Y-39634728D01*
X59154304Y-39444800D01*
X59134342Y-39254872D01*
X59075327Y-39073244D01*
X58979840Y-38907856D01*
X58979838Y-38907854D01*
X58979834Y-38907848D01*
X58872922Y-38789110D01*
X58842204Y-38725103D01*
X58850969Y-38654649D01*
X58896432Y-38600118D01*
X58964159Y-38578823D01*
X58966558Y-38578800D01*
X59100447Y-38578800D01*
X59116288Y-38580549D01*
X59116316Y-38580256D01*
X59124202Y-38581000D01*
X59124209Y-38581002D01*
X59192286Y-38578862D01*
X59196245Y-38578800D01*
X59224151Y-38578800D01*
X59224156Y-38578800D01*
X59228167Y-38578292D01*
X59239999Y-38577361D01*
X59284189Y-38575973D01*
X59303647Y-38570319D01*
X59322994Y-38566313D01*
X59343097Y-38563774D01*
X59384210Y-38547495D01*
X59395430Y-38543653D01*
X59420213Y-38536454D01*
X59437891Y-38531319D01*
X59437895Y-38531317D01*
X59455326Y-38521008D01*
X59473080Y-38512309D01*
X59491917Y-38504852D01*
X59527692Y-38478858D01*
X59537598Y-38472351D01*
X59575662Y-38449842D01*
X59589985Y-38435518D01*
X59605024Y-38422674D01*
X59621407Y-38410772D01*
X59649603Y-38376686D01*
X59657572Y-38367930D01*
X60366257Y-37659245D01*
X60378688Y-37649287D01*
X60378501Y-37649061D01*
X60390681Y-37638984D01*
X60455917Y-37610971D01*
X60525943Y-37622675D01*
X60578524Y-37670379D01*
X60597000Y-37736065D01*
X60597000Y-43412409D01*
X60576998Y-43480530D01*
X60523342Y-43527023D01*
X60453068Y-43537127D01*
X60442962Y-43535250D01*
X60433358Y-43533058D01*
X60245572Y-43490197D01*
X60201389Y-43488212D01*
X60024665Y-43480276D01*
X60024664Y-43480276D01*
X60024661Y-43480276D01*
X59805528Y-43509960D01*
X59805526Y-43509960D01*
X59805523Y-43509961D01*
X59595217Y-43578293D01*
X59400492Y-43683078D01*
X59400485Y-43683082D01*
X59227596Y-43820958D01*
X59082103Y-43987487D01*
X58968692Y-44177306D01*
X58968684Y-44177322D01*
X58930617Y-44278752D01*
X58887955Y-44335500D01*
X58821384Y-44360175D01*
X58752041Y-44344942D01*
X58701941Y-44294637D01*
X58695338Y-44280179D01*
X58598870Y-44079862D01*
X58598866Y-44079855D01*
X58586474Y-44062798D01*
X58468888Y-43900955D01*
X58309053Y-43748137D01*
X58309052Y-43748136D01*
X58124501Y-43626314D01*
X57921174Y-43539408D01*
X57921160Y-43539403D01*
X57731106Y-43496025D01*
X57705572Y-43490197D01*
X57661389Y-43488212D01*
X57484665Y-43480276D01*
X57484664Y-43480276D01*
X57484661Y-43480276D01*
X57265528Y-43509960D01*
X57265526Y-43509960D01*
X57265523Y-43509961D01*
X57055217Y-43578293D01*
X56860492Y-43683078D01*
X56860485Y-43683082D01*
X56687596Y-43820958D01*
X56542103Y-43987487D01*
X56428692Y-44177306D01*
X56428684Y-44177322D01*
X56390617Y-44278752D01*
X56347955Y-44335500D01*
X56281384Y-44360175D01*
X56212041Y-44344942D01*
X56161941Y-44294637D01*
X56155338Y-44280179D01*
X56058870Y-44079862D01*
X56058866Y-44079855D01*
X56046474Y-44062798D01*
X55928888Y-43900955D01*
X55769053Y-43748137D01*
X55769052Y-43748136D01*
X55584501Y-43626314D01*
X55381174Y-43539408D01*
X55381160Y-43539403D01*
X55191106Y-43496025D01*
X55165572Y-43490197D01*
X55121389Y-43488212D01*
X54944665Y-43480276D01*
X54944664Y-43480276D01*
X54944661Y-43480276D01*
X54725528Y-43509960D01*
X54725526Y-43509960D01*
X54725523Y-43509961D01*
X54515217Y-43578293D01*
X54320492Y-43683078D01*
X54320485Y-43683082D01*
X54147596Y-43820958D01*
X54002103Y-43987487D01*
X53888692Y-44177306D01*
X53888684Y-44177322D01*
X53850617Y-44278752D01*
X53807955Y-44335500D01*
X53741384Y-44360175D01*
X53672041Y-44344942D01*
X53621941Y-44294637D01*
X53615338Y-44280179D01*
X53518870Y-44079862D01*
X53518866Y-44079855D01*
X53506474Y-44062798D01*
X53388888Y-43900955D01*
X53388886Y-43900953D01*
X53300631Y-43816572D01*
X53265216Y-43755039D01*
X53268691Y-43684127D01*
X53309952Y-43626351D01*
X53375899Y-43600054D01*
X53387705Y-43599500D01*
X53498187Y-43599500D01*
X53684988Y-43559794D01*
X53859452Y-43482118D01*
X54013953Y-43369866D01*
X54013955Y-43369864D01*
X54141734Y-43227951D01*
X54141735Y-43227949D01*
X54141740Y-43227944D01*
X54237227Y-43062556D01*
X54296242Y-42880928D01*
X54316204Y-42691000D01*
X54296242Y-42501072D01*
X54237227Y-42319444D01*
X54141740Y-42154056D01*
X54141738Y-42154054D01*
X54141734Y-42154048D01*
X54013955Y-42012135D01*
X53859452Y-41899882D01*
X53684988Y-41822206D01*
X53519184Y-41786963D01*
X53456710Y-41753234D01*
X53422389Y-41691085D01*
X53427117Y-41620246D01*
X53451743Y-41579406D01*
X53540040Y-41481344D01*
X53635527Y-41315956D01*
X53694542Y-41134328D01*
X53714504Y-40944400D01*
X53694542Y-40754472D01*
X53635527Y-40572844D01*
X53540040Y-40407456D01*
X53540038Y-40407454D01*
X53540034Y-40407448D01*
X53412255Y-40265535D01*
X53257752Y-40153282D01*
X53083288Y-40075606D01*
X52896487Y-40035900D01*
X52840595Y-40035900D01*
X52772474Y-40015898D01*
X52751500Y-39998995D01*
X52628205Y-39875700D01*
X52594179Y-39813388D01*
X52591300Y-39786605D01*
X52591300Y-38406000D01*
X52611302Y-38337879D01*
X52664958Y-38291386D01*
X52717300Y-38280000D01*
X52782500Y-38280000D01*
X52782500Y-37772000D01*
X53282500Y-37772000D01*
X53282500Y-38280000D01*
X53481085Y-38280000D01*
X53481097Y-38279999D01*
X53541593Y-38273494D01*
X53678464Y-38222444D01*
X53678465Y-38222444D01*
X53795404Y-38134904D01*
X53882944Y-38017965D01*
X53882944Y-38017964D01*
X53933994Y-37881093D01*
X53940499Y-37820597D01*
X53940500Y-37820585D01*
X53940500Y-37772000D01*
X53282500Y-37772000D01*
X52782500Y-37772000D01*
X52782500Y-36922000D01*
X53282500Y-36922000D01*
X53282500Y-37272000D01*
X53940500Y-37272000D01*
X53940500Y-37223414D01*
X53940499Y-37223402D01*
X53933994Y-37162906D01*
X53933993Y-37162904D01*
X53925837Y-37141037D01*
X53920769Y-37070222D01*
X53925837Y-37052963D01*
X53933993Y-37031095D01*
X53933994Y-37031093D01*
X53940499Y-36970597D01*
X53940500Y-36970585D01*
X53940500Y-36922000D01*
X53282500Y-36922000D01*
X52782500Y-36922000D01*
X52782500Y-36823191D01*
X52802502Y-36755070D01*
X52819405Y-36734096D01*
X52832500Y-36721001D01*
X52832500Y-36122000D01*
X53232500Y-36122000D01*
X53232500Y-36522000D01*
X53940500Y-36522000D01*
X53940500Y-36473414D01*
X53940499Y-36473402D01*
X53933994Y-36412906D01*
X53933993Y-36412901D01*
X53916512Y-36366034D01*
X53911446Y-36295218D01*
X53916512Y-36277966D01*
X53933993Y-36231098D01*
X53933994Y-36231093D01*
X53940499Y-36170597D01*
X53940500Y-36170585D01*
X53940500Y-36122000D01*
X53232500Y-36122000D01*
X52832500Y-36122000D01*
X52832500Y-35922999D01*
X52819405Y-35909904D01*
X52785379Y-35847592D01*
X52782500Y-35820809D01*
X52782500Y-35306200D01*
X52802502Y-35238079D01*
X52856158Y-35191586D01*
X52908500Y-35180200D01*
X53156500Y-35180200D01*
X53224621Y-35200202D01*
G37*
%TD.AperFunction*%
%TA.AperFunction,Conductor*%
G36*
X86151621Y-35174002D02*
G01*
X86198114Y-35227658D01*
X86209500Y-35280000D01*
X86209500Y-35722000D01*
X86819705Y-35722000D01*
X86887826Y-35742002D01*
X86908798Y-35758902D01*
X87150895Y-36001000D01*
X87382800Y-36232905D01*
X87416825Y-36295217D01*
X87411760Y-36366033D01*
X87382800Y-36411095D01*
X86908798Y-36885096D01*
X86846488Y-36919120D01*
X86819705Y-36922000D01*
X86209500Y-36922000D01*
X86209500Y-37532205D01*
X86189498Y-37600326D01*
X86172595Y-37621300D01*
X86058800Y-37735095D01*
X85996488Y-37769121D01*
X85969705Y-37772000D01*
X85835500Y-37772000D01*
X85767379Y-37751998D01*
X85720886Y-37698342D01*
X85709500Y-37646000D01*
X85709500Y-36823191D01*
X85729502Y-36755070D01*
X85746405Y-36734096D01*
X85759500Y-36721001D01*
X85759500Y-36122000D01*
X86159500Y-36122000D01*
X86159500Y-36522000D01*
X86867500Y-36522000D01*
X86867500Y-36473414D01*
X86867499Y-36473402D01*
X86860994Y-36412906D01*
X86860993Y-36412901D01*
X86843512Y-36366034D01*
X86838446Y-36295218D01*
X86843512Y-36277966D01*
X86860993Y-36231098D01*
X86860994Y-36231093D01*
X86867499Y-36170597D01*
X86867500Y-36170585D01*
X86867500Y-36122000D01*
X86159500Y-36122000D01*
X85759500Y-36122000D01*
X85759500Y-35922999D01*
X85746405Y-35909904D01*
X85712379Y-35847592D01*
X85709500Y-35820809D01*
X85709500Y-35280000D01*
X85729502Y-35211879D01*
X85783158Y-35165386D01*
X85835500Y-35154000D01*
X86083500Y-35154000D01*
X86151621Y-35174002D01*
G37*
%TD.AperFunction*%
%TA.AperFunction,Conductor*%
G36*
X93442587Y-26490654D02*
G01*
X93484977Y-26547607D01*
X93492800Y-26591313D01*
X93492800Y-30899974D01*
X93472798Y-30968095D01*
X93460437Y-30984284D01*
X93387257Y-31065559D01*
X93291776Y-31230938D01*
X93291773Y-31230944D01*
X93283200Y-31257329D01*
X93232757Y-31412572D01*
X93215392Y-31577792D01*
X93188379Y-31643449D01*
X93179177Y-31653716D01*
X91460311Y-33372582D01*
X91397999Y-33406608D01*
X91379129Y-33409238D01*
X91351420Y-33410981D01*
X91345547Y-33411351D01*
X91337637Y-33411600D01*
X82043253Y-33411600D01*
X82027411Y-33409850D01*
X82027384Y-33410144D01*
X82019491Y-33409397D01*
X81951401Y-33411538D01*
X81947443Y-33411600D01*
X81919544Y-33411600D01*
X81919538Y-33411600D01*
X81919532Y-33411601D01*
X81915533Y-33412106D01*
X81903713Y-33413036D01*
X81859514Y-33414425D01*
X81859507Y-33414427D01*
X81840049Y-33420079D01*
X81820704Y-33424085D01*
X81800606Y-33426625D01*
X81800598Y-33426627D01*
X81759490Y-33442902D01*
X81748266Y-33446745D01*
X81705809Y-33459081D01*
X81688364Y-33469397D01*
X81670618Y-33478090D01*
X81651782Y-33485548D01*
X81616010Y-33511537D01*
X81606094Y-33518051D01*
X81568037Y-33540558D01*
X81553711Y-33554884D01*
X81538685Y-33567717D01*
X81522295Y-33579625D01*
X81522293Y-33579627D01*
X81494100Y-33613705D01*
X81486114Y-33622481D01*
X80581998Y-34526596D01*
X80519688Y-34560620D01*
X80492905Y-34563500D01*
X79978489Y-34563500D01*
X79941171Y-34566437D01*
X79941170Y-34566437D01*
X79781394Y-34612856D01*
X79638196Y-34697544D01*
X79638189Y-34697549D01*
X79634144Y-34701595D01*
X79571832Y-34735621D01*
X79545049Y-34738500D01*
X75985451Y-34738500D01*
X75917330Y-34718498D01*
X75896356Y-34701595D01*
X75892310Y-34697549D01*
X75892303Y-34697544D01*
X75749105Y-34612856D01*
X75589329Y-34566437D01*
X75552011Y-34563500D01*
X75552002Y-34563500D01*
X75037594Y-34563500D01*
X74969473Y-34543498D01*
X74948499Y-34526595D01*
X74424687Y-34002783D01*
X73887144Y-33465239D01*
X73877179Y-33452801D01*
X73876952Y-33452990D01*
X73871901Y-33446884D01*
X73871900Y-33446882D01*
X73850330Y-33426627D01*
X73822248Y-33400256D01*
X73819404Y-33397499D01*
X73799677Y-33377771D01*
X73799671Y-33377766D01*
X73796467Y-33375280D01*
X73787456Y-33367583D01*
X73755225Y-33337317D01*
X73755219Y-33337313D01*
X73737463Y-33327551D01*
X73720947Y-33316702D01*
X73704941Y-33304286D01*
X73664364Y-33286727D01*
X73653707Y-33281505D01*
X73614963Y-33260206D01*
X73614960Y-33260205D01*
X73595336Y-33255166D01*
X73576636Y-33248764D01*
X73558045Y-33240719D01*
X73558043Y-33240718D01*
X73558041Y-33240718D01*
X73514374Y-33233801D01*
X73502755Y-33231395D01*
X73459930Y-33220400D01*
X73439676Y-33220400D01*
X73419966Y-33218849D01*
X73399957Y-33215680D01*
X73355939Y-33219841D01*
X73344081Y-33220400D01*
X70721095Y-33220400D01*
X70652974Y-33200398D01*
X70631999Y-33183495D01*
X70572804Y-33124299D01*
X70538779Y-33061986D01*
X70535900Y-33035204D01*
X70535900Y-32872995D01*
X70555902Y-32804874D01*
X70572806Y-32783897D01*
X70577635Y-32779070D01*
X70580114Y-32775873D01*
X70587811Y-32766859D01*
X70618086Y-32734621D01*
X70627846Y-32716865D01*
X70638695Y-32700350D01*
X70651114Y-32684341D01*
X70668679Y-32643746D01*
X70673884Y-32633121D01*
X70695195Y-32594360D01*
X70700233Y-32574734D01*
X70706637Y-32556032D01*
X70714680Y-32537447D01*
X70714679Y-32537447D01*
X70714681Y-32537445D01*
X70721596Y-32493781D01*
X70724004Y-32482152D01*
X70730485Y-32456912D01*
X70735000Y-32439330D01*
X70735000Y-32419075D01*
X70736549Y-32399376D01*
X70736884Y-32397261D01*
X70737938Y-32390602D01*
X70761518Y-32334800D01*
X70802389Y-32280204D01*
X70808445Y-32263965D01*
X70850990Y-32207132D01*
X70917511Y-32182321D01*
X70986885Y-32197412D01*
X71037087Y-32247614D01*
X71044551Y-32263958D01*
X71050611Y-32280204D01*
X71075097Y-32312914D01*
X71076368Y-32314611D01*
X71101179Y-32381131D01*
X71101500Y-32390120D01*
X71101500Y-32542000D01*
X71150085Y-32542000D01*
X71150097Y-32541999D01*
X71210593Y-32535494D01*
X71210598Y-32535493D01*
X71256750Y-32518279D01*
X71327565Y-32513213D01*
X71344813Y-32518277D01*
X71356236Y-32522538D01*
X71392298Y-32535989D01*
X71392303Y-32535990D01*
X71452850Y-32542499D01*
X71452855Y-32542499D01*
X71452862Y-32542500D01*
X71452868Y-32542500D01*
X71950132Y-32542500D01*
X71950138Y-32542500D01*
X71950145Y-32542499D01*
X71950149Y-32542499D01*
X72010696Y-32535990D01*
X72010699Y-32535989D01*
X72010701Y-32535989D01*
X72033182Y-32527603D01*
X72103996Y-32522538D01*
X72121246Y-32527603D01*
X72142404Y-32535494D01*
X72142403Y-32535494D01*
X72202902Y-32541999D01*
X72202915Y-32542000D01*
X72251500Y-32542000D01*
X72251500Y-32456912D01*
X72271502Y-32388791D01*
X72276620Y-32381419D01*
X72352389Y-32280204D01*
X72403489Y-32143201D01*
X72404036Y-32138121D01*
X72409999Y-32082649D01*
X72410000Y-32082632D01*
X72410000Y-31884000D01*
X72751500Y-31884000D01*
X72751500Y-32542000D01*
X72800085Y-32542000D01*
X72800097Y-32541999D01*
X72860593Y-32535494D01*
X72997464Y-32484444D01*
X72997465Y-32484444D01*
X73114404Y-32396904D01*
X73201944Y-32279965D01*
X73201944Y-32279964D01*
X73252994Y-32143093D01*
X73259499Y-32082597D01*
X73259500Y-32082585D01*
X73259500Y-31884000D01*
X72751500Y-31884000D01*
X72410000Y-31884000D01*
X72410000Y-31668200D01*
X72430002Y-31600079D01*
X72483658Y-31553586D01*
X72536000Y-31542200D01*
X72916347Y-31542200D01*
X72932188Y-31543949D01*
X72932216Y-31543656D01*
X72940102Y-31544400D01*
X72940109Y-31544402D01*
X73008186Y-31542262D01*
X73012145Y-31542200D01*
X73040051Y-31542200D01*
X73040056Y-31542200D01*
X73044067Y-31541692D01*
X73055899Y-31540761D01*
X73100089Y-31539373D01*
X73119547Y-31533719D01*
X73138894Y-31529713D01*
X73158997Y-31527174D01*
X73200110Y-31510895D01*
X73211330Y-31507053D01*
X73236113Y-31499854D01*
X73253791Y-31494719D01*
X73253795Y-31494717D01*
X73271226Y-31484408D01*
X73288980Y-31475709D01*
X73307817Y-31468252D01*
X73343592Y-31442258D01*
X73353498Y-31435751D01*
X73391562Y-31413242D01*
X73405885Y-31398918D01*
X73420924Y-31386074D01*
X73423779Y-31384000D01*
X73437307Y-31374172D01*
X73465503Y-31340086D01*
X73473472Y-31331330D01*
X78063699Y-26741105D01*
X78126011Y-26707079D01*
X78152794Y-26704200D01*
X81510873Y-26704200D01*
X81578994Y-26724202D01*
X81625487Y-26777858D01*
X81636484Y-26820311D01*
X81639437Y-26857829D01*
X81685856Y-27017605D01*
X81770544Y-27160803D01*
X81770549Y-27160810D01*
X81888189Y-27278450D01*
X81888196Y-27278455D01*
X82031395Y-27363143D01*
X82031396Y-27363143D01*
X82031399Y-27363145D01*
X82158154Y-27399970D01*
X82217988Y-27438181D01*
X82247666Y-27502677D01*
X82249000Y-27520966D01*
X82249000Y-28437846D01*
X82247251Y-28453688D01*
X82247544Y-28453716D01*
X82246798Y-28461607D01*
X82248938Y-28529684D01*
X82249000Y-28533643D01*
X82249000Y-28561551D01*
X82249001Y-28561569D01*
X82249507Y-28565577D01*
X82250437Y-28577396D01*
X82251826Y-28621588D01*
X82251827Y-28621593D01*
X82257477Y-28641039D01*
X82261486Y-28660397D01*
X82264025Y-28680493D01*
X82264026Y-28680500D01*
X82280300Y-28721603D01*
X82284144Y-28732829D01*
X82296482Y-28775293D01*
X82306794Y-28792731D01*
X82315488Y-28810479D01*
X82322944Y-28829309D01*
X82322950Y-28829320D01*
X82348932Y-28865081D01*
X82355449Y-28875001D01*
X82377958Y-28913062D01*
X82377959Y-28913063D01*
X82377961Y-28913066D01*
X82392279Y-28927384D01*
X82405117Y-28942414D01*
X82417026Y-28958804D01*
X82417030Y-28958809D01*
X82451098Y-28986992D01*
X82459878Y-28994982D01*
X84546901Y-31082006D01*
X84580927Y-31144318D01*
X84582949Y-31181976D01*
X84583181Y-31181989D01*
X84583065Y-31184142D01*
X84583087Y-31184541D01*
X84583001Y-31185336D01*
X84583000Y-31185367D01*
X84583000Y-32082649D01*
X84589509Y-32143196D01*
X84589511Y-32143204D01*
X84640610Y-32280202D01*
X84640612Y-32280207D01*
X84728238Y-32397261D01*
X84845292Y-32484887D01*
X84845294Y-32484888D01*
X84845296Y-32484889D01*
X84853396Y-32487910D01*
X84982295Y-32535988D01*
X84982303Y-32535990D01*
X85042850Y-32542499D01*
X85042855Y-32542499D01*
X85042862Y-32542500D01*
X85042868Y-32542500D01*
X85640132Y-32542500D01*
X85640138Y-32542500D01*
X85640145Y-32542499D01*
X85640149Y-32542499D01*
X85700696Y-32535990D01*
X85700699Y-32535989D01*
X85700701Y-32535989D01*
X85723182Y-32527603D01*
X85793996Y-32522538D01*
X85811246Y-32527603D01*
X85832404Y-32535494D01*
X85832403Y-32535494D01*
X85892902Y-32541999D01*
X85892915Y-32542000D01*
X85941500Y-32542000D01*
X85941500Y-32456912D01*
X85961502Y-32388791D01*
X85966620Y-32381419D01*
X86042389Y-32280204D01*
X86048445Y-32263965D01*
X86090990Y-32207132D01*
X86157511Y-32182321D01*
X86226885Y-32197412D01*
X86277087Y-32247614D01*
X86284551Y-32263958D01*
X86290611Y-32280204D01*
X86315097Y-32312914D01*
X86316368Y-32314611D01*
X86341179Y-32381131D01*
X86341500Y-32390120D01*
X86341500Y-32542000D01*
X86390085Y-32542000D01*
X86390097Y-32541999D01*
X86450593Y-32535494D01*
X86450598Y-32535493D01*
X86496750Y-32518279D01*
X86567565Y-32513213D01*
X86584813Y-32518277D01*
X86596236Y-32522538D01*
X86632298Y-32535989D01*
X86632303Y-32535990D01*
X86692850Y-32542499D01*
X86692855Y-32542499D01*
X86692862Y-32542500D01*
X86692868Y-32542500D01*
X87190132Y-32542500D01*
X87190138Y-32542500D01*
X87190145Y-32542499D01*
X87190149Y-32542499D01*
X87250696Y-32535990D01*
X87250699Y-32535989D01*
X87250701Y-32535989D01*
X87273182Y-32527603D01*
X87343996Y-32522538D01*
X87361246Y-32527603D01*
X87382404Y-32535494D01*
X87382403Y-32535494D01*
X87442902Y-32541999D01*
X87442915Y-32542000D01*
X87491500Y-32542000D01*
X87491500Y-32456912D01*
X87511502Y-32388791D01*
X87516620Y-32381419D01*
X87592389Y-32280204D01*
X87643489Y-32143201D01*
X87644036Y-32138121D01*
X87649999Y-32082649D01*
X87650000Y-32082632D01*
X87650000Y-31884000D01*
X87991500Y-31884000D01*
X87991500Y-32542000D01*
X88040085Y-32542000D01*
X88040097Y-32541999D01*
X88100593Y-32535494D01*
X88237464Y-32484444D01*
X88237465Y-32484444D01*
X88354404Y-32396904D01*
X88441944Y-32279965D01*
X88441944Y-32279964D01*
X88492994Y-32143093D01*
X88499499Y-32082597D01*
X88499500Y-32082585D01*
X88499500Y-31884000D01*
X87991500Y-31884000D01*
X87650000Y-31884000D01*
X87650000Y-31510000D01*
X87670002Y-31441879D01*
X87723658Y-31395386D01*
X87776000Y-31384000D01*
X88499500Y-31384000D01*
X88499500Y-31185414D01*
X88499499Y-31185402D01*
X88492994Y-31124906D01*
X88441944Y-30988035D01*
X88441944Y-30988034D01*
X88354404Y-30871095D01*
X88306426Y-30835180D01*
X88263879Y-30778345D01*
X88258814Y-30707529D01*
X88292839Y-30645217D01*
X88306422Y-30633446D01*
X88354761Y-30597261D01*
X88442389Y-30480204D01*
X88493489Y-30343201D01*
X88500000Y-30282638D01*
X88500000Y-29868200D01*
X88520002Y-29800079D01*
X88573658Y-29753586D01*
X88626000Y-29742200D01*
X89702047Y-29742200D01*
X89717888Y-29743949D01*
X89717916Y-29743656D01*
X89725802Y-29744400D01*
X89725809Y-29744402D01*
X89793886Y-29742262D01*
X89797845Y-29742200D01*
X89825751Y-29742200D01*
X89825756Y-29742200D01*
X89829767Y-29741692D01*
X89841599Y-29740761D01*
X89885789Y-29739373D01*
X89905247Y-29733719D01*
X89924594Y-29729713D01*
X89944697Y-29727174D01*
X89945246Y-29726957D01*
X89976012Y-29714775D01*
X89985810Y-29710895D01*
X89997030Y-29707053D01*
X90021813Y-29699854D01*
X90039491Y-29694719D01*
X90039495Y-29694717D01*
X90056926Y-29684408D01*
X90074680Y-29675709D01*
X90093517Y-29668252D01*
X90129292Y-29642258D01*
X90139198Y-29635751D01*
X90177262Y-29613242D01*
X90191585Y-29598918D01*
X90206624Y-29586074D01*
X90208331Y-29584834D01*
X90223007Y-29574172D01*
X90251203Y-29540086D01*
X90259172Y-29531330D01*
X93129060Y-26661443D01*
X93141498Y-26651480D01*
X93141310Y-26651253D01*
X93147416Y-26646201D01*
X93147415Y-26646201D01*
X93147418Y-26646200D01*
X93194061Y-26596528D01*
X93196751Y-26593752D01*
X93216535Y-26573970D01*
X93219014Y-26570773D01*
X93226711Y-26561759D01*
X93256986Y-26529521D01*
X93256989Y-26529516D01*
X93261647Y-26523106D01*
X93262970Y-26524067D01*
X93306720Y-26480559D01*
X93376136Y-26465659D01*
X93442587Y-26490654D01*
G37*
%TD.AperFunction*%
%TA.AperFunction,Conductor*%
G36*
X61827526Y-27257502D02*
G01*
X61874019Y-27311158D01*
X61884123Y-27381432D01*
X61854629Y-27446012D01*
X61848515Y-27452579D01*
X61067206Y-28233888D01*
X60841836Y-28459258D01*
X60829401Y-28469221D01*
X60829589Y-28469448D01*
X60823479Y-28474502D01*
X60776870Y-28524135D01*
X60774120Y-28526973D01*
X60754363Y-28546731D01*
X60751874Y-28549939D01*
X60744188Y-28558936D01*
X60713918Y-28591173D01*
X60713911Y-28591183D01*
X60704151Y-28608935D01*
X60693303Y-28625450D01*
X60680886Y-28641458D01*
X60663324Y-28682040D01*
X60658104Y-28692695D01*
X60636805Y-28731439D01*
X60636803Y-28731444D01*
X60631767Y-28751059D01*
X60625364Y-28769762D01*
X60617319Y-28788352D01*
X60610401Y-28832025D01*
X60607995Y-28843642D01*
X60597000Y-28886468D01*
X60597000Y-28906723D01*
X60595449Y-28926433D01*
X60594188Y-28934397D01*
X60592280Y-28946443D01*
X60593449Y-28958807D01*
X60596441Y-28990461D01*
X60597000Y-29002319D01*
X60597000Y-33729705D01*
X60576998Y-33797826D01*
X60523342Y-33844319D01*
X60453068Y-33854423D01*
X60388488Y-33824929D01*
X60381905Y-33818800D01*
X59003944Y-32440839D01*
X58993979Y-32428401D01*
X58993752Y-32428590D01*
X58988701Y-32422484D01*
X58988700Y-32422482D01*
X58964094Y-32399376D01*
X58939048Y-32375856D01*
X58936204Y-32373099D01*
X58916477Y-32353371D01*
X58916471Y-32353366D01*
X58913267Y-32350880D01*
X58904256Y-32343183D01*
X58872025Y-32312917D01*
X58872019Y-32312913D01*
X58854263Y-32303151D01*
X58837747Y-32292302D01*
X58821741Y-32279886D01*
X58781164Y-32262327D01*
X58770507Y-32257105D01*
X58731763Y-32235806D01*
X58731760Y-32235805D01*
X58712136Y-32230766D01*
X58693436Y-32224364D01*
X58674845Y-32216319D01*
X58674843Y-32216318D01*
X58674841Y-32216318D01*
X58631174Y-32209401D01*
X58619555Y-32206995D01*
X58576730Y-32196000D01*
X58556476Y-32196000D01*
X58536766Y-32194449D01*
X58516757Y-32191280D01*
X58472739Y-32195441D01*
X58460881Y-32196000D01*
X58145500Y-32196000D01*
X58077379Y-32175998D01*
X58030886Y-32122342D01*
X58019500Y-32070000D01*
X58019500Y-31884000D01*
X57296000Y-31884000D01*
X57227879Y-31863998D01*
X57181386Y-31810342D01*
X57170000Y-31758000D01*
X57170000Y-31669336D01*
X57190002Y-31601215D01*
X57243658Y-31554722D01*
X57292041Y-31543398D01*
X57321488Y-31542472D01*
X57328187Y-31542262D01*
X57332145Y-31542200D01*
X57360051Y-31542200D01*
X57360056Y-31542200D01*
X57364067Y-31541692D01*
X57375899Y-31540761D01*
X57420089Y-31539373D01*
X57439547Y-31533719D01*
X57458894Y-31529713D01*
X57478997Y-31527174D01*
X57520110Y-31510895D01*
X57531330Y-31507053D01*
X57556113Y-31499854D01*
X57573791Y-31494719D01*
X57573795Y-31494717D01*
X57591226Y-31484408D01*
X57608980Y-31475709D01*
X57627817Y-31468252D01*
X57663592Y-31442258D01*
X57673498Y-31435751D01*
X57711562Y-31413242D01*
X57711567Y-31413236D01*
X57715171Y-31410442D01*
X57781256Y-31384494D01*
X57792400Y-31384000D01*
X58019500Y-31384000D01*
X58019500Y-31185414D01*
X58019498Y-31185393D01*
X58018168Y-31173020D01*
X58030770Y-31103151D01*
X58054344Y-31070458D01*
X59322557Y-29802245D01*
X59334992Y-29792284D01*
X59334805Y-29792057D01*
X59340916Y-29787001D01*
X59340915Y-29787001D01*
X59340918Y-29787000D01*
X59387576Y-29737312D01*
X59390267Y-29734535D01*
X59410034Y-29714770D01*
X59412517Y-29711567D01*
X59420208Y-29702562D01*
X59450486Y-29670321D01*
X59460245Y-29652567D01*
X59471097Y-29636046D01*
X59483513Y-29620041D01*
X59501068Y-29579470D01*
X59506292Y-29568808D01*
X59511778Y-29558829D01*
X59527595Y-29530060D01*
X59532633Y-29510435D01*
X59539038Y-29491730D01*
X59547081Y-29473145D01*
X59553996Y-29429476D01*
X59556403Y-29417856D01*
X59561641Y-29397459D01*
X59567400Y-29375030D01*
X59567400Y-29354769D01*
X59568951Y-29335058D01*
X59570333Y-29326332D01*
X59572119Y-29315057D01*
X59567959Y-29271045D01*
X59567400Y-29259188D01*
X59567400Y-27520966D01*
X59587402Y-27452845D01*
X59641058Y-27406352D01*
X59658238Y-27399972D01*
X59785001Y-27363145D01*
X59928207Y-27278453D01*
X59929923Y-27276737D01*
X59932256Y-27274405D01*
X59994568Y-27240379D01*
X60021351Y-27237500D01*
X61759405Y-27237500D01*
X61827526Y-27257502D01*
G37*
%TD.AperFunction*%
%TA.AperFunction,Conductor*%
G36*
X49931770Y-27257502D02*
G01*
X49952744Y-27274405D01*
X49956789Y-27278450D01*
X49956796Y-27278455D01*
X50099994Y-27363143D01*
X50099997Y-27363143D01*
X50099999Y-27363145D01*
X50259769Y-27409562D01*
X50297088Y-27412499D01*
X50297089Y-27412500D01*
X50297098Y-27412500D01*
X50374634Y-27412500D01*
X50442755Y-27432502D01*
X50476568Y-27464437D01*
X50485628Y-27476907D01*
X50485629Y-27476908D01*
X50485630Y-27476909D01*
X50519698Y-27505092D01*
X50528478Y-27513082D01*
X54069862Y-31054466D01*
X54103888Y-31116778D01*
X54106045Y-31157027D01*
X54103001Y-31185345D01*
X54103000Y-31185367D01*
X54103000Y-32070000D01*
X54082998Y-32138121D01*
X54029342Y-32184614D01*
X53977000Y-32196000D01*
X42905500Y-32196000D01*
X42837379Y-32175998D01*
X42790886Y-32122342D01*
X42779500Y-32070000D01*
X42779500Y-31884000D01*
X42056000Y-31884000D01*
X41987879Y-31863998D01*
X41941386Y-31810342D01*
X41930000Y-31758000D01*
X41930000Y-31669421D01*
X41950002Y-31601300D01*
X42003658Y-31554807D01*
X42052040Y-31543483D01*
X42090886Y-31542262D01*
X42094845Y-31542200D01*
X42122751Y-31542200D01*
X42122756Y-31542200D01*
X42126767Y-31541692D01*
X42138599Y-31540761D01*
X42182789Y-31539373D01*
X42202247Y-31533719D01*
X42221594Y-31529713D01*
X42241697Y-31527174D01*
X42282810Y-31510895D01*
X42294030Y-31507053D01*
X42318813Y-31499854D01*
X42336491Y-31494719D01*
X42336495Y-31494717D01*
X42353926Y-31484408D01*
X42371680Y-31475709D01*
X42390517Y-31468252D01*
X42426292Y-31442258D01*
X42436198Y-31435751D01*
X42474262Y-31413242D01*
X42474267Y-31413236D01*
X42477871Y-31410442D01*
X42543956Y-31384494D01*
X42555100Y-31384000D01*
X42779500Y-31384000D01*
X42779500Y-31185414D01*
X42779499Y-31185398D01*
X42778430Y-31175460D01*
X42791031Y-31105591D01*
X42814603Y-31072899D01*
X46613102Y-27274402D01*
X46675412Y-27240379D01*
X46702195Y-27237500D01*
X49863649Y-27237500D01*
X49931770Y-27257502D01*
G37*
%TD.AperFunction*%
%TA.AperFunction,Conductor*%
G36*
X104430993Y-21610502D02*
G01*
X104477486Y-21664158D01*
X104487590Y-21734432D01*
X104458096Y-21799012D01*
X104440262Y-21815932D01*
X104400479Y-21846896D01*
X104393654Y-21851850D01*
X104391701Y-21853171D01*
X104336953Y-21890174D01*
X104307382Y-21918515D01*
X104297594Y-21926975D01*
X104267784Y-21950178D01*
X104267778Y-21950183D01*
X104221254Y-22000720D01*
X104215741Y-22006345D01*
X104163858Y-22056071D01*
X104141544Y-22086240D01*
X104132950Y-22096643D01*
X104109686Y-22121916D01*
X104109682Y-22121921D01*
X104070231Y-22182305D01*
X104066053Y-22188311D01*
X104021286Y-22248840D01*
X104005940Y-22279275D01*
X103998919Y-22291456D01*
X103982021Y-22317321D01*
X103982012Y-22317338D01*
X103951663Y-22386524D01*
X103948787Y-22392631D01*
X103913341Y-22462936D01*
X103904371Y-22492224D01*
X103899286Y-22505930D01*
X103888253Y-22531086D01*
X103888251Y-22531091D01*
X103868859Y-22607668D01*
X103867192Y-22613630D01*
X103843138Y-22692177D01*
X103843136Y-22692184D01*
X103839681Y-22719159D01*
X103836848Y-22734073D01*
X103830950Y-22757365D01*
X103830947Y-22757383D01*
X103824140Y-22839523D01*
X103823551Y-22845118D01*
X103812681Y-22930009D01*
X103813689Y-22953740D01*
X103813372Y-22969481D01*
X103811673Y-22989997D01*
X103811673Y-22989998D01*
X103818763Y-23075576D01*
X103819079Y-23080631D01*
X103822856Y-23169551D01*
X103827136Y-23189407D01*
X103829533Y-23205545D01*
X103830948Y-23222622D01*
X103830948Y-23222624D01*
X103852865Y-23309174D01*
X103853892Y-23313557D01*
X103873370Y-23403933D01*
X103873371Y-23403935D01*
X103879660Y-23419588D01*
X103884887Y-23435626D01*
X103887851Y-23447327D01*
X103888251Y-23448907D01*
X103905304Y-23487784D01*
X103925490Y-23533804D01*
X103927015Y-23537436D01*
X103962761Y-23626390D01*
X103962771Y-23626412D01*
X103969805Y-23637836D01*
X103977892Y-23653270D01*
X103982014Y-23662666D01*
X103982018Y-23662673D01*
X104034604Y-23743162D01*
X104036413Y-23746014D01*
X104074445Y-23807782D01*
X104088475Y-23830567D01*
X104088475Y-23830568D01*
X104095067Y-23838058D01*
X104105957Y-23852376D01*
X104109685Y-23858082D01*
X104109693Y-23858091D01*
X104177124Y-23931341D01*
X104179007Y-23933433D01*
X104246872Y-24010543D01*
X104246883Y-24010553D01*
X104251956Y-24014649D01*
X104265496Y-24027338D01*
X104267772Y-24029810D01*
X104267775Y-24029812D01*
X104267780Y-24029818D01*
X104314768Y-24066390D01*
X104349084Y-24093100D01*
X104350848Y-24094499D01*
X104433424Y-24161175D01*
X104436113Y-24162677D01*
X104451123Y-24172627D01*
X104451980Y-24173188D01*
X104451983Y-24173190D01*
X104545646Y-24223877D01*
X104547002Y-24224622D01*
X104642740Y-24278105D01*
X104642748Y-24278107D01*
X104646831Y-24279954D01*
X104652399Y-24282427D01*
X104652502Y-24282194D01*
X104657275Y-24284288D01*
X104675076Y-24290399D01*
X104761364Y-24320022D01*
X104762121Y-24320285D01*
X104867442Y-24357498D01*
X104868812Y-24357982D01*
X104870426Y-24358402D01*
X104876565Y-24359703D01*
X104878034Y-24360075D01*
X104878049Y-24360080D01*
X104990044Y-24378768D01*
X104990141Y-24378784D01*
X105105119Y-24398500D01*
X105105122Y-24398500D01*
X105341712Y-24398500D01*
X105395929Y-24389452D01*
X105405976Y-24388188D01*
X105463898Y-24383259D01*
X105513495Y-24370344D01*
X105524505Y-24367996D01*
X105571951Y-24360080D01*
X105627190Y-24341115D01*
X105636339Y-24338358D01*
X105695924Y-24322844D01*
X105739523Y-24303135D01*
X105750472Y-24298792D01*
X105792727Y-24284287D01*
X105847117Y-24254851D01*
X105855148Y-24250869D01*
X105914402Y-24224086D01*
X105951178Y-24199228D01*
X105961761Y-24192809D01*
X105998017Y-24173190D01*
X106049527Y-24133096D01*
X106056337Y-24128153D01*
X106113047Y-24089825D01*
X106142622Y-24061478D01*
X106152397Y-24053028D01*
X106182220Y-24029818D01*
X106228751Y-23979270D01*
X106234235Y-23973675D01*
X106286144Y-23923925D01*
X106308450Y-23893763D01*
X106317050Y-23883353D01*
X106340314Y-23858083D01*
X106379769Y-23797689D01*
X106383941Y-23791693D01*
X106386144Y-23788715D01*
X106428715Y-23731157D01*
X106444059Y-23700722D01*
X106451083Y-23688536D01*
X106467984Y-23662669D01*
X106498336Y-23593470D01*
X106501214Y-23587362D01*
X106536657Y-23517067D01*
X106545626Y-23487776D01*
X106550711Y-23474069D01*
X106561749Y-23448907D01*
X106581146Y-23372304D01*
X106582794Y-23366409D01*
X106606864Y-23287815D01*
X106610318Y-23260837D01*
X106613149Y-23245930D01*
X106619051Y-23222626D01*
X106625860Y-23140439D01*
X106626445Y-23134895D01*
X106637318Y-23049995D01*
X106636310Y-23026270D01*
X106636625Y-23010527D01*
X106638327Y-22990000D01*
X106631233Y-22904392D01*
X106630922Y-22899437D01*
X106627143Y-22810449D01*
X106622861Y-22790585D01*
X106620466Y-22774460D01*
X106619051Y-22757374D01*
X106597129Y-22670808D01*
X106596109Y-22666453D01*
X106576630Y-22576068D01*
X106570340Y-22560416D01*
X106565110Y-22544368D01*
X106561749Y-22531093D01*
X106531851Y-22462933D01*
X106524509Y-22446195D01*
X106522982Y-22442561D01*
X106487232Y-22353594D01*
X106487231Y-22353592D01*
X106480199Y-22342172D01*
X106472100Y-22326716D01*
X106467982Y-22317327D01*
X106415390Y-22236829D01*
X106413580Y-22233976D01*
X106399560Y-22211206D01*
X106361525Y-22149433D01*
X106361526Y-22149433D01*
X106354936Y-22141946D01*
X106344038Y-22127617D01*
X106340312Y-22121914D01*
X106272874Y-22048657D01*
X106270990Y-22046565D01*
X106203120Y-21969450D01*
X106203119Y-21969449D01*
X106198044Y-21965352D01*
X106184488Y-21952646D01*
X106182218Y-21950180D01*
X106182215Y-21950177D01*
X106100915Y-21886898D01*
X106099150Y-21885499D01*
X106012412Y-21815462D01*
X106013762Y-21813789D01*
X105974397Y-21766175D01*
X105965923Y-21695686D01*
X105996903Y-21631805D01*
X106057502Y-21594815D01*
X106090192Y-21590500D01*
X109812872Y-21590500D01*
X109880993Y-21610502D01*
X109927486Y-21664158D01*
X109937590Y-21734432D01*
X109908096Y-21799012D01*
X109890262Y-21815932D01*
X109850479Y-21846896D01*
X109843654Y-21851850D01*
X109841701Y-21853171D01*
X109786953Y-21890174D01*
X109757382Y-21918515D01*
X109747594Y-21926975D01*
X109717784Y-21950178D01*
X109717778Y-21950183D01*
X109671254Y-22000720D01*
X109665741Y-22006345D01*
X109613858Y-22056071D01*
X109591544Y-22086240D01*
X109582950Y-22096643D01*
X109559686Y-22121916D01*
X109559682Y-22121921D01*
X109520231Y-22182305D01*
X109516053Y-22188311D01*
X109471286Y-22248840D01*
X109455940Y-22279275D01*
X109448919Y-22291456D01*
X109432021Y-22317321D01*
X109432012Y-22317338D01*
X109401663Y-22386524D01*
X109398787Y-22392631D01*
X109363341Y-22462936D01*
X109354371Y-22492224D01*
X109349286Y-22505930D01*
X109338253Y-22531086D01*
X109338251Y-22531091D01*
X109318859Y-22607668D01*
X109317192Y-22613630D01*
X109293138Y-22692177D01*
X109293136Y-22692184D01*
X109289681Y-22719159D01*
X109286848Y-22734073D01*
X109280950Y-22757365D01*
X109280947Y-22757383D01*
X109274140Y-22839523D01*
X109273551Y-22845118D01*
X109262681Y-22930009D01*
X109263689Y-22953740D01*
X109263372Y-22969481D01*
X109261673Y-22989997D01*
X109261673Y-22989998D01*
X109268763Y-23075576D01*
X109269079Y-23080631D01*
X109272856Y-23169551D01*
X109277136Y-23189407D01*
X109279533Y-23205545D01*
X109280948Y-23222622D01*
X109280948Y-23222624D01*
X109302865Y-23309174D01*
X109303892Y-23313557D01*
X109323370Y-23403933D01*
X109323371Y-23403935D01*
X109329660Y-23419588D01*
X109334887Y-23435626D01*
X109337851Y-23447327D01*
X109338251Y-23448907D01*
X109355304Y-23487784D01*
X109375490Y-23533804D01*
X109377015Y-23537436D01*
X109412761Y-23626390D01*
X109412771Y-23626412D01*
X109419805Y-23637836D01*
X109427892Y-23653270D01*
X109432014Y-23662666D01*
X109432018Y-23662673D01*
X109484604Y-23743162D01*
X109486413Y-23746014D01*
X109524445Y-23807782D01*
X109538475Y-23830567D01*
X109538475Y-23830568D01*
X109545067Y-23838058D01*
X109555957Y-23852376D01*
X109559685Y-23858082D01*
X109559693Y-23858091D01*
X109627124Y-23931341D01*
X109629007Y-23933433D01*
X109696872Y-24010543D01*
X109696883Y-24010553D01*
X109701956Y-24014649D01*
X109715496Y-24027338D01*
X109717772Y-24029810D01*
X109717775Y-24029812D01*
X109717780Y-24029818D01*
X109764768Y-24066390D01*
X109799084Y-24093100D01*
X109800848Y-24094499D01*
X109883424Y-24161175D01*
X109886113Y-24162677D01*
X109901123Y-24172627D01*
X109901980Y-24173188D01*
X109901983Y-24173190D01*
X109995646Y-24223877D01*
X109997002Y-24224622D01*
X110092740Y-24278105D01*
X110092748Y-24278107D01*
X110096831Y-24279954D01*
X110102399Y-24282427D01*
X110102502Y-24282194D01*
X110107275Y-24284288D01*
X110125076Y-24290399D01*
X110211364Y-24320022D01*
X110212121Y-24320285D01*
X110317442Y-24357498D01*
X110318812Y-24357982D01*
X110320426Y-24358402D01*
X110326565Y-24359703D01*
X110328034Y-24360075D01*
X110328049Y-24360080D01*
X110440044Y-24378768D01*
X110440141Y-24378784D01*
X110555119Y-24398500D01*
X110555122Y-24398500D01*
X110791712Y-24398500D01*
X110845929Y-24389452D01*
X110855976Y-24388188D01*
X110913898Y-24383259D01*
X110963495Y-24370344D01*
X110974505Y-24367996D01*
X111021951Y-24360080D01*
X111077190Y-24341115D01*
X111086339Y-24338358D01*
X111145924Y-24322844D01*
X111189523Y-24303135D01*
X111200472Y-24298792D01*
X111242727Y-24284287D01*
X111297117Y-24254851D01*
X111305148Y-24250869D01*
X111364402Y-24224086D01*
X111401178Y-24199228D01*
X111411761Y-24192809D01*
X111448017Y-24173190D01*
X111499527Y-24133096D01*
X111506337Y-24128153D01*
X111563047Y-24089825D01*
X111592622Y-24061478D01*
X111602397Y-24053028D01*
X111632220Y-24029818D01*
X111678751Y-23979270D01*
X111684235Y-23973675D01*
X111736144Y-23923925D01*
X111758450Y-23893763D01*
X111767050Y-23883353D01*
X111790314Y-23858083D01*
X111829769Y-23797689D01*
X111833941Y-23791693D01*
X111836144Y-23788715D01*
X111878715Y-23731157D01*
X111894059Y-23700722D01*
X111901083Y-23688536D01*
X111917984Y-23662669D01*
X111948336Y-23593470D01*
X111951214Y-23587362D01*
X111986657Y-23517067D01*
X111995626Y-23487776D01*
X112000711Y-23474069D01*
X112011749Y-23448907D01*
X112031146Y-23372304D01*
X112032794Y-23366409D01*
X112056864Y-23287815D01*
X112060318Y-23260837D01*
X112063149Y-23245930D01*
X112069051Y-23222626D01*
X112075860Y-23140439D01*
X112076445Y-23134895D01*
X112087318Y-23049995D01*
X112086310Y-23026270D01*
X112086625Y-23010527D01*
X112088327Y-22990000D01*
X112081233Y-22904392D01*
X112080922Y-22899437D01*
X112077143Y-22810449D01*
X112072861Y-22790585D01*
X112070466Y-22774460D01*
X112069051Y-22757374D01*
X112047129Y-22670808D01*
X112046109Y-22666453D01*
X112026630Y-22576068D01*
X112020340Y-22560416D01*
X112015110Y-22544368D01*
X112011749Y-22531093D01*
X111981851Y-22462933D01*
X111974509Y-22446195D01*
X111972982Y-22442561D01*
X111937232Y-22353594D01*
X111937231Y-22353592D01*
X111930199Y-22342172D01*
X111922100Y-22326716D01*
X111917982Y-22317327D01*
X111865390Y-22236829D01*
X111863580Y-22233976D01*
X111849560Y-22211206D01*
X111811525Y-22149433D01*
X111811526Y-22149433D01*
X111804936Y-22141946D01*
X111794038Y-22127617D01*
X111790312Y-22121914D01*
X111722874Y-22048657D01*
X111720990Y-22046565D01*
X111653120Y-21969450D01*
X111653119Y-21969449D01*
X111648044Y-21965352D01*
X111634488Y-21952646D01*
X111632218Y-21950180D01*
X111632215Y-21950177D01*
X111550915Y-21886898D01*
X111549150Y-21885499D01*
X111462412Y-21815462D01*
X111463762Y-21813789D01*
X111424397Y-21766175D01*
X111415923Y-21695686D01*
X111446903Y-21631805D01*
X111507502Y-21594815D01*
X111540192Y-21590500D01*
X115893069Y-21590500D01*
X115961190Y-21610502D01*
X116007683Y-21664158D01*
X116017787Y-21734432D01*
X115988293Y-21799012D01*
X115970460Y-21815932D01*
X115917097Y-21857465D01*
X115764674Y-22023041D01*
X115641580Y-22211451D01*
X115551179Y-22417543D01*
X115551176Y-22417550D01*
X115503455Y-22605999D01*
X115503456Y-22606000D01*
X116396999Y-22606000D01*
X116371318Y-22645960D01*
X116330000Y-22786673D01*
X116330000Y-22933327D01*
X116371318Y-23074040D01*
X116396999Y-23114000D01*
X115503455Y-23114000D01*
X115551176Y-23302449D01*
X115551179Y-23302456D01*
X115641580Y-23508548D01*
X115764674Y-23696958D01*
X115917097Y-23862534D01*
X116094698Y-24000767D01*
X116094704Y-24000771D01*
X116128207Y-24018902D01*
X116178597Y-24068915D01*
X116193949Y-24138232D01*
X116169388Y-24204845D01*
X116128207Y-24240528D01*
X116094430Y-24258807D01*
X116094424Y-24258811D01*
X115916762Y-24397091D01*
X115764279Y-24562729D01*
X115764275Y-24562734D01*
X115641141Y-24751206D01*
X115550703Y-24957386D01*
X115550702Y-24957387D01*
X115495437Y-25175624D01*
X115495436Y-25175630D01*
X115495436Y-25175632D01*
X115476844Y-25400000D01*
X115495298Y-25622706D01*
X115495437Y-25624375D01*
X115550702Y-25842612D01*
X115550703Y-25842613D01*
X115550704Y-25842616D01*
X115590468Y-25933270D01*
X115597799Y-25949982D01*
X115606845Y-26020400D01*
X115576384Y-26084530D01*
X115556478Y-26102527D01*
X115546294Y-26109926D01*
X115518115Y-26143988D01*
X115510128Y-26152765D01*
X115188299Y-26474596D01*
X115125987Y-26508621D01*
X115099203Y-26511501D01*
X111711681Y-26511501D01*
X111643560Y-26491499D01*
X111597067Y-26437843D01*
X111586963Y-26367569D01*
X111588839Y-26357468D01*
X111596198Y-26325222D01*
X111597305Y-26320759D01*
X111619115Y-26239371D01*
X111620153Y-26227499D01*
X111620424Y-26224405D01*
X111623103Y-26207344D01*
X111627151Y-26189615D01*
X111630917Y-26105739D01*
X111631266Y-26100469D01*
X111638307Y-26020000D01*
X111636694Y-26001573D01*
X111636343Y-25984942D01*
X111636359Y-25984589D01*
X111637315Y-25963309D01*
X111626513Y-25883579D01*
X111625852Y-25877647D01*
X111625227Y-25870502D01*
X111619115Y-25800629D01*
X111613429Y-25779409D01*
X111610279Y-25763729D01*
X111606906Y-25738825D01*
X111583103Y-25665568D01*
X111581232Y-25659252D01*
X111578805Y-25650196D01*
X111562120Y-25587924D01*
X111562118Y-25587921D01*
X111562117Y-25587916D01*
X111551375Y-25564882D01*
X111545741Y-25550581D01*
X111536903Y-25523379D01*
X111502030Y-25458574D01*
X111498820Y-25452178D01*
X111469056Y-25388347D01*
X111452481Y-25364677D01*
X111444748Y-25352128D01*
X111429556Y-25323894D01*
X111398682Y-25285179D01*
X111385832Y-25269065D01*
X111381129Y-25262775D01*
X111379748Y-25260803D01*
X111355749Y-25226528D01*
X111342753Y-25207967D01*
X111342746Y-25207959D01*
X111319882Y-25185095D01*
X111310466Y-25174559D01*
X111288317Y-25146785D01*
X111288314Y-25146782D01*
X111238094Y-25102906D01*
X111231930Y-25097143D01*
X111187038Y-25052251D01*
X111187037Y-25052250D01*
X111187036Y-25052249D01*
X111187033Y-25052246D01*
X111157699Y-25031707D01*
X111147078Y-25023389D01*
X111117718Y-24997737D01*
X111117715Y-24997735D01*
X111063469Y-24965324D01*
X111055825Y-24960373D01*
X111006659Y-24925946D01*
X111006653Y-24925943D01*
X110971055Y-24909344D01*
X110959688Y-24903318D01*
X110935183Y-24888677D01*
X110923254Y-24881549D01*
X110923252Y-24881548D01*
X110923251Y-24881547D01*
X110923250Y-24881547D01*
X110902073Y-24873599D01*
X110867308Y-24860551D01*
X110858336Y-24856782D01*
X110807079Y-24832881D01*
X110807065Y-24832876D01*
X110765800Y-24821819D01*
X110754139Y-24818079D01*
X110711160Y-24801948D01*
X110655780Y-24791897D01*
X110645672Y-24789630D01*
X110594371Y-24775884D01*
X110548345Y-24771857D01*
X110536832Y-24770312D01*
X110488270Y-24761500D01*
X110488267Y-24761500D01*
X110435451Y-24761500D01*
X110424471Y-24761021D01*
X110420631Y-24760685D01*
X110375000Y-24756693D01*
X110374999Y-24756693D01*
X110374998Y-24756693D01*
X110324362Y-24761122D01*
X110319075Y-24761472D01*
X110318502Y-24761497D01*
X110263887Y-24766412D01*
X110263578Y-24766439D01*
X110153673Y-24776055D01*
X110151299Y-24776370D01*
X110149381Y-24776718D01*
X110045123Y-24805491D01*
X110044216Y-24805737D01*
X109942927Y-24832878D01*
X109938350Y-24834544D01*
X109932720Y-24836342D01*
X109931005Y-24836986D01*
X109836634Y-24882431D01*
X109835218Y-24883102D01*
X109743353Y-24925940D01*
X109738589Y-24928691D01*
X109738512Y-24928559D01*
X109727690Y-24934897D01*
X109726914Y-24935270D01*
X109726901Y-24935278D01*
X109644993Y-24994787D01*
X109643206Y-24996062D01*
X109562956Y-25052255D01*
X109562138Y-25053073D01*
X109547133Y-25065888D01*
X109543645Y-25068422D01*
X109543640Y-25068426D01*
X109543637Y-25068429D01*
X109512536Y-25100958D01*
X109476077Y-25139090D01*
X109474103Y-25141108D01*
X109407250Y-25207961D01*
X109404597Y-25211751D01*
X109392477Y-25226528D01*
X109387088Y-25232164D01*
X109387086Y-25232168D01*
X109335145Y-25310855D01*
X109333203Y-25313711D01*
X109280944Y-25388346D01*
X109277519Y-25395689D01*
X109268495Y-25411825D01*
X109262291Y-25421225D01*
X109262288Y-25421230D01*
X109226582Y-25504768D01*
X109224918Y-25508494D01*
X109187879Y-25587925D01*
X109184889Y-25599084D01*
X109179049Y-25615977D01*
X109173257Y-25629528D01*
X109153815Y-25714709D01*
X109152681Y-25719279D01*
X109130885Y-25800625D01*
X109130884Y-25800635D01*
X109129574Y-25815603D01*
X109126897Y-25832646D01*
X109122849Y-25850382D01*
X109122848Y-25850389D01*
X109119083Y-25934218D01*
X109118731Y-25939543D01*
X109111693Y-26020001D01*
X109113304Y-26038424D01*
X109113656Y-26055049D01*
X109112684Y-26076686D01*
X109112684Y-26076688D01*
X109123487Y-26156435D01*
X109124147Y-26162365D01*
X109130884Y-26239365D01*
X109130885Y-26239375D01*
X109136568Y-26260582D01*
X109139720Y-26276276D01*
X109143092Y-26301170D01*
X109143093Y-26301175D01*
X109151957Y-26328453D01*
X109154540Y-26336404D01*
X109157842Y-26346564D01*
X109159870Y-26417531D01*
X109123208Y-26478330D01*
X109059496Y-26509655D01*
X109038009Y-26511501D01*
X106861681Y-26511501D01*
X106793560Y-26491499D01*
X106747067Y-26437843D01*
X106736963Y-26367569D01*
X106738839Y-26357468D01*
X106746198Y-26325222D01*
X106747305Y-26320759D01*
X106769115Y-26239371D01*
X106770153Y-26227499D01*
X106770424Y-26224405D01*
X106773103Y-26207344D01*
X106777151Y-26189615D01*
X106780917Y-26105739D01*
X106781266Y-26100469D01*
X106788307Y-26020000D01*
X106786694Y-26001573D01*
X106786343Y-25984942D01*
X106786359Y-25984589D01*
X106787315Y-25963309D01*
X106776513Y-25883579D01*
X106775852Y-25877647D01*
X106775227Y-25870502D01*
X106769115Y-25800629D01*
X106763429Y-25779409D01*
X106760279Y-25763729D01*
X106756906Y-25738825D01*
X106733103Y-25665568D01*
X106731232Y-25659252D01*
X106728805Y-25650196D01*
X106712120Y-25587924D01*
X106712118Y-25587921D01*
X106712117Y-25587916D01*
X106701375Y-25564882D01*
X106695741Y-25550581D01*
X106686903Y-25523379D01*
X106652030Y-25458574D01*
X106648820Y-25452178D01*
X106619056Y-25388347D01*
X106602481Y-25364677D01*
X106594748Y-25352128D01*
X106579556Y-25323894D01*
X106548682Y-25285179D01*
X106535832Y-25269065D01*
X106531129Y-25262775D01*
X106529748Y-25260803D01*
X106505749Y-25226528D01*
X106492753Y-25207967D01*
X106492746Y-25207959D01*
X106469882Y-25185095D01*
X106460466Y-25174559D01*
X106438317Y-25146785D01*
X106438314Y-25146782D01*
X106388094Y-25102906D01*
X106381930Y-25097143D01*
X106337038Y-25052251D01*
X106337037Y-25052250D01*
X106337036Y-25052249D01*
X106337033Y-25052246D01*
X106307699Y-25031707D01*
X106297078Y-25023389D01*
X106267718Y-24997737D01*
X106267715Y-24997735D01*
X106213469Y-24965324D01*
X106205825Y-24960373D01*
X106156659Y-24925946D01*
X106156653Y-24925943D01*
X106121055Y-24909344D01*
X106109688Y-24903318D01*
X106085183Y-24888677D01*
X106073254Y-24881549D01*
X106073252Y-24881548D01*
X106073251Y-24881547D01*
X106073250Y-24881547D01*
X106052073Y-24873599D01*
X106017308Y-24860551D01*
X106008336Y-24856782D01*
X105957079Y-24832881D01*
X105957065Y-24832876D01*
X105915800Y-24821819D01*
X105904139Y-24818079D01*
X105861160Y-24801948D01*
X105805780Y-24791897D01*
X105795672Y-24789630D01*
X105744371Y-24775884D01*
X105698345Y-24771857D01*
X105686832Y-24770312D01*
X105638270Y-24761500D01*
X105638267Y-24761500D01*
X105585451Y-24761500D01*
X105574471Y-24761021D01*
X105570631Y-24760685D01*
X105525000Y-24756693D01*
X105524999Y-24756693D01*
X105524998Y-24756693D01*
X105474362Y-24761122D01*
X105469075Y-24761472D01*
X105468502Y-24761497D01*
X105413887Y-24766412D01*
X105413578Y-24766439D01*
X105303673Y-24776055D01*
X105301299Y-24776370D01*
X105299381Y-24776718D01*
X105195123Y-24805491D01*
X105194216Y-24805737D01*
X105092927Y-24832878D01*
X105088350Y-24834544D01*
X105082720Y-24836342D01*
X105081005Y-24836986D01*
X104986634Y-24882431D01*
X104985218Y-24883102D01*
X104893353Y-24925940D01*
X104888589Y-24928691D01*
X104888512Y-24928559D01*
X104877690Y-24934897D01*
X104876914Y-24935270D01*
X104876901Y-24935278D01*
X104794993Y-24994787D01*
X104793206Y-24996062D01*
X104712956Y-25052255D01*
X104712138Y-25053073D01*
X104697133Y-25065888D01*
X104693645Y-25068422D01*
X104693640Y-25068426D01*
X104693637Y-25068429D01*
X104662536Y-25100958D01*
X104626077Y-25139090D01*
X104624103Y-25141108D01*
X104557250Y-25207961D01*
X104554597Y-25211751D01*
X104542477Y-25226528D01*
X104537088Y-25232164D01*
X104537086Y-25232168D01*
X104485145Y-25310855D01*
X104483203Y-25313711D01*
X104430944Y-25388346D01*
X104427519Y-25395689D01*
X104418495Y-25411825D01*
X104412291Y-25421225D01*
X104412288Y-25421230D01*
X104376582Y-25504768D01*
X104374918Y-25508494D01*
X104337879Y-25587925D01*
X104334889Y-25599084D01*
X104329049Y-25615977D01*
X104323257Y-25629528D01*
X104303815Y-25714709D01*
X104302681Y-25719279D01*
X104280885Y-25800625D01*
X104280884Y-25800635D01*
X104279574Y-25815603D01*
X104276897Y-25832646D01*
X104272849Y-25850382D01*
X104272848Y-25850389D01*
X104269083Y-25934218D01*
X104268731Y-25939543D01*
X104261693Y-26020001D01*
X104263304Y-26038424D01*
X104263656Y-26055049D01*
X104262684Y-26076686D01*
X104262684Y-26076688D01*
X104273487Y-26156435D01*
X104274147Y-26162365D01*
X104280884Y-26239365D01*
X104280885Y-26239375D01*
X104286568Y-26260582D01*
X104289720Y-26276276D01*
X104293092Y-26301170D01*
X104293093Y-26301175D01*
X104301957Y-26328453D01*
X104304540Y-26336404D01*
X104307842Y-26346564D01*
X104309870Y-26417531D01*
X104273208Y-26478330D01*
X104209496Y-26509655D01*
X104188009Y-26511501D01*
X103564996Y-26511501D01*
X103496875Y-26491499D01*
X103475901Y-26474596D01*
X100742644Y-23741339D01*
X100732679Y-23728901D01*
X100732452Y-23729090D01*
X100727401Y-23722984D01*
X100727400Y-23722982D01*
X100677748Y-23676356D01*
X100674905Y-23673600D01*
X100655177Y-23653871D01*
X100655171Y-23653866D01*
X100651967Y-23651380D01*
X100642956Y-23643683D01*
X100610725Y-23613417D01*
X100610719Y-23613413D01*
X100609107Y-23612527D01*
X100607395Y-23611586D01*
X100592963Y-23603651D01*
X100576447Y-23592802D01*
X100560441Y-23580386D01*
X100519864Y-23562827D01*
X100509207Y-23557605D01*
X100470463Y-23536306D01*
X100470460Y-23536305D01*
X100450836Y-23531266D01*
X100432136Y-23524864D01*
X100413545Y-23516819D01*
X100413542Y-23516818D01*
X100413541Y-23516818D01*
X100411149Y-23516123D01*
X100409497Y-23515068D01*
X100406273Y-23513673D01*
X100406498Y-23513152D01*
X100351314Y-23477909D01*
X100321639Y-23413412D01*
X100330917Y-23344514D01*
X100349296Y-23302616D01*
X100404564Y-23084368D01*
X100423156Y-22860000D01*
X100404564Y-22635632D01*
X100389480Y-22576067D01*
X100349297Y-22417387D01*
X100349296Y-22417386D01*
X100349296Y-22417384D01*
X100258860Y-22211209D01*
X100218500Y-22149433D01*
X100135724Y-22022734D01*
X100135720Y-22022729D01*
X100077513Y-21959501D01*
X99983240Y-21857094D01*
X99983234Y-21857089D01*
X99983233Y-21857088D01*
X99930356Y-21815931D01*
X99888885Y-21758306D01*
X99885152Y-21687408D01*
X99920342Y-21625746D01*
X99983282Y-21592898D01*
X100007747Y-21590500D01*
X104362872Y-21590500D01*
X104430993Y-21610502D01*
G37*
%TD.AperFunction*%
%TD*%
M02*
