%TF.GenerationSoftware,KiCad,Pcbnew,(6.0.9)*%
%TF.CreationDate,2023-08-23T16:54:36+02:00*%
%TF.ProjectId,pico-sst39sf0x0-pcb,7069636f-2d73-4737-9433-397366307830,rev?*%
%TF.SameCoordinates,Original*%
%TF.FileFunction,Copper,L1,Top*%
%TF.FilePolarity,Positive*%
%FSLAX46Y46*%
G04 Gerber Fmt 4.6, Leading zero omitted, Abs format (unit mm)*
G04 Created by KiCad (PCBNEW (6.0.9)) date 2023-08-23 16:54:36*
%MOMM*%
%LPD*%
G01*
G04 APERTURE LIST*
%TA.AperFunction,ComponentPad*%
%ADD10O,1.700000X1.700000*%
%TD*%
%TA.AperFunction,SMDPad,CuDef*%
%ADD11R,3.500000X1.700000*%
%TD*%
%TA.AperFunction,ComponentPad*%
%ADD12R,1.700000X1.700000*%
%TD*%
%TA.AperFunction,SMDPad,CuDef*%
%ADD13R,1.700000X3.500000*%
%TD*%
%TA.AperFunction,ComponentPad*%
%ADD14R,1.440000X2.000000*%
%TD*%
%TA.AperFunction,ComponentPad*%
%ADD15O,1.440000X2.000000*%
%TD*%
%TA.AperFunction,ComponentPad*%
%ADD16C,2.000000*%
%TD*%
%TA.AperFunction,ComponentPad*%
%ADD17C,1.600000*%
%TD*%
%TA.AperFunction,ComponentPad*%
%ADD18O,1.600000X1.600000*%
%TD*%
%TA.AperFunction,ComponentPad*%
%ADD19R,1.800000X1.800000*%
%TD*%
%TA.AperFunction,ComponentPad*%
%ADD20C,1.800000*%
%TD*%
%TA.AperFunction,ViaPad*%
%ADD21C,0.800000*%
%TD*%
%TA.AperFunction,Conductor*%
%ADD22C,0.250000*%
%TD*%
G04 APERTURE END LIST*
D10*
%TO.P,U5,1,GPIO0*%
%TO.N,LD0*%
X87630000Y-36830000D03*
D11*
X86730000Y-36830000D03*
%TO.P,U5,2,GPIO1*%
%TO.N,LD1*%
X86730000Y-39370000D03*
D10*
X87630000Y-39370000D03*
D12*
%TO.P,U5,3,GND*%
%TO.N,GND*%
X87630000Y-41910000D03*
D11*
X86730000Y-41910000D03*
D10*
%TO.P,U5,4,GPIO2*%
%TO.N,LD2*%
X87630000Y-44450000D03*
D11*
X86730000Y-44450000D03*
%TO.P,U5,5,GPIO3*%
%TO.N,LD3*%
X86730000Y-46990000D03*
D10*
X87630000Y-46990000D03*
D11*
%TO.P,U5,6,GPIO4*%
%TO.N,LD4*%
X86730000Y-49530000D03*
D10*
X87630000Y-49530000D03*
%TO.P,U5,7,GPIO5*%
%TO.N,LD5*%
X87630000Y-52070000D03*
D11*
X86730000Y-52070000D03*
%TO.P,U5,8,GND*%
%TO.N,GND*%
X86730000Y-54610000D03*
D12*
X87630000Y-54610000D03*
D10*
%TO.P,U5,9,GPIO6*%
%TO.N,LD6*%
X87630000Y-57150000D03*
D11*
X86730000Y-57150000D03*
%TO.P,U5,10,GPIO7*%
%TO.N,LD7*%
X86730000Y-59690000D03*
D10*
X87630000Y-59690000D03*
D11*
%TO.P,U5,11,GPIO8*%
%TO.N,LP0*%
X86730000Y-62230000D03*
D10*
X87630000Y-62230000D03*
D11*
%TO.P,U5,12,GPIO9*%
%TO.N,LP1*%
X86730000Y-64770000D03*
D10*
X87630000Y-64770000D03*
D11*
%TO.P,U5,13,GND*%
%TO.N,GND*%
X86730000Y-67310000D03*
D12*
X87630000Y-67310000D03*
D10*
%TO.P,U5,14,GPIO10*%
%TO.N,LP2*%
X87630000Y-69850000D03*
D11*
X86730000Y-69850000D03*
%TO.P,U5,15,GPIO11*%
%TO.N,LP3*%
X86730000Y-72390000D03*
D10*
X87630000Y-72390000D03*
%TO.P,U5,16,GPIO12*%
%TO.N,LP4*%
X87630000Y-74930000D03*
D11*
X86730000Y-74930000D03*
%TO.P,U5,17,GPIO13*%
%TO.N,LP5*%
X86730000Y-77470000D03*
D10*
X87630000Y-77470000D03*
D11*
%TO.P,U5,18,GND*%
%TO.N,GND*%
X86730000Y-80010000D03*
D12*
X87630000Y-80010000D03*
D10*
%TO.P,U5,19,GPIO14*%
%TO.N,LP6*%
X87630000Y-82550000D03*
D11*
X86730000Y-82550000D03*
%TO.P,U5,20,GPIO15*%
%TO.N,LP7*%
X86730000Y-85090000D03*
D10*
X87630000Y-85090000D03*
D11*
%TO.P,U5,21,GPIO16*%
%TO.N,~{LROE}*%
X106310000Y-85090000D03*
D10*
X105410000Y-85090000D03*
%TO.P,U5,22,GPIO17*%
%TO.N,LALS*%
X105410000Y-82550000D03*
D11*
X106310000Y-82550000D03*
D12*
%TO.P,U5,23,GND*%
%TO.N,GND*%
X105410000Y-80010000D03*
D11*
X106310000Y-80010000D03*
%TO.P,U5,24,GPIO18*%
%TO.N,LAHS*%
X106310000Y-77470000D03*
D10*
X105410000Y-77470000D03*
D11*
%TO.P,U5,25,GPIO19*%
%TO.N,LAUS*%
X106310000Y-74930000D03*
D10*
X105410000Y-74930000D03*
D11*
%TO.P,U5,26,GPIO20*%
%TO.N,~{LPGM}*%
X106310000Y-72390000D03*
D10*
X105410000Y-72390000D03*
%TO.P,U5,27,GPIO21*%
%TO.N,~{LCE}*%
X105410000Y-69850000D03*
D11*
X106310000Y-69850000D03*
D12*
%TO.P,U5,28,GND*%
%TO.N,GND*%
X105410000Y-67310000D03*
D11*
X106310000Y-67310000D03*
%TO.P,U5,29,GPIO22*%
%TO.N,~{LOE}*%
X106310000Y-64770000D03*
D10*
X105410000Y-64770000D03*
%TO.P,U5,30,RUN*%
%TO.N,RUN*%
X105410000Y-62230000D03*
D11*
X106310000Y-62230000D03*
D10*
%TO.P,U5,31,GPIO26_ADC0*%
%TO.N,GPIO26_3v3*%
X105410000Y-59690000D03*
D11*
X106310000Y-59690000D03*
D10*
%TO.P,U5,32,GPIO27_ADC1*%
%TO.N,GPIO27_3v3*%
X105410000Y-57150000D03*
D11*
X106310000Y-57150000D03*
%TO.P,U5,33,AGND*%
%TO.N,GND*%
X106310000Y-54610000D03*
D12*
X105410000Y-54610000D03*
D11*
%TO.P,U5,34,GPIO28_ADC2*%
%TO.N,unconnected-(U5-Pad34)*%
X106310000Y-52070000D03*
D10*
X105410000Y-52070000D03*
D11*
%TO.P,U5,35,ADC_VREF*%
%TO.N,unconnected-(U5-Pad35)*%
X106310000Y-49530000D03*
D10*
X105410000Y-49530000D03*
D11*
%TO.P,U5,36,3V3*%
%TO.N,+3V3*%
X106310000Y-46990000D03*
D10*
X105410000Y-46990000D03*
%TO.P,U5,37,3V3_EN*%
%TO.N,unconnected-(U5-Pad37)*%
X105410000Y-44450000D03*
D11*
X106310000Y-44450000D03*
D12*
%TO.P,U5,38,GND*%
%TO.N,GND*%
X105410000Y-41910000D03*
D11*
X106310000Y-41910000D03*
D10*
%TO.P,U5,39,VSYS*%
%TO.N,unconnected-(U5-Pad39)*%
X105410000Y-39370000D03*
D11*
X106310000Y-39370000D03*
D10*
%TO.P,U5,40,VBUS*%
%TO.N,+5V*%
X105410000Y-36830000D03*
D11*
X106310000Y-36830000D03*
D10*
%TO.P,U5,41,SWCLK*%
%TO.N,unconnected-(U5-Pad41)*%
X93980000Y-84860000D03*
D13*
X93980000Y-85760000D03*
%TO.P,U5,42,GND*%
%TO.N,GND*%
X96520000Y-85760000D03*
D12*
X96520000Y-84860000D03*
D13*
%TO.P,U5,43,SWDIO*%
%TO.N,unconnected-(U5-Pad43)*%
X99060000Y-85760000D03*
D10*
X99060000Y-84860000D03*
%TD*%
D14*
%TO.P,U2,1,A18*%
%TO.N,A18*%
X25790000Y-74202500D03*
D15*
%TO.P,U2,2,A16*%
%TO.N,A16*%
X28330000Y-74202500D03*
%TO.P,U2,3,A15*%
%TO.N,A15*%
X30870000Y-74202500D03*
%TO.P,U2,4,A12*%
%TO.N,A12*%
X33410000Y-74202500D03*
%TO.P,U2,5,A7*%
%TO.N,A7*%
X35950000Y-74202500D03*
%TO.P,U2,6,A6*%
%TO.N,A6*%
X38490000Y-74202500D03*
%TO.P,U2,7,A5*%
%TO.N,A5*%
X41030000Y-74202500D03*
%TO.P,U2,8,A4*%
%TO.N,A4*%
X43570000Y-74202500D03*
%TO.P,U2,9,A3*%
%TO.N,A3*%
X46110000Y-74202500D03*
%TO.P,U2,10,A2*%
%TO.N,A2*%
X48650000Y-74202500D03*
%TO.P,U2,11,A1*%
%TO.N,A1*%
X51190000Y-74202500D03*
%TO.P,U2,12,A0*%
%TO.N,A0*%
X53730000Y-74202500D03*
%TO.P,U2,13,D0*%
%TO.N,D0*%
X56270000Y-74202500D03*
%TO.P,U2,14,D1*%
%TO.N,D1*%
X58810000Y-74202500D03*
%TO.P,U2,15,D2*%
%TO.N,D2*%
X61350000Y-74202500D03*
%TO.P,U2,16,GND*%
%TO.N,GND*%
X63890000Y-74202500D03*
%TO.P,U2,17,D3*%
%TO.N,D3*%
X63890000Y-58962500D03*
%TO.P,U2,18,D4*%
%TO.N,D4*%
X61350000Y-58962500D03*
%TO.P,U2,19,D5*%
%TO.N,D5*%
X58810000Y-58962500D03*
%TO.P,U2,20,D6*%
%TO.N,D6*%
X56270000Y-58962500D03*
%TO.P,U2,21,D7*%
%TO.N,D7*%
X53730000Y-58962500D03*
%TO.P,U2,22,CE*%
%TO.N,~{CE}*%
X51190000Y-58962500D03*
%TO.P,U2,23,A10*%
%TO.N,A10*%
X48650000Y-58962500D03*
%TO.P,U2,24,OE*%
%TO.N,~{OE}*%
X46110000Y-58962500D03*
%TO.P,U2,25,A11*%
%TO.N,A11*%
X43570000Y-58962500D03*
%TO.P,U2,26,A9*%
%TO.N,A9*%
X41030000Y-58962500D03*
%TO.P,U2,27,A8*%
%TO.N,A8*%
X38490000Y-58962500D03*
%TO.P,U2,28,A13*%
%TO.N,A13*%
X35950000Y-58962500D03*
%TO.P,U2,29,A14*%
%TO.N,A14*%
X33410000Y-58962500D03*
%TO.P,U2,30,A17*%
%TO.N,A17*%
X30870000Y-58962500D03*
%TO.P,U2,31,PGM*%
%TO.N,~{PGM}*%
X28330000Y-58962500D03*
%TO.P,U2,32,VCC*%
%TO.N,Net-(D1-Pad1)*%
X25790000Y-58962500D03*
%TD*%
D16*
%TO.P,SW1,1,1*%
%TO.N,RUN*%
X23166000Y-87340000D03*
X29666000Y-87340000D03*
%TO.P,SW1,2,2*%
%TO.N,GND*%
X29666000Y-82840000D03*
X23166000Y-82840000D03*
%TD*%
D17*
%TO.P,R3,1*%
%TO.N,Net-(D3-Pad1)*%
X55372000Y-88900000D03*
D18*
%TO.P,R3,2*%
%TO.N,GND*%
X55372000Y-81280000D03*
%TD*%
D19*
%TO.P,D2,1,K*%
%TO.N,Net-(D2-Pad1)*%
X34793000Y-85090000D03*
D20*
%TO.P,D2,2,A*%
%TO.N,GPIO26_3v3*%
X37333000Y-85090000D03*
%TD*%
D17*
%TO.P,R2,1*%
%TO.N,Net-(D2-Pad1)*%
X42672000Y-88900000D03*
D18*
%TO.P,R2,2*%
%TO.N,GND*%
X42672000Y-81280000D03*
%TD*%
D19*
%TO.P,D3,1,K*%
%TO.N,Net-(D3-Pad1)*%
X47244000Y-85090000D03*
D20*
%TO.P,D3,2,A*%
%TO.N,GPIO27_3v3*%
X49784000Y-85090000D03*
%TD*%
D21*
%TO.N,+3V3*%
X82696300Y-45572500D03*
%TO.N,P0*%
X52985900Y-66837400D03*
X52701600Y-72852600D03*
X74206900Y-80098100D03*
X77154900Y-73839000D03*
X31728900Y-72871200D03*
%TO.N,LP1*%
X80826200Y-64770000D03*
%TO.N,P1*%
X33844600Y-71111000D03*
X64303400Y-68573200D03*
X54551500Y-70099800D03*
%TO.N,LP2*%
X65163000Y-80025300D03*
%TO.N,P2*%
X34845000Y-71045100D03*
X50310600Y-72740700D03*
%TO.N,LP3*%
X65581700Y-84053800D03*
%TO.N,~{ROE}*%
X54958300Y-76019200D03*
X32309100Y-75754700D03*
X75921500Y-71504700D03*
X61418800Y-77749100D03*
X28548000Y-42347900D03*
%TO.N,LALS*%
X29791500Y-40615700D03*
%TO.N,ALS*%
X30845300Y-42798300D03*
X40811100Y-61813300D03*
%TO.N,LP4*%
X57055900Y-84494300D03*
%TO.N,LP5*%
X56400400Y-85253600D03*
X26362600Y-78697900D03*
X37269700Y-80553400D03*
%TO.N,P5*%
X45866800Y-69543500D03*
X65216500Y-69191700D03*
X36295700Y-70834700D03*
%TO.N,LP6*%
X55730300Y-85998200D03*
%TO.N,P6*%
X24455000Y-77574500D03*
X42354100Y-75842600D03*
%TO.N,LP7*%
X17965000Y-77631600D03*
X34623000Y-80054400D03*
%TO.N,P7*%
X37736600Y-69366200D03*
X43669700Y-69366200D03*
%TO.N,AHS*%
X18798000Y-60630100D03*
X40881300Y-38552400D03*
%TO.N,~{PGM}*%
X45831500Y-42701900D03*
%TO.N,LD0*%
X27991200Y-51916000D03*
%TO.N,D0*%
X41972700Y-56661000D03*
%TO.N,LD1*%
X31776000Y-51815600D03*
%TO.N,D1*%
X41371000Y-54914400D03*
%TO.N,LD2*%
X38013700Y-50521800D03*
%TO.N,D2*%
X36935400Y-50292000D03*
%TO.N,LD3*%
X47409800Y-48173900D03*
%TO.N,D3*%
X46810800Y-53414800D03*
%TO.N,~{LCE}*%
X57747100Y-46648300D03*
%TO.N,~{LOE}*%
X62820100Y-41940000D03*
X88986300Y-43128700D03*
%TO.N,~{OE}*%
X61734700Y-42947000D03*
%TO.N,LD4*%
X61643300Y-48675100D03*
%TO.N,D4*%
X54469600Y-54590500D03*
%TO.N,LD5*%
X64810000Y-51243500D03*
%TO.N,D5*%
X57665500Y-57246100D03*
%TO.N,LD6*%
X69213500Y-52144800D03*
%TO.N,LD7*%
X59884800Y-48999600D03*
%TO.N,GND*%
X77138200Y-67747500D03*
%TO.N,A2*%
X48535600Y-66832100D03*
%TO.N,A1*%
X51182400Y-66814000D03*
%TO.N,A0*%
X52171000Y-66064300D03*
%TO.N,A18*%
X59702900Y-63327200D03*
%TO.N,A16*%
X55316500Y-64076200D03*
%TO.N,A15*%
X24935700Y-66654800D03*
%TO.N,A12*%
X25206300Y-63417500D03*
%TO.N,A10*%
X29545700Y-63588300D03*
%TO.N,A11*%
X28197000Y-63532300D03*
%TO.N,A17*%
X55076600Y-61211700D03*
%TO.N,+5V*%
X67622600Y-57788800D03*
X59276900Y-47098600D03*
X67872300Y-65814700D03*
X66575300Y-76293900D03*
X81957100Y-40734600D03*
%TD*%
D22*
%TO.N,+3V3*%
X105410000Y-46990000D02*
X104234700Y-46990000D01*
X82938500Y-45814700D02*
X82696300Y-45572500D01*
X103059400Y-45814700D02*
X82938500Y-45814700D01*
X104234700Y-46990000D02*
X103059400Y-45814700D01*
%TO.N,P0*%
X48222900Y-75568800D02*
X47380000Y-74725900D01*
X51592400Y-75568800D02*
X48222900Y-75568800D01*
X52460000Y-73094200D02*
X52460000Y-74701200D01*
X47380000Y-73685900D02*
X46565300Y-72871200D01*
X74206900Y-76787000D02*
X74206900Y-80098100D01*
X47380000Y-74725900D02*
X47380000Y-73685900D01*
X52701600Y-72852600D02*
X52701600Y-67121700D01*
X52701600Y-67121700D02*
X52985900Y-66837400D01*
X52460000Y-74701200D02*
X51592400Y-75568800D01*
X77154900Y-73839000D02*
X74206900Y-76787000D01*
X46565300Y-72871200D02*
X31728900Y-72871200D01*
X52701600Y-72852600D02*
X52460000Y-73094200D01*
%TO.N,LP1*%
X87630000Y-64770000D02*
X80826200Y-64770000D01*
%TO.N,P1*%
X56253400Y-68397900D02*
X54551500Y-70099800D01*
X33844600Y-71111000D02*
X33844600Y-71013700D01*
X35042600Y-70106300D02*
X37156700Y-67992200D01*
X42534100Y-67992200D02*
X44962100Y-65564200D01*
X49641400Y-65427000D02*
X49729400Y-65339000D01*
X53194400Y-65339000D02*
X56253400Y-68397900D01*
X44962100Y-65564200D02*
X49016800Y-65564200D01*
X49016800Y-65564200D02*
X49154000Y-65427000D01*
X56253400Y-68397900D02*
X56253400Y-68398000D01*
X34752000Y-70106300D02*
X35042600Y-70106300D01*
X49729400Y-65339000D02*
X53194400Y-65339000D01*
X56253400Y-68398000D02*
X64128200Y-68398000D01*
X64128200Y-68398000D02*
X64303400Y-68573200D01*
X37156700Y-67992200D02*
X42534100Y-67992200D01*
X33844600Y-71013700D02*
X34752000Y-70106300D01*
X49154000Y-65427000D02*
X49641400Y-65427000D01*
%TO.N,LP2*%
X69203000Y-80025300D02*
X79378300Y-69850000D01*
X65163000Y-80025300D02*
X69203000Y-80025300D01*
X79378300Y-69850000D02*
X87630000Y-69850000D01*
%TO.N,P2*%
X50310600Y-67567900D02*
X50310600Y-72740700D01*
X34845000Y-71045100D02*
X37447600Y-68442500D01*
X42720800Y-68442500D02*
X45065800Y-66097500D01*
X48840200Y-66097500D02*
X50310600Y-67567900D01*
X45065800Y-66097500D02*
X48840200Y-66097500D01*
X37447600Y-68442500D02*
X42720800Y-68442500D01*
%TO.N,LP3*%
X87630000Y-72390000D02*
X86454700Y-72390000D01*
X83908900Y-72390000D02*
X72245100Y-84053800D01*
X86454700Y-72390000D02*
X83908900Y-72390000D01*
X72245100Y-84053800D02*
X65581700Y-84053800D01*
%TO.N,~{ROE}*%
X32309100Y-75754700D02*
X31576800Y-76487000D01*
X24483000Y-76487000D02*
X23701600Y-75705600D01*
X54958300Y-76019200D02*
X43556500Y-76019200D01*
X69677100Y-77749100D02*
X61418800Y-77749100D01*
X23701600Y-47194300D02*
X28548000Y-42347900D01*
X41236200Y-75754700D02*
X32309100Y-75754700D01*
X75921500Y-71504700D02*
X69677100Y-77749100D01*
X41873600Y-75117300D02*
X41236200Y-75754700D01*
X31576800Y-76487000D02*
X24483000Y-76487000D01*
X43556500Y-76019200D02*
X42654600Y-75117300D01*
X23701600Y-75705600D02*
X23701600Y-47194300D01*
X42654600Y-75117300D02*
X41873600Y-75117300D01*
%TO.N,LALS*%
X41099300Y-87771600D02*
X39754200Y-89116700D01*
X104234700Y-83651800D02*
X100051100Y-87835400D01*
X28549200Y-40615700D02*
X29791500Y-40615700D01*
X83959800Y-87771600D02*
X41099300Y-87771600D01*
X84023600Y-87835400D02*
X83959800Y-87771600D01*
X39754200Y-89116700D02*
X26916700Y-89116700D01*
X100051100Y-87835400D02*
X84023600Y-87835400D01*
X105410000Y-82550000D02*
X104234700Y-82550000D01*
X17164000Y-79364000D02*
X17164000Y-52000900D01*
X104234700Y-82550000D02*
X104234700Y-83651800D01*
X26916700Y-89116700D02*
X17164000Y-79364000D01*
X17164000Y-52000900D02*
X28549200Y-40615700D01*
%TO.N,ALS*%
X30845300Y-42798300D02*
X27260500Y-46383100D01*
X27260500Y-59664500D02*
X29409300Y-61813300D01*
X27260500Y-46383100D02*
X27260500Y-59664500D01*
X29409300Y-61813300D02*
X40811100Y-61813300D01*
%TO.N,LP4*%
X57340700Y-84779100D02*
X74726100Y-84779100D01*
X84575200Y-74930000D02*
X87630000Y-74930000D01*
X57055900Y-84494300D02*
X57340700Y-84779100D01*
X74726100Y-84779100D02*
X84575200Y-74930000D01*
%TO.N,LP5*%
X84186400Y-77470000D02*
X76402800Y-85253600D01*
X76402800Y-85253600D02*
X56400400Y-85253600D01*
X26362600Y-78697900D02*
X35414200Y-78697900D01*
X35414200Y-78697900D02*
X37269700Y-80553400D01*
X87630000Y-77470000D02*
X84186400Y-77470000D01*
%TO.N,P5*%
X44575600Y-70834700D02*
X45866800Y-69543500D01*
X43471800Y-66196500D02*
X44779600Y-64888700D01*
X36295700Y-70834700D02*
X44575600Y-70834700D01*
X35294100Y-71836300D02*
X33471000Y-71836300D01*
X33471000Y-71836300D02*
X33118100Y-71483400D01*
X33118100Y-71483400D02*
X33118100Y-70757000D01*
X33118100Y-70757000D02*
X37678600Y-66196500D01*
X61648800Y-64888700D02*
X65216500Y-68456400D01*
X65216500Y-68456400D02*
X65216500Y-69191700D01*
X37678600Y-66196500D02*
X43471800Y-66196500D01*
X44779600Y-64888700D02*
X61648800Y-64888700D01*
X36295700Y-70834700D02*
X35294100Y-71836300D01*
%TO.N,LP6*%
X77732100Y-85998200D02*
X81180300Y-82550000D01*
X81180300Y-82550000D02*
X87630000Y-82550000D01*
X55730300Y-85998200D02*
X77732100Y-85998200D01*
%TO.N,P6*%
X40622200Y-77574500D02*
X42354100Y-75842600D01*
X24455000Y-77574500D02*
X40622200Y-77574500D01*
%TO.N,LP7*%
X87630000Y-85090000D02*
X86454700Y-85090000D01*
X27103200Y-88666300D02*
X39567700Y-88666300D01*
X34623000Y-80054400D02*
X23251400Y-80054400D01*
X23251400Y-80054400D02*
X21838100Y-81467700D01*
X18002000Y-77631600D02*
X17965000Y-77631600D01*
X21838100Y-81467700D02*
X18002000Y-77631600D01*
X40912700Y-87321300D02*
X84223400Y-87321300D01*
X21838100Y-83401200D02*
X27103200Y-88666300D01*
X39567700Y-88666300D02*
X40912700Y-87321300D01*
X21838100Y-81467700D02*
X21838100Y-83401200D01*
X84223400Y-87321300D02*
X86454700Y-85090000D01*
%TO.N,P7*%
X37736600Y-69366200D02*
X43669700Y-69366200D01*
%TO.N,AHS*%
X37912400Y-41521300D02*
X40881300Y-38552400D01*
X18798000Y-51068700D02*
X28345400Y-41521300D01*
X18798000Y-60630100D02*
X18798000Y-51068700D01*
X28345400Y-41521300D02*
X37912400Y-41521300D01*
%TO.N,~{PGM}*%
X42858600Y-42701900D02*
X28330000Y-57230500D01*
X28330000Y-57230500D02*
X28330000Y-57637200D01*
X45831500Y-42701900D02*
X42858600Y-42701900D01*
X28330000Y-58962500D02*
X28330000Y-57637200D01*
%TO.N,LD0*%
X28458600Y-51916000D02*
X27991200Y-51916000D01*
X46443300Y-36830000D02*
X43903300Y-39370000D01*
X87630000Y-36830000D02*
X46443300Y-36830000D01*
X43903300Y-39370000D02*
X41004600Y-39370000D01*
X41004600Y-39370000D02*
X28458600Y-51916000D01*
%TO.N,D0*%
X59707300Y-71516500D02*
X57315300Y-73908500D01*
X41972700Y-56661000D02*
X48116300Y-56661000D01*
X57315300Y-73908500D02*
X57315300Y-74202500D01*
X63917500Y-71516500D02*
X59707300Y-71516500D01*
X65941800Y-68529800D02*
X65941800Y-69492200D01*
X65941800Y-69492200D02*
X63917500Y-71516500D01*
X49920000Y-58464700D02*
X49920000Y-59534600D01*
X52633600Y-62248200D02*
X59660200Y-62248200D01*
X49920000Y-59534600D02*
X52633600Y-62248200D01*
X56270000Y-74202500D02*
X57315300Y-74202500D01*
X48116300Y-56661000D02*
X49920000Y-58464700D01*
X59660200Y-62248200D02*
X65941800Y-68529800D01*
%TO.N,LD1*%
X44858400Y-39370000D02*
X87630000Y-39370000D01*
X32412800Y-51815600D02*
X44858400Y-39370000D01*
X31776000Y-51815600D02*
X32412800Y-51815600D01*
%TO.N,D1*%
X59855300Y-73908200D02*
X59855300Y-74202500D01*
X41371000Y-54914400D02*
X51457200Y-54914400D01*
X61760900Y-72002600D02*
X59855300Y-73908200D01*
X59241800Y-61188400D02*
X66392100Y-68338700D01*
X54840700Y-58297900D02*
X54840700Y-59355500D01*
X56673600Y-61188400D02*
X59241800Y-61188400D01*
X58810000Y-74202500D02*
X59855300Y-74202500D01*
X54840700Y-59355500D02*
X56673600Y-61188400D01*
X66392100Y-68338700D02*
X66392100Y-69678800D01*
X66392100Y-69678800D02*
X64068300Y-72002600D01*
X64068300Y-72002600D02*
X61760900Y-72002600D01*
X51457200Y-54914400D02*
X54840700Y-58297900D01*
%TO.N,LD2*%
X44085500Y-44450000D02*
X87630000Y-44450000D01*
X38013700Y-50521800D02*
X44085500Y-44450000D01*
%TO.N,D2*%
X66895600Y-68149100D02*
X66895600Y-69812200D01*
X36935400Y-50292000D02*
X36935400Y-50550200D01*
X66895600Y-69812200D02*
X64254800Y-72453000D01*
X53017700Y-54164500D02*
X55170300Y-56317100D01*
X40549700Y-54164500D02*
X53017700Y-54164500D01*
X36935400Y-50550200D02*
X40549700Y-54164500D01*
X58442800Y-60353600D02*
X59100100Y-60353600D01*
X57764700Y-59675500D02*
X58442800Y-60353600D01*
X55170300Y-56317100D02*
X55402200Y-56317100D01*
X63099500Y-72453000D02*
X61350000Y-74202500D01*
X59100100Y-60353600D02*
X66895600Y-68149100D01*
X55402200Y-56317100D02*
X57764700Y-58679600D01*
X64254800Y-72453000D02*
X63099500Y-72453000D01*
X57764700Y-58679600D02*
X57764700Y-59675500D01*
%TO.N,LD3*%
X87630000Y-46990000D02*
X86454700Y-46990000D01*
X60249400Y-45884400D02*
X61355000Y-46990000D01*
X49699300Y-45884400D02*
X60249400Y-45884400D01*
X47409800Y-48173900D02*
X49699300Y-45884400D01*
X61355000Y-46990000D02*
X86454700Y-46990000D01*
%TO.N,D3*%
X62844700Y-58668500D02*
X62844700Y-58962500D01*
X63890000Y-58962500D02*
X62844700Y-58962500D01*
X46810800Y-53414800D02*
X57591000Y-53414800D01*
X57591000Y-53414800D02*
X62844700Y-58668500D01*
%TO.N,~{LCE}*%
X108385300Y-56165200D02*
X108385300Y-69850000D01*
X108194800Y-55974700D02*
X108385300Y-56165200D01*
X88805400Y-48165400D02*
X96614700Y-55974700D01*
X96614700Y-55974700D02*
X108194800Y-55974700D01*
X105410000Y-69850000D02*
X108385300Y-69850000D01*
X60101300Y-46373200D02*
X61168500Y-47440400D01*
X62910800Y-48165400D02*
X88805400Y-48165400D01*
X57747100Y-46648300D02*
X58022200Y-46373200D01*
X61168500Y-47440400D02*
X62185800Y-47440400D01*
X58022200Y-46373200D02*
X60101300Y-46373200D01*
X62185800Y-47440400D02*
X62910800Y-48165400D01*
%TO.N,~{LOE}*%
X64008800Y-43128700D02*
X88986300Y-43128700D01*
X62820100Y-41940000D02*
X64008800Y-43128700D01*
%TO.N,~{OE}*%
X34680000Y-58438100D02*
X35481200Y-57636900D01*
X61242100Y-43439600D02*
X61242100Y-43439700D01*
X29812400Y-56385000D02*
X29812400Y-59697200D01*
X61734700Y-42947000D02*
X61242100Y-43439600D01*
X45064700Y-58668500D02*
X45064700Y-58962500D01*
X42757700Y-43439700D02*
X29812400Y-56385000D01*
X34680000Y-59468000D02*
X34680000Y-58438100D01*
X44033100Y-57636900D02*
X45064700Y-58668500D01*
X35481200Y-57636900D02*
X44033100Y-57636900D01*
X46110000Y-58962500D02*
X45064700Y-58962500D01*
X29812400Y-59697200D02*
X30403100Y-60287900D01*
X33860100Y-60287900D02*
X34680000Y-59468000D01*
X61242100Y-43439700D02*
X42757700Y-43439700D01*
X30403100Y-60287900D02*
X33860100Y-60287900D01*
%TO.N,LD4*%
X85599800Y-48675100D02*
X86454700Y-49530000D01*
X87630000Y-49530000D02*
X86454700Y-49530000D01*
X61643300Y-48675100D02*
X85599800Y-48675100D01*
%TO.N,D4*%
X54469600Y-54590500D02*
X56226700Y-54590500D01*
X61350000Y-58962500D02*
X60304700Y-58962500D01*
X56226700Y-54590500D02*
X60304700Y-58668500D01*
X60304700Y-58668500D02*
X60304700Y-58962500D01*
%TO.N,LD5*%
X87630000Y-52070000D02*
X84654700Y-52070000D01*
X83828200Y-51243500D02*
X64810000Y-51243500D01*
X84654700Y-52070000D02*
X83828200Y-51243500D01*
%TO.N,D5*%
X58810000Y-58390600D02*
X58810000Y-58962500D01*
X57665500Y-57246100D02*
X58810000Y-58390600D01*
%TO.N,LD6*%
X74218700Y-57150000D02*
X69213500Y-52144800D01*
X87630000Y-57150000D02*
X74218700Y-57150000D01*
%TO.N,LD7*%
X87630000Y-59690000D02*
X70575200Y-59690000D01*
X70575200Y-59690000D02*
X59884800Y-48999600D01*
%TO.N,RUN*%
X68004100Y-81861200D02*
X78650700Y-71214600D01*
X53228100Y-86871000D02*
X58237900Y-81861200D01*
X29666000Y-87340000D02*
X30135000Y-86871000D01*
X78650700Y-71214600D02*
X95250100Y-71214600D01*
X105410000Y-62230000D02*
X104234700Y-62230000D01*
X58237900Y-81861200D02*
X68004100Y-81861200D01*
X30135000Y-86871000D02*
X53228100Y-86871000D01*
X95250100Y-71214600D02*
X104234700Y-62230000D01*
%TO.N,GND*%
X55372000Y-81280000D02*
X54246700Y-81280000D01*
X101737300Y-80010000D02*
X104234700Y-80010000D01*
X62844700Y-74202500D02*
X62844700Y-74660600D01*
X43797300Y-81280000D02*
X54246700Y-81280000D01*
X42672000Y-81280000D02*
X43797300Y-81280000D01*
X96520000Y-84860000D02*
X97695300Y-84860000D01*
X97695300Y-84052000D02*
X101737300Y-80010000D01*
X63890000Y-74202500D02*
X62844700Y-74202500D01*
X97695300Y-84860000D02*
X97695300Y-84052000D01*
X41546700Y-81280000D02*
X39986700Y-82840000D01*
X39986700Y-82840000D02*
X29666000Y-82840000D01*
X86454700Y-67310000D02*
X86017200Y-67747500D01*
X104234700Y-80010000D02*
X104234700Y-67310000D01*
X56497300Y-81008000D02*
X56497300Y-81280000D01*
X29666000Y-82840000D02*
X23166000Y-82840000D01*
X105410000Y-80010000D02*
X104234700Y-80010000D01*
X62844700Y-74660600D02*
X56497300Y-81008000D01*
X86017200Y-67747500D02*
X77138200Y-67747500D01*
X42109400Y-81280000D02*
X42672000Y-81280000D01*
X87630000Y-67310000D02*
X86454700Y-67310000D01*
X55372000Y-81280000D02*
X56497300Y-81280000D01*
X105410000Y-67310000D02*
X104234700Y-67310000D01*
X42109400Y-81280000D02*
X41546700Y-81280000D01*
%TO.N,A2*%
X48650000Y-74202500D02*
X48650000Y-72877200D01*
X48535600Y-72762800D02*
X48650000Y-72877200D01*
X48535600Y-66832100D02*
X48535600Y-72762800D01*
%TO.N,A1*%
X51182400Y-66814000D02*
X51182400Y-72869600D01*
X51190000Y-74202500D02*
X51190000Y-72877200D01*
X51182400Y-72869600D02*
X51190000Y-72877200D01*
%TO.N,A0*%
X52171000Y-66064300D02*
X53282800Y-66064300D01*
X53730000Y-66511500D02*
X53730000Y-74202500D01*
X53282800Y-66064300D02*
X53730000Y-66511500D01*
%TO.N,A18*%
X43534000Y-63327200D02*
X59702900Y-63327200D01*
X42547500Y-64313700D02*
X43534000Y-63327200D01*
X26835300Y-74202500D02*
X26835300Y-73908500D01*
X25790000Y-74202500D02*
X26835300Y-74202500D01*
X26835300Y-73908500D02*
X36430100Y-64313700D01*
X36430100Y-64313700D02*
X42547500Y-64313700D01*
%TO.N,A16*%
X28330000Y-74202500D02*
X29375300Y-74202500D01*
X29375300Y-73810500D02*
X37707600Y-65478200D01*
X29375300Y-74202500D02*
X29375300Y-73810500D01*
X42656900Y-65478200D02*
X44058900Y-64076200D01*
X37707600Y-65478200D02*
X42656900Y-65478200D01*
X44058900Y-64076200D02*
X55316500Y-64076200D01*
%TO.N,A15*%
X24744600Y-75407800D02*
X24744600Y-66845900D01*
X24905800Y-75569000D02*
X24744600Y-75407800D01*
X30870000Y-74202500D02*
X29503500Y-75569000D01*
X24744600Y-66845900D02*
X24935700Y-66654800D01*
X29503500Y-75569000D02*
X24905800Y-75569000D01*
%TO.N,A12*%
X33410000Y-74202500D02*
X32364700Y-74202500D01*
X32364700Y-74202500D02*
X32364700Y-74496500D01*
X32364700Y-74496500D02*
X30841800Y-76019400D01*
X30841800Y-76019400D02*
X24719300Y-76019400D01*
X24719300Y-76019400D02*
X24203800Y-75503900D01*
X24203800Y-64420000D02*
X25206300Y-63417500D01*
X24203800Y-75503900D02*
X24203800Y-64420000D01*
%TO.N,A10*%
X47604700Y-59256500D02*
X44273100Y-62588100D01*
X44273100Y-62588100D02*
X43636200Y-62588100D01*
X47604700Y-58962500D02*
X47604700Y-59256500D01*
X43636200Y-62588100D02*
X42636000Y-63588300D01*
X42636000Y-63588300D02*
X29545700Y-63588300D01*
X48650000Y-58962500D02*
X47604700Y-58962500D01*
%TO.N,A11*%
X43570000Y-58962500D02*
X43570000Y-60287800D01*
X41027200Y-62830600D02*
X43570000Y-60287800D01*
X28197000Y-63532300D02*
X28898700Y-62830600D01*
X28898700Y-62830600D02*
X41027200Y-62830600D01*
%TO.N,A17*%
X52460000Y-58349200D02*
X50014700Y-55903900D01*
X55076600Y-61211700D02*
X54209000Y-61211700D01*
X52460000Y-59462700D02*
X52460000Y-58349200D01*
X30870000Y-58962500D02*
X31915300Y-58962500D01*
X31915300Y-58668500D02*
X31915300Y-58962500D01*
X34679900Y-55903900D02*
X31915300Y-58668500D01*
X54209000Y-61211700D02*
X52460000Y-59462700D01*
X50014700Y-55903900D02*
X34679900Y-55903900D01*
%TO.N,GPIO26_3v3*%
X105410000Y-59690000D02*
X104234700Y-59690000D01*
X38558400Y-86315400D02*
X37333000Y-85090000D01*
X95439300Y-68485400D02*
X80106000Y-68485400D01*
X60871800Y-78590400D02*
X53146800Y-86315400D01*
X53146800Y-86315400D02*
X38558400Y-86315400D01*
X80106000Y-68485400D02*
X70001000Y-78590400D01*
X104234700Y-59690000D02*
X95439300Y-68485400D01*
X70001000Y-78590400D02*
X60871800Y-78590400D01*
%TO.N,GPIO27_3v3*%
X97946500Y-63438200D02*
X80412100Y-63438200D01*
X66871300Y-77023800D02*
X61118400Y-77023800D01*
X80412100Y-63438200D02*
X67300600Y-76549700D01*
X60693500Y-77743000D02*
X53346500Y-85090000D01*
X67300600Y-76549700D02*
X67300600Y-76594500D01*
X104234700Y-57150000D02*
X97946500Y-63438200D01*
X105410000Y-57150000D02*
X104234700Y-57150000D01*
X61118400Y-77023800D02*
X60693500Y-77448700D01*
X67300600Y-76594500D02*
X66871300Y-77023800D01*
X60693500Y-77448700D02*
X60693500Y-77743000D01*
X53346500Y-85090000D02*
X49784000Y-85090000D01*
%TO.N,+5V*%
X67622600Y-65565000D02*
X67872300Y-65814700D01*
X90126800Y-40734600D02*
X81957100Y-40734600D01*
X90507201Y-41115001D02*
X90126800Y-40734600D01*
X66575300Y-76293900D02*
X67872300Y-74996900D01*
X59143400Y-47232100D02*
X59276900Y-47098600D01*
X105410000Y-36830000D02*
X104234700Y-36830000D01*
X102829699Y-38235001D02*
X102829699Y-40172301D01*
X59143400Y-49309600D02*
X59143400Y-47232100D01*
X104234700Y-36830000D02*
X102829699Y-38235001D01*
X102829699Y-40172301D02*
X101886999Y-41115001D01*
X67872300Y-74996900D02*
X67872300Y-65814700D01*
X67622600Y-57788800D02*
X67622600Y-65565000D01*
X101886999Y-41115001D02*
X90507201Y-41115001D01*
X67622600Y-57788800D02*
X59143400Y-49309600D01*
%TD*%
%TA.AperFunction,Conductor*%
%TO.N,GND*%
G36*
X114270018Y-36070000D02*
G01*
X114284852Y-36072310D01*
X114284855Y-36072310D01*
X114293724Y-36073691D01*
X114303659Y-36072392D01*
X114304746Y-36072250D01*
X114333431Y-36071793D01*
X114406741Y-36079013D01*
X114436212Y-36081916D01*
X114460432Y-36086733D01*
X114579546Y-36122866D01*
X114602355Y-36132315D01*
X114712124Y-36190987D01*
X114732655Y-36204705D01*
X114828876Y-36283671D01*
X114846329Y-36301124D01*
X114925295Y-36397345D01*
X114939013Y-36417876D01*
X114997685Y-36527645D01*
X115007134Y-36550454D01*
X115043267Y-36669568D01*
X115048084Y-36693789D01*
X115057541Y-36789809D01*
X115057091Y-36805868D01*
X115057800Y-36805877D01*
X115057690Y-36814853D01*
X115056309Y-36823724D01*
X115057473Y-36832626D01*
X115057473Y-36832628D01*
X115060436Y-36855283D01*
X115061500Y-36871621D01*
X115061500Y-88850633D01*
X115060000Y-88870018D01*
X115056309Y-88893724D01*
X115057473Y-88902626D01*
X115057750Y-88904746D01*
X115058207Y-88933431D01*
X115057289Y-88942755D01*
X115048084Y-89036212D01*
X115043267Y-89060432D01*
X115007134Y-89179546D01*
X114997685Y-89202355D01*
X114939013Y-89312124D01*
X114925295Y-89332655D01*
X114846329Y-89428876D01*
X114828876Y-89446329D01*
X114732655Y-89525295D01*
X114712124Y-89539013D01*
X114602355Y-89597685D01*
X114579546Y-89607134D01*
X114460432Y-89643267D01*
X114436211Y-89648084D01*
X114340191Y-89657541D01*
X114324132Y-89657091D01*
X114324123Y-89657800D01*
X114315147Y-89657690D01*
X114306276Y-89656309D01*
X114297374Y-89657473D01*
X114297372Y-89657473D01*
X114284856Y-89659110D01*
X114274714Y-89660436D01*
X114258379Y-89661500D01*
X56658457Y-89661500D01*
X56590336Y-89641498D01*
X56543843Y-89587842D01*
X56533739Y-89517568D01*
X56544262Y-89482250D01*
X56561010Y-89446335D01*
X56606284Y-89349243D01*
X56665543Y-89128087D01*
X56685498Y-88900000D01*
X56665543Y-88671913D01*
X56636550Y-88563711D01*
X56638240Y-88492735D01*
X56678034Y-88433939D01*
X56743298Y-88405991D01*
X56758257Y-88405100D01*
X83712541Y-88405100D01*
X83773241Y-88420685D01*
X83781590Y-88425275D01*
X83781595Y-88425277D01*
X83788540Y-88429095D01*
X83796216Y-88431066D01*
X83796219Y-88431067D01*
X83808162Y-88434133D01*
X83826867Y-88440537D01*
X83845455Y-88448581D01*
X83853278Y-88449820D01*
X83853288Y-88449823D01*
X83889124Y-88455499D01*
X83900744Y-88457905D01*
X83932559Y-88466073D01*
X83943570Y-88468900D01*
X83963824Y-88468900D01*
X83983534Y-88470451D01*
X84003543Y-88473620D01*
X84011435Y-88472874D01*
X84030180Y-88471102D01*
X84047562Y-88469459D01*
X84059419Y-88468900D01*
X99972333Y-88468900D01*
X99983516Y-88469427D01*
X99991009Y-88471102D01*
X99998935Y-88470853D01*
X99998936Y-88470853D01*
X100059086Y-88468962D01*
X100063045Y-88468900D01*
X100090956Y-88468900D01*
X100094891Y-88468403D01*
X100094956Y-88468395D01*
X100106793Y-88467462D01*
X100139051Y-88466448D01*
X100143070Y-88466322D01*
X100150989Y-88466073D01*
X100170443Y-88460421D01*
X100189800Y-88456413D01*
X100202030Y-88454868D01*
X100202031Y-88454868D01*
X100209897Y-88453874D01*
X100217268Y-88450955D01*
X100217270Y-88450955D01*
X100251012Y-88437596D01*
X100262242Y-88433751D01*
X100297083Y-88423629D01*
X100297084Y-88423629D01*
X100304693Y-88421418D01*
X100311512Y-88417385D01*
X100311517Y-88417383D01*
X100322128Y-88411107D01*
X100339876Y-88402412D01*
X100358717Y-88394952D01*
X100394487Y-88368964D01*
X100404407Y-88362448D01*
X100435635Y-88343980D01*
X100435638Y-88343978D01*
X100442462Y-88339942D01*
X100456783Y-88325621D01*
X100471817Y-88312780D01*
X100481794Y-88305531D01*
X100488207Y-88300872D01*
X100516398Y-88266795D01*
X100524388Y-88258016D01*
X102035701Y-86746703D01*
X109904743Y-86746703D01*
X109942268Y-87031734D01*
X110018129Y-87309036D01*
X110019813Y-87312984D01*
X110110034Y-87524502D01*
X110130923Y-87573476D01*
X110175783Y-87648432D01*
X110273777Y-87812167D01*
X110278561Y-87820161D01*
X110458313Y-88044528D01*
X110475397Y-88060740D01*
X110657106Y-88233175D01*
X110666851Y-88242423D01*
X110900317Y-88410186D01*
X110904112Y-88412195D01*
X110904113Y-88412196D01*
X110925706Y-88423629D01*
X111154392Y-88544712D01*
X111206312Y-88563712D01*
X111321725Y-88605947D01*
X111424373Y-88643511D01*
X111705264Y-88704755D01*
X111733841Y-88707004D01*
X111928282Y-88722307D01*
X111928291Y-88722307D01*
X111930739Y-88722500D01*
X112086271Y-88722500D01*
X112088407Y-88722354D01*
X112088418Y-88722354D01*
X112296548Y-88708165D01*
X112296554Y-88708164D01*
X112300825Y-88707873D01*
X112305020Y-88707004D01*
X112305022Y-88707004D01*
X112500121Y-88666601D01*
X112582342Y-88649574D01*
X112853343Y-88553607D01*
X113041626Y-88456427D01*
X113105005Y-88423715D01*
X113105006Y-88423715D01*
X113108812Y-88421750D01*
X113112313Y-88419289D01*
X113112317Y-88419287D01*
X113289492Y-88294766D01*
X113344023Y-88256441D01*
X113554622Y-88060740D01*
X113736713Y-87838268D01*
X113886927Y-87593142D01*
X114002483Y-87329898D01*
X114081244Y-87053406D01*
X114121751Y-86768784D01*
X114121845Y-86750951D01*
X114123235Y-86485583D01*
X114123235Y-86485576D01*
X114123257Y-86481297D01*
X114119769Y-86454798D01*
X114100832Y-86310964D01*
X114085732Y-86196266D01*
X114083117Y-86186705D01*
X114045805Y-86050316D01*
X114009871Y-85918964D01*
X113988757Y-85869463D01*
X113898763Y-85658476D01*
X113898761Y-85658472D01*
X113897077Y-85654524D01*
X113749439Y-85407839D01*
X113569687Y-85183472D01*
X113361149Y-84985577D01*
X113171064Y-84848987D01*
X113131172Y-84820321D01*
X113131171Y-84820320D01*
X113127683Y-84817814D01*
X113105843Y-84806250D01*
X113069365Y-84786936D01*
X112873608Y-84683288D01*
X112700939Y-84620100D01*
X112607658Y-84585964D01*
X112607656Y-84585963D01*
X112603627Y-84584489D01*
X112322736Y-84523245D01*
X112291685Y-84520801D01*
X112099718Y-84505693D01*
X112099709Y-84505693D01*
X112097261Y-84505500D01*
X111941729Y-84505500D01*
X111939593Y-84505646D01*
X111939582Y-84505646D01*
X111731452Y-84519835D01*
X111731446Y-84519836D01*
X111727175Y-84520127D01*
X111722980Y-84520996D01*
X111722978Y-84520996D01*
X111600104Y-84546442D01*
X111445658Y-84578426D01*
X111174657Y-84674393D01*
X110919188Y-84806250D01*
X110915687Y-84808711D01*
X110915683Y-84808713D01*
X110801582Y-84888905D01*
X110683977Y-84971559D01*
X110668892Y-84985577D01*
X110481290Y-85159908D01*
X110473378Y-85167260D01*
X110291287Y-85389732D01*
X110141073Y-85634858D01*
X110025517Y-85898102D01*
X110024342Y-85902229D01*
X110024341Y-85902230D01*
X110013058Y-85941840D01*
X109946756Y-86174594D01*
X109919875Y-86363471D01*
X109907827Y-86448131D01*
X109906249Y-86459216D01*
X109906227Y-86463505D01*
X109906226Y-86463512D01*
X109904765Y-86742417D01*
X109904743Y-86746703D01*
X102035701Y-86746703D01*
X103833428Y-84948977D01*
X103895740Y-84914951D01*
X103966556Y-84920016D01*
X104023391Y-84962563D01*
X104048202Y-85029083D01*
X104047899Y-85046381D01*
X104047926Y-85046382D01*
X104047830Y-85050319D01*
X104047810Y-85051453D01*
X104047800Y-85051548D01*
X104047800Y-85051561D01*
X104047251Y-85056695D01*
X104047548Y-85061848D01*
X104047548Y-85061851D01*
X104051291Y-85126763D01*
X104051500Y-85134016D01*
X104051500Y-85988134D01*
X104058255Y-86050316D01*
X104109385Y-86186705D01*
X104196739Y-86303261D01*
X104313295Y-86390615D01*
X104449684Y-86441745D01*
X104511866Y-86448500D01*
X105380826Y-86448500D01*
X105385443Y-86448585D01*
X105466673Y-86451564D01*
X105466677Y-86451564D01*
X105471837Y-86451753D01*
X105476957Y-86451097D01*
X105476959Y-86451097D01*
X105489261Y-86449521D01*
X105505271Y-86448500D01*
X108108134Y-86448500D01*
X108170316Y-86441745D01*
X108306705Y-86390615D01*
X108423261Y-86303261D01*
X108510615Y-86186705D01*
X108561745Y-86050316D01*
X108568500Y-85988134D01*
X108568500Y-84191866D01*
X108561745Y-84129684D01*
X108510615Y-83993295D01*
X108437370Y-83895564D01*
X108412522Y-83829059D01*
X108427575Y-83759676D01*
X108437370Y-83744435D01*
X108451720Y-83725288D01*
X108510615Y-83646705D01*
X108561745Y-83510316D01*
X108568500Y-83448134D01*
X108568500Y-81651866D01*
X108561745Y-81589684D01*
X108510615Y-81453295D01*
X108437058Y-81355148D01*
X108412210Y-81288642D01*
X108427263Y-81219259D01*
X108437058Y-81204018D01*
X108504786Y-81113649D01*
X108513324Y-81098054D01*
X108558478Y-80977606D01*
X108562105Y-80962351D01*
X108567631Y-80911486D01*
X108568000Y-80904672D01*
X108568000Y-80282115D01*
X108563525Y-80266876D01*
X108562135Y-80265671D01*
X108554452Y-80264000D01*
X104070116Y-80264000D01*
X104054877Y-80268475D01*
X104053672Y-80269865D01*
X104052001Y-80277548D01*
X104052001Y-80904669D01*
X104052371Y-80911490D01*
X104057895Y-80962352D01*
X104061521Y-80977604D01*
X104106676Y-81098054D01*
X104115214Y-81113649D01*
X104182942Y-81204018D01*
X104207790Y-81270525D01*
X104192737Y-81339907D01*
X104182942Y-81355148D01*
X104109385Y-81453295D01*
X104058255Y-81589684D01*
X104051500Y-81651866D01*
X104051500Y-81851880D01*
X104031498Y-81920001D01*
X103977842Y-81966494D01*
X103975065Y-81967575D01*
X103970368Y-81969785D01*
X103962825Y-81972236D01*
X103956129Y-81976486D01*
X103956128Y-81976486D01*
X103955869Y-81976650D01*
X103934742Y-81987415D01*
X103934454Y-81987529D01*
X103934449Y-81987532D01*
X103927083Y-81990448D01*
X103920675Y-81995104D01*
X103920669Y-81995107D01*
X103881648Y-82023458D01*
X103875111Y-82027901D01*
X103827682Y-82058000D01*
X103822256Y-82063778D01*
X103822255Y-82063779D01*
X103822041Y-82064007D01*
X103804254Y-82079688D01*
X103804009Y-82079866D01*
X103804007Y-82079868D01*
X103797593Y-82084528D01*
X103792539Y-82090637D01*
X103792538Y-82090638D01*
X103761797Y-82127796D01*
X103756566Y-82133730D01*
X103723542Y-82168898D01*
X103723540Y-82168901D01*
X103718114Y-82174679D01*
X103714145Y-82181899D01*
X103700819Y-82201506D01*
X103700620Y-82201746D01*
X103700616Y-82201753D01*
X103695567Y-82207856D01*
X103692193Y-82215027D01*
X103671653Y-82258676D01*
X103668071Y-82265708D01*
X103641005Y-82314940D01*
X103639035Y-82322615D01*
X103639032Y-82322621D01*
X103638956Y-82322919D01*
X103630924Y-82345228D01*
X103630794Y-82345503D01*
X103630791Y-82345511D01*
X103627417Y-82352682D01*
X103622707Y-82377373D01*
X103616895Y-82407843D01*
X103615171Y-82415558D01*
X103601200Y-82469970D01*
X103601200Y-82478207D01*
X103598968Y-82501816D01*
X103597425Y-82509906D01*
X103600159Y-82553365D01*
X103600951Y-82565951D01*
X103601200Y-82573862D01*
X103601200Y-83337206D01*
X103581198Y-83405327D01*
X103564295Y-83426301D01*
X100633595Y-86357000D01*
X100571283Y-86391026D01*
X100500467Y-86385961D01*
X100443632Y-86343414D01*
X100418821Y-86276894D01*
X100418500Y-86267905D01*
X100418500Y-84957856D01*
X100419578Y-84941409D01*
X100421092Y-84929908D01*
X100421529Y-84926590D01*
X100421690Y-84920016D01*
X100423074Y-84863365D01*
X100423074Y-84863361D01*
X100423156Y-84860000D01*
X100418924Y-84808524D01*
X100418500Y-84798200D01*
X100418500Y-83961866D01*
X100411745Y-83899684D01*
X100360615Y-83763295D01*
X100273261Y-83646739D01*
X100156705Y-83559385D01*
X100020316Y-83508255D01*
X99958134Y-83501500D01*
X99074985Y-83501500D01*
X99073446Y-83501491D01*
X98970081Y-83500228D01*
X98970079Y-83500228D01*
X98964911Y-83500165D01*
X98959797Y-83500948D01*
X98956289Y-83501193D01*
X98947496Y-83501500D01*
X98161866Y-83501500D01*
X98099684Y-83508255D01*
X97963295Y-83559385D01*
X97896323Y-83609578D01*
X97865148Y-83632942D01*
X97798642Y-83657790D01*
X97729259Y-83642737D01*
X97714018Y-83632942D01*
X97623649Y-83565214D01*
X97608054Y-83556676D01*
X97487606Y-83511522D01*
X97472351Y-83507895D01*
X97421486Y-83502369D01*
X97414672Y-83502000D01*
X96792115Y-83502000D01*
X96776876Y-83506475D01*
X96775671Y-83507865D01*
X96774000Y-83515548D01*
X96774000Y-86132000D01*
X96753998Y-86200121D01*
X96700342Y-86246614D01*
X96648000Y-86258000D01*
X96392000Y-86258000D01*
X96323879Y-86237998D01*
X96277386Y-86184342D01*
X96266000Y-86132000D01*
X96266000Y-83520116D01*
X96261525Y-83504877D01*
X96260135Y-83503672D01*
X96252452Y-83502001D01*
X95625331Y-83502001D01*
X95618510Y-83502371D01*
X95567648Y-83507895D01*
X95552396Y-83511521D01*
X95431946Y-83556676D01*
X95416351Y-83565214D01*
X95325982Y-83632942D01*
X95259475Y-83657790D01*
X95190093Y-83642737D01*
X95174852Y-83632942D01*
X95143677Y-83609578D01*
X95076705Y-83559385D01*
X94940316Y-83508255D01*
X94878134Y-83501500D01*
X93994985Y-83501500D01*
X93993446Y-83501491D01*
X93890081Y-83500228D01*
X93890079Y-83500228D01*
X93884911Y-83500165D01*
X93879797Y-83500948D01*
X93876289Y-83501193D01*
X93867496Y-83501500D01*
X93081866Y-83501500D01*
X93019684Y-83508255D01*
X92883295Y-83559385D01*
X92766739Y-83646739D01*
X92679385Y-83763295D01*
X92628255Y-83899684D01*
X92621500Y-83961866D01*
X92621500Y-84780219D01*
X92620787Y-84793607D01*
X92617251Y-84826695D01*
X92617548Y-84831848D01*
X92617548Y-84831851D01*
X92621291Y-84896763D01*
X92621500Y-84904016D01*
X92621500Y-87075900D01*
X92601498Y-87144021D01*
X92547842Y-87190514D01*
X92495500Y-87201900D01*
X85542895Y-87201900D01*
X85474774Y-87181898D01*
X85428281Y-87128242D01*
X85418177Y-87057968D01*
X85447671Y-86993388D01*
X85453800Y-86986804D01*
X85667569Y-86773036D01*
X85955201Y-86485404D01*
X86017513Y-86451379D01*
X86044296Y-86448500D01*
X87600826Y-86448500D01*
X87605443Y-86448585D01*
X87686673Y-86451564D01*
X87686677Y-86451564D01*
X87691837Y-86451753D01*
X87696957Y-86451097D01*
X87696959Y-86451097D01*
X87709261Y-86449521D01*
X87725271Y-86448500D01*
X88528134Y-86448500D01*
X88590316Y-86441745D01*
X88726705Y-86390615D01*
X88843261Y-86303261D01*
X88930615Y-86186705D01*
X88981745Y-86050316D01*
X88988500Y-85988134D01*
X88988500Y-85187856D01*
X88989578Y-85171409D01*
X88991092Y-85159908D01*
X88991529Y-85156590D01*
X88993156Y-85090000D01*
X88988924Y-85038524D01*
X88988500Y-85028200D01*
X88988500Y-84191866D01*
X88981745Y-84129684D01*
X88930615Y-83993295D01*
X88857370Y-83895564D01*
X88832522Y-83829059D01*
X88847575Y-83759676D01*
X88857370Y-83744435D01*
X88871720Y-83725288D01*
X88930615Y-83646705D01*
X88981745Y-83510316D01*
X88988500Y-83448134D01*
X88988500Y-82647856D01*
X88989578Y-82631409D01*
X88991092Y-82619908D01*
X88991529Y-82616590D01*
X88993156Y-82550000D01*
X88988924Y-82498524D01*
X88988500Y-82488200D01*
X88988500Y-81651866D01*
X88981745Y-81589684D01*
X88930615Y-81453295D01*
X88857058Y-81355148D01*
X88832210Y-81288642D01*
X88847263Y-81219259D01*
X88857058Y-81204018D01*
X88924786Y-81113649D01*
X88933324Y-81098054D01*
X88978478Y-80977606D01*
X88982105Y-80962351D01*
X88987631Y-80911486D01*
X88988000Y-80904672D01*
X88988000Y-80282115D01*
X88983525Y-80266876D01*
X88982135Y-80265671D01*
X88974452Y-80264000D01*
X84490116Y-80264000D01*
X84474877Y-80268475D01*
X84473672Y-80269865D01*
X84472001Y-80277548D01*
X84472001Y-80904669D01*
X84472371Y-80911490D01*
X84477895Y-80962352D01*
X84481521Y-80977604D01*
X84526676Y-81098054D01*
X84535214Y-81113649D01*
X84602942Y-81204018D01*
X84627790Y-81270525D01*
X84612737Y-81339907D01*
X84602942Y-81355148D01*
X84529385Y-81453295D01*
X84478255Y-81589684D01*
X84471500Y-81651866D01*
X84471500Y-81790500D01*
X84451498Y-81858621D01*
X84397842Y-81905114D01*
X84345500Y-81916500D01*
X81259067Y-81916500D01*
X81247884Y-81915973D01*
X81240391Y-81914298D01*
X81232465Y-81914547D01*
X81232464Y-81914547D01*
X81172314Y-81916438D01*
X81168355Y-81916500D01*
X81140444Y-81916500D01*
X81136510Y-81916997D01*
X81136509Y-81916997D01*
X81136444Y-81917005D01*
X81124607Y-81917938D01*
X81092790Y-81918938D01*
X81088329Y-81919078D01*
X81080410Y-81919327D01*
X81062754Y-81924456D01*
X81060958Y-81924978D01*
X81041606Y-81928986D01*
X81034535Y-81929880D01*
X81021503Y-81931526D01*
X81014134Y-81934443D01*
X81014132Y-81934444D01*
X80980397Y-81947800D01*
X80969169Y-81951645D01*
X80926708Y-81963982D01*
X80926338Y-81962710D01*
X80864003Y-81970404D01*
X80800025Y-81939626D01*
X80762842Y-81879145D01*
X80764262Y-81808162D01*
X80795329Y-81756975D01*
X84257388Y-78294916D01*
X84319700Y-78260890D01*
X84390515Y-78265955D01*
X84447351Y-78308502D01*
X84471746Y-78370402D01*
X84474857Y-78399037D01*
X84478255Y-78430316D01*
X84529385Y-78566705D01*
X84552824Y-78597979D01*
X84602942Y-78664852D01*
X84627790Y-78731358D01*
X84612737Y-78800741D01*
X84602942Y-78815982D01*
X84535214Y-78906351D01*
X84526676Y-78921946D01*
X84481522Y-79042394D01*
X84477895Y-79057649D01*
X84472369Y-79108514D01*
X84472000Y-79115328D01*
X84472000Y-79737885D01*
X84476475Y-79753124D01*
X84477865Y-79754329D01*
X84485548Y-79756000D01*
X88969884Y-79756000D01*
X88985123Y-79751525D01*
X88986328Y-79750135D01*
X88987999Y-79742452D01*
X88987999Y-79115331D01*
X88987629Y-79108510D01*
X88982105Y-79057648D01*
X88978479Y-79042396D01*
X88933324Y-78921946D01*
X88924786Y-78906351D01*
X88857058Y-78815982D01*
X88832210Y-78749475D01*
X88847263Y-78680093D01*
X88857058Y-78664852D01*
X88907176Y-78597979D01*
X88930615Y-78566705D01*
X88981745Y-78430316D01*
X88988500Y-78368134D01*
X88988500Y-77567856D01*
X88989578Y-77551409D01*
X88991092Y-77539908D01*
X88991529Y-77536590D01*
X88992897Y-77480596D01*
X88993074Y-77473365D01*
X88993074Y-77473361D01*
X88993156Y-77470000D01*
X88988924Y-77418524D01*
X88988500Y-77408200D01*
X88988500Y-76571866D01*
X88981745Y-76509684D01*
X88930615Y-76373295D01*
X88857370Y-76275564D01*
X88832522Y-76209059D01*
X88847575Y-76139676D01*
X88857370Y-76124435D01*
X88930615Y-76026705D01*
X88981745Y-75890316D01*
X88988500Y-75828134D01*
X88988500Y-75027856D01*
X88989578Y-75011409D01*
X88991092Y-74999908D01*
X88991529Y-74996590D01*
X88993156Y-74930000D01*
X88988924Y-74878524D01*
X88988500Y-74868200D01*
X88988500Y-74031866D01*
X88981745Y-73969684D01*
X88930615Y-73833295D01*
X88857370Y-73735564D01*
X88832522Y-73669059D01*
X88847575Y-73599676D01*
X88857370Y-73584435D01*
X88880453Y-73553636D01*
X88930615Y-73486705D01*
X88981745Y-73350316D01*
X88988500Y-73288134D01*
X88988500Y-72487856D01*
X88989578Y-72471409D01*
X88991092Y-72459908D01*
X88991529Y-72456590D01*
X88992483Y-72417557D01*
X88993074Y-72393365D01*
X88993074Y-72393361D01*
X88993156Y-72390000D01*
X88988924Y-72338524D01*
X88988500Y-72328200D01*
X88988500Y-71974100D01*
X89008502Y-71905979D01*
X89062158Y-71859486D01*
X89114500Y-71848100D01*
X95171333Y-71848100D01*
X95182516Y-71848627D01*
X95190009Y-71850302D01*
X95197935Y-71850053D01*
X95197936Y-71850053D01*
X95258086Y-71848162D01*
X95262045Y-71848100D01*
X95289956Y-71848100D01*
X95293891Y-71847603D01*
X95293956Y-71847595D01*
X95305793Y-71846662D01*
X95338051Y-71845648D01*
X95342070Y-71845522D01*
X95349989Y-71845273D01*
X95369443Y-71839621D01*
X95388800Y-71835613D01*
X95401030Y-71834068D01*
X95401031Y-71834068D01*
X95408897Y-71833074D01*
X95416268Y-71830155D01*
X95416270Y-71830155D01*
X95450012Y-71816796D01*
X95461242Y-71812951D01*
X95496083Y-71802829D01*
X95496084Y-71802829D01*
X95503693Y-71800618D01*
X95510512Y-71796585D01*
X95510517Y-71796583D01*
X95521128Y-71790307D01*
X95538876Y-71781612D01*
X95557717Y-71774152D01*
X95593487Y-71748164D01*
X95603407Y-71741648D01*
X95634635Y-71723180D01*
X95634638Y-71723178D01*
X95641462Y-71719142D01*
X95655783Y-71704821D01*
X95670817Y-71691980D01*
X95680794Y-71684731D01*
X95687207Y-71680072D01*
X95715398Y-71645995D01*
X95723388Y-71637216D01*
X103974284Y-63386320D01*
X104036596Y-63352294D01*
X104107411Y-63357359D01*
X104164204Y-63399849D01*
X104182632Y-63424438D01*
X104207478Y-63490943D01*
X104192424Y-63560325D01*
X104182632Y-63575562D01*
X104109385Y-63673295D01*
X104058255Y-63809684D01*
X104051500Y-63871866D01*
X104051500Y-64690219D01*
X104050787Y-64703607D01*
X104047251Y-64736695D01*
X104047548Y-64741848D01*
X104047548Y-64741851D01*
X104051291Y-64806763D01*
X104051500Y-64814016D01*
X104051500Y-65668134D01*
X104058255Y-65730316D01*
X104109385Y-65866705D01*
X104114771Y-65873891D01*
X104182942Y-65964852D01*
X104207790Y-66031358D01*
X104192737Y-66100741D01*
X104182942Y-66115982D01*
X104115214Y-66206351D01*
X104106676Y-66221946D01*
X104061522Y-66342394D01*
X104057895Y-66357649D01*
X104052369Y-66408514D01*
X104052000Y-66415328D01*
X104052000Y-67037885D01*
X104056475Y-67053124D01*
X104057865Y-67054329D01*
X104065548Y-67056000D01*
X106682000Y-67056000D01*
X106750121Y-67076002D01*
X106796614Y-67129658D01*
X106808000Y-67182000D01*
X106808000Y-67438000D01*
X106787998Y-67506121D01*
X106734342Y-67552614D01*
X106682000Y-67564000D01*
X104070116Y-67564000D01*
X104054877Y-67568475D01*
X104053672Y-67569865D01*
X104052001Y-67577548D01*
X104052001Y-68204669D01*
X104052371Y-68211490D01*
X104057895Y-68262352D01*
X104061521Y-68277604D01*
X104106676Y-68398054D01*
X104115214Y-68413649D01*
X104182942Y-68504018D01*
X104207790Y-68570525D01*
X104192737Y-68639907D01*
X104182942Y-68655148D01*
X104168284Y-68674706D01*
X104109385Y-68753295D01*
X104058255Y-68889684D01*
X104051500Y-68951866D01*
X104051500Y-69770219D01*
X104050787Y-69783607D01*
X104047251Y-69816695D01*
X104047548Y-69821848D01*
X104047548Y-69821851D01*
X104051291Y-69886763D01*
X104051500Y-69894016D01*
X104051500Y-70748134D01*
X104058255Y-70810316D01*
X104109385Y-70946705D01*
X104182630Y-71044435D01*
X104207478Y-71110941D01*
X104192425Y-71180324D01*
X104182632Y-71195562D01*
X104109385Y-71293295D01*
X104058255Y-71429684D01*
X104051500Y-71491866D01*
X104051500Y-72310219D01*
X104050787Y-72323607D01*
X104047251Y-72356695D01*
X104047548Y-72361848D01*
X104047548Y-72361851D01*
X104051291Y-72426763D01*
X104051500Y-72434016D01*
X104051500Y-73288134D01*
X104058255Y-73350316D01*
X104109385Y-73486705D01*
X104159547Y-73553636D01*
X104182630Y-73584435D01*
X104207478Y-73650941D01*
X104192425Y-73720324D01*
X104182632Y-73735562D01*
X104109385Y-73833295D01*
X104058255Y-73969684D01*
X104051500Y-74031866D01*
X104051500Y-74850219D01*
X104050787Y-74863607D01*
X104047251Y-74896695D01*
X104047548Y-74901848D01*
X104047548Y-74901851D01*
X104051291Y-74966763D01*
X104051500Y-74974016D01*
X104051500Y-75828134D01*
X104058255Y-75890316D01*
X104109385Y-76026705D01*
X104182630Y-76124435D01*
X104207478Y-76190941D01*
X104192425Y-76260324D01*
X104182632Y-76275562D01*
X104109385Y-76373295D01*
X104058255Y-76509684D01*
X104051500Y-76571866D01*
X104051500Y-77390219D01*
X104050787Y-77403607D01*
X104047251Y-77436695D01*
X104047548Y-77441848D01*
X104047548Y-77441851D01*
X104051291Y-77506763D01*
X104051500Y-77514016D01*
X104051500Y-78368134D01*
X104058255Y-78430316D01*
X104109385Y-78566705D01*
X104132824Y-78597979D01*
X104182942Y-78664852D01*
X104207790Y-78731358D01*
X104192737Y-78800741D01*
X104182942Y-78815982D01*
X104115214Y-78906351D01*
X104106676Y-78921946D01*
X104061522Y-79042394D01*
X104057895Y-79057649D01*
X104052369Y-79108514D01*
X104052000Y-79115328D01*
X104052000Y-79737885D01*
X104056475Y-79753124D01*
X104057865Y-79754329D01*
X104065548Y-79756000D01*
X108549884Y-79756000D01*
X108565123Y-79751525D01*
X108566328Y-79750135D01*
X108567999Y-79742452D01*
X108567999Y-79115331D01*
X108567629Y-79108510D01*
X108562105Y-79057648D01*
X108558479Y-79042396D01*
X108513324Y-78921946D01*
X108504786Y-78906351D01*
X108437058Y-78815982D01*
X108412210Y-78749475D01*
X108427263Y-78680093D01*
X108437058Y-78664852D01*
X108487176Y-78597979D01*
X108510615Y-78566705D01*
X108561745Y-78430316D01*
X108568500Y-78368134D01*
X108568500Y-76571866D01*
X108561745Y-76509684D01*
X108510615Y-76373295D01*
X108437370Y-76275564D01*
X108412522Y-76209059D01*
X108427575Y-76139676D01*
X108437370Y-76124435D01*
X108510615Y-76026705D01*
X108561745Y-75890316D01*
X108568500Y-75828134D01*
X108568500Y-74031866D01*
X108561745Y-73969684D01*
X108510615Y-73833295D01*
X108437370Y-73735564D01*
X108412522Y-73669059D01*
X108427575Y-73599676D01*
X108437370Y-73584435D01*
X108460453Y-73553636D01*
X108510615Y-73486705D01*
X108561745Y-73350316D01*
X108568500Y-73288134D01*
X108568500Y-71491866D01*
X108561745Y-71429684D01*
X108510615Y-71293295D01*
X108437370Y-71195564D01*
X108412522Y-71129059D01*
X108427575Y-71059676D01*
X108437370Y-71044435D01*
X108510615Y-70946705D01*
X108561745Y-70810316D01*
X108568500Y-70748134D01*
X108568500Y-70548120D01*
X108588502Y-70479999D01*
X108642158Y-70433506D01*
X108644935Y-70432425D01*
X108649632Y-70430215D01*
X108657175Y-70427764D01*
X108663872Y-70423514D01*
X108664131Y-70423350D01*
X108685258Y-70412585D01*
X108685546Y-70412471D01*
X108685551Y-70412468D01*
X108692917Y-70409552D01*
X108699325Y-70404896D01*
X108699331Y-70404893D01*
X108738352Y-70376542D01*
X108744889Y-70372099D01*
X108792318Y-70342000D01*
X108797959Y-70335993D01*
X108815746Y-70320312D01*
X108815991Y-70320134D01*
X108815993Y-70320132D01*
X108822407Y-70315472D01*
X108843705Y-70289728D01*
X108858203Y-70272204D01*
X108863434Y-70266270D01*
X108896458Y-70231102D01*
X108896460Y-70231099D01*
X108901886Y-70225321D01*
X108905858Y-70218097D01*
X108919181Y-70198494D01*
X108919380Y-70198254D01*
X108919384Y-70198247D01*
X108924433Y-70192144D01*
X108948347Y-70141324D01*
X108951929Y-70134292D01*
X108978995Y-70085060D01*
X108980965Y-70077385D01*
X108980968Y-70077379D01*
X108981044Y-70077081D01*
X108989076Y-70054772D01*
X108989206Y-70054497D01*
X108989209Y-70054489D01*
X108992583Y-70047318D01*
X109003106Y-69992151D01*
X109004832Y-69984429D01*
X109016829Y-69937707D01*
X109016829Y-69937706D01*
X109018800Y-69930030D01*
X109018800Y-69921793D01*
X109021032Y-69898184D01*
X109021090Y-69897881D01*
X109021090Y-69897877D01*
X109022575Y-69890094D01*
X109019049Y-69834049D01*
X109018800Y-69826138D01*
X109018800Y-56243968D01*
X109019327Y-56232785D01*
X109021002Y-56225292D01*
X109018862Y-56157201D01*
X109018800Y-56153244D01*
X109018800Y-56125344D01*
X109018296Y-56121353D01*
X109017363Y-56109511D01*
X109016223Y-56073236D01*
X109015974Y-56065311D01*
X109012483Y-56053295D01*
X109010321Y-56045852D01*
X109006312Y-56026493D01*
X109006146Y-56025183D01*
X109003774Y-56006403D01*
X109000858Y-55999037D01*
X109000856Y-55999031D01*
X108987500Y-55965298D01*
X108983655Y-55954068D01*
X108973530Y-55919217D01*
X108973530Y-55919216D01*
X108971319Y-55911607D01*
X108961005Y-55894166D01*
X108952308Y-55876413D01*
X108947772Y-55864958D01*
X108944852Y-55857583D01*
X108927046Y-55833075D01*
X108918863Y-55821812D01*
X108912347Y-55811892D01*
X108908828Y-55805941D01*
X108889842Y-55773838D01*
X108875518Y-55759514D01*
X108862683Y-55744487D01*
X108850772Y-55728093D01*
X108816703Y-55699908D01*
X108807925Y-55691920D01*
X108698448Y-55582444D01*
X108690912Y-55574162D01*
X108686800Y-55567682D01*
X108637147Y-55521055D01*
X108634306Y-55518301D01*
X108614570Y-55498565D01*
X108611438Y-55496136D01*
X108610674Y-55495462D01*
X108572804Y-55435409D01*
X108568000Y-55400949D01*
X108568000Y-54882115D01*
X108563525Y-54866876D01*
X108562135Y-54865671D01*
X108554452Y-54864000D01*
X104070116Y-54864000D01*
X104054877Y-54868475D01*
X104053672Y-54869865D01*
X104052001Y-54877548D01*
X104052001Y-55215200D01*
X104031999Y-55283321D01*
X103978343Y-55329814D01*
X103926001Y-55341200D01*
X96929294Y-55341200D01*
X96861173Y-55321198D01*
X96840199Y-55304295D01*
X89309052Y-47773147D01*
X89301512Y-47764861D01*
X89297400Y-47758382D01*
X89247748Y-47711756D01*
X89244907Y-47709002D01*
X89225170Y-47689265D01*
X89221973Y-47686785D01*
X89212951Y-47679080D01*
X89186500Y-47654241D01*
X89180721Y-47648814D01*
X89173775Y-47644995D01*
X89173772Y-47644993D01*
X89162966Y-47639052D01*
X89146447Y-47628201D01*
X89144447Y-47626650D01*
X89130441Y-47615786D01*
X89123172Y-47612641D01*
X89123168Y-47612638D01*
X89089863Y-47598226D01*
X89079203Y-47593004D01*
X89075920Y-47591199D01*
X89053799Y-47579038D01*
X89003741Y-47528695D01*
X88988500Y-47468624D01*
X88988500Y-47087856D01*
X88989578Y-47071409D01*
X88991092Y-47059908D01*
X88991529Y-47056590D01*
X88993156Y-46990000D01*
X88988924Y-46938524D01*
X88988500Y-46928200D01*
X88988500Y-46574200D01*
X89008502Y-46506079D01*
X89062158Y-46459586D01*
X89114500Y-46448200D01*
X102744806Y-46448200D01*
X102812927Y-46468202D01*
X102833901Y-46485105D01*
X103731043Y-47382247D01*
X103738587Y-47390537D01*
X103742700Y-47397018D01*
X103748477Y-47402443D01*
X103792367Y-47443658D01*
X103795209Y-47446413D01*
X103814930Y-47466134D01*
X103818125Y-47468612D01*
X103827147Y-47476318D01*
X103859379Y-47506586D01*
X103866328Y-47510406D01*
X103877132Y-47516346D01*
X103893656Y-47527199D01*
X103909659Y-47539613D01*
X103950243Y-47557176D01*
X103960872Y-47562383D01*
X103986201Y-47576307D01*
X104036259Y-47626650D01*
X104051500Y-47686721D01*
X104051500Y-47888134D01*
X104058255Y-47950316D01*
X104109385Y-48086705D01*
X104182630Y-48184435D01*
X104207478Y-48250941D01*
X104192425Y-48320324D01*
X104182632Y-48335562D01*
X104109385Y-48433295D01*
X104058255Y-48569684D01*
X104051500Y-48631866D01*
X104051500Y-49450219D01*
X104050787Y-49463607D01*
X104047251Y-49496695D01*
X104047548Y-49501848D01*
X104047548Y-49501851D01*
X104051291Y-49566763D01*
X104051500Y-49574016D01*
X104051500Y-50428134D01*
X104058255Y-50490316D01*
X104109385Y-50626705D01*
X104181624Y-50723093D01*
X104182630Y-50724435D01*
X104207478Y-50790941D01*
X104192425Y-50860324D01*
X104182632Y-50875562D01*
X104109385Y-50973295D01*
X104058255Y-51109684D01*
X104051500Y-51171866D01*
X104051500Y-51990219D01*
X104050787Y-52003607D01*
X104047251Y-52036695D01*
X104047548Y-52041848D01*
X104047548Y-52041851D01*
X104051291Y-52106763D01*
X104051500Y-52114016D01*
X104051500Y-52968134D01*
X104058255Y-53030316D01*
X104109385Y-53166705D01*
X104114771Y-53173891D01*
X104182942Y-53264852D01*
X104207790Y-53331358D01*
X104192737Y-53400741D01*
X104182942Y-53415982D01*
X104115214Y-53506351D01*
X104106676Y-53521946D01*
X104061522Y-53642394D01*
X104057895Y-53657649D01*
X104052369Y-53708514D01*
X104052000Y-53715328D01*
X104052000Y-54337885D01*
X104056475Y-54353124D01*
X104057865Y-54354329D01*
X104065548Y-54356000D01*
X108549884Y-54356000D01*
X108565123Y-54351525D01*
X108566328Y-54350135D01*
X108567999Y-54342452D01*
X108567999Y-53715331D01*
X108567629Y-53708510D01*
X108562105Y-53657648D01*
X108558479Y-53642396D01*
X108513324Y-53521946D01*
X108504786Y-53506351D01*
X108437058Y-53415982D01*
X108412210Y-53349475D01*
X108427263Y-53280093D01*
X108437058Y-53264852D01*
X108505229Y-53173891D01*
X108510615Y-53166705D01*
X108561745Y-53030316D01*
X108568500Y-52968134D01*
X108568500Y-51171866D01*
X108561745Y-51109684D01*
X108510615Y-50973295D01*
X108437370Y-50875564D01*
X108412522Y-50809059D01*
X108427575Y-50739676D01*
X108437370Y-50724435D01*
X108438376Y-50723093D01*
X108510615Y-50626705D01*
X108561745Y-50490316D01*
X108568500Y-50428134D01*
X108568500Y-48631866D01*
X108561745Y-48569684D01*
X108510615Y-48433295D01*
X108437370Y-48335564D01*
X108412522Y-48269059D01*
X108427575Y-48199676D01*
X108437370Y-48184435D01*
X108510615Y-48086705D01*
X108561745Y-47950316D01*
X108568500Y-47888134D01*
X108568500Y-46091866D01*
X108561745Y-46029684D01*
X108510615Y-45893295D01*
X108437370Y-45795564D01*
X108412522Y-45729059D01*
X108427575Y-45659676D01*
X108437370Y-45644435D01*
X108486362Y-45579065D01*
X108510615Y-45546705D01*
X108561745Y-45410316D01*
X108568500Y-45348134D01*
X108568500Y-43551866D01*
X108561745Y-43489684D01*
X108510615Y-43353295D01*
X108437058Y-43255148D01*
X108412210Y-43188642D01*
X108427263Y-43119259D01*
X108437058Y-43104018D01*
X108504786Y-43013649D01*
X108513324Y-42998054D01*
X108558478Y-42877606D01*
X108562105Y-42862351D01*
X108567631Y-42811486D01*
X108568000Y-42804672D01*
X108568000Y-42182115D01*
X108563525Y-42166876D01*
X108562135Y-42165671D01*
X108554452Y-42164000D01*
X104070116Y-42164000D01*
X104054877Y-42168475D01*
X104053672Y-42169865D01*
X104052001Y-42177548D01*
X104052001Y-42804669D01*
X104052371Y-42811490D01*
X104057895Y-42862352D01*
X104061521Y-42877604D01*
X104106676Y-42998054D01*
X104115214Y-43013649D01*
X104182942Y-43104018D01*
X104207790Y-43170525D01*
X104192737Y-43239907D01*
X104182942Y-43255148D01*
X104109385Y-43353295D01*
X104058255Y-43489684D01*
X104051500Y-43551866D01*
X104051500Y-44370219D01*
X104050787Y-44383607D01*
X104047251Y-44416695D01*
X104047548Y-44421848D01*
X104047548Y-44421851D01*
X104051291Y-44486763D01*
X104051500Y-44494016D01*
X104051500Y-45348134D01*
X104058255Y-45410316D01*
X104109385Y-45546705D01*
X104133638Y-45579065D01*
X104182630Y-45644435D01*
X104207478Y-45710941D01*
X104192425Y-45780324D01*
X104182636Y-45795556D01*
X104164203Y-45820151D01*
X104107345Y-45862664D01*
X104036526Y-45867689D01*
X103974284Y-45833679D01*
X103563052Y-45422447D01*
X103555512Y-45414161D01*
X103551400Y-45407682D01*
X103501748Y-45361056D01*
X103498907Y-45358302D01*
X103479170Y-45338565D01*
X103475973Y-45336085D01*
X103466951Y-45328380D01*
X103440500Y-45303541D01*
X103434721Y-45298114D01*
X103427775Y-45294295D01*
X103427772Y-45294293D01*
X103416966Y-45288352D01*
X103400447Y-45277501D01*
X103399983Y-45277141D01*
X103384441Y-45265086D01*
X103377172Y-45261941D01*
X103377168Y-45261938D01*
X103343863Y-45247526D01*
X103333213Y-45242309D01*
X103294460Y-45221005D01*
X103274837Y-45215967D01*
X103256134Y-45209563D01*
X103244820Y-45204667D01*
X103244819Y-45204667D01*
X103237545Y-45201519D01*
X103229722Y-45200280D01*
X103229712Y-45200277D01*
X103193876Y-45194601D01*
X103182256Y-45192195D01*
X103147111Y-45183172D01*
X103147110Y-45183172D01*
X103139430Y-45181200D01*
X103119176Y-45181200D01*
X103099465Y-45179649D01*
X103087286Y-45177720D01*
X103079457Y-45176480D01*
X103071565Y-45177226D01*
X103035439Y-45180641D01*
X103023581Y-45181200D01*
X89114500Y-45181200D01*
X89046379Y-45161198D01*
X88999886Y-45107542D01*
X88988500Y-45055200D01*
X88988500Y-44547856D01*
X88989578Y-44531409D01*
X88991092Y-44519908D01*
X88991529Y-44516590D01*
X88993156Y-44450000D01*
X88988924Y-44398524D01*
X88988500Y-44388200D01*
X88988500Y-44159062D01*
X89008502Y-44090941D01*
X89062158Y-44044448D01*
X89088303Y-44035815D01*
X89097234Y-44033917D01*
X89268588Y-43997494D01*
X89274619Y-43994809D01*
X89437022Y-43922503D01*
X89437024Y-43922502D01*
X89443052Y-43919818D01*
X89597553Y-43807566D01*
X89638401Y-43762200D01*
X89720921Y-43670552D01*
X89720922Y-43670551D01*
X89725340Y-43665644D01*
X89800353Y-43535718D01*
X89817523Y-43505979D01*
X89817524Y-43505978D01*
X89820827Y-43500256D01*
X89879842Y-43318628D01*
X89899804Y-43128700D01*
X89889499Y-43030649D01*
X89880532Y-42945335D01*
X89880532Y-42945333D01*
X89879842Y-42938772D01*
X89820827Y-42757144D01*
X89725340Y-42591756D01*
X89597553Y-42449834D01*
X89478466Y-42363312D01*
X89448394Y-42341463D01*
X89448393Y-42341462D01*
X89443052Y-42337582D01*
X89437024Y-42334898D01*
X89437022Y-42334897D01*
X89274619Y-42262591D01*
X89274618Y-42262591D01*
X89268588Y-42259906D01*
X89081787Y-42220200D01*
X89079071Y-42220200D01*
X89010965Y-42190653D01*
X88982135Y-42165671D01*
X88974452Y-42164000D01*
X84490116Y-42164000D01*
X84474877Y-42168475D01*
X84473672Y-42169865D01*
X84472001Y-42177548D01*
X84472001Y-42369200D01*
X84451999Y-42437321D01*
X84398343Y-42483814D01*
X84346001Y-42495200D01*
X64323394Y-42495200D01*
X64255273Y-42475198D01*
X64234299Y-42458295D01*
X63767222Y-41991218D01*
X63733196Y-41928906D01*
X63731007Y-41915293D01*
X63714332Y-41756635D01*
X63714332Y-41756633D01*
X63713642Y-41750072D01*
X63654627Y-41568444D01*
X63627824Y-41522019D01*
X63611704Y-41494100D01*
X63559140Y-41403056D01*
X63545676Y-41388102D01*
X63435775Y-41266045D01*
X63435774Y-41266044D01*
X63431353Y-41261134D01*
X63276852Y-41148882D01*
X63270824Y-41146198D01*
X63270822Y-41146197D01*
X63108419Y-41073891D01*
X63108418Y-41073891D01*
X63102388Y-41071206D01*
X62994093Y-41048187D01*
X62922044Y-41032872D01*
X62922039Y-41032872D01*
X62915587Y-41031500D01*
X62724613Y-41031500D01*
X62718161Y-41032872D01*
X62718156Y-41032872D01*
X62646107Y-41048187D01*
X62537812Y-41071206D01*
X62531782Y-41073891D01*
X62531781Y-41073891D01*
X62369378Y-41146197D01*
X62369376Y-41146198D01*
X62363348Y-41148882D01*
X62208847Y-41261134D01*
X62204426Y-41266044D01*
X62204425Y-41266045D01*
X62094525Y-41388102D01*
X62081060Y-41403056D01*
X62028496Y-41494100D01*
X62012377Y-41522019D01*
X61985573Y-41568444D01*
X61926558Y-41750072D01*
X61925869Y-41756631D01*
X61925868Y-41756634D01*
X61908102Y-41925671D01*
X61881089Y-41991327D01*
X61822867Y-42031957D01*
X61782792Y-42038500D01*
X61639213Y-42038500D01*
X61632761Y-42039872D01*
X61632756Y-42039872D01*
X61550470Y-42057363D01*
X61452412Y-42078206D01*
X61446382Y-42080891D01*
X61446381Y-42080891D01*
X61283978Y-42153197D01*
X61283976Y-42153198D01*
X61277948Y-42155882D01*
X61272607Y-42159762D01*
X61272606Y-42159763D01*
X61230090Y-42190653D01*
X61123447Y-42268134D01*
X61119026Y-42273044D01*
X61119025Y-42273045D01*
X61057537Y-42341335D01*
X60995660Y-42410056D01*
X60900173Y-42575444D01*
X60861856Y-42693370D01*
X60853484Y-42719137D01*
X60813410Y-42777742D01*
X60748013Y-42805379D01*
X60733651Y-42806200D01*
X46869417Y-42806200D01*
X46801296Y-42786198D01*
X46754803Y-42732542D01*
X46744107Y-42693370D01*
X46734029Y-42597474D01*
X46725042Y-42511972D01*
X46666027Y-42330344D01*
X46645027Y-42293970D01*
X46577810Y-42177548D01*
X46570540Y-42164956D01*
X46442753Y-42023034D01*
X46328467Y-41940000D01*
X46293594Y-41914663D01*
X46293593Y-41914662D01*
X46288252Y-41910782D01*
X46282224Y-41908098D01*
X46282222Y-41908097D01*
X46119819Y-41835791D01*
X46119818Y-41835791D01*
X46113788Y-41833106D01*
X46020387Y-41813253D01*
X45933444Y-41794772D01*
X45933439Y-41794772D01*
X45926987Y-41793400D01*
X45736013Y-41793400D01*
X45729561Y-41794772D01*
X45729556Y-41794772D01*
X45642613Y-41813253D01*
X45549212Y-41833106D01*
X45543182Y-41835791D01*
X45543181Y-41835791D01*
X45380778Y-41908097D01*
X45380776Y-41908098D01*
X45374748Y-41910782D01*
X45369407Y-41914662D01*
X45369406Y-41914663D01*
X45334533Y-41940000D01*
X45220247Y-42023034D01*
X45215832Y-42027937D01*
X45210920Y-42032360D01*
X45209795Y-42031111D01*
X45156486Y-42063951D01*
X45123300Y-42068400D01*
X43360094Y-42068400D01*
X43291973Y-42048398D01*
X43245480Y-41994742D01*
X43235376Y-41924468D01*
X43264870Y-41859888D01*
X43270999Y-41853305D01*
X45083899Y-40040405D01*
X45146211Y-40006379D01*
X45172994Y-40003500D01*
X81112687Y-40003500D01*
X81180808Y-40023502D01*
X81227301Y-40077158D01*
X81237405Y-40147432D01*
X81217218Y-40197170D01*
X81218060Y-40197656D01*
X81141469Y-40330316D01*
X81122573Y-40363044D01*
X81063558Y-40544672D01*
X81062868Y-40551233D01*
X81062868Y-40551235D01*
X81056783Y-40609135D01*
X81043596Y-40734600D01*
X81044286Y-40741165D01*
X81057596Y-40867798D01*
X81063558Y-40924528D01*
X81122573Y-41106156D01*
X81125876Y-41111878D01*
X81125877Y-41111879D01*
X81148795Y-41151574D01*
X81218060Y-41271544D01*
X81345847Y-41413466D01*
X81444943Y-41485464D01*
X81487010Y-41516027D01*
X81500348Y-41525718D01*
X81506376Y-41528402D01*
X81506378Y-41528403D01*
X81652832Y-41593608D01*
X81674812Y-41603394D01*
X81750787Y-41619543D01*
X81855156Y-41641728D01*
X81855161Y-41641728D01*
X81861613Y-41643100D01*
X82052587Y-41643100D01*
X82059039Y-41641728D01*
X82059044Y-41641728D01*
X82163413Y-41619543D01*
X82239388Y-41603394D01*
X82261368Y-41593608D01*
X82407822Y-41528403D01*
X82407824Y-41528402D01*
X82413852Y-41525718D01*
X82427191Y-41516027D01*
X82551130Y-41425979D01*
X82568353Y-41413466D01*
X82572768Y-41408563D01*
X82577680Y-41404140D01*
X82578805Y-41405389D01*
X82632114Y-41372549D01*
X82665300Y-41368100D01*
X84346000Y-41368100D01*
X84414121Y-41388102D01*
X84460614Y-41441758D01*
X84472000Y-41494100D01*
X84472000Y-41637885D01*
X84476475Y-41653124D01*
X84477865Y-41654329D01*
X84485548Y-41656000D01*
X88969884Y-41656000D01*
X88985123Y-41651525D01*
X88986328Y-41650135D01*
X88987999Y-41642452D01*
X88987999Y-41494100D01*
X89008001Y-41425979D01*
X89061657Y-41379486D01*
X89113999Y-41368100D01*
X89812206Y-41368100D01*
X89880327Y-41388102D01*
X89901301Y-41405005D01*
X90003544Y-41507248D01*
X90011088Y-41515538D01*
X90015201Y-41522019D01*
X90020978Y-41527444D01*
X90064868Y-41568659D01*
X90067710Y-41571414D01*
X90087431Y-41591135D01*
X90090626Y-41593613D01*
X90099648Y-41601319D01*
X90131880Y-41631587D01*
X90138829Y-41635407D01*
X90149633Y-41641347D01*
X90166157Y-41652200D01*
X90182160Y-41664614D01*
X90222744Y-41682177D01*
X90233374Y-41687384D01*
X90272141Y-41708696D01*
X90279818Y-41710667D01*
X90279823Y-41710669D01*
X90291759Y-41713733D01*
X90310467Y-41720138D01*
X90329056Y-41728182D01*
X90336884Y-41729422D01*
X90336891Y-41729424D01*
X90372725Y-41735100D01*
X90384345Y-41737506D01*
X90416160Y-41745674D01*
X90427171Y-41748501D01*
X90447425Y-41748501D01*
X90467135Y-41750052D01*
X90487144Y-41753221D01*
X90495036Y-41752475D01*
X90513781Y-41750703D01*
X90531163Y-41749060D01*
X90543020Y-41748501D01*
X101808232Y-41748501D01*
X101819415Y-41749028D01*
X101826908Y-41750703D01*
X101834834Y-41750454D01*
X101834835Y-41750454D01*
X101894985Y-41748563D01*
X101898944Y-41748501D01*
X101926855Y-41748501D01*
X101930790Y-41748004D01*
X101930855Y-41747996D01*
X101942692Y-41747063D01*
X101974950Y-41746049D01*
X101978969Y-41745923D01*
X101986888Y-41745674D01*
X102006342Y-41740022D01*
X102025699Y-41736014D01*
X102037929Y-41734469D01*
X102037930Y-41734469D01*
X102045796Y-41733475D01*
X102053167Y-41730556D01*
X102053169Y-41730556D01*
X102086911Y-41717197D01*
X102098141Y-41713352D01*
X102132982Y-41703230D01*
X102132983Y-41703230D01*
X102140592Y-41701019D01*
X102147411Y-41696986D01*
X102147416Y-41696984D01*
X102158027Y-41690708D01*
X102175775Y-41682013D01*
X102194616Y-41674553D01*
X102214986Y-41659754D01*
X102230386Y-41648565D01*
X102240306Y-41642049D01*
X102271534Y-41623581D01*
X102271537Y-41623579D01*
X102278361Y-41619543D01*
X102292682Y-41605222D01*
X102307716Y-41592381D01*
X102309431Y-41591135D01*
X102324106Y-41580473D01*
X102329157Y-41574368D01*
X102329162Y-41574363D01*
X102352298Y-41546397D01*
X102360286Y-41537619D01*
X103221952Y-40675953D01*
X103230238Y-40668413D01*
X103236717Y-40664301D01*
X103283343Y-40614649D01*
X103286097Y-40611808D01*
X103305834Y-40592071D01*
X103308314Y-40588874D01*
X103316019Y-40579852D01*
X103340858Y-40553401D01*
X103346285Y-40547622D01*
X103350104Y-40540676D01*
X103350106Y-40540673D01*
X103356047Y-40529867D01*
X103366898Y-40513348D01*
X103374457Y-40503602D01*
X103379313Y-40497342D01*
X103382458Y-40490073D01*
X103382461Y-40490069D01*
X103396873Y-40456764D01*
X103402090Y-40446114D01*
X103423394Y-40407361D01*
X103428432Y-40387738D01*
X103434836Y-40369035D01*
X103439732Y-40357721D01*
X103439732Y-40357720D01*
X103442880Y-40350446D01*
X103444119Y-40342623D01*
X103444122Y-40342613D01*
X103449798Y-40306777D01*
X103452204Y-40295157D01*
X103461227Y-40260012D01*
X103461227Y-40260011D01*
X103463199Y-40252331D01*
X103463199Y-40232077D01*
X103464750Y-40212366D01*
X103466679Y-40200187D01*
X103467919Y-40192358D01*
X103463758Y-40148339D01*
X103463199Y-40136482D01*
X103463199Y-38549595D01*
X103483201Y-38481474D01*
X103500104Y-38460500D01*
X103974284Y-37986320D01*
X104036596Y-37952294D01*
X104107411Y-37957359D01*
X104164204Y-37999849D01*
X104182632Y-38024438D01*
X104207478Y-38090943D01*
X104192424Y-38160325D01*
X104182632Y-38175562D01*
X104109385Y-38273295D01*
X104058255Y-38409684D01*
X104051500Y-38471866D01*
X104051500Y-39290219D01*
X104050787Y-39303607D01*
X104047251Y-39336695D01*
X104047548Y-39341848D01*
X104047548Y-39341851D01*
X104051291Y-39406763D01*
X104051500Y-39414016D01*
X104051500Y-40268134D01*
X104058255Y-40330316D01*
X104109385Y-40466705D01*
X104132346Y-40497342D01*
X104182942Y-40564852D01*
X104207790Y-40631358D01*
X104192737Y-40700741D01*
X104182942Y-40715982D01*
X104115214Y-40806351D01*
X104106676Y-40821946D01*
X104061522Y-40942394D01*
X104057895Y-40957649D01*
X104052369Y-41008514D01*
X104052000Y-41015328D01*
X104052000Y-41637885D01*
X104056475Y-41653124D01*
X104057865Y-41654329D01*
X104065548Y-41656000D01*
X108549884Y-41656000D01*
X108565123Y-41651525D01*
X108566328Y-41650135D01*
X108567999Y-41642452D01*
X108567999Y-41015331D01*
X108567629Y-41008510D01*
X108562105Y-40957648D01*
X108558479Y-40942396D01*
X108513324Y-40821946D01*
X108504786Y-40806351D01*
X108437058Y-40715982D01*
X108412210Y-40649475D01*
X108427263Y-40580093D01*
X108437058Y-40564852D01*
X108487654Y-40497342D01*
X108510615Y-40466705D01*
X108561745Y-40330316D01*
X108568500Y-40268134D01*
X108568500Y-39248703D01*
X109904743Y-39248703D01*
X109905302Y-39252947D01*
X109905302Y-39252951D01*
X109916327Y-39336695D01*
X109942268Y-39533734D01*
X109943401Y-39537874D01*
X109943401Y-39537876D01*
X109964415Y-39614689D01*
X110018129Y-39811036D01*
X110019813Y-39814984D01*
X110119498Y-40048690D01*
X110130923Y-40075476D01*
X110173988Y-40147432D01*
X110265844Y-40300912D01*
X110278561Y-40322161D01*
X110458313Y-40546528D01*
X110509260Y-40594875D01*
X110663418Y-40741165D01*
X110666851Y-40744423D01*
X110900317Y-40912186D01*
X110904112Y-40914195D01*
X110904113Y-40914196D01*
X110923627Y-40924528D01*
X111154392Y-41046712D01*
X111424373Y-41145511D01*
X111705264Y-41206755D01*
X111733841Y-41209004D01*
X111928282Y-41224307D01*
X111928291Y-41224307D01*
X111930739Y-41224500D01*
X112086271Y-41224500D01*
X112088407Y-41224354D01*
X112088418Y-41224354D01*
X112296548Y-41210165D01*
X112296554Y-41210164D01*
X112300825Y-41209873D01*
X112305020Y-41209004D01*
X112305022Y-41209004D01*
X112576600Y-41152763D01*
X112582342Y-41151574D01*
X112853343Y-41055607D01*
X113108812Y-40923750D01*
X113112313Y-40921289D01*
X113112317Y-40921287D01*
X113275854Y-40806351D01*
X113344023Y-40758441D01*
X113461284Y-40649475D01*
X113551479Y-40565661D01*
X113551481Y-40565658D01*
X113554622Y-40562740D01*
X113736713Y-40340268D01*
X113886927Y-40095142D01*
X113894822Y-40077158D01*
X114000757Y-39835830D01*
X114002483Y-39831898D01*
X114027085Y-39745534D01*
X114080068Y-39559534D01*
X114081244Y-39555406D01*
X114121751Y-39270784D01*
X114121845Y-39252951D01*
X114123235Y-38987583D01*
X114123235Y-38987576D01*
X114123257Y-38983297D01*
X114085732Y-38698266D01*
X114009871Y-38420964D01*
X113976378Y-38342442D01*
X113898763Y-38160476D01*
X113898761Y-38160472D01*
X113897077Y-38156524D01*
X113816072Y-38021174D01*
X113751643Y-37913521D01*
X113751640Y-37913517D01*
X113749439Y-37909839D01*
X113569687Y-37685472D01*
X113361149Y-37487577D01*
X113127683Y-37319814D01*
X113105843Y-37308250D01*
X113082654Y-37295972D01*
X112873608Y-37185288D01*
X112603627Y-37086489D01*
X112322736Y-37025245D01*
X112291685Y-37022801D01*
X112099718Y-37007693D01*
X112099709Y-37007693D01*
X112097261Y-37007500D01*
X111941729Y-37007500D01*
X111939593Y-37007646D01*
X111939582Y-37007646D01*
X111731452Y-37021835D01*
X111731446Y-37021836D01*
X111727175Y-37022127D01*
X111722980Y-37022996D01*
X111722978Y-37022996D01*
X111693788Y-37029041D01*
X111445658Y-37080426D01*
X111174657Y-37176393D01*
X110919188Y-37308250D01*
X110915687Y-37310711D01*
X110915683Y-37310713D01*
X110905594Y-37317804D01*
X110683977Y-37473559D01*
X110668892Y-37487577D01*
X110500669Y-37643900D01*
X110473378Y-37669260D01*
X110291287Y-37891732D01*
X110141073Y-38136858D01*
X110139347Y-38140791D01*
X110139346Y-38140792D01*
X110062714Y-38315364D01*
X110025517Y-38400102D01*
X110024342Y-38404229D01*
X110024341Y-38404230D01*
X109997799Y-38497405D01*
X109946756Y-38676594D01*
X109906249Y-38961216D01*
X109906227Y-38965505D01*
X109906226Y-38965512D01*
X109904765Y-39244417D01*
X109904743Y-39248703D01*
X108568500Y-39248703D01*
X108568500Y-38471866D01*
X108561745Y-38409684D01*
X108510615Y-38273295D01*
X108437370Y-38175564D01*
X108412522Y-38109059D01*
X108427575Y-38039676D01*
X108437368Y-38024438D01*
X108510615Y-37926705D01*
X108561745Y-37790316D01*
X108568500Y-37728134D01*
X108568500Y-36194500D01*
X108588502Y-36126379D01*
X108642158Y-36079886D01*
X108694500Y-36068500D01*
X114250633Y-36068500D01*
X114270018Y-36070000D01*
G37*
%TD.AperFunction*%
%TA.AperFunction,Conductor*%
G36*
X67156832Y-70551038D02*
G01*
X67213668Y-70593585D01*
X67238479Y-70660105D01*
X67238800Y-70669094D01*
X67238800Y-74682305D01*
X67218798Y-74750426D01*
X67201895Y-74771401D01*
X66624799Y-75348496D01*
X66562487Y-75382521D01*
X66535704Y-75385400D01*
X66479813Y-75385400D01*
X66473361Y-75386772D01*
X66473356Y-75386772D01*
X66386412Y-75405253D01*
X66293012Y-75425106D01*
X66286982Y-75427791D01*
X66286981Y-75427791D01*
X66124578Y-75500097D01*
X66124576Y-75500098D01*
X66118548Y-75502782D01*
X65964047Y-75615034D01*
X65959626Y-75619944D01*
X65959625Y-75619945D01*
X65843072Y-75749391D01*
X65836260Y-75756956D01*
X65803847Y-75813097D01*
X65745603Y-75913979D01*
X65740773Y-75922344D01*
X65681758Y-76103972D01*
X65681068Y-76110533D01*
X65681068Y-76110535D01*
X65663523Y-76277470D01*
X65636510Y-76343127D01*
X65578288Y-76383757D01*
X65538213Y-76390300D01*
X61197163Y-76390300D01*
X61185979Y-76389773D01*
X61178491Y-76388099D01*
X61170568Y-76388348D01*
X61110433Y-76390238D01*
X61106475Y-76390300D01*
X61078544Y-76390300D01*
X61074629Y-76390795D01*
X61074625Y-76390795D01*
X61074567Y-76390803D01*
X61074538Y-76390806D01*
X61062696Y-76391739D01*
X61018510Y-76393127D01*
X61006972Y-76396479D01*
X60999058Y-76398778D01*
X60979706Y-76402786D01*
X60972635Y-76403680D01*
X60959603Y-76405326D01*
X60952234Y-76408243D01*
X60952232Y-76408244D01*
X60918497Y-76421600D01*
X60907269Y-76425445D01*
X60864807Y-76437782D01*
X60857985Y-76441816D01*
X60857979Y-76441819D01*
X60847368Y-76448094D01*
X60829618Y-76456790D01*
X60818156Y-76461328D01*
X60818151Y-76461331D01*
X60810783Y-76464248D01*
X60793370Y-76476899D01*
X60775025Y-76490227D01*
X60765107Y-76496743D01*
X60746942Y-76507486D01*
X60727037Y-76519258D01*
X60712713Y-76533582D01*
X60697681Y-76546421D01*
X60681293Y-76558328D01*
X60670015Y-76571961D01*
X60653112Y-76592393D01*
X60645122Y-76601173D01*
X60301247Y-76945048D01*
X60292961Y-76952588D01*
X60286482Y-76956700D01*
X60242931Y-77003078D01*
X60239857Y-77006351D01*
X60237102Y-77009193D01*
X60217365Y-77028930D01*
X60214885Y-77032127D01*
X60207182Y-77041147D01*
X60176914Y-77073379D01*
X60173095Y-77080325D01*
X60173093Y-77080328D01*
X60167152Y-77091134D01*
X60156301Y-77107653D01*
X60143886Y-77123659D01*
X60140741Y-77130928D01*
X60140738Y-77130932D01*
X60126326Y-77164237D01*
X60121109Y-77174887D01*
X60099805Y-77213640D01*
X60097834Y-77221315D01*
X60097834Y-77221316D01*
X60094767Y-77233262D01*
X60088363Y-77251966D01*
X60080319Y-77270555D01*
X60079080Y-77278378D01*
X60079077Y-77278388D01*
X60073401Y-77314224D01*
X60070995Y-77325844D01*
X60060000Y-77368670D01*
X60060000Y-77388924D01*
X60058449Y-77408634D01*
X60055280Y-77428643D01*
X60056008Y-77436347D01*
X60033901Y-77503728D01*
X60019191Y-77521405D01*
X56766082Y-80774514D01*
X56703770Y-80808540D01*
X56632955Y-80803475D01*
X56576119Y-80760928D01*
X56562793Y-80738670D01*
X56511417Y-80628494D01*
X56505931Y-80618993D01*
X56380972Y-80440533D01*
X56373916Y-80432125D01*
X56219875Y-80278084D01*
X56211467Y-80271028D01*
X56033007Y-80146069D01*
X56023511Y-80140586D01*
X55826053Y-80048510D01*
X55815761Y-80044764D01*
X55643497Y-79998606D01*
X55629401Y-79998942D01*
X55626000Y-80006884D01*
X55626000Y-81408000D01*
X55605998Y-81476121D01*
X55552342Y-81522614D01*
X55500000Y-81534000D01*
X54104033Y-81534000D01*
X54090502Y-81537973D01*
X54089273Y-81546522D01*
X54136764Y-81723761D01*
X54140510Y-81734053D01*
X54232586Y-81931511D01*
X54238069Y-81941007D01*
X54363028Y-82119467D01*
X54370084Y-82127875D01*
X54524125Y-82281916D01*
X54532533Y-82288972D01*
X54710993Y-82413931D01*
X54720494Y-82419417D01*
X54830670Y-82470793D01*
X54883954Y-82517710D01*
X54903415Y-82585987D01*
X54882873Y-82653947D01*
X54866517Y-82674078D01*
X53121000Y-84419595D01*
X53058688Y-84453621D01*
X53031905Y-84456500D01*
X51120359Y-84456500D01*
X51052238Y-84436498D01*
X51014567Y-84398940D01*
X50906574Y-84232009D01*
X50903764Y-84227665D01*
X50871190Y-84191866D01*
X50795510Y-84108695D01*
X50747887Y-84056358D01*
X50743836Y-84053159D01*
X50743832Y-84053155D01*
X50570177Y-83916011D01*
X50570172Y-83916008D01*
X50566123Y-83912810D01*
X50561607Y-83910317D01*
X50561604Y-83910315D01*
X50367879Y-83803373D01*
X50367875Y-83803371D01*
X50363355Y-83800876D01*
X50358486Y-83799152D01*
X50358482Y-83799150D01*
X50149903Y-83725288D01*
X50149899Y-83725287D01*
X50145028Y-83723562D01*
X50139935Y-83722655D01*
X50139932Y-83722654D01*
X49922095Y-83683851D01*
X49922089Y-83683850D01*
X49917006Y-83682945D01*
X49844096Y-83682054D01*
X49690581Y-83680179D01*
X49690579Y-83680179D01*
X49685411Y-83680116D01*
X49456464Y-83715150D01*
X49236314Y-83787106D01*
X49231726Y-83789494D01*
X49231722Y-83789496D01*
X49100907Y-83857594D01*
X49030872Y-83894052D01*
X49026739Y-83897155D01*
X49026736Y-83897157D01*
X48887541Y-84001668D01*
X48845655Y-84033117D01*
X48828170Y-84051414D01*
X48766646Y-84086844D01*
X48695733Y-84083387D01*
X48637947Y-84042141D01*
X48619094Y-84008592D01*
X48597768Y-83951705D01*
X48597767Y-83951703D01*
X48594615Y-83943295D01*
X48507261Y-83826739D01*
X48390705Y-83739385D01*
X48254316Y-83688255D01*
X48192134Y-83681500D01*
X46295866Y-83681500D01*
X46233684Y-83688255D01*
X46097295Y-83739385D01*
X45980739Y-83826739D01*
X45893385Y-83943295D01*
X45842255Y-84079684D01*
X45835500Y-84141866D01*
X45835500Y-85555900D01*
X45815498Y-85624021D01*
X45761842Y-85670514D01*
X45709500Y-85681900D01*
X38872995Y-85681900D01*
X38804874Y-85661898D01*
X38783900Y-85644995D01*
X38724299Y-85585394D01*
X38690273Y-85523082D01*
X38692836Y-85459672D01*
X38714408Y-85388671D01*
X38744640Y-85159041D01*
X38744782Y-85153240D01*
X38746245Y-85093365D01*
X38746245Y-85093361D01*
X38746327Y-85090000D01*
X38732352Y-84920016D01*
X38727773Y-84864318D01*
X38727772Y-84864312D01*
X38727349Y-84859167D01*
X38683677Y-84685299D01*
X38672184Y-84639544D01*
X38672183Y-84639540D01*
X38670925Y-84634533D01*
X38668866Y-84629797D01*
X38580630Y-84426868D01*
X38580628Y-84426865D01*
X38578570Y-84422131D01*
X38452764Y-84227665D01*
X38420190Y-84191866D01*
X38344510Y-84108695D01*
X38296887Y-84056358D01*
X38292836Y-84053159D01*
X38292832Y-84053155D01*
X38119177Y-83916011D01*
X38119172Y-83916008D01*
X38115123Y-83912810D01*
X38110607Y-83910317D01*
X38110604Y-83910315D01*
X37916879Y-83803373D01*
X37916875Y-83803371D01*
X37912355Y-83800876D01*
X37907486Y-83799152D01*
X37907482Y-83799150D01*
X37698903Y-83725288D01*
X37698899Y-83725287D01*
X37694028Y-83723562D01*
X37688935Y-83722655D01*
X37688932Y-83722654D01*
X37471095Y-83683851D01*
X37471089Y-83683850D01*
X37466006Y-83682945D01*
X37393096Y-83682054D01*
X37239581Y-83680179D01*
X37239579Y-83680179D01*
X37234411Y-83680116D01*
X37005464Y-83715150D01*
X36785314Y-83787106D01*
X36780726Y-83789494D01*
X36780722Y-83789496D01*
X36649907Y-83857594D01*
X36579872Y-83894052D01*
X36575739Y-83897155D01*
X36575736Y-83897157D01*
X36436541Y-84001668D01*
X36394655Y-84033117D01*
X36377170Y-84051414D01*
X36315646Y-84086844D01*
X36244733Y-84083387D01*
X36186947Y-84042141D01*
X36168094Y-84008592D01*
X36146768Y-83951705D01*
X36146767Y-83951703D01*
X36143615Y-83943295D01*
X36056261Y-83826739D01*
X35939705Y-83739385D01*
X35803316Y-83688255D01*
X35741134Y-83681500D01*
X33844866Y-83681500D01*
X33782684Y-83688255D01*
X33646295Y-83739385D01*
X33529739Y-83826739D01*
X33442385Y-83943295D01*
X33391255Y-84079684D01*
X33384500Y-84141866D01*
X33384500Y-86038134D01*
X33384869Y-86041531D01*
X33390992Y-86097892D01*
X33378464Y-86167774D01*
X33330144Y-86219790D01*
X33265729Y-86237500D01*
X30744364Y-86237500D01*
X30676243Y-86217498D01*
X30662533Y-86207311D01*
X30648263Y-86195123D01*
X30555416Y-86115824D01*
X30551208Y-86113245D01*
X30551202Y-86113241D01*
X30357183Y-85994346D01*
X30352963Y-85991760D01*
X30348393Y-85989867D01*
X30348389Y-85989865D01*
X30138167Y-85902789D01*
X30138165Y-85902788D01*
X30133594Y-85900895D01*
X30047643Y-85880260D01*
X29907524Y-85846620D01*
X29907518Y-85846619D01*
X29902711Y-85845465D01*
X29666000Y-85826835D01*
X29429289Y-85845465D01*
X29424482Y-85846619D01*
X29424476Y-85846620D01*
X29284357Y-85880260D01*
X29198406Y-85900895D01*
X29193835Y-85902788D01*
X29193833Y-85902789D01*
X28983611Y-85989865D01*
X28983607Y-85989867D01*
X28979037Y-85991760D01*
X28974817Y-85994346D01*
X28780798Y-86113241D01*
X28780792Y-86113245D01*
X28776584Y-86115824D01*
X28596031Y-86270031D01*
X28441824Y-86450584D01*
X28439245Y-86454792D01*
X28439241Y-86454798D01*
X28351358Y-86598210D01*
X28317760Y-86653037D01*
X28315867Y-86657607D01*
X28315865Y-86657611D01*
X28277203Y-86750951D01*
X28226895Y-86872406D01*
X28225740Y-86877218D01*
X28178041Y-87075900D01*
X28171465Y-87103289D01*
X28152835Y-87340000D01*
X28171465Y-87576711D01*
X28172619Y-87581518D01*
X28172620Y-87581524D01*
X28204188Y-87713012D01*
X28226895Y-87807594D01*
X28228788Y-87812165D01*
X28228789Y-87812167D01*
X28248015Y-87858582D01*
X28255604Y-87929172D01*
X28223825Y-87992659D01*
X28162767Y-88028886D01*
X28131606Y-88032800D01*
X27417794Y-88032800D01*
X27349673Y-88012798D01*
X27328699Y-87995895D01*
X23751219Y-84418414D01*
X23717193Y-84356102D01*
X23722258Y-84285286D01*
X23764805Y-84228451D01*
X23792097Y-84212910D01*
X23848159Y-84189689D01*
X23856958Y-84185205D01*
X24024445Y-84082568D01*
X24033400Y-84072670D01*
X28798160Y-84072670D01*
X28803887Y-84080320D01*
X28975042Y-84185205D01*
X28983837Y-84189687D01*
X29193988Y-84276734D01*
X29203373Y-84279783D01*
X29424554Y-84332885D01*
X29434301Y-84334428D01*
X29661070Y-84352275D01*
X29670930Y-84352275D01*
X29897699Y-84334428D01*
X29907446Y-84332885D01*
X30128627Y-84279783D01*
X30138012Y-84276734D01*
X30348163Y-84189687D01*
X30356958Y-84185205D01*
X30524445Y-84082568D01*
X30533907Y-84072110D01*
X30530124Y-84063334D01*
X29678812Y-83212022D01*
X29664868Y-83204408D01*
X29663035Y-83204539D01*
X29656420Y-83208790D01*
X28804920Y-84060290D01*
X28798160Y-84072670D01*
X24033400Y-84072670D01*
X24033907Y-84072110D01*
X24030124Y-84063334D01*
X22895885Y-82929095D01*
X22861859Y-82866783D01*
X22863694Y-82841132D01*
X23530408Y-82841132D01*
X23530539Y-82842965D01*
X23534790Y-82849580D01*
X24386290Y-83701080D01*
X24398670Y-83707840D01*
X24406320Y-83702113D01*
X24511205Y-83530958D01*
X24515687Y-83522163D01*
X24602734Y-83312012D01*
X24605783Y-83302627D01*
X24658885Y-83081446D01*
X24660428Y-83071699D01*
X24678275Y-82844930D01*
X28153725Y-82844930D01*
X28171572Y-83071699D01*
X28173115Y-83081446D01*
X28226217Y-83302627D01*
X28229266Y-83312012D01*
X28316313Y-83522163D01*
X28320795Y-83530958D01*
X28423432Y-83698445D01*
X28433890Y-83707907D01*
X28442666Y-83704124D01*
X29293978Y-82852812D01*
X29300356Y-82841132D01*
X30030408Y-82841132D01*
X30030539Y-82842965D01*
X30034790Y-82849580D01*
X30886290Y-83701080D01*
X30898670Y-83707840D01*
X30906320Y-83702113D01*
X31011205Y-83530958D01*
X31015687Y-83522163D01*
X31102734Y-83312012D01*
X31105783Y-83302627D01*
X31158885Y-83081446D01*
X31160428Y-83071699D01*
X31178275Y-82844930D01*
X31178275Y-82835070D01*
X31160428Y-82608301D01*
X31158885Y-82598554D01*
X31105783Y-82377373D01*
X31102734Y-82367988D01*
X31015687Y-82157837D01*
X31011205Y-82149042D01*
X30908568Y-81981555D01*
X30898110Y-81972093D01*
X30889334Y-81975876D01*
X30038022Y-82827188D01*
X30030408Y-82841132D01*
X29300356Y-82841132D01*
X29301592Y-82838868D01*
X29301461Y-82837035D01*
X29297210Y-82830420D01*
X28445710Y-81978920D01*
X28433330Y-81972160D01*
X28425680Y-81977887D01*
X28320795Y-82149042D01*
X28316313Y-82157837D01*
X28229266Y-82367988D01*
X28226217Y-82377373D01*
X28173115Y-82598554D01*
X28171572Y-82608301D01*
X28153725Y-82835070D01*
X28153725Y-82844930D01*
X24678275Y-82844930D01*
X24678275Y-82835070D01*
X24660428Y-82608301D01*
X24658885Y-82598554D01*
X24605783Y-82377373D01*
X24602734Y-82367988D01*
X24515687Y-82157837D01*
X24511205Y-82149042D01*
X24408568Y-81981555D01*
X24398110Y-81972093D01*
X24389334Y-81975876D01*
X23538022Y-82827188D01*
X23530408Y-82841132D01*
X22863694Y-82841132D01*
X22866924Y-82795968D01*
X22895885Y-82750905D01*
X24027080Y-81619710D01*
X24033534Y-81607890D01*
X28798093Y-81607890D01*
X28801876Y-81616666D01*
X29653188Y-82467978D01*
X29667132Y-82475592D01*
X29668965Y-82475461D01*
X29675580Y-82471210D01*
X30527080Y-81619710D01*
X30533840Y-81607330D01*
X30528113Y-81599680D01*
X30441368Y-81546522D01*
X41389273Y-81546522D01*
X41436764Y-81723761D01*
X41440510Y-81734053D01*
X41532586Y-81931511D01*
X41538069Y-81941007D01*
X41663028Y-82119467D01*
X41670084Y-82127875D01*
X41824125Y-82281916D01*
X41832533Y-82288972D01*
X42010993Y-82413931D01*
X42020489Y-82419414D01*
X42217947Y-82511490D01*
X42228239Y-82515236D01*
X42400503Y-82561394D01*
X42414599Y-82561058D01*
X42418000Y-82553116D01*
X42418000Y-82547967D01*
X42926000Y-82547967D01*
X42929973Y-82561498D01*
X42938522Y-82562727D01*
X43115761Y-82515236D01*
X43126053Y-82511490D01*
X43323511Y-82419414D01*
X43333007Y-82413931D01*
X43511467Y-82288972D01*
X43519875Y-82281916D01*
X43673916Y-82127875D01*
X43680972Y-82119467D01*
X43805931Y-81941007D01*
X43811414Y-81931511D01*
X43903490Y-81734053D01*
X43907236Y-81723761D01*
X43953394Y-81551497D01*
X43953058Y-81537401D01*
X43945116Y-81534000D01*
X42944115Y-81534000D01*
X42928876Y-81538475D01*
X42927671Y-81539865D01*
X42926000Y-81547548D01*
X42926000Y-82547967D01*
X42418000Y-82547967D01*
X42418000Y-81552115D01*
X42413525Y-81536876D01*
X42412135Y-81535671D01*
X42404452Y-81534000D01*
X41404033Y-81534000D01*
X41390502Y-81537973D01*
X41389273Y-81546522D01*
X30441368Y-81546522D01*
X30356958Y-81494795D01*
X30348163Y-81490313D01*
X30138012Y-81403266D01*
X30128627Y-81400217D01*
X29907446Y-81347115D01*
X29897699Y-81345572D01*
X29670930Y-81327725D01*
X29661070Y-81327725D01*
X29434301Y-81345572D01*
X29424554Y-81347115D01*
X29203373Y-81400217D01*
X29193988Y-81403266D01*
X28983837Y-81490313D01*
X28975042Y-81494795D01*
X28807555Y-81597432D01*
X28798093Y-81607890D01*
X24033534Y-81607890D01*
X24033840Y-81607330D01*
X24028113Y-81599680D01*
X23856958Y-81494795D01*
X23848163Y-81490313D01*
X23638012Y-81403266D01*
X23628627Y-81400217D01*
X23407446Y-81347115D01*
X23397698Y-81345572D01*
X23168118Y-81327504D01*
X23101776Y-81302219D01*
X23059636Y-81245081D01*
X23055077Y-81174231D01*
X23088908Y-81112797D01*
X23476900Y-80724805D01*
X23539212Y-80690779D01*
X23565995Y-80687900D01*
X33914800Y-80687900D01*
X33982921Y-80707902D01*
X34002147Y-80724243D01*
X34002420Y-80723940D01*
X34007332Y-80728363D01*
X34011747Y-80733266D01*
X34019185Y-80738670D01*
X34153477Y-80836239D01*
X34166248Y-80845518D01*
X34172276Y-80848202D01*
X34172278Y-80848203D01*
X34314415Y-80911486D01*
X34340712Y-80923194D01*
X34434113Y-80943047D01*
X34521056Y-80961528D01*
X34521061Y-80961528D01*
X34527513Y-80962900D01*
X34718487Y-80962900D01*
X34724939Y-80961528D01*
X34724944Y-80961528D01*
X34811887Y-80943047D01*
X34905288Y-80923194D01*
X34931585Y-80911486D01*
X35073722Y-80848203D01*
X35073724Y-80848202D01*
X35079752Y-80845518D01*
X35092524Y-80836239D01*
X35177480Y-80774514D01*
X35234253Y-80733266D01*
X35242650Y-80723940D01*
X35357621Y-80596252D01*
X35357622Y-80596251D01*
X35362040Y-80591344D01*
X35457527Y-80425956D01*
X35516542Y-80244328D01*
X35519601Y-80215228D01*
X35535814Y-80060965D01*
X35536504Y-80054400D01*
X35535814Y-80047832D01*
X35533965Y-80030237D01*
X35546738Y-79960399D01*
X35595241Y-79908553D01*
X35664074Y-79891160D01*
X35731384Y-79913743D01*
X35748370Y-79927974D01*
X36322578Y-80502182D01*
X36356604Y-80564494D01*
X36358793Y-80578107D01*
X36375016Y-80732458D01*
X36376158Y-80743328D01*
X36435173Y-80924956D01*
X36530660Y-81090344D01*
X36535078Y-81095251D01*
X36535079Y-81095252D01*
X36606192Y-81174231D01*
X36658447Y-81232266D01*
X36711106Y-81270525D01*
X36806602Y-81339907D01*
X36812948Y-81344518D01*
X36818976Y-81347202D01*
X36818978Y-81347203D01*
X36981381Y-81419509D01*
X36987412Y-81422194D01*
X37080813Y-81442047D01*
X37167756Y-81460528D01*
X37167761Y-81460528D01*
X37174213Y-81461900D01*
X37365187Y-81461900D01*
X37371639Y-81460528D01*
X37371644Y-81460528D01*
X37458587Y-81442047D01*
X37551988Y-81422194D01*
X37558019Y-81419509D01*
X37720422Y-81347203D01*
X37720424Y-81347202D01*
X37726452Y-81344518D01*
X37732799Y-81339907D01*
X37828294Y-81270525D01*
X37880953Y-81232266D01*
X37933208Y-81174231D01*
X38004321Y-81095252D01*
X38004322Y-81095251D01*
X38008740Y-81090344D01*
X38055991Y-81008503D01*
X41390606Y-81008503D01*
X41390942Y-81022599D01*
X41398884Y-81026000D01*
X42399885Y-81026000D01*
X42415124Y-81021525D01*
X42416329Y-81020135D01*
X42418000Y-81012452D01*
X42418000Y-81007885D01*
X42926000Y-81007885D01*
X42930475Y-81023124D01*
X42931865Y-81024329D01*
X42939548Y-81026000D01*
X43939967Y-81026000D01*
X43953498Y-81022027D01*
X43954727Y-81013478D01*
X43953394Y-81008503D01*
X54090606Y-81008503D01*
X54090942Y-81022599D01*
X54098884Y-81026000D01*
X55099885Y-81026000D01*
X55115124Y-81021525D01*
X55116329Y-81020135D01*
X55118000Y-81012452D01*
X55118000Y-80012033D01*
X55114027Y-79998502D01*
X55105478Y-79997273D01*
X54928239Y-80044764D01*
X54917947Y-80048510D01*
X54720489Y-80140586D01*
X54710993Y-80146069D01*
X54532533Y-80271028D01*
X54524125Y-80278084D01*
X54370084Y-80432125D01*
X54363028Y-80440533D01*
X54238069Y-80618993D01*
X54232586Y-80628489D01*
X54140510Y-80825947D01*
X54136764Y-80836239D01*
X54090606Y-81008503D01*
X43953394Y-81008503D01*
X43907236Y-80836239D01*
X43903490Y-80825947D01*
X43811414Y-80628489D01*
X43805931Y-80618993D01*
X43680972Y-80440533D01*
X43673916Y-80432125D01*
X43519875Y-80278084D01*
X43511467Y-80271028D01*
X43333007Y-80146069D01*
X43323511Y-80140586D01*
X43126053Y-80048510D01*
X43115761Y-80044764D01*
X42943497Y-79998606D01*
X42929401Y-79998942D01*
X42926000Y-80006884D01*
X42926000Y-81007885D01*
X42418000Y-81007885D01*
X42418000Y-80012033D01*
X42414027Y-79998502D01*
X42405478Y-79997273D01*
X42228239Y-80044764D01*
X42217947Y-80048510D01*
X42020489Y-80140586D01*
X42010993Y-80146069D01*
X41832533Y-80271028D01*
X41824125Y-80278084D01*
X41670084Y-80432125D01*
X41663028Y-80440533D01*
X41538069Y-80618993D01*
X41532586Y-80628489D01*
X41440510Y-80825947D01*
X41436764Y-80836239D01*
X41390606Y-81008503D01*
X38055991Y-81008503D01*
X38104227Y-80924956D01*
X38163242Y-80743328D01*
X38164385Y-80732458D01*
X38182514Y-80559965D01*
X38183204Y-80553400D01*
X38163242Y-80363472D01*
X38104227Y-80181844D01*
X38008740Y-80016456D01*
X38000122Y-80006884D01*
X37885375Y-79879445D01*
X37885374Y-79879444D01*
X37880953Y-79874534D01*
X37757331Y-79784717D01*
X37731794Y-79766163D01*
X37731793Y-79766162D01*
X37726452Y-79762282D01*
X37720424Y-79759598D01*
X37720422Y-79759597D01*
X37558019Y-79687291D01*
X37558018Y-79687291D01*
X37551988Y-79684606D01*
X37456202Y-79664246D01*
X37371644Y-79646272D01*
X37371639Y-79646272D01*
X37365187Y-79644900D01*
X37309295Y-79644900D01*
X37241174Y-79624898D01*
X37220200Y-79607995D01*
X36035300Y-78423095D01*
X36001274Y-78360783D01*
X36006339Y-78289968D01*
X36048886Y-78233132D01*
X36115406Y-78208321D01*
X36124395Y-78208000D01*
X40543433Y-78208000D01*
X40554616Y-78208527D01*
X40562109Y-78210202D01*
X40570035Y-78209953D01*
X40570036Y-78209953D01*
X40630186Y-78208062D01*
X40634145Y-78208000D01*
X40662056Y-78208000D01*
X40665991Y-78207503D01*
X40666056Y-78207495D01*
X40677893Y-78206562D01*
X40710151Y-78205548D01*
X40714170Y-78205422D01*
X40722089Y-78205173D01*
X40741543Y-78199521D01*
X40760900Y-78195513D01*
X40773130Y-78193968D01*
X40773131Y-78193968D01*
X40780997Y-78192974D01*
X40788368Y-78190055D01*
X40788370Y-78190055D01*
X40822112Y-78176696D01*
X40833342Y-78172851D01*
X40868183Y-78162729D01*
X40868184Y-78162729D01*
X40875793Y-78160518D01*
X40882612Y-78156485D01*
X40882617Y-78156483D01*
X40893228Y-78150207D01*
X40910976Y-78141512D01*
X40929817Y-78134052D01*
X40965587Y-78108064D01*
X40975507Y-78101548D01*
X41006735Y-78083080D01*
X41006738Y-78083078D01*
X41013562Y-78079042D01*
X41027883Y-78064721D01*
X41042917Y-78051880D01*
X41052894Y-78044631D01*
X41059307Y-78039972D01*
X41087498Y-78005895D01*
X41095488Y-77997116D01*
X42304599Y-76788005D01*
X42366911Y-76753979D01*
X42393694Y-76751100D01*
X42449587Y-76751100D01*
X42456039Y-76749728D01*
X42456044Y-76749728D01*
X42568119Y-76725905D01*
X42636388Y-76711394D01*
X42642419Y-76708709D01*
X42804822Y-76636403D01*
X42804824Y-76636402D01*
X42810852Y-76633718D01*
X42823763Y-76624338D01*
X42876023Y-76586368D01*
X42965353Y-76521466D01*
X42971156Y-76515021D01*
X42972177Y-76514392D01*
X42974677Y-76512141D01*
X42975089Y-76512598D01*
X43031604Y-76477784D01*
X43102588Y-76479138D01*
X43151042Y-76507486D01*
X43181179Y-76535786D01*
X43192358Y-76541932D01*
X43198932Y-76545546D01*
X43215456Y-76556399D01*
X43231459Y-76568813D01*
X43272043Y-76586376D01*
X43282673Y-76591583D01*
X43321440Y-76612895D01*
X43329117Y-76614866D01*
X43329122Y-76614868D01*
X43341058Y-76617932D01*
X43359766Y-76624337D01*
X43378355Y-76632381D01*
X43386183Y-76633621D01*
X43386190Y-76633623D01*
X43422024Y-76639299D01*
X43433644Y-76641705D01*
X43463780Y-76649442D01*
X43476470Y-76652700D01*
X43496724Y-76652700D01*
X43516434Y-76654251D01*
X43536443Y-76657420D01*
X43544335Y-76656674D01*
X43580461Y-76653259D01*
X43592319Y-76652700D01*
X54250100Y-76652700D01*
X54318221Y-76672702D01*
X54337447Y-76689043D01*
X54337720Y-76688740D01*
X54342632Y-76693163D01*
X54347047Y-76698066D01*
X54353973Y-76703098D01*
X54436154Y-76762806D01*
X54501548Y-76810318D01*
X54507576Y-76813002D01*
X54507578Y-76813003D01*
X54669981Y-76885309D01*
X54676012Y-76887994D01*
X54746572Y-76902992D01*
X54856356Y-76926328D01*
X54856361Y-76926328D01*
X54862813Y-76927700D01*
X55053787Y-76927700D01*
X55060239Y-76926328D01*
X55060244Y-76926328D01*
X55170028Y-76902992D01*
X55240588Y-76887994D01*
X55246619Y-76885309D01*
X55409022Y-76813003D01*
X55409024Y-76813002D01*
X55415052Y-76810318D01*
X55569553Y-76698066D01*
X55598354Y-76666079D01*
X55692921Y-76561052D01*
X55692922Y-76561051D01*
X55697340Y-76556144D01*
X55763346Y-76441819D01*
X55789523Y-76396479D01*
X55789524Y-76396478D01*
X55792827Y-76390756D01*
X55851842Y-76209128D01*
X55852802Y-76200000D01*
X55871114Y-76025765D01*
X55871804Y-76019200D01*
X55851842Y-75829272D01*
X55851648Y-75828674D01*
X55856879Y-75760093D01*
X55899695Y-75703460D01*
X55966332Y-75678965D01*
X56004139Y-75682166D01*
X56084355Y-75701424D01*
X56089812Y-75702734D01*
X56172793Y-75707518D01*
X56303137Y-75715034D01*
X56303140Y-75715034D01*
X56308744Y-75715357D01*
X56526452Y-75689012D01*
X56736054Y-75624530D01*
X56741034Y-75621960D01*
X56741038Y-75621958D01*
X56925943Y-75526521D01*
X56925944Y-75526520D01*
X56930924Y-75523950D01*
X57104903Y-75390451D01*
X57108674Y-75386306D01*
X57108678Y-75386303D01*
X57248714Y-75232405D01*
X57252493Y-75228252D01*
X57369026Y-75042482D01*
X57371123Y-75037267D01*
X57420918Y-74913397D01*
X57464885Y-74857653D01*
X57532010Y-74834528D01*
X57600981Y-74851365D01*
X57649901Y-74902818D01*
X57653479Y-74910932D01*
X57653895Y-74912452D01*
X57748304Y-75110385D01*
X57876272Y-75288472D01*
X58033755Y-75441083D01*
X58215773Y-75563394D01*
X58416575Y-75651540D01*
X58629812Y-75702734D01*
X58712793Y-75707518D01*
X58843137Y-75715034D01*
X58843140Y-75715034D01*
X58848744Y-75715357D01*
X59066452Y-75689012D01*
X59276054Y-75624530D01*
X59281034Y-75621960D01*
X59281038Y-75621958D01*
X59465943Y-75526521D01*
X59465944Y-75526520D01*
X59470924Y-75523950D01*
X59644903Y-75390451D01*
X59648674Y-75386306D01*
X59648678Y-75386303D01*
X59788714Y-75232405D01*
X59792493Y-75228252D01*
X59909026Y-75042482D01*
X59911123Y-75037267D01*
X59960918Y-74913397D01*
X60004885Y-74857653D01*
X60072010Y-74834528D01*
X60140981Y-74851365D01*
X60189901Y-74902818D01*
X60193479Y-74910932D01*
X60193895Y-74912452D01*
X60288304Y-75110385D01*
X60416272Y-75288472D01*
X60573755Y-75441083D01*
X60755773Y-75563394D01*
X60956575Y-75651540D01*
X61169812Y-75702734D01*
X61252793Y-75707518D01*
X61383137Y-75715034D01*
X61383140Y-75715034D01*
X61388744Y-75715357D01*
X61606452Y-75689012D01*
X61816054Y-75624530D01*
X61821034Y-75621960D01*
X61821038Y-75621958D01*
X62005943Y-75526521D01*
X62005944Y-75526520D01*
X62010924Y-75523950D01*
X62184903Y-75390451D01*
X62188674Y-75386306D01*
X62188678Y-75386303D01*
X62328714Y-75232405D01*
X62332493Y-75228252D01*
X62449026Y-75042482D01*
X62451121Y-75037271D01*
X62451123Y-75037267D01*
X62501196Y-74912706D01*
X62545162Y-74856961D01*
X62612287Y-74833836D01*
X62681259Y-74850673D01*
X62730179Y-74902125D01*
X62736200Y-74915781D01*
X62736779Y-74917339D01*
X62826322Y-75105068D01*
X62832008Y-75114683D01*
X62953376Y-75283585D01*
X62960684Y-75292051D01*
X63110038Y-75436784D01*
X63118735Y-75443827D01*
X63291355Y-75559824D01*
X63301152Y-75565210D01*
X63491598Y-75648809D01*
X63502190Y-75652374D01*
X63618385Y-75680270D01*
X63632470Y-75679565D01*
X63635998Y-75670690D01*
X64144000Y-75670690D01*
X64148106Y-75684672D01*
X64155252Y-75685782D01*
X64350502Y-75625714D01*
X64360848Y-75621493D01*
X64545672Y-75526098D01*
X64555103Y-75520113D01*
X64720113Y-75393496D01*
X64728342Y-75385930D01*
X64868314Y-75232102D01*
X64875077Y-75223191D01*
X64985596Y-75047010D01*
X64990673Y-75037044D01*
X65068244Y-74844080D01*
X65071479Y-74833365D01*
X65113856Y-74628737D01*
X65115059Y-74619601D01*
X65117895Y-74570416D01*
X65118000Y-74566769D01*
X65118000Y-74474615D01*
X65113525Y-74459376D01*
X65112135Y-74458171D01*
X65104452Y-74456500D01*
X64162115Y-74456500D01*
X64146876Y-74460975D01*
X64145671Y-74462365D01*
X64144000Y-74470048D01*
X64144000Y-75670690D01*
X63635998Y-75670690D01*
X63636000Y-75670686D01*
X63636000Y-74074500D01*
X63656002Y-74006379D01*
X63709658Y-73959886D01*
X63762000Y-73948500D01*
X65099885Y-73948500D01*
X65115124Y-73944025D01*
X65116329Y-73942635D01*
X65118000Y-73934952D01*
X65118000Y-73869681D01*
X65117751Y-73864086D01*
X65103977Y-73709756D01*
X65101995Y-73698742D01*
X65047115Y-73498134D01*
X65043221Y-73487661D01*
X64953678Y-73299932D01*
X64947992Y-73290317D01*
X64826624Y-73121415D01*
X64819316Y-73112949D01*
X64744371Y-73040322D01*
X64709371Y-72978552D01*
X64713323Y-72907665D01*
X64742961Y-72860743D01*
X67023705Y-70579999D01*
X67086017Y-70545973D01*
X67156832Y-70551038D01*
G37*
%TD.AperFunction*%
%TA.AperFunction,Conductor*%
G36*
X104107411Y-58277360D02*
G01*
X104164203Y-58319849D01*
X104182630Y-58344435D01*
X104207478Y-58410940D01*
X104192426Y-58480323D01*
X104182632Y-58495562D01*
X104109385Y-58593295D01*
X104058255Y-58729684D01*
X104051500Y-58791866D01*
X104051500Y-58991836D01*
X104031498Y-59059957D01*
X103980622Y-59103160D01*
X103981108Y-59103981D01*
X103976324Y-59106810D01*
X103976321Y-59106812D01*
X103974284Y-59108017D01*
X103974282Y-59108018D01*
X103963672Y-59114293D01*
X103945924Y-59122988D01*
X103927083Y-59130448D01*
X103920667Y-59135110D01*
X103920666Y-59135110D01*
X103891313Y-59156436D01*
X103881393Y-59162952D01*
X103850165Y-59181420D01*
X103850162Y-59181422D01*
X103843338Y-59185458D01*
X103829017Y-59199779D01*
X103813984Y-59212619D01*
X103797593Y-59224528D01*
X103792542Y-59230634D01*
X103769402Y-59258605D01*
X103761412Y-59267384D01*
X95213800Y-67814995D01*
X95151488Y-67849021D01*
X95124705Y-67851900D01*
X89114000Y-67851900D01*
X89045879Y-67831898D01*
X88999386Y-67778242D01*
X88988000Y-67725900D01*
X88988000Y-67582115D01*
X88983525Y-67566876D01*
X88982135Y-67565671D01*
X88974452Y-67564000D01*
X84490116Y-67564000D01*
X84474877Y-67568475D01*
X84473672Y-67569865D01*
X84472001Y-67577548D01*
X84472001Y-67725900D01*
X84451999Y-67794021D01*
X84398343Y-67840514D01*
X84346001Y-67851900D01*
X80184767Y-67851900D01*
X80173584Y-67851373D01*
X80166091Y-67849698D01*
X80158165Y-67849947D01*
X80158164Y-67849947D01*
X80098014Y-67851838D01*
X80094055Y-67851900D01*
X80066144Y-67851900D01*
X80062210Y-67852397D01*
X80062209Y-67852397D01*
X80062144Y-67852405D01*
X80050307Y-67853338D01*
X80018049Y-67854352D01*
X80014030Y-67854478D01*
X80006111Y-67854727D01*
X79986657Y-67860379D01*
X79967300Y-67864387D01*
X79955070Y-67865932D01*
X79955069Y-67865932D01*
X79947203Y-67866926D01*
X79939832Y-67869845D01*
X79939830Y-67869845D01*
X79906088Y-67883204D01*
X79894858Y-67887049D01*
X79860017Y-67897171D01*
X79860016Y-67897171D01*
X79852407Y-67899382D01*
X79845588Y-67903415D01*
X79845583Y-67903417D01*
X79834972Y-67909693D01*
X79817224Y-67918388D01*
X79798383Y-67925848D01*
X79791967Y-67930510D01*
X79791966Y-67930510D01*
X79762613Y-67951836D01*
X79752693Y-67958352D01*
X79721465Y-67976820D01*
X79721462Y-67976822D01*
X79714638Y-67980858D01*
X79700317Y-67995179D01*
X79685284Y-68008019D01*
X79668893Y-68019928D01*
X79663842Y-68026034D01*
X79640702Y-68054005D01*
X79632712Y-68062784D01*
X76786266Y-70909230D01*
X76723954Y-70943256D01*
X76653139Y-70938191D01*
X76603535Y-70904446D01*
X76600382Y-70900944D01*
X76532753Y-70825834D01*
X76425809Y-70748134D01*
X76383594Y-70717463D01*
X76383593Y-70717462D01*
X76378252Y-70713582D01*
X76372224Y-70710898D01*
X76372222Y-70710897D01*
X76209819Y-70638591D01*
X76209818Y-70638591D01*
X76203788Y-70635906D01*
X76110388Y-70616053D01*
X76023444Y-70597572D01*
X76023439Y-70597572D01*
X76016987Y-70596200D01*
X75826013Y-70596200D01*
X75819561Y-70597572D01*
X75819556Y-70597572D01*
X75732612Y-70616053D01*
X75639212Y-70635906D01*
X75633182Y-70638591D01*
X75633181Y-70638591D01*
X75470778Y-70710897D01*
X75470776Y-70710898D01*
X75464748Y-70713582D01*
X75459407Y-70717462D01*
X75459406Y-70717463D01*
X75417191Y-70748134D01*
X75310247Y-70825834D01*
X75305829Y-70830741D01*
X75305825Y-70830745D01*
X75192192Y-70956948D01*
X75182460Y-70967756D01*
X75086973Y-71133144D01*
X75027958Y-71314772D01*
X75011885Y-71467703D01*
X75010593Y-71479992D01*
X74983580Y-71545649D01*
X74974378Y-71555917D01*
X69451600Y-77078695D01*
X69389288Y-77112721D01*
X69362505Y-77115600D01*
X67954012Y-77115600D01*
X67885891Y-77095598D01*
X67839398Y-77041942D01*
X67829294Y-76971668D01*
X67845505Y-76925612D01*
X67850214Y-76919541D01*
X67854149Y-76910448D01*
X67858635Y-76900082D01*
X67885177Y-76861027D01*
X79751370Y-64994835D01*
X79813682Y-64960809D01*
X79884497Y-64965874D01*
X79941333Y-65008421D01*
X79960298Y-65044993D01*
X79991673Y-65141556D01*
X80087160Y-65306944D01*
X80214947Y-65448866D01*
X80266378Y-65486233D01*
X80350475Y-65547333D01*
X80369448Y-65561118D01*
X80375476Y-65563802D01*
X80375478Y-65563803D01*
X80527174Y-65631342D01*
X80543912Y-65638794D01*
X80637312Y-65658647D01*
X80724256Y-65677128D01*
X80724261Y-65677128D01*
X80730713Y-65678500D01*
X80921687Y-65678500D01*
X80928139Y-65677128D01*
X80928144Y-65677128D01*
X81015088Y-65658647D01*
X81108488Y-65638794D01*
X81125226Y-65631342D01*
X81276922Y-65563803D01*
X81276924Y-65563802D01*
X81282952Y-65561118D01*
X81301926Y-65547333D01*
X81415871Y-65464546D01*
X81437453Y-65448866D01*
X81441868Y-65443963D01*
X81446780Y-65439540D01*
X81447905Y-65440789D01*
X81501214Y-65407949D01*
X81534400Y-65403500D01*
X84345500Y-65403500D01*
X84413621Y-65423502D01*
X84460114Y-65477158D01*
X84471500Y-65529500D01*
X84471500Y-65668134D01*
X84478255Y-65730316D01*
X84529385Y-65866705D01*
X84534771Y-65873891D01*
X84602942Y-65964852D01*
X84627790Y-66031358D01*
X84612737Y-66100741D01*
X84602942Y-66115982D01*
X84535214Y-66206351D01*
X84526676Y-66221946D01*
X84481522Y-66342394D01*
X84477895Y-66357649D01*
X84472369Y-66408514D01*
X84472000Y-66415328D01*
X84472000Y-67037885D01*
X84476475Y-67053124D01*
X84477865Y-67054329D01*
X84485548Y-67056000D01*
X88969884Y-67056000D01*
X88985123Y-67051525D01*
X88986328Y-67050135D01*
X88987999Y-67042452D01*
X88987999Y-66415331D01*
X88987629Y-66408510D01*
X88982105Y-66357648D01*
X88978479Y-66342396D01*
X88933324Y-66221946D01*
X88924786Y-66206351D01*
X88857058Y-66115982D01*
X88832210Y-66049475D01*
X88847263Y-65980093D01*
X88857058Y-65964852D01*
X88925229Y-65873891D01*
X88930615Y-65866705D01*
X88981745Y-65730316D01*
X88988500Y-65668134D01*
X88988500Y-64867856D01*
X88989578Y-64851409D01*
X88991092Y-64839908D01*
X88991529Y-64836590D01*
X88993156Y-64770000D01*
X88988924Y-64718524D01*
X88988500Y-64708200D01*
X88988500Y-64197700D01*
X89008502Y-64129579D01*
X89062158Y-64083086D01*
X89114500Y-64071700D01*
X97867733Y-64071700D01*
X97878916Y-64072227D01*
X97886409Y-64073902D01*
X97894335Y-64073653D01*
X97894336Y-64073653D01*
X97954486Y-64071762D01*
X97958445Y-64071700D01*
X97986356Y-64071700D01*
X97990291Y-64071203D01*
X97990356Y-64071195D01*
X98002193Y-64070262D01*
X98034588Y-64069244D01*
X98038470Y-64069122D01*
X98046389Y-64068873D01*
X98065843Y-64063221D01*
X98085200Y-64059213D01*
X98097430Y-64057668D01*
X98097431Y-64057668D01*
X98105297Y-64056674D01*
X98112668Y-64053755D01*
X98112670Y-64053755D01*
X98146412Y-64040396D01*
X98157642Y-64036551D01*
X98192483Y-64026429D01*
X98192484Y-64026429D01*
X98200093Y-64024218D01*
X98206912Y-64020185D01*
X98206917Y-64020183D01*
X98217528Y-64013907D01*
X98235276Y-64005212D01*
X98254117Y-63997752D01*
X98289887Y-63971764D01*
X98299807Y-63965248D01*
X98331035Y-63946780D01*
X98331038Y-63946778D01*
X98337862Y-63942742D01*
X98352183Y-63928421D01*
X98367217Y-63915580D01*
X98383607Y-63903672D01*
X98411798Y-63869595D01*
X98419788Y-63860816D01*
X103974284Y-58306321D01*
X104036596Y-58272295D01*
X104107411Y-58277360D01*
G37*
%TD.AperFunction*%
%TA.AperFunction,Conductor*%
G36*
X89207733Y-49463637D02*
G01*
X92672575Y-52928480D01*
X96111048Y-56366953D01*
X96118588Y-56375239D01*
X96122700Y-56381718D01*
X96128477Y-56387143D01*
X96172351Y-56428343D01*
X96175193Y-56431098D01*
X96194930Y-56450835D01*
X96198127Y-56453315D01*
X96207147Y-56461018D01*
X96239379Y-56491286D01*
X96246325Y-56495105D01*
X96246328Y-56495107D01*
X96257134Y-56501048D01*
X96273653Y-56511899D01*
X96289659Y-56524314D01*
X96296928Y-56527459D01*
X96296932Y-56527462D01*
X96330237Y-56541874D01*
X96340887Y-56547091D01*
X96379640Y-56568395D01*
X96387315Y-56570366D01*
X96387316Y-56570366D01*
X96399262Y-56573433D01*
X96417966Y-56579837D01*
X96428652Y-56584461D01*
X96436555Y-56587881D01*
X96444378Y-56589120D01*
X96444388Y-56589123D01*
X96480224Y-56594799D01*
X96491844Y-56597205D01*
X96526989Y-56606228D01*
X96534670Y-56608200D01*
X96554924Y-56608200D01*
X96574634Y-56609751D01*
X96594643Y-56612920D01*
X96602535Y-56612174D01*
X96638661Y-56608759D01*
X96650519Y-56608200D01*
X103576406Y-56608200D01*
X103644527Y-56628202D01*
X103691020Y-56681858D01*
X103701124Y-56752132D01*
X103671630Y-56816712D01*
X103665501Y-56823295D01*
X100691528Y-59797267D01*
X97721000Y-62767795D01*
X97658688Y-62801821D01*
X97631905Y-62804700D01*
X89114500Y-62804700D01*
X89046379Y-62784698D01*
X88999886Y-62731042D01*
X88988500Y-62678700D01*
X88988500Y-62327856D01*
X88989578Y-62311409D01*
X88991092Y-62299908D01*
X88991529Y-62296590D01*
X88992153Y-62271048D01*
X88993074Y-62233365D01*
X88993074Y-62233361D01*
X88993156Y-62230000D01*
X88988924Y-62178524D01*
X88988500Y-62168200D01*
X88988500Y-61331866D01*
X88981745Y-61269684D01*
X88930615Y-61133295D01*
X88857370Y-61035564D01*
X88832522Y-60969059D01*
X88847575Y-60899676D01*
X88857370Y-60884435D01*
X88857371Y-60884434D01*
X88930615Y-60786705D01*
X88981745Y-60650316D01*
X88988500Y-60588134D01*
X88988500Y-59787856D01*
X88989578Y-59771409D01*
X88991092Y-59759908D01*
X88991529Y-59756590D01*
X88993156Y-59690000D01*
X88988924Y-59638524D01*
X88988500Y-59628200D01*
X88988500Y-58791866D01*
X88981745Y-58729684D01*
X88930615Y-58593295D01*
X88857370Y-58495564D01*
X88832522Y-58429059D01*
X88847575Y-58359676D01*
X88857370Y-58344435D01*
X88871378Y-58325744D01*
X88930615Y-58246705D01*
X88981745Y-58110316D01*
X88988500Y-58048134D01*
X88988500Y-57247856D01*
X88989578Y-57231409D01*
X88991092Y-57219908D01*
X88991529Y-57216590D01*
X88992483Y-57177538D01*
X88993074Y-57153365D01*
X88993074Y-57153361D01*
X88993156Y-57150000D01*
X88988924Y-57098524D01*
X88988500Y-57088200D01*
X88988500Y-56251866D01*
X88981745Y-56189684D01*
X88930615Y-56053295D01*
X88857058Y-55955148D01*
X88832210Y-55888642D01*
X88847263Y-55819259D01*
X88857058Y-55804018D01*
X88924786Y-55713649D01*
X88933324Y-55698054D01*
X88978478Y-55577606D01*
X88982105Y-55562351D01*
X88987631Y-55511486D01*
X88988000Y-55504672D01*
X88988000Y-54882115D01*
X88983525Y-54866876D01*
X88982135Y-54865671D01*
X88974452Y-54864000D01*
X84490116Y-54864000D01*
X84474877Y-54868475D01*
X84473672Y-54869865D01*
X84472001Y-54877548D01*
X84472001Y-55504669D01*
X84472371Y-55511490D01*
X84477895Y-55562352D01*
X84481521Y-55577604D01*
X84526676Y-55698054D01*
X84535214Y-55713649D01*
X84602942Y-55804018D01*
X84627790Y-55870525D01*
X84612737Y-55939907D01*
X84602942Y-55955148D01*
X84529385Y-56053295D01*
X84478255Y-56189684D01*
X84471500Y-56251866D01*
X84471500Y-56390500D01*
X84451498Y-56458621D01*
X84397842Y-56505114D01*
X84345500Y-56516500D01*
X74533294Y-56516500D01*
X74465173Y-56496498D01*
X74444199Y-56479595D01*
X72302490Y-54337885D01*
X70160622Y-52196017D01*
X70126596Y-52133705D01*
X70124407Y-52120092D01*
X70123769Y-52114016D01*
X70115706Y-52037303D01*
X70113485Y-52016170D01*
X70126258Y-51946332D01*
X70174760Y-51894485D01*
X70238795Y-51877000D01*
X83513606Y-51877000D01*
X83581727Y-51897002D01*
X83602701Y-51913905D01*
X84151043Y-52462247D01*
X84158587Y-52470537D01*
X84162700Y-52477018D01*
X84168477Y-52482443D01*
X84193882Y-52506300D01*
X84210686Y-52522079D01*
X84212367Y-52523658D01*
X84215209Y-52526413D01*
X84234931Y-52546135D01*
X84238055Y-52548558D01*
X84238059Y-52548562D01*
X84238124Y-52548612D01*
X84247145Y-52556317D01*
X84279379Y-52586586D01*
X84286327Y-52590405D01*
X84286329Y-52590407D01*
X84297132Y-52596346D01*
X84313659Y-52607202D01*
X84323398Y-52614757D01*
X84323400Y-52614758D01*
X84329660Y-52619614D01*
X84370240Y-52637174D01*
X84380883Y-52642388D01*
X84401881Y-52653932D01*
X84406203Y-52656308D01*
X84456260Y-52706654D01*
X84471500Y-52766722D01*
X84471500Y-52968134D01*
X84478255Y-53030316D01*
X84529385Y-53166705D01*
X84534771Y-53173891D01*
X84602942Y-53264852D01*
X84627790Y-53331358D01*
X84612737Y-53400741D01*
X84602942Y-53415982D01*
X84535214Y-53506351D01*
X84526676Y-53521946D01*
X84481522Y-53642394D01*
X84477895Y-53657649D01*
X84472369Y-53708514D01*
X84472000Y-53715328D01*
X84472000Y-54337885D01*
X84476475Y-54353124D01*
X84477865Y-54354329D01*
X84485548Y-54356000D01*
X88969884Y-54356000D01*
X88985123Y-54351525D01*
X88986328Y-54350135D01*
X88987999Y-54342452D01*
X88987999Y-53715331D01*
X88987629Y-53708510D01*
X88982105Y-53657648D01*
X88978479Y-53642396D01*
X88933324Y-53521946D01*
X88924786Y-53506351D01*
X88857058Y-53415982D01*
X88832210Y-53349475D01*
X88847263Y-53280093D01*
X88857058Y-53264852D01*
X88925229Y-53173891D01*
X88930615Y-53166705D01*
X88981745Y-53030316D01*
X88988500Y-52968134D01*
X88988500Y-52167856D01*
X88989578Y-52151409D01*
X88991092Y-52139908D01*
X88991529Y-52136590D01*
X88992123Y-52112294D01*
X88993074Y-52073365D01*
X88993074Y-52073361D01*
X88993156Y-52070000D01*
X88988924Y-52018524D01*
X88988500Y-52008200D01*
X88988500Y-51171866D01*
X88981745Y-51109684D01*
X88930615Y-50973295D01*
X88857370Y-50875564D01*
X88832522Y-50809059D01*
X88847575Y-50739676D01*
X88857370Y-50724435D01*
X88858376Y-50723093D01*
X88930615Y-50626705D01*
X88981745Y-50490316D01*
X88988500Y-50428134D01*
X88988500Y-49627856D01*
X88989578Y-49611409D01*
X88991092Y-49599908D01*
X88991529Y-49596590D01*
X88991611Y-49593240D01*
X88992676Y-49549654D01*
X89014336Y-49482042D01*
X89069111Y-49436874D01*
X89139611Y-49428490D01*
X89207733Y-49463637D01*
G37*
%TD.AperFunction*%
%TD*%
M02*
