M48
; DRILL file {KiCad (6.0.9)} date Fri Jan 27 11:08:58 2023
; FORMAT={-:-/ absolute / inch / decimal}
; #@! TF.CreationDate,2023-01-27T11:08:58+01:00
; #@! TF.GenerationSoftware,Kicad,Pcbnew,(6.0.9)
; #@! TF.FileFunction,Plated,1,2,PTH
FMAT,2
INCH
; #@! TA.AperFunction,Plated,PTH,ViaDrill
T1C0.0157
; #@! TA.AperFunction,Plated,PTH,ComponentDrill
T2C0.0394
; #@! TA.AperFunction,Plated,PTH,ComponentDrill
T3C0.0402
; #@! TA.AperFunction,Plated,PTH,ComponentDrill
T4C0.0433
%
G90
G05
T1
X0.8161Y-2.1772
X0.99Y-2.7442
X1.0027Y-1.6506
X1.0124Y-2.5014
X1.03Y-3.38
X1.0464Y-3.0252
X1.0477Y-1.5893
X1.068Y-2.7103
X1.1099Y-1.6747
X1.11Y-2.5012
X1.13Y-3.52
X1.1321Y-2.6412
X1.1496Y-1.6785
X1.1572Y-2.0805
X1.1657Y-2.1421
X1.1673Y-1.9062
X1.1733Y-2.5164
X1.2024Y-1.979
X1.3129Y-2.7239
X1.3159Y-2.6472
X1.33Y-2.55
X1.3529Y-2.6701
X1.3744Y-1.9445
X1.3994Y-3.3007
X1.44Y-2.22
X1.499Y-2.0165
X1.5275Y-1.9887
X1.53Y-2.22
X1.5523Y-3.1216
X1.5742Y-2.1461
X1.63Y-2.22
X1.6505Y-3.3795
X1.6811Y-3.1643
X1.6895Y-3.353
X1.69Y-2.22
X1.715Y-1.6845
X1.7439Y-1.8348
X1.7835Y-2.7453
X1.79Y-2.54
X1.7967Y-1.6817
X1.8415Y-3.3373
X1.8624Y-1.8187
X1.8919Y-1.8572
X1.8942Y-2.7151
X1.9155Y-3.289
X1.9315Y-2.1758
X1.9545Y-2.612
X1.972Y-3.0252
X1.9919Y-1.8315
X2.0091Y-2.6518
X2.0267Y-3.2265
X2.059Y-2.7322
X2.1125Y-2.539
X2.1335Y-2.6815
X2.1606Y-3.1497
X2.1623Y-3.3373
X2.1883Y-3.0038
X2.2032Y-3.1474
X2.2141Y-1.8789
X2.327Y-2.0149
X2.3725Y-2.2372
X2.3727Y-2.7741
X2.3735Y-2.0298
X2.38Y-2.58
X2.385Y-3.2963
X2.4085Y-2.06
X2.438Y-1.7963
X2.4503Y-2.7926
X2.4963Y-1.8972
X2.4993Y-2.0531
X2.5472Y-3.2111
X2.5854Y-2.3216
X2.6313Y-2.8816
X2.697Y-2.0824
X2.7324Y-2.9483
X2.7456Y-3.3418
X2.784Y-1.6729
X2.7965Y-2.5073
X2.813Y-2.8681
X2.8474Y-3.105
X2.8651Y-2.5749
X2.8721Y-3.2769
X2.8767Y-2.742
X2.8805Y-2.6978
X2.9319Y-1.6729
X2.9497Y-3.3087
X2.9513Y-3.2368
X2.9917Y-1.8348
X3.1101Y-1.8963
X3.2898Y-1.7528
X3.3102Y-2.9655
X3.5175Y-3.2241
X4.4Y-3.14
T2
X1.0154Y-2.3214
X1.0154Y-2.9214
X1.1154Y-2.3214
X1.1154Y-2.9214
X1.2154Y-2.3214
X1.2154Y-2.9214
X1.3154Y-2.3214
X1.3154Y-2.9214
X1.4154Y-2.3214
X1.4154Y-2.9214
X1.5154Y-2.3214
X1.5154Y-2.9214
X1.6154Y-2.3214
X1.6154Y-2.9214
X1.7154Y-2.3214
X1.7154Y-2.9214
X1.8154Y-2.3214
X1.8154Y-2.9214
X1.9154Y-2.3214
X1.9154Y-2.9214
X2.0154Y-2.3214
X2.0154Y-2.9214
X2.1154Y-2.3214
X2.1154Y-2.9214
X2.2154Y-2.3214
X2.2154Y-2.9214
X2.3154Y-2.3214
X2.3154Y-2.9214
X2.4154Y-2.3214
X2.4154Y-2.9214
X2.5154Y-2.3214
X2.5154Y-2.9214
T3
X3.45Y-1.45
X3.45Y-1.55
X3.45Y-1.65
X3.45Y-1.75
X3.45Y-1.85
X3.45Y-1.95
X3.45Y-2.05
X3.45Y-2.15
X3.45Y-2.25
X3.45Y-2.35
X3.45Y-2.45
X3.45Y-2.55
X3.45Y-2.65
X3.45Y-2.75
X3.45Y-2.85
X3.45Y-2.95
X3.45Y-3.05
X3.45Y-3.15
X3.45Y-3.25
X3.45Y-3.35
X3.7Y-3.3409
X3.8Y-3.3409
X3.9Y-3.3409
X4.15Y-1.45
X4.15Y-1.55
X4.15Y-1.65
X4.15Y-1.75
X4.15Y-1.85
X4.15Y-1.95
X4.15Y-2.05
X4.15Y-2.15
X4.15Y-2.25
X4.15Y-2.35
X4.15Y-2.45
X4.15Y-2.55
X4.15Y-2.65
X4.15Y-2.75
X4.15Y-2.85
X4.15Y-2.95
X4.15Y-3.05
X4.15Y-3.15
X4.15Y-3.25
X4.15Y-3.35
T4
X0.912Y-3.2614
X0.912Y-3.4386
X1.168Y-3.2614
X1.168Y-3.4386
T0
M30
