%TF.GenerationSoftware,KiCad,Pcbnew,7.0.10*%
%TF.CreationDate,2024-03-08T14:18:15+01:00*%
%TF.ProjectId,pico-sst39sf0x0-pcb,7069636f-2d73-4737-9433-397366307830,rev?*%
%TF.SameCoordinates,Original*%
%TF.FileFunction,Copper,L1,Top*%
%TF.FilePolarity,Positive*%
%FSLAX46Y46*%
G04 Gerber Fmt 4.6, Leading zero omitted, Abs format (unit mm)*
G04 Created by KiCad (PCBNEW 7.0.10) date 2024-03-08 14:18:15*
%MOMM*%
%LPD*%
G01*
G04 APERTURE LIST*
%TA.AperFunction,ComponentPad*%
%ADD10O,1.700000X1.700000*%
%TD*%
%TA.AperFunction,SMDPad,CuDef*%
%ADD11R,3.500000X1.700000*%
%TD*%
%TA.AperFunction,ComponentPad*%
%ADD12R,1.700000X1.700000*%
%TD*%
%TA.AperFunction,SMDPad,CuDef*%
%ADD13R,1.700000X3.500000*%
%TD*%
%TA.AperFunction,ComponentPad*%
%ADD14R,1.440000X2.000000*%
%TD*%
%TA.AperFunction,ComponentPad*%
%ADD15O,1.440000X2.000000*%
%TD*%
%TA.AperFunction,ComponentPad*%
%ADD16C,2.000000*%
%TD*%
%TA.AperFunction,ComponentPad*%
%ADD17R,1.800000X1.800000*%
%TD*%
%TA.AperFunction,ComponentPad*%
%ADD18C,1.800000*%
%TD*%
%TA.AperFunction,ViaPad*%
%ADD19C,0.800000*%
%TD*%
%TA.AperFunction,Conductor*%
%ADD20C,0.250000*%
%TD*%
G04 APERTURE END LIST*
D10*
%TO.P,U5,1,GPIO0*%
%TO.N,LD0*%
X87630000Y-36830000D03*
D11*
X86730000Y-36830000D03*
%TO.P,U5,2,GPIO1*%
%TO.N,LD1*%
X86730000Y-39370000D03*
D10*
X87630000Y-39370000D03*
D12*
%TO.P,U5,3,GND*%
%TO.N,GND*%
X87630000Y-41910000D03*
D11*
X86730000Y-41910000D03*
D10*
%TO.P,U5,4,GPIO2*%
%TO.N,LD2*%
X87630000Y-44450000D03*
D11*
X86730000Y-44450000D03*
%TO.P,U5,5,GPIO3*%
%TO.N,LD3*%
X86730000Y-46990000D03*
D10*
X87630000Y-46990000D03*
D11*
%TO.P,U5,6,GPIO4*%
%TO.N,LD4*%
X86730000Y-49530000D03*
D10*
X87630000Y-49530000D03*
%TO.P,U5,7,GPIO5*%
%TO.N,LD5*%
X87630000Y-52070000D03*
D11*
X86730000Y-52070000D03*
%TO.P,U5,8,GND*%
%TO.N,GND*%
X86730000Y-54610000D03*
D12*
X87630000Y-54610000D03*
D10*
%TO.P,U5,9,GPIO6*%
%TO.N,LD6*%
X87630000Y-57150000D03*
D11*
X86730000Y-57150000D03*
%TO.P,U5,10,GPIO7*%
%TO.N,LD7*%
X86730000Y-59690000D03*
D10*
X87630000Y-59690000D03*
D11*
%TO.P,U5,11,GPIO8*%
%TO.N,LP0*%
X86730000Y-62230000D03*
D10*
X87630000Y-62230000D03*
D11*
%TO.P,U5,12,GPIO9*%
%TO.N,LP1*%
X86730000Y-64770000D03*
D10*
X87630000Y-64770000D03*
D11*
%TO.P,U5,13,GND*%
%TO.N,GND*%
X86730000Y-67310000D03*
D12*
X87630000Y-67310000D03*
D10*
%TO.P,U5,14,GPIO10*%
%TO.N,LP2*%
X87630000Y-69850000D03*
D11*
X86730000Y-69850000D03*
%TO.P,U5,15,GPIO11*%
%TO.N,LP3*%
X86730000Y-72390000D03*
D10*
X87630000Y-72390000D03*
%TO.P,U5,16,GPIO12*%
%TO.N,LP4*%
X87630000Y-74930000D03*
D11*
X86730000Y-74930000D03*
%TO.P,U5,17,GPIO13*%
%TO.N,LP5*%
X86730000Y-77470000D03*
D10*
X87630000Y-77470000D03*
D11*
%TO.P,U5,18,GND*%
%TO.N,GND*%
X86730000Y-80010000D03*
D12*
X87630000Y-80010000D03*
D10*
%TO.P,U5,19,GPIO14*%
%TO.N,LP6*%
X87630000Y-82550000D03*
D11*
X86730000Y-82550000D03*
%TO.P,U5,20,GPIO15*%
%TO.N,LP7*%
X86730000Y-85090000D03*
D10*
X87630000Y-85090000D03*
D11*
%TO.P,U5,21,GPIO16*%
%TO.N,~{LROE}*%
X106310000Y-85090000D03*
D10*
X105410000Y-85090000D03*
%TO.P,U5,22,GPIO17*%
%TO.N,LALS*%
X105410000Y-82550000D03*
D11*
X106310000Y-82550000D03*
D12*
%TO.P,U5,23,GND*%
%TO.N,GND*%
X105410000Y-80010000D03*
D11*
X106310000Y-80010000D03*
%TO.P,U5,24,GPIO18*%
%TO.N,LAHS*%
X106310000Y-77470000D03*
D10*
X105410000Y-77470000D03*
D11*
%TO.P,U5,25,GPIO19*%
%TO.N,LAUS*%
X106310000Y-74930000D03*
D10*
X105410000Y-74930000D03*
D11*
%TO.P,U5,26,GPIO20*%
%TO.N,~{LPGM}*%
X106310000Y-72390000D03*
D10*
X105410000Y-72390000D03*
%TO.P,U5,27,GPIO21*%
%TO.N,~{LCE}*%
X105410000Y-69850000D03*
D11*
X106310000Y-69850000D03*
D12*
%TO.P,U5,28,GND*%
%TO.N,GND*%
X105410000Y-67310000D03*
D11*
X106310000Y-67310000D03*
%TO.P,U5,29,GPIO22*%
%TO.N,~{LOE}*%
X106310000Y-64770000D03*
D10*
X105410000Y-64770000D03*
%TO.P,U5,30,RUN*%
%TO.N,RUN*%
X105410000Y-62230000D03*
D11*
X106310000Y-62230000D03*
D10*
%TO.P,U5,31,GPIO26_ADC0*%
%TO.N,GPIO26_3v3*%
X105410000Y-59690000D03*
D11*
X106310000Y-59690000D03*
D10*
%TO.P,U5,32,GPIO27_ADC1*%
%TO.N,GPIO27_3v3*%
X105410000Y-57150000D03*
D11*
X106310000Y-57150000D03*
%TO.P,U5,33,AGND*%
%TO.N,GND*%
X106310000Y-54610000D03*
D12*
X105410000Y-54610000D03*
D11*
%TO.P,U5,34,GPIO28_ADC2*%
%TO.N,unconnected-(U5-GPIO28_ADC2-Pad34)*%
X106310000Y-52070000D03*
D10*
X105410000Y-52070000D03*
D11*
%TO.P,U5,35,ADC_VREF*%
%TO.N,unconnected-(U5-ADC_VREF-Pad35)*%
X106310000Y-49530000D03*
D10*
X105410000Y-49530000D03*
D11*
%TO.P,U5,36,3V3*%
%TO.N,+3V3*%
X106310000Y-46990000D03*
D10*
X105410000Y-46990000D03*
%TO.P,U5,37,3V3_EN*%
%TO.N,unconnected-(U5-3V3_EN-Pad37)*%
X105410000Y-44450000D03*
D11*
X106310000Y-44450000D03*
D12*
%TO.P,U5,38,GND*%
%TO.N,GND*%
X105410000Y-41910000D03*
D11*
X106310000Y-41910000D03*
D10*
%TO.P,U5,39,VSYS*%
%TO.N,unconnected-(U5-VSYS-Pad39)*%
X105410000Y-39370000D03*
D11*
X106310000Y-39370000D03*
D10*
%TO.P,U5,40,VBUS*%
%TO.N,+5V*%
X105410000Y-36830000D03*
D11*
X106310000Y-36830000D03*
D10*
%TO.P,U5,41,SWCLK*%
%TO.N,unconnected-(U5-SWCLK-Pad41)*%
X93980000Y-84860000D03*
D13*
X93980000Y-85760000D03*
%TO.P,U5,42,GND*%
%TO.N,GND*%
X96520000Y-85760000D03*
D12*
X96520000Y-84860000D03*
D13*
%TO.P,U5,43,SWDIO*%
%TO.N,unconnected-(U5-SWDIO-Pad43)*%
X99060000Y-85760000D03*
D10*
X99060000Y-84860000D03*
%TD*%
D14*
%TO.P,U2,1,A18*%
%TO.N,A18*%
X25790000Y-74202500D03*
D15*
%TO.P,U2,2,A16*%
%TO.N,A16*%
X28330000Y-74202500D03*
%TO.P,U2,3,A15*%
%TO.N,A15*%
X30870000Y-74202500D03*
%TO.P,U2,4,A12*%
%TO.N,A12*%
X33410000Y-74202500D03*
%TO.P,U2,5,A7*%
%TO.N,A7*%
X35950000Y-74202500D03*
%TO.P,U2,6,A6*%
%TO.N,A6*%
X38490000Y-74202500D03*
%TO.P,U2,7,A5*%
%TO.N,A5*%
X41030000Y-74202500D03*
%TO.P,U2,8,A4*%
%TO.N,A4*%
X43570000Y-74202500D03*
%TO.P,U2,9,A3*%
%TO.N,A3*%
X46110000Y-74202500D03*
%TO.P,U2,10,A2*%
%TO.N,A2*%
X48650000Y-74202500D03*
%TO.P,U2,11,A1*%
%TO.N,A1*%
X51190000Y-74202500D03*
%TO.P,U2,12,A0*%
%TO.N,A0*%
X53730000Y-74202500D03*
%TO.P,U2,13,D0*%
%TO.N,D0*%
X56270000Y-74202500D03*
%TO.P,U2,14,D1*%
%TO.N,D1*%
X58810000Y-74202500D03*
%TO.P,U2,15,D2*%
%TO.N,D2*%
X61350000Y-74202500D03*
%TO.P,U2,16,GND*%
%TO.N,GND*%
X63890000Y-74202500D03*
%TO.P,U2,17,D3*%
%TO.N,D3*%
X63890000Y-58962500D03*
%TO.P,U2,18,D4*%
%TO.N,D4*%
X61350000Y-58962500D03*
%TO.P,U2,19,D5*%
%TO.N,D5*%
X58810000Y-58962500D03*
%TO.P,U2,20,D6*%
%TO.N,D6*%
X56270000Y-58962500D03*
%TO.P,U2,21,D7*%
%TO.N,D7*%
X53730000Y-58962500D03*
%TO.P,U2,22,CE*%
%TO.N,~{CE}*%
X51190000Y-58962500D03*
%TO.P,U2,23,A10*%
%TO.N,A10*%
X48650000Y-58962500D03*
%TO.P,U2,24,OE*%
%TO.N,~{OE}*%
X46110000Y-58962500D03*
%TO.P,U2,25,A11*%
%TO.N,A11*%
X43570000Y-58962500D03*
%TO.P,U2,26,A9*%
%TO.N,A9*%
X41030000Y-58962500D03*
%TO.P,U2,27,A8*%
%TO.N,A8*%
X38490000Y-58962500D03*
%TO.P,U2,28,A13*%
%TO.N,A13*%
X35950000Y-58962500D03*
%TO.P,U2,29,A14*%
%TO.N,A14*%
X33410000Y-58962500D03*
%TO.P,U2,30,A17*%
%TO.N,A17*%
X30870000Y-58962500D03*
%TO.P,U2,31,PGM*%
%TO.N,~{PGM}*%
X28330000Y-58962500D03*
%TO.P,U2,32,VCC*%
%TO.N,Net-(D1-K)*%
X25790000Y-58962500D03*
%TD*%
D16*
%TO.P,SW1,1,1*%
%TO.N,RUN*%
X23166000Y-87340000D03*
X29666000Y-87340000D03*
%TO.P,SW1,2,2*%
%TO.N,GND*%
X29666000Y-82840000D03*
X23166000Y-82840000D03*
%TD*%
D17*
%TO.P,D2,1,K*%
%TO.N,Net-(D2-K)*%
X34793000Y-85090000D03*
D18*
%TO.P,D2,2,A*%
%TO.N,GPIO26_3v3*%
X37333000Y-85090000D03*
%TD*%
D17*
%TO.P,D3,1,K*%
%TO.N,Net-(D3-K)*%
X47244000Y-85090000D03*
D18*
%TO.P,D3,2,A*%
%TO.N,GPIO27_3v3*%
X49784000Y-85090000D03*
%TD*%
D19*
%TO.N,GND*%
X48006000Y-78994000D03*
X44323000Y-84709000D03*
%TO.N,Net-(D3-K)*%
X52959000Y-80354000D03*
%TO.N,+3V3*%
X82696300Y-45572500D03*
%TO.N,P0*%
X52985900Y-66837400D03*
X52701600Y-72852600D03*
X74206900Y-80098100D03*
X77154900Y-73839000D03*
X31728900Y-72871200D03*
%TO.N,LP1*%
X80826200Y-64770000D03*
%TO.N,P1*%
X33844600Y-71111000D03*
X64303400Y-68573200D03*
X54551500Y-70099800D03*
%TO.N,LP2*%
X65163000Y-80025300D03*
%TO.N,P2*%
X34845000Y-71045100D03*
X50310600Y-72740700D03*
%TO.N,LP3*%
X65581700Y-84053800D03*
%TO.N,~{ROE}*%
X54958300Y-76019200D03*
X32309100Y-75754700D03*
X75921500Y-71504700D03*
X61418800Y-77749100D03*
X28548000Y-42347900D03*
%TO.N,LALS*%
X29791500Y-40615700D03*
%TO.N,ALS*%
X30845300Y-42798300D03*
X40811100Y-61813300D03*
%TO.N,LP4*%
X57055900Y-84494300D03*
%TO.N,LP5*%
X56400400Y-85253600D03*
X26362600Y-78697900D03*
X37269700Y-80553400D03*
%TO.N,P5*%
X45866800Y-69543500D03*
X65216500Y-69191700D03*
X36295700Y-70834700D03*
%TO.N,LP6*%
X55730300Y-85998200D03*
%TO.N,P6*%
X24455000Y-77574500D03*
X42354100Y-75842600D03*
%TO.N,LP7*%
X17965000Y-77631600D03*
X34623000Y-80054400D03*
%TO.N,P7*%
X37736600Y-69366200D03*
X43669700Y-69366200D03*
%TO.N,AHS*%
X18798000Y-60630100D03*
X40881300Y-38552400D03*
%TO.N,~{PGM}*%
X45831500Y-42701900D03*
%TO.N,LD0*%
X27991200Y-51916000D03*
%TO.N,D0*%
X41972700Y-56661000D03*
%TO.N,LD1*%
X31776000Y-51815600D03*
%TO.N,D1*%
X41371000Y-54914400D03*
%TO.N,LD2*%
X38013700Y-50521800D03*
%TO.N,D2*%
X36935400Y-50292000D03*
%TO.N,LD3*%
X47409800Y-48173900D03*
%TO.N,D3*%
X46810800Y-53414800D03*
%TO.N,~{LCE}*%
X57747100Y-46648300D03*
%TO.N,~{LOE}*%
X62820100Y-41940000D03*
X88986300Y-43128700D03*
%TO.N,~{OE}*%
X61734700Y-42947000D03*
%TO.N,LD4*%
X61643300Y-48675100D03*
%TO.N,D4*%
X54469600Y-54590500D03*
%TO.N,LD5*%
X64810000Y-51243500D03*
%TO.N,D5*%
X57665500Y-57246100D03*
%TO.N,LD6*%
X69213500Y-52144800D03*
%TO.N,LD7*%
X59884800Y-48999600D03*
%TO.N,GND*%
X77138200Y-67747500D03*
%TO.N,A2*%
X48535600Y-66832100D03*
%TO.N,A1*%
X51182400Y-66814000D03*
%TO.N,A0*%
X52171000Y-66064300D03*
%TO.N,A18*%
X59702900Y-63327200D03*
%TO.N,A16*%
X55316500Y-64076200D03*
%TO.N,A15*%
X24935700Y-66654800D03*
%TO.N,A12*%
X25206300Y-63417500D03*
%TO.N,A10*%
X29545700Y-63588300D03*
%TO.N,A11*%
X28197000Y-63532300D03*
%TO.N,A17*%
X55076600Y-61211700D03*
%TO.N,+5V*%
X67622600Y-57788800D03*
X59276900Y-47098600D03*
X67872300Y-65814700D03*
X66575300Y-76293900D03*
X81957100Y-40734600D03*
%TD*%
D20*
%TO.N,GND*%
X48641000Y-79629000D02*
X48895000Y-79629000D01*
X48006000Y-78994000D02*
X48641000Y-79629000D01*
X57876300Y-79629000D02*
X48895000Y-79629000D01*
X48895000Y-79629000D02*
X44323000Y-79629000D01*
%TO.N,GPIO27_3v3*%
X60693500Y-77743000D02*
X53346500Y-85090000D01*
%TO.N,GND*%
X42958000Y-83344000D02*
X44323000Y-84709000D01*
X42672000Y-83344000D02*
X42958000Y-83344000D01*
%TO.N,Net-(D3-K)*%
X53372000Y-80767000D02*
X52959000Y-80354000D01*
X53372000Y-81280000D02*
X53372000Y-80767000D01*
%TO.N,GND*%
X42672000Y-81280000D02*
X42672000Y-83344000D01*
X44323000Y-79629000D02*
X42672000Y-81280000D01*
X58021150Y-79484150D02*
X57876300Y-79629000D01*
X62844700Y-74660600D02*
X58021150Y-79484150D01*
%TO.N,Net-(D3-K)*%
X49149000Y-81280000D02*
X53372000Y-81280000D01*
X47244000Y-83185000D02*
X49149000Y-81280000D01*
X47244000Y-85090000D02*
X47244000Y-83185000D01*
%TO.N,+3V3*%
X105410000Y-46990000D02*
X104234700Y-46990000D01*
X82938500Y-45814700D02*
X82696300Y-45572500D01*
X103059400Y-45814700D02*
X82938500Y-45814700D01*
X104234700Y-46990000D02*
X103059400Y-45814700D01*
%TO.N,P0*%
X48222900Y-75568800D02*
X47380000Y-74725900D01*
X51592400Y-75568800D02*
X48222900Y-75568800D01*
X52460000Y-73094200D02*
X52460000Y-74701200D01*
X47380000Y-73685900D02*
X46565300Y-72871200D01*
X74206900Y-76787000D02*
X74206900Y-80098100D01*
X47380000Y-74725900D02*
X47380000Y-73685900D01*
X52701600Y-72852600D02*
X52701600Y-67121700D01*
X52701600Y-67121700D02*
X52985900Y-66837400D01*
X52460000Y-74701200D02*
X51592400Y-75568800D01*
X77154900Y-73839000D02*
X74206900Y-76787000D01*
X46565300Y-72871200D02*
X31728900Y-72871200D01*
X52701600Y-72852600D02*
X52460000Y-73094200D01*
%TO.N,LP1*%
X87630000Y-64770000D02*
X80826200Y-64770000D01*
%TO.N,P1*%
X56253400Y-68397900D02*
X54551500Y-70099800D01*
X33844600Y-71111000D02*
X33844600Y-71013700D01*
X35042600Y-70106300D02*
X37156700Y-67992200D01*
X42534100Y-67992200D02*
X44962100Y-65564200D01*
X49641400Y-65427000D02*
X49729400Y-65339000D01*
X53194400Y-65339000D02*
X56253400Y-68397900D01*
X44962100Y-65564200D02*
X49016800Y-65564200D01*
X49016800Y-65564200D02*
X49154000Y-65427000D01*
X56253400Y-68397900D02*
X56253400Y-68398000D01*
X34752000Y-70106300D02*
X35042600Y-70106300D01*
X49729400Y-65339000D02*
X53194400Y-65339000D01*
X56253400Y-68398000D02*
X64128200Y-68398000D01*
X64128200Y-68398000D02*
X64303400Y-68573200D01*
X37156700Y-67992200D02*
X42534100Y-67992200D01*
X33844600Y-71013700D02*
X34752000Y-70106300D01*
X49154000Y-65427000D02*
X49641400Y-65427000D01*
%TO.N,LP2*%
X69203000Y-80025300D02*
X79378300Y-69850000D01*
X65163000Y-80025300D02*
X69203000Y-80025300D01*
X79378300Y-69850000D02*
X87630000Y-69850000D01*
%TO.N,P2*%
X50310600Y-67567900D02*
X50310600Y-72740700D01*
X34845000Y-71045100D02*
X37447600Y-68442500D01*
X42720800Y-68442500D02*
X45065800Y-66097500D01*
X48840200Y-66097500D02*
X50310600Y-67567900D01*
X45065800Y-66097500D02*
X48840200Y-66097500D01*
X37447600Y-68442500D02*
X42720800Y-68442500D01*
%TO.N,LP3*%
X87630000Y-72390000D02*
X86454700Y-72390000D01*
X83908900Y-72390000D02*
X72245100Y-84053800D01*
X86454700Y-72390000D02*
X83908900Y-72390000D01*
X72245100Y-84053800D02*
X65581700Y-84053800D01*
%TO.N,~{ROE}*%
X32309100Y-75754700D02*
X31576800Y-76487000D01*
X24483000Y-76487000D02*
X23701600Y-75705600D01*
X54958300Y-76019200D02*
X43556500Y-76019200D01*
X69677100Y-77749100D02*
X61418800Y-77749100D01*
X23701600Y-47194300D02*
X28548000Y-42347900D01*
X41236200Y-75754700D02*
X32309100Y-75754700D01*
X75921500Y-71504700D02*
X69677100Y-77749100D01*
X41873600Y-75117300D02*
X41236200Y-75754700D01*
X31576800Y-76487000D02*
X24483000Y-76487000D01*
X43556500Y-76019200D02*
X42654600Y-75117300D01*
X23701600Y-75705600D02*
X23701600Y-47194300D01*
X42654600Y-75117300D02*
X41873600Y-75117300D01*
%TO.N,LALS*%
X41099300Y-87771600D02*
X39754200Y-89116700D01*
X104234700Y-83651800D02*
X100051100Y-87835400D01*
X28549200Y-40615700D02*
X29791500Y-40615700D01*
X83959800Y-87771600D02*
X41099300Y-87771600D01*
X84023600Y-87835400D02*
X83959800Y-87771600D01*
X39754200Y-89116700D02*
X26916700Y-89116700D01*
X100051100Y-87835400D02*
X84023600Y-87835400D01*
X105410000Y-82550000D02*
X104234700Y-82550000D01*
X17164000Y-79364000D02*
X17164000Y-52000900D01*
X104234700Y-82550000D02*
X104234700Y-83651800D01*
X26916700Y-89116700D02*
X17164000Y-79364000D01*
X17164000Y-52000900D02*
X28549200Y-40615700D01*
%TO.N,ALS*%
X30845300Y-42798300D02*
X27260500Y-46383100D01*
X27260500Y-59664500D02*
X29409300Y-61813300D01*
X27260500Y-46383100D02*
X27260500Y-59664500D01*
X29409300Y-61813300D02*
X40811100Y-61813300D01*
%TO.N,LP4*%
X57340700Y-84779100D02*
X74726100Y-84779100D01*
X84575200Y-74930000D02*
X87630000Y-74930000D01*
X57055900Y-84494300D02*
X57340700Y-84779100D01*
X74726100Y-84779100D02*
X84575200Y-74930000D01*
%TO.N,LP5*%
X84186400Y-77470000D02*
X76402800Y-85253600D01*
X76402800Y-85253600D02*
X56400400Y-85253600D01*
X26362600Y-78697900D02*
X35414200Y-78697900D01*
X35414200Y-78697900D02*
X37269700Y-80553400D01*
X87630000Y-77470000D02*
X84186400Y-77470000D01*
%TO.N,P5*%
X44575600Y-70834700D02*
X45866800Y-69543500D01*
X43471800Y-66196500D02*
X44779600Y-64888700D01*
X36295700Y-70834700D02*
X44575600Y-70834700D01*
X35294100Y-71836300D02*
X33471000Y-71836300D01*
X33471000Y-71836300D02*
X33118100Y-71483400D01*
X33118100Y-71483400D02*
X33118100Y-70757000D01*
X33118100Y-70757000D02*
X37678600Y-66196500D01*
X61648800Y-64888700D02*
X65216500Y-68456400D01*
X65216500Y-68456400D02*
X65216500Y-69191700D01*
X37678600Y-66196500D02*
X43471800Y-66196500D01*
X44779600Y-64888700D02*
X61648800Y-64888700D01*
X36295700Y-70834700D02*
X35294100Y-71836300D01*
%TO.N,LP6*%
X77732100Y-85998200D02*
X81180300Y-82550000D01*
X81180300Y-82550000D02*
X87630000Y-82550000D01*
X55730300Y-85998200D02*
X77732100Y-85998200D01*
%TO.N,P6*%
X40622200Y-77574500D02*
X42354100Y-75842600D01*
X24455000Y-77574500D02*
X40622200Y-77574500D01*
%TO.N,LP7*%
X87630000Y-85090000D02*
X86454700Y-85090000D01*
X27103200Y-88666300D02*
X39567700Y-88666300D01*
X34623000Y-80054400D02*
X23251400Y-80054400D01*
X23251400Y-80054400D02*
X21838100Y-81467700D01*
X18002000Y-77631600D02*
X17965000Y-77631600D01*
X21838100Y-81467700D02*
X18002000Y-77631600D01*
X40912700Y-87321300D02*
X84223400Y-87321300D01*
X21838100Y-83401200D02*
X27103200Y-88666300D01*
X39567700Y-88666300D02*
X40912700Y-87321300D01*
X21838100Y-81467700D02*
X21838100Y-83401200D01*
X84223400Y-87321300D02*
X86454700Y-85090000D01*
%TO.N,P7*%
X37736600Y-69366200D02*
X43669700Y-69366200D01*
%TO.N,AHS*%
X37912400Y-41521300D02*
X40881300Y-38552400D01*
X18798000Y-51068700D02*
X28345400Y-41521300D01*
X18798000Y-60630100D02*
X18798000Y-51068700D01*
X28345400Y-41521300D02*
X37912400Y-41521300D01*
%TO.N,~{PGM}*%
X42858600Y-42701900D02*
X28330000Y-57230500D01*
X28330000Y-57230500D02*
X28330000Y-57637200D01*
X45831500Y-42701900D02*
X42858600Y-42701900D01*
X28330000Y-58962500D02*
X28330000Y-57637200D01*
%TO.N,LD0*%
X28458600Y-51916000D02*
X27991200Y-51916000D01*
X46443300Y-36830000D02*
X43903300Y-39370000D01*
X87630000Y-36830000D02*
X46443300Y-36830000D01*
X43903300Y-39370000D02*
X41004600Y-39370000D01*
X41004600Y-39370000D02*
X28458600Y-51916000D01*
%TO.N,D0*%
X59707300Y-71516500D02*
X57315300Y-73908500D01*
X41972700Y-56661000D02*
X48116300Y-56661000D01*
X57315300Y-73908500D02*
X57315300Y-74202500D01*
X63917500Y-71516500D02*
X59707300Y-71516500D01*
X65941800Y-68529800D02*
X65941800Y-69492200D01*
X65941800Y-69492200D02*
X63917500Y-71516500D01*
X49920000Y-58464700D02*
X49920000Y-59534600D01*
X52633600Y-62248200D02*
X59660200Y-62248200D01*
X49920000Y-59534600D02*
X52633600Y-62248200D01*
X56270000Y-74202500D02*
X57315300Y-74202500D01*
X48116300Y-56661000D02*
X49920000Y-58464700D01*
X59660200Y-62248200D02*
X65941800Y-68529800D01*
%TO.N,LD1*%
X44858400Y-39370000D02*
X87630000Y-39370000D01*
X32412800Y-51815600D02*
X44858400Y-39370000D01*
X31776000Y-51815600D02*
X32412800Y-51815600D01*
%TO.N,D1*%
X59855300Y-73908200D02*
X59855300Y-74202500D01*
X41371000Y-54914400D02*
X51457200Y-54914400D01*
X61760900Y-72002600D02*
X59855300Y-73908200D01*
X59241800Y-61188400D02*
X66392100Y-68338700D01*
X54840700Y-58297900D02*
X54840700Y-59355500D01*
X56673600Y-61188400D02*
X59241800Y-61188400D01*
X58810000Y-74202500D02*
X59855300Y-74202500D01*
X54840700Y-59355500D02*
X56673600Y-61188400D01*
X66392100Y-68338700D02*
X66392100Y-69678800D01*
X66392100Y-69678800D02*
X64068300Y-72002600D01*
X64068300Y-72002600D02*
X61760900Y-72002600D01*
X51457200Y-54914400D02*
X54840700Y-58297900D01*
%TO.N,LD2*%
X44085500Y-44450000D02*
X87630000Y-44450000D01*
X38013700Y-50521800D02*
X44085500Y-44450000D01*
%TO.N,D2*%
X66895600Y-68149100D02*
X66895600Y-69812200D01*
X36935400Y-50292000D02*
X36935400Y-50550200D01*
X66895600Y-69812200D02*
X64254800Y-72453000D01*
X53017700Y-54164500D02*
X55170300Y-56317100D01*
X40549700Y-54164500D02*
X53017700Y-54164500D01*
X36935400Y-50550200D02*
X40549700Y-54164500D01*
X58442800Y-60353600D02*
X59100100Y-60353600D01*
X57764700Y-59675500D02*
X58442800Y-60353600D01*
X55170300Y-56317100D02*
X55402200Y-56317100D01*
X63099500Y-72453000D02*
X61350000Y-74202500D01*
X59100100Y-60353600D02*
X66895600Y-68149100D01*
X55402200Y-56317100D02*
X57764700Y-58679600D01*
X64254800Y-72453000D02*
X63099500Y-72453000D01*
X57764700Y-58679600D02*
X57764700Y-59675500D01*
%TO.N,LD3*%
X87630000Y-46990000D02*
X86454700Y-46990000D01*
X60249400Y-45884400D02*
X61355000Y-46990000D01*
X49699300Y-45884400D02*
X60249400Y-45884400D01*
X47409800Y-48173900D02*
X49699300Y-45884400D01*
X61355000Y-46990000D02*
X86454700Y-46990000D01*
%TO.N,D3*%
X62844700Y-58668500D02*
X62844700Y-58962500D01*
X63890000Y-58962500D02*
X62844700Y-58962500D01*
X46810800Y-53414800D02*
X57591000Y-53414800D01*
X57591000Y-53414800D02*
X62844700Y-58668500D01*
%TO.N,~{LCE}*%
X108385300Y-56165200D02*
X108385300Y-69850000D01*
X108194800Y-55974700D02*
X108385300Y-56165200D01*
X88805400Y-48165400D02*
X96614700Y-55974700D01*
X96614700Y-55974700D02*
X108194800Y-55974700D01*
X105410000Y-69850000D02*
X108385300Y-69850000D01*
X60101300Y-46373200D02*
X61168500Y-47440400D01*
X62910800Y-48165400D02*
X88805400Y-48165400D01*
X57747100Y-46648300D02*
X58022200Y-46373200D01*
X61168500Y-47440400D02*
X62185800Y-47440400D01*
X58022200Y-46373200D02*
X60101300Y-46373200D01*
X62185800Y-47440400D02*
X62910800Y-48165400D01*
%TO.N,~{LOE}*%
X64008800Y-43128700D02*
X88986300Y-43128700D01*
X62820100Y-41940000D02*
X64008800Y-43128700D01*
%TO.N,~{OE}*%
X34680000Y-58438100D02*
X35481200Y-57636900D01*
X61242100Y-43439600D02*
X61242100Y-43439700D01*
X29812400Y-56385000D02*
X29812400Y-59697200D01*
X61734700Y-42947000D02*
X61242100Y-43439600D01*
X45064700Y-58668500D02*
X45064700Y-58962500D01*
X42757700Y-43439700D02*
X29812400Y-56385000D01*
X34680000Y-59468000D02*
X34680000Y-58438100D01*
X44033100Y-57636900D02*
X45064700Y-58668500D01*
X35481200Y-57636900D02*
X44033100Y-57636900D01*
X46110000Y-58962500D02*
X45064700Y-58962500D01*
X29812400Y-59697200D02*
X30403100Y-60287900D01*
X33860100Y-60287900D02*
X34680000Y-59468000D01*
X61242100Y-43439700D02*
X42757700Y-43439700D01*
X30403100Y-60287900D02*
X33860100Y-60287900D01*
%TO.N,LD4*%
X85599800Y-48675100D02*
X86454700Y-49530000D01*
X87630000Y-49530000D02*
X86454700Y-49530000D01*
X61643300Y-48675100D02*
X85599800Y-48675100D01*
%TO.N,D4*%
X54469600Y-54590500D02*
X56226700Y-54590500D01*
X61350000Y-58962500D02*
X60304700Y-58962500D01*
X56226700Y-54590500D02*
X60304700Y-58668500D01*
X60304700Y-58668500D02*
X60304700Y-58962500D01*
%TO.N,LD5*%
X87630000Y-52070000D02*
X84654700Y-52070000D01*
X83828200Y-51243500D02*
X64810000Y-51243500D01*
X84654700Y-52070000D02*
X83828200Y-51243500D01*
%TO.N,D5*%
X58810000Y-58390600D02*
X58810000Y-58962500D01*
X57665500Y-57246100D02*
X58810000Y-58390600D01*
%TO.N,LD6*%
X74218700Y-57150000D02*
X69213500Y-52144800D01*
X87630000Y-57150000D02*
X74218700Y-57150000D01*
%TO.N,LD7*%
X87630000Y-59690000D02*
X70575200Y-59690000D01*
X70575200Y-59690000D02*
X59884800Y-48999600D01*
%TO.N,RUN*%
X68004100Y-81861200D02*
X78650700Y-71214600D01*
X53228100Y-86871000D02*
X58237900Y-81861200D01*
X29666000Y-87340000D02*
X30135000Y-86871000D01*
X78650700Y-71214600D02*
X95250100Y-71214600D01*
X105410000Y-62230000D02*
X104234700Y-62230000D01*
X58237900Y-81861200D02*
X68004100Y-81861200D01*
X30135000Y-86871000D02*
X53228100Y-86871000D01*
X95250100Y-71214600D02*
X104234700Y-62230000D01*
%TO.N,GND*%
X101737300Y-80010000D02*
X104234700Y-80010000D01*
X62844700Y-74202500D02*
X62844700Y-74660600D01*
X96520000Y-84860000D02*
X97695300Y-84860000D01*
X97695300Y-84052000D02*
X101737300Y-80010000D01*
X63890000Y-74202500D02*
X62844700Y-74202500D01*
X97695300Y-84860000D02*
X97695300Y-84052000D01*
X41546700Y-81280000D02*
X39986700Y-82840000D01*
X39986700Y-82840000D02*
X29666000Y-82840000D01*
X86454700Y-67310000D02*
X86017200Y-67747500D01*
X104234700Y-80010000D02*
X104234700Y-67310000D01*
X29666000Y-82840000D02*
X23166000Y-82840000D01*
X105410000Y-80010000D02*
X104234700Y-80010000D01*
X86017200Y-67747500D02*
X77138200Y-67747500D01*
X42109400Y-81280000D02*
X42672000Y-81280000D01*
X87630000Y-67310000D02*
X86454700Y-67310000D01*
X105410000Y-67310000D02*
X104234700Y-67310000D01*
X42109400Y-81280000D02*
X41546700Y-81280000D01*
%TO.N,A2*%
X48650000Y-74202500D02*
X48650000Y-72877200D01*
X48535600Y-72762800D02*
X48650000Y-72877200D01*
X48535600Y-66832100D02*
X48535600Y-72762800D01*
%TO.N,A1*%
X51182400Y-66814000D02*
X51182400Y-72869600D01*
X51190000Y-74202500D02*
X51190000Y-72877200D01*
X51182400Y-72869600D02*
X51190000Y-72877200D01*
%TO.N,A0*%
X52171000Y-66064300D02*
X53282800Y-66064300D01*
X53730000Y-66511500D02*
X53730000Y-74202500D01*
X53282800Y-66064300D02*
X53730000Y-66511500D01*
%TO.N,A18*%
X43534000Y-63327200D02*
X59702900Y-63327200D01*
X42547500Y-64313700D02*
X43534000Y-63327200D01*
X26835300Y-74202500D02*
X26835300Y-73908500D01*
X25790000Y-74202500D02*
X26835300Y-74202500D01*
X26835300Y-73908500D02*
X36430100Y-64313700D01*
X36430100Y-64313700D02*
X42547500Y-64313700D01*
%TO.N,A16*%
X28330000Y-74202500D02*
X29375300Y-74202500D01*
X29375300Y-73810500D02*
X37707600Y-65478200D01*
X29375300Y-74202500D02*
X29375300Y-73810500D01*
X42656900Y-65478200D02*
X44058900Y-64076200D01*
X37707600Y-65478200D02*
X42656900Y-65478200D01*
X44058900Y-64076200D02*
X55316500Y-64076200D01*
%TO.N,A15*%
X24744600Y-75407800D02*
X24744600Y-66845900D01*
X24905800Y-75569000D02*
X24744600Y-75407800D01*
X30870000Y-74202500D02*
X29503500Y-75569000D01*
X24744600Y-66845900D02*
X24935700Y-66654800D01*
X29503500Y-75569000D02*
X24905800Y-75569000D01*
%TO.N,A12*%
X33410000Y-74202500D02*
X32364700Y-74202500D01*
X32364700Y-74202500D02*
X32364700Y-74496500D01*
X32364700Y-74496500D02*
X30841800Y-76019400D01*
X30841800Y-76019400D02*
X24719300Y-76019400D01*
X24719300Y-76019400D02*
X24203800Y-75503900D01*
X24203800Y-64420000D02*
X25206300Y-63417500D01*
X24203800Y-75503900D02*
X24203800Y-64420000D01*
%TO.N,A10*%
X47604700Y-59256500D02*
X44273100Y-62588100D01*
X44273100Y-62588100D02*
X43636200Y-62588100D01*
X47604700Y-58962500D02*
X47604700Y-59256500D01*
X43636200Y-62588100D02*
X42636000Y-63588300D01*
X42636000Y-63588300D02*
X29545700Y-63588300D01*
X48650000Y-58962500D02*
X47604700Y-58962500D01*
%TO.N,A11*%
X43570000Y-58962500D02*
X43570000Y-60287800D01*
X41027200Y-62830600D02*
X43570000Y-60287800D01*
X28197000Y-63532300D02*
X28898700Y-62830600D01*
X28898700Y-62830600D02*
X41027200Y-62830600D01*
%TO.N,A17*%
X52460000Y-58349200D02*
X50014700Y-55903900D01*
X55076600Y-61211700D02*
X54209000Y-61211700D01*
X52460000Y-59462700D02*
X52460000Y-58349200D01*
X30870000Y-58962500D02*
X31915300Y-58962500D01*
X31915300Y-58668500D02*
X31915300Y-58962500D01*
X34679900Y-55903900D02*
X31915300Y-58668500D01*
X54209000Y-61211700D02*
X52460000Y-59462700D01*
X50014700Y-55903900D02*
X34679900Y-55903900D01*
%TO.N,GPIO26_3v3*%
X105410000Y-59690000D02*
X104234700Y-59690000D01*
X38558400Y-86315400D02*
X37333000Y-85090000D01*
X95439300Y-68485400D02*
X80106000Y-68485400D01*
X60871800Y-78590400D02*
X53146800Y-86315400D01*
X53146800Y-86315400D02*
X38558400Y-86315400D01*
X80106000Y-68485400D02*
X70001000Y-78590400D01*
X104234700Y-59690000D02*
X95439300Y-68485400D01*
X70001000Y-78590400D02*
X60871800Y-78590400D01*
%TO.N,GPIO27_3v3*%
X97946500Y-63438200D02*
X80412100Y-63438200D01*
X66871300Y-77023800D02*
X61118400Y-77023800D01*
X80412100Y-63438200D02*
X67300600Y-76549700D01*
X67300600Y-76549700D02*
X67300600Y-76594500D01*
X104234700Y-57150000D02*
X97946500Y-63438200D01*
X105410000Y-57150000D02*
X104234700Y-57150000D01*
X61118400Y-77023800D02*
X60693500Y-77448700D01*
X67300600Y-76594500D02*
X66871300Y-77023800D01*
X60693500Y-77448700D02*
X60693500Y-77743000D01*
X53346500Y-85090000D02*
X49784000Y-85090000D01*
%TO.N,+5V*%
X67622600Y-65565000D02*
X67872300Y-65814700D01*
X90126800Y-40734600D02*
X81957100Y-40734600D01*
X90507201Y-41115001D02*
X90126800Y-40734600D01*
X66575300Y-76293900D02*
X67872300Y-74996900D01*
X59143400Y-47232100D02*
X59276900Y-47098600D01*
X105410000Y-36830000D02*
X104234700Y-36830000D01*
X102829699Y-38235001D02*
X102829699Y-40172301D01*
X59143400Y-49309600D02*
X59143400Y-47232100D01*
X104234700Y-36830000D02*
X102829699Y-38235001D01*
X102829699Y-40172301D02*
X101886999Y-41115001D01*
X67872300Y-74996900D02*
X67872300Y-65814700D01*
X67622600Y-57788800D02*
X67622600Y-65565000D01*
X101886999Y-41115001D02*
X90507201Y-41115001D01*
X67622600Y-57788800D02*
X59143400Y-49309600D01*
%TD*%
%TA.AperFunction,Conductor*%
%TO.N,GND*%
G36*
X84480394Y-35580502D02*
G01*
X84526887Y-35634158D01*
X84536991Y-35704432D01*
X84530328Y-35730533D01*
X84478011Y-35870795D01*
X84478009Y-35870803D01*
X84471500Y-35931350D01*
X84471500Y-36070500D01*
X84451498Y-36138621D01*
X84397842Y-36185114D01*
X84345500Y-36196500D01*
X46527149Y-36196500D01*
X46511310Y-36194751D01*
X46511283Y-36195045D01*
X46503391Y-36194299D01*
X46435333Y-36196438D01*
X46431375Y-36196500D01*
X46403444Y-36196500D01*
X46401257Y-36196776D01*
X46399411Y-36197009D01*
X46387604Y-36197937D01*
X46343410Y-36199326D01*
X46343405Y-36199327D01*
X46323960Y-36204977D01*
X46304602Y-36208986D01*
X46284507Y-36211524D01*
X46284505Y-36211525D01*
X46243383Y-36227805D01*
X46232159Y-36231647D01*
X46189710Y-36243980D01*
X46189704Y-36243982D01*
X46172266Y-36254295D01*
X46154520Y-36262989D01*
X46135681Y-36270448D01*
X46099914Y-36296434D01*
X46089998Y-36302948D01*
X46051936Y-36325458D01*
X46037607Y-36339787D01*
X46022581Y-36352620D01*
X46006195Y-36364525D01*
X45978011Y-36398593D01*
X45970023Y-36407370D01*
X43677800Y-38699595D01*
X43615488Y-38733620D01*
X43588705Y-38736500D01*
X41915392Y-38736500D01*
X41847271Y-38716498D01*
X41800778Y-38662842D01*
X41790082Y-38597331D01*
X41793130Y-38568325D01*
X41794804Y-38552400D01*
X41774842Y-38362472D01*
X41715827Y-38180844D01*
X41620340Y-38015456D01*
X41620338Y-38015454D01*
X41620334Y-38015448D01*
X41492555Y-37873535D01*
X41338052Y-37761282D01*
X41163588Y-37683606D01*
X40976787Y-37643900D01*
X40785813Y-37643900D01*
X40599011Y-37683606D01*
X40424547Y-37761282D01*
X40270044Y-37873535D01*
X40142265Y-38015448D01*
X40142258Y-38015458D01*
X40046776Y-38180838D01*
X40046773Y-38180844D01*
X40035693Y-38214944D01*
X39987757Y-38362472D01*
X39970392Y-38527692D01*
X39943379Y-38593349D01*
X39934177Y-38603616D01*
X37686900Y-40850895D01*
X37624588Y-40884920D01*
X37597805Y-40887800D01*
X30816343Y-40887800D01*
X30748222Y-40867798D01*
X30701729Y-40814142D01*
X30691033Y-40748630D01*
X30694577Y-40714902D01*
X30705004Y-40615700D01*
X30685042Y-40425772D01*
X30626027Y-40244144D01*
X30530540Y-40078756D01*
X30530538Y-40078754D01*
X30530534Y-40078748D01*
X30402755Y-39936835D01*
X30248252Y-39824582D01*
X30073788Y-39746906D01*
X29886987Y-39707200D01*
X29696013Y-39707200D01*
X29509211Y-39746906D01*
X29334747Y-39824582D01*
X29180247Y-39936833D01*
X29176937Y-39940510D01*
X29116491Y-39977750D01*
X29083300Y-39982200D01*
X28633053Y-39982200D01*
X28617211Y-39980450D01*
X28617184Y-39980744D01*
X28609292Y-39979998D01*
X28609291Y-39979998D01*
X28585560Y-39980744D01*
X28541214Y-39982138D01*
X28537255Y-39982200D01*
X28509344Y-39982200D01*
X28509341Y-39982200D01*
X28509326Y-39982201D01*
X28505321Y-39982707D01*
X28493504Y-39983637D01*
X28449312Y-39985026D01*
X28449310Y-39985027D01*
X28429855Y-39990678D01*
X28410502Y-39994686D01*
X28390410Y-39997224D01*
X28390403Y-39997226D01*
X28349296Y-40013501D01*
X28338071Y-40017344D01*
X28311553Y-40025049D01*
X28295607Y-40029682D01*
X28295605Y-40029682D01*
X28295602Y-40029684D01*
X28278163Y-40039997D01*
X28260418Y-40048690D01*
X28241579Y-40056149D01*
X28205827Y-40082126D01*
X28195904Y-40088644D01*
X28157840Y-40111154D01*
X28143507Y-40125487D01*
X28128481Y-40138320D01*
X28112095Y-40150225D01*
X28083911Y-40184293D01*
X28075923Y-40193070D01*
X16775336Y-51493657D01*
X16762901Y-51503621D01*
X16763089Y-51503848D01*
X16756979Y-51508902D01*
X16710370Y-51558535D01*
X16707620Y-51561373D01*
X16687863Y-51581131D01*
X16685374Y-51584339D01*
X16677688Y-51593336D01*
X16647418Y-51625573D01*
X16647411Y-51625583D01*
X16637651Y-51643335D01*
X16626803Y-51659850D01*
X16614386Y-51675858D01*
X16596824Y-51716440D01*
X16591604Y-51727095D01*
X16570305Y-51765839D01*
X16570303Y-51765844D01*
X16565267Y-51785459D01*
X16558864Y-51804162D01*
X16550819Y-51822752D01*
X16543901Y-51866425D01*
X16541495Y-51878042D01*
X16530500Y-51920868D01*
X16530500Y-51941123D01*
X16528949Y-51960833D01*
X16525780Y-51980843D01*
X16528403Y-52008595D01*
X16529941Y-52024861D01*
X16530500Y-52036719D01*
X16530500Y-79280146D01*
X16528751Y-79295988D01*
X16529044Y-79296016D01*
X16528298Y-79303907D01*
X16530438Y-79371984D01*
X16530500Y-79375943D01*
X16530500Y-79403851D01*
X16530501Y-79403869D01*
X16531007Y-79407877D01*
X16531937Y-79419696D01*
X16533326Y-79463888D01*
X16533327Y-79463893D01*
X16538977Y-79483339D01*
X16542986Y-79502697D01*
X16545525Y-79522793D01*
X16545526Y-79522800D01*
X16561800Y-79563903D01*
X16565644Y-79575129D01*
X16577982Y-79617593D01*
X16588294Y-79635031D01*
X16596988Y-79652779D01*
X16604444Y-79671609D01*
X16604450Y-79671620D01*
X16630432Y-79707381D01*
X16636949Y-79717301D01*
X16659458Y-79755362D01*
X16659459Y-79755363D01*
X16659461Y-79755366D01*
X16673779Y-79769684D01*
X16686617Y-79784714D01*
X16698526Y-79801104D01*
X16698530Y-79801109D01*
X16732598Y-79829292D01*
X16741378Y-79837282D01*
X22640432Y-85736336D01*
X22674458Y-85798648D01*
X22669393Y-85869463D01*
X22626846Y-85926299D01*
X22599555Y-85941840D01*
X22479038Y-85991759D01*
X22276582Y-86115825D01*
X22276580Y-86115826D01*
X22096030Y-86270030D01*
X21941826Y-86450580D01*
X21941825Y-86450582D01*
X21817759Y-86653038D01*
X21726894Y-86872407D01*
X21671465Y-87103289D01*
X21652835Y-87340000D01*
X21671465Y-87576711D01*
X21677317Y-87601086D01*
X21726894Y-87807592D01*
X21760560Y-87888868D01*
X21817760Y-88026963D01*
X21900170Y-88161444D01*
X21941825Y-88229417D01*
X21941826Y-88229419D01*
X22096030Y-88409969D01*
X22276580Y-88564173D01*
X22276584Y-88564176D01*
X22479037Y-88688240D01*
X22698406Y-88779105D01*
X22929289Y-88834535D01*
X23166000Y-88853165D01*
X23402711Y-88834535D01*
X23633594Y-88779105D01*
X23852963Y-88688240D01*
X24055416Y-88564176D01*
X24235969Y-88409969D01*
X24390176Y-88229416D01*
X24514240Y-88026963D01*
X24564160Y-87906442D01*
X24608706Y-87851164D01*
X24676070Y-87828742D01*
X24744861Y-87846300D01*
X24769663Y-87865567D01*
X26409453Y-89505357D01*
X26419420Y-89517797D01*
X26419647Y-89517610D01*
X26424699Y-89523717D01*
X26424700Y-89523718D01*
X26450665Y-89548101D01*
X26474366Y-89570357D01*
X26477210Y-89573114D01*
X26496931Y-89592835D01*
X26498528Y-89594074D01*
X26500116Y-89595305D01*
X26509146Y-89603017D01*
X26528553Y-89621242D01*
X26541378Y-89633285D01*
X26541382Y-89633288D01*
X26559130Y-89643045D01*
X26575657Y-89653901D01*
X26591660Y-89666314D01*
X26632239Y-89683874D01*
X26642887Y-89689091D01*
X26681634Y-89710392D01*
X26681636Y-89710393D01*
X26681640Y-89710395D01*
X26701262Y-89715433D01*
X26719963Y-89721835D01*
X26732514Y-89727267D01*
X26738552Y-89729880D01*
X26738553Y-89729880D01*
X26738555Y-89729881D01*
X26782230Y-89736798D01*
X26793841Y-89739202D01*
X26836670Y-89750200D01*
X26856924Y-89750200D01*
X26876634Y-89751751D01*
X26878841Y-89752100D01*
X26896643Y-89754920D01*
X26940661Y-89750758D01*
X26952519Y-89750200D01*
X39670347Y-89750200D01*
X39686188Y-89751949D01*
X39686216Y-89751656D01*
X39694102Y-89752400D01*
X39694109Y-89752402D01*
X39762186Y-89750262D01*
X39766145Y-89750200D01*
X39794051Y-89750200D01*
X39794056Y-89750200D01*
X39798067Y-89749692D01*
X39809899Y-89748761D01*
X39854089Y-89747373D01*
X39873547Y-89741719D01*
X39892894Y-89737713D01*
X39912997Y-89735174D01*
X39954110Y-89718895D01*
X39965330Y-89715053D01*
X39990113Y-89707854D01*
X40007791Y-89702719D01*
X40007795Y-89702717D01*
X40025226Y-89692408D01*
X40042980Y-89683709D01*
X40061817Y-89676252D01*
X40097592Y-89650258D01*
X40107498Y-89643751D01*
X40145562Y-89621242D01*
X40159885Y-89606918D01*
X40174924Y-89594074D01*
X40191307Y-89582172D01*
X40219503Y-89548086D01*
X40227462Y-89539340D01*
X41324801Y-88442002D01*
X41387111Y-88407979D01*
X41413894Y-88405100D01*
X83712542Y-88405100D01*
X83773242Y-88420685D01*
X83788542Y-88429096D01*
X83808158Y-88434132D01*
X83826867Y-88440537D01*
X83845455Y-88448581D01*
X83889130Y-88455498D01*
X83900741Y-88457902D01*
X83943570Y-88468900D01*
X83963824Y-88468900D01*
X83983534Y-88470451D01*
X83985741Y-88470800D01*
X84003543Y-88473620D01*
X84047561Y-88469458D01*
X84059419Y-88468900D01*
X99967247Y-88468900D01*
X99983088Y-88470649D01*
X99983116Y-88470356D01*
X99991002Y-88471100D01*
X99991009Y-88471102D01*
X100059086Y-88468962D01*
X100063045Y-88468900D01*
X100090951Y-88468900D01*
X100090956Y-88468900D01*
X100094967Y-88468392D01*
X100106799Y-88467461D01*
X100150989Y-88466073D01*
X100170447Y-88460419D01*
X100189794Y-88456413D01*
X100209897Y-88453874D01*
X100251010Y-88437595D01*
X100262230Y-88433753D01*
X100287013Y-88426554D01*
X100304691Y-88421419D01*
X100304695Y-88421417D01*
X100322126Y-88411108D01*
X100339880Y-88402409D01*
X100358717Y-88394952D01*
X100394492Y-88368958D01*
X100404398Y-88362451D01*
X100442462Y-88339942D01*
X100456785Y-88325618D01*
X100471824Y-88312774D01*
X100488207Y-88300872D01*
X100516403Y-88266786D01*
X100524372Y-88258030D01*
X102100637Y-86681765D01*
X110159788Y-86681765D01*
X110189412Y-86951014D01*
X110257928Y-87213090D01*
X110363869Y-87462389D01*
X110408923Y-87536211D01*
X110504982Y-87693610D01*
X110678255Y-87901820D01*
X110678257Y-87901822D01*
X110678259Y-87901824D01*
X110821225Y-88029921D01*
X110879998Y-88082582D01*
X111105910Y-88232044D01*
X111351176Y-88347020D01*
X111610569Y-88425060D01*
X111610572Y-88425060D01*
X111610574Y-88425061D01*
X111878557Y-88464500D01*
X111878561Y-88464500D01*
X112081631Y-88464500D01*
X112284156Y-88449677D01*
X112284160Y-88449676D01*
X112284161Y-88449676D01*
X112376547Y-88429096D01*
X112548553Y-88390780D01*
X112801558Y-88294014D01*
X113037777Y-88161441D01*
X113252177Y-87995888D01*
X113440186Y-87800881D01*
X113597799Y-87580579D01*
X113599789Y-87576710D01*
X113721656Y-87339675D01*
X113721657Y-87339672D01*
X113788404Y-87144021D01*
X113809118Y-87083305D01*
X113858319Y-86816933D01*
X113868212Y-86546235D01*
X113847844Y-86361123D01*
X113838587Y-86276985D01*
X113779035Y-86049195D01*
X113770072Y-86014912D01*
X113769684Y-86014000D01*
X113664130Y-85765610D01*
X113613042Y-85681900D01*
X113523018Y-85534390D01*
X113349745Y-85326180D01*
X113349741Y-85326177D01*
X113349740Y-85326175D01*
X113148012Y-85145427D01*
X113148002Y-85145418D01*
X112922090Y-84995956D01*
X112676824Y-84880980D01*
X112519392Y-84833615D01*
X112417425Y-84802938D01*
X112149442Y-84763500D01*
X112149439Y-84763500D01*
X111946369Y-84763500D01*
X111743839Y-84778323D01*
X111743838Y-84778323D01*
X111479456Y-84837217D01*
X111479441Y-84837222D01*
X111226441Y-84933986D01*
X110990229Y-85066555D01*
X110990225Y-85066557D01*
X110775818Y-85232116D01*
X110587815Y-85427117D01*
X110587810Y-85427123D01*
X110430203Y-85647417D01*
X110430196Y-85647427D01*
X110306343Y-85888324D01*
X110306342Y-85888327D01*
X110218883Y-86144689D01*
X110218880Y-86144702D01*
X110169681Y-86411058D01*
X110169680Y-86411069D01*
X110159788Y-86681765D01*
X102100637Y-86681765D01*
X103835819Y-84946584D01*
X103898129Y-84912560D01*
X103968945Y-84917625D01*
X104025780Y-84960172D01*
X104050591Y-85026692D01*
X104050482Y-85046083D01*
X104046844Y-85089998D01*
X104051070Y-85140998D01*
X104051500Y-85151403D01*
X104051500Y-85988649D01*
X104058009Y-86049196D01*
X104058011Y-86049204D01*
X104109110Y-86186202D01*
X104109112Y-86186207D01*
X104196738Y-86303261D01*
X104313792Y-86390887D01*
X104313794Y-86390888D01*
X104313796Y-86390889D01*
X104367871Y-86411058D01*
X104450795Y-86441988D01*
X104450803Y-86441990D01*
X104511350Y-86448499D01*
X104511355Y-86448499D01*
X104511362Y-86448500D01*
X104511368Y-86448500D01*
X108108632Y-86448500D01*
X108108638Y-86448500D01*
X108108645Y-86448499D01*
X108108649Y-86448499D01*
X108169196Y-86441990D01*
X108169199Y-86441989D01*
X108169201Y-86441989D01*
X108306204Y-86390889D01*
X108334435Y-86369756D01*
X108423261Y-86303261D01*
X108510887Y-86186207D01*
X108510887Y-86186206D01*
X108510889Y-86186204D01*
X108561989Y-86049201D01*
X108563124Y-86038649D01*
X108568499Y-85988649D01*
X108568500Y-85988632D01*
X108568500Y-84191367D01*
X108568499Y-84191350D01*
X108561990Y-84130803D01*
X108561988Y-84130795D01*
X108510889Y-83993797D01*
X108510889Y-83993796D01*
X108486600Y-83961350D01*
X108437311Y-83895507D01*
X108412501Y-83828989D01*
X108427592Y-83759615D01*
X108437306Y-83744497D01*
X108510889Y-83646204D01*
X108555448Y-83526738D01*
X108561988Y-83509204D01*
X108561990Y-83509196D01*
X108568499Y-83448649D01*
X108568500Y-83448632D01*
X108568500Y-81651367D01*
X108568499Y-81651350D01*
X108561990Y-81590803D01*
X108561988Y-81590795D01*
X108519661Y-81477315D01*
X108510889Y-81453796D01*
X108510888Y-81453794D01*
X108510887Y-81453792D01*
X108437000Y-81355091D01*
X108412189Y-81288571D01*
X108427280Y-81219197D01*
X108437001Y-81204072D01*
X108510443Y-81105966D01*
X108510444Y-81105964D01*
X108561494Y-80969093D01*
X108567999Y-80908597D01*
X108568000Y-80908585D01*
X108568000Y-80264000D01*
X105853001Y-80264000D01*
X105878682Y-80224040D01*
X105920000Y-80083327D01*
X105920000Y-79936673D01*
X105878682Y-79795960D01*
X105853001Y-79756000D01*
X108568000Y-79756000D01*
X108568000Y-79111414D01*
X108567999Y-79111402D01*
X108561494Y-79050906D01*
X108510444Y-78914035D01*
X108510444Y-78914034D01*
X108437000Y-78815925D01*
X108412189Y-78749405D01*
X108427280Y-78680031D01*
X108436998Y-78664909D01*
X108510889Y-78566204D01*
X108561989Y-78429201D01*
X108561989Y-78429199D01*
X108561990Y-78429196D01*
X108568499Y-78368649D01*
X108568500Y-78368632D01*
X108568500Y-76571367D01*
X108568499Y-76571350D01*
X108561990Y-76510803D01*
X108561988Y-76510795D01*
X108529536Y-76423789D01*
X108510889Y-76373796D01*
X108437311Y-76275507D01*
X108412501Y-76208989D01*
X108427592Y-76139615D01*
X108437306Y-76124497D01*
X108510889Y-76026204D01*
X108561989Y-75889201D01*
X108564656Y-75864400D01*
X108568499Y-75828649D01*
X108568500Y-75828632D01*
X108568500Y-74031367D01*
X108568499Y-74031350D01*
X108561990Y-73970803D01*
X108561988Y-73970795D01*
X108510889Y-73833797D01*
X108510889Y-73833796D01*
X108510886Y-73833792D01*
X108437311Y-73735507D01*
X108412501Y-73668989D01*
X108427592Y-73599615D01*
X108437306Y-73584497D01*
X108510889Y-73486204D01*
X108561989Y-73349201D01*
X108567058Y-73302056D01*
X108568499Y-73288649D01*
X108568500Y-73288632D01*
X108568500Y-71491367D01*
X108568499Y-71491350D01*
X108561990Y-71430803D01*
X108561988Y-71430795D01*
X108522498Y-71324920D01*
X108510889Y-71293796D01*
X108437311Y-71195507D01*
X108412501Y-71128989D01*
X108427592Y-71059615D01*
X108437306Y-71044497D01*
X108510889Y-70946204D01*
X108561989Y-70809201D01*
X108568500Y-70748638D01*
X108568500Y-70548120D01*
X108588502Y-70479999D01*
X108642158Y-70433506D01*
X108655568Y-70428286D01*
X108657175Y-70427764D01*
X108664125Y-70423352D01*
X108685267Y-70412580D01*
X108692917Y-70409552D01*
X108738354Y-70376539D01*
X108744882Y-70372103D01*
X108792318Y-70342000D01*
X108797958Y-70335993D01*
X108815744Y-70320312D01*
X108822407Y-70315472D01*
X108858203Y-70272200D01*
X108863426Y-70266275D01*
X108901886Y-70225321D01*
X108905850Y-70218108D01*
X108919185Y-70198486D01*
X108924433Y-70192144D01*
X108948351Y-70141313D01*
X108951941Y-70134269D01*
X108978995Y-70085060D01*
X108981043Y-70077081D01*
X108989074Y-70054773D01*
X108992583Y-70047318D01*
X109003110Y-69992125D01*
X109004825Y-69984454D01*
X109018800Y-69930030D01*
X109018800Y-69921793D01*
X109021033Y-69898179D01*
X109022574Y-69890100D01*
X109022574Y-69890099D01*
X109022575Y-69890094D01*
X109019048Y-69834047D01*
X109018800Y-69826136D01*
X109018800Y-56249054D01*
X109020549Y-56233212D01*
X109020256Y-56233185D01*
X109021000Y-56225299D01*
X109021002Y-56225292D01*
X109018862Y-56157200D01*
X109018800Y-56153242D01*
X109018800Y-56125350D01*
X109018800Y-56125344D01*
X109018293Y-56121335D01*
X109017362Y-56109506D01*
X109015974Y-56065311D01*
X109010320Y-56045852D01*
X109006312Y-56026497D01*
X109003774Y-56006403D01*
X108987495Y-55965287D01*
X108983656Y-55954072D01*
X108978620Y-55936739D01*
X108971319Y-55911607D01*
X108961003Y-55894164D01*
X108952305Y-55876409D01*
X108944852Y-55857583D01*
X108918863Y-55821812D01*
X108912352Y-55811900D01*
X108889842Y-55773838D01*
X108875514Y-55759510D01*
X108862684Y-55744489D01*
X108850772Y-55728093D01*
X108816707Y-55699912D01*
X108807926Y-55691922D01*
X108702042Y-55586037D01*
X108692079Y-55573602D01*
X108691853Y-55573790D01*
X108686800Y-55567682D01*
X108637147Y-55521055D01*
X108634303Y-55518298D01*
X108614577Y-55498571D01*
X108611606Y-55495952D01*
X108611770Y-55495764D01*
X108611784Y-55495749D01*
X108612722Y-55494685D01*
X108575190Y-55442669D01*
X108568000Y-55400715D01*
X108568000Y-54864000D01*
X105853001Y-54864000D01*
X105878682Y-54824040D01*
X105920000Y-54683327D01*
X105920000Y-54536673D01*
X105878682Y-54395960D01*
X105853001Y-54356000D01*
X108568000Y-54356000D01*
X108568000Y-53711414D01*
X108567999Y-53711402D01*
X108561494Y-53650906D01*
X108510444Y-53514035D01*
X108510444Y-53514034D01*
X108437000Y-53415925D01*
X108412189Y-53349405D01*
X108427280Y-53280031D01*
X108436998Y-53264909D01*
X108510889Y-53166204D01*
X108561989Y-53029201D01*
X108562319Y-53026139D01*
X108568499Y-52968649D01*
X108568500Y-52968632D01*
X108568500Y-51171367D01*
X108568499Y-51171350D01*
X108561990Y-51110803D01*
X108561988Y-51110795D01*
X108529794Y-51024482D01*
X108510889Y-50973796D01*
X108437311Y-50875507D01*
X108412501Y-50808989D01*
X108427592Y-50739615D01*
X108437306Y-50724497D01*
X108510889Y-50626204D01*
X108561989Y-50489201D01*
X108565948Y-50452382D01*
X108568499Y-50428649D01*
X108568500Y-50428632D01*
X108568500Y-48631367D01*
X108568499Y-48631350D01*
X108561990Y-48570803D01*
X108561988Y-48570795D01*
X108516961Y-48450075D01*
X108510889Y-48433796D01*
X108437311Y-48335507D01*
X108412501Y-48268989D01*
X108427592Y-48199615D01*
X108437306Y-48184497D01*
X108510889Y-48086204D01*
X108561989Y-47949201D01*
X108564844Y-47922650D01*
X108568499Y-47888649D01*
X108568500Y-47888632D01*
X108568500Y-46091367D01*
X108568499Y-46091350D01*
X108561990Y-46030803D01*
X108561988Y-46030795D01*
X108528935Y-45942178D01*
X108510889Y-45893796D01*
X108437311Y-45795507D01*
X108412501Y-45728989D01*
X108427592Y-45659615D01*
X108437306Y-45644497D01*
X108510889Y-45546204D01*
X108561989Y-45409201D01*
X108562153Y-45407682D01*
X108568499Y-45348649D01*
X108568500Y-45348632D01*
X108568500Y-43551367D01*
X108568499Y-43551350D01*
X108561990Y-43490803D01*
X108561988Y-43490795D01*
X108510889Y-43353797D01*
X108510887Y-43353792D01*
X108437000Y-43255091D01*
X108412189Y-43188571D01*
X108427280Y-43119197D01*
X108437001Y-43104072D01*
X108510443Y-43005966D01*
X108510444Y-43005964D01*
X108561494Y-42869093D01*
X108567999Y-42808597D01*
X108568000Y-42808585D01*
X108568000Y-42164000D01*
X105853001Y-42164000D01*
X105878682Y-42124040D01*
X105920000Y-41983327D01*
X105920000Y-41836673D01*
X105878682Y-41695960D01*
X105853001Y-41656000D01*
X108568000Y-41656000D01*
X108568000Y-41011414D01*
X108567999Y-41011402D01*
X108561494Y-40950906D01*
X108510444Y-40814035D01*
X108510444Y-40814034D01*
X108437000Y-40715925D01*
X108412189Y-40649405D01*
X108427280Y-40580031D01*
X108436998Y-40564909D01*
X108510889Y-40466204D01*
X108561989Y-40329201D01*
X108562164Y-40327582D01*
X108568499Y-40268649D01*
X108568500Y-40268632D01*
X108568500Y-39183765D01*
X110159788Y-39183765D01*
X110189412Y-39453014D01*
X110257928Y-39715090D01*
X110363869Y-39964389D01*
X110393842Y-40013501D01*
X110504982Y-40195610D01*
X110678255Y-40403820D01*
X110678257Y-40403822D01*
X110678259Y-40403824D01*
X110828117Y-40538097D01*
X110879998Y-40584582D01*
X111105910Y-40734044D01*
X111351176Y-40849020D01*
X111610569Y-40927060D01*
X111610572Y-40927060D01*
X111610574Y-40927061D01*
X111878557Y-40966500D01*
X111878561Y-40966500D01*
X112081631Y-40966500D01*
X112284156Y-40951677D01*
X112284160Y-40951676D01*
X112284161Y-40951676D01*
X112406036Y-40924527D01*
X112548553Y-40892780D01*
X112801558Y-40796014D01*
X113037777Y-40663441D01*
X113252177Y-40497888D01*
X113440186Y-40302881D01*
X113597799Y-40082579D01*
X113598561Y-40081098D01*
X113721656Y-39841675D01*
X113721657Y-39841672D01*
X113753987Y-39746906D01*
X113809118Y-39585305D01*
X113844966Y-39391225D01*
X113858318Y-39318941D01*
X113858319Y-39318930D01*
X113859657Y-39282313D01*
X113868212Y-39048235D01*
X113852482Y-38905270D01*
X113838587Y-38778985D01*
X113778616Y-38549595D01*
X113770072Y-38516912D01*
X113761782Y-38497405D01*
X113664130Y-38267610D01*
X113636731Y-38222715D01*
X113523018Y-38036390D01*
X113349745Y-37828180D01*
X113349741Y-37828177D01*
X113349740Y-37828175D01*
X113148012Y-37647427D01*
X113148002Y-37647418D01*
X112922090Y-37497956D01*
X112676824Y-37382980D01*
X112519392Y-37335615D01*
X112417425Y-37304938D01*
X112149442Y-37265500D01*
X112149439Y-37265500D01*
X111946369Y-37265500D01*
X111743839Y-37280323D01*
X111743838Y-37280323D01*
X111479456Y-37339217D01*
X111479441Y-37339222D01*
X111226441Y-37435986D01*
X110990229Y-37568555D01*
X110990225Y-37568557D01*
X110873698Y-37658536D01*
X110818502Y-37701157D01*
X110775818Y-37734116D01*
X110587815Y-37929117D01*
X110587810Y-37929123D01*
X110430203Y-38149417D01*
X110430196Y-38149427D01*
X110306343Y-38390324D01*
X110306342Y-38390327D01*
X110218883Y-38646689D01*
X110218880Y-38646702D01*
X110169681Y-38913058D01*
X110169680Y-38913069D01*
X110159788Y-39183765D01*
X108568500Y-39183765D01*
X108568500Y-38471367D01*
X108568499Y-38471350D01*
X108561990Y-38410803D01*
X108561988Y-38410795D01*
X108523779Y-38308355D01*
X108510889Y-38273796D01*
X108437311Y-38175507D01*
X108412501Y-38108989D01*
X108427592Y-38039615D01*
X108437306Y-38024497D01*
X108510889Y-37926204D01*
X108561989Y-37789201D01*
X108564947Y-37761693D01*
X108568499Y-37728649D01*
X108568500Y-37728632D01*
X108568500Y-35931367D01*
X108568499Y-35931350D01*
X108561990Y-35870803D01*
X108561988Y-35870795D01*
X108509672Y-35730533D01*
X108504606Y-35659718D01*
X108538631Y-35597405D01*
X108600943Y-35563380D01*
X108627727Y-35560500D01*
X114295045Y-35560500D01*
X114304929Y-35560888D01*
X114308913Y-35561201D01*
X114356516Y-35564948D01*
X114357447Y-35565026D01*
X114497423Y-35577273D01*
X114515854Y-35580274D01*
X114539397Y-35585926D01*
X114594434Y-35599139D01*
X114597537Y-35599927D01*
X114702681Y-35628100D01*
X114718265Y-35633390D01*
X114798446Y-35666602D01*
X114803413Y-35668787D01*
X114896686Y-35712282D01*
X114909237Y-35719026D01*
X114985121Y-35765528D01*
X114991505Y-35769713D01*
X115074082Y-35827534D01*
X115083630Y-35834928D01*
X115151919Y-35893252D01*
X115159184Y-35899968D01*
X115230030Y-35970814D01*
X115236746Y-35978079D01*
X115295070Y-36046368D01*
X115302469Y-36055923D01*
X115360275Y-36138479D01*
X115364481Y-36144894D01*
X115405313Y-36211525D01*
X115410963Y-36220744D01*
X115417726Y-36233330D01*
X115461200Y-36326561D01*
X115463414Y-36331593D01*
X115496603Y-36411719D01*
X115501901Y-36427326D01*
X115530057Y-36532406D01*
X115530869Y-36535604D01*
X115549724Y-36614144D01*
X115552725Y-36632574D01*
X115564981Y-36772647D01*
X115565072Y-36773743D01*
X115569111Y-36825057D01*
X115569500Y-36834944D01*
X115569500Y-88895055D01*
X115569111Y-88904942D01*
X115565072Y-88956255D01*
X115564981Y-88957351D01*
X115552725Y-89097424D01*
X115549724Y-89115854D01*
X115530869Y-89194394D01*
X115530057Y-89197592D01*
X115501901Y-89302672D01*
X115496603Y-89318279D01*
X115463414Y-89398405D01*
X115461200Y-89403437D01*
X115417726Y-89496668D01*
X115410963Y-89509254D01*
X115364482Y-89585103D01*
X115360263Y-89591538D01*
X115302472Y-89674071D01*
X115295070Y-89683630D01*
X115236746Y-89751919D01*
X115230030Y-89759184D01*
X115159184Y-89830030D01*
X115151919Y-89836746D01*
X115083630Y-89895070D01*
X115074071Y-89902472D01*
X114991538Y-89960263D01*
X114985103Y-89964482D01*
X114909254Y-90010963D01*
X114896668Y-90017726D01*
X114803437Y-90061200D01*
X114798405Y-90063414D01*
X114718279Y-90096603D01*
X114702672Y-90101901D01*
X114597592Y-90130057D01*
X114594394Y-90130869D01*
X114515854Y-90149724D01*
X114497424Y-90152725D01*
X114357351Y-90164981D01*
X114356255Y-90165072D01*
X114304942Y-90169111D01*
X114295055Y-90169500D01*
X15244945Y-90169500D01*
X15235082Y-90169112D01*
X15183626Y-90165063D01*
X15182647Y-90164981D01*
X15042574Y-90152725D01*
X15024144Y-90149724D01*
X14945604Y-90130869D01*
X14942406Y-90130057D01*
X14837326Y-90101901D01*
X14821719Y-90096603D01*
X14741593Y-90063414D01*
X14736561Y-90061200D01*
X14678426Y-90034091D01*
X14643326Y-90017723D01*
X14630749Y-90010966D01*
X14554894Y-89964481D01*
X14548479Y-89960275D01*
X14465923Y-89902469D01*
X14456368Y-89895070D01*
X14388079Y-89836746D01*
X14380814Y-89830030D01*
X14309968Y-89759184D01*
X14303252Y-89751919D01*
X14244928Y-89683630D01*
X14237534Y-89674082D01*
X14179713Y-89591505D01*
X14175528Y-89585121D01*
X14129026Y-89509237D01*
X14122282Y-89496686D01*
X14078787Y-89403413D01*
X14076602Y-89398446D01*
X14043390Y-89318265D01*
X14038100Y-89302681D01*
X14009927Y-89197537D01*
X14009139Y-89194434D01*
X13990274Y-89115854D01*
X13987273Y-89097423D01*
X13975026Y-88957447D01*
X13974948Y-88956516D01*
X13970888Y-88904929D01*
X13970500Y-88895045D01*
X13970500Y-86681765D01*
X15671788Y-86681765D01*
X15701412Y-86951014D01*
X15769928Y-87213090D01*
X15875869Y-87462389D01*
X15920923Y-87536211D01*
X16016982Y-87693610D01*
X16190255Y-87901820D01*
X16190257Y-87901822D01*
X16190259Y-87901824D01*
X16333225Y-88029921D01*
X16391998Y-88082582D01*
X16617910Y-88232044D01*
X16863176Y-88347020D01*
X17122569Y-88425060D01*
X17122572Y-88425060D01*
X17122574Y-88425061D01*
X17390557Y-88464500D01*
X17390561Y-88464500D01*
X17593631Y-88464500D01*
X17796156Y-88449677D01*
X17796160Y-88449676D01*
X17796161Y-88449676D01*
X17888547Y-88429096D01*
X18060553Y-88390780D01*
X18313558Y-88294014D01*
X18549777Y-88161441D01*
X18764177Y-87995888D01*
X18952186Y-87800881D01*
X19109799Y-87580579D01*
X19111789Y-87576710D01*
X19233656Y-87339675D01*
X19233657Y-87339672D01*
X19300404Y-87144021D01*
X19321118Y-87083305D01*
X19370319Y-86816933D01*
X19380212Y-86546235D01*
X19359844Y-86361123D01*
X19350587Y-86276985D01*
X19291035Y-86049195D01*
X19282072Y-86014912D01*
X19281684Y-86014000D01*
X19176130Y-85765610D01*
X19125042Y-85681900D01*
X19035018Y-85534390D01*
X18861745Y-85326180D01*
X18861741Y-85326177D01*
X18861740Y-85326175D01*
X18660012Y-85145427D01*
X18660002Y-85145418D01*
X18434090Y-84995956D01*
X18188824Y-84880980D01*
X18031392Y-84833615D01*
X17929425Y-84802938D01*
X17661442Y-84763500D01*
X17661439Y-84763500D01*
X17458369Y-84763500D01*
X17255839Y-84778323D01*
X17255838Y-84778323D01*
X16991456Y-84837217D01*
X16991441Y-84837222D01*
X16738441Y-84933986D01*
X16502229Y-85066555D01*
X16502225Y-85066557D01*
X16287818Y-85232116D01*
X16099815Y-85427117D01*
X16099810Y-85427123D01*
X15942203Y-85647417D01*
X15942196Y-85647427D01*
X15818343Y-85888324D01*
X15818342Y-85888327D01*
X15730883Y-86144689D01*
X15730880Y-86144702D01*
X15681681Y-86411058D01*
X15681680Y-86411069D01*
X15671788Y-86681765D01*
X13970500Y-86681765D01*
X13970500Y-39183765D01*
X15671788Y-39183765D01*
X15701412Y-39453014D01*
X15769928Y-39715090D01*
X15875869Y-39964389D01*
X15905842Y-40013501D01*
X16016982Y-40195610D01*
X16190255Y-40403820D01*
X16190257Y-40403822D01*
X16190259Y-40403824D01*
X16340117Y-40538097D01*
X16391998Y-40584582D01*
X16617910Y-40734044D01*
X16863176Y-40849020D01*
X17122569Y-40927060D01*
X17122572Y-40927060D01*
X17122574Y-40927061D01*
X17390557Y-40966500D01*
X17390561Y-40966500D01*
X17593631Y-40966500D01*
X17796156Y-40951677D01*
X17796160Y-40951676D01*
X17796161Y-40951676D01*
X17918036Y-40924527D01*
X18060553Y-40892780D01*
X18313558Y-40796014D01*
X18549777Y-40663441D01*
X18764177Y-40497888D01*
X18952186Y-40302881D01*
X19109799Y-40082579D01*
X19110561Y-40081098D01*
X19233656Y-39841675D01*
X19233657Y-39841672D01*
X19265987Y-39746906D01*
X19321118Y-39585305D01*
X19356966Y-39391225D01*
X19370318Y-39318941D01*
X19370319Y-39318930D01*
X19371657Y-39282313D01*
X19380212Y-39048235D01*
X19364482Y-38905270D01*
X19350587Y-38778985D01*
X19290616Y-38549595D01*
X19282072Y-38516912D01*
X19273782Y-38497405D01*
X19176130Y-38267610D01*
X19148731Y-38222715D01*
X19035018Y-38036390D01*
X18861745Y-37828180D01*
X18861741Y-37828177D01*
X18861740Y-37828175D01*
X18660012Y-37647427D01*
X18660002Y-37647418D01*
X18434090Y-37497956D01*
X18188824Y-37382980D01*
X18031392Y-37335615D01*
X17929425Y-37304938D01*
X17661442Y-37265500D01*
X17661439Y-37265500D01*
X17458369Y-37265500D01*
X17255839Y-37280323D01*
X17255838Y-37280323D01*
X16991456Y-37339217D01*
X16991441Y-37339222D01*
X16738441Y-37435986D01*
X16502229Y-37568555D01*
X16502225Y-37568557D01*
X16385698Y-37658536D01*
X16330502Y-37701157D01*
X16287818Y-37734116D01*
X16099815Y-37929117D01*
X16099810Y-37929123D01*
X15942203Y-38149417D01*
X15942196Y-38149427D01*
X15818343Y-38390324D01*
X15818342Y-38390327D01*
X15730883Y-38646689D01*
X15730880Y-38646702D01*
X15681681Y-38913058D01*
X15681680Y-38913069D01*
X15671788Y-39183765D01*
X13970500Y-39183765D01*
X13970500Y-36834954D01*
X13970888Y-36825070D01*
X13971891Y-36812327D01*
X13974950Y-36773450D01*
X13975026Y-36772551D01*
X13987273Y-36632575D01*
X13990274Y-36614144D01*
X14009148Y-36535527D01*
X14009917Y-36532498D01*
X14038102Y-36427309D01*
X14043386Y-36411743D01*
X14076616Y-36331519D01*
X14078772Y-36326620D01*
X14122289Y-36233298D01*
X14129017Y-36220776D01*
X14175547Y-36144847D01*
X14179693Y-36138523D01*
X14237549Y-36055896D01*
X14244919Y-36046378D01*
X14303265Y-35978064D01*
X14309943Y-35970840D01*
X14380840Y-35899943D01*
X14388064Y-35893265D01*
X14456378Y-35834919D01*
X14465896Y-35827549D01*
X14548523Y-35769693D01*
X14554847Y-35765547D01*
X14630776Y-35719017D01*
X14643298Y-35712289D01*
X14736620Y-35668772D01*
X14741519Y-35666616D01*
X14821743Y-35633386D01*
X14837309Y-35628102D01*
X14942498Y-35599917D01*
X14945527Y-35599148D01*
X15024147Y-35580273D01*
X15042575Y-35577273D01*
X15164390Y-35566614D01*
X15182578Y-35565023D01*
X15183419Y-35564953D01*
X15235070Y-35560887D01*
X15244954Y-35560500D01*
X84412273Y-35560500D01*
X84480394Y-35580502D01*
G37*
%TD.AperFunction*%
%TA.AperFunction,Conductor*%
G36*
X67156833Y-70551037D02*
G01*
X67213668Y-70593584D01*
X67238479Y-70660104D01*
X67238800Y-70669093D01*
X67238800Y-74682305D01*
X67218798Y-74750426D01*
X67201895Y-74771400D01*
X66624800Y-75348495D01*
X66562488Y-75382521D01*
X66535705Y-75385400D01*
X66479813Y-75385400D01*
X66293011Y-75425106D01*
X66118547Y-75502782D01*
X65964044Y-75615035D01*
X65836265Y-75756948D01*
X65836258Y-75756958D01*
X65740776Y-75922338D01*
X65740773Y-75922345D01*
X65681757Y-76103972D01*
X65663523Y-76277470D01*
X65636510Y-76343127D01*
X65578289Y-76383757D01*
X65538213Y-76390300D01*
X61202249Y-76390300D01*
X61186410Y-76388551D01*
X61186383Y-76388845D01*
X61178491Y-76388099D01*
X61110433Y-76390238D01*
X61106475Y-76390300D01*
X61078544Y-76390300D01*
X61076357Y-76390576D01*
X61074511Y-76390809D01*
X61062704Y-76391737D01*
X61018510Y-76393126D01*
X61018505Y-76393127D01*
X60999060Y-76398777D01*
X60979702Y-76402786D01*
X60959610Y-76405324D01*
X60959603Y-76405326D01*
X60918496Y-76421601D01*
X60907271Y-76425444D01*
X60879318Y-76433566D01*
X60864807Y-76437782D01*
X60864805Y-76437782D01*
X60864802Y-76437784D01*
X60847363Y-76448097D01*
X60829618Y-76456790D01*
X60810779Y-76464249D01*
X60775027Y-76490226D01*
X60765104Y-76496744D01*
X60727040Y-76519254D01*
X60712707Y-76533587D01*
X60697681Y-76546420D01*
X60681295Y-76558325D01*
X60653111Y-76592393D01*
X60645123Y-76601170D01*
X60304836Y-76941457D01*
X60292401Y-76951421D01*
X60292589Y-76951648D01*
X60286479Y-76956702D01*
X60239870Y-77006335D01*
X60237120Y-77009173D01*
X60217363Y-77028931D01*
X60214874Y-77032139D01*
X60207188Y-77041136D01*
X60176918Y-77073373D01*
X60176911Y-77073383D01*
X60167151Y-77091135D01*
X60156303Y-77107650D01*
X60143886Y-77123658D01*
X60126324Y-77164240D01*
X60121104Y-77174895D01*
X60099805Y-77213639D01*
X60099803Y-77213644D01*
X60094767Y-77233259D01*
X60088364Y-77251962D01*
X60080319Y-77270552D01*
X60073401Y-77314225D01*
X60070995Y-77325842D01*
X60060000Y-77368668D01*
X60060000Y-77388923D01*
X60058449Y-77408633D01*
X60055280Y-77428642D01*
X60055031Y-77436567D01*
X60051696Y-77436462D01*
X60041030Y-77491213D01*
X60018248Y-77522346D01*
X53121000Y-84419595D01*
X53058688Y-84453621D01*
X53031905Y-84456500D01*
X51120762Y-84456500D01*
X51052641Y-84436498D01*
X51015279Y-84399415D01*
X50899314Y-84221916D01*
X50741225Y-84050186D01*
X50741221Y-84050182D01*
X50627089Y-83961350D01*
X50557017Y-83906810D01*
X50351727Y-83795713D01*
X50351724Y-83795712D01*
X50351723Y-83795711D01*
X50130955Y-83719921D01*
X50130948Y-83719919D01*
X50030645Y-83703182D01*
X49900712Y-83681500D01*
X49667288Y-83681500D01*
X49570003Y-83697734D01*
X49437051Y-83719919D01*
X49437044Y-83719921D01*
X49216276Y-83795711D01*
X49216273Y-83795713D01*
X49022091Y-83900799D01*
X49010985Y-83906809D01*
X49010983Y-83906810D01*
X48826778Y-84050182D01*
X48822946Y-84053711D01*
X48821581Y-84052228D01*
X48768129Y-84084333D01*
X48697165Y-84082180D01*
X48638630Y-84042003D01*
X48618258Y-84006449D01*
X48599947Y-83957358D01*
X48594889Y-83943796D01*
X48594888Y-83943794D01*
X48594887Y-83943792D01*
X48507261Y-83826738D01*
X48390207Y-83739112D01*
X48390202Y-83739110D01*
X48253204Y-83688011D01*
X48253196Y-83688009D01*
X48192649Y-83681500D01*
X48192638Y-83681500D01*
X48003500Y-83681500D01*
X47935379Y-83661498D01*
X47888886Y-83607842D01*
X47877500Y-83555500D01*
X47877500Y-83499594D01*
X47897502Y-83431473D01*
X47914405Y-83410499D01*
X49374500Y-81950405D01*
X49436812Y-81916379D01*
X49463595Y-81913500D01*
X53300206Y-81913500D01*
X53323816Y-81915731D01*
X53331906Y-81917275D01*
X53387952Y-81913748D01*
X53395862Y-81913500D01*
X53411855Y-81913500D01*
X53411856Y-81913500D01*
X53427729Y-81911494D01*
X53435572Y-81910752D01*
X53491650Y-81907225D01*
X53499481Y-81904679D01*
X53522631Y-81899505D01*
X53530797Y-81898474D01*
X53583028Y-81877793D01*
X53590426Y-81875130D01*
X53643875Y-81857764D01*
X53650825Y-81853352D01*
X53671967Y-81842580D01*
X53679617Y-81839552D01*
X53725054Y-81806539D01*
X53731582Y-81802103D01*
X53779018Y-81772000D01*
X53784658Y-81765993D01*
X53802444Y-81750312D01*
X53809107Y-81745472D01*
X53844903Y-81702200D01*
X53850126Y-81696275D01*
X53888586Y-81655321D01*
X53892550Y-81648108D01*
X53905885Y-81628486D01*
X53911133Y-81622144D01*
X53935051Y-81571313D01*
X53938641Y-81564269D01*
X53965694Y-81515061D01*
X53965695Y-81515060D01*
X53967743Y-81507081D01*
X53975774Y-81484773D01*
X53979283Y-81477318D01*
X53989810Y-81422125D01*
X53991525Y-81414454D01*
X54005500Y-81360030D01*
X54005500Y-81351793D01*
X54007733Y-81328179D01*
X54009274Y-81320100D01*
X54009274Y-81320099D01*
X54009275Y-81320094D01*
X54005748Y-81264047D01*
X54005500Y-81256136D01*
X54005500Y-80850855D01*
X54007249Y-80835014D01*
X54006956Y-80834987D01*
X54007701Y-80827094D01*
X54007702Y-80827091D01*
X54005562Y-80759013D01*
X54005500Y-80755054D01*
X54005500Y-80727149D01*
X54005500Y-80727144D01*
X54004992Y-80723130D01*
X54004061Y-80711297D01*
X54002673Y-80667110D01*
X53997022Y-80647663D01*
X53993012Y-80628300D01*
X53990474Y-80608203D01*
X53974195Y-80567090D01*
X53970353Y-80555869D01*
X53958018Y-80513407D01*
X53947705Y-80495969D01*
X53939010Y-80478222D01*
X53931552Y-80459383D01*
X53905568Y-80423620D01*
X53899050Y-80413698D01*
X53888380Y-80395655D01*
X53871525Y-80344688D01*
X53867831Y-80309544D01*
X53852542Y-80164072D01*
X53793527Y-79982444D01*
X53698040Y-79817056D01*
X53698038Y-79817054D01*
X53698034Y-79817048D01*
X53570255Y-79675135D01*
X53415752Y-79562882D01*
X53241288Y-79485206D01*
X53054487Y-79445500D01*
X52863513Y-79445500D01*
X52676711Y-79485206D01*
X52502247Y-79562882D01*
X52347744Y-79675135D01*
X52219965Y-79817048D01*
X52219958Y-79817058D01*
X52124476Y-79982438D01*
X52124473Y-79982445D01*
X52065457Y-80164072D01*
X52045496Y-80354000D01*
X52061611Y-80507330D01*
X52048839Y-80577168D01*
X52000336Y-80629015D01*
X51936301Y-80646500D01*
X49232853Y-80646500D01*
X49217011Y-80644750D01*
X49216984Y-80645044D01*
X49209091Y-80644297D01*
X49141001Y-80646438D01*
X49137043Y-80646500D01*
X49109144Y-80646500D01*
X49109138Y-80646500D01*
X49109132Y-80646501D01*
X49105133Y-80647006D01*
X49093313Y-80647936D01*
X49049114Y-80649325D01*
X49049107Y-80649327D01*
X49029649Y-80654979D01*
X49010304Y-80658985D01*
X48990206Y-80661525D01*
X48990198Y-80661527D01*
X48949090Y-80677802D01*
X48937866Y-80681645D01*
X48895409Y-80693981D01*
X48895407Y-80693981D01*
X48895407Y-80693982D01*
X48877964Y-80704297D01*
X48860218Y-80712990D01*
X48841382Y-80720448D01*
X48805610Y-80746437D01*
X48795694Y-80752951D01*
X48757637Y-80775458D01*
X48743311Y-80789784D01*
X48728285Y-80802617D01*
X48711895Y-80814525D01*
X48711893Y-80814527D01*
X48683700Y-80848605D01*
X48675713Y-80857381D01*
X46855336Y-82677757D01*
X46842901Y-82687721D01*
X46843089Y-82687948D01*
X46836979Y-82693002D01*
X46790370Y-82742635D01*
X46787620Y-82745473D01*
X46767863Y-82765231D01*
X46765374Y-82768439D01*
X46757688Y-82777436D01*
X46727418Y-82809673D01*
X46727411Y-82809683D01*
X46717651Y-82827435D01*
X46706803Y-82843950D01*
X46694386Y-82859958D01*
X46676824Y-82900540D01*
X46671604Y-82911195D01*
X46650305Y-82949939D01*
X46650303Y-82949944D01*
X46645267Y-82969559D01*
X46638864Y-82988262D01*
X46630819Y-83006852D01*
X46623901Y-83050525D01*
X46621495Y-83062142D01*
X46610500Y-83104968D01*
X46610500Y-83125223D01*
X46608949Y-83144933D01*
X46605780Y-83164942D01*
X46609941Y-83208961D01*
X46610500Y-83220819D01*
X46610500Y-83555500D01*
X46590498Y-83623621D01*
X46536842Y-83670114D01*
X46484500Y-83681500D01*
X46295350Y-83681500D01*
X46234803Y-83688009D01*
X46234795Y-83688011D01*
X46097797Y-83739110D01*
X46097792Y-83739112D01*
X45980738Y-83826738D01*
X45893112Y-83943792D01*
X45893110Y-83943797D01*
X45842011Y-84080795D01*
X45842009Y-84080803D01*
X45835500Y-84141350D01*
X45835500Y-85555900D01*
X45815498Y-85624021D01*
X45761842Y-85670514D01*
X45709500Y-85681900D01*
X38872995Y-85681900D01*
X38804874Y-85661898D01*
X38783900Y-85644995D01*
X38724022Y-85585117D01*
X38689996Y-85522805D01*
X38690972Y-85465092D01*
X38727051Y-85322626D01*
X38746327Y-85090000D01*
X38727051Y-84857374D01*
X38713487Y-84803811D01*
X38669750Y-84631096D01*
X38669747Y-84631089D01*
X38632617Y-84546442D01*
X38575984Y-84417331D01*
X38489715Y-84285286D01*
X38448314Y-84221916D01*
X38290225Y-84050186D01*
X38290221Y-84050182D01*
X38176089Y-83961350D01*
X38106017Y-83906810D01*
X37900727Y-83795713D01*
X37900724Y-83795712D01*
X37900723Y-83795711D01*
X37679955Y-83719921D01*
X37679948Y-83719919D01*
X37579645Y-83703182D01*
X37449712Y-83681500D01*
X37216288Y-83681500D01*
X37119003Y-83697734D01*
X36986051Y-83719919D01*
X36986044Y-83719921D01*
X36765276Y-83795711D01*
X36765273Y-83795713D01*
X36571091Y-83900799D01*
X36559985Y-83906809D01*
X36559983Y-83906810D01*
X36375778Y-84050182D01*
X36371946Y-84053711D01*
X36370581Y-84052228D01*
X36317129Y-84084333D01*
X36246165Y-84082180D01*
X36187630Y-84042003D01*
X36167258Y-84006449D01*
X36148947Y-83957358D01*
X36143889Y-83943796D01*
X36143888Y-83943794D01*
X36143887Y-83943792D01*
X36056261Y-83826738D01*
X35939207Y-83739112D01*
X35939202Y-83739110D01*
X35802204Y-83688011D01*
X35802196Y-83688009D01*
X35741649Y-83681500D01*
X35741638Y-83681500D01*
X33844362Y-83681500D01*
X33844350Y-83681500D01*
X33783803Y-83688009D01*
X33783795Y-83688011D01*
X33646797Y-83739110D01*
X33646792Y-83739112D01*
X33529738Y-83826738D01*
X33442112Y-83943792D01*
X33442110Y-83943797D01*
X33391011Y-84080795D01*
X33391009Y-84080803D01*
X33384500Y-84141350D01*
X33384500Y-86038649D01*
X33390885Y-86098032D01*
X33378279Y-86167900D01*
X33329901Y-86219862D01*
X33265607Y-86237500D01*
X30744364Y-86237500D01*
X30676243Y-86217498D01*
X30662534Y-86207311D01*
X30555419Y-86115826D01*
X30555417Y-86115825D01*
X30555416Y-86115824D01*
X30352963Y-85991760D01*
X30345453Y-85988649D01*
X30133592Y-85900894D01*
X29975651Y-85862976D01*
X29902711Y-85845465D01*
X29666000Y-85826835D01*
X29429289Y-85845465D01*
X29198407Y-85900894D01*
X28979038Y-85991759D01*
X28776582Y-86115825D01*
X28776580Y-86115826D01*
X28596030Y-86270030D01*
X28441826Y-86450580D01*
X28441825Y-86450582D01*
X28317759Y-86653038D01*
X28226894Y-86872407D01*
X28171465Y-87103289D01*
X28152835Y-87340000D01*
X28171465Y-87576711D01*
X28225284Y-87800881D01*
X28226895Y-87807593D01*
X28226895Y-87807595D01*
X28248015Y-87858583D01*
X28255604Y-87929173D01*
X28223824Y-87992659D01*
X28162766Y-88028886D01*
X28131606Y-88032800D01*
X27417794Y-88032800D01*
X27349673Y-88012798D01*
X27328699Y-87995895D01*
X23751219Y-84418414D01*
X23717193Y-84356102D01*
X23722258Y-84285286D01*
X23764805Y-84228451D01*
X23792096Y-84212910D01*
X23852738Y-84187791D01*
X24039890Y-84073102D01*
X24039891Y-84073101D01*
X23333624Y-83366834D01*
X23454458Y-83314349D01*
X23571739Y-83218934D01*
X23658928Y-83095415D01*
X23690838Y-83005627D01*
X24399102Y-83713891D01*
X24399102Y-83713890D01*
X24513791Y-83526738D01*
X24604628Y-83307437D01*
X24660039Y-83076632D01*
X24678662Y-82840000D01*
X28153337Y-82840000D01*
X28171960Y-83076632D01*
X28227371Y-83307437D01*
X28318208Y-83526738D01*
X28432896Y-83713890D01*
X28432897Y-83713890D01*
X29139096Y-83007690D01*
X29142884Y-83025915D01*
X29212442Y-83160156D01*
X29315638Y-83270652D01*
X29444819Y-83349209D01*
X29500420Y-83364787D01*
X28792107Y-84073101D01*
X28792108Y-84073102D01*
X28979261Y-84187791D01*
X29198562Y-84278628D01*
X29429367Y-84334039D01*
X29666000Y-84352662D01*
X29902632Y-84334039D01*
X30133437Y-84278628D01*
X30352738Y-84187791D01*
X30539890Y-84073102D01*
X30539891Y-84073102D01*
X29833624Y-83366834D01*
X29954458Y-83314349D01*
X30071739Y-83218934D01*
X30158928Y-83095415D01*
X30190838Y-83005627D01*
X30899102Y-83713891D01*
X30899102Y-83713890D01*
X31013791Y-83526738D01*
X31104628Y-83307437D01*
X31160039Y-83076632D01*
X31178662Y-82840000D01*
X31160039Y-82603367D01*
X31104628Y-82372562D01*
X31013791Y-82153261D01*
X30899102Y-81966108D01*
X30899101Y-81966107D01*
X30192902Y-82672306D01*
X30189116Y-82654085D01*
X30119558Y-82519844D01*
X30016362Y-82409348D01*
X29887181Y-82330791D01*
X29831577Y-82315211D01*
X30539890Y-81606897D01*
X30539890Y-81606896D01*
X30352738Y-81492208D01*
X30133437Y-81401371D01*
X29902632Y-81345960D01*
X29666000Y-81327337D01*
X29429367Y-81345960D01*
X29198562Y-81401371D01*
X28979266Y-81492206D01*
X28792108Y-81606897D01*
X28792108Y-81606898D01*
X29498375Y-82313165D01*
X29377542Y-82365651D01*
X29260261Y-82461066D01*
X29173072Y-82584585D01*
X29141161Y-82674371D01*
X28432898Y-81966108D01*
X28432897Y-81966108D01*
X28318206Y-82153266D01*
X28227371Y-82372562D01*
X28171960Y-82603367D01*
X28153337Y-82840000D01*
X24678662Y-82840000D01*
X24660039Y-82603367D01*
X24604628Y-82372562D01*
X24513791Y-82153261D01*
X24399102Y-81966108D01*
X24399101Y-81966107D01*
X23692902Y-82672306D01*
X23689116Y-82654085D01*
X23619558Y-82519844D01*
X23516362Y-82409348D01*
X23387181Y-82330791D01*
X23331577Y-82315211D01*
X24039890Y-81606897D01*
X24039890Y-81606896D01*
X23852738Y-81492208D01*
X23633437Y-81401371D01*
X23402632Y-81345960D01*
X23168116Y-81327504D01*
X23101775Y-81302219D01*
X23059635Y-81245081D01*
X23055076Y-81174231D01*
X23088905Y-81112799D01*
X23476901Y-80724804D01*
X23539213Y-80690779D01*
X23565996Y-80687900D01*
X33914800Y-80687900D01*
X33982921Y-80707902D01*
X34008437Y-80729590D01*
X34011747Y-80733266D01*
X34166248Y-80845518D01*
X34340712Y-80923194D01*
X34527513Y-80962900D01*
X34718487Y-80962900D01*
X34905288Y-80923194D01*
X35079752Y-80845518D01*
X35234253Y-80733266D01*
X35243363Y-80723148D01*
X35362034Y-80591351D01*
X35362035Y-80591349D01*
X35362040Y-80591344D01*
X35457527Y-80425956D01*
X35516542Y-80244328D01*
X35536504Y-80054400D01*
X35533964Y-80030237D01*
X35546736Y-79960401D01*
X35595237Y-79908554D01*
X35664070Y-79891159D01*
X35731380Y-79913740D01*
X35748369Y-79927973D01*
X36322577Y-80502181D01*
X36356603Y-80564493D01*
X36358792Y-80578105D01*
X36376157Y-80743327D01*
X36403374Y-80827091D01*
X36435173Y-80924956D01*
X36435176Y-80924961D01*
X36530658Y-81090341D01*
X36530665Y-81090351D01*
X36658444Y-81232264D01*
X36658447Y-81232266D01*
X36812948Y-81344518D01*
X36987412Y-81422194D01*
X37174213Y-81461900D01*
X37365187Y-81461900D01*
X37551988Y-81422194D01*
X37726452Y-81344518D01*
X37880953Y-81232266D01*
X37891551Y-81220496D01*
X38008734Y-81090351D01*
X38008735Y-81090349D01*
X38008740Y-81090344D01*
X38104227Y-80924956D01*
X38163242Y-80743328D01*
X38183204Y-80553400D01*
X38163242Y-80363472D01*
X38104227Y-80181844D01*
X38008740Y-80016456D01*
X38008738Y-80016454D01*
X38008734Y-80016448D01*
X37880955Y-79874535D01*
X37726452Y-79762282D01*
X37551988Y-79684606D01*
X37365187Y-79644900D01*
X37309295Y-79644900D01*
X37241174Y-79624898D01*
X37220200Y-79607995D01*
X36035300Y-78423095D01*
X36001274Y-78360783D01*
X36006339Y-78289968D01*
X36048886Y-78233132D01*
X36115406Y-78208321D01*
X36124395Y-78208000D01*
X40538347Y-78208000D01*
X40554188Y-78209749D01*
X40554216Y-78209456D01*
X40562102Y-78210200D01*
X40562109Y-78210202D01*
X40630186Y-78208062D01*
X40634145Y-78208000D01*
X40662051Y-78208000D01*
X40662056Y-78208000D01*
X40666067Y-78207492D01*
X40677899Y-78206561D01*
X40722089Y-78205173D01*
X40741547Y-78199519D01*
X40760894Y-78195513D01*
X40780997Y-78192974D01*
X40822110Y-78176695D01*
X40833330Y-78172853D01*
X40858113Y-78165654D01*
X40875791Y-78160519D01*
X40875795Y-78160517D01*
X40893226Y-78150208D01*
X40910980Y-78141509D01*
X40929817Y-78134052D01*
X40965592Y-78108058D01*
X40975498Y-78101551D01*
X41013562Y-78079042D01*
X41027885Y-78064718D01*
X41042924Y-78051874D01*
X41059307Y-78039972D01*
X41087503Y-78005886D01*
X41095462Y-77997140D01*
X42304601Y-76788002D01*
X42366911Y-76753979D01*
X42393694Y-76751100D01*
X42449587Y-76751100D01*
X42636388Y-76711394D01*
X42810852Y-76633718D01*
X42965353Y-76521466D01*
X42971150Y-76515027D01*
X43031593Y-76477786D01*
X43102577Y-76479135D01*
X43151040Y-76507484D01*
X43181179Y-76535786D01*
X43181180Y-76535786D01*
X43181182Y-76535788D01*
X43198929Y-76545544D01*
X43215459Y-76556402D01*
X43231459Y-76568813D01*
X43272036Y-76586372D01*
X43282687Y-76591590D01*
X43321440Y-76612895D01*
X43341062Y-76617933D01*
X43359763Y-76624335D01*
X43372314Y-76629767D01*
X43378352Y-76632380D01*
X43378353Y-76632380D01*
X43378355Y-76632381D01*
X43422030Y-76639298D01*
X43433641Y-76641702D01*
X43476470Y-76652700D01*
X43496724Y-76652700D01*
X43516434Y-76654251D01*
X43518641Y-76654600D01*
X43536443Y-76657420D01*
X43580461Y-76653258D01*
X43592319Y-76652700D01*
X54250100Y-76652700D01*
X54318221Y-76672702D01*
X54343737Y-76694390D01*
X54347047Y-76698066D01*
X54501548Y-76810318D01*
X54676012Y-76887994D01*
X54862813Y-76927700D01*
X55053787Y-76927700D01*
X55240588Y-76887994D01*
X55415052Y-76810318D01*
X55569553Y-76698066D01*
X55598354Y-76666079D01*
X55697334Y-76556151D01*
X55697335Y-76556149D01*
X55697340Y-76556144D01*
X55792827Y-76390756D01*
X55851842Y-76209128D01*
X55871804Y-76019200D01*
X55853421Y-75844297D01*
X55851152Y-75822704D01*
X55852797Y-75822531D01*
X55857564Y-75760011D01*
X55900376Y-75703375D01*
X55967012Y-75678876D01*
X56003447Y-75681754D01*
X56104428Y-75704803D01*
X56325339Y-75714724D01*
X56544472Y-75685040D01*
X56754783Y-75616706D01*
X56949513Y-75511918D01*
X57122402Y-75374043D01*
X57267895Y-75207513D01*
X57381314Y-75017681D01*
X57419382Y-74916247D01*
X57462043Y-74859499D01*
X57528614Y-74834824D01*
X57597957Y-74850056D01*
X57648057Y-74900361D01*
X57654667Y-74914831D01*
X57655185Y-74915908D01*
X57655186Y-74915909D01*
X57661972Y-74930000D01*
X57751129Y-75115137D01*
X57751133Y-75115144D01*
X57881112Y-75294045D01*
X57881113Y-75294046D01*
X58040947Y-75446863D01*
X58225498Y-75568685D01*
X58428825Y-75655591D01*
X58428832Y-75655593D01*
X58428838Y-75655596D01*
X58644428Y-75704803D01*
X58865339Y-75714724D01*
X59084472Y-75685040D01*
X59294783Y-75616706D01*
X59489513Y-75511918D01*
X59662402Y-75374043D01*
X59807895Y-75207513D01*
X59921314Y-75017681D01*
X59959382Y-74916247D01*
X60002043Y-74859499D01*
X60068614Y-74834824D01*
X60137957Y-74850056D01*
X60188057Y-74900361D01*
X60194667Y-74914831D01*
X60195185Y-74915908D01*
X60195186Y-74915909D01*
X60201972Y-74930000D01*
X60291129Y-75115137D01*
X60291133Y-75115144D01*
X60421112Y-75294045D01*
X60421113Y-75294046D01*
X60580947Y-75446863D01*
X60765498Y-75568685D01*
X60968825Y-75655591D01*
X60968832Y-75655593D01*
X60968838Y-75655596D01*
X61184428Y-75704803D01*
X61405339Y-75714724D01*
X61624472Y-75685040D01*
X61834783Y-75616706D01*
X62029513Y-75511918D01*
X62202402Y-75374043D01*
X62347895Y-75207513D01*
X62355327Y-75195075D01*
X62461307Y-75017693D01*
X62461307Y-75017691D01*
X62461314Y-75017681D01*
X62499650Y-74915532D01*
X62542311Y-74858785D01*
X62608882Y-74834110D01*
X62678225Y-74849342D01*
X62728325Y-74899647D01*
X62735574Y-74915516D01*
X62735651Y-74915722D01*
X62831562Y-75114883D01*
X62831564Y-75114886D01*
X62961490Y-75293715D01*
X62961491Y-75293716D01*
X63121260Y-75446470D01*
X63305733Y-75568240D01*
X63305739Y-75568243D01*
X63508995Y-75655118D01*
X63636000Y-75684106D01*
X63636000Y-74636174D01*
X63747685Y-74687180D01*
X63854237Y-74702500D01*
X63925763Y-74702500D01*
X64032315Y-74687180D01*
X64144000Y-74636174D01*
X64144000Y-75687307D01*
X64144001Y-75687308D01*
X64164348Y-75684553D01*
X64164367Y-75684548D01*
X64374579Y-75616248D01*
X64569237Y-75511497D01*
X64742056Y-75373678D01*
X64887490Y-75207217D01*
X65000855Y-75017475D01*
X65000863Y-75017459D01*
X65078532Y-74810514D01*
X65118000Y-74593025D01*
X65118000Y-74456500D01*
X64321116Y-74456500D01*
X64349493Y-74412344D01*
X64390000Y-74274389D01*
X64390000Y-74130611D01*
X64349493Y-73992656D01*
X64321116Y-73948500D01*
X65118000Y-73948500D01*
X65118000Y-73867351D01*
X65117999Y-73867348D01*
X65103150Y-73702344D01*
X65103149Y-73702343D01*
X65044346Y-73489275D01*
X65044343Y-73489266D01*
X64948437Y-73290116D01*
X64948435Y-73290113D01*
X64818509Y-73111284D01*
X64744943Y-73040949D01*
X64709528Y-72979416D01*
X64713002Y-72908505D01*
X64742919Y-72860783D01*
X67023707Y-70579996D01*
X67086017Y-70545972D01*
X67156833Y-70551037D01*
G37*
%TD.AperFunction*%
%TA.AperFunction,Conductor*%
G36*
X104107431Y-63357337D02*
G01*
X104164267Y-63399884D01*
X104164268Y-63399886D01*
X104182688Y-63424493D01*
X104207498Y-63491013D01*
X104192406Y-63560387D01*
X104182687Y-63575509D01*
X104109112Y-63673792D01*
X104109110Y-63673797D01*
X104058011Y-63810795D01*
X104058009Y-63810803D01*
X104051500Y-63871350D01*
X104051500Y-64708595D01*
X104051070Y-64718999D01*
X104046844Y-64769999D01*
X104051070Y-64820998D01*
X104051500Y-64831403D01*
X104051500Y-65668649D01*
X104058009Y-65729196D01*
X104058011Y-65729204D01*
X104109110Y-65866202D01*
X104109112Y-65866207D01*
X104182999Y-65964907D01*
X104207810Y-66031427D01*
X104192719Y-66100801D01*
X104183000Y-66115924D01*
X104109555Y-66214035D01*
X104058505Y-66350906D01*
X104052000Y-66411402D01*
X104052000Y-67056000D01*
X104966999Y-67056000D01*
X104941318Y-67095960D01*
X104900000Y-67236673D01*
X104900000Y-67383327D01*
X104941318Y-67524040D01*
X104966999Y-67564000D01*
X104052000Y-67564000D01*
X104052000Y-68208597D01*
X104058505Y-68269093D01*
X104109555Y-68405964D01*
X104109556Y-68405966D01*
X104182999Y-68504072D01*
X104207811Y-68570592D01*
X104192720Y-68639966D01*
X104183000Y-68655091D01*
X104109112Y-68753792D01*
X104109110Y-68753797D01*
X104058011Y-68890795D01*
X104058009Y-68890803D01*
X104051500Y-68951350D01*
X104051500Y-69788595D01*
X104051070Y-69798999D01*
X104046844Y-69849999D01*
X104051070Y-69900998D01*
X104051500Y-69911403D01*
X104051500Y-70748649D01*
X104058009Y-70809196D01*
X104058011Y-70809204D01*
X104109110Y-70946202D01*
X104109112Y-70946207D01*
X104182687Y-71044491D01*
X104207498Y-71111011D01*
X104192407Y-71180385D01*
X104182687Y-71195509D01*
X104109112Y-71293792D01*
X104109110Y-71293797D01*
X104058011Y-71430795D01*
X104058009Y-71430803D01*
X104051500Y-71491350D01*
X104051500Y-72328595D01*
X104051070Y-72338999D01*
X104046844Y-72389999D01*
X104051070Y-72440998D01*
X104051500Y-72451403D01*
X104051500Y-73288649D01*
X104058009Y-73349196D01*
X104058011Y-73349204D01*
X104109110Y-73486202D01*
X104109112Y-73486207D01*
X104182687Y-73584491D01*
X104207498Y-73651011D01*
X104192407Y-73720385D01*
X104182687Y-73735509D01*
X104109112Y-73833792D01*
X104109110Y-73833797D01*
X104058011Y-73970795D01*
X104058009Y-73970803D01*
X104051500Y-74031350D01*
X104051500Y-74868595D01*
X104051070Y-74878999D01*
X104046844Y-74929999D01*
X104051070Y-74980998D01*
X104051500Y-74991403D01*
X104051500Y-75828649D01*
X104058009Y-75889196D01*
X104058011Y-75889204D01*
X104109110Y-76026202D01*
X104109112Y-76026207D01*
X104182687Y-76124491D01*
X104207498Y-76191011D01*
X104192407Y-76260385D01*
X104182687Y-76275509D01*
X104109112Y-76373792D01*
X104109110Y-76373797D01*
X104058011Y-76510795D01*
X104058009Y-76510803D01*
X104051500Y-76571350D01*
X104051500Y-77408595D01*
X104051070Y-77418999D01*
X104046844Y-77470000D01*
X104051070Y-77520998D01*
X104051500Y-77531403D01*
X104051500Y-78368649D01*
X104058009Y-78429196D01*
X104058011Y-78429204D01*
X104109110Y-78566202D01*
X104109112Y-78566207D01*
X104182999Y-78664907D01*
X104207810Y-78731427D01*
X104192719Y-78800801D01*
X104183000Y-78815924D01*
X104109555Y-78914035D01*
X104058505Y-79050906D01*
X104052000Y-79111402D01*
X104052000Y-79756000D01*
X104966999Y-79756000D01*
X104941318Y-79795960D01*
X104900000Y-79936673D01*
X104900000Y-80083327D01*
X104941318Y-80224040D01*
X104966999Y-80264000D01*
X104052000Y-80264000D01*
X104052000Y-80908597D01*
X104058505Y-80969093D01*
X104109555Y-81105964D01*
X104109556Y-81105966D01*
X104182999Y-81204072D01*
X104207811Y-81270592D01*
X104192720Y-81339966D01*
X104183000Y-81355091D01*
X104109112Y-81453792D01*
X104109110Y-81453797D01*
X104058011Y-81590795D01*
X104058009Y-81590803D01*
X104051500Y-81651350D01*
X104051500Y-81851879D01*
X104031498Y-81920000D01*
X103977842Y-81966493D01*
X103964444Y-81971710D01*
X103962822Y-81972236D01*
X103955860Y-81976655D01*
X103934737Y-81987417D01*
X103927083Y-81990447D01*
X103881655Y-82023451D01*
X103875114Y-82027896D01*
X103827686Y-82057996D01*
X103827675Y-82058005D01*
X103822031Y-82064015D01*
X103804262Y-82079681D01*
X103797596Y-82084525D01*
X103797590Y-82084530D01*
X103761797Y-82127796D01*
X103756566Y-82133730D01*
X103718117Y-82174675D01*
X103718114Y-82174679D01*
X103714141Y-82181905D01*
X103700825Y-82201498D01*
X103695568Y-82207852D01*
X103695566Y-82207856D01*
X103671647Y-82258685D01*
X103668056Y-82265732D01*
X103641006Y-82314938D01*
X103641002Y-82314948D01*
X103638953Y-82322927D01*
X103630925Y-82345225D01*
X103627418Y-82352677D01*
X103627416Y-82352684D01*
X103616893Y-82407845D01*
X103615167Y-82415565D01*
X103601200Y-82469968D01*
X103601200Y-82478206D01*
X103598968Y-82501818D01*
X103597425Y-82509903D01*
X103597425Y-82509906D01*
X103599947Y-82550000D01*
X103600951Y-82565950D01*
X103601200Y-82573862D01*
X103601200Y-83337205D01*
X103581198Y-83405326D01*
X103564295Y-83426300D01*
X100633595Y-86357000D01*
X100571283Y-86391026D01*
X100500468Y-86385961D01*
X100443632Y-86343414D01*
X100418821Y-86276894D01*
X100418500Y-86267905D01*
X100418500Y-84921403D01*
X100418930Y-84910998D01*
X100421417Y-84880980D01*
X100423156Y-84860000D01*
X100418930Y-84808999D01*
X100418500Y-84798595D01*
X100418500Y-83961367D01*
X100418499Y-83961350D01*
X100411990Y-83900803D01*
X100411988Y-83900795D01*
X100378499Y-83811011D01*
X100360889Y-83763796D01*
X100360888Y-83763794D01*
X100360887Y-83763792D01*
X100273261Y-83646738D01*
X100156207Y-83559112D01*
X100156202Y-83559110D01*
X100019204Y-83508011D01*
X100019196Y-83508009D01*
X99958649Y-83501500D01*
X99958638Y-83501500D01*
X98161362Y-83501500D01*
X98161350Y-83501500D01*
X98100803Y-83508009D01*
X98100795Y-83508011D01*
X97963797Y-83559110D01*
X97963792Y-83559112D01*
X97865091Y-83633000D01*
X97798571Y-83657811D01*
X97729197Y-83642720D01*
X97714072Y-83632999D01*
X97615966Y-83559556D01*
X97615964Y-83559555D01*
X97479093Y-83508505D01*
X97418597Y-83502000D01*
X96774000Y-83502000D01*
X96774000Y-84415331D01*
X96665161Y-84365627D01*
X96556473Y-84350000D01*
X96483527Y-84350000D01*
X96374839Y-84365627D01*
X96266000Y-84415331D01*
X96266000Y-83502000D01*
X95621402Y-83502000D01*
X95560906Y-83508505D01*
X95424035Y-83559555D01*
X95325924Y-83633000D01*
X95259404Y-83657810D01*
X95190030Y-83642718D01*
X95174907Y-83632999D01*
X95076207Y-83559112D01*
X95076202Y-83559110D01*
X94939204Y-83508011D01*
X94939196Y-83508009D01*
X94878649Y-83501500D01*
X94878638Y-83501500D01*
X93081362Y-83501500D01*
X93081350Y-83501500D01*
X93020803Y-83508009D01*
X93020795Y-83508011D01*
X92883797Y-83559110D01*
X92883792Y-83559112D01*
X92766738Y-83646738D01*
X92679112Y-83763792D01*
X92679110Y-83763797D01*
X92628011Y-83900795D01*
X92628009Y-83900803D01*
X92621500Y-83961350D01*
X92621500Y-84798595D01*
X92621070Y-84808999D01*
X92616844Y-84859999D01*
X92621070Y-84910998D01*
X92621500Y-84921403D01*
X92621500Y-87075900D01*
X92601498Y-87144021D01*
X92547842Y-87190514D01*
X92495500Y-87201900D01*
X85542895Y-87201900D01*
X85474774Y-87181898D01*
X85428281Y-87128242D01*
X85418177Y-87057968D01*
X85447671Y-86993388D01*
X85453800Y-86986804D01*
X85623664Y-86816941D01*
X85955201Y-86485404D01*
X86017513Y-86451379D01*
X86044296Y-86448500D01*
X88528632Y-86448500D01*
X88528638Y-86448500D01*
X88528645Y-86448499D01*
X88528649Y-86448499D01*
X88589196Y-86441990D01*
X88589199Y-86441989D01*
X88589201Y-86441989D01*
X88726204Y-86390889D01*
X88754435Y-86369756D01*
X88843261Y-86303261D01*
X88930887Y-86186207D01*
X88930887Y-86186206D01*
X88930889Y-86186204D01*
X88981989Y-86049201D01*
X88983124Y-86038649D01*
X88988499Y-85988649D01*
X88988500Y-85988632D01*
X88988500Y-85151403D01*
X88988930Y-85140998D01*
X88993156Y-85090000D01*
X88988930Y-85038999D01*
X88988500Y-85028595D01*
X88988500Y-84191367D01*
X88988499Y-84191350D01*
X88981990Y-84130803D01*
X88981988Y-84130795D01*
X88930889Y-83993797D01*
X88930889Y-83993796D01*
X88906600Y-83961350D01*
X88857311Y-83895507D01*
X88832501Y-83828989D01*
X88847592Y-83759615D01*
X88857306Y-83744497D01*
X88930889Y-83646204D01*
X88975448Y-83526738D01*
X88981988Y-83509204D01*
X88981990Y-83509196D01*
X88988499Y-83448649D01*
X88988500Y-83448632D01*
X88988500Y-82611403D01*
X88988930Y-82600998D01*
X88990290Y-82584585D01*
X88993156Y-82550000D01*
X88989366Y-82504271D01*
X88988930Y-82498999D01*
X88988500Y-82488595D01*
X88988500Y-81651367D01*
X88988499Y-81651350D01*
X88981990Y-81590803D01*
X88981988Y-81590795D01*
X88939661Y-81477315D01*
X88930889Y-81453796D01*
X88930888Y-81453794D01*
X88930887Y-81453792D01*
X88857000Y-81355091D01*
X88832189Y-81288571D01*
X88847280Y-81219197D01*
X88857001Y-81204072D01*
X88930443Y-81105966D01*
X88930444Y-81105964D01*
X88981494Y-80969093D01*
X88987999Y-80908597D01*
X88988000Y-80908585D01*
X88988000Y-80264000D01*
X88073001Y-80264000D01*
X88098682Y-80224040D01*
X88140000Y-80083327D01*
X88140000Y-79936673D01*
X88098682Y-79795960D01*
X88073001Y-79756000D01*
X88988000Y-79756000D01*
X88988000Y-79111414D01*
X88987999Y-79111402D01*
X88981494Y-79050906D01*
X88930444Y-78914035D01*
X88930444Y-78914034D01*
X88857000Y-78815925D01*
X88832189Y-78749405D01*
X88847280Y-78680031D01*
X88856998Y-78664909D01*
X88930889Y-78566204D01*
X88981989Y-78429201D01*
X88981989Y-78429199D01*
X88981990Y-78429196D01*
X88988499Y-78368649D01*
X88988500Y-78368632D01*
X88988500Y-77531403D01*
X88988930Y-77520998D01*
X88993156Y-77470000D01*
X88988930Y-77418999D01*
X88988500Y-77408595D01*
X88988500Y-76571367D01*
X88988499Y-76571350D01*
X88981990Y-76510803D01*
X88981988Y-76510795D01*
X88949536Y-76423789D01*
X88930889Y-76373796D01*
X88857311Y-76275507D01*
X88832501Y-76208989D01*
X88847592Y-76139615D01*
X88857306Y-76124497D01*
X88930889Y-76026204D01*
X88981989Y-75889201D01*
X88984656Y-75864400D01*
X88988499Y-75828649D01*
X88988500Y-75828632D01*
X88988500Y-74991403D01*
X88988930Y-74980998D01*
X88993156Y-74930000D01*
X88988930Y-74878999D01*
X88988500Y-74868595D01*
X88988500Y-74031367D01*
X88988499Y-74031350D01*
X88981990Y-73970803D01*
X88981988Y-73970795D01*
X88930889Y-73833797D01*
X88930889Y-73833796D01*
X88930886Y-73833792D01*
X88857311Y-73735507D01*
X88832501Y-73668989D01*
X88847592Y-73599615D01*
X88857306Y-73584497D01*
X88930889Y-73486204D01*
X88981989Y-73349201D01*
X88987058Y-73302056D01*
X88988499Y-73288649D01*
X88988500Y-73288632D01*
X88988500Y-72451403D01*
X88988930Y-72440998D01*
X88993156Y-72390000D01*
X88988930Y-72338999D01*
X88988500Y-72328595D01*
X88988500Y-71974100D01*
X89008502Y-71905979D01*
X89062158Y-71859486D01*
X89114500Y-71848100D01*
X95166247Y-71848100D01*
X95182088Y-71849849D01*
X95182116Y-71849556D01*
X95190002Y-71850300D01*
X95190009Y-71850302D01*
X95258086Y-71848162D01*
X95262045Y-71848100D01*
X95289951Y-71848100D01*
X95289956Y-71848100D01*
X95293967Y-71847592D01*
X95305799Y-71846661D01*
X95349989Y-71845273D01*
X95369447Y-71839619D01*
X95388794Y-71835613D01*
X95408897Y-71833074D01*
X95412643Y-71831591D01*
X95424791Y-71826781D01*
X95450010Y-71816795D01*
X95461230Y-71812953D01*
X95486013Y-71805754D01*
X95503691Y-71800619D01*
X95503695Y-71800617D01*
X95521126Y-71790308D01*
X95538880Y-71781609D01*
X95557717Y-71774152D01*
X95593492Y-71748158D01*
X95603398Y-71741651D01*
X95641462Y-71719142D01*
X95655785Y-71704818D01*
X95670824Y-71691974D01*
X95687207Y-71680072D01*
X95715403Y-71645986D01*
X95723372Y-71637230D01*
X103974306Y-63386296D01*
X104036616Y-63352272D01*
X104107431Y-63357337D01*
G37*
%TD.AperFunction*%
%TA.AperFunction,Conductor*%
G36*
X96774000Y-85888000D02*
G01*
X96753998Y-85956121D01*
X96700342Y-86002614D01*
X96648000Y-86014000D01*
X96392000Y-86014000D01*
X96323879Y-85993998D01*
X96277386Y-85940342D01*
X96266000Y-85888000D01*
X96266000Y-85304668D01*
X96374839Y-85354373D01*
X96483527Y-85370000D01*
X96556473Y-85370000D01*
X96665161Y-85354373D01*
X96774000Y-85304668D01*
X96774000Y-85888000D01*
G37*
%TD.AperFunction*%
%TA.AperFunction,Conductor*%
G36*
X84390463Y-78266006D02*
G01*
X84447299Y-78308553D01*
X84471709Y-78370592D01*
X84478010Y-78429197D01*
X84478011Y-78429204D01*
X84529110Y-78566202D01*
X84529112Y-78566207D01*
X84602999Y-78664907D01*
X84627810Y-78731427D01*
X84612719Y-78800801D01*
X84603000Y-78815924D01*
X84529555Y-78914035D01*
X84478505Y-79050906D01*
X84472000Y-79111402D01*
X84472000Y-79756000D01*
X87186999Y-79756000D01*
X87161318Y-79795960D01*
X87120000Y-79936673D01*
X87120000Y-80083327D01*
X87161318Y-80224040D01*
X87186999Y-80264000D01*
X84472000Y-80264000D01*
X84472000Y-80908597D01*
X84478505Y-80969093D01*
X84529555Y-81105964D01*
X84529556Y-81105966D01*
X84602999Y-81204072D01*
X84627811Y-81270592D01*
X84612720Y-81339966D01*
X84603000Y-81355091D01*
X84529112Y-81453792D01*
X84529110Y-81453797D01*
X84478011Y-81590795D01*
X84478009Y-81590803D01*
X84471500Y-81651350D01*
X84471500Y-81790500D01*
X84451498Y-81858621D01*
X84397842Y-81905114D01*
X84345500Y-81916500D01*
X81264153Y-81916500D01*
X81248311Y-81914750D01*
X81248284Y-81915044D01*
X81240392Y-81914298D01*
X81240391Y-81914298D01*
X81216660Y-81915044D01*
X81172314Y-81916438D01*
X81168355Y-81916500D01*
X81140444Y-81916500D01*
X81140441Y-81916500D01*
X81140426Y-81916501D01*
X81136421Y-81917007D01*
X81124604Y-81917937D01*
X81080412Y-81919326D01*
X81080410Y-81919327D01*
X81060955Y-81924978D01*
X81041602Y-81928986D01*
X81021510Y-81931524D01*
X81021503Y-81931526D01*
X80980396Y-81947801D01*
X80969170Y-81951644D01*
X80921007Y-81965638D01*
X80850011Y-81965437D01*
X80790393Y-81926885D01*
X80761083Y-81862221D01*
X80771386Y-81791976D01*
X80796753Y-81755550D01*
X84257338Y-78294965D01*
X84319648Y-78260941D01*
X84390463Y-78266006D01*
G37*
%TD.AperFunction*%
%TA.AperFunction,Conductor*%
G36*
X79884496Y-64965873D02*
G01*
X79941332Y-65008420D01*
X79960297Y-65044992D01*
X79991673Y-65141556D01*
X79991676Y-65141561D01*
X80087158Y-65306941D01*
X80087165Y-65306951D01*
X80214943Y-65448863D01*
X80214946Y-65448865D01*
X80214947Y-65448866D01*
X80369448Y-65561118D01*
X80543912Y-65638794D01*
X80730713Y-65678500D01*
X80921687Y-65678500D01*
X81108488Y-65638794D01*
X81282952Y-65561118D01*
X81437453Y-65448866D01*
X81440763Y-65445190D01*
X81501209Y-65407950D01*
X81534400Y-65403500D01*
X84345500Y-65403500D01*
X84413621Y-65423502D01*
X84460114Y-65477158D01*
X84471500Y-65529500D01*
X84471500Y-65668649D01*
X84478009Y-65729196D01*
X84478011Y-65729204D01*
X84529110Y-65866202D01*
X84529112Y-65866207D01*
X84602999Y-65964907D01*
X84627810Y-66031427D01*
X84612719Y-66100801D01*
X84603000Y-66115924D01*
X84529555Y-66214035D01*
X84478505Y-66350906D01*
X84472000Y-66411402D01*
X84472000Y-67056000D01*
X87186999Y-67056000D01*
X87161318Y-67095960D01*
X87120000Y-67236673D01*
X87120000Y-67383327D01*
X87161318Y-67524040D01*
X87186999Y-67564000D01*
X84472000Y-67564000D01*
X84472000Y-67725900D01*
X84451998Y-67794021D01*
X84398342Y-67840514D01*
X84346000Y-67851900D01*
X80189853Y-67851900D01*
X80174011Y-67850150D01*
X80173984Y-67850444D01*
X80166092Y-67849698D01*
X80166091Y-67849698D01*
X80142360Y-67850444D01*
X80098014Y-67851838D01*
X80094055Y-67851900D01*
X80066144Y-67851900D01*
X80066141Y-67851900D01*
X80066126Y-67851901D01*
X80062121Y-67852407D01*
X80050304Y-67853337D01*
X80006113Y-67854726D01*
X80006111Y-67854727D01*
X79986656Y-67860378D01*
X79967303Y-67864386D01*
X79947211Y-67866924D01*
X79947205Y-67866925D01*
X79947203Y-67866926D01*
X79907881Y-67882494D01*
X79906098Y-67883200D01*
X79894874Y-67887043D01*
X79852407Y-67899382D01*
X79834964Y-67909697D01*
X79817218Y-67918390D01*
X79798382Y-67925848D01*
X79762610Y-67951837D01*
X79752694Y-67958351D01*
X79714637Y-67980858D01*
X79700311Y-67995184D01*
X79685285Y-68008017D01*
X79668895Y-68019925D01*
X79668893Y-68019927D01*
X79640700Y-68054005D01*
X79632713Y-68062781D01*
X76786265Y-70909228D01*
X76723953Y-70943254D01*
X76653137Y-70938189D01*
X76603534Y-70904443D01*
X76532755Y-70825835D01*
X76378252Y-70713582D01*
X76203788Y-70635906D01*
X76016987Y-70596200D01*
X75826013Y-70596200D01*
X75639211Y-70635906D01*
X75464747Y-70713582D01*
X75310244Y-70825835D01*
X75182465Y-70967748D01*
X75182458Y-70967758D01*
X75086976Y-71133138D01*
X75086973Y-71133144D01*
X75072808Y-71176739D01*
X75027957Y-71314772D01*
X75010592Y-71479992D01*
X74983579Y-71545649D01*
X74974377Y-71555916D01*
X69451600Y-77078695D01*
X69389288Y-77112721D01*
X69362505Y-77115600D01*
X67955166Y-77115600D01*
X67887045Y-77095598D01*
X67840552Y-77041942D01*
X67830448Y-76971668D01*
X67846713Y-76925459D01*
X67850208Y-76919548D01*
X67850214Y-76919541D01*
X67858634Y-76900081D01*
X67885173Y-76861029D01*
X79751371Y-64994832D01*
X79813681Y-64960808D01*
X79884496Y-64965873D01*
G37*
%TD.AperFunction*%
%TA.AperFunction,Conductor*%
G36*
X104107431Y-58277338D02*
G01*
X104164267Y-58319885D01*
X104182687Y-58344491D01*
X104207498Y-58411011D01*
X104192407Y-58480385D01*
X104182687Y-58495509D01*
X104109112Y-58593792D01*
X104109110Y-58593797D01*
X104058011Y-58730795D01*
X104058009Y-58730803D01*
X104051500Y-58791350D01*
X104051500Y-58990753D01*
X104031498Y-59058874D01*
X103986629Y-59097752D01*
X103987928Y-59099949D01*
X103981108Y-59103981D01*
X103981107Y-59103982D01*
X103963664Y-59114297D01*
X103945918Y-59122990D01*
X103927082Y-59130448D01*
X103891310Y-59156437D01*
X103881394Y-59162951D01*
X103843337Y-59185458D01*
X103829011Y-59199784D01*
X103813985Y-59212617D01*
X103797595Y-59224525D01*
X103797593Y-59224527D01*
X103769400Y-59258605D01*
X103761413Y-59267381D01*
X95213800Y-67814995D01*
X95151488Y-67849021D01*
X95124705Y-67851900D01*
X89114000Y-67851900D01*
X89045879Y-67831898D01*
X88999386Y-67778242D01*
X88988000Y-67725900D01*
X88988000Y-67564000D01*
X88073001Y-67564000D01*
X88098682Y-67524040D01*
X88140000Y-67383327D01*
X88140000Y-67236673D01*
X88098682Y-67095960D01*
X88073001Y-67056000D01*
X88988000Y-67056000D01*
X88988000Y-66411414D01*
X88987999Y-66411402D01*
X88981494Y-66350906D01*
X88930444Y-66214035D01*
X88930444Y-66214034D01*
X88857000Y-66115925D01*
X88832189Y-66049405D01*
X88847280Y-65980031D01*
X88856998Y-65964909D01*
X88930889Y-65866204D01*
X88981989Y-65729201D01*
X88982302Y-65726298D01*
X88988499Y-65668649D01*
X88988500Y-65668632D01*
X88988500Y-64831403D01*
X88988930Y-64820998D01*
X88993156Y-64770000D01*
X88988930Y-64718999D01*
X88988500Y-64708595D01*
X88988500Y-64197700D01*
X89008502Y-64129579D01*
X89062158Y-64083086D01*
X89114500Y-64071700D01*
X97862647Y-64071700D01*
X97878488Y-64073449D01*
X97878516Y-64073156D01*
X97886402Y-64073900D01*
X97886409Y-64073902D01*
X97954486Y-64071762D01*
X97958445Y-64071700D01*
X97986351Y-64071700D01*
X97986356Y-64071700D01*
X97990367Y-64071192D01*
X98002199Y-64070261D01*
X98046389Y-64068873D01*
X98065847Y-64063219D01*
X98085194Y-64059213D01*
X98105297Y-64056674D01*
X98146410Y-64040395D01*
X98157630Y-64036553D01*
X98182413Y-64029354D01*
X98200091Y-64024219D01*
X98200095Y-64024217D01*
X98217526Y-64013908D01*
X98235280Y-64005209D01*
X98254117Y-63997752D01*
X98289892Y-63971758D01*
X98299798Y-63965251D01*
X98337862Y-63942742D01*
X98352185Y-63928418D01*
X98367224Y-63915574D01*
X98383607Y-63903672D01*
X98411803Y-63869586D01*
X98419772Y-63860830D01*
X103974306Y-58306297D01*
X104036616Y-58272273D01*
X104107431Y-58277338D01*
G37*
%TD.AperFunction*%
%TA.AperFunction,Conductor*%
G36*
X106506121Y-67076002D02*
G01*
X106552614Y-67129658D01*
X106564000Y-67182000D01*
X106564000Y-67438000D01*
X106543998Y-67506121D01*
X106490342Y-67552614D01*
X106438000Y-67564000D01*
X105853001Y-67564000D01*
X105878682Y-67524040D01*
X105920000Y-67383327D01*
X105920000Y-67236673D01*
X105878682Y-67095960D01*
X105853001Y-67056000D01*
X106438000Y-67056000D01*
X106506121Y-67076002D01*
G37*
%TD.AperFunction*%
%TA.AperFunction,Conductor*%
G36*
X89206869Y-49462773D02*
G01*
X92672578Y-52928483D01*
X96107455Y-56363360D01*
X96117420Y-56375797D01*
X96117647Y-56375610D01*
X96122699Y-56381717D01*
X96172349Y-56428341D01*
X96175193Y-56431098D01*
X96194923Y-56450829D01*
X96194924Y-56450830D01*
X96194928Y-56450833D01*
X96194930Y-56450835D01*
X96198135Y-56453321D01*
X96207142Y-56461014D01*
X96239379Y-56491286D01*
X96257128Y-56501043D01*
X96273653Y-56511898D01*
X96289659Y-56524314D01*
X96330242Y-56541875D01*
X96340893Y-56547093D01*
X96379640Y-56568395D01*
X96379648Y-56568397D01*
X96399258Y-56573432D01*
X96417967Y-56579837D01*
X96436555Y-56587881D01*
X96480230Y-56594798D01*
X96491841Y-56597202D01*
X96534670Y-56608200D01*
X96554924Y-56608200D01*
X96574634Y-56609751D01*
X96576841Y-56610100D01*
X96594643Y-56612920D01*
X96638661Y-56608758D01*
X96650519Y-56608200D01*
X103576405Y-56608200D01*
X103644526Y-56628202D01*
X103691019Y-56681858D01*
X103701123Y-56752132D01*
X103671629Y-56816712D01*
X103665500Y-56823295D01*
X97721000Y-62767795D01*
X97658688Y-62801821D01*
X97631905Y-62804700D01*
X89114500Y-62804700D01*
X89046379Y-62784698D01*
X88999886Y-62731042D01*
X88988500Y-62678700D01*
X88988500Y-62291403D01*
X88988930Y-62280998D01*
X88993156Y-62230000D01*
X88988930Y-62178999D01*
X88988500Y-62168595D01*
X88988500Y-61331367D01*
X88988499Y-61331350D01*
X88981990Y-61270803D01*
X88981988Y-61270795D01*
X88946388Y-61175350D01*
X88930889Y-61133796D01*
X88857311Y-61035507D01*
X88832501Y-60968989D01*
X88847592Y-60899615D01*
X88857306Y-60884497D01*
X88930889Y-60786204D01*
X88981989Y-60649201D01*
X88983336Y-60636678D01*
X88988499Y-60588649D01*
X88988500Y-60588632D01*
X88988500Y-59751403D01*
X88988930Y-59740998D01*
X88993156Y-59690000D01*
X88988930Y-59638999D01*
X88988500Y-59628595D01*
X88988500Y-58791367D01*
X88988499Y-58791350D01*
X88981990Y-58730803D01*
X88981988Y-58730795D01*
X88930889Y-58593797D01*
X88930889Y-58593796D01*
X88930886Y-58593792D01*
X88857311Y-58495507D01*
X88832501Y-58428989D01*
X88847592Y-58359615D01*
X88857306Y-58344497D01*
X88930889Y-58246204D01*
X88981989Y-58109201D01*
X88988369Y-58049862D01*
X88988499Y-58048649D01*
X88988500Y-58048632D01*
X88988500Y-57211403D01*
X88988930Y-57200998D01*
X88991380Y-57171427D01*
X88993156Y-57150000D01*
X88988930Y-57098999D01*
X88988500Y-57088595D01*
X88988500Y-56251367D01*
X88988499Y-56251350D01*
X88981990Y-56190803D01*
X88981988Y-56190795D01*
X88930889Y-56053797D01*
X88930887Y-56053792D01*
X88857000Y-55955091D01*
X88832189Y-55888571D01*
X88847280Y-55819197D01*
X88857001Y-55804072D01*
X88930443Y-55705966D01*
X88930444Y-55705964D01*
X88981494Y-55569093D01*
X88987999Y-55508597D01*
X88988000Y-55508585D01*
X88988000Y-54864000D01*
X88073001Y-54864000D01*
X88098682Y-54824040D01*
X88140000Y-54683327D01*
X88140000Y-54536673D01*
X88098682Y-54395960D01*
X88073001Y-54356000D01*
X88988000Y-54356000D01*
X88988000Y-53711414D01*
X88987999Y-53711402D01*
X88981494Y-53650906D01*
X88930444Y-53514035D01*
X88930444Y-53514034D01*
X88857000Y-53415925D01*
X88832189Y-53349405D01*
X88847280Y-53280031D01*
X88856998Y-53264909D01*
X88930889Y-53166204D01*
X88981989Y-53029201D01*
X88982319Y-53026139D01*
X88988499Y-52968649D01*
X88988500Y-52968632D01*
X88988500Y-52131403D01*
X88988930Y-52120998D01*
X88989725Y-52111399D01*
X88993156Y-52070000D01*
X88988930Y-52018999D01*
X88988500Y-52008595D01*
X88988500Y-51171367D01*
X88988499Y-51171350D01*
X88981990Y-51110803D01*
X88981988Y-51110795D01*
X88949794Y-51024482D01*
X88930889Y-50973796D01*
X88857311Y-50875507D01*
X88832501Y-50808989D01*
X88847592Y-50739615D01*
X88857306Y-50724497D01*
X88930889Y-50626204D01*
X88981989Y-50489201D01*
X88985948Y-50452382D01*
X88988499Y-50428649D01*
X88988500Y-50428632D01*
X88988500Y-49591403D01*
X88988930Y-49581001D01*
X88990405Y-49563193D01*
X88992206Y-49541464D01*
X89017763Y-49475230D01*
X89075074Y-49433325D01*
X89145942Y-49429058D01*
X89206869Y-49462773D01*
G37*
%TD.AperFunction*%
%TA.AperFunction,Conductor*%
G36*
X83581727Y-51897002D02*
G01*
X83602701Y-51913905D01*
X84147453Y-52458657D01*
X84157420Y-52471097D01*
X84157647Y-52470910D01*
X84162699Y-52477017D01*
X84162700Y-52477018D01*
X84193882Y-52506300D01*
X84212366Y-52523657D01*
X84215210Y-52526414D01*
X84234930Y-52546134D01*
X84238116Y-52548605D01*
X84247147Y-52556318D01*
X84279378Y-52586585D01*
X84279382Y-52586588D01*
X84297130Y-52596345D01*
X84313657Y-52607201D01*
X84329660Y-52619614D01*
X84370239Y-52637174D01*
X84380881Y-52642387D01*
X84406200Y-52656306D01*
X84456259Y-52706650D01*
X84471500Y-52766721D01*
X84471500Y-52968649D01*
X84478009Y-53029196D01*
X84478011Y-53029204D01*
X84529110Y-53166202D01*
X84529112Y-53166207D01*
X84602999Y-53264907D01*
X84627810Y-53331427D01*
X84612719Y-53400801D01*
X84603000Y-53415924D01*
X84529555Y-53514035D01*
X84478505Y-53650906D01*
X84472000Y-53711402D01*
X84472000Y-54356000D01*
X87186999Y-54356000D01*
X87161318Y-54395960D01*
X87120000Y-54536673D01*
X87120000Y-54683327D01*
X87161318Y-54824040D01*
X87186999Y-54864000D01*
X84472000Y-54864000D01*
X84472000Y-55508597D01*
X84478505Y-55569093D01*
X84529555Y-55705964D01*
X84529556Y-55705966D01*
X84602999Y-55804072D01*
X84627811Y-55870592D01*
X84612720Y-55939966D01*
X84603000Y-55955091D01*
X84529112Y-56053792D01*
X84529110Y-56053797D01*
X84478011Y-56190795D01*
X84478009Y-56190803D01*
X84471500Y-56251350D01*
X84471500Y-56390500D01*
X84451498Y-56458621D01*
X84397842Y-56505114D01*
X84345500Y-56516500D01*
X74533294Y-56516500D01*
X74465173Y-56496498D01*
X74444199Y-56479595D01*
X70160621Y-52196016D01*
X70126595Y-52133704D01*
X70124408Y-52120106D01*
X70117382Y-52053252D01*
X70113485Y-52016169D01*
X70126258Y-51946331D01*
X70174761Y-51894485D01*
X70238795Y-51877000D01*
X83513606Y-51877000D01*
X83581727Y-51897002D01*
G37*
%TD.AperFunction*%
%TA.AperFunction,Conductor*%
G36*
X102812927Y-46468202D02*
G01*
X102833901Y-46485105D01*
X103727453Y-47378657D01*
X103737420Y-47391097D01*
X103737647Y-47390910D01*
X103742699Y-47397017D01*
X103742700Y-47397018D01*
X103753356Y-47407025D01*
X103792366Y-47443657D01*
X103795210Y-47446414D01*
X103814926Y-47466131D01*
X103818123Y-47468611D01*
X103827144Y-47476316D01*
X103859379Y-47506586D01*
X103859380Y-47506586D01*
X103859382Y-47506588D01*
X103877129Y-47516344D01*
X103893659Y-47527202D01*
X103909659Y-47539613D01*
X103950236Y-47557172D01*
X103960879Y-47562385D01*
X103986202Y-47576307D01*
X104036260Y-47626652D01*
X104051500Y-47686721D01*
X104051500Y-47888649D01*
X104058009Y-47949196D01*
X104058011Y-47949204D01*
X104109110Y-48086202D01*
X104109112Y-48086207D01*
X104182687Y-48184491D01*
X104207498Y-48251011D01*
X104192407Y-48320385D01*
X104182687Y-48335509D01*
X104109112Y-48433792D01*
X104109110Y-48433797D01*
X104058011Y-48570795D01*
X104058009Y-48570803D01*
X104051500Y-48631350D01*
X104051500Y-49468595D01*
X104051070Y-49478999D01*
X104046844Y-49529999D01*
X104051070Y-49580998D01*
X104051500Y-49591403D01*
X104051500Y-50428649D01*
X104058009Y-50489196D01*
X104058011Y-50489204D01*
X104109110Y-50626202D01*
X104109112Y-50626207D01*
X104182687Y-50724491D01*
X104207498Y-50791011D01*
X104192407Y-50860385D01*
X104182687Y-50875509D01*
X104109112Y-50973792D01*
X104109110Y-50973797D01*
X104058011Y-51110795D01*
X104058009Y-51110803D01*
X104051500Y-51171350D01*
X104051500Y-52008595D01*
X104051070Y-52018999D01*
X104046844Y-52069999D01*
X104051070Y-52120998D01*
X104051500Y-52131403D01*
X104051500Y-52968649D01*
X104058009Y-53029196D01*
X104058011Y-53029204D01*
X104109110Y-53166202D01*
X104109112Y-53166207D01*
X104182999Y-53264907D01*
X104207810Y-53331427D01*
X104192719Y-53400801D01*
X104183000Y-53415924D01*
X104109555Y-53514035D01*
X104058505Y-53650906D01*
X104052000Y-53711402D01*
X104052000Y-54356000D01*
X104966999Y-54356000D01*
X104941318Y-54395960D01*
X104900000Y-54536673D01*
X104900000Y-54683327D01*
X104941318Y-54824040D01*
X104966999Y-54864000D01*
X104052000Y-54864000D01*
X104052000Y-55215200D01*
X104031998Y-55283321D01*
X103978342Y-55329814D01*
X103926000Y-55341200D01*
X96929294Y-55341200D01*
X96861173Y-55321198D01*
X96840199Y-55304295D01*
X89312644Y-47776739D01*
X89302679Y-47764301D01*
X89302452Y-47764490D01*
X89297401Y-47758384D01*
X89297400Y-47758382D01*
X89247748Y-47711756D01*
X89244905Y-47709000D01*
X89225177Y-47689271D01*
X89225171Y-47689266D01*
X89221967Y-47686780D01*
X89212956Y-47679083D01*
X89180725Y-47648817D01*
X89180719Y-47648813D01*
X89162963Y-47639051D01*
X89146447Y-47628202D01*
X89130441Y-47615786D01*
X89089864Y-47598227D01*
X89079205Y-47593005D01*
X89053799Y-47579038D01*
X89003741Y-47528693D01*
X88988500Y-47468623D01*
X88988500Y-47051403D01*
X88988930Y-47040998D01*
X88993156Y-46990000D01*
X88988930Y-46938999D01*
X88988500Y-46928595D01*
X88988500Y-46574200D01*
X89008502Y-46506079D01*
X89062158Y-46459586D01*
X89114500Y-46448200D01*
X102744806Y-46448200D01*
X102812927Y-46468202D01*
G37*
%TD.AperFunction*%
%TA.AperFunction,Conductor*%
G36*
X104107431Y-37957338D02*
G01*
X104164267Y-37999885D01*
X104182687Y-38024491D01*
X104207498Y-38091011D01*
X104192407Y-38160385D01*
X104182687Y-38175509D01*
X104109112Y-38273792D01*
X104109110Y-38273797D01*
X104058011Y-38410795D01*
X104058009Y-38410803D01*
X104051500Y-38471350D01*
X104051500Y-39308595D01*
X104051070Y-39318999D01*
X104046844Y-39369999D01*
X104051070Y-39420998D01*
X104051500Y-39431403D01*
X104051500Y-40268649D01*
X104058009Y-40329196D01*
X104058011Y-40329204D01*
X104109110Y-40466202D01*
X104109112Y-40466207D01*
X104182999Y-40564907D01*
X104207810Y-40631427D01*
X104192719Y-40700801D01*
X104183000Y-40715924D01*
X104109555Y-40814035D01*
X104058505Y-40950906D01*
X104052000Y-41011402D01*
X104052000Y-41656000D01*
X104966999Y-41656000D01*
X104941318Y-41695960D01*
X104900000Y-41836673D01*
X104900000Y-41983327D01*
X104941318Y-42124040D01*
X104966999Y-42164000D01*
X104052000Y-42164000D01*
X104052000Y-42808597D01*
X104058505Y-42869093D01*
X104109555Y-43005964D01*
X104109556Y-43005966D01*
X104182999Y-43104072D01*
X104207811Y-43170592D01*
X104192720Y-43239966D01*
X104183000Y-43255091D01*
X104109112Y-43353792D01*
X104109110Y-43353797D01*
X104058011Y-43490795D01*
X104058009Y-43490803D01*
X104051500Y-43551350D01*
X104051500Y-44388595D01*
X104051070Y-44398999D01*
X104046844Y-44449999D01*
X104051070Y-44500998D01*
X104051500Y-44511403D01*
X104051500Y-45348649D01*
X104058009Y-45409196D01*
X104058011Y-45409204D01*
X104109110Y-45546202D01*
X104109112Y-45546207D01*
X104182687Y-45644491D01*
X104207498Y-45711011D01*
X104192407Y-45780385D01*
X104182687Y-45795509D01*
X104164268Y-45820114D01*
X104107433Y-45862661D01*
X104036617Y-45867726D01*
X103974307Y-45833702D01*
X103566644Y-45426039D01*
X103556679Y-45413601D01*
X103556452Y-45413790D01*
X103551401Y-45407684D01*
X103551400Y-45407682D01*
X103501748Y-45361056D01*
X103498905Y-45358300D01*
X103479177Y-45338571D01*
X103479171Y-45338566D01*
X103475967Y-45336080D01*
X103466956Y-45328383D01*
X103434725Y-45298117D01*
X103434719Y-45298113D01*
X103416963Y-45288351D01*
X103400447Y-45277502D01*
X103384441Y-45265086D01*
X103343864Y-45247527D01*
X103333207Y-45242305D01*
X103294463Y-45221006D01*
X103294460Y-45221005D01*
X103274836Y-45215966D01*
X103256136Y-45209564D01*
X103237545Y-45201519D01*
X103237543Y-45201518D01*
X103237541Y-45201518D01*
X103193874Y-45194601D01*
X103182255Y-45192195D01*
X103139430Y-45181200D01*
X103119176Y-45181200D01*
X103099466Y-45179649D01*
X103079457Y-45176480D01*
X103035439Y-45180641D01*
X103023581Y-45181200D01*
X89114500Y-45181200D01*
X89046379Y-45161198D01*
X88999886Y-45107542D01*
X88988500Y-45055200D01*
X88988500Y-44511403D01*
X88988930Y-44500998D01*
X88993156Y-44450000D01*
X88988930Y-44398999D01*
X88988500Y-44388595D01*
X88988500Y-44159062D01*
X89008502Y-44090941D01*
X89062158Y-44044448D01*
X89088303Y-44035815D01*
X89092921Y-44034833D01*
X89268588Y-43997494D01*
X89443052Y-43919818D01*
X89597553Y-43807566D01*
X89638401Y-43762200D01*
X89725334Y-43665651D01*
X89725335Y-43665649D01*
X89725340Y-43665644D01*
X89820827Y-43500256D01*
X89879842Y-43318628D01*
X89899804Y-43128700D01*
X89879842Y-42938772D01*
X89820827Y-42757144D01*
X89725340Y-42591756D01*
X89725338Y-42591754D01*
X89725334Y-42591748D01*
X89597555Y-42449835D01*
X89443052Y-42337582D01*
X89268588Y-42259906D01*
X89075328Y-42218827D01*
X89075721Y-42216977D01*
X89018501Y-42193434D01*
X89008235Y-42184234D01*
X88988001Y-42164000D01*
X88073001Y-42164000D01*
X88098682Y-42124040D01*
X88140000Y-41983327D01*
X88140000Y-41836673D01*
X88098682Y-41695960D01*
X88073001Y-41656000D01*
X88988000Y-41656000D01*
X88988000Y-41494100D01*
X89008002Y-41425979D01*
X89061658Y-41379486D01*
X89114000Y-41368100D01*
X89812206Y-41368100D01*
X89880327Y-41388102D01*
X89901301Y-41405005D01*
X89999954Y-41503658D01*
X90009921Y-41516098D01*
X90010148Y-41515911D01*
X90015200Y-41522018D01*
X90015201Y-41522019D01*
X90041166Y-41546402D01*
X90064867Y-41568658D01*
X90067711Y-41571415D01*
X90087427Y-41591132D01*
X90090624Y-41593612D01*
X90099645Y-41601317D01*
X90131880Y-41631587D01*
X90131881Y-41631587D01*
X90131883Y-41631589D01*
X90149630Y-41641345D01*
X90166160Y-41652203D01*
X90182160Y-41664614D01*
X90222737Y-41682173D01*
X90233388Y-41687391D01*
X90272141Y-41708696D01*
X90291763Y-41713734D01*
X90310464Y-41720136D01*
X90323015Y-41725568D01*
X90329053Y-41728181D01*
X90329054Y-41728181D01*
X90329056Y-41728182D01*
X90372731Y-41735099D01*
X90384342Y-41737503D01*
X90427171Y-41748501D01*
X90447425Y-41748501D01*
X90467135Y-41750052D01*
X90469342Y-41750401D01*
X90487144Y-41753221D01*
X90531162Y-41749059D01*
X90543020Y-41748501D01*
X101803146Y-41748501D01*
X101818987Y-41750250D01*
X101819015Y-41749957D01*
X101826901Y-41750701D01*
X101826908Y-41750703D01*
X101894985Y-41748563D01*
X101898944Y-41748501D01*
X101926850Y-41748501D01*
X101926855Y-41748501D01*
X101930866Y-41747993D01*
X101942698Y-41747062D01*
X101986888Y-41745674D01*
X102006346Y-41740020D01*
X102025693Y-41736014D01*
X102045796Y-41733475D01*
X102086909Y-41717196D01*
X102098129Y-41713354D01*
X102122912Y-41706155D01*
X102140590Y-41701020D01*
X102140594Y-41701018D01*
X102158025Y-41690709D01*
X102175779Y-41682010D01*
X102194616Y-41674553D01*
X102230391Y-41648559D01*
X102240297Y-41642052D01*
X102278361Y-41619543D01*
X102292684Y-41605219D01*
X102307723Y-41592375D01*
X102309434Y-41591132D01*
X102324106Y-41580473D01*
X102352302Y-41546387D01*
X102360271Y-41537631D01*
X103218356Y-40679546D01*
X103230796Y-40669583D01*
X103230607Y-40669355D01*
X103236711Y-40664304D01*
X103236717Y-40664301D01*
X103283361Y-40614628D01*
X103286051Y-40611852D01*
X103305834Y-40592071D01*
X103308313Y-40588874D01*
X103316010Y-40579860D01*
X103346285Y-40547622D01*
X103356045Y-40529866D01*
X103366894Y-40513351D01*
X103379313Y-40497342D01*
X103396878Y-40456747D01*
X103402083Y-40446122D01*
X103423394Y-40407361D01*
X103428432Y-40387735D01*
X103434836Y-40369033D01*
X103442880Y-40350446D01*
X103449795Y-40306782D01*
X103452203Y-40295153D01*
X103463199Y-40252331D01*
X103463199Y-40232076D01*
X103464750Y-40212364D01*
X103464806Y-40212012D01*
X103467919Y-40192358D01*
X103463758Y-40148337D01*
X103463199Y-40136480D01*
X103463199Y-38549595D01*
X103483201Y-38481474D01*
X103500099Y-38460504D01*
X103974305Y-37986297D01*
X104036616Y-37952274D01*
X104107431Y-37957338D01*
G37*
%TD.AperFunction*%
%TA.AperFunction,Conductor*%
G36*
X81180039Y-40023502D02*
G01*
X81226532Y-40077158D01*
X81236636Y-40147432D01*
X81221037Y-40192500D01*
X81129849Y-40350442D01*
X81122573Y-40363044D01*
X81109324Y-40403820D01*
X81063557Y-40544672D01*
X81043596Y-40734600D01*
X81063557Y-40924527D01*
X81091785Y-41011402D01*
X81122573Y-41106156D01*
X81122576Y-41106161D01*
X81218058Y-41271541D01*
X81218065Y-41271551D01*
X81345844Y-41413464D01*
X81384787Y-41441758D01*
X81500348Y-41525718D01*
X81674812Y-41603394D01*
X81861613Y-41643100D01*
X82052587Y-41643100D01*
X82239388Y-41603394D01*
X82413852Y-41525718D01*
X82568353Y-41413466D01*
X82571663Y-41409790D01*
X82632109Y-41372550D01*
X82665300Y-41368100D01*
X84346000Y-41368100D01*
X84414121Y-41388102D01*
X84460614Y-41441758D01*
X84472000Y-41494100D01*
X84472000Y-41656000D01*
X87186999Y-41656000D01*
X87161318Y-41695960D01*
X87120000Y-41836673D01*
X87120000Y-41983327D01*
X87161318Y-42124040D01*
X87186999Y-42164000D01*
X84472000Y-42164000D01*
X84472000Y-42369200D01*
X84451998Y-42437321D01*
X84398342Y-42483814D01*
X84346000Y-42495200D01*
X64323395Y-42495200D01*
X64255274Y-42475198D01*
X64234299Y-42458295D01*
X63767220Y-41991215D01*
X63733195Y-41928903D01*
X63731008Y-41915306D01*
X63713642Y-41750072D01*
X63654627Y-41568444D01*
X63559140Y-41403056D01*
X63559138Y-41403054D01*
X63559134Y-41403048D01*
X63431355Y-41261135D01*
X63276852Y-41148882D01*
X63102388Y-41071206D01*
X62915587Y-41031500D01*
X62724613Y-41031500D01*
X62537811Y-41071206D01*
X62363347Y-41148882D01*
X62208844Y-41261135D01*
X62081065Y-41403048D01*
X62081058Y-41403058D01*
X61985576Y-41568438D01*
X61985573Y-41568444D01*
X61984608Y-41571415D01*
X61926557Y-41750072D01*
X61908102Y-41925670D01*
X61881089Y-41991327D01*
X61822867Y-42031957D01*
X61782792Y-42038500D01*
X61639213Y-42038500D01*
X61452411Y-42078206D01*
X61277947Y-42155882D01*
X61123444Y-42268135D01*
X60995665Y-42410048D01*
X60995658Y-42410058D01*
X60900176Y-42575438D01*
X60900173Y-42575444D01*
X60889474Y-42608372D01*
X60853484Y-42719137D01*
X60813410Y-42777742D01*
X60748013Y-42805379D01*
X60733651Y-42806200D01*
X46869417Y-42806200D01*
X46801296Y-42786198D01*
X46754803Y-42732542D01*
X46744107Y-42693370D01*
X46733427Y-42591756D01*
X46725042Y-42511972D01*
X46666027Y-42330344D01*
X46570540Y-42164956D01*
X46570538Y-42164954D01*
X46570534Y-42164948D01*
X46442755Y-42023035D01*
X46288252Y-41910782D01*
X46113788Y-41833106D01*
X45926987Y-41793400D01*
X45736013Y-41793400D01*
X45549211Y-41833106D01*
X45374747Y-41910782D01*
X45220247Y-42023033D01*
X45216937Y-42026710D01*
X45156491Y-42063950D01*
X45123300Y-42068400D01*
X43360094Y-42068400D01*
X43291973Y-42048398D01*
X43245480Y-41994742D01*
X43235376Y-41924468D01*
X43264870Y-41859888D01*
X43270999Y-41853305D01*
X45083899Y-40040405D01*
X45146211Y-40006379D01*
X45172994Y-40003500D01*
X81111918Y-40003500D01*
X81180039Y-40023502D01*
G37*
%TD.AperFunction*%
%TD*%
M02*
