%TF.GenerationSoftware,KiCad,Pcbnew,7.0.10*%
%TF.CreationDate,2024-04-06T15:07:32+02:00*%
%TF.ProjectId,pico-sst39sf0x0-pcb,7069636f-2d73-4737-9433-397366307830,2*%
%TF.SameCoordinates,Original*%
%TF.FileFunction,Soldermask,Bot*%
%TF.FilePolarity,Negative*%
%FSLAX46Y46*%
G04 Gerber Fmt 4.6, Leading zero omitted, Abs format (unit mm)*
G04 Created by KiCad (PCBNEW 7.0.10) date 2024-04-06 15:07:32*
%MOMM*%
%LPD*%
G01*
G04 APERTURE LIST*
G04 Aperture macros list*
%AMRoundRect*
0 Rectangle with rounded corners*
0 $1 Rounding radius*
0 $2 $3 $4 $5 $6 $7 $8 $9 X,Y pos of 4 corners*
0 Add a 4 corners polygon primitive as box body*
4,1,4,$2,$3,$4,$5,$6,$7,$8,$9,$2,$3,0*
0 Add four circle primitives for the rounded corners*
1,1,$1+$1,$2,$3*
1,1,$1+$1,$4,$5*
1,1,$1+$1,$6,$7*
1,1,$1+$1,$8,$9*
0 Add four rect primitives between the rounded corners*
20,1,$1+$1,$2,$3,$4,$5,0*
20,1,$1+$1,$4,$5,$6,$7,0*
20,1,$1+$1,$6,$7,$8,$9,0*
20,1,$1+$1,$8,$9,$2,$3,0*%
G04 Aperture macros list end*
%ADD10O,1.800000X1.800000*%
%ADD11O,1.500000X1.500000*%
%ADD12O,1.700000X1.700000*%
%ADD13R,1.700000X1.700000*%
%ADD14R,1.440000X2.000000*%
%ADD15O,1.440000X2.000000*%
%ADD16C,2.000000*%
%ADD17C,3.200000*%
%ADD18C,1.800000*%
%ADD19R,1.800000X1.800000*%
%ADD20RoundRect,0.150000X0.587500X0.150000X-0.587500X0.150000X-0.587500X-0.150000X0.587500X-0.150000X0*%
%ADD21RoundRect,0.150000X-0.587500X-0.150000X0.587500X-0.150000X0.587500X0.150000X-0.587500X0.150000X0*%
%ADD22R,0.500000X0.800000*%
%ADD23R,0.400000X0.800000*%
%ADD24RoundRect,0.250000X-0.475000X0.250000X-0.475000X-0.250000X0.475000X-0.250000X0.475000X0.250000X0*%
%ADD25RoundRect,0.250000X-0.350000X-0.450000X0.350000X-0.450000X0.350000X0.450000X-0.350000X0.450000X0*%
%ADD26R,1.800000X2.500000*%
%ADD27R,0.800000X0.500000*%
%ADD28R,0.800000X0.400000*%
%ADD29RoundRect,0.150000X0.150000X-0.875000X0.150000X0.875000X-0.150000X0.875000X-0.150000X-0.875000X0*%
%ADD30RoundRect,0.250000X0.475000X-0.250000X0.475000X0.250000X-0.475000X0.250000X-0.475000X-0.250000X0*%
%ADD31RoundRect,0.250000X0.450000X-0.350000X0.450000X0.350000X-0.450000X0.350000X-0.450000X-0.350000X0*%
G04 APERTURE END LIST*
D10*
%TO.C,U5*%
X105225000Y-22990000D03*
D11*
X105525000Y-26020000D03*
X110375000Y-26020000D03*
D10*
X110675000Y-22990000D03*
D12*
X99060000Y-22860000D03*
X99060000Y-25400000D03*
D13*
X99060000Y-27940000D03*
D12*
X99060000Y-30480000D03*
X99060000Y-33020000D03*
X99060000Y-35560000D03*
X99060000Y-38100000D03*
D13*
X99060000Y-40640000D03*
D12*
X99060000Y-43180000D03*
X99060000Y-45720000D03*
X99060000Y-48260000D03*
X99060000Y-50800000D03*
D13*
X99060000Y-53340000D03*
D12*
X99060000Y-55880000D03*
X99060000Y-58420000D03*
X99060000Y-60960000D03*
X99060000Y-63500000D03*
D13*
X99060000Y-66040000D03*
D12*
X99060000Y-68580000D03*
X99060000Y-71120000D03*
X116840000Y-71120000D03*
X116840000Y-68580000D03*
D13*
X116840000Y-66040000D03*
D12*
X116840000Y-63500000D03*
X116840000Y-60960000D03*
X116840000Y-58420000D03*
X116840000Y-55880000D03*
D13*
X116840000Y-53340000D03*
D12*
X116840000Y-50800000D03*
X116840000Y-48260000D03*
X116840000Y-45720000D03*
X116840000Y-43180000D03*
D13*
X116840000Y-40640000D03*
D12*
X116840000Y-38100000D03*
X116840000Y-35560000D03*
X116840000Y-33020000D03*
X116840000Y-30480000D03*
D13*
X116840000Y-27940000D03*
D12*
X116840000Y-25400000D03*
X116840000Y-22860000D03*
X105410000Y-70890000D03*
D13*
X107950000Y-70890000D03*
D12*
X110490000Y-70890000D03*
%TD*%
D14*
%TO.C,U2*%
X37220000Y-60232500D03*
D15*
X39760000Y-60232500D03*
X42300000Y-60232500D03*
X44840000Y-60232500D03*
X47380000Y-60232500D03*
X49920000Y-60232500D03*
X52460000Y-60232500D03*
X55000000Y-60232500D03*
X57540000Y-60232500D03*
X60080000Y-60232500D03*
X62620000Y-60232500D03*
X65160000Y-60232500D03*
X67700000Y-60232500D03*
X70240000Y-60232500D03*
X72780000Y-60232500D03*
X75320000Y-60232500D03*
X75320000Y-44992500D03*
X72780000Y-44992500D03*
X70240000Y-44992500D03*
X67700000Y-44992500D03*
X65160000Y-44992500D03*
X62620000Y-44992500D03*
X60080000Y-44992500D03*
X57540000Y-44992500D03*
X55000000Y-44992500D03*
X52460000Y-44992500D03*
X49920000Y-44992500D03*
X47380000Y-44992500D03*
X44840000Y-44992500D03*
X42300000Y-44992500D03*
X39760000Y-44992500D03*
X37220000Y-44992500D03*
%TD*%
D16*
%TO.C,SW1*%
X41096000Y-73370000D03*
X34596000Y-73370000D03*
X41096000Y-68870000D03*
X34596000Y-68870000D03*
%TD*%
D17*
%TO.C,H2*%
X28956000Y-72644000D03*
%TD*%
D18*
%TO.C,D2*%
X48763000Y-71120000D03*
D19*
X46223000Y-71120000D03*
%TD*%
D17*
%TO.C,H3*%
X123444000Y-72644000D03*
%TD*%
%TO.C,H1*%
X28956000Y-25146000D03*
%TD*%
D19*
%TO.C,D3*%
X58674000Y-71120000D03*
D18*
X61214000Y-71120000D03*
%TD*%
D17*
%TO.C,H4*%
X123444000Y-25146000D03*
%TD*%
D20*
%TO.C,Q21*%
X80632500Y-35372000D03*
X80632500Y-37272000D03*
X78757500Y-36322000D03*
%TD*%
D21*
%TO.C,Q6*%
X42968200Y-26604000D03*
X42968200Y-24704000D03*
X44843200Y-25654000D03*
%TD*%
%TO.C,Q12*%
X58933900Y-26604000D03*
X58933900Y-24704000D03*
X60808900Y-25654000D03*
%TD*%
%TO.C,Q4*%
X71113800Y-68768000D03*
X71113800Y-66868000D03*
X72988800Y-67818000D03*
%TD*%
D22*
%TO.C,RN6*%
X81318000Y-62738000D03*
D23*
X80518000Y-62738000D03*
X79718000Y-62738000D03*
D22*
X78918000Y-62738000D03*
X78918000Y-60938000D03*
D23*
X79718000Y-60938000D03*
X80518000Y-60938000D03*
D22*
X81318000Y-60938000D03*
%TD*%
D24*
%TO.C,C4*%
X89916000Y-51628000D03*
X89916000Y-53528000D03*
%TD*%
D25*
%TO.C,R1*%
X36862000Y-71120000D03*
X38862000Y-71120000D03*
%TD*%
D21*
%TO.C,Q5*%
X34985400Y-26604000D03*
X34985400Y-24704000D03*
X36860400Y-25654000D03*
%TD*%
D22*
%TO.C,RN5*%
X54861500Y-29834000D03*
D23*
X55661500Y-29834000D03*
X56461500Y-29834000D03*
D22*
X57261500Y-29834000D03*
X57261500Y-31634000D03*
D23*
X56461500Y-31634000D03*
X55661500Y-31634000D03*
D22*
X54861500Y-31634000D03*
%TD*%
D20*
%TO.C,Q15*%
X47705500Y-35372000D03*
X47705500Y-37272000D03*
X45830500Y-36322000D03*
%TD*%
D24*
%TO.C,C3*%
X68580000Y-51694000D03*
X68580000Y-53594000D03*
%TD*%
D26*
%TO.C,D1*%
X28702000Y-46196000D03*
X28702000Y-42196000D03*
%TD*%
D27*
%TO.C,RN10*%
X67696000Y-37522000D03*
D28*
X67696000Y-36722000D03*
X67696000Y-35922000D03*
D27*
X67696000Y-35122000D03*
X69496000Y-35122000D03*
D28*
X69496000Y-35922000D03*
X69496000Y-36722000D03*
D27*
X69496000Y-37522000D03*
%TD*%
D21*
%TO.C,Q18*%
X74899700Y-26604000D03*
X74899700Y-24704000D03*
X76774700Y-25654000D03*
%TD*%
D27*
%TO.C,RN9*%
X51232500Y-37522000D03*
D28*
X51232500Y-36722000D03*
X51232500Y-35922000D03*
D27*
X51232500Y-35122000D03*
X53032500Y-35122000D03*
D28*
X53032500Y-35922000D03*
X53032500Y-36722000D03*
D27*
X53032500Y-37522000D03*
%TD*%
D21*
%TO.C,Q2*%
X80088500Y-68768000D03*
X80088500Y-66868000D03*
X81963500Y-67818000D03*
%TD*%
D20*
%TO.C,Q14*%
X41971000Y-35372000D03*
X41971000Y-37272000D03*
X40096000Y-36322000D03*
%TD*%
%TO.C,Q19*%
X64169000Y-35372000D03*
X64169000Y-37272000D03*
X62294000Y-36322000D03*
%TD*%
D25*
%TO.C,R3*%
X65945000Y-67056000D03*
X67945000Y-67056000D03*
%TD*%
D21*
%TO.C,Q1*%
X84575800Y-68768000D03*
X84575800Y-66868000D03*
X86450800Y-67818000D03*
%TD*%
D22*
%TO.C,RN2*%
X39621500Y-29834000D03*
D23*
X40421500Y-29834000D03*
X41221500Y-29834000D03*
D22*
X42021500Y-29834000D03*
X42021500Y-31634000D03*
D23*
X41221500Y-31634000D03*
X40421500Y-31634000D03*
D22*
X39621500Y-31634000D03*
%TD*%
%TO.C,RN1*%
X79940000Y-74306000D03*
D23*
X79140000Y-74306000D03*
X78340000Y-74306000D03*
D22*
X77540000Y-74306000D03*
X77540000Y-72506000D03*
D23*
X78340000Y-72506000D03*
X79140000Y-72506000D03*
D22*
X79940000Y-72506000D03*
%TD*%
D21*
%TO.C,Q9*%
X32844500Y-65720000D03*
X32844500Y-63820000D03*
X34719500Y-64770000D03*
%TD*%
D29*
%TO.C,U4*%
X86436200Y-57228000D03*
X85166200Y-57228000D03*
X83896200Y-57228000D03*
X82626200Y-57228000D03*
X81356200Y-57228000D03*
X80086200Y-57228000D03*
X78816200Y-57228000D03*
X77546200Y-57228000D03*
X76276200Y-57228000D03*
X75006200Y-57228000D03*
X75006200Y-47928000D03*
X76276200Y-47928000D03*
X77546200Y-47928000D03*
X78816200Y-47928000D03*
X80086200Y-47928000D03*
X81356200Y-47928000D03*
X82626200Y-47928000D03*
X83896200Y-47928000D03*
X85166200Y-47928000D03*
X86436200Y-47928000D03*
%TD*%
D20*
%TO.C,Q22*%
X91361500Y-35372000D03*
X91361500Y-37272000D03*
X89486500Y-36322000D03*
%TD*%
D21*
%TO.C,Q23*%
X82882500Y-26604000D03*
X82882500Y-24704000D03*
X84757500Y-25654000D03*
%TD*%
D30*
%TO.C,C1*%
X33782000Y-45042500D03*
X33782000Y-43142500D03*
%TD*%
D27*
%TO.C,RN7*%
X34769000Y-37522000D03*
D28*
X34769000Y-36722000D03*
X34769000Y-35922000D03*
D27*
X34769000Y-35122000D03*
X36569000Y-35122000D03*
D28*
X36569000Y-35922000D03*
X36569000Y-36722000D03*
D27*
X36569000Y-37522000D03*
%TD*%
D29*
%TO.C,U3*%
X43561000Y-57228000D03*
X42291000Y-57228000D03*
X41021000Y-57228000D03*
X39751000Y-57228000D03*
X38481000Y-57228000D03*
X37211000Y-57228000D03*
X35941000Y-57228000D03*
X34671000Y-57228000D03*
X33401000Y-57228000D03*
X32131000Y-57228000D03*
X32131000Y-47928000D03*
X33401000Y-47928000D03*
X34671000Y-47928000D03*
X35941000Y-47928000D03*
X37211000Y-47928000D03*
X38481000Y-47928000D03*
X39751000Y-47928000D03*
X41021000Y-47928000D03*
X42291000Y-47928000D03*
X43561000Y-47928000D03*
%TD*%
D24*
%TO.C,C2*%
X47498000Y-51562000D03*
X47498000Y-53462000D03*
%TD*%
D21*
%TO.C,Q10*%
X28018500Y-65720000D03*
X28018500Y-63820000D03*
X29893500Y-64770000D03*
%TD*%
%TO.C,Q24*%
X90865400Y-26604000D03*
X90865400Y-24704000D03*
X92740400Y-25654000D03*
%TD*%
%TO.C,Q17*%
X66916800Y-26604000D03*
X66916800Y-24704000D03*
X68791800Y-25654000D03*
%TD*%
D20*
%TO.C,Q13*%
X31242000Y-35372000D03*
X31242000Y-37272000D03*
X29367000Y-36322000D03*
%TD*%
D22*
%TO.C,RN8*%
X70101500Y-29834000D03*
D23*
X70901500Y-29834000D03*
X71701500Y-29834000D03*
D22*
X72501500Y-29834000D03*
X72501500Y-31634000D03*
D23*
X71701500Y-31634000D03*
X70901500Y-31634000D03*
D22*
X70101500Y-31634000D03*
%TD*%
D21*
%TO.C,Q3*%
X75601200Y-68768000D03*
X75601200Y-66868000D03*
X77476200Y-67818000D03*
%TD*%
%TO.C,Q11*%
X50951100Y-26604000D03*
X50951100Y-24704000D03*
X52826100Y-25654000D03*
%TD*%
D20*
%TO.C,Q16*%
X58434500Y-35372000D03*
X58434500Y-37272000D03*
X56559500Y-36322000D03*
%TD*%
D27*
%TO.C,RN12*%
X84159500Y-37522000D03*
D28*
X84159500Y-36722000D03*
X84159500Y-35922000D03*
D27*
X84159500Y-35122000D03*
X85959500Y-35122000D03*
D28*
X85959500Y-35922000D03*
X85959500Y-36722000D03*
D27*
X85959500Y-37522000D03*
%TD*%
D31*
%TO.C,R2*%
X54102000Y-73263000D03*
X54102000Y-71263000D03*
%TD*%
D21*
%TO.C,Q7*%
X41988500Y-65720000D03*
X41988500Y-63820000D03*
X43863500Y-64770000D03*
%TD*%
D29*
%TO.C,U1*%
X64998600Y-57228000D03*
X63728600Y-57228000D03*
X62458600Y-57228000D03*
X61188600Y-57228000D03*
X59918600Y-57228000D03*
X58648600Y-57228000D03*
X57378600Y-57228000D03*
X56108600Y-57228000D03*
X54838600Y-57228000D03*
X53568600Y-57228000D03*
X53568600Y-47928000D03*
X54838600Y-47928000D03*
X56108600Y-47928000D03*
X57378600Y-47928000D03*
X58648600Y-47928000D03*
X59918600Y-47928000D03*
X61188600Y-47928000D03*
X62458600Y-47928000D03*
X63728600Y-47928000D03*
X64998600Y-47928000D03*
%TD*%
D22*
%TO.C,RN11*%
X85341500Y-29834000D03*
D23*
X86141500Y-29834000D03*
X86941500Y-29834000D03*
D22*
X87741500Y-29834000D03*
X87741500Y-31634000D03*
D23*
X86941500Y-31634000D03*
X86141500Y-31634000D03*
D22*
X85341500Y-31634000D03*
%TD*%
%TO.C,RN4*%
X49568000Y-65554000D03*
D23*
X48768000Y-65554000D03*
X47968000Y-65554000D03*
D22*
X47168000Y-65554000D03*
X47168000Y-63754000D03*
D23*
X47968000Y-63754000D03*
X48768000Y-63754000D03*
D22*
X49568000Y-63754000D03*
%TD*%
D20*
%TO.C,Q20*%
X74898000Y-35372000D03*
X74898000Y-37272000D03*
X73023000Y-36322000D03*
%TD*%
D22*
%TO.C,RN3*%
X88684000Y-62738000D03*
D23*
X87884000Y-62738000D03*
X87084000Y-62738000D03*
D22*
X86284000Y-62738000D03*
X86284000Y-60938000D03*
D23*
X87084000Y-60938000D03*
X87884000Y-60938000D03*
D22*
X88684000Y-60938000D03*
%TD*%
D21*
%TO.C,Q8*%
X37416500Y-65720000D03*
X37416500Y-63820000D03*
X39291500Y-64770000D03*
%TD*%
M02*
