%TF.GenerationSoftware,KiCad,Pcbnew,7.0.10*%
%TF.CreationDate,2024-03-08T14:18:15+01:00*%
%TF.ProjectId,pico-sst39sf0x0-pcb,7069636f-2d73-4737-9433-397366307830,rev?*%
%TF.SameCoordinates,Original*%
%TF.FileFunction,Legend,Top*%
%TF.FilePolarity,Positive*%
%FSLAX46Y46*%
G04 Gerber Fmt 4.6, Leading zero omitted, Abs format (unit mm)*
G04 Created by KiCad (PCBNEW 7.0.10) date 2024-03-08 14:18:15*
%MOMM*%
%LPD*%
G01*
G04 APERTURE LIST*
%ADD10C,0.150000*%
%ADD11C,0.300000*%
%ADD12C,0.090000*%
%ADD13C,0.120000*%
%ADD14C,0.010000*%
G04 APERTURE END LIST*
D10*
X75438000Y-54229000D02*
X80518000Y-54229000D01*
X80518000Y-66929000D01*
X75438000Y-66929000D01*
X75438000Y-54229000D01*
G36*
X75438000Y-54229000D02*
G01*
X80518000Y-54229000D01*
X80518000Y-66929000D01*
X75438000Y-66929000D01*
X75438000Y-54229000D01*
G37*
X20066000Y-43688000D02*
X80518000Y-43688000D01*
X80518000Y-51562000D01*
X20066000Y-51562000D01*
X20066000Y-43688000D01*
G36*
X20066000Y-43688000D02*
G01*
X80518000Y-43688000D01*
X80518000Y-51562000D01*
X20066000Y-51562000D01*
X20066000Y-43688000D01*
G37*
X75438000Y-68707000D02*
X80518000Y-68707000D01*
X80518000Y-73787000D01*
X75438000Y-73787000D01*
X75438000Y-68707000D01*
G36*
X75438000Y-68707000D02*
G01*
X80518000Y-68707000D01*
X80518000Y-73787000D01*
X75438000Y-73787000D01*
X75438000Y-68707000D01*
G37*
X37036951Y-66002819D02*
X37036951Y-66717104D01*
X37036951Y-66717104D02*
X36989332Y-66859961D01*
X36989332Y-66859961D02*
X36894094Y-66955200D01*
X36894094Y-66955200D02*
X36751237Y-67002819D01*
X36751237Y-67002819D02*
X36655999Y-67002819D01*
X37989332Y-67002819D02*
X37513142Y-67002819D01*
X37513142Y-67002819D02*
X37513142Y-66002819D01*
X38894094Y-66907580D02*
X38846475Y-66955200D01*
X38846475Y-66955200D02*
X38703618Y-67002819D01*
X38703618Y-67002819D02*
X38608380Y-67002819D01*
X38608380Y-67002819D02*
X38465523Y-66955200D01*
X38465523Y-66955200D02*
X38370285Y-66859961D01*
X38370285Y-66859961D02*
X38322666Y-66764723D01*
X38322666Y-66764723D02*
X38275047Y-66574247D01*
X38275047Y-66574247D02*
X38275047Y-66431390D01*
X38275047Y-66431390D02*
X38322666Y-66240914D01*
X38322666Y-66240914D02*
X38370285Y-66145676D01*
X38370285Y-66145676D02*
X38465523Y-66050438D01*
X38465523Y-66050438D02*
X38608380Y-66002819D01*
X38608380Y-66002819D02*
X38703618Y-66002819D01*
X38703618Y-66002819D02*
X38846475Y-66050438D01*
X38846475Y-66050438D02*
X38894094Y-66098057D01*
X39608380Y-66002819D02*
X39608380Y-66717104D01*
X39608380Y-66717104D02*
X39560761Y-66859961D01*
X39560761Y-66859961D02*
X39465523Y-66955200D01*
X39465523Y-66955200D02*
X39322666Y-67002819D01*
X39322666Y-67002819D02*
X39227428Y-67002819D01*
X40560761Y-67002819D02*
X40084571Y-67002819D01*
X40084571Y-67002819D02*
X40084571Y-66002819D01*
X41465523Y-66907580D02*
X41417904Y-66955200D01*
X41417904Y-66955200D02*
X41275047Y-67002819D01*
X41275047Y-67002819D02*
X41179809Y-67002819D01*
X41179809Y-67002819D02*
X41036952Y-66955200D01*
X41036952Y-66955200D02*
X40941714Y-66859961D01*
X40941714Y-66859961D02*
X40894095Y-66764723D01*
X40894095Y-66764723D02*
X40846476Y-66574247D01*
X40846476Y-66574247D02*
X40846476Y-66431390D01*
X40846476Y-66431390D02*
X40894095Y-66240914D01*
X40894095Y-66240914D02*
X40941714Y-66145676D01*
X40941714Y-66145676D02*
X41036952Y-66050438D01*
X41036952Y-66050438D02*
X41179809Y-66002819D01*
X41179809Y-66002819D02*
X41275047Y-66002819D01*
X41275047Y-66002819D02*
X41417904Y-66050438D01*
X41417904Y-66050438D02*
X41465523Y-66098057D01*
X42179809Y-66002819D02*
X42179809Y-66717104D01*
X42179809Y-66717104D02*
X42132190Y-66859961D01*
X42132190Y-66859961D02*
X42036952Y-66955200D01*
X42036952Y-66955200D02*
X41894095Y-67002819D01*
X41894095Y-67002819D02*
X41798857Y-67002819D01*
X43132190Y-67002819D02*
X42656000Y-67002819D01*
X42656000Y-67002819D02*
X42656000Y-66002819D01*
X44036952Y-66907580D02*
X43989333Y-66955200D01*
X43989333Y-66955200D02*
X43846476Y-67002819D01*
X43846476Y-67002819D02*
X43751238Y-67002819D01*
X43751238Y-67002819D02*
X43608381Y-66955200D01*
X43608381Y-66955200D02*
X43513143Y-66859961D01*
X43513143Y-66859961D02*
X43465524Y-66764723D01*
X43465524Y-66764723D02*
X43417905Y-66574247D01*
X43417905Y-66574247D02*
X43417905Y-66431390D01*
X43417905Y-66431390D02*
X43465524Y-66240914D01*
X43465524Y-66240914D02*
X43513143Y-66145676D01*
X43513143Y-66145676D02*
X43608381Y-66050438D01*
X43608381Y-66050438D02*
X43751238Y-66002819D01*
X43751238Y-66002819D02*
X43846476Y-66002819D01*
X43846476Y-66002819D02*
X43989333Y-66050438D01*
X43989333Y-66050438D02*
X44036952Y-66098057D01*
X44751238Y-66002819D02*
X44751238Y-66717104D01*
X44751238Y-66717104D02*
X44703619Y-66859961D01*
X44703619Y-66859961D02*
X44608381Y-66955200D01*
X44608381Y-66955200D02*
X44465524Y-67002819D01*
X44465524Y-67002819D02*
X44370286Y-67002819D01*
X45703619Y-67002819D02*
X45227429Y-67002819D01*
X45227429Y-67002819D02*
X45227429Y-66002819D01*
X46608381Y-66907580D02*
X46560762Y-66955200D01*
X46560762Y-66955200D02*
X46417905Y-67002819D01*
X46417905Y-67002819D02*
X46322667Y-67002819D01*
X46322667Y-67002819D02*
X46179810Y-66955200D01*
X46179810Y-66955200D02*
X46084572Y-66859961D01*
X46084572Y-66859961D02*
X46036953Y-66764723D01*
X46036953Y-66764723D02*
X45989334Y-66574247D01*
X45989334Y-66574247D02*
X45989334Y-66431390D01*
X45989334Y-66431390D02*
X46036953Y-66240914D01*
X46036953Y-66240914D02*
X46084572Y-66145676D01*
X46084572Y-66145676D02*
X46179810Y-66050438D01*
X46179810Y-66050438D02*
X46322667Y-66002819D01*
X46322667Y-66002819D02*
X46417905Y-66002819D01*
X46417905Y-66002819D02*
X46560762Y-66050438D01*
X46560762Y-66050438D02*
X46608381Y-66098057D01*
X78144857Y-42872819D02*
X78144857Y-42206152D01*
X78144857Y-42396628D02*
X78192476Y-42301390D01*
X78192476Y-42301390D02*
X78240095Y-42253771D01*
X78240095Y-42253771D02*
X78335333Y-42206152D01*
X78335333Y-42206152D02*
X78430571Y-42206152D01*
X79144857Y-42825200D02*
X79049619Y-42872819D01*
X79049619Y-42872819D02*
X78859143Y-42872819D01*
X78859143Y-42872819D02*
X78763905Y-42825200D01*
X78763905Y-42825200D02*
X78716286Y-42729961D01*
X78716286Y-42729961D02*
X78716286Y-42349009D01*
X78716286Y-42349009D02*
X78763905Y-42253771D01*
X78763905Y-42253771D02*
X78859143Y-42206152D01*
X78859143Y-42206152D02*
X79049619Y-42206152D01*
X79049619Y-42206152D02*
X79144857Y-42253771D01*
X79144857Y-42253771D02*
X79192476Y-42349009D01*
X79192476Y-42349009D02*
X79192476Y-42444247D01*
X79192476Y-42444247D02*
X78716286Y-42539485D01*
X79525810Y-42206152D02*
X79763905Y-42872819D01*
X79763905Y-42872819D02*
X80002000Y-42206152D01*
X80335334Y-41968057D02*
X80382953Y-41920438D01*
X80382953Y-41920438D02*
X80478191Y-41872819D01*
X80478191Y-41872819D02*
X80716286Y-41872819D01*
X80716286Y-41872819D02*
X80811524Y-41920438D01*
X80811524Y-41920438D02*
X80859143Y-41968057D01*
X80859143Y-41968057D02*
X80906762Y-42063295D01*
X80906762Y-42063295D02*
X80906762Y-42158533D01*
X80906762Y-42158533D02*
X80859143Y-42301390D01*
X80859143Y-42301390D02*
X80287715Y-42872819D01*
X80287715Y-42872819D02*
X80906762Y-42872819D01*
D11*
X22815999Y-41504257D02*
X22815999Y-38504257D01*
X22815999Y-38504257D02*
X23958856Y-38504257D01*
X23958856Y-38504257D02*
X24244571Y-38647114D01*
X24244571Y-38647114D02*
X24387428Y-38789971D01*
X24387428Y-38789971D02*
X24530285Y-39075685D01*
X24530285Y-39075685D02*
X24530285Y-39504257D01*
X24530285Y-39504257D02*
X24387428Y-39789971D01*
X24387428Y-39789971D02*
X24244571Y-39932828D01*
X24244571Y-39932828D02*
X23958856Y-40075685D01*
X23958856Y-40075685D02*
X22815999Y-40075685D01*
X25815999Y-41504257D02*
X25815999Y-38504257D01*
X28958856Y-41218542D02*
X28815999Y-41361400D01*
X28815999Y-41361400D02*
X28387427Y-41504257D01*
X28387427Y-41504257D02*
X28101713Y-41504257D01*
X28101713Y-41504257D02*
X27673142Y-41361400D01*
X27673142Y-41361400D02*
X27387427Y-41075685D01*
X27387427Y-41075685D02*
X27244570Y-40789971D01*
X27244570Y-40789971D02*
X27101713Y-40218542D01*
X27101713Y-40218542D02*
X27101713Y-39789971D01*
X27101713Y-39789971D02*
X27244570Y-39218542D01*
X27244570Y-39218542D02*
X27387427Y-38932828D01*
X27387427Y-38932828D02*
X27673142Y-38647114D01*
X27673142Y-38647114D02*
X28101713Y-38504257D01*
X28101713Y-38504257D02*
X28387427Y-38504257D01*
X28387427Y-38504257D02*
X28815999Y-38647114D01*
X28815999Y-38647114D02*
X28958856Y-38789971D01*
X30815999Y-38504257D02*
X31387427Y-38504257D01*
X31387427Y-38504257D02*
X31673142Y-38647114D01*
X31673142Y-38647114D02*
X31958856Y-38932828D01*
X31958856Y-38932828D02*
X32101713Y-39504257D01*
X32101713Y-39504257D02*
X32101713Y-40504257D01*
X32101713Y-40504257D02*
X31958856Y-41075685D01*
X31958856Y-41075685D02*
X31673142Y-41361400D01*
X31673142Y-41361400D02*
X31387427Y-41504257D01*
X31387427Y-41504257D02*
X30815999Y-41504257D01*
X30815999Y-41504257D02*
X30530285Y-41361400D01*
X30530285Y-41361400D02*
X30244570Y-41075685D01*
X30244570Y-41075685D02*
X30101713Y-40504257D01*
X30101713Y-40504257D02*
X30101713Y-39504257D01*
X30101713Y-39504257D02*
X30244570Y-38932828D01*
X30244570Y-38932828D02*
X30530285Y-38647114D01*
X30530285Y-38647114D02*
X30815999Y-38504257D01*
X34387427Y-39932828D02*
X33387427Y-39932828D01*
X33387427Y-41504257D02*
X33387427Y-38504257D01*
X33387427Y-38504257D02*
X34815999Y-38504257D01*
X37387428Y-41504257D02*
X35958856Y-41504257D01*
X35958856Y-41504257D02*
X35958856Y-38504257D01*
X38244570Y-40647114D02*
X39673142Y-40647114D01*
X37958856Y-41504257D02*
X38958856Y-38504257D01*
X38958856Y-38504257D02*
X39958856Y-41504257D01*
X40815999Y-41361400D02*
X41244571Y-41504257D01*
X41244571Y-41504257D02*
X41958856Y-41504257D01*
X41958856Y-41504257D02*
X42244571Y-41361400D01*
X42244571Y-41361400D02*
X42387428Y-41218542D01*
X42387428Y-41218542D02*
X42530285Y-40932828D01*
X42530285Y-40932828D02*
X42530285Y-40647114D01*
X42530285Y-40647114D02*
X42387428Y-40361400D01*
X42387428Y-40361400D02*
X42244571Y-40218542D01*
X42244571Y-40218542D02*
X41958856Y-40075685D01*
X41958856Y-40075685D02*
X41387428Y-39932828D01*
X41387428Y-39932828D02*
X41101713Y-39789971D01*
X41101713Y-39789971D02*
X40958856Y-39647114D01*
X40958856Y-39647114D02*
X40815999Y-39361400D01*
X40815999Y-39361400D02*
X40815999Y-39075685D01*
X40815999Y-39075685D02*
X40958856Y-38789971D01*
X40958856Y-38789971D02*
X41101713Y-38647114D01*
X41101713Y-38647114D02*
X41387428Y-38504257D01*
X41387428Y-38504257D02*
X42101713Y-38504257D01*
X42101713Y-38504257D02*
X42530285Y-38647114D01*
X43815999Y-41504257D02*
X43815999Y-38504257D01*
X43815999Y-39932828D02*
X45530285Y-39932828D01*
X45530285Y-41504257D02*
X45530285Y-38504257D01*
X46958856Y-39932828D02*
X47958856Y-39932828D01*
X48387428Y-41504257D02*
X46958856Y-41504257D01*
X46958856Y-41504257D02*
X46958856Y-38504257D01*
X46958856Y-38504257D02*
X48387428Y-38504257D01*
X51387428Y-41504257D02*
X50387428Y-40075685D01*
X49673142Y-41504257D02*
X49673142Y-38504257D01*
X49673142Y-38504257D02*
X50815999Y-38504257D01*
X50815999Y-38504257D02*
X51101714Y-38647114D01*
X51101714Y-38647114D02*
X51244571Y-38789971D01*
X51244571Y-38789971D02*
X51387428Y-39075685D01*
X51387428Y-39075685D02*
X51387428Y-39504257D01*
X51387428Y-39504257D02*
X51244571Y-39789971D01*
X51244571Y-39789971D02*
X51101714Y-39932828D01*
X51101714Y-39932828D02*
X50815999Y-40075685D01*
X50815999Y-40075685D02*
X49673142Y-40075685D01*
X54815999Y-41361400D02*
X55244571Y-41504257D01*
X55244571Y-41504257D02*
X55958856Y-41504257D01*
X55958856Y-41504257D02*
X56244571Y-41361400D01*
X56244571Y-41361400D02*
X56387428Y-41218542D01*
X56387428Y-41218542D02*
X56530285Y-40932828D01*
X56530285Y-40932828D02*
X56530285Y-40647114D01*
X56530285Y-40647114D02*
X56387428Y-40361400D01*
X56387428Y-40361400D02*
X56244571Y-40218542D01*
X56244571Y-40218542D02*
X55958856Y-40075685D01*
X55958856Y-40075685D02*
X55387428Y-39932828D01*
X55387428Y-39932828D02*
X55101713Y-39789971D01*
X55101713Y-39789971D02*
X54958856Y-39647114D01*
X54958856Y-39647114D02*
X54815999Y-39361400D01*
X54815999Y-39361400D02*
X54815999Y-39075685D01*
X54815999Y-39075685D02*
X54958856Y-38789971D01*
X54958856Y-38789971D02*
X55101713Y-38647114D01*
X55101713Y-38647114D02*
X55387428Y-38504257D01*
X55387428Y-38504257D02*
X56101713Y-38504257D01*
X56101713Y-38504257D02*
X56530285Y-38647114D01*
X57673142Y-41361400D02*
X58101714Y-41504257D01*
X58101714Y-41504257D02*
X58815999Y-41504257D01*
X58815999Y-41504257D02*
X59101714Y-41361400D01*
X59101714Y-41361400D02*
X59244571Y-41218542D01*
X59244571Y-41218542D02*
X59387428Y-40932828D01*
X59387428Y-40932828D02*
X59387428Y-40647114D01*
X59387428Y-40647114D02*
X59244571Y-40361400D01*
X59244571Y-40361400D02*
X59101714Y-40218542D01*
X59101714Y-40218542D02*
X58815999Y-40075685D01*
X58815999Y-40075685D02*
X58244571Y-39932828D01*
X58244571Y-39932828D02*
X57958856Y-39789971D01*
X57958856Y-39789971D02*
X57815999Y-39647114D01*
X57815999Y-39647114D02*
X57673142Y-39361400D01*
X57673142Y-39361400D02*
X57673142Y-39075685D01*
X57673142Y-39075685D02*
X57815999Y-38789971D01*
X57815999Y-38789971D02*
X57958856Y-38647114D01*
X57958856Y-38647114D02*
X58244571Y-38504257D01*
X58244571Y-38504257D02*
X58958856Y-38504257D01*
X58958856Y-38504257D02*
X59387428Y-38647114D01*
X60244571Y-38504257D02*
X61958857Y-38504257D01*
X61101714Y-41504257D02*
X61101714Y-38504257D01*
X62673142Y-38504257D02*
X64530285Y-38504257D01*
X64530285Y-38504257D02*
X63530285Y-39647114D01*
X63530285Y-39647114D02*
X63958856Y-39647114D01*
X63958856Y-39647114D02*
X64244571Y-39789971D01*
X64244571Y-39789971D02*
X64387428Y-39932828D01*
X64387428Y-39932828D02*
X64530285Y-40218542D01*
X64530285Y-40218542D02*
X64530285Y-40932828D01*
X64530285Y-40932828D02*
X64387428Y-41218542D01*
X64387428Y-41218542D02*
X64244571Y-41361400D01*
X64244571Y-41361400D02*
X63958856Y-41504257D01*
X63958856Y-41504257D02*
X63101713Y-41504257D01*
X63101713Y-41504257D02*
X62815999Y-41361400D01*
X62815999Y-41361400D02*
X62673142Y-41218542D01*
X65958856Y-41504257D02*
X66530285Y-41504257D01*
X66530285Y-41504257D02*
X66815999Y-41361400D01*
X66815999Y-41361400D02*
X66958856Y-41218542D01*
X66958856Y-41218542D02*
X67244571Y-40789971D01*
X67244571Y-40789971D02*
X67387428Y-40218542D01*
X67387428Y-40218542D02*
X67387428Y-39075685D01*
X67387428Y-39075685D02*
X67244571Y-38789971D01*
X67244571Y-38789971D02*
X67101714Y-38647114D01*
X67101714Y-38647114D02*
X66815999Y-38504257D01*
X66815999Y-38504257D02*
X66244571Y-38504257D01*
X66244571Y-38504257D02*
X65958856Y-38647114D01*
X65958856Y-38647114D02*
X65815999Y-38789971D01*
X65815999Y-38789971D02*
X65673142Y-39075685D01*
X65673142Y-39075685D02*
X65673142Y-39789971D01*
X65673142Y-39789971D02*
X65815999Y-40075685D01*
X65815999Y-40075685D02*
X65958856Y-40218542D01*
X65958856Y-40218542D02*
X66244571Y-40361400D01*
X66244571Y-40361400D02*
X66815999Y-40361400D01*
X66815999Y-40361400D02*
X67101714Y-40218542D01*
X67101714Y-40218542D02*
X67244571Y-40075685D01*
X67244571Y-40075685D02*
X67387428Y-39789971D01*
X68530285Y-41361400D02*
X68958857Y-41504257D01*
X68958857Y-41504257D02*
X69673142Y-41504257D01*
X69673142Y-41504257D02*
X69958857Y-41361400D01*
X69958857Y-41361400D02*
X70101714Y-41218542D01*
X70101714Y-41218542D02*
X70244571Y-40932828D01*
X70244571Y-40932828D02*
X70244571Y-40647114D01*
X70244571Y-40647114D02*
X70101714Y-40361400D01*
X70101714Y-40361400D02*
X69958857Y-40218542D01*
X69958857Y-40218542D02*
X69673142Y-40075685D01*
X69673142Y-40075685D02*
X69101714Y-39932828D01*
X69101714Y-39932828D02*
X68815999Y-39789971D01*
X68815999Y-39789971D02*
X68673142Y-39647114D01*
X68673142Y-39647114D02*
X68530285Y-39361400D01*
X68530285Y-39361400D02*
X68530285Y-39075685D01*
X68530285Y-39075685D02*
X68673142Y-38789971D01*
X68673142Y-38789971D02*
X68815999Y-38647114D01*
X68815999Y-38647114D02*
X69101714Y-38504257D01*
X69101714Y-38504257D02*
X69815999Y-38504257D01*
X69815999Y-38504257D02*
X70244571Y-38647114D01*
X72530285Y-39932828D02*
X71530285Y-39932828D01*
X71530285Y-41504257D02*
X71530285Y-38504257D01*
X71530285Y-38504257D02*
X72958857Y-38504257D01*
X74673143Y-38504257D02*
X74958857Y-38504257D01*
X74958857Y-38504257D02*
X75244571Y-38647114D01*
X75244571Y-38647114D02*
X75387429Y-38789971D01*
X75387429Y-38789971D02*
X75530286Y-39075685D01*
X75530286Y-39075685D02*
X75673143Y-39647114D01*
X75673143Y-39647114D02*
X75673143Y-40361400D01*
X75673143Y-40361400D02*
X75530286Y-40932828D01*
X75530286Y-40932828D02*
X75387429Y-41218542D01*
X75387429Y-41218542D02*
X75244571Y-41361400D01*
X75244571Y-41361400D02*
X74958857Y-41504257D01*
X74958857Y-41504257D02*
X74673143Y-41504257D01*
X74673143Y-41504257D02*
X74387429Y-41361400D01*
X74387429Y-41361400D02*
X74244571Y-41218542D01*
X74244571Y-41218542D02*
X74101714Y-40932828D01*
X74101714Y-40932828D02*
X73958857Y-40361400D01*
X73958857Y-40361400D02*
X73958857Y-39647114D01*
X73958857Y-39647114D02*
X74101714Y-39075685D01*
X74101714Y-39075685D02*
X74244571Y-38789971D01*
X74244571Y-38789971D02*
X74387429Y-38647114D01*
X74387429Y-38647114D02*
X74673143Y-38504257D01*
X76673143Y-41504257D02*
X78244572Y-39504257D01*
X76673143Y-39504257D02*
X78244572Y-41504257D01*
X79958857Y-38504257D02*
X80244571Y-38504257D01*
X80244571Y-38504257D02*
X80530285Y-38647114D01*
X80530285Y-38647114D02*
X80673143Y-38789971D01*
X80673143Y-38789971D02*
X80816000Y-39075685D01*
X80816000Y-39075685D02*
X80958857Y-39647114D01*
X80958857Y-39647114D02*
X80958857Y-40361400D01*
X80958857Y-40361400D02*
X80816000Y-40932828D01*
X80816000Y-40932828D02*
X80673143Y-41218542D01*
X80673143Y-41218542D02*
X80530285Y-41361400D01*
X80530285Y-41361400D02*
X80244571Y-41504257D01*
X80244571Y-41504257D02*
X79958857Y-41504257D01*
X79958857Y-41504257D02*
X79673143Y-41361400D01*
X79673143Y-41361400D02*
X79530285Y-41218542D01*
X79530285Y-41218542D02*
X79387428Y-40932828D01*
X79387428Y-40932828D02*
X79244571Y-40361400D01*
X79244571Y-40361400D02*
X79244571Y-39647114D01*
X79244571Y-39647114D02*
X79387428Y-39075685D01*
X79387428Y-39075685D02*
X79530285Y-38789971D01*
X79530285Y-38789971D02*
X79673143Y-38647114D01*
X79673143Y-38647114D02*
X79958857Y-38504257D01*
D10*
X95758095Y-60414819D02*
X95758095Y-61224342D01*
X95758095Y-61224342D02*
X95805714Y-61319580D01*
X95805714Y-61319580D02*
X95853333Y-61367200D01*
X95853333Y-61367200D02*
X95948571Y-61414819D01*
X95948571Y-61414819D02*
X96139047Y-61414819D01*
X96139047Y-61414819D02*
X96234285Y-61367200D01*
X96234285Y-61367200D02*
X96281904Y-61319580D01*
X96281904Y-61319580D02*
X96329523Y-61224342D01*
X96329523Y-61224342D02*
X96329523Y-60414819D01*
X97281904Y-60414819D02*
X96805714Y-60414819D01*
X96805714Y-60414819D02*
X96758095Y-60891009D01*
X96758095Y-60891009D02*
X96805714Y-60843390D01*
X96805714Y-60843390D02*
X96900952Y-60795771D01*
X96900952Y-60795771D02*
X97139047Y-60795771D01*
X97139047Y-60795771D02*
X97234285Y-60843390D01*
X97234285Y-60843390D02*
X97281904Y-60891009D01*
X97281904Y-60891009D02*
X97329523Y-60986247D01*
X97329523Y-60986247D02*
X97329523Y-61224342D01*
X97329523Y-61224342D02*
X97281904Y-61319580D01*
X97281904Y-61319580D02*
X97234285Y-61367200D01*
X97234285Y-61367200D02*
X97139047Y-61414819D01*
X97139047Y-61414819D02*
X96900952Y-61414819D01*
X96900952Y-61414819D02*
X96805714Y-61367200D01*
X96805714Y-61367200D02*
X96758095Y-61319580D01*
X82363998Y-75320868D02*
X82283185Y-75347805D01*
X82283185Y-75347805D02*
X82202373Y-75428618D01*
X82202373Y-75428618D02*
X82148498Y-75536367D01*
X82148498Y-75536367D02*
X82148498Y-75644117D01*
X82148498Y-75644117D02*
X82175436Y-75724929D01*
X82175436Y-75724929D02*
X82256248Y-75859616D01*
X82256248Y-75859616D02*
X82337060Y-75940428D01*
X82337060Y-75940428D02*
X82471747Y-76021241D01*
X82471747Y-76021241D02*
X82552560Y-76048178D01*
X82552560Y-76048178D02*
X82660309Y-76048178D01*
X82660309Y-76048178D02*
X82768059Y-75994303D01*
X82768059Y-75994303D02*
X82821934Y-75940428D01*
X82821934Y-75940428D02*
X82875808Y-75832679D01*
X82875808Y-75832679D02*
X82875808Y-75778804D01*
X82875808Y-75778804D02*
X82687247Y-75590242D01*
X82687247Y-75590242D02*
X82579497Y-75697992D01*
X83172120Y-75590242D02*
X82606434Y-75024557D01*
X82606434Y-75024557D02*
X82821934Y-74809057D01*
X82821934Y-74809057D02*
X82902746Y-74782120D01*
X82902746Y-74782120D02*
X82956621Y-74782120D01*
X82956621Y-74782120D02*
X83037433Y-74809057D01*
X83037433Y-74809057D02*
X83118245Y-74889870D01*
X83118245Y-74889870D02*
X83145182Y-74970682D01*
X83145182Y-74970682D02*
X83145182Y-75024557D01*
X83145182Y-75024557D02*
X83118245Y-75105369D01*
X83118245Y-75105369D02*
X82902746Y-75320868D01*
X84034117Y-74728245D02*
X83710868Y-75051494D01*
X83872492Y-74889870D02*
X83306807Y-74324184D01*
X83306807Y-74324184D02*
X83333744Y-74458871D01*
X83333744Y-74458871D02*
X83333744Y-74566621D01*
X83333744Y-74566621D02*
X83306807Y-74647433D01*
X83737805Y-74000935D02*
X83737805Y-73947060D01*
X83737805Y-73947060D02*
X83764743Y-73866248D01*
X83764743Y-73866248D02*
X83899430Y-73731561D01*
X83899430Y-73731561D02*
X83980242Y-73704624D01*
X83980242Y-73704624D02*
X84034117Y-73704624D01*
X84034117Y-73704624D02*
X84114929Y-73731561D01*
X84114929Y-73731561D02*
X84168804Y-73785436D01*
X84168804Y-73785436D02*
X84222679Y-73893186D01*
X84222679Y-73893186D02*
X84222679Y-74539683D01*
X84222679Y-74539683D02*
X84572865Y-74189497D01*
X108606435Y-67458431D02*
X108525623Y-67485368D01*
X108525623Y-67485368D02*
X108444811Y-67566180D01*
X108444811Y-67566180D02*
X108390936Y-67673930D01*
X108390936Y-67673930D02*
X108390936Y-67781680D01*
X108390936Y-67781680D02*
X108417873Y-67862492D01*
X108417873Y-67862492D02*
X108498685Y-67997179D01*
X108498685Y-67997179D02*
X108579498Y-68077991D01*
X108579498Y-68077991D02*
X108714185Y-68158803D01*
X108714185Y-68158803D02*
X108794997Y-68185741D01*
X108794997Y-68185741D02*
X108902746Y-68185741D01*
X108902746Y-68185741D02*
X109010496Y-68131866D01*
X109010496Y-68131866D02*
X109064371Y-68077991D01*
X109064371Y-68077991D02*
X109118246Y-67970241D01*
X109118246Y-67970241D02*
X109118246Y-67916367D01*
X109118246Y-67916367D02*
X108929684Y-67727805D01*
X108929684Y-67727805D02*
X108821934Y-67835554D01*
X109414557Y-67727805D02*
X108848872Y-67162119D01*
X108848872Y-67162119D02*
X109737806Y-67404556D01*
X109737806Y-67404556D02*
X109172120Y-66838871D01*
X110007180Y-67135182D02*
X109441494Y-66569497D01*
X109441494Y-66569497D02*
X109576181Y-66434810D01*
X109576181Y-66434810D02*
X109683931Y-66380935D01*
X109683931Y-66380935D02*
X109791680Y-66380935D01*
X109791680Y-66380935D02*
X109872493Y-66407872D01*
X109872493Y-66407872D02*
X110007180Y-66488685D01*
X110007180Y-66488685D02*
X110087992Y-66569497D01*
X110087992Y-66569497D02*
X110168804Y-66704184D01*
X110168804Y-66704184D02*
X110195741Y-66784996D01*
X110195741Y-66784996D02*
X110195741Y-66892746D01*
X110195741Y-66892746D02*
X110141867Y-67000495D01*
X110141867Y-67000495D02*
X110007180Y-67135182D01*
X82463998Y-82940868D02*
X82383185Y-82967805D01*
X82383185Y-82967805D02*
X82302373Y-83048618D01*
X82302373Y-83048618D02*
X82248498Y-83156367D01*
X82248498Y-83156367D02*
X82248498Y-83264117D01*
X82248498Y-83264117D02*
X82275436Y-83344929D01*
X82275436Y-83344929D02*
X82356248Y-83479616D01*
X82356248Y-83479616D02*
X82437060Y-83560428D01*
X82437060Y-83560428D02*
X82571747Y-83641241D01*
X82571747Y-83641241D02*
X82652560Y-83668178D01*
X82652560Y-83668178D02*
X82760309Y-83668178D01*
X82760309Y-83668178D02*
X82868059Y-83614303D01*
X82868059Y-83614303D02*
X82921934Y-83560428D01*
X82921934Y-83560428D02*
X82975808Y-83452679D01*
X82975808Y-83452679D02*
X82975808Y-83398804D01*
X82975808Y-83398804D02*
X82787247Y-83210242D01*
X82787247Y-83210242D02*
X82679497Y-83317992D01*
X83272120Y-83210242D02*
X82706434Y-82644557D01*
X82706434Y-82644557D02*
X82921934Y-82429057D01*
X82921934Y-82429057D02*
X83002746Y-82402120D01*
X83002746Y-82402120D02*
X83056621Y-82402120D01*
X83056621Y-82402120D02*
X83137433Y-82429057D01*
X83137433Y-82429057D02*
X83218245Y-82509870D01*
X83218245Y-82509870D02*
X83245182Y-82590682D01*
X83245182Y-82590682D02*
X83245182Y-82644557D01*
X83245182Y-82644557D02*
X83218245Y-82725369D01*
X83218245Y-82725369D02*
X83002746Y-82940868D01*
X84134117Y-82348245D02*
X83810868Y-82671494D01*
X83972492Y-82509870D02*
X83406807Y-81944184D01*
X83406807Y-81944184D02*
X83433744Y-82078871D01*
X83433744Y-82078871D02*
X83433744Y-82186621D01*
X83433744Y-82186621D02*
X83406807Y-82267433D01*
X84241866Y-81486248D02*
X84618990Y-81863372D01*
X83891680Y-81405436D02*
X84161054Y-81944184D01*
X84161054Y-81944184D02*
X84511240Y-81593998D01*
X108671873Y-55701240D02*
X108941247Y-55431866D01*
X108779623Y-55916739D02*
X108402499Y-55162492D01*
X108402499Y-55162492D02*
X109156746Y-55539615D01*
X109102871Y-54515994D02*
X109022059Y-54542932D01*
X109022059Y-54542932D02*
X108941247Y-54623744D01*
X108941247Y-54623744D02*
X108887372Y-54731494D01*
X108887372Y-54731494D02*
X108887372Y-54839243D01*
X108887372Y-54839243D02*
X108914310Y-54920055D01*
X108914310Y-54920055D02*
X108995122Y-55054742D01*
X108995122Y-55054742D02*
X109075934Y-55135555D01*
X109075934Y-55135555D02*
X109210621Y-55216367D01*
X109210621Y-55216367D02*
X109291433Y-55243304D01*
X109291433Y-55243304D02*
X109399183Y-55243304D01*
X109399183Y-55243304D02*
X109506932Y-55189429D01*
X109506932Y-55189429D02*
X109560807Y-55135555D01*
X109560807Y-55135555D02*
X109614682Y-55027805D01*
X109614682Y-55027805D02*
X109614682Y-54973930D01*
X109614682Y-54973930D02*
X109426120Y-54785368D01*
X109426120Y-54785368D02*
X109318371Y-54893118D01*
X109910993Y-54785368D02*
X109345308Y-54219683D01*
X109345308Y-54219683D02*
X110234242Y-54462120D01*
X110234242Y-54462120D02*
X109668557Y-53896434D01*
X110503616Y-54192746D02*
X109937931Y-53627060D01*
X109937931Y-53627060D02*
X110072618Y-53492373D01*
X110072618Y-53492373D02*
X110180367Y-53438498D01*
X110180367Y-53438498D02*
X110288117Y-53438498D01*
X110288117Y-53438498D02*
X110368929Y-53465436D01*
X110368929Y-53465436D02*
X110503616Y-53546248D01*
X110503616Y-53546248D02*
X110584428Y-53627060D01*
X110584428Y-53627060D02*
X110665241Y-53761747D01*
X110665241Y-53761747D02*
X110692178Y-53842560D01*
X110692178Y-53842560D02*
X110692178Y-53950309D01*
X110692178Y-53950309D02*
X110638303Y-54058059D01*
X110638303Y-54058059D02*
X110503616Y-54192746D01*
X108617998Y-57550868D02*
X108537185Y-57577805D01*
X108537185Y-57577805D02*
X108456373Y-57658618D01*
X108456373Y-57658618D02*
X108402498Y-57766367D01*
X108402498Y-57766367D02*
X108402498Y-57874117D01*
X108402498Y-57874117D02*
X108429436Y-57954929D01*
X108429436Y-57954929D02*
X108510248Y-58089616D01*
X108510248Y-58089616D02*
X108591060Y-58170428D01*
X108591060Y-58170428D02*
X108725747Y-58251241D01*
X108725747Y-58251241D02*
X108806560Y-58278178D01*
X108806560Y-58278178D02*
X108914309Y-58278178D01*
X108914309Y-58278178D02*
X109022059Y-58224303D01*
X109022059Y-58224303D02*
X109075934Y-58170428D01*
X109075934Y-58170428D02*
X109129808Y-58062679D01*
X109129808Y-58062679D02*
X109129808Y-58008804D01*
X109129808Y-58008804D02*
X108941247Y-57820242D01*
X108941247Y-57820242D02*
X108833497Y-57927992D01*
X109426120Y-57820242D02*
X108860434Y-57254557D01*
X108860434Y-57254557D02*
X109075934Y-57039057D01*
X109075934Y-57039057D02*
X109156746Y-57012120D01*
X109156746Y-57012120D02*
X109210621Y-57012120D01*
X109210621Y-57012120D02*
X109291433Y-57039057D01*
X109291433Y-57039057D02*
X109372245Y-57119870D01*
X109372245Y-57119870D02*
X109399182Y-57200682D01*
X109399182Y-57200682D02*
X109399182Y-57254557D01*
X109399182Y-57254557D02*
X109372245Y-57335369D01*
X109372245Y-57335369D02*
X109156746Y-57550868D01*
X109453057Y-56769683D02*
X109453057Y-56715809D01*
X109453057Y-56715809D02*
X109479995Y-56634996D01*
X109479995Y-56634996D02*
X109614682Y-56500309D01*
X109614682Y-56500309D02*
X109695494Y-56473372D01*
X109695494Y-56473372D02*
X109749369Y-56473372D01*
X109749369Y-56473372D02*
X109830181Y-56500309D01*
X109830181Y-56500309D02*
X109884056Y-56554184D01*
X109884056Y-56554184D02*
X109937930Y-56661934D01*
X109937930Y-56661934D02*
X109937930Y-57308431D01*
X109937930Y-57308431D02*
X110288117Y-56958245D01*
X109910993Y-56203998D02*
X110288117Y-55826874D01*
X110288117Y-55826874D02*
X110611366Y-56634996D01*
X108617998Y-75320868D02*
X108537185Y-75347805D01*
X108537185Y-75347805D02*
X108456373Y-75428618D01*
X108456373Y-75428618D02*
X108402498Y-75536367D01*
X108402498Y-75536367D02*
X108402498Y-75644117D01*
X108402498Y-75644117D02*
X108429436Y-75724929D01*
X108429436Y-75724929D02*
X108510248Y-75859616D01*
X108510248Y-75859616D02*
X108591060Y-75940428D01*
X108591060Y-75940428D02*
X108725747Y-76021241D01*
X108725747Y-76021241D02*
X108806560Y-76048178D01*
X108806560Y-76048178D02*
X108914309Y-76048178D01*
X108914309Y-76048178D02*
X109022059Y-75994303D01*
X109022059Y-75994303D02*
X109075934Y-75940428D01*
X109075934Y-75940428D02*
X109129808Y-75832679D01*
X109129808Y-75832679D02*
X109129808Y-75778804D01*
X109129808Y-75778804D02*
X108941247Y-75590242D01*
X108941247Y-75590242D02*
X108833497Y-75697992D01*
X109426120Y-75590242D02*
X108860434Y-75024557D01*
X108860434Y-75024557D02*
X109075934Y-74809057D01*
X109075934Y-74809057D02*
X109156746Y-74782120D01*
X109156746Y-74782120D02*
X109210621Y-74782120D01*
X109210621Y-74782120D02*
X109291433Y-74809057D01*
X109291433Y-74809057D02*
X109372245Y-74889870D01*
X109372245Y-74889870D02*
X109399182Y-74970682D01*
X109399182Y-74970682D02*
X109399182Y-75024557D01*
X109399182Y-75024557D02*
X109372245Y-75105369D01*
X109372245Y-75105369D02*
X109156746Y-75320868D01*
X110288117Y-74728245D02*
X109964868Y-75051494D01*
X110126492Y-74889870D02*
X109560807Y-74324184D01*
X109560807Y-74324184D02*
X109587744Y-74458871D01*
X109587744Y-74458871D02*
X109587744Y-74566621D01*
X109587744Y-74566621D02*
X109560807Y-74647433D01*
X110557491Y-74458871D02*
X110665240Y-74351121D01*
X110665240Y-74351121D02*
X110692178Y-74270309D01*
X110692178Y-74270309D02*
X110692178Y-74216434D01*
X110692178Y-74216434D02*
X110665240Y-74081747D01*
X110665240Y-74081747D02*
X110584428Y-73947060D01*
X110584428Y-73947060D02*
X110368929Y-73731561D01*
X110368929Y-73731561D02*
X110288117Y-73704624D01*
X110288117Y-73704624D02*
X110234242Y-73704624D01*
X110234242Y-73704624D02*
X110153430Y-73731561D01*
X110153430Y-73731561D02*
X110045680Y-73839311D01*
X110045680Y-73839311D02*
X110018743Y-73920123D01*
X110018743Y-73920123D02*
X110018743Y-73973998D01*
X110018743Y-73973998D02*
X110045680Y-74054810D01*
X110045680Y-74054810D02*
X110180367Y-74189497D01*
X110180367Y-74189497D02*
X110261179Y-74216434D01*
X110261179Y-74216434D02*
X110315054Y-74216434D01*
X110315054Y-74216434D02*
X110395866Y-74189497D01*
X110395866Y-74189497D02*
X110503616Y-74081747D01*
X110503616Y-74081747D02*
X110530553Y-74000935D01*
X110530553Y-74000935D02*
X110530553Y-73947060D01*
X110530553Y-73947060D02*
X110503616Y-73866248D01*
X94304200Y-83470524D02*
X94342295Y-83356238D01*
X94342295Y-83356238D02*
X94342295Y-83165762D01*
X94342295Y-83165762D02*
X94304200Y-83089571D01*
X94304200Y-83089571D02*
X94266104Y-83051476D01*
X94266104Y-83051476D02*
X94189914Y-83013381D01*
X94189914Y-83013381D02*
X94113723Y-83013381D01*
X94113723Y-83013381D02*
X94037533Y-83051476D01*
X94037533Y-83051476D02*
X93999438Y-83089571D01*
X93999438Y-83089571D02*
X93961342Y-83165762D01*
X93961342Y-83165762D02*
X93923247Y-83318143D01*
X93923247Y-83318143D02*
X93885152Y-83394333D01*
X93885152Y-83394333D02*
X93847057Y-83432428D01*
X93847057Y-83432428D02*
X93770866Y-83470524D01*
X93770866Y-83470524D02*
X93694676Y-83470524D01*
X93694676Y-83470524D02*
X93618485Y-83432428D01*
X93618485Y-83432428D02*
X93580390Y-83394333D01*
X93580390Y-83394333D02*
X93542295Y-83318143D01*
X93542295Y-83318143D02*
X93542295Y-83127666D01*
X93542295Y-83127666D02*
X93580390Y-83013381D01*
X93542295Y-82746714D02*
X94342295Y-82556238D01*
X94342295Y-82556238D02*
X93770866Y-82403857D01*
X93770866Y-82403857D02*
X94342295Y-82251476D01*
X94342295Y-82251476D02*
X93542295Y-82061000D01*
X94266104Y-81299094D02*
X94304200Y-81337190D01*
X94304200Y-81337190D02*
X94342295Y-81451475D01*
X94342295Y-81451475D02*
X94342295Y-81527666D01*
X94342295Y-81527666D02*
X94304200Y-81641952D01*
X94304200Y-81641952D02*
X94228009Y-81718142D01*
X94228009Y-81718142D02*
X94151819Y-81756237D01*
X94151819Y-81756237D02*
X93999438Y-81794333D01*
X93999438Y-81794333D02*
X93885152Y-81794333D01*
X93885152Y-81794333D02*
X93732771Y-81756237D01*
X93732771Y-81756237D02*
X93656580Y-81718142D01*
X93656580Y-81718142D02*
X93580390Y-81641952D01*
X93580390Y-81641952D02*
X93542295Y-81527666D01*
X93542295Y-81527666D02*
X93542295Y-81451475D01*
X93542295Y-81451475D02*
X93580390Y-81337190D01*
X93580390Y-81337190D02*
X93618485Y-81299094D01*
X94342295Y-80575285D02*
X94342295Y-80956237D01*
X94342295Y-80956237D02*
X93542295Y-80956237D01*
X94342295Y-80308618D02*
X93542295Y-80308618D01*
X94342295Y-79851475D02*
X93885152Y-80194333D01*
X93542295Y-79851475D02*
X93999438Y-80308618D01*
X83006435Y-80158431D02*
X82925623Y-80185368D01*
X82925623Y-80185368D02*
X82844811Y-80266180D01*
X82844811Y-80266180D02*
X82790936Y-80373930D01*
X82790936Y-80373930D02*
X82790936Y-80481680D01*
X82790936Y-80481680D02*
X82817873Y-80562492D01*
X82817873Y-80562492D02*
X82898685Y-80697179D01*
X82898685Y-80697179D02*
X82979498Y-80777991D01*
X82979498Y-80777991D02*
X83114185Y-80858803D01*
X83114185Y-80858803D02*
X83194997Y-80885741D01*
X83194997Y-80885741D02*
X83302746Y-80885741D01*
X83302746Y-80885741D02*
X83410496Y-80831866D01*
X83410496Y-80831866D02*
X83464371Y-80777991D01*
X83464371Y-80777991D02*
X83518246Y-80670241D01*
X83518246Y-80670241D02*
X83518246Y-80616367D01*
X83518246Y-80616367D02*
X83329684Y-80427805D01*
X83329684Y-80427805D02*
X83221934Y-80535554D01*
X83814557Y-80427805D02*
X83248872Y-79862119D01*
X83248872Y-79862119D02*
X84137806Y-80104556D01*
X84137806Y-80104556D02*
X83572120Y-79538871D01*
X84407180Y-79835182D02*
X83841494Y-79269497D01*
X83841494Y-79269497D02*
X83976181Y-79134810D01*
X83976181Y-79134810D02*
X84083931Y-79080935D01*
X84083931Y-79080935D02*
X84191680Y-79080935D01*
X84191680Y-79080935D02*
X84272493Y-79107872D01*
X84272493Y-79107872D02*
X84407180Y-79188685D01*
X84407180Y-79188685D02*
X84487992Y-79269497D01*
X84487992Y-79269497D02*
X84568804Y-79404184D01*
X84568804Y-79404184D02*
X84595741Y-79484996D01*
X84595741Y-79484996D02*
X84595741Y-79592746D01*
X84595741Y-79592746D02*
X84541867Y-79700495D01*
X84541867Y-79700495D02*
X84407180Y-79835182D01*
X99384200Y-83483238D02*
X99422295Y-83368952D01*
X99422295Y-83368952D02*
X99422295Y-83178476D01*
X99422295Y-83178476D02*
X99384200Y-83102285D01*
X99384200Y-83102285D02*
X99346104Y-83064190D01*
X99346104Y-83064190D02*
X99269914Y-83026095D01*
X99269914Y-83026095D02*
X99193723Y-83026095D01*
X99193723Y-83026095D02*
X99117533Y-83064190D01*
X99117533Y-83064190D02*
X99079438Y-83102285D01*
X99079438Y-83102285D02*
X99041342Y-83178476D01*
X99041342Y-83178476D02*
X99003247Y-83330857D01*
X99003247Y-83330857D02*
X98965152Y-83407047D01*
X98965152Y-83407047D02*
X98927057Y-83445142D01*
X98927057Y-83445142D02*
X98850866Y-83483238D01*
X98850866Y-83483238D02*
X98774676Y-83483238D01*
X98774676Y-83483238D02*
X98698485Y-83445142D01*
X98698485Y-83445142D02*
X98660390Y-83407047D01*
X98660390Y-83407047D02*
X98622295Y-83330857D01*
X98622295Y-83330857D02*
X98622295Y-83140380D01*
X98622295Y-83140380D02*
X98660390Y-83026095D01*
X98622295Y-82759428D02*
X99422295Y-82568952D01*
X99422295Y-82568952D02*
X98850866Y-82416571D01*
X98850866Y-82416571D02*
X99422295Y-82264190D01*
X99422295Y-82264190D02*
X98622295Y-82073714D01*
X99422295Y-81768951D02*
X98622295Y-81768951D01*
X98622295Y-81768951D02*
X98622295Y-81578475D01*
X98622295Y-81578475D02*
X98660390Y-81464189D01*
X98660390Y-81464189D02*
X98736580Y-81387999D01*
X98736580Y-81387999D02*
X98812771Y-81349904D01*
X98812771Y-81349904D02*
X98965152Y-81311808D01*
X98965152Y-81311808D02*
X99079438Y-81311808D01*
X99079438Y-81311808D02*
X99231819Y-81349904D01*
X99231819Y-81349904D02*
X99308009Y-81387999D01*
X99308009Y-81387999D02*
X99384200Y-81464189D01*
X99384200Y-81464189D02*
X99422295Y-81578475D01*
X99422295Y-81578475D02*
X99422295Y-81768951D01*
X99422295Y-80968951D02*
X98622295Y-80968951D01*
X98622295Y-80435618D02*
X98622295Y-80283237D01*
X98622295Y-80283237D02*
X98660390Y-80207047D01*
X98660390Y-80207047D02*
X98736580Y-80130856D01*
X98736580Y-80130856D02*
X98888961Y-80092761D01*
X98888961Y-80092761D02*
X99155628Y-80092761D01*
X99155628Y-80092761D02*
X99308009Y-80130856D01*
X99308009Y-80130856D02*
X99384200Y-80207047D01*
X99384200Y-80207047D02*
X99422295Y-80283237D01*
X99422295Y-80283237D02*
X99422295Y-80435618D01*
X99422295Y-80435618D02*
X99384200Y-80511809D01*
X99384200Y-80511809D02*
X99308009Y-80587999D01*
X99308009Y-80587999D02*
X99155628Y-80626095D01*
X99155628Y-80626095D02*
X98888961Y-80626095D01*
X98888961Y-80626095D02*
X98736580Y-80587999D01*
X98736580Y-80587999D02*
X98660390Y-80511809D01*
X98660390Y-80511809D02*
X98622295Y-80435618D01*
X108606435Y-41550431D02*
X108525623Y-41577368D01*
X108525623Y-41577368D02*
X108444811Y-41658180D01*
X108444811Y-41658180D02*
X108390936Y-41765930D01*
X108390936Y-41765930D02*
X108390936Y-41873680D01*
X108390936Y-41873680D02*
X108417873Y-41954492D01*
X108417873Y-41954492D02*
X108498685Y-42089179D01*
X108498685Y-42089179D02*
X108579498Y-42169991D01*
X108579498Y-42169991D02*
X108714185Y-42250803D01*
X108714185Y-42250803D02*
X108794997Y-42277741D01*
X108794997Y-42277741D02*
X108902746Y-42277741D01*
X108902746Y-42277741D02*
X109010496Y-42223866D01*
X109010496Y-42223866D02*
X109064371Y-42169991D01*
X109064371Y-42169991D02*
X109118246Y-42062241D01*
X109118246Y-42062241D02*
X109118246Y-42008367D01*
X109118246Y-42008367D02*
X108929684Y-41819805D01*
X108929684Y-41819805D02*
X108821934Y-41927554D01*
X109414557Y-41819805D02*
X108848872Y-41254119D01*
X108848872Y-41254119D02*
X109737806Y-41496556D01*
X109737806Y-41496556D02*
X109172120Y-40930871D01*
X110007180Y-41227182D02*
X109441494Y-40661497D01*
X109441494Y-40661497D02*
X109576181Y-40526810D01*
X109576181Y-40526810D02*
X109683931Y-40472935D01*
X109683931Y-40472935D02*
X109791680Y-40472935D01*
X109791680Y-40472935D02*
X109872493Y-40499872D01*
X109872493Y-40499872D02*
X110007180Y-40580685D01*
X110007180Y-40580685D02*
X110087992Y-40661497D01*
X110087992Y-40661497D02*
X110168804Y-40796184D01*
X110168804Y-40796184D02*
X110195741Y-40876996D01*
X110195741Y-40876996D02*
X110195741Y-40984746D01*
X110195741Y-40984746D02*
X110141867Y-41092495D01*
X110141867Y-41092495D02*
X110007180Y-41227182D01*
X83133372Y-59781494D02*
X83052560Y-59808431D01*
X83052560Y-59808431D02*
X82971748Y-59889243D01*
X82971748Y-59889243D02*
X82917873Y-59996993D01*
X82917873Y-59996993D02*
X82917873Y-60104742D01*
X82917873Y-60104742D02*
X82944810Y-60185555D01*
X82944810Y-60185555D02*
X83025623Y-60320242D01*
X83025623Y-60320242D02*
X83106435Y-60401054D01*
X83106435Y-60401054D02*
X83241122Y-60481866D01*
X83241122Y-60481866D02*
X83321934Y-60508803D01*
X83321934Y-60508803D02*
X83429684Y-60508803D01*
X83429684Y-60508803D02*
X83537433Y-60454929D01*
X83537433Y-60454929D02*
X83591308Y-60401054D01*
X83591308Y-60401054D02*
X83645183Y-60293304D01*
X83645183Y-60293304D02*
X83645183Y-60239429D01*
X83645183Y-60239429D02*
X83456621Y-60050868D01*
X83456621Y-60050868D02*
X83348871Y-60158617D01*
X83941494Y-60050868D02*
X83375809Y-59485182D01*
X83375809Y-59485182D02*
X83591308Y-59269683D01*
X83591308Y-59269683D02*
X83672120Y-59242746D01*
X83672120Y-59242746D02*
X83725995Y-59242746D01*
X83725995Y-59242746D02*
X83806807Y-59269683D01*
X83806807Y-59269683D02*
X83887619Y-59350495D01*
X83887619Y-59350495D02*
X83914557Y-59431307D01*
X83914557Y-59431307D02*
X83914557Y-59485182D01*
X83914557Y-59485182D02*
X83887619Y-59565994D01*
X83887619Y-59565994D02*
X83672120Y-59781494D01*
X83887619Y-58973372D02*
X84264743Y-58596248D01*
X84264743Y-58596248D02*
X84587992Y-59404370D01*
X82933372Y-44571494D02*
X82852560Y-44598431D01*
X82852560Y-44598431D02*
X82771748Y-44679243D01*
X82771748Y-44679243D02*
X82717873Y-44786993D01*
X82717873Y-44786993D02*
X82717873Y-44894742D01*
X82717873Y-44894742D02*
X82744810Y-44975555D01*
X82744810Y-44975555D02*
X82825623Y-45110242D01*
X82825623Y-45110242D02*
X82906435Y-45191054D01*
X82906435Y-45191054D02*
X83041122Y-45271866D01*
X83041122Y-45271866D02*
X83121934Y-45298803D01*
X83121934Y-45298803D02*
X83229684Y-45298803D01*
X83229684Y-45298803D02*
X83337433Y-45244929D01*
X83337433Y-45244929D02*
X83391308Y-45191054D01*
X83391308Y-45191054D02*
X83445183Y-45083304D01*
X83445183Y-45083304D02*
X83445183Y-45029429D01*
X83445183Y-45029429D02*
X83256621Y-44840868D01*
X83256621Y-44840868D02*
X83148871Y-44948617D01*
X83741494Y-44840868D02*
X83175809Y-44275182D01*
X83175809Y-44275182D02*
X83391308Y-44059683D01*
X83391308Y-44059683D02*
X83472120Y-44032746D01*
X83472120Y-44032746D02*
X83525995Y-44032746D01*
X83525995Y-44032746D02*
X83606807Y-44059683D01*
X83606807Y-44059683D02*
X83687619Y-44140495D01*
X83687619Y-44140495D02*
X83714557Y-44221307D01*
X83714557Y-44221307D02*
X83714557Y-44275182D01*
X83714557Y-44275182D02*
X83687619Y-44355994D01*
X83687619Y-44355994D02*
X83472120Y-44571494D01*
X83768432Y-43790309D02*
X83768432Y-43736434D01*
X83768432Y-43736434D02*
X83795369Y-43655622D01*
X83795369Y-43655622D02*
X83930056Y-43520935D01*
X83930056Y-43520935D02*
X84010868Y-43493998D01*
X84010868Y-43493998D02*
X84064743Y-43493998D01*
X84064743Y-43493998D02*
X84145555Y-43520935D01*
X84145555Y-43520935D02*
X84199430Y-43574810D01*
X84199430Y-43574810D02*
X84253305Y-43682559D01*
X84253305Y-43682559D02*
X84253305Y-44329057D01*
X84253305Y-44329057D02*
X84603491Y-43978871D01*
X83033372Y-57271494D02*
X82952560Y-57298431D01*
X82952560Y-57298431D02*
X82871748Y-57379243D01*
X82871748Y-57379243D02*
X82817873Y-57486993D01*
X82817873Y-57486993D02*
X82817873Y-57594742D01*
X82817873Y-57594742D02*
X82844810Y-57675555D01*
X82844810Y-57675555D02*
X82925623Y-57810242D01*
X82925623Y-57810242D02*
X83006435Y-57891054D01*
X83006435Y-57891054D02*
X83141122Y-57971866D01*
X83141122Y-57971866D02*
X83221934Y-57998803D01*
X83221934Y-57998803D02*
X83329684Y-57998803D01*
X83329684Y-57998803D02*
X83437433Y-57944929D01*
X83437433Y-57944929D02*
X83491308Y-57891054D01*
X83491308Y-57891054D02*
X83545183Y-57783304D01*
X83545183Y-57783304D02*
X83545183Y-57729429D01*
X83545183Y-57729429D02*
X83356621Y-57540868D01*
X83356621Y-57540868D02*
X83248871Y-57648617D01*
X83841494Y-57540868D02*
X83275809Y-56975182D01*
X83275809Y-56975182D02*
X83491308Y-56759683D01*
X83491308Y-56759683D02*
X83572120Y-56732746D01*
X83572120Y-56732746D02*
X83625995Y-56732746D01*
X83625995Y-56732746D02*
X83706807Y-56759683D01*
X83706807Y-56759683D02*
X83787619Y-56840495D01*
X83787619Y-56840495D02*
X83814557Y-56921307D01*
X83814557Y-56921307D02*
X83814557Y-56975182D01*
X83814557Y-56975182D02*
X83787619Y-57055994D01*
X83787619Y-57055994D02*
X83572120Y-57271494D01*
X84083931Y-56167060D02*
X83976181Y-56274810D01*
X83976181Y-56274810D02*
X83949244Y-56355622D01*
X83949244Y-56355622D02*
X83949244Y-56409497D01*
X83949244Y-56409497D02*
X83976181Y-56544184D01*
X83976181Y-56544184D02*
X84056993Y-56678871D01*
X84056993Y-56678871D02*
X84272493Y-56894370D01*
X84272493Y-56894370D02*
X84353305Y-56921307D01*
X84353305Y-56921307D02*
X84407180Y-56921307D01*
X84407180Y-56921307D02*
X84487992Y-56894370D01*
X84487992Y-56894370D02*
X84595741Y-56786620D01*
X84595741Y-56786620D02*
X84622679Y-56705808D01*
X84622679Y-56705808D02*
X84622679Y-56651933D01*
X84622679Y-56651933D02*
X84595741Y-56571121D01*
X84595741Y-56571121D02*
X84461054Y-56436434D01*
X84461054Y-56436434D02*
X84380242Y-56409497D01*
X84380242Y-56409497D02*
X84326367Y-56409497D01*
X84326367Y-56409497D02*
X84245555Y-56436434D01*
X84245555Y-56436434D02*
X84137806Y-56544184D01*
X84137806Y-56544184D02*
X84110868Y-56624996D01*
X84110868Y-56624996D02*
X84110868Y-56678871D01*
X84110868Y-56678871D02*
X84137806Y-56759683D01*
X109358651Y-62903710D02*
X108900716Y-62822898D01*
X109035403Y-63226959D02*
X108469717Y-62661274D01*
X108469717Y-62661274D02*
X108685216Y-62445775D01*
X108685216Y-62445775D02*
X108766029Y-62418837D01*
X108766029Y-62418837D02*
X108819903Y-62418837D01*
X108819903Y-62418837D02*
X108900716Y-62445775D01*
X108900716Y-62445775D02*
X108981528Y-62526587D01*
X108981528Y-62526587D02*
X109008465Y-62607399D01*
X109008465Y-62607399D02*
X109008465Y-62661274D01*
X109008465Y-62661274D02*
X108981528Y-62742086D01*
X108981528Y-62742086D02*
X108766029Y-62957585D01*
X109035403Y-62095588D02*
X109493338Y-62553524D01*
X109493338Y-62553524D02*
X109574151Y-62580462D01*
X109574151Y-62580462D02*
X109628025Y-62580462D01*
X109628025Y-62580462D02*
X109708838Y-62553524D01*
X109708838Y-62553524D02*
X109816587Y-62445775D01*
X109816587Y-62445775D02*
X109843525Y-62364962D01*
X109843525Y-62364962D02*
X109843525Y-62311088D01*
X109843525Y-62311088D02*
X109816587Y-62230275D01*
X109816587Y-62230275D02*
X109358651Y-61772340D01*
X110193711Y-62068651D02*
X109628025Y-61502966D01*
X109628025Y-61502966D02*
X110516959Y-61745402D01*
X110516959Y-61745402D02*
X109951274Y-61179717D01*
X108442407Y-44918584D02*
X108792593Y-44568398D01*
X108792593Y-44568398D02*
X108819531Y-44972459D01*
X108819531Y-44972459D02*
X108900343Y-44891646D01*
X108900343Y-44891646D02*
X108981155Y-44864709D01*
X108981155Y-44864709D02*
X109035030Y-44864709D01*
X109035030Y-44864709D02*
X109115842Y-44891646D01*
X109115842Y-44891646D02*
X109250529Y-45026333D01*
X109250529Y-45026333D02*
X109277467Y-45107146D01*
X109277467Y-45107146D02*
X109277467Y-45161020D01*
X109277467Y-45161020D02*
X109250529Y-45241833D01*
X109250529Y-45241833D02*
X109088905Y-45403457D01*
X109088905Y-45403457D02*
X109008093Y-45430394D01*
X109008093Y-45430394D02*
X108954218Y-45430394D01*
X108954218Y-44406773D02*
X109708465Y-44783897D01*
X109708465Y-44783897D02*
X109331342Y-44029649D01*
X109466028Y-43894963D02*
X109816215Y-43544776D01*
X109816215Y-43544776D02*
X109843152Y-43948837D01*
X109843152Y-43948837D02*
X109923964Y-43868025D01*
X109923964Y-43868025D02*
X110004776Y-43841088D01*
X110004776Y-43841088D02*
X110058651Y-43841088D01*
X110058651Y-43841088D02*
X110139464Y-43868025D01*
X110139464Y-43868025D02*
X110274151Y-44002712D01*
X110274151Y-44002712D02*
X110301088Y-44083524D01*
X110301088Y-44083524D02*
X110301088Y-44137399D01*
X110301088Y-44137399D02*
X110274151Y-44218211D01*
X110274151Y-44218211D02*
X110112526Y-44379836D01*
X110112526Y-44379836D02*
X110031714Y-44406773D01*
X110031714Y-44406773D02*
X109977839Y-44406773D01*
X110543525Y-44056587D02*
X110974523Y-43625588D01*
X110759024Y-43140715D02*
X110947586Y-42952153D01*
X111324709Y-43167652D02*
X111055335Y-43437026D01*
X111055335Y-43437026D02*
X110489650Y-42871341D01*
X110489650Y-42871341D02*
X110759024Y-42601967D01*
X111567146Y-42925215D02*
X111001461Y-42359530D01*
X111001461Y-42359530D02*
X111890395Y-42601967D01*
X111890395Y-42601967D02*
X111324710Y-42036281D01*
X83006435Y-67458431D02*
X82925623Y-67485368D01*
X82925623Y-67485368D02*
X82844811Y-67566180D01*
X82844811Y-67566180D02*
X82790936Y-67673930D01*
X82790936Y-67673930D02*
X82790936Y-67781680D01*
X82790936Y-67781680D02*
X82817873Y-67862492D01*
X82817873Y-67862492D02*
X82898685Y-67997179D01*
X82898685Y-67997179D02*
X82979498Y-68077991D01*
X82979498Y-68077991D02*
X83114185Y-68158803D01*
X83114185Y-68158803D02*
X83194997Y-68185741D01*
X83194997Y-68185741D02*
X83302746Y-68185741D01*
X83302746Y-68185741D02*
X83410496Y-68131866D01*
X83410496Y-68131866D02*
X83464371Y-68077991D01*
X83464371Y-68077991D02*
X83518246Y-67970241D01*
X83518246Y-67970241D02*
X83518246Y-67916367D01*
X83518246Y-67916367D02*
X83329684Y-67727805D01*
X83329684Y-67727805D02*
X83221934Y-67835554D01*
X83814557Y-67727805D02*
X83248872Y-67162119D01*
X83248872Y-67162119D02*
X84137806Y-67404556D01*
X84137806Y-67404556D02*
X83572120Y-66838871D01*
X84407180Y-67135182D02*
X83841494Y-66569497D01*
X83841494Y-66569497D02*
X83976181Y-66434810D01*
X83976181Y-66434810D02*
X84083931Y-66380935D01*
X84083931Y-66380935D02*
X84191680Y-66380935D01*
X84191680Y-66380935D02*
X84272493Y-66407872D01*
X84272493Y-66407872D02*
X84407180Y-66488685D01*
X84407180Y-66488685D02*
X84487992Y-66569497D01*
X84487992Y-66569497D02*
X84568804Y-66704184D01*
X84568804Y-66704184D02*
X84595741Y-66784996D01*
X84595741Y-66784996D02*
X84595741Y-66892746D01*
X84595741Y-66892746D02*
X84541867Y-67000495D01*
X84541867Y-67000495D02*
X84407180Y-67135182D01*
X82363998Y-72780868D02*
X82283185Y-72807805D01*
X82283185Y-72807805D02*
X82202373Y-72888618D01*
X82202373Y-72888618D02*
X82148498Y-72996367D01*
X82148498Y-72996367D02*
X82148498Y-73104117D01*
X82148498Y-73104117D02*
X82175436Y-73184929D01*
X82175436Y-73184929D02*
X82256248Y-73319616D01*
X82256248Y-73319616D02*
X82337060Y-73400428D01*
X82337060Y-73400428D02*
X82471747Y-73481241D01*
X82471747Y-73481241D02*
X82552560Y-73508178D01*
X82552560Y-73508178D02*
X82660309Y-73508178D01*
X82660309Y-73508178D02*
X82768059Y-73454303D01*
X82768059Y-73454303D02*
X82821934Y-73400428D01*
X82821934Y-73400428D02*
X82875808Y-73292679D01*
X82875808Y-73292679D02*
X82875808Y-73238804D01*
X82875808Y-73238804D02*
X82687247Y-73050242D01*
X82687247Y-73050242D02*
X82579497Y-73157992D01*
X83172120Y-73050242D02*
X82606434Y-72484557D01*
X82606434Y-72484557D02*
X82821934Y-72269057D01*
X82821934Y-72269057D02*
X82902746Y-72242120D01*
X82902746Y-72242120D02*
X82956621Y-72242120D01*
X82956621Y-72242120D02*
X83037433Y-72269057D01*
X83037433Y-72269057D02*
X83118245Y-72349870D01*
X83118245Y-72349870D02*
X83145182Y-72430682D01*
X83145182Y-72430682D02*
X83145182Y-72484557D01*
X83145182Y-72484557D02*
X83118245Y-72565369D01*
X83118245Y-72565369D02*
X82902746Y-72780868D01*
X84034117Y-72188245D02*
X83710868Y-72511494D01*
X83872492Y-72349870D02*
X83306807Y-71784184D01*
X83306807Y-71784184D02*
X83333744Y-71918871D01*
X83333744Y-71918871D02*
X83333744Y-72026621D01*
X83333744Y-72026621D02*
X83306807Y-72107433D01*
X84572865Y-71649497D02*
X84249616Y-71972746D01*
X84411240Y-71811121D02*
X83845555Y-71245436D01*
X83845555Y-71245436D02*
X83872492Y-71380123D01*
X83872492Y-71380123D02*
X83872492Y-71487873D01*
X83872492Y-71487873D02*
X83845555Y-71568685D01*
X108606435Y-80158431D02*
X108525623Y-80185368D01*
X108525623Y-80185368D02*
X108444811Y-80266180D01*
X108444811Y-80266180D02*
X108390936Y-80373930D01*
X108390936Y-80373930D02*
X108390936Y-80481680D01*
X108390936Y-80481680D02*
X108417873Y-80562492D01*
X108417873Y-80562492D02*
X108498685Y-80697179D01*
X108498685Y-80697179D02*
X108579498Y-80777991D01*
X108579498Y-80777991D02*
X108714185Y-80858803D01*
X108714185Y-80858803D02*
X108794997Y-80885741D01*
X108794997Y-80885741D02*
X108902746Y-80885741D01*
X108902746Y-80885741D02*
X109010496Y-80831866D01*
X109010496Y-80831866D02*
X109064371Y-80777991D01*
X109064371Y-80777991D02*
X109118246Y-80670241D01*
X109118246Y-80670241D02*
X109118246Y-80616367D01*
X109118246Y-80616367D02*
X108929684Y-80427805D01*
X108929684Y-80427805D02*
X108821934Y-80535554D01*
X109414557Y-80427805D02*
X108848872Y-79862119D01*
X108848872Y-79862119D02*
X109737806Y-80104556D01*
X109737806Y-80104556D02*
X109172120Y-79538871D01*
X110007180Y-79835182D02*
X109441494Y-79269497D01*
X109441494Y-79269497D02*
X109576181Y-79134810D01*
X109576181Y-79134810D02*
X109683931Y-79080935D01*
X109683931Y-79080935D02*
X109791680Y-79080935D01*
X109791680Y-79080935D02*
X109872493Y-79107872D01*
X109872493Y-79107872D02*
X110007180Y-79188685D01*
X110007180Y-79188685D02*
X110087992Y-79269497D01*
X110087992Y-79269497D02*
X110168804Y-79404184D01*
X110168804Y-79404184D02*
X110195741Y-79484996D01*
X110195741Y-79484996D02*
X110195741Y-79592746D01*
X110195741Y-79592746D02*
X110141867Y-79700495D01*
X110141867Y-79700495D02*
X110007180Y-79835182D01*
X83033372Y-49651494D02*
X82952560Y-49678431D01*
X82952560Y-49678431D02*
X82871748Y-49759243D01*
X82871748Y-49759243D02*
X82817873Y-49866993D01*
X82817873Y-49866993D02*
X82817873Y-49974742D01*
X82817873Y-49974742D02*
X82844810Y-50055555D01*
X82844810Y-50055555D02*
X82925623Y-50190242D01*
X82925623Y-50190242D02*
X83006435Y-50271054D01*
X83006435Y-50271054D02*
X83141122Y-50351866D01*
X83141122Y-50351866D02*
X83221934Y-50378803D01*
X83221934Y-50378803D02*
X83329684Y-50378803D01*
X83329684Y-50378803D02*
X83437433Y-50324929D01*
X83437433Y-50324929D02*
X83491308Y-50271054D01*
X83491308Y-50271054D02*
X83545183Y-50163304D01*
X83545183Y-50163304D02*
X83545183Y-50109429D01*
X83545183Y-50109429D02*
X83356621Y-49920868D01*
X83356621Y-49920868D02*
X83248871Y-50028617D01*
X83841494Y-49920868D02*
X83275809Y-49355182D01*
X83275809Y-49355182D02*
X83491308Y-49139683D01*
X83491308Y-49139683D02*
X83572120Y-49112746D01*
X83572120Y-49112746D02*
X83625995Y-49112746D01*
X83625995Y-49112746D02*
X83706807Y-49139683D01*
X83706807Y-49139683D02*
X83787619Y-49220495D01*
X83787619Y-49220495D02*
X83814557Y-49301307D01*
X83814557Y-49301307D02*
X83814557Y-49355182D01*
X83814557Y-49355182D02*
X83787619Y-49435994D01*
X83787619Y-49435994D02*
X83572120Y-49651494D01*
X84272493Y-48735622D02*
X84649616Y-49112746D01*
X83922306Y-48654810D02*
X84191680Y-49193558D01*
X84191680Y-49193558D02*
X84541867Y-48843372D01*
X108675064Y-50494049D02*
X108944438Y-50224675D01*
X108782813Y-50709549D02*
X108405690Y-49955301D01*
X108405690Y-49955301D02*
X109159937Y-50332425D01*
X109348499Y-50143863D02*
X108782813Y-49578178D01*
X108782813Y-49578178D02*
X108917500Y-49443491D01*
X108917500Y-49443491D02*
X109025250Y-49389616D01*
X109025250Y-49389616D02*
X109132999Y-49389616D01*
X109132999Y-49389616D02*
X109213812Y-49416553D01*
X109213812Y-49416553D02*
X109348499Y-49497366D01*
X109348499Y-49497366D02*
X109429311Y-49578178D01*
X109429311Y-49578178D02*
X109510123Y-49712865D01*
X109510123Y-49712865D02*
X109537060Y-49793677D01*
X109537060Y-49793677D02*
X109537060Y-49901427D01*
X109537060Y-49901427D02*
X109483186Y-50009176D01*
X109483186Y-50009176D02*
X109348499Y-50143863D01*
X110183558Y-49201054D02*
X110183558Y-49254929D01*
X110183558Y-49254929D02*
X110129683Y-49362679D01*
X110129683Y-49362679D02*
X110075808Y-49416553D01*
X110075808Y-49416553D02*
X109968059Y-49470428D01*
X109968059Y-49470428D02*
X109860309Y-49470428D01*
X109860309Y-49470428D02*
X109779497Y-49443491D01*
X109779497Y-49443491D02*
X109644810Y-49362679D01*
X109644810Y-49362679D02*
X109563998Y-49281866D01*
X109563998Y-49281866D02*
X109483186Y-49147179D01*
X109483186Y-49147179D02*
X109456248Y-49066367D01*
X109456248Y-49066367D02*
X109456248Y-48958618D01*
X109456248Y-48958618D02*
X109510123Y-48850868D01*
X109510123Y-48850868D02*
X109563998Y-48796993D01*
X109563998Y-48796993D02*
X109671747Y-48743118D01*
X109671747Y-48743118D02*
X109725622Y-48743118D01*
X110399057Y-49201054D02*
X110830056Y-48770056D01*
X110264370Y-48096621D02*
X111018618Y-48473744D01*
X111018618Y-48473744D02*
X110641494Y-47719497D01*
X111718990Y-47773372D02*
X111261054Y-47692560D01*
X111395741Y-48096621D02*
X110830056Y-47530935D01*
X110830056Y-47530935D02*
X111045555Y-47315436D01*
X111045555Y-47315436D02*
X111126367Y-47288499D01*
X111126367Y-47288499D02*
X111180242Y-47288499D01*
X111180242Y-47288499D02*
X111261054Y-47315436D01*
X111261054Y-47315436D02*
X111341866Y-47396248D01*
X111341866Y-47396248D02*
X111368804Y-47477061D01*
X111368804Y-47477061D02*
X111368804Y-47530935D01*
X111368804Y-47530935D02*
X111341866Y-47611748D01*
X111341866Y-47611748D02*
X111126367Y-47827247D01*
X111665115Y-47234624D02*
X111853677Y-47046062D01*
X112230800Y-47261561D02*
X111961426Y-47530935D01*
X111961426Y-47530935D02*
X111395741Y-46965250D01*
X111395741Y-46965250D02*
X111665115Y-46695876D01*
X112365488Y-46534251D02*
X112176926Y-46722813D01*
X112473237Y-47019125D02*
X111907552Y-46453439D01*
X111907552Y-46453439D02*
X112176926Y-46184065D01*
X101790618Y-82150390D02*
X101714428Y-82112295D01*
X101714428Y-82112295D02*
X101600142Y-82112295D01*
X101600142Y-82112295D02*
X101485856Y-82150390D01*
X101485856Y-82150390D02*
X101409666Y-82226580D01*
X101409666Y-82226580D02*
X101371571Y-82302771D01*
X101371571Y-82302771D02*
X101333475Y-82455152D01*
X101333475Y-82455152D02*
X101333475Y-82569438D01*
X101333475Y-82569438D02*
X101371571Y-82721819D01*
X101371571Y-82721819D02*
X101409666Y-82798009D01*
X101409666Y-82798009D02*
X101485856Y-82874200D01*
X101485856Y-82874200D02*
X101600142Y-82912295D01*
X101600142Y-82912295D02*
X101676333Y-82912295D01*
X101676333Y-82912295D02*
X101790618Y-82874200D01*
X101790618Y-82874200D02*
X101828714Y-82836104D01*
X101828714Y-82836104D02*
X101828714Y-82569438D01*
X101828714Y-82569438D02*
X101676333Y-82569438D01*
X102171571Y-82912295D02*
X102171571Y-82112295D01*
X102171571Y-82112295D02*
X102476333Y-82112295D01*
X102476333Y-82112295D02*
X102552523Y-82150390D01*
X102552523Y-82150390D02*
X102590618Y-82188485D01*
X102590618Y-82188485D02*
X102628714Y-82264676D01*
X102628714Y-82264676D02*
X102628714Y-82378961D01*
X102628714Y-82378961D02*
X102590618Y-82455152D01*
X102590618Y-82455152D02*
X102552523Y-82493247D01*
X102552523Y-82493247D02*
X102476333Y-82531342D01*
X102476333Y-82531342D02*
X102171571Y-82531342D01*
X103390618Y-82912295D02*
X102933475Y-82912295D01*
X103162047Y-82912295D02*
X103162047Y-82112295D01*
X103162047Y-82112295D02*
X103085856Y-82226580D01*
X103085856Y-82226580D02*
X103009666Y-82302771D01*
X103009666Y-82302771D02*
X102933475Y-82340866D01*
X103657285Y-82112295D02*
X104190619Y-82112295D01*
X104190619Y-82112295D02*
X103847761Y-82912295D01*
X82933372Y-39481494D02*
X82852560Y-39508431D01*
X82852560Y-39508431D02*
X82771748Y-39589243D01*
X82771748Y-39589243D02*
X82717873Y-39696993D01*
X82717873Y-39696993D02*
X82717873Y-39804742D01*
X82717873Y-39804742D02*
X82744810Y-39885555D01*
X82744810Y-39885555D02*
X82825623Y-40020242D01*
X82825623Y-40020242D02*
X82906435Y-40101054D01*
X82906435Y-40101054D02*
X83041122Y-40181866D01*
X83041122Y-40181866D02*
X83121934Y-40208803D01*
X83121934Y-40208803D02*
X83229684Y-40208803D01*
X83229684Y-40208803D02*
X83337433Y-40154929D01*
X83337433Y-40154929D02*
X83391308Y-40101054D01*
X83391308Y-40101054D02*
X83445183Y-39993304D01*
X83445183Y-39993304D02*
X83445183Y-39939429D01*
X83445183Y-39939429D02*
X83256621Y-39750868D01*
X83256621Y-39750868D02*
X83148871Y-39858617D01*
X83741494Y-39750868D02*
X83175809Y-39185182D01*
X83175809Y-39185182D02*
X83391308Y-38969683D01*
X83391308Y-38969683D02*
X83472120Y-38942746D01*
X83472120Y-38942746D02*
X83525995Y-38942746D01*
X83525995Y-38942746D02*
X83606807Y-38969683D01*
X83606807Y-38969683D02*
X83687619Y-39050495D01*
X83687619Y-39050495D02*
X83714557Y-39131307D01*
X83714557Y-39131307D02*
X83714557Y-39185182D01*
X83714557Y-39185182D02*
X83687619Y-39265994D01*
X83687619Y-39265994D02*
X83472120Y-39481494D01*
X84603491Y-38888871D02*
X84280242Y-39212120D01*
X84441867Y-39050495D02*
X83876181Y-38484810D01*
X83876181Y-38484810D02*
X83903119Y-38619497D01*
X83903119Y-38619497D02*
X83903119Y-38727246D01*
X83903119Y-38727246D02*
X83876181Y-38808059D01*
X82509998Y-70240868D02*
X82429185Y-70267805D01*
X82429185Y-70267805D02*
X82348373Y-70348618D01*
X82348373Y-70348618D02*
X82294498Y-70456367D01*
X82294498Y-70456367D02*
X82294498Y-70564117D01*
X82294498Y-70564117D02*
X82321436Y-70644929D01*
X82321436Y-70644929D02*
X82402248Y-70779616D01*
X82402248Y-70779616D02*
X82483060Y-70860428D01*
X82483060Y-70860428D02*
X82617747Y-70941241D01*
X82617747Y-70941241D02*
X82698560Y-70968178D01*
X82698560Y-70968178D02*
X82806309Y-70968178D01*
X82806309Y-70968178D02*
X82914059Y-70914303D01*
X82914059Y-70914303D02*
X82967934Y-70860428D01*
X82967934Y-70860428D02*
X83021808Y-70752679D01*
X83021808Y-70752679D02*
X83021808Y-70698804D01*
X83021808Y-70698804D02*
X82833247Y-70510242D01*
X82833247Y-70510242D02*
X82725497Y-70617992D01*
X83318120Y-70510242D02*
X82752434Y-69944557D01*
X82752434Y-69944557D02*
X82967934Y-69729057D01*
X82967934Y-69729057D02*
X83048746Y-69702120D01*
X83048746Y-69702120D02*
X83102621Y-69702120D01*
X83102621Y-69702120D02*
X83183433Y-69729057D01*
X83183433Y-69729057D02*
X83264245Y-69809870D01*
X83264245Y-69809870D02*
X83291182Y-69890682D01*
X83291182Y-69890682D02*
X83291182Y-69944557D01*
X83291182Y-69944557D02*
X83264245Y-70025369D01*
X83264245Y-70025369D02*
X83048746Y-70240868D01*
X84180117Y-69648245D02*
X83856868Y-69971494D01*
X84018492Y-69809870D02*
X83452807Y-69244184D01*
X83452807Y-69244184D02*
X83479744Y-69378871D01*
X83479744Y-69378871D02*
X83479744Y-69486621D01*
X83479744Y-69486621D02*
X83452807Y-69567433D01*
X83964618Y-68732373D02*
X84018492Y-68678499D01*
X84018492Y-68678499D02*
X84099305Y-68651561D01*
X84099305Y-68651561D02*
X84153179Y-68651561D01*
X84153179Y-68651561D02*
X84233992Y-68678499D01*
X84233992Y-68678499D02*
X84368679Y-68759311D01*
X84368679Y-68759311D02*
X84503366Y-68893998D01*
X84503366Y-68893998D02*
X84584178Y-69028685D01*
X84584178Y-69028685D02*
X84611115Y-69109497D01*
X84611115Y-69109497D02*
X84611115Y-69163372D01*
X84611115Y-69163372D02*
X84584178Y-69244184D01*
X84584178Y-69244184D02*
X84530303Y-69298059D01*
X84530303Y-69298059D02*
X84449491Y-69324996D01*
X84449491Y-69324996D02*
X84395616Y-69324996D01*
X84395616Y-69324996D02*
X84314804Y-69298059D01*
X84314804Y-69298059D02*
X84180117Y-69217247D01*
X84180117Y-69217247D02*
X84045430Y-69082560D01*
X84045430Y-69082560D02*
X83964618Y-68947873D01*
X83964618Y-68947873D02*
X83937680Y-68867060D01*
X83937680Y-68867060D02*
X83937680Y-68813186D01*
X83937680Y-68813186D02*
X83964618Y-68732373D01*
X108410123Y-47450868D02*
X108760309Y-47100682D01*
X108760309Y-47100682D02*
X108787247Y-47504743D01*
X108787247Y-47504743D02*
X108868059Y-47423931D01*
X108868059Y-47423931D02*
X108948871Y-47396993D01*
X108948871Y-47396993D02*
X109002746Y-47396993D01*
X109002746Y-47396993D02*
X109083558Y-47423931D01*
X109083558Y-47423931D02*
X109218245Y-47558618D01*
X109218245Y-47558618D02*
X109245182Y-47639430D01*
X109245182Y-47639430D02*
X109245182Y-47693305D01*
X109245182Y-47693305D02*
X109218245Y-47774117D01*
X109218245Y-47774117D02*
X109056621Y-47935741D01*
X109056621Y-47935741D02*
X108975808Y-47962679D01*
X108975808Y-47962679D02*
X108921934Y-47962679D01*
X108921934Y-46939057D02*
X109676181Y-47316181D01*
X109676181Y-47316181D02*
X109299057Y-46561934D01*
X109433744Y-46427247D02*
X109783930Y-46077061D01*
X109783930Y-46077061D02*
X109810868Y-46481122D01*
X109810868Y-46481122D02*
X109891680Y-46400309D01*
X109891680Y-46400309D02*
X109972492Y-46373372D01*
X109972492Y-46373372D02*
X110026367Y-46373372D01*
X110026367Y-46373372D02*
X110107179Y-46400309D01*
X110107179Y-46400309D02*
X110241866Y-46534996D01*
X110241866Y-46534996D02*
X110268804Y-46615809D01*
X110268804Y-46615809D02*
X110268804Y-46669683D01*
X110268804Y-46669683D02*
X110241866Y-46750496D01*
X110241866Y-46750496D02*
X110080242Y-46912120D01*
X110080242Y-46912120D02*
X109999430Y-46939057D01*
X109999430Y-46939057D02*
X109945555Y-46939057D01*
X83006435Y-42058431D02*
X82925623Y-42085368D01*
X82925623Y-42085368D02*
X82844811Y-42166180D01*
X82844811Y-42166180D02*
X82790936Y-42273930D01*
X82790936Y-42273930D02*
X82790936Y-42381680D01*
X82790936Y-42381680D02*
X82817873Y-42462492D01*
X82817873Y-42462492D02*
X82898685Y-42597179D01*
X82898685Y-42597179D02*
X82979498Y-42677991D01*
X82979498Y-42677991D02*
X83114185Y-42758803D01*
X83114185Y-42758803D02*
X83194997Y-42785741D01*
X83194997Y-42785741D02*
X83302746Y-42785741D01*
X83302746Y-42785741D02*
X83410496Y-42731866D01*
X83410496Y-42731866D02*
X83464371Y-42677991D01*
X83464371Y-42677991D02*
X83518246Y-42570241D01*
X83518246Y-42570241D02*
X83518246Y-42516367D01*
X83518246Y-42516367D02*
X83329684Y-42327805D01*
X83329684Y-42327805D02*
X83221934Y-42435554D01*
X83814557Y-42327805D02*
X83248872Y-41762119D01*
X83248872Y-41762119D02*
X84137806Y-42004556D01*
X84137806Y-42004556D02*
X83572120Y-41438871D01*
X84407180Y-41735182D02*
X83841494Y-41169497D01*
X83841494Y-41169497D02*
X83976181Y-41034810D01*
X83976181Y-41034810D02*
X84083931Y-40980935D01*
X84083931Y-40980935D02*
X84191680Y-40980935D01*
X84191680Y-40980935D02*
X84272493Y-41007872D01*
X84272493Y-41007872D02*
X84407180Y-41088685D01*
X84407180Y-41088685D02*
X84487992Y-41169497D01*
X84487992Y-41169497D02*
X84568804Y-41304184D01*
X84568804Y-41304184D02*
X84595741Y-41384996D01*
X84595741Y-41384996D02*
X84595741Y-41492746D01*
X84595741Y-41492746D02*
X84541867Y-41600495D01*
X84541867Y-41600495D02*
X84407180Y-41735182D01*
X108617998Y-77860868D02*
X108537185Y-77887805D01*
X108537185Y-77887805D02*
X108456373Y-77968618D01*
X108456373Y-77968618D02*
X108402498Y-78076367D01*
X108402498Y-78076367D02*
X108402498Y-78184117D01*
X108402498Y-78184117D02*
X108429436Y-78264929D01*
X108429436Y-78264929D02*
X108510248Y-78399616D01*
X108510248Y-78399616D02*
X108591060Y-78480428D01*
X108591060Y-78480428D02*
X108725747Y-78561241D01*
X108725747Y-78561241D02*
X108806560Y-78588178D01*
X108806560Y-78588178D02*
X108914309Y-78588178D01*
X108914309Y-78588178D02*
X109022059Y-78534303D01*
X109022059Y-78534303D02*
X109075934Y-78480428D01*
X109075934Y-78480428D02*
X109129808Y-78372679D01*
X109129808Y-78372679D02*
X109129808Y-78318804D01*
X109129808Y-78318804D02*
X108941247Y-78130242D01*
X108941247Y-78130242D02*
X108833497Y-78237992D01*
X109426120Y-78130242D02*
X108860434Y-77564557D01*
X108860434Y-77564557D02*
X109075934Y-77349057D01*
X109075934Y-77349057D02*
X109156746Y-77322120D01*
X109156746Y-77322120D02*
X109210621Y-77322120D01*
X109210621Y-77322120D02*
X109291433Y-77349057D01*
X109291433Y-77349057D02*
X109372245Y-77429870D01*
X109372245Y-77429870D02*
X109399182Y-77510682D01*
X109399182Y-77510682D02*
X109399182Y-77564557D01*
X109399182Y-77564557D02*
X109372245Y-77645369D01*
X109372245Y-77645369D02*
X109156746Y-77860868D01*
X110288117Y-77268245D02*
X109964868Y-77591494D01*
X110126492Y-77429870D02*
X109560807Y-76864184D01*
X109560807Y-76864184D02*
X109587744Y-76998871D01*
X109587744Y-76998871D02*
X109587744Y-77106621D01*
X109587744Y-77106621D02*
X109560807Y-77187433D01*
X110288117Y-76621747D02*
X110207305Y-76648685D01*
X110207305Y-76648685D02*
X110153430Y-76648685D01*
X110153430Y-76648685D02*
X110072618Y-76621747D01*
X110072618Y-76621747D02*
X110045680Y-76594810D01*
X110045680Y-76594810D02*
X110018743Y-76513998D01*
X110018743Y-76513998D02*
X110018743Y-76460123D01*
X110018743Y-76460123D02*
X110045680Y-76379311D01*
X110045680Y-76379311D02*
X110153430Y-76271561D01*
X110153430Y-76271561D02*
X110234242Y-76244624D01*
X110234242Y-76244624D02*
X110288117Y-76244624D01*
X110288117Y-76244624D02*
X110368929Y-76271561D01*
X110368929Y-76271561D02*
X110395866Y-76298499D01*
X110395866Y-76298499D02*
X110422804Y-76379311D01*
X110422804Y-76379311D02*
X110422804Y-76433186D01*
X110422804Y-76433186D02*
X110395866Y-76513998D01*
X110395866Y-76513998D02*
X110288117Y-76621747D01*
X110288117Y-76621747D02*
X110261179Y-76702560D01*
X110261179Y-76702560D02*
X110261179Y-76756434D01*
X110261179Y-76756434D02*
X110288117Y-76837247D01*
X110288117Y-76837247D02*
X110395866Y-76944996D01*
X110395866Y-76944996D02*
X110476679Y-76971934D01*
X110476679Y-76971934D02*
X110530553Y-76971934D01*
X110530553Y-76971934D02*
X110611366Y-76944996D01*
X110611366Y-76944996D02*
X110719115Y-76837247D01*
X110719115Y-76837247D02*
X110746053Y-76756434D01*
X110746053Y-76756434D02*
X110746053Y-76702560D01*
X110746053Y-76702560D02*
X110719115Y-76621747D01*
X110719115Y-76621747D02*
X110611366Y-76513998D01*
X110611366Y-76513998D02*
X110530553Y-76487060D01*
X110530553Y-76487060D02*
X110476679Y-76487060D01*
X110476679Y-76487060D02*
X110395866Y-76513998D01*
X101523406Y-38319585D02*
X102277653Y-38696709D01*
X102277653Y-38696709D02*
X101900529Y-37942462D01*
X102547027Y-37834712D02*
X102654776Y-37780838D01*
X102654776Y-37780838D02*
X102708651Y-37780838D01*
X102708651Y-37780838D02*
X102789463Y-37807775D01*
X102789463Y-37807775D02*
X102870276Y-37888587D01*
X102870276Y-37888587D02*
X102897213Y-37969399D01*
X102897213Y-37969399D02*
X102897213Y-38023274D01*
X102897213Y-38023274D02*
X102870276Y-38104086D01*
X102870276Y-38104086D02*
X102654776Y-38319586D01*
X102654776Y-38319586D02*
X102089091Y-37753900D01*
X102089091Y-37753900D02*
X102277653Y-37565338D01*
X102277653Y-37565338D02*
X102358465Y-37538401D01*
X102358465Y-37538401D02*
X102412340Y-37538401D01*
X102412340Y-37538401D02*
X102493152Y-37565338D01*
X102493152Y-37565338D02*
X102547027Y-37619213D01*
X102547027Y-37619213D02*
X102573964Y-37700025D01*
X102573964Y-37700025D02*
X102573964Y-37753900D01*
X102573964Y-37753900D02*
X102547027Y-37834712D01*
X102547027Y-37834712D02*
X102358465Y-38023274D01*
X102654776Y-37188215D02*
X103112712Y-37646151D01*
X103112712Y-37646151D02*
X103193524Y-37673088D01*
X103193524Y-37673088D02*
X103247399Y-37673088D01*
X103247399Y-37673088D02*
X103328211Y-37646151D01*
X103328211Y-37646151D02*
X103435961Y-37538401D01*
X103435961Y-37538401D02*
X103462898Y-37457589D01*
X103462898Y-37457589D02*
X103462898Y-37403714D01*
X103462898Y-37403714D02*
X103435961Y-37322902D01*
X103435961Y-37322902D02*
X102978025Y-36864966D01*
X103759210Y-37161277D02*
X103866959Y-37107403D01*
X103866959Y-37107403D02*
X104001646Y-36972716D01*
X104001646Y-36972716D02*
X104028584Y-36891903D01*
X104028584Y-36891903D02*
X104028584Y-36838029D01*
X104028584Y-36838029D02*
X104001646Y-36757216D01*
X104001646Y-36757216D02*
X103947771Y-36703342D01*
X103947771Y-36703342D02*
X103866959Y-36676404D01*
X103866959Y-36676404D02*
X103813084Y-36676404D01*
X103813084Y-36676404D02*
X103732272Y-36703342D01*
X103732272Y-36703342D02*
X103597585Y-36784154D01*
X103597585Y-36784154D02*
X103516773Y-36811091D01*
X103516773Y-36811091D02*
X103462898Y-36811091D01*
X103462898Y-36811091D02*
X103382086Y-36784154D01*
X103382086Y-36784154D02*
X103328211Y-36730279D01*
X103328211Y-36730279D02*
X103301274Y-36649467D01*
X103301274Y-36649467D02*
X103301274Y-36595592D01*
X103301274Y-36595592D02*
X103328211Y-36514780D01*
X103328211Y-36514780D02*
X103462898Y-36380093D01*
X103462898Y-36380093D02*
X103570648Y-36326218D01*
X108617998Y-52206868D02*
X108537185Y-52233805D01*
X108537185Y-52233805D02*
X108456373Y-52314618D01*
X108456373Y-52314618D02*
X108402498Y-52422367D01*
X108402498Y-52422367D02*
X108402498Y-52530117D01*
X108402498Y-52530117D02*
X108429436Y-52610929D01*
X108429436Y-52610929D02*
X108510248Y-52745616D01*
X108510248Y-52745616D02*
X108591060Y-52826428D01*
X108591060Y-52826428D02*
X108725747Y-52907241D01*
X108725747Y-52907241D02*
X108806560Y-52934178D01*
X108806560Y-52934178D02*
X108914309Y-52934178D01*
X108914309Y-52934178D02*
X109022059Y-52880303D01*
X109022059Y-52880303D02*
X109075934Y-52826428D01*
X109075934Y-52826428D02*
X109129808Y-52718679D01*
X109129808Y-52718679D02*
X109129808Y-52664804D01*
X109129808Y-52664804D02*
X108941247Y-52476242D01*
X108941247Y-52476242D02*
X108833497Y-52583992D01*
X109426120Y-52476242D02*
X108860434Y-51910557D01*
X108860434Y-51910557D02*
X109075934Y-51695057D01*
X109075934Y-51695057D02*
X109156746Y-51668120D01*
X109156746Y-51668120D02*
X109210621Y-51668120D01*
X109210621Y-51668120D02*
X109291433Y-51695057D01*
X109291433Y-51695057D02*
X109372245Y-51775870D01*
X109372245Y-51775870D02*
X109399182Y-51856682D01*
X109399182Y-51856682D02*
X109399182Y-51910557D01*
X109399182Y-51910557D02*
X109372245Y-51991369D01*
X109372245Y-51991369D02*
X109156746Y-52206868D01*
X109453057Y-51425683D02*
X109453057Y-51371809D01*
X109453057Y-51371809D02*
X109479995Y-51290996D01*
X109479995Y-51290996D02*
X109614682Y-51156309D01*
X109614682Y-51156309D02*
X109695494Y-51129372D01*
X109695494Y-51129372D02*
X109749369Y-51129372D01*
X109749369Y-51129372D02*
X109830181Y-51156309D01*
X109830181Y-51156309D02*
X109884056Y-51210184D01*
X109884056Y-51210184D02*
X109937930Y-51317934D01*
X109937930Y-51317934D02*
X109937930Y-51964431D01*
X109937930Y-51964431D02*
X110288117Y-51614245D01*
X110288117Y-50967747D02*
X110207305Y-50994685D01*
X110207305Y-50994685D02*
X110153430Y-50994685D01*
X110153430Y-50994685D02*
X110072618Y-50967747D01*
X110072618Y-50967747D02*
X110045680Y-50940810D01*
X110045680Y-50940810D02*
X110018743Y-50859998D01*
X110018743Y-50859998D02*
X110018743Y-50806123D01*
X110018743Y-50806123D02*
X110045680Y-50725311D01*
X110045680Y-50725311D02*
X110153430Y-50617561D01*
X110153430Y-50617561D02*
X110234242Y-50590624D01*
X110234242Y-50590624D02*
X110288117Y-50590624D01*
X110288117Y-50590624D02*
X110368929Y-50617561D01*
X110368929Y-50617561D02*
X110395866Y-50644499D01*
X110395866Y-50644499D02*
X110422804Y-50725311D01*
X110422804Y-50725311D02*
X110422804Y-50779186D01*
X110422804Y-50779186D02*
X110395866Y-50859998D01*
X110395866Y-50859998D02*
X110288117Y-50967747D01*
X110288117Y-50967747D02*
X110261179Y-51048560D01*
X110261179Y-51048560D02*
X110261179Y-51102434D01*
X110261179Y-51102434D02*
X110288117Y-51183247D01*
X110288117Y-51183247D02*
X110395866Y-51290996D01*
X110395866Y-51290996D02*
X110476679Y-51317934D01*
X110476679Y-51317934D02*
X110530553Y-51317934D01*
X110530553Y-51317934D02*
X110611366Y-51290996D01*
X110611366Y-51290996D02*
X110719115Y-51183247D01*
X110719115Y-51183247D02*
X110746053Y-51102434D01*
X110746053Y-51102434D02*
X110746053Y-51048560D01*
X110746053Y-51048560D02*
X110719115Y-50967747D01*
X110719115Y-50967747D02*
X110611366Y-50859998D01*
X110611366Y-50859998D02*
X110530553Y-50833060D01*
X110530553Y-50833060D02*
X110476679Y-50833060D01*
X110476679Y-50833060D02*
X110395866Y-50859998D01*
X83033372Y-64891494D02*
X82952560Y-64918431D01*
X82952560Y-64918431D02*
X82871748Y-64999243D01*
X82871748Y-64999243D02*
X82817873Y-65106993D01*
X82817873Y-65106993D02*
X82817873Y-65214742D01*
X82817873Y-65214742D02*
X82844810Y-65295555D01*
X82844810Y-65295555D02*
X82925623Y-65430242D01*
X82925623Y-65430242D02*
X83006435Y-65511054D01*
X83006435Y-65511054D02*
X83141122Y-65591866D01*
X83141122Y-65591866D02*
X83221934Y-65618803D01*
X83221934Y-65618803D02*
X83329684Y-65618803D01*
X83329684Y-65618803D02*
X83437433Y-65564929D01*
X83437433Y-65564929D02*
X83491308Y-65511054D01*
X83491308Y-65511054D02*
X83545183Y-65403304D01*
X83545183Y-65403304D02*
X83545183Y-65349429D01*
X83545183Y-65349429D02*
X83356621Y-65160868D01*
X83356621Y-65160868D02*
X83248871Y-65268617D01*
X83841494Y-65160868D02*
X83275809Y-64595182D01*
X83275809Y-64595182D02*
X83491308Y-64379683D01*
X83491308Y-64379683D02*
X83572120Y-64352746D01*
X83572120Y-64352746D02*
X83625995Y-64352746D01*
X83625995Y-64352746D02*
X83706807Y-64379683D01*
X83706807Y-64379683D02*
X83787619Y-64460495D01*
X83787619Y-64460495D02*
X83814557Y-64541307D01*
X83814557Y-64541307D02*
X83814557Y-64595182D01*
X83814557Y-64595182D02*
X83787619Y-64675994D01*
X83787619Y-64675994D02*
X83572120Y-64891494D01*
X84434117Y-64568245D02*
X84541867Y-64460495D01*
X84541867Y-64460495D02*
X84568804Y-64379683D01*
X84568804Y-64379683D02*
X84568804Y-64325808D01*
X84568804Y-64325808D02*
X84541867Y-64191121D01*
X84541867Y-64191121D02*
X84461054Y-64056434D01*
X84461054Y-64056434D02*
X84245555Y-63840935D01*
X84245555Y-63840935D02*
X84164743Y-63813998D01*
X84164743Y-63813998D02*
X84110868Y-63813998D01*
X84110868Y-63813998D02*
X84030056Y-63840935D01*
X84030056Y-63840935D02*
X83922306Y-63948685D01*
X83922306Y-63948685D02*
X83895369Y-64029497D01*
X83895369Y-64029497D02*
X83895369Y-64083372D01*
X83895369Y-64083372D02*
X83922306Y-64164184D01*
X83922306Y-64164184D02*
X84056993Y-64298871D01*
X84056993Y-64298871D02*
X84137806Y-64325808D01*
X84137806Y-64325808D02*
X84191680Y-64325808D01*
X84191680Y-64325808D02*
X84272493Y-64298871D01*
X84272493Y-64298871D02*
X84380242Y-64191121D01*
X84380242Y-64191121D02*
X84407180Y-64110309D01*
X84407180Y-64110309D02*
X84407180Y-64056434D01*
X84407180Y-64056434D02*
X84380242Y-63975622D01*
X101790618Y-84690390D02*
X101714428Y-84652295D01*
X101714428Y-84652295D02*
X101600142Y-84652295D01*
X101600142Y-84652295D02*
X101485856Y-84690390D01*
X101485856Y-84690390D02*
X101409666Y-84766580D01*
X101409666Y-84766580D02*
X101371571Y-84842771D01*
X101371571Y-84842771D02*
X101333475Y-84995152D01*
X101333475Y-84995152D02*
X101333475Y-85109438D01*
X101333475Y-85109438D02*
X101371571Y-85261819D01*
X101371571Y-85261819D02*
X101409666Y-85338009D01*
X101409666Y-85338009D02*
X101485856Y-85414200D01*
X101485856Y-85414200D02*
X101600142Y-85452295D01*
X101600142Y-85452295D02*
X101676333Y-85452295D01*
X101676333Y-85452295D02*
X101790618Y-85414200D01*
X101790618Y-85414200D02*
X101828714Y-85376104D01*
X101828714Y-85376104D02*
X101828714Y-85109438D01*
X101828714Y-85109438D02*
X101676333Y-85109438D01*
X102171571Y-85452295D02*
X102171571Y-84652295D01*
X102171571Y-84652295D02*
X102476333Y-84652295D01*
X102476333Y-84652295D02*
X102552523Y-84690390D01*
X102552523Y-84690390D02*
X102590618Y-84728485D01*
X102590618Y-84728485D02*
X102628714Y-84804676D01*
X102628714Y-84804676D02*
X102628714Y-84918961D01*
X102628714Y-84918961D02*
X102590618Y-84995152D01*
X102590618Y-84995152D02*
X102552523Y-85033247D01*
X102552523Y-85033247D02*
X102476333Y-85071342D01*
X102476333Y-85071342D02*
X102171571Y-85071342D01*
X103390618Y-85452295D02*
X102933475Y-85452295D01*
X103162047Y-85452295D02*
X103162047Y-84652295D01*
X103162047Y-84652295D02*
X103085856Y-84766580D01*
X103085856Y-84766580D02*
X103009666Y-84842771D01*
X103009666Y-84842771D02*
X102933475Y-84880866D01*
X104076333Y-84652295D02*
X103923952Y-84652295D01*
X103923952Y-84652295D02*
X103847761Y-84690390D01*
X103847761Y-84690390D02*
X103809666Y-84728485D01*
X103809666Y-84728485D02*
X103733476Y-84842771D01*
X103733476Y-84842771D02*
X103695380Y-84995152D01*
X103695380Y-84995152D02*
X103695380Y-85299914D01*
X103695380Y-85299914D02*
X103733476Y-85376104D01*
X103733476Y-85376104D02*
X103771571Y-85414200D01*
X103771571Y-85414200D02*
X103847761Y-85452295D01*
X103847761Y-85452295D02*
X104000142Y-85452295D01*
X104000142Y-85452295D02*
X104076333Y-85414200D01*
X104076333Y-85414200D02*
X104114428Y-85376104D01*
X104114428Y-85376104D02*
X104152523Y-85299914D01*
X104152523Y-85299914D02*
X104152523Y-85109438D01*
X104152523Y-85109438D02*
X104114428Y-85033247D01*
X104114428Y-85033247D02*
X104076333Y-84995152D01*
X104076333Y-84995152D02*
X104000142Y-84957057D01*
X104000142Y-84957057D02*
X103847761Y-84957057D01*
X103847761Y-84957057D02*
X103771571Y-84995152D01*
X103771571Y-84995152D02*
X103733476Y-85033247D01*
X103733476Y-85033247D02*
X103695380Y-85109438D01*
X108617998Y-60080868D02*
X108537185Y-60107805D01*
X108537185Y-60107805D02*
X108456373Y-60188618D01*
X108456373Y-60188618D02*
X108402498Y-60296367D01*
X108402498Y-60296367D02*
X108402498Y-60404117D01*
X108402498Y-60404117D02*
X108429436Y-60484929D01*
X108429436Y-60484929D02*
X108510248Y-60619616D01*
X108510248Y-60619616D02*
X108591060Y-60700428D01*
X108591060Y-60700428D02*
X108725747Y-60781241D01*
X108725747Y-60781241D02*
X108806560Y-60808178D01*
X108806560Y-60808178D02*
X108914309Y-60808178D01*
X108914309Y-60808178D02*
X109022059Y-60754303D01*
X109022059Y-60754303D02*
X109075934Y-60700428D01*
X109075934Y-60700428D02*
X109129808Y-60592679D01*
X109129808Y-60592679D02*
X109129808Y-60538804D01*
X109129808Y-60538804D02*
X108941247Y-60350242D01*
X108941247Y-60350242D02*
X108833497Y-60457992D01*
X109426120Y-60350242D02*
X108860434Y-59784557D01*
X108860434Y-59784557D02*
X109075934Y-59569057D01*
X109075934Y-59569057D02*
X109156746Y-59542120D01*
X109156746Y-59542120D02*
X109210621Y-59542120D01*
X109210621Y-59542120D02*
X109291433Y-59569057D01*
X109291433Y-59569057D02*
X109372245Y-59649870D01*
X109372245Y-59649870D02*
X109399182Y-59730682D01*
X109399182Y-59730682D02*
X109399182Y-59784557D01*
X109399182Y-59784557D02*
X109372245Y-59865369D01*
X109372245Y-59865369D02*
X109156746Y-60080868D01*
X109453057Y-59299683D02*
X109453057Y-59245809D01*
X109453057Y-59245809D02*
X109479995Y-59164996D01*
X109479995Y-59164996D02*
X109614682Y-59030309D01*
X109614682Y-59030309D02*
X109695494Y-59003372D01*
X109695494Y-59003372D02*
X109749369Y-59003372D01*
X109749369Y-59003372D02*
X109830181Y-59030309D01*
X109830181Y-59030309D02*
X109884056Y-59084184D01*
X109884056Y-59084184D02*
X109937930Y-59191934D01*
X109937930Y-59191934D02*
X109937930Y-59838431D01*
X109937930Y-59838431D02*
X110288117Y-59488245D01*
X110207305Y-58437686D02*
X110099555Y-58545436D01*
X110099555Y-58545436D02*
X110072618Y-58626248D01*
X110072618Y-58626248D02*
X110072618Y-58680123D01*
X110072618Y-58680123D02*
X110099555Y-58814810D01*
X110099555Y-58814810D02*
X110180367Y-58949497D01*
X110180367Y-58949497D02*
X110395866Y-59164996D01*
X110395866Y-59164996D02*
X110476679Y-59191934D01*
X110476679Y-59191934D02*
X110530553Y-59191934D01*
X110530553Y-59191934D02*
X110611366Y-59164996D01*
X110611366Y-59164996D02*
X110719115Y-59057247D01*
X110719115Y-59057247D02*
X110746053Y-58976434D01*
X110746053Y-58976434D02*
X110746053Y-58922560D01*
X110746053Y-58922560D02*
X110719115Y-58841747D01*
X110719115Y-58841747D02*
X110584428Y-58707060D01*
X110584428Y-58707060D02*
X110503616Y-58680123D01*
X110503616Y-58680123D02*
X110449741Y-58680123D01*
X110449741Y-58680123D02*
X110368929Y-58707060D01*
X110368929Y-58707060D02*
X110261179Y-58814810D01*
X110261179Y-58814810D02*
X110234242Y-58895622D01*
X110234242Y-58895622D02*
X110234242Y-58949497D01*
X110234242Y-58949497D02*
X110261179Y-59030309D01*
X108617998Y-72780868D02*
X108537185Y-72807805D01*
X108537185Y-72807805D02*
X108456373Y-72888618D01*
X108456373Y-72888618D02*
X108402498Y-72996367D01*
X108402498Y-72996367D02*
X108402498Y-73104117D01*
X108402498Y-73104117D02*
X108429436Y-73184929D01*
X108429436Y-73184929D02*
X108510248Y-73319616D01*
X108510248Y-73319616D02*
X108591060Y-73400428D01*
X108591060Y-73400428D02*
X108725747Y-73481241D01*
X108725747Y-73481241D02*
X108806560Y-73508178D01*
X108806560Y-73508178D02*
X108914309Y-73508178D01*
X108914309Y-73508178D02*
X109022059Y-73454303D01*
X109022059Y-73454303D02*
X109075934Y-73400428D01*
X109075934Y-73400428D02*
X109129808Y-73292679D01*
X109129808Y-73292679D02*
X109129808Y-73238804D01*
X109129808Y-73238804D02*
X108941247Y-73050242D01*
X108941247Y-73050242D02*
X108833497Y-73157992D01*
X109426120Y-73050242D02*
X108860434Y-72484557D01*
X108860434Y-72484557D02*
X109075934Y-72269057D01*
X109075934Y-72269057D02*
X109156746Y-72242120D01*
X109156746Y-72242120D02*
X109210621Y-72242120D01*
X109210621Y-72242120D02*
X109291433Y-72269057D01*
X109291433Y-72269057D02*
X109372245Y-72349870D01*
X109372245Y-72349870D02*
X109399182Y-72430682D01*
X109399182Y-72430682D02*
X109399182Y-72484557D01*
X109399182Y-72484557D02*
X109372245Y-72565369D01*
X109372245Y-72565369D02*
X109156746Y-72780868D01*
X109453057Y-71999683D02*
X109453057Y-71945809D01*
X109453057Y-71945809D02*
X109479995Y-71864996D01*
X109479995Y-71864996D02*
X109614682Y-71730309D01*
X109614682Y-71730309D02*
X109695494Y-71703372D01*
X109695494Y-71703372D02*
X109749369Y-71703372D01*
X109749369Y-71703372D02*
X109830181Y-71730309D01*
X109830181Y-71730309D02*
X109884056Y-71784184D01*
X109884056Y-71784184D02*
X109937930Y-71891934D01*
X109937930Y-71891934D02*
X109937930Y-72538431D01*
X109937930Y-72538431D02*
X110288117Y-72188245D01*
X110072618Y-71272373D02*
X110126492Y-71218499D01*
X110126492Y-71218499D02*
X110207305Y-71191561D01*
X110207305Y-71191561D02*
X110261179Y-71191561D01*
X110261179Y-71191561D02*
X110341992Y-71218499D01*
X110341992Y-71218499D02*
X110476679Y-71299311D01*
X110476679Y-71299311D02*
X110611366Y-71433998D01*
X110611366Y-71433998D02*
X110692178Y-71568685D01*
X110692178Y-71568685D02*
X110719115Y-71649497D01*
X110719115Y-71649497D02*
X110719115Y-71703372D01*
X110719115Y-71703372D02*
X110692178Y-71784184D01*
X110692178Y-71784184D02*
X110638303Y-71838059D01*
X110638303Y-71838059D02*
X110557491Y-71864996D01*
X110557491Y-71864996D02*
X110503616Y-71864996D01*
X110503616Y-71864996D02*
X110422804Y-71838059D01*
X110422804Y-71838059D02*
X110288117Y-71757247D01*
X110288117Y-71757247D02*
X110153430Y-71622560D01*
X110153430Y-71622560D02*
X110072618Y-71487873D01*
X110072618Y-71487873D02*
X110045680Y-71407060D01*
X110045680Y-71407060D02*
X110045680Y-71353186D01*
X110045680Y-71353186D02*
X110072618Y-71272373D01*
X108617998Y-70250868D02*
X108537185Y-70277805D01*
X108537185Y-70277805D02*
X108456373Y-70358618D01*
X108456373Y-70358618D02*
X108402498Y-70466367D01*
X108402498Y-70466367D02*
X108402498Y-70574117D01*
X108402498Y-70574117D02*
X108429436Y-70654929D01*
X108429436Y-70654929D02*
X108510248Y-70789616D01*
X108510248Y-70789616D02*
X108591060Y-70870428D01*
X108591060Y-70870428D02*
X108725747Y-70951241D01*
X108725747Y-70951241D02*
X108806560Y-70978178D01*
X108806560Y-70978178D02*
X108914309Y-70978178D01*
X108914309Y-70978178D02*
X109022059Y-70924303D01*
X109022059Y-70924303D02*
X109075934Y-70870428D01*
X109075934Y-70870428D02*
X109129808Y-70762679D01*
X109129808Y-70762679D02*
X109129808Y-70708804D01*
X109129808Y-70708804D02*
X108941247Y-70520242D01*
X108941247Y-70520242D02*
X108833497Y-70627992D01*
X109426120Y-70520242D02*
X108860434Y-69954557D01*
X108860434Y-69954557D02*
X109075934Y-69739057D01*
X109075934Y-69739057D02*
X109156746Y-69712120D01*
X109156746Y-69712120D02*
X109210621Y-69712120D01*
X109210621Y-69712120D02*
X109291433Y-69739057D01*
X109291433Y-69739057D02*
X109372245Y-69819870D01*
X109372245Y-69819870D02*
X109399182Y-69900682D01*
X109399182Y-69900682D02*
X109399182Y-69954557D01*
X109399182Y-69954557D02*
X109372245Y-70035369D01*
X109372245Y-70035369D02*
X109156746Y-70250868D01*
X109453057Y-69469683D02*
X109453057Y-69415809D01*
X109453057Y-69415809D02*
X109479995Y-69334996D01*
X109479995Y-69334996D02*
X109614682Y-69200309D01*
X109614682Y-69200309D02*
X109695494Y-69173372D01*
X109695494Y-69173372D02*
X109749369Y-69173372D01*
X109749369Y-69173372D02*
X109830181Y-69200309D01*
X109830181Y-69200309D02*
X109884056Y-69254184D01*
X109884056Y-69254184D02*
X109937930Y-69361934D01*
X109937930Y-69361934D02*
X109937930Y-70008431D01*
X109937930Y-70008431D02*
X110288117Y-69658245D01*
X110826865Y-69119497D02*
X110503616Y-69442746D01*
X110665240Y-69281121D02*
X110099555Y-68715436D01*
X110099555Y-68715436D02*
X110126492Y-68850123D01*
X110126492Y-68850123D02*
X110126492Y-68957873D01*
X110126492Y-68957873D02*
X110099555Y-69038685D01*
X108617998Y-65160868D02*
X108537185Y-65187805D01*
X108537185Y-65187805D02*
X108456373Y-65268618D01*
X108456373Y-65268618D02*
X108402498Y-65376367D01*
X108402498Y-65376367D02*
X108402498Y-65484117D01*
X108402498Y-65484117D02*
X108429436Y-65564929D01*
X108429436Y-65564929D02*
X108510248Y-65699616D01*
X108510248Y-65699616D02*
X108591060Y-65780428D01*
X108591060Y-65780428D02*
X108725747Y-65861241D01*
X108725747Y-65861241D02*
X108806560Y-65888178D01*
X108806560Y-65888178D02*
X108914309Y-65888178D01*
X108914309Y-65888178D02*
X109022059Y-65834303D01*
X109022059Y-65834303D02*
X109075934Y-65780428D01*
X109075934Y-65780428D02*
X109129808Y-65672679D01*
X109129808Y-65672679D02*
X109129808Y-65618804D01*
X109129808Y-65618804D02*
X108941247Y-65430242D01*
X108941247Y-65430242D02*
X108833497Y-65537992D01*
X109426120Y-65430242D02*
X108860434Y-64864557D01*
X108860434Y-64864557D02*
X109075934Y-64649057D01*
X109075934Y-64649057D02*
X109156746Y-64622120D01*
X109156746Y-64622120D02*
X109210621Y-64622120D01*
X109210621Y-64622120D02*
X109291433Y-64649057D01*
X109291433Y-64649057D02*
X109372245Y-64729870D01*
X109372245Y-64729870D02*
X109399182Y-64810682D01*
X109399182Y-64810682D02*
X109399182Y-64864557D01*
X109399182Y-64864557D02*
X109372245Y-64945369D01*
X109372245Y-64945369D02*
X109156746Y-65160868D01*
X109453057Y-64379683D02*
X109453057Y-64325809D01*
X109453057Y-64325809D02*
X109479995Y-64244996D01*
X109479995Y-64244996D02*
X109614682Y-64110309D01*
X109614682Y-64110309D02*
X109695494Y-64083372D01*
X109695494Y-64083372D02*
X109749369Y-64083372D01*
X109749369Y-64083372D02*
X109830181Y-64110309D01*
X109830181Y-64110309D02*
X109884056Y-64164184D01*
X109884056Y-64164184D02*
X109937930Y-64271934D01*
X109937930Y-64271934D02*
X109937930Y-64918431D01*
X109937930Y-64918431D02*
X110288117Y-64568245D01*
X109991805Y-63840935D02*
X109991805Y-63787060D01*
X109991805Y-63787060D02*
X110018743Y-63706248D01*
X110018743Y-63706248D02*
X110153430Y-63571561D01*
X110153430Y-63571561D02*
X110234242Y-63544624D01*
X110234242Y-63544624D02*
X110288117Y-63544624D01*
X110288117Y-63544624D02*
X110368929Y-63571561D01*
X110368929Y-63571561D02*
X110422804Y-63625436D01*
X110422804Y-63625436D02*
X110476679Y-63733186D01*
X110476679Y-63733186D02*
X110476679Y-64379683D01*
X110476679Y-64379683D02*
X110826865Y-64029497D01*
X83033372Y-62351494D02*
X82952560Y-62378431D01*
X82952560Y-62378431D02*
X82871748Y-62459243D01*
X82871748Y-62459243D02*
X82817873Y-62566993D01*
X82817873Y-62566993D02*
X82817873Y-62674742D01*
X82817873Y-62674742D02*
X82844810Y-62755555D01*
X82844810Y-62755555D02*
X82925623Y-62890242D01*
X82925623Y-62890242D02*
X83006435Y-62971054D01*
X83006435Y-62971054D02*
X83141122Y-63051866D01*
X83141122Y-63051866D02*
X83221934Y-63078803D01*
X83221934Y-63078803D02*
X83329684Y-63078803D01*
X83329684Y-63078803D02*
X83437433Y-63024929D01*
X83437433Y-63024929D02*
X83491308Y-62971054D01*
X83491308Y-62971054D02*
X83545183Y-62863304D01*
X83545183Y-62863304D02*
X83545183Y-62809429D01*
X83545183Y-62809429D02*
X83356621Y-62620868D01*
X83356621Y-62620868D02*
X83248871Y-62728617D01*
X83841494Y-62620868D02*
X83275809Y-62055182D01*
X83275809Y-62055182D02*
X83491308Y-61839683D01*
X83491308Y-61839683D02*
X83572120Y-61812746D01*
X83572120Y-61812746D02*
X83625995Y-61812746D01*
X83625995Y-61812746D02*
X83706807Y-61839683D01*
X83706807Y-61839683D02*
X83787619Y-61920495D01*
X83787619Y-61920495D02*
X83814557Y-62001307D01*
X83814557Y-62001307D02*
X83814557Y-62055182D01*
X83814557Y-62055182D02*
X83787619Y-62135994D01*
X83787619Y-62135994D02*
X83572120Y-62351494D01*
X84164743Y-61651121D02*
X84083931Y-61678059D01*
X84083931Y-61678059D02*
X84030056Y-61678059D01*
X84030056Y-61678059D02*
X83949244Y-61651121D01*
X83949244Y-61651121D02*
X83922306Y-61624184D01*
X83922306Y-61624184D02*
X83895369Y-61543372D01*
X83895369Y-61543372D02*
X83895369Y-61489497D01*
X83895369Y-61489497D02*
X83922306Y-61408685D01*
X83922306Y-61408685D02*
X84030056Y-61300935D01*
X84030056Y-61300935D02*
X84110868Y-61273998D01*
X84110868Y-61273998D02*
X84164743Y-61273998D01*
X84164743Y-61273998D02*
X84245555Y-61300935D01*
X84245555Y-61300935D02*
X84272493Y-61327872D01*
X84272493Y-61327872D02*
X84299430Y-61408685D01*
X84299430Y-61408685D02*
X84299430Y-61462559D01*
X84299430Y-61462559D02*
X84272493Y-61543372D01*
X84272493Y-61543372D02*
X84164743Y-61651121D01*
X84164743Y-61651121D02*
X84137806Y-61731933D01*
X84137806Y-61731933D02*
X84137806Y-61785808D01*
X84137806Y-61785808D02*
X84164743Y-61866620D01*
X84164743Y-61866620D02*
X84272493Y-61974370D01*
X84272493Y-61974370D02*
X84353305Y-62001307D01*
X84353305Y-62001307D02*
X84407180Y-62001307D01*
X84407180Y-62001307D02*
X84487992Y-61974370D01*
X84487992Y-61974370D02*
X84595741Y-61866620D01*
X84595741Y-61866620D02*
X84622679Y-61785808D01*
X84622679Y-61785808D02*
X84622679Y-61731933D01*
X84622679Y-61731933D02*
X84595741Y-61651121D01*
X84595741Y-61651121D02*
X84487992Y-61543372D01*
X84487992Y-61543372D02*
X84407180Y-61516434D01*
X84407180Y-61516434D02*
X84353305Y-61516434D01*
X84353305Y-61516434D02*
X84272493Y-61543372D01*
X82509998Y-77860868D02*
X82429185Y-77887805D01*
X82429185Y-77887805D02*
X82348373Y-77968618D01*
X82348373Y-77968618D02*
X82294498Y-78076367D01*
X82294498Y-78076367D02*
X82294498Y-78184117D01*
X82294498Y-78184117D02*
X82321436Y-78264929D01*
X82321436Y-78264929D02*
X82402248Y-78399616D01*
X82402248Y-78399616D02*
X82483060Y-78480428D01*
X82483060Y-78480428D02*
X82617747Y-78561241D01*
X82617747Y-78561241D02*
X82698560Y-78588178D01*
X82698560Y-78588178D02*
X82806309Y-78588178D01*
X82806309Y-78588178D02*
X82914059Y-78534303D01*
X82914059Y-78534303D02*
X82967934Y-78480428D01*
X82967934Y-78480428D02*
X83021808Y-78372679D01*
X83021808Y-78372679D02*
X83021808Y-78318804D01*
X83021808Y-78318804D02*
X82833247Y-78130242D01*
X82833247Y-78130242D02*
X82725497Y-78237992D01*
X83318120Y-78130242D02*
X82752434Y-77564557D01*
X82752434Y-77564557D02*
X82967934Y-77349057D01*
X82967934Y-77349057D02*
X83048746Y-77322120D01*
X83048746Y-77322120D02*
X83102621Y-77322120D01*
X83102621Y-77322120D02*
X83183433Y-77349057D01*
X83183433Y-77349057D02*
X83264245Y-77429870D01*
X83264245Y-77429870D02*
X83291182Y-77510682D01*
X83291182Y-77510682D02*
X83291182Y-77564557D01*
X83291182Y-77564557D02*
X83264245Y-77645369D01*
X83264245Y-77645369D02*
X83048746Y-77860868D01*
X84180117Y-77268245D02*
X83856868Y-77591494D01*
X84018492Y-77429870D02*
X83452807Y-76864184D01*
X83452807Y-76864184D02*
X83479744Y-76998871D01*
X83479744Y-76998871D02*
X83479744Y-77106621D01*
X83479744Y-77106621D02*
X83452807Y-77187433D01*
X83802993Y-76513998D02*
X84153179Y-76163812D01*
X84153179Y-76163812D02*
X84180117Y-76567873D01*
X84180117Y-76567873D02*
X84260929Y-76487060D01*
X84260929Y-76487060D02*
X84341741Y-76460123D01*
X84341741Y-76460123D02*
X84395616Y-76460123D01*
X84395616Y-76460123D02*
X84476428Y-76487060D01*
X84476428Y-76487060D02*
X84611115Y-76621747D01*
X84611115Y-76621747D02*
X84638053Y-76702560D01*
X84638053Y-76702560D02*
X84638053Y-76756434D01*
X84638053Y-76756434D02*
X84611115Y-76837247D01*
X84611115Y-76837247D02*
X84449491Y-76998871D01*
X84449491Y-76998871D02*
X84368679Y-77025808D01*
X84368679Y-77025808D02*
X84314804Y-77025808D01*
X101590749Y-40792242D02*
X102344996Y-41169366D01*
X102344996Y-41169366D02*
X101967873Y-40415118D01*
X102668245Y-40792242D02*
X102775995Y-40738367D01*
X102775995Y-40738367D02*
X102910682Y-40603680D01*
X102910682Y-40603680D02*
X102937619Y-40522868D01*
X102937619Y-40522868D02*
X102937619Y-40468993D01*
X102937619Y-40468993D02*
X102910682Y-40388181D01*
X102910682Y-40388181D02*
X102856807Y-40334306D01*
X102856807Y-40334306D02*
X102775995Y-40307369D01*
X102775995Y-40307369D02*
X102722120Y-40307369D01*
X102722120Y-40307369D02*
X102641308Y-40334306D01*
X102641308Y-40334306D02*
X102506621Y-40415118D01*
X102506621Y-40415118D02*
X102425808Y-40442056D01*
X102425808Y-40442056D02*
X102371934Y-40442056D01*
X102371934Y-40442056D02*
X102291121Y-40415118D01*
X102291121Y-40415118D02*
X102237247Y-40361244D01*
X102237247Y-40361244D02*
X102210309Y-40280431D01*
X102210309Y-40280431D02*
X102210309Y-40226557D01*
X102210309Y-40226557D02*
X102237247Y-40145744D01*
X102237247Y-40145744D02*
X102371934Y-40011057D01*
X102371934Y-40011057D02*
X102479683Y-39957183D01*
X103099244Y-39876370D02*
X103368618Y-40145744D01*
X102614370Y-39768621D02*
X103099244Y-39876370D01*
X103099244Y-39876370D02*
X102991494Y-39391497D01*
X103691866Y-39768621D02*
X103799616Y-39714746D01*
X103799616Y-39714746D02*
X103934303Y-39580059D01*
X103934303Y-39580059D02*
X103961240Y-39499247D01*
X103961240Y-39499247D02*
X103961240Y-39445372D01*
X103961240Y-39445372D02*
X103934303Y-39364560D01*
X103934303Y-39364560D02*
X103880428Y-39310685D01*
X103880428Y-39310685D02*
X103799616Y-39283748D01*
X103799616Y-39283748D02*
X103745741Y-39283748D01*
X103745741Y-39283748D02*
X103664929Y-39310685D01*
X103664929Y-39310685D02*
X103530242Y-39391497D01*
X103530242Y-39391497D02*
X103449430Y-39418435D01*
X103449430Y-39418435D02*
X103395555Y-39418435D01*
X103395555Y-39418435D02*
X103314743Y-39391497D01*
X103314743Y-39391497D02*
X103260868Y-39337622D01*
X103260868Y-39337622D02*
X103233930Y-39256810D01*
X103233930Y-39256810D02*
X103233930Y-39202935D01*
X103233930Y-39202935D02*
X103260868Y-39122123D01*
X103260868Y-39122123D02*
X103395555Y-38987436D01*
X103395555Y-38987436D02*
X103503304Y-38933561D01*
X83033372Y-52191494D02*
X82952560Y-52218431D01*
X82952560Y-52218431D02*
X82871748Y-52299243D01*
X82871748Y-52299243D02*
X82817873Y-52406993D01*
X82817873Y-52406993D02*
X82817873Y-52514742D01*
X82817873Y-52514742D02*
X82844810Y-52595555D01*
X82844810Y-52595555D02*
X82925623Y-52730242D01*
X82925623Y-52730242D02*
X83006435Y-52811054D01*
X83006435Y-52811054D02*
X83141122Y-52891866D01*
X83141122Y-52891866D02*
X83221934Y-52918803D01*
X83221934Y-52918803D02*
X83329684Y-52918803D01*
X83329684Y-52918803D02*
X83437433Y-52864929D01*
X83437433Y-52864929D02*
X83491308Y-52811054D01*
X83491308Y-52811054D02*
X83545183Y-52703304D01*
X83545183Y-52703304D02*
X83545183Y-52649429D01*
X83545183Y-52649429D02*
X83356621Y-52460868D01*
X83356621Y-52460868D02*
X83248871Y-52568617D01*
X83841494Y-52460868D02*
X83275809Y-51895182D01*
X83275809Y-51895182D02*
X83491308Y-51679683D01*
X83491308Y-51679683D02*
X83572120Y-51652746D01*
X83572120Y-51652746D02*
X83625995Y-51652746D01*
X83625995Y-51652746D02*
X83706807Y-51679683D01*
X83706807Y-51679683D02*
X83787619Y-51760495D01*
X83787619Y-51760495D02*
X83814557Y-51841307D01*
X83814557Y-51841307D02*
X83814557Y-51895182D01*
X83814557Y-51895182D02*
X83787619Y-51975994D01*
X83787619Y-51975994D02*
X83572120Y-52191494D01*
X84110868Y-51060123D02*
X83841494Y-51329497D01*
X83841494Y-51329497D02*
X84083931Y-51625808D01*
X84083931Y-51625808D02*
X84083931Y-51571933D01*
X84083931Y-51571933D02*
X84110868Y-51491121D01*
X84110868Y-51491121D02*
X84245555Y-51356434D01*
X84245555Y-51356434D02*
X84326367Y-51329497D01*
X84326367Y-51329497D02*
X84380242Y-51329497D01*
X84380242Y-51329497D02*
X84461054Y-51356434D01*
X84461054Y-51356434D02*
X84595741Y-51491121D01*
X84595741Y-51491121D02*
X84622679Y-51571933D01*
X84622679Y-51571933D02*
X84622679Y-51625808D01*
X84622679Y-51625808D02*
X84595741Y-51706620D01*
X84595741Y-51706620D02*
X84461054Y-51841307D01*
X84461054Y-51841307D02*
X84380242Y-51868245D01*
X84380242Y-51868245D02*
X84326367Y-51868245D01*
X83033372Y-47111494D02*
X82952560Y-47138431D01*
X82952560Y-47138431D02*
X82871748Y-47219243D01*
X82871748Y-47219243D02*
X82817873Y-47326993D01*
X82817873Y-47326993D02*
X82817873Y-47434742D01*
X82817873Y-47434742D02*
X82844810Y-47515555D01*
X82844810Y-47515555D02*
X82925623Y-47650242D01*
X82925623Y-47650242D02*
X83006435Y-47731054D01*
X83006435Y-47731054D02*
X83141122Y-47811866D01*
X83141122Y-47811866D02*
X83221934Y-47838803D01*
X83221934Y-47838803D02*
X83329684Y-47838803D01*
X83329684Y-47838803D02*
X83437433Y-47784929D01*
X83437433Y-47784929D02*
X83491308Y-47731054D01*
X83491308Y-47731054D02*
X83545183Y-47623304D01*
X83545183Y-47623304D02*
X83545183Y-47569429D01*
X83545183Y-47569429D02*
X83356621Y-47380868D01*
X83356621Y-47380868D02*
X83248871Y-47488617D01*
X83841494Y-47380868D02*
X83275809Y-46815182D01*
X83275809Y-46815182D02*
X83491308Y-46599683D01*
X83491308Y-46599683D02*
X83572120Y-46572746D01*
X83572120Y-46572746D02*
X83625995Y-46572746D01*
X83625995Y-46572746D02*
X83706807Y-46599683D01*
X83706807Y-46599683D02*
X83787619Y-46680495D01*
X83787619Y-46680495D02*
X83814557Y-46761307D01*
X83814557Y-46761307D02*
X83814557Y-46815182D01*
X83814557Y-46815182D02*
X83787619Y-46895994D01*
X83787619Y-46895994D02*
X83572120Y-47111494D01*
X83787619Y-46303372D02*
X84137806Y-45953185D01*
X84137806Y-45953185D02*
X84164743Y-46357246D01*
X84164743Y-46357246D02*
X84245555Y-46276434D01*
X84245555Y-46276434D02*
X84326367Y-46249497D01*
X84326367Y-46249497D02*
X84380242Y-46249497D01*
X84380242Y-46249497D02*
X84461054Y-46276434D01*
X84461054Y-46276434D02*
X84595741Y-46411121D01*
X84595741Y-46411121D02*
X84622679Y-46491933D01*
X84622679Y-46491933D02*
X84622679Y-46545808D01*
X84622679Y-46545808D02*
X84595741Y-46626620D01*
X84595741Y-46626620D02*
X84434117Y-46788245D01*
X84434117Y-46788245D02*
X84353305Y-46815182D01*
X84353305Y-46815182D02*
X84299430Y-46815182D01*
X83006435Y-54758431D02*
X82925623Y-54785368D01*
X82925623Y-54785368D02*
X82844811Y-54866180D01*
X82844811Y-54866180D02*
X82790936Y-54973930D01*
X82790936Y-54973930D02*
X82790936Y-55081680D01*
X82790936Y-55081680D02*
X82817873Y-55162492D01*
X82817873Y-55162492D02*
X82898685Y-55297179D01*
X82898685Y-55297179D02*
X82979498Y-55377991D01*
X82979498Y-55377991D02*
X83114185Y-55458803D01*
X83114185Y-55458803D02*
X83194997Y-55485741D01*
X83194997Y-55485741D02*
X83302746Y-55485741D01*
X83302746Y-55485741D02*
X83410496Y-55431866D01*
X83410496Y-55431866D02*
X83464371Y-55377991D01*
X83464371Y-55377991D02*
X83518246Y-55270241D01*
X83518246Y-55270241D02*
X83518246Y-55216367D01*
X83518246Y-55216367D02*
X83329684Y-55027805D01*
X83329684Y-55027805D02*
X83221934Y-55135554D01*
X83814557Y-55027805D02*
X83248872Y-54462119D01*
X83248872Y-54462119D02*
X84137806Y-54704556D01*
X84137806Y-54704556D02*
X83572120Y-54138871D01*
X84407180Y-54435182D02*
X83841494Y-53869497D01*
X83841494Y-53869497D02*
X83976181Y-53734810D01*
X83976181Y-53734810D02*
X84083931Y-53680935D01*
X84083931Y-53680935D02*
X84191680Y-53680935D01*
X84191680Y-53680935D02*
X84272493Y-53707872D01*
X84272493Y-53707872D02*
X84407180Y-53788685D01*
X84407180Y-53788685D02*
X84487992Y-53869497D01*
X84487992Y-53869497D02*
X84568804Y-54004184D01*
X84568804Y-54004184D02*
X84595741Y-54084996D01*
X84595741Y-54084996D02*
X84595741Y-54192746D01*
X84595741Y-54192746D02*
X84541867Y-54300495D01*
X84541867Y-54300495D02*
X84407180Y-54435182D01*
X82509998Y-85480868D02*
X82429185Y-85507805D01*
X82429185Y-85507805D02*
X82348373Y-85588618D01*
X82348373Y-85588618D02*
X82294498Y-85696367D01*
X82294498Y-85696367D02*
X82294498Y-85804117D01*
X82294498Y-85804117D02*
X82321436Y-85884929D01*
X82321436Y-85884929D02*
X82402248Y-86019616D01*
X82402248Y-86019616D02*
X82483060Y-86100428D01*
X82483060Y-86100428D02*
X82617747Y-86181241D01*
X82617747Y-86181241D02*
X82698560Y-86208178D01*
X82698560Y-86208178D02*
X82806309Y-86208178D01*
X82806309Y-86208178D02*
X82914059Y-86154303D01*
X82914059Y-86154303D02*
X82967934Y-86100428D01*
X82967934Y-86100428D02*
X83021808Y-85992679D01*
X83021808Y-85992679D02*
X83021808Y-85938804D01*
X83021808Y-85938804D02*
X82833247Y-85750242D01*
X82833247Y-85750242D02*
X82725497Y-85857992D01*
X83318120Y-85750242D02*
X82752434Y-85184557D01*
X82752434Y-85184557D02*
X82967934Y-84969057D01*
X82967934Y-84969057D02*
X83048746Y-84942120D01*
X83048746Y-84942120D02*
X83102621Y-84942120D01*
X83102621Y-84942120D02*
X83183433Y-84969057D01*
X83183433Y-84969057D02*
X83264245Y-85049870D01*
X83264245Y-85049870D02*
X83291182Y-85130682D01*
X83291182Y-85130682D02*
X83291182Y-85184557D01*
X83291182Y-85184557D02*
X83264245Y-85265369D01*
X83264245Y-85265369D02*
X83048746Y-85480868D01*
X84180117Y-84888245D02*
X83856868Y-85211494D01*
X84018492Y-85049870D02*
X83452807Y-84484184D01*
X83452807Y-84484184D02*
X83479744Y-84618871D01*
X83479744Y-84618871D02*
X83479744Y-84726621D01*
X83479744Y-84726621D02*
X83452807Y-84807433D01*
X84126242Y-83810749D02*
X83856868Y-84080123D01*
X83856868Y-84080123D02*
X84099305Y-84376434D01*
X84099305Y-84376434D02*
X84099305Y-84322560D01*
X84099305Y-84322560D02*
X84126242Y-84241747D01*
X84126242Y-84241747D02*
X84260929Y-84107060D01*
X84260929Y-84107060D02*
X84341741Y-84080123D01*
X84341741Y-84080123D02*
X84395616Y-84080123D01*
X84395616Y-84080123D02*
X84476428Y-84107060D01*
X84476428Y-84107060D02*
X84611115Y-84241747D01*
X84611115Y-84241747D02*
X84638053Y-84322560D01*
X84638053Y-84322560D02*
X84638053Y-84376434D01*
X84638053Y-84376434D02*
X84611115Y-84457247D01*
X84611115Y-84457247D02*
X84476428Y-84591934D01*
X84476428Y-84591934D02*
X84395616Y-84618871D01*
X84395616Y-84618871D02*
X84341741Y-84618871D01*
X83033372Y-36951494D02*
X82952560Y-36978431D01*
X82952560Y-36978431D02*
X82871748Y-37059243D01*
X82871748Y-37059243D02*
X82817873Y-37166993D01*
X82817873Y-37166993D02*
X82817873Y-37274742D01*
X82817873Y-37274742D02*
X82844810Y-37355555D01*
X82844810Y-37355555D02*
X82925623Y-37490242D01*
X82925623Y-37490242D02*
X83006435Y-37571054D01*
X83006435Y-37571054D02*
X83141122Y-37651866D01*
X83141122Y-37651866D02*
X83221934Y-37678803D01*
X83221934Y-37678803D02*
X83329684Y-37678803D01*
X83329684Y-37678803D02*
X83437433Y-37624929D01*
X83437433Y-37624929D02*
X83491308Y-37571054D01*
X83491308Y-37571054D02*
X83545183Y-37463304D01*
X83545183Y-37463304D02*
X83545183Y-37409429D01*
X83545183Y-37409429D02*
X83356621Y-37220868D01*
X83356621Y-37220868D02*
X83248871Y-37328617D01*
X83841494Y-37220868D02*
X83275809Y-36655182D01*
X83275809Y-36655182D02*
X83491308Y-36439683D01*
X83491308Y-36439683D02*
X83572120Y-36412746D01*
X83572120Y-36412746D02*
X83625995Y-36412746D01*
X83625995Y-36412746D02*
X83706807Y-36439683D01*
X83706807Y-36439683D02*
X83787619Y-36520495D01*
X83787619Y-36520495D02*
X83814557Y-36601307D01*
X83814557Y-36601307D02*
X83814557Y-36655182D01*
X83814557Y-36655182D02*
X83787619Y-36735994D01*
X83787619Y-36735994D02*
X83572120Y-36951494D01*
X83949244Y-35981747D02*
X84003119Y-35927872D01*
X84003119Y-35927872D02*
X84083931Y-35900935D01*
X84083931Y-35900935D02*
X84137806Y-35900935D01*
X84137806Y-35900935D02*
X84218618Y-35927872D01*
X84218618Y-35927872D02*
X84353305Y-36008685D01*
X84353305Y-36008685D02*
X84487992Y-36143372D01*
X84487992Y-36143372D02*
X84568804Y-36278059D01*
X84568804Y-36278059D02*
X84595741Y-36358871D01*
X84595741Y-36358871D02*
X84595741Y-36412746D01*
X84595741Y-36412746D02*
X84568804Y-36493558D01*
X84568804Y-36493558D02*
X84514929Y-36547433D01*
X84514929Y-36547433D02*
X84434117Y-36574370D01*
X84434117Y-36574370D02*
X84380242Y-36574370D01*
X84380242Y-36574370D02*
X84299430Y-36547433D01*
X84299430Y-36547433D02*
X84164743Y-36466620D01*
X84164743Y-36466620D02*
X84030056Y-36331933D01*
X84030056Y-36331933D02*
X83949244Y-36197246D01*
X83949244Y-36197246D02*
X83922306Y-36116434D01*
X83922306Y-36116434D02*
X83922306Y-36062559D01*
X83922306Y-36062559D02*
X83949244Y-35981747D01*
X71590819Y-66801904D02*
X72400342Y-66801904D01*
X72400342Y-66801904D02*
X72495580Y-66754285D01*
X72495580Y-66754285D02*
X72543200Y-66706666D01*
X72543200Y-66706666D02*
X72590819Y-66611428D01*
X72590819Y-66611428D02*
X72590819Y-66420952D01*
X72590819Y-66420952D02*
X72543200Y-66325714D01*
X72543200Y-66325714D02*
X72495580Y-66278095D01*
X72495580Y-66278095D02*
X72400342Y-66230476D01*
X72400342Y-66230476D02*
X71590819Y-66230476D01*
X71686057Y-65801904D02*
X71638438Y-65754285D01*
X71638438Y-65754285D02*
X71590819Y-65659047D01*
X71590819Y-65659047D02*
X71590819Y-65420952D01*
X71590819Y-65420952D02*
X71638438Y-65325714D01*
X71638438Y-65325714D02*
X71686057Y-65278095D01*
X71686057Y-65278095D02*
X71781295Y-65230476D01*
X71781295Y-65230476D02*
X71876533Y-65230476D01*
X71876533Y-65230476D02*
X72019390Y-65278095D01*
X72019390Y-65278095D02*
X72590819Y-65849523D01*
X72590819Y-65849523D02*
X72590819Y-65230476D01*
D12*
X72126320Y-60823144D02*
X72154891Y-60737430D01*
X72154891Y-60737430D02*
X72154891Y-60594572D01*
X72154891Y-60594572D02*
X72126320Y-60537430D01*
X72126320Y-60537430D02*
X72097748Y-60508858D01*
X72097748Y-60508858D02*
X72040605Y-60480287D01*
X72040605Y-60480287D02*
X71983462Y-60480287D01*
X71983462Y-60480287D02*
X71926320Y-60508858D01*
X71926320Y-60508858D02*
X71897748Y-60537430D01*
X71897748Y-60537430D02*
X71869177Y-60594572D01*
X71869177Y-60594572D02*
X71840605Y-60708858D01*
X71840605Y-60708858D02*
X71812034Y-60766001D01*
X71812034Y-60766001D02*
X71783462Y-60794572D01*
X71783462Y-60794572D02*
X71726320Y-60823144D01*
X71726320Y-60823144D02*
X71669177Y-60823144D01*
X71669177Y-60823144D02*
X71612034Y-60794572D01*
X71612034Y-60794572D02*
X71583462Y-60766001D01*
X71583462Y-60766001D02*
X71554891Y-60708858D01*
X71554891Y-60708858D02*
X71554891Y-60566001D01*
X71554891Y-60566001D02*
X71583462Y-60480287D01*
X72126320Y-60251715D02*
X72154891Y-60166001D01*
X72154891Y-60166001D02*
X72154891Y-60023143D01*
X72154891Y-60023143D02*
X72126320Y-59966001D01*
X72126320Y-59966001D02*
X72097748Y-59937429D01*
X72097748Y-59937429D02*
X72040605Y-59908858D01*
X72040605Y-59908858D02*
X71983462Y-59908858D01*
X71983462Y-59908858D02*
X71926320Y-59937429D01*
X71926320Y-59937429D02*
X71897748Y-59966001D01*
X71897748Y-59966001D02*
X71869177Y-60023143D01*
X71869177Y-60023143D02*
X71840605Y-60137429D01*
X71840605Y-60137429D02*
X71812034Y-60194572D01*
X71812034Y-60194572D02*
X71783462Y-60223143D01*
X71783462Y-60223143D02*
X71726320Y-60251715D01*
X71726320Y-60251715D02*
X71669177Y-60251715D01*
X71669177Y-60251715D02*
X71612034Y-60223143D01*
X71612034Y-60223143D02*
X71583462Y-60194572D01*
X71583462Y-60194572D02*
X71554891Y-60137429D01*
X71554891Y-60137429D02*
X71554891Y-59994572D01*
X71554891Y-59994572D02*
X71583462Y-59908858D01*
X71554891Y-59737429D02*
X71554891Y-59394572D01*
X72154891Y-59566000D02*
X71554891Y-59566000D01*
X71554891Y-59251714D02*
X71554891Y-58880286D01*
X71554891Y-58880286D02*
X71783462Y-59080286D01*
X71783462Y-59080286D02*
X71783462Y-58994571D01*
X71783462Y-58994571D02*
X71812034Y-58937429D01*
X71812034Y-58937429D02*
X71840605Y-58908857D01*
X71840605Y-58908857D02*
X71897748Y-58880286D01*
X71897748Y-58880286D02*
X72040605Y-58880286D01*
X72040605Y-58880286D02*
X72097748Y-58908857D01*
X72097748Y-58908857D02*
X72126320Y-58937429D01*
X72126320Y-58937429D02*
X72154891Y-58994571D01*
X72154891Y-58994571D02*
X72154891Y-59166000D01*
X72154891Y-59166000D02*
X72126320Y-59223143D01*
X72126320Y-59223143D02*
X72097748Y-59251714D01*
X72154891Y-58594571D02*
X72154891Y-58480285D01*
X72154891Y-58480285D02*
X72126320Y-58423142D01*
X72126320Y-58423142D02*
X72097748Y-58394571D01*
X72097748Y-58394571D02*
X72012034Y-58337428D01*
X72012034Y-58337428D02*
X71897748Y-58308857D01*
X71897748Y-58308857D02*
X71669177Y-58308857D01*
X71669177Y-58308857D02*
X71612034Y-58337428D01*
X71612034Y-58337428D02*
X71583462Y-58366000D01*
X71583462Y-58366000D02*
X71554891Y-58423142D01*
X71554891Y-58423142D02*
X71554891Y-58537428D01*
X71554891Y-58537428D02*
X71583462Y-58594571D01*
X71583462Y-58594571D02*
X71612034Y-58623142D01*
X71612034Y-58623142D02*
X71669177Y-58651714D01*
X71669177Y-58651714D02*
X71812034Y-58651714D01*
X71812034Y-58651714D02*
X71869177Y-58623142D01*
X71869177Y-58623142D02*
X71897748Y-58594571D01*
X71897748Y-58594571D02*
X71926320Y-58537428D01*
X71926320Y-58537428D02*
X71926320Y-58423142D01*
X71926320Y-58423142D02*
X71897748Y-58366000D01*
X71897748Y-58366000D02*
X71869177Y-58337428D01*
X71869177Y-58337428D02*
X71812034Y-58308857D01*
X72126320Y-58080285D02*
X72154891Y-57994571D01*
X72154891Y-57994571D02*
X72154891Y-57851713D01*
X72154891Y-57851713D02*
X72126320Y-57794571D01*
X72126320Y-57794571D02*
X72097748Y-57765999D01*
X72097748Y-57765999D02*
X72040605Y-57737428D01*
X72040605Y-57737428D02*
X71983462Y-57737428D01*
X71983462Y-57737428D02*
X71926320Y-57765999D01*
X71926320Y-57765999D02*
X71897748Y-57794571D01*
X71897748Y-57794571D02*
X71869177Y-57851713D01*
X71869177Y-57851713D02*
X71840605Y-57965999D01*
X71840605Y-57965999D02*
X71812034Y-58023142D01*
X71812034Y-58023142D02*
X71783462Y-58051713D01*
X71783462Y-58051713D02*
X71726320Y-58080285D01*
X71726320Y-58080285D02*
X71669177Y-58080285D01*
X71669177Y-58080285D02*
X71612034Y-58051713D01*
X71612034Y-58051713D02*
X71583462Y-58023142D01*
X71583462Y-58023142D02*
X71554891Y-57965999D01*
X71554891Y-57965999D02*
X71554891Y-57823142D01*
X71554891Y-57823142D02*
X71583462Y-57737428D01*
X71840605Y-57280284D02*
X71840605Y-57480284D01*
X72154891Y-57480284D02*
X71554891Y-57480284D01*
X71554891Y-57480284D02*
X71554891Y-57194570D01*
X71554891Y-56851713D02*
X71554891Y-56794570D01*
X71554891Y-56794570D02*
X71583462Y-56737427D01*
X71583462Y-56737427D02*
X71612034Y-56708856D01*
X71612034Y-56708856D02*
X71669177Y-56680284D01*
X71669177Y-56680284D02*
X71783462Y-56651713D01*
X71783462Y-56651713D02*
X71926320Y-56651713D01*
X71926320Y-56651713D02*
X72040605Y-56680284D01*
X72040605Y-56680284D02*
X72097748Y-56708856D01*
X72097748Y-56708856D02*
X72126320Y-56737427D01*
X72126320Y-56737427D02*
X72154891Y-56794570D01*
X72154891Y-56794570D02*
X72154891Y-56851713D01*
X72154891Y-56851713D02*
X72126320Y-56908856D01*
X72126320Y-56908856D02*
X72097748Y-56937427D01*
X72097748Y-56937427D02*
X72040605Y-56965998D01*
X72040605Y-56965998D02*
X71926320Y-56994570D01*
X71926320Y-56994570D02*
X71783462Y-56994570D01*
X71783462Y-56994570D02*
X71669177Y-56965998D01*
X71669177Y-56965998D02*
X71612034Y-56937427D01*
X71612034Y-56937427D02*
X71583462Y-56908856D01*
X71583462Y-56908856D02*
X71554891Y-56851713D01*
X71754891Y-56137427D02*
X72154891Y-56137427D01*
X71526320Y-56280284D02*
X71954891Y-56423141D01*
X71954891Y-56423141D02*
X71954891Y-56051712D01*
X71554891Y-55708855D02*
X71554891Y-55651712D01*
X71554891Y-55651712D02*
X71583462Y-55594569D01*
X71583462Y-55594569D02*
X71612034Y-55565998D01*
X71612034Y-55565998D02*
X71669177Y-55537426D01*
X71669177Y-55537426D02*
X71783462Y-55508855D01*
X71783462Y-55508855D02*
X71926320Y-55508855D01*
X71926320Y-55508855D02*
X72040605Y-55537426D01*
X72040605Y-55537426D02*
X72097748Y-55565998D01*
X72097748Y-55565998D02*
X72126320Y-55594569D01*
X72126320Y-55594569D02*
X72154891Y-55651712D01*
X72154891Y-55651712D02*
X72154891Y-55708855D01*
X72154891Y-55708855D02*
X72126320Y-55765998D01*
X72126320Y-55765998D02*
X72097748Y-55794569D01*
X72097748Y-55794569D02*
X72040605Y-55823140D01*
X72040605Y-55823140D02*
X71926320Y-55851712D01*
X71926320Y-55851712D02*
X71783462Y-55851712D01*
X71783462Y-55851712D02*
X71669177Y-55823140D01*
X71669177Y-55823140D02*
X71612034Y-55794569D01*
X71612034Y-55794569D02*
X71583462Y-55765998D01*
X71583462Y-55765998D02*
X71554891Y-55708855D01*
D10*
X25082667Y-89747200D02*
X25225524Y-89794819D01*
X25225524Y-89794819D02*
X25463619Y-89794819D01*
X25463619Y-89794819D02*
X25558857Y-89747200D01*
X25558857Y-89747200D02*
X25606476Y-89699580D01*
X25606476Y-89699580D02*
X25654095Y-89604342D01*
X25654095Y-89604342D02*
X25654095Y-89509104D01*
X25654095Y-89509104D02*
X25606476Y-89413866D01*
X25606476Y-89413866D02*
X25558857Y-89366247D01*
X25558857Y-89366247D02*
X25463619Y-89318628D01*
X25463619Y-89318628D02*
X25273143Y-89271009D01*
X25273143Y-89271009D02*
X25177905Y-89223390D01*
X25177905Y-89223390D02*
X25130286Y-89175771D01*
X25130286Y-89175771D02*
X25082667Y-89080533D01*
X25082667Y-89080533D02*
X25082667Y-88985295D01*
X25082667Y-88985295D02*
X25130286Y-88890057D01*
X25130286Y-88890057D02*
X25177905Y-88842438D01*
X25177905Y-88842438D02*
X25273143Y-88794819D01*
X25273143Y-88794819D02*
X25511238Y-88794819D01*
X25511238Y-88794819D02*
X25654095Y-88842438D01*
X25987429Y-88794819D02*
X26225524Y-89794819D01*
X26225524Y-89794819D02*
X26416000Y-89080533D01*
X26416000Y-89080533D02*
X26606476Y-89794819D01*
X26606476Y-89794819D02*
X26844572Y-88794819D01*
X27749333Y-89794819D02*
X27177905Y-89794819D01*
X27463619Y-89794819D02*
X27463619Y-88794819D01*
X27463619Y-88794819D02*
X27368381Y-88937676D01*
X27368381Y-88937676D02*
X27273143Y-89032914D01*
X27273143Y-89032914D02*
X27177905Y-89080533D01*
X35324905Y-81584819D02*
X35324905Y-80584819D01*
X35324905Y-80584819D02*
X35563000Y-80584819D01*
X35563000Y-80584819D02*
X35705857Y-80632438D01*
X35705857Y-80632438D02*
X35801095Y-80727676D01*
X35801095Y-80727676D02*
X35848714Y-80822914D01*
X35848714Y-80822914D02*
X35896333Y-81013390D01*
X35896333Y-81013390D02*
X35896333Y-81156247D01*
X35896333Y-81156247D02*
X35848714Y-81346723D01*
X35848714Y-81346723D02*
X35801095Y-81441961D01*
X35801095Y-81441961D02*
X35705857Y-81537200D01*
X35705857Y-81537200D02*
X35563000Y-81584819D01*
X35563000Y-81584819D02*
X35324905Y-81584819D01*
X36277286Y-80680057D02*
X36324905Y-80632438D01*
X36324905Y-80632438D02*
X36420143Y-80584819D01*
X36420143Y-80584819D02*
X36658238Y-80584819D01*
X36658238Y-80584819D02*
X36753476Y-80632438D01*
X36753476Y-80632438D02*
X36801095Y-80680057D01*
X36801095Y-80680057D02*
X36848714Y-80775295D01*
X36848714Y-80775295D02*
X36848714Y-80870533D01*
X36848714Y-80870533D02*
X36801095Y-81013390D01*
X36801095Y-81013390D02*
X36229667Y-81584819D01*
X36229667Y-81584819D02*
X36848714Y-81584819D01*
X47775905Y-81584819D02*
X47775905Y-80584819D01*
X47775905Y-80584819D02*
X48014000Y-80584819D01*
X48014000Y-80584819D02*
X48156857Y-80632438D01*
X48156857Y-80632438D02*
X48252095Y-80727676D01*
X48252095Y-80727676D02*
X48299714Y-80822914D01*
X48299714Y-80822914D02*
X48347333Y-81013390D01*
X48347333Y-81013390D02*
X48347333Y-81156247D01*
X48347333Y-81156247D02*
X48299714Y-81346723D01*
X48299714Y-81346723D02*
X48252095Y-81441961D01*
X48252095Y-81441961D02*
X48156857Y-81537200D01*
X48156857Y-81537200D02*
X48014000Y-81584819D01*
X48014000Y-81584819D02*
X47775905Y-81584819D01*
X48680667Y-80584819D02*
X49299714Y-80584819D01*
X49299714Y-80584819D02*
X48966381Y-80965771D01*
X48966381Y-80965771D02*
X49109238Y-80965771D01*
X49109238Y-80965771D02*
X49204476Y-81013390D01*
X49204476Y-81013390D02*
X49252095Y-81061009D01*
X49252095Y-81061009D02*
X49299714Y-81156247D01*
X49299714Y-81156247D02*
X49299714Y-81394342D01*
X49299714Y-81394342D02*
X49252095Y-81489580D01*
X49252095Y-81489580D02*
X49204476Y-81537200D01*
X49204476Y-81537200D02*
X49109238Y-81584819D01*
X49109238Y-81584819D02*
X48823524Y-81584819D01*
X48823524Y-81584819D02*
X48728286Y-81537200D01*
X48728286Y-81537200D02*
X48680667Y-81489580D01*
D13*
%TO.C,U5*%
X107020000Y-55660000D02*
X107020000Y-56060000D01*
X86020000Y-35460000D02*
X86020000Y-35760000D01*
X86020000Y-68360000D02*
X86020000Y-68760000D01*
X107020000Y-78560000D02*
X107020000Y-78960000D01*
X95020000Y-86460000D02*
X95420000Y-86460000D01*
X107020000Y-68360000D02*
X107020000Y-68760000D01*
X107020000Y-53160000D02*
X107020000Y-53560000D01*
X107020000Y-58260000D02*
X107020000Y-58660000D01*
X107020000Y-60760000D02*
X107020000Y-61160000D01*
X107020000Y-73460000D02*
X107020000Y-73860000D01*
X86020000Y-58260000D02*
X86020000Y-58660000D01*
X86020000Y-48060000D02*
X86020000Y-48460000D01*
X107020000Y-63260000D02*
X107020000Y-63660000D01*
X86020000Y-55660000D02*
X86020000Y-56060000D01*
X107020000Y-83660000D02*
X107020000Y-84060000D01*
X107020000Y-42960000D02*
X107020000Y-43360000D01*
X86020000Y-70960000D02*
X86020000Y-71360000D01*
X107020000Y-81060000D02*
X107020000Y-81460000D01*
X107020000Y-50560000D02*
X107020000Y-50960000D01*
X97620000Y-86460000D02*
X98020000Y-86460000D01*
X89027000Y-38127000D02*
X89027000Y-35460000D01*
X86020000Y-83660000D02*
X86020000Y-84060000D01*
X86020000Y-63260000D02*
X86020000Y-63660000D01*
X107020000Y-35460000D02*
X107020000Y-35760000D01*
X86020000Y-40460000D02*
X86020000Y-40860000D01*
X107020000Y-86460000D02*
X100220000Y-86460000D01*
X86020000Y-53160000D02*
X86020000Y-53560000D01*
X86020000Y-37860000D02*
X86020000Y-38260000D01*
X107020000Y-37860000D02*
X107020000Y-38260000D01*
X107020000Y-45560000D02*
X107020000Y-45960000D01*
X86020000Y-38127000D02*
X89027000Y-38127000D01*
X86020000Y-81060000D02*
X86020000Y-81460000D01*
X86020000Y-65860000D02*
X86020000Y-66260000D01*
X86020000Y-45560000D02*
X86020000Y-45960000D01*
X92820000Y-86460000D02*
X86020000Y-86460000D01*
X86020000Y-35460000D02*
X107020000Y-35460000D01*
X107020000Y-48060000D02*
X107020000Y-48460000D01*
X86020000Y-42960000D02*
X86020000Y-43360000D01*
X107020000Y-40460000D02*
X107020000Y-40860000D01*
X86020000Y-60760000D02*
X86020000Y-61160000D01*
X107020000Y-70960000D02*
X107020000Y-71360000D01*
X86020000Y-73460000D02*
X86020000Y-73860000D01*
X86020000Y-50560000D02*
X86020000Y-50960000D01*
X107020000Y-76060000D02*
X107020000Y-76460000D01*
X107020000Y-65860000D02*
X107020000Y-66260000D01*
X86020000Y-76060000D02*
X86020000Y-76460000D01*
X86020000Y-78560000D02*
X86020000Y-78960000D01*
%TO.C,U2*%
X15130000Y-75852500D02*
X17390000Y-75852500D01*
X15130000Y-78132500D02*
X16990000Y-78132500D01*
X21890000Y-78132500D02*
X70830000Y-78132500D01*
X15130000Y-55032500D02*
X15130000Y-78132500D01*
X27060000Y-79152500D02*
X24520000Y-79152500D01*
X70830000Y-78132500D02*
X70830000Y-55032500D01*
X70830000Y-55032500D02*
X15130000Y-55032500D01*
X20340000Y-77402500D02*
G75*
G03*
X18540000Y-77402500I-900000J0D01*
G01*
X18540000Y-77402500D02*
G75*
G03*
X20340000Y-77402500I900000J0D01*
G01*
X21990000Y-77402500D02*
G75*
G03*
X16890000Y-77402500I-2550000J0D01*
G01*
X16890000Y-77402500D02*
G75*
G03*
X21990000Y-77402500I2550000J0D01*
G01*
%TO.C,SW1*%
X22916000Y-84340000D02*
X22916000Y-85840000D01*
X24166000Y-88340000D02*
X28666000Y-88340000D01*
X29916000Y-85840000D02*
X29916000Y-84340000D01*
X28666000Y-81840000D02*
X24166000Y-81840000D01*
%TO.C,G1*%
D14*
X80487287Y-85434355D02*
X80551051Y-85449845D01*
X80673300Y-85506569D01*
X80777834Y-85593202D01*
X80850180Y-85697074D01*
X80860119Y-85720396D01*
X80873754Y-85781484D01*
X80883298Y-85871853D01*
X80886549Y-85963190D01*
X80886549Y-86135882D01*
X80525470Y-86135882D01*
X80376546Y-86136445D01*
X80271632Y-86139864D01*
X80204937Y-86148731D01*
X80170666Y-86165641D01*
X80163028Y-86193189D01*
X80176229Y-86233968D01*
X80199877Y-86281683D01*
X80265843Y-86361314D01*
X80357512Y-86400987D01*
X80469555Y-86399695D01*
X80596472Y-86356514D01*
X80706158Y-86303224D01*
X80797173Y-86375191D01*
X80888188Y-86447157D01*
X80802563Y-86526269D01*
X80688250Y-86601017D01*
X80547666Y-86646084D01*
X80396449Y-86658696D01*
X80250236Y-86636079D01*
X80226647Y-86628405D01*
X80098141Y-86561296D01*
X80002551Y-86461247D01*
X79937861Y-86325271D01*
X79902057Y-86150380D01*
X79901640Y-86146632D01*
X79898434Y-85956032D01*
X79911393Y-85888035D01*
X80164392Y-85888035D01*
X80187627Y-85898491D01*
X80250710Y-85906500D01*
X80343706Y-85911073D01*
X80402638Y-85911765D01*
X80512537Y-85911332D01*
X80581252Y-85908578D01*
X80617405Y-85901321D01*
X80629615Y-85887376D01*
X80626504Y-85864562D01*
X80623894Y-85855735D01*
X80579344Y-85772800D01*
X80509279Y-85705960D01*
X80447446Y-85676589D01*
X80365301Y-85678362D01*
X80282062Y-85714990D01*
X80212238Y-85775634D01*
X80170337Y-85849456D01*
X80164392Y-85888035D01*
X79911393Y-85888035D01*
X79930385Y-85788395D01*
X79993773Y-85647711D01*
X80084878Y-85537974D01*
X80199978Y-85463174D01*
X80335355Y-85427304D01*
X80487287Y-85434355D01*
G36*
X80487287Y-85434355D02*
G01*
X80551051Y-85449845D01*
X80673300Y-85506569D01*
X80777834Y-85593202D01*
X80850180Y-85697074D01*
X80860119Y-85720396D01*
X80873754Y-85781484D01*
X80883298Y-85871853D01*
X80886549Y-85963190D01*
X80886549Y-86135882D01*
X80525470Y-86135882D01*
X80376546Y-86136445D01*
X80271632Y-86139864D01*
X80204937Y-86148731D01*
X80170666Y-86165641D01*
X80163028Y-86193189D01*
X80176229Y-86233968D01*
X80199877Y-86281683D01*
X80265843Y-86361314D01*
X80357512Y-86400987D01*
X80469555Y-86399695D01*
X80596472Y-86356514D01*
X80706158Y-86303224D01*
X80797173Y-86375191D01*
X80888188Y-86447157D01*
X80802563Y-86526269D01*
X80688250Y-86601017D01*
X80547666Y-86646084D01*
X80396449Y-86658696D01*
X80250236Y-86636079D01*
X80226647Y-86628405D01*
X80098141Y-86561296D01*
X80002551Y-86461247D01*
X79937861Y-86325271D01*
X79902057Y-86150380D01*
X79901640Y-86146632D01*
X79898434Y-85956032D01*
X79911393Y-85888035D01*
X80164392Y-85888035D01*
X80187627Y-85898491D01*
X80250710Y-85906500D01*
X80343706Y-85911073D01*
X80402638Y-85911765D01*
X80512537Y-85911332D01*
X80581252Y-85908578D01*
X80617405Y-85901321D01*
X80629615Y-85887376D01*
X80626504Y-85864562D01*
X80623894Y-85855735D01*
X80579344Y-85772800D01*
X80509279Y-85705960D01*
X80447446Y-85676589D01*
X80365301Y-85678362D01*
X80282062Y-85714990D01*
X80212238Y-85775634D01*
X80170337Y-85849456D01*
X80164392Y-85888035D01*
X79911393Y-85888035D01*
X79930385Y-85788395D01*
X79993773Y-85647711D01*
X80084878Y-85537974D01*
X80199978Y-85463174D01*
X80335355Y-85427304D01*
X80487287Y-85434355D01*
G37*
X71403909Y-85459560D02*
X71456412Y-85485499D01*
X71521158Y-85530700D01*
X71568347Y-85579991D01*
X71600665Y-85641885D01*
X71620797Y-85724896D01*
X71631430Y-85837538D01*
X71635247Y-85988324D01*
X71635470Y-86053149D01*
X71634818Y-86195221D01*
X71632112Y-86296757D01*
X71626224Y-86367015D01*
X71616027Y-86415256D01*
X71600394Y-86450738D01*
X71584128Y-86474943D01*
X71480295Y-86577929D01*
X71358021Y-86639874D01*
X71226114Y-86658506D01*
X71093384Y-86631549D01*
X71051333Y-86612486D01*
X70950666Y-86560015D01*
X70950666Y-87382259D01*
X71024135Y-87344267D01*
X71120941Y-87314872D01*
X71239928Y-87307342D01*
X71358745Y-87321245D01*
X71448473Y-87352476D01*
X71522899Y-87411954D01*
X71586490Y-87497066D01*
X71591271Y-87505805D01*
X71611437Y-87546966D01*
X71626165Y-87588454D01*
X71636303Y-87638713D01*
X71642699Y-87706184D01*
X71646201Y-87799309D01*
X71647658Y-87926531D01*
X71647921Y-88069701D01*
X71647921Y-88526471D01*
X71374000Y-88526471D01*
X71374000Y-87684231D01*
X71297383Y-87619763D01*
X71217793Y-87568194D01*
X71142422Y-87558818D01*
X71066633Y-87582947D01*
X71026241Y-87606574D01*
X70996179Y-87640227D01*
X70974797Y-87691087D01*
X70960450Y-87766334D01*
X70951490Y-87873146D01*
X70946270Y-88018704D01*
X70944431Y-88115588D01*
X70938215Y-88514020D01*
X70807480Y-88521547D01*
X70676745Y-88529073D01*
X70676745Y-86056582D01*
X70950666Y-86056582D01*
X70957650Y-86194423D01*
X70981182Y-86290107D01*
X71025135Y-86349641D01*
X71093382Y-86379029D01*
X71162333Y-86384902D01*
X71240386Y-86378154D01*
X71292189Y-86351594D01*
X71324583Y-86316499D01*
X71350084Y-86278752D01*
X71365265Y-86236700D01*
X71372019Y-86177779D01*
X71372241Y-86089428D01*
X71369968Y-86015448D01*
X71364749Y-85904000D01*
X71356979Y-85830833D01*
X71343895Y-85784422D01*
X71322732Y-85753244D01*
X71302760Y-85735223D01*
X71219314Y-85695925D01*
X71120551Y-85689579D01*
X71063841Y-85703116D01*
X71007692Y-85751233D01*
X70970499Y-85844833D01*
X70952472Y-85983254D01*
X70950666Y-86056582D01*
X70676745Y-86056582D01*
X70676745Y-85438628D01*
X70813705Y-85438628D01*
X70895935Y-85441879D01*
X70938360Y-85453426D01*
X70950661Y-85475952D01*
X70950666Y-85476620D01*
X70956374Y-85498681D01*
X70981547Y-85496176D01*
X71031598Y-85471935D01*
X71148219Y-85434851D01*
X71279429Y-85430953D01*
X71403909Y-85459560D01*
G36*
X71403909Y-85459560D02*
G01*
X71456412Y-85485499D01*
X71521158Y-85530700D01*
X71568347Y-85579991D01*
X71600665Y-85641885D01*
X71620797Y-85724896D01*
X71631430Y-85837538D01*
X71635247Y-85988324D01*
X71635470Y-86053149D01*
X71634818Y-86195221D01*
X71632112Y-86296757D01*
X71626224Y-86367015D01*
X71616027Y-86415256D01*
X71600394Y-86450738D01*
X71584128Y-86474943D01*
X71480295Y-86577929D01*
X71358021Y-86639874D01*
X71226114Y-86658506D01*
X71093384Y-86631549D01*
X71051333Y-86612486D01*
X70950666Y-86560015D01*
X70950666Y-87382259D01*
X71024135Y-87344267D01*
X71120941Y-87314872D01*
X71239928Y-87307342D01*
X71358745Y-87321245D01*
X71448473Y-87352476D01*
X71522899Y-87411954D01*
X71586490Y-87497066D01*
X71591271Y-87505805D01*
X71611437Y-87546966D01*
X71626165Y-87588454D01*
X71636303Y-87638713D01*
X71642699Y-87706184D01*
X71646201Y-87799309D01*
X71647658Y-87926531D01*
X71647921Y-88069701D01*
X71647921Y-88526471D01*
X71374000Y-88526471D01*
X71374000Y-87684231D01*
X71297383Y-87619763D01*
X71217793Y-87568194D01*
X71142422Y-87558818D01*
X71066633Y-87582947D01*
X71026241Y-87606574D01*
X70996179Y-87640227D01*
X70974797Y-87691087D01*
X70960450Y-87766334D01*
X70951490Y-87873146D01*
X70946270Y-88018704D01*
X70944431Y-88115588D01*
X70938215Y-88514020D01*
X70807480Y-88521547D01*
X70676745Y-88529073D01*
X70676745Y-86056582D01*
X70950666Y-86056582D01*
X70957650Y-86194423D01*
X70981182Y-86290107D01*
X71025135Y-86349641D01*
X71093382Y-86379029D01*
X71162333Y-86384902D01*
X71240386Y-86378154D01*
X71292189Y-86351594D01*
X71324583Y-86316499D01*
X71350084Y-86278752D01*
X71365265Y-86236700D01*
X71372019Y-86177779D01*
X71372241Y-86089428D01*
X71369968Y-86015448D01*
X71364749Y-85904000D01*
X71356979Y-85830833D01*
X71343895Y-85784422D01*
X71322732Y-85753244D01*
X71302760Y-85735223D01*
X71219314Y-85695925D01*
X71120551Y-85689579D01*
X71063841Y-85703116D01*
X71007692Y-85751233D01*
X70970499Y-85844833D01*
X70952472Y-85983254D01*
X70950666Y-86056582D01*
X70676745Y-86056582D01*
X70676745Y-85438628D01*
X70813705Y-85438628D01*
X70895935Y-85441879D01*
X70938360Y-85453426D01*
X70950661Y-85475952D01*
X70950666Y-85476620D01*
X70956374Y-85498681D01*
X70981547Y-85496176D01*
X71031598Y-85471935D01*
X71148219Y-85434851D01*
X71279429Y-85430953D01*
X71403909Y-85459560D01*
G37*
X72497204Y-85466354D02*
X72522019Y-85478037D01*
X72607906Y-85540951D01*
X72689121Y-85632769D01*
X72749764Y-85733868D01*
X72767012Y-85780349D01*
X72782749Y-85863376D01*
X72792133Y-85963713D01*
X72793272Y-86005147D01*
X72793411Y-86135882D01*
X72040953Y-86135882D01*
X72056993Y-86204363D01*
X72096363Y-86285355D01*
X72165194Y-86355351D01*
X72247081Y-86400441D01*
X72299263Y-86409804D01*
X72370029Y-86398441D01*
X72454460Y-86369943D01*
X72483142Y-86356831D01*
X72589209Y-86303858D01*
X72679728Y-86372901D01*
X72731961Y-86419597D01*
X72759753Y-86458140D01*
X72761160Y-86469452D01*
X72736332Y-86496868D01*
X72681917Y-86538532D01*
X72632528Y-86571037D01*
X72499252Y-86629468D01*
X72349839Y-86655915D01*
X72201751Y-86649039D01*
X72083705Y-86613096D01*
X71962018Y-86536101D01*
X71875540Y-86434728D01*
X71821441Y-86303570D01*
X71796891Y-86137224D01*
X71794714Y-86061108D01*
X71803427Y-85886685D01*
X71804497Y-85881611D01*
X72053827Y-85881611D01*
X72060694Y-85897968D01*
X72088917Y-85906988D01*
X72147127Y-85910854D01*
X72243958Y-85911749D01*
X72281243Y-85911765D01*
X72394683Y-85910413D01*
X72466622Y-85905505D01*
X72505313Y-85895760D01*
X72519005Y-85879899D01*
X72519490Y-85874805D01*
X72503863Y-85834326D01*
X72464753Y-85777621D01*
X72447939Y-85757766D01*
X72385519Y-85701611D01*
X72320453Y-85679532D01*
X72285397Y-85677686D01*
X72190558Y-85700766D01*
X72111027Y-85762759D01*
X72060577Y-85852802D01*
X72059683Y-85855735D01*
X72053827Y-85881611D01*
X71804497Y-85881611D01*
X71832399Y-85749343D01*
X71884590Y-85639461D01*
X71948421Y-85561461D01*
X72066433Y-85476882D01*
X72205158Y-85431686D01*
X72352710Y-85427600D01*
X72497204Y-85466354D01*
G36*
X72497204Y-85466354D02*
G01*
X72522019Y-85478037D01*
X72607906Y-85540951D01*
X72689121Y-85632769D01*
X72749764Y-85733868D01*
X72767012Y-85780349D01*
X72782749Y-85863376D01*
X72792133Y-85963713D01*
X72793272Y-86005147D01*
X72793411Y-86135882D01*
X72040953Y-86135882D01*
X72056993Y-86204363D01*
X72096363Y-86285355D01*
X72165194Y-86355351D01*
X72247081Y-86400441D01*
X72299263Y-86409804D01*
X72370029Y-86398441D01*
X72454460Y-86369943D01*
X72483142Y-86356831D01*
X72589209Y-86303858D01*
X72679728Y-86372901D01*
X72731961Y-86419597D01*
X72759753Y-86458140D01*
X72761160Y-86469452D01*
X72736332Y-86496868D01*
X72681917Y-86538532D01*
X72632528Y-86571037D01*
X72499252Y-86629468D01*
X72349839Y-86655915D01*
X72201751Y-86649039D01*
X72083705Y-86613096D01*
X71962018Y-86536101D01*
X71875540Y-86434728D01*
X71821441Y-86303570D01*
X71796891Y-86137224D01*
X71794714Y-86061108D01*
X71803427Y-85886685D01*
X71804497Y-85881611D01*
X72053827Y-85881611D01*
X72060694Y-85897968D01*
X72088917Y-85906988D01*
X72147127Y-85910854D01*
X72243958Y-85911749D01*
X72281243Y-85911765D01*
X72394683Y-85910413D01*
X72466622Y-85905505D01*
X72505313Y-85895760D01*
X72519005Y-85879899D01*
X72519490Y-85874805D01*
X72503863Y-85834326D01*
X72464753Y-85777621D01*
X72447939Y-85757766D01*
X72385519Y-85701611D01*
X72320453Y-85679532D01*
X72285397Y-85677686D01*
X72190558Y-85700766D01*
X72111027Y-85762759D01*
X72060577Y-85852802D01*
X72059683Y-85855735D01*
X72053827Y-85881611D01*
X71804497Y-85881611D01*
X71832399Y-85749343D01*
X71884590Y-85639461D01*
X71948421Y-85561461D01*
X72066433Y-85476882D01*
X72205158Y-85431686D01*
X72352710Y-85427600D01*
X72497204Y-85466354D01*
G37*
X75930535Y-77183172D02*
X76043117Y-77780363D01*
X76458531Y-77951610D01*
X76873944Y-78122857D01*
X77372302Y-77783978D01*
X77511868Y-77689622D01*
X77638028Y-77605375D01*
X77744895Y-77535083D01*
X77826582Y-77482592D01*
X77877201Y-77451749D01*
X77890986Y-77445098D01*
X77915820Y-77462203D01*
X77968888Y-77509489D01*
X78044240Y-77580917D01*
X78135929Y-77670445D01*
X78238007Y-77772034D01*
X78344526Y-77879643D01*
X78449536Y-77987232D01*
X78547091Y-78088760D01*
X78631242Y-78178186D01*
X78696040Y-78249471D01*
X78735538Y-78296573D01*
X78744980Y-78312337D01*
X78731391Y-78341398D01*
X78693293Y-78405066D01*
X78634694Y-78497112D01*
X78559597Y-78611309D01*
X78472009Y-78741429D01*
X78421254Y-78815646D01*
X78328745Y-78951167D01*
X78246540Y-79073461D01*
X78178630Y-79176440D01*
X78129000Y-79254018D01*
X78101640Y-79300106D01*
X78097529Y-79309792D01*
X78106849Y-79337319D01*
X78132254Y-79401473D01*
X78169911Y-79493235D01*
X78215986Y-79603584D01*
X78266646Y-79723500D01*
X78318059Y-79843964D01*
X78366389Y-79955954D01*
X78407806Y-80050452D01*
X78438474Y-80118437D01*
X78454562Y-80150888D01*
X78455511Y-80152165D01*
X78480772Y-80158362D01*
X78548046Y-80172185D01*
X78650360Y-80192277D01*
X78780741Y-80217279D01*
X78932216Y-80245831D01*
X79020594Y-80262296D01*
X79182452Y-80293114D01*
X79328649Y-80322439D01*
X79451787Y-80348666D01*
X79544469Y-80370191D01*
X79599301Y-80385410D01*
X79610323Y-80390238D01*
X79621119Y-80422919D01*
X79629829Y-80496730D01*
X79636460Y-80603037D01*
X79641018Y-80733212D01*
X79643509Y-80878621D01*
X79643938Y-81030635D01*
X79642311Y-81180622D01*
X79638635Y-81319951D01*
X79632915Y-81439990D01*
X79625158Y-81532110D01*
X79615368Y-81587677D01*
X79609496Y-81599245D01*
X79574399Y-81613110D01*
X79500028Y-81632933D01*
X79396223Y-81656384D01*
X79272819Y-81681136D01*
X79229741Y-81689143D01*
X79022047Y-81727186D01*
X78857984Y-81757824D01*
X78732130Y-81782274D01*
X78639065Y-81801754D01*
X78573367Y-81817481D01*
X78529617Y-81830673D01*
X78502392Y-81842549D01*
X78486272Y-81854325D01*
X78484017Y-81856653D01*
X78461503Y-81894145D01*
X78427158Y-81967110D01*
X78384411Y-82066612D01*
X78336692Y-82183718D01*
X78287430Y-82309493D01*
X78240055Y-82435002D01*
X78197995Y-82551310D01*
X78164680Y-82649484D01*
X78143541Y-82720588D01*
X78138005Y-82755687D01*
X78138466Y-82756917D01*
X78157223Y-82785606D01*
X78199776Y-82848730D01*
X78261653Y-82939718D01*
X78338382Y-83052000D01*
X78425491Y-83179005D01*
X78450299Y-83215098D01*
X78538753Y-83345948D01*
X78616588Y-83465336D01*
X78679566Y-83566407D01*
X78723445Y-83642304D01*
X78743985Y-83686172D01*
X78744980Y-83691562D01*
X78727722Y-83719889D01*
X78680036Y-83776006D01*
X78608050Y-83853882D01*
X78517897Y-83947485D01*
X78415705Y-84050786D01*
X78307606Y-84157751D01*
X78199728Y-84262351D01*
X78098204Y-84358554D01*
X78009162Y-84440329D01*
X77938733Y-84501645D01*
X77893047Y-84536471D01*
X77880409Y-84542157D01*
X77850991Y-84528765D01*
X77790761Y-84492644D01*
X77709530Y-84439881D01*
X77647030Y-84397412D01*
X77533785Y-84319485D01*
X77399674Y-84227729D01*
X77265155Y-84136120D01*
X77192833Y-84087091D01*
X76948038Y-83921515D01*
X76742551Y-84032620D01*
X76648936Y-84081293D01*
X76569330Y-84119126D01*
X76515467Y-84140703D01*
X76501757Y-84143706D01*
X76485270Y-84121538D01*
X76452745Y-84058894D01*
X76406609Y-83961554D01*
X76349290Y-83835294D01*
X76283216Y-83685895D01*
X76210815Y-83519133D01*
X76134516Y-83340787D01*
X76056746Y-83156636D01*
X75979934Y-82972457D01*
X75906506Y-82794030D01*
X75838892Y-82627132D01*
X75779520Y-82477542D01*
X75730816Y-82351038D01*
X75695210Y-82253399D01*
X75675130Y-82190402D01*
X75671900Y-82168766D01*
X75697496Y-82141169D01*
X75753539Y-82096370D01*
X75828311Y-82043679D01*
X75834587Y-82039510D01*
X76027845Y-81884814D01*
X76183674Y-81704336D01*
X76300724Y-81503847D01*
X76377645Y-81289119D01*
X76413086Y-81065922D01*
X76405697Y-80840026D01*
X76354127Y-80617204D01*
X76257026Y-80403224D01*
X76228458Y-80356409D01*
X76079868Y-80167363D01*
X75904327Y-80015557D01*
X75707910Y-79901779D01*
X75496693Y-79826820D01*
X75276753Y-79791467D01*
X75054163Y-79796512D01*
X74835001Y-79842744D01*
X74625342Y-79930951D01*
X74431261Y-80061924D01*
X74371226Y-80115082D01*
X74218435Y-80281484D01*
X74107097Y-80456657D01*
X74030723Y-80653011D01*
X73988187Y-80847462D01*
X73977686Y-81066087D01*
X74012701Y-81285797D01*
X74089673Y-81499165D01*
X74205047Y-81698767D01*
X74355266Y-81877174D01*
X74536773Y-82026962D01*
X74560627Y-82042751D01*
X74636201Y-82094457D01*
X74693651Y-82139257D01*
X74721117Y-82167862D01*
X74721517Y-82168766D01*
X74715620Y-82199709D01*
X74692245Y-82269936D01*
X74653821Y-82373670D01*
X74602777Y-82505135D01*
X74541542Y-82658552D01*
X74472544Y-82828146D01*
X74398214Y-83008138D01*
X74320978Y-83192753D01*
X74243268Y-83376213D01*
X74167511Y-83552741D01*
X74096137Y-83716559D01*
X74031574Y-83861892D01*
X73976252Y-83982962D01*
X73932600Y-84073992D01*
X73903046Y-84129205D01*
X73891144Y-84143706D01*
X73854777Y-84132414D01*
X73786730Y-84102130D01*
X73698737Y-84058265D01*
X73650351Y-84032620D01*
X73444863Y-83921515D01*
X73200068Y-84087091D01*
X73075106Y-84171915D01*
X72938295Y-84265261D01*
X72810089Y-84353153D01*
X72745871Y-84397412D01*
X72655551Y-84458063D01*
X72579071Y-84506126D01*
X72526407Y-84535515D01*
X72509302Y-84541727D01*
X72484405Y-84524968D01*
X72429305Y-84478181D01*
X72349343Y-84406225D01*
X72249861Y-84313957D01*
X72136200Y-84206235D01*
X72064315Y-84137071D01*
X71938551Y-84013502D01*
X71829863Y-83902979D01*
X71742645Y-83810230D01*
X71681289Y-83739982D01*
X71650191Y-83696965D01*
X71647208Y-83688235D01*
X71661053Y-83655029D01*
X71699312Y-83587887D01*
X71757742Y-83493608D01*
X71832097Y-83378990D01*
X71918135Y-83250828D01*
X71942603Y-83215098D01*
X72031755Y-83085234D01*
X72111738Y-82968314D01*
X72178080Y-82870907D01*
X72226311Y-82799584D01*
X72251957Y-82760915D01*
X72254435Y-82756917D01*
X72250729Y-82726100D01*
X72231061Y-82658344D01*
X72198860Y-82562584D01*
X72157555Y-82447754D01*
X72110575Y-82322789D01*
X72061349Y-82196624D01*
X72013308Y-82078193D01*
X71969881Y-81976430D01*
X71934496Y-81900271D01*
X71910584Y-81858649D01*
X71908884Y-81856653D01*
X71894262Y-81844758D01*
X71869565Y-81832995D01*
X71829372Y-81820146D01*
X71768263Y-81804994D01*
X71680817Y-81786321D01*
X71561612Y-81762910D01*
X71405227Y-81733542D01*
X71206243Y-81697000D01*
X71163160Y-81689143D01*
X71035471Y-81664472D01*
X70924153Y-81640338D01*
X70839045Y-81619069D01*
X70789983Y-81602993D01*
X70783405Y-81599245D01*
X70772564Y-81566018D01*
X70763753Y-81491766D01*
X70756976Y-81385121D01*
X70752240Y-81254712D01*
X70749550Y-81109172D01*
X70748913Y-80957131D01*
X70750334Y-80807221D01*
X70753820Y-80668073D01*
X70759376Y-80548317D01*
X70767008Y-80456586D01*
X70776722Y-80401511D01*
X70782578Y-80390238D01*
X70815180Y-80378868D01*
X70889418Y-80360369D01*
X70997896Y-80336347D01*
X71133217Y-80308407D01*
X71287985Y-80278153D01*
X71372308Y-80262296D01*
X71532296Y-80232389D01*
X71674967Y-80205295D01*
X71793348Y-80182376D01*
X71880465Y-80164988D01*
X71929345Y-80154492D01*
X71937390Y-80152165D01*
X71950987Y-80125931D01*
X71979729Y-80062740D01*
X72019785Y-79971622D01*
X72067324Y-79861602D01*
X72118515Y-79741710D01*
X72169526Y-79620972D01*
X72216526Y-79508416D01*
X72255684Y-79413071D01*
X72283169Y-79343962D01*
X72295149Y-79310119D01*
X72295372Y-79308640D01*
X72281791Y-79281942D01*
X72243715Y-79220505D01*
X72185147Y-79130434D01*
X72110088Y-79017835D01*
X72022540Y-78888815D01*
X71971647Y-78814706D01*
X71878909Y-78678822D01*
X71796541Y-78555454D01*
X71728561Y-78450842D01*
X71678988Y-78371228D01*
X71651842Y-78322852D01*
X71647921Y-78312007D01*
X71664775Y-78286765D01*
X71711368Y-78232869D01*
X71781749Y-78156358D01*
X71869965Y-78063268D01*
X71970065Y-77959640D01*
X72076098Y-77851509D01*
X72182111Y-77744915D01*
X72282152Y-77645895D01*
X72370270Y-77560487D01*
X72440513Y-77494730D01*
X72486928Y-77454661D01*
X72502456Y-77445098D01*
X72527739Y-77458545D01*
X72588211Y-77496320D01*
X72677992Y-77554580D01*
X72791203Y-77629479D01*
X72921964Y-77717170D01*
X73020600Y-77783978D01*
X73518957Y-78122857D01*
X73934371Y-77951610D01*
X74349784Y-77780363D01*
X74462366Y-77183172D01*
X74574949Y-76585980D01*
X75817952Y-76585980D01*
X75930535Y-77183172D01*
G36*
X75930535Y-77183172D02*
G01*
X76043117Y-77780363D01*
X76458531Y-77951610D01*
X76873944Y-78122857D01*
X77372302Y-77783978D01*
X77511868Y-77689622D01*
X77638028Y-77605375D01*
X77744895Y-77535083D01*
X77826582Y-77482592D01*
X77877201Y-77451749D01*
X77890986Y-77445098D01*
X77915820Y-77462203D01*
X77968888Y-77509489D01*
X78044240Y-77580917D01*
X78135929Y-77670445D01*
X78238007Y-77772034D01*
X78344526Y-77879643D01*
X78449536Y-77987232D01*
X78547091Y-78088760D01*
X78631242Y-78178186D01*
X78696040Y-78249471D01*
X78735538Y-78296573D01*
X78744980Y-78312337D01*
X78731391Y-78341398D01*
X78693293Y-78405066D01*
X78634694Y-78497112D01*
X78559597Y-78611309D01*
X78472009Y-78741429D01*
X78421254Y-78815646D01*
X78328745Y-78951167D01*
X78246540Y-79073461D01*
X78178630Y-79176440D01*
X78129000Y-79254018D01*
X78101640Y-79300106D01*
X78097529Y-79309792D01*
X78106849Y-79337319D01*
X78132254Y-79401473D01*
X78169911Y-79493235D01*
X78215986Y-79603584D01*
X78266646Y-79723500D01*
X78318059Y-79843964D01*
X78366389Y-79955954D01*
X78407806Y-80050452D01*
X78438474Y-80118437D01*
X78454562Y-80150888D01*
X78455511Y-80152165D01*
X78480772Y-80158362D01*
X78548046Y-80172185D01*
X78650360Y-80192277D01*
X78780741Y-80217279D01*
X78932216Y-80245831D01*
X79020594Y-80262296D01*
X79182452Y-80293114D01*
X79328649Y-80322439D01*
X79451787Y-80348666D01*
X79544469Y-80370191D01*
X79599301Y-80385410D01*
X79610323Y-80390238D01*
X79621119Y-80422919D01*
X79629829Y-80496730D01*
X79636460Y-80603037D01*
X79641018Y-80733212D01*
X79643509Y-80878621D01*
X79643938Y-81030635D01*
X79642311Y-81180622D01*
X79638635Y-81319951D01*
X79632915Y-81439990D01*
X79625158Y-81532110D01*
X79615368Y-81587677D01*
X79609496Y-81599245D01*
X79574399Y-81613110D01*
X79500028Y-81632933D01*
X79396223Y-81656384D01*
X79272819Y-81681136D01*
X79229741Y-81689143D01*
X79022047Y-81727186D01*
X78857984Y-81757824D01*
X78732130Y-81782274D01*
X78639065Y-81801754D01*
X78573367Y-81817481D01*
X78529617Y-81830673D01*
X78502392Y-81842549D01*
X78486272Y-81854325D01*
X78484017Y-81856653D01*
X78461503Y-81894145D01*
X78427158Y-81967110D01*
X78384411Y-82066612D01*
X78336692Y-82183718D01*
X78287430Y-82309493D01*
X78240055Y-82435002D01*
X78197995Y-82551310D01*
X78164680Y-82649484D01*
X78143541Y-82720588D01*
X78138005Y-82755687D01*
X78138466Y-82756917D01*
X78157223Y-82785606D01*
X78199776Y-82848730D01*
X78261653Y-82939718D01*
X78338382Y-83052000D01*
X78425491Y-83179005D01*
X78450299Y-83215098D01*
X78538753Y-83345948D01*
X78616588Y-83465336D01*
X78679566Y-83566407D01*
X78723445Y-83642304D01*
X78743985Y-83686172D01*
X78744980Y-83691562D01*
X78727722Y-83719889D01*
X78680036Y-83776006D01*
X78608050Y-83853882D01*
X78517897Y-83947485D01*
X78415705Y-84050786D01*
X78307606Y-84157751D01*
X78199728Y-84262351D01*
X78098204Y-84358554D01*
X78009162Y-84440329D01*
X77938733Y-84501645D01*
X77893047Y-84536471D01*
X77880409Y-84542157D01*
X77850991Y-84528765D01*
X77790761Y-84492644D01*
X77709530Y-84439881D01*
X77647030Y-84397412D01*
X77533785Y-84319485D01*
X77399674Y-84227729D01*
X77265155Y-84136120D01*
X77192833Y-84087091D01*
X76948038Y-83921515D01*
X76742551Y-84032620D01*
X76648936Y-84081293D01*
X76569330Y-84119126D01*
X76515467Y-84140703D01*
X76501757Y-84143706D01*
X76485270Y-84121538D01*
X76452745Y-84058894D01*
X76406609Y-83961554D01*
X76349290Y-83835294D01*
X76283216Y-83685895D01*
X76210815Y-83519133D01*
X76134516Y-83340787D01*
X76056746Y-83156636D01*
X75979934Y-82972457D01*
X75906506Y-82794030D01*
X75838892Y-82627132D01*
X75779520Y-82477542D01*
X75730816Y-82351038D01*
X75695210Y-82253399D01*
X75675130Y-82190402D01*
X75671900Y-82168766D01*
X75697496Y-82141169D01*
X75753539Y-82096370D01*
X75828311Y-82043679D01*
X75834587Y-82039510D01*
X76027845Y-81884814D01*
X76183674Y-81704336D01*
X76300724Y-81503847D01*
X76377645Y-81289119D01*
X76413086Y-81065922D01*
X76405697Y-80840026D01*
X76354127Y-80617204D01*
X76257026Y-80403224D01*
X76228458Y-80356409D01*
X76079868Y-80167363D01*
X75904327Y-80015557D01*
X75707910Y-79901779D01*
X75496693Y-79826820D01*
X75276753Y-79791467D01*
X75054163Y-79796512D01*
X74835001Y-79842744D01*
X74625342Y-79930951D01*
X74431261Y-80061924D01*
X74371226Y-80115082D01*
X74218435Y-80281484D01*
X74107097Y-80456657D01*
X74030723Y-80653011D01*
X73988187Y-80847462D01*
X73977686Y-81066087D01*
X74012701Y-81285797D01*
X74089673Y-81499165D01*
X74205047Y-81698767D01*
X74355266Y-81877174D01*
X74536773Y-82026962D01*
X74560627Y-82042751D01*
X74636201Y-82094457D01*
X74693651Y-82139257D01*
X74721117Y-82167862D01*
X74721517Y-82168766D01*
X74715620Y-82199709D01*
X74692245Y-82269936D01*
X74653821Y-82373670D01*
X74602777Y-82505135D01*
X74541542Y-82658552D01*
X74472544Y-82828146D01*
X74398214Y-83008138D01*
X74320978Y-83192753D01*
X74243268Y-83376213D01*
X74167511Y-83552741D01*
X74096137Y-83716559D01*
X74031574Y-83861892D01*
X73976252Y-83982962D01*
X73932600Y-84073992D01*
X73903046Y-84129205D01*
X73891144Y-84143706D01*
X73854777Y-84132414D01*
X73786730Y-84102130D01*
X73698737Y-84058265D01*
X73650351Y-84032620D01*
X73444863Y-83921515D01*
X73200068Y-84087091D01*
X73075106Y-84171915D01*
X72938295Y-84265261D01*
X72810089Y-84353153D01*
X72745871Y-84397412D01*
X72655551Y-84458063D01*
X72579071Y-84506126D01*
X72526407Y-84535515D01*
X72509302Y-84541727D01*
X72484405Y-84524968D01*
X72429305Y-84478181D01*
X72349343Y-84406225D01*
X72249861Y-84313957D01*
X72136200Y-84206235D01*
X72064315Y-84137071D01*
X71938551Y-84013502D01*
X71829863Y-83902979D01*
X71742645Y-83810230D01*
X71681289Y-83739982D01*
X71650191Y-83696965D01*
X71647208Y-83688235D01*
X71661053Y-83655029D01*
X71699312Y-83587887D01*
X71757742Y-83493608D01*
X71832097Y-83378990D01*
X71918135Y-83250828D01*
X71942603Y-83215098D01*
X72031755Y-83085234D01*
X72111738Y-82968314D01*
X72178080Y-82870907D01*
X72226311Y-82799584D01*
X72251957Y-82760915D01*
X72254435Y-82756917D01*
X72250729Y-82726100D01*
X72231061Y-82658344D01*
X72198860Y-82562584D01*
X72157555Y-82447754D01*
X72110575Y-82322789D01*
X72061349Y-82196624D01*
X72013308Y-82078193D01*
X71969881Y-81976430D01*
X71934496Y-81900271D01*
X71910584Y-81858649D01*
X71908884Y-81856653D01*
X71894262Y-81844758D01*
X71869565Y-81832995D01*
X71829372Y-81820146D01*
X71768263Y-81804994D01*
X71680817Y-81786321D01*
X71561612Y-81762910D01*
X71405227Y-81733542D01*
X71206243Y-81697000D01*
X71163160Y-81689143D01*
X71035471Y-81664472D01*
X70924153Y-81640338D01*
X70839045Y-81619069D01*
X70789983Y-81602993D01*
X70783405Y-81599245D01*
X70772564Y-81566018D01*
X70763753Y-81491766D01*
X70756976Y-81385121D01*
X70752240Y-81254712D01*
X70749550Y-81109172D01*
X70748913Y-80957131D01*
X70750334Y-80807221D01*
X70753820Y-80668073D01*
X70759376Y-80548317D01*
X70767008Y-80456586D01*
X70776722Y-80401511D01*
X70782578Y-80390238D01*
X70815180Y-80378868D01*
X70889418Y-80360369D01*
X70997896Y-80336347D01*
X71133217Y-80308407D01*
X71287985Y-80278153D01*
X71372308Y-80262296D01*
X71532296Y-80232389D01*
X71674967Y-80205295D01*
X71793348Y-80182376D01*
X71880465Y-80164988D01*
X71929345Y-80154492D01*
X71937390Y-80152165D01*
X71950987Y-80125931D01*
X71979729Y-80062740D01*
X72019785Y-79971622D01*
X72067324Y-79861602D01*
X72118515Y-79741710D01*
X72169526Y-79620972D01*
X72216526Y-79508416D01*
X72255684Y-79413071D01*
X72283169Y-79343962D01*
X72295149Y-79310119D01*
X72295372Y-79308640D01*
X72281791Y-79281942D01*
X72243715Y-79220505D01*
X72185147Y-79130434D01*
X72110088Y-79017835D01*
X72022540Y-78888815D01*
X71971647Y-78814706D01*
X71878909Y-78678822D01*
X71796541Y-78555454D01*
X71728561Y-78450842D01*
X71678988Y-78371228D01*
X71651842Y-78322852D01*
X71647921Y-78312007D01*
X71664775Y-78286765D01*
X71711368Y-78232869D01*
X71781749Y-78156358D01*
X71869965Y-78063268D01*
X71970065Y-77959640D01*
X72076098Y-77851509D01*
X72182111Y-77744915D01*
X72282152Y-77645895D01*
X72370270Y-77560487D01*
X72440513Y-77494730D01*
X72486928Y-77454661D01*
X72502456Y-77445098D01*
X72527739Y-77458545D01*
X72588211Y-77496320D01*
X72677992Y-77554580D01*
X72791203Y-77629479D01*
X72921964Y-77717170D01*
X73020600Y-77783978D01*
X73518957Y-78122857D01*
X73934371Y-77951610D01*
X74349784Y-77780363D01*
X74462366Y-77183172D01*
X74574949Y-76585980D01*
X75817952Y-76585980D01*
X75930535Y-77183172D01*
G37*
X73216764Y-87308921D02*
X73254030Y-87320091D01*
X73266043Y-87344633D01*
X73266549Y-87355712D01*
X73268704Y-87386572D01*
X73283551Y-87391417D01*
X73323657Y-87370260D01*
X73347480Y-87355806D01*
X73422638Y-87324850D01*
X73512406Y-87309544D01*
X73606529Y-87308367D01*
X73694754Y-87319799D01*
X73766826Y-87342320D01*
X73812492Y-87374409D01*
X73821498Y-87414545D01*
X73816953Y-87425415D01*
X73783821Y-87470534D01*
X73732445Y-87526026D01*
X73723152Y-87534996D01*
X73674182Y-87576245D01*
X73631931Y-87589572D01*
X73572841Y-87580271D01*
X73549169Y-87574090D01*
X73475504Y-87559246D01*
X73423710Y-87565921D01*
X73379969Y-87589465D01*
X73339902Y-87621061D01*
X73310392Y-87660798D01*
X73289884Y-87716252D01*
X73276824Y-87795003D01*
X73269656Y-87904629D01*
X73266824Y-88052706D01*
X73266549Y-88142111D01*
X73266549Y-88526471D01*
X73017529Y-88526471D01*
X73017529Y-87306275D01*
X73142039Y-87306275D01*
X73216764Y-87308921D01*
G36*
X73216764Y-87308921D02*
G01*
X73254030Y-87320091D01*
X73266043Y-87344633D01*
X73266549Y-87355712D01*
X73268704Y-87386572D01*
X73283551Y-87391417D01*
X73323657Y-87370260D01*
X73347480Y-87355806D01*
X73422638Y-87324850D01*
X73512406Y-87309544D01*
X73606529Y-87308367D01*
X73694754Y-87319799D01*
X73766826Y-87342320D01*
X73812492Y-87374409D01*
X73821498Y-87414545D01*
X73816953Y-87425415D01*
X73783821Y-87470534D01*
X73732445Y-87526026D01*
X73723152Y-87534996D01*
X73674182Y-87576245D01*
X73631931Y-87589572D01*
X73572841Y-87580271D01*
X73549169Y-87574090D01*
X73475504Y-87559246D01*
X73423710Y-87565921D01*
X73379969Y-87589465D01*
X73339902Y-87621061D01*
X73310392Y-87660798D01*
X73289884Y-87716252D01*
X73276824Y-87795003D01*
X73269656Y-87904629D01*
X73266824Y-88052706D01*
X73266549Y-88142111D01*
X73266549Y-88526471D01*
X73017529Y-88526471D01*
X73017529Y-87306275D01*
X73142039Y-87306275D01*
X73216764Y-87308921D01*
G37*
X70157247Y-85451568D02*
X70287522Y-85509163D01*
X70386419Y-85605334D01*
X70454082Y-85740229D01*
X70490655Y-85913996D01*
X70493276Y-85941126D01*
X70495330Y-86132408D01*
X70468699Y-86300073D01*
X70415001Y-86435967D01*
X70386247Y-86479681D01*
X70286091Y-86572198D01*
X70158537Y-86632119D01*
X70015837Y-86656985D01*
X69870240Y-86644339D01*
X69759562Y-86605391D01*
X69664384Y-86539755D01*
X69586594Y-86453699D01*
X69585249Y-86451685D01*
X69553657Y-86398570D01*
X69533127Y-86345160D01*
X69520695Y-86277754D01*
X69513397Y-86182653D01*
X69510182Y-86104666D01*
X69508844Y-86033944D01*
X69757814Y-86033944D01*
X69760247Y-86104348D01*
X69769080Y-86198068D01*
X69784664Y-86258214D01*
X69812766Y-86301006D01*
X69839086Y-86326002D01*
X69932392Y-86378338D01*
X70030020Y-86385333D01*
X70120942Y-86347676D01*
X70166402Y-86305479D01*
X70199162Y-86262956D01*
X70218323Y-86222267D01*
X70226733Y-86169314D01*
X70227237Y-86089997D01*
X70224645Y-86016950D01*
X70219071Y-85912601D01*
X70210234Y-85844920D01*
X70194307Y-85800774D01*
X70167462Y-85767031D01*
X70146189Y-85747746D01*
X70057206Y-85697086D01*
X69961211Y-85694560D01*
X69880719Y-85724567D01*
X69812053Y-85787231D01*
X69771144Y-85890168D01*
X69757814Y-86033944D01*
X69508844Y-86033944D01*
X69507246Y-85949582D01*
X69512260Y-85833600D01*
X69527283Y-85746367D01*
X69554376Y-85677530D01*
X69595600Y-85616737D01*
X69610885Y-85598686D01*
X69706454Y-85508746D01*
X69808961Y-85456211D01*
X69934321Y-85434201D01*
X69995450Y-85432402D01*
X70157247Y-85451568D01*
G36*
X70157247Y-85451568D02*
G01*
X70287522Y-85509163D01*
X70386419Y-85605334D01*
X70454082Y-85740229D01*
X70490655Y-85913996D01*
X70493276Y-85941126D01*
X70495330Y-86132408D01*
X70468699Y-86300073D01*
X70415001Y-86435967D01*
X70386247Y-86479681D01*
X70286091Y-86572198D01*
X70158537Y-86632119D01*
X70015837Y-86656985D01*
X69870240Y-86644339D01*
X69759562Y-86605391D01*
X69664384Y-86539755D01*
X69586594Y-86453699D01*
X69585249Y-86451685D01*
X69553657Y-86398570D01*
X69533127Y-86345160D01*
X69520695Y-86277754D01*
X69513397Y-86182653D01*
X69510182Y-86104666D01*
X69508844Y-86033944D01*
X69757814Y-86033944D01*
X69760247Y-86104348D01*
X69769080Y-86198068D01*
X69784664Y-86258214D01*
X69812766Y-86301006D01*
X69839086Y-86326002D01*
X69932392Y-86378338D01*
X70030020Y-86385333D01*
X70120942Y-86347676D01*
X70166402Y-86305479D01*
X70199162Y-86262956D01*
X70218323Y-86222267D01*
X70226733Y-86169314D01*
X70227237Y-86089997D01*
X70224645Y-86016950D01*
X70219071Y-85912601D01*
X70210234Y-85844920D01*
X70194307Y-85800774D01*
X70167462Y-85767031D01*
X70146189Y-85747746D01*
X70057206Y-85697086D01*
X69961211Y-85694560D01*
X69880719Y-85724567D01*
X69812053Y-85787231D01*
X69771144Y-85890168D01*
X69757814Y-86033944D01*
X69508844Y-86033944D01*
X69507246Y-85949582D01*
X69512260Y-85833600D01*
X69527283Y-85746367D01*
X69554376Y-85677530D01*
X69595600Y-85616737D01*
X69610885Y-85598686D01*
X69706454Y-85508746D01*
X69808961Y-85456211D01*
X69934321Y-85434201D01*
X69995450Y-85432402D01*
X70157247Y-85451568D01*
G37*
X77240459Y-87313669D02*
X77345420Y-87339163D01*
X77375761Y-87352669D01*
X77434573Y-87388046D01*
X77479709Y-87427890D01*
X77513106Y-87479120D01*
X77536701Y-87548654D01*
X77552433Y-87643409D01*
X77562239Y-87770305D01*
X77568057Y-87936258D01*
X77570266Y-88047108D01*
X77578396Y-88526471D01*
X77439531Y-88526471D01*
X77355287Y-88522938D01*
X77311884Y-88510866D01*
X77300666Y-88490594D01*
X77294744Y-88468674D01*
X77268266Y-88472865D01*
X77232186Y-88490441D01*
X77141862Y-88517382D01*
X77025777Y-88524642D01*
X76903680Y-88512767D01*
X76795321Y-88482305D01*
X76785602Y-88478077D01*
X76686568Y-88408505D01*
X76621281Y-88311789D01*
X76591240Y-88198738D01*
X76593535Y-88158122D01*
X76838633Y-88158122D01*
X76860229Y-88212782D01*
X76924259Y-88251952D01*
X77027565Y-88272974D01*
X77082774Y-88275766D01*
X77174782Y-88268620D01*
X77235941Y-88240848D01*
X77250862Y-88227647D01*
X77291287Y-88155829D01*
X77300666Y-88090686D01*
X77300666Y-88003530D01*
X77179269Y-88003530D01*
X77038153Y-88010722D01*
X76939173Y-88033345D01*
X76876633Y-88072964D01*
X76862631Y-88090628D01*
X76838633Y-88158122D01*
X76593535Y-88158122D01*
X76597941Y-88080157D01*
X76642880Y-87966855D01*
X76704196Y-87890285D01*
X76741332Y-87857181D01*
X76777687Y-87835425D01*
X76824990Y-87822161D01*
X76894973Y-87814528D01*
X76999364Y-87809670D01*
X77040770Y-87808273D01*
X77300666Y-87799780D01*
X77300285Y-87721116D01*
X77290219Y-87638428D01*
X77253829Y-87588431D01*
X77180311Y-87556489D01*
X77178339Y-87555920D01*
X77074105Y-87543361D01*
X76972108Y-87559766D01*
X76896305Y-87599657D01*
X76865890Y-87619354D01*
X76833132Y-87616629D01*
X76782721Y-87588091D01*
X76753119Y-87567950D01*
X76695218Y-87524919D01*
X76659352Y-87492662D01*
X76653597Y-87483427D01*
X76677295Y-87435636D01*
X76747313Y-87378562D01*
X76777725Y-87359305D01*
X76865155Y-87326140D01*
X76982983Y-87307350D01*
X77113866Y-87303129D01*
X77240459Y-87313669D01*
G36*
X77240459Y-87313669D02*
G01*
X77345420Y-87339163D01*
X77375761Y-87352669D01*
X77434573Y-87388046D01*
X77479709Y-87427890D01*
X77513106Y-87479120D01*
X77536701Y-87548654D01*
X77552433Y-87643409D01*
X77562239Y-87770305D01*
X77568057Y-87936258D01*
X77570266Y-88047108D01*
X77578396Y-88526471D01*
X77439531Y-88526471D01*
X77355287Y-88522938D01*
X77311884Y-88510866D01*
X77300666Y-88490594D01*
X77294744Y-88468674D01*
X77268266Y-88472865D01*
X77232186Y-88490441D01*
X77141862Y-88517382D01*
X77025777Y-88524642D01*
X76903680Y-88512767D01*
X76795321Y-88482305D01*
X76785602Y-88478077D01*
X76686568Y-88408505D01*
X76621281Y-88311789D01*
X76591240Y-88198738D01*
X76593535Y-88158122D01*
X76838633Y-88158122D01*
X76860229Y-88212782D01*
X76924259Y-88251952D01*
X77027565Y-88272974D01*
X77082774Y-88275766D01*
X77174782Y-88268620D01*
X77235941Y-88240848D01*
X77250862Y-88227647D01*
X77291287Y-88155829D01*
X77300666Y-88090686D01*
X77300666Y-88003530D01*
X77179269Y-88003530D01*
X77038153Y-88010722D01*
X76939173Y-88033345D01*
X76876633Y-88072964D01*
X76862631Y-88090628D01*
X76838633Y-88158122D01*
X76593535Y-88158122D01*
X76597941Y-88080157D01*
X76642880Y-87966855D01*
X76704196Y-87890285D01*
X76741332Y-87857181D01*
X76777687Y-87835425D01*
X76824990Y-87822161D01*
X76894973Y-87814528D01*
X76999364Y-87809670D01*
X77040770Y-87808273D01*
X77300666Y-87799780D01*
X77300285Y-87721116D01*
X77290219Y-87638428D01*
X77253829Y-87588431D01*
X77180311Y-87556489D01*
X77178339Y-87555920D01*
X77074105Y-87543361D01*
X76972108Y-87559766D01*
X76896305Y-87599657D01*
X76865890Y-87619354D01*
X76833132Y-87616629D01*
X76782721Y-87588091D01*
X76753119Y-87567950D01*
X76695218Y-87524919D01*
X76659352Y-87492662D01*
X76653597Y-87483427D01*
X76677295Y-87435636D01*
X76747313Y-87378562D01*
X76777725Y-87359305D01*
X76865155Y-87326140D01*
X76982983Y-87307350D01*
X77113866Y-87303129D01*
X77240459Y-87313669D01*
G37*
X78422446Y-87305883D02*
X78518177Y-87324755D01*
X78572677Y-87352699D01*
X78630008Y-87399123D01*
X78548441Y-87502111D01*
X78498150Y-87564479D01*
X78464001Y-87594907D01*
X78430063Y-87599555D01*
X78380406Y-87584586D01*
X78357096Y-87576117D01*
X78262063Y-87563622D01*
X78175032Y-87590406D01*
X78111138Y-87650915D01*
X78100759Y-87670208D01*
X78089456Y-87721314D01*
X78080732Y-87815500D01*
X78074997Y-87946089D01*
X78072660Y-88106405D01*
X78072627Y-88129211D01*
X78072627Y-88526471D01*
X77798705Y-88526471D01*
X77798705Y-87306275D01*
X77935666Y-87306275D01*
X78014638Y-87308337D01*
X78055779Y-87317513D01*
X78070992Y-87338290D01*
X78072627Y-87357886D01*
X78072627Y-87409497D01*
X78138240Y-87357886D01*
X78213475Y-87322675D01*
X78314544Y-87305265D01*
X78422446Y-87305883D01*
G36*
X78422446Y-87305883D02*
G01*
X78518177Y-87324755D01*
X78572677Y-87352699D01*
X78630008Y-87399123D01*
X78548441Y-87502111D01*
X78498150Y-87564479D01*
X78464001Y-87594907D01*
X78430063Y-87599555D01*
X78380406Y-87584586D01*
X78357096Y-87576117D01*
X78262063Y-87563622D01*
X78175032Y-87590406D01*
X78111138Y-87650915D01*
X78100759Y-87670208D01*
X78089456Y-87721314D01*
X78080732Y-87815500D01*
X78074997Y-87946089D01*
X78072660Y-88106405D01*
X78072627Y-88129211D01*
X78072627Y-88526471D01*
X77798705Y-88526471D01*
X77798705Y-87306275D01*
X77935666Y-87306275D01*
X78014638Y-87308337D01*
X78055779Y-87317513D01*
X78070992Y-87338290D01*
X78072627Y-87357886D01*
X78072627Y-87409497D01*
X78138240Y-87357886D01*
X78213475Y-87322675D01*
X78314544Y-87305265D01*
X78422446Y-87305883D01*
G37*
X74785568Y-88526471D02*
X74648607Y-88526471D01*
X74569111Y-88524140D01*
X74527708Y-88514488D01*
X74512801Y-88493525D01*
X74511647Y-88479351D01*
X74509133Y-88450927D01*
X74493280Y-88445475D01*
X74451621Y-88462998D01*
X74419224Y-88479351D01*
X74294849Y-88518103D01*
X74159646Y-88520346D01*
X74049726Y-88491444D01*
X73947366Y-88421619D01*
X73869340Y-88318555D01*
X73826614Y-88196989D01*
X73825526Y-88190192D01*
X73819178Y-88116032D01*
X73816021Y-88009570D01*
X73816275Y-87929052D01*
X74088289Y-87929052D01*
X74094590Y-88036070D01*
X74108925Y-88124278D01*
X74128331Y-88174090D01*
X74201746Y-88242162D01*
X74288914Y-88266564D01*
X74378804Y-88246831D01*
X74455617Y-88187968D01*
X74484708Y-88148379D01*
X74501717Y-88101138D01*
X74509684Y-88032181D01*
X74511647Y-87928607D01*
X74508134Y-87826039D01*
X74498857Y-87735921D01*
X74485706Y-87675613D01*
X74483514Y-87670208D01*
X74430478Y-87605940D01*
X74353067Y-87570656D01*
X74266454Y-87564959D01*
X74185807Y-87589453D01*
X74126297Y-87644742D01*
X74120124Y-87655743D01*
X74100801Y-87722827D01*
X74090274Y-87819284D01*
X74088289Y-87929052D01*
X73816275Y-87929052D01*
X73816404Y-87888225D01*
X73818194Y-87822918D01*
X73830373Y-87661355D01*
X73855685Y-87540053D01*
X73897793Y-87450379D01*
X73960359Y-87383699D01*
X74021100Y-87344557D01*
X74105964Y-87317040D01*
X74211515Y-87307603D01*
X74319598Y-87315290D01*
X74412058Y-87339146D01*
X74460910Y-87367685D01*
X74511647Y-87413601D01*
X74511647Y-86833137D01*
X74785568Y-86833137D01*
X74785568Y-88526471D01*
G36*
X74785568Y-88526471D02*
G01*
X74648607Y-88526471D01*
X74569111Y-88524140D01*
X74527708Y-88514488D01*
X74512801Y-88493525D01*
X74511647Y-88479351D01*
X74509133Y-88450927D01*
X74493280Y-88445475D01*
X74451621Y-88462998D01*
X74419224Y-88479351D01*
X74294849Y-88518103D01*
X74159646Y-88520346D01*
X74049726Y-88491444D01*
X73947366Y-88421619D01*
X73869340Y-88318555D01*
X73826614Y-88196989D01*
X73825526Y-88190192D01*
X73819178Y-88116032D01*
X73816021Y-88009570D01*
X73816275Y-87929052D01*
X74088289Y-87929052D01*
X74094590Y-88036070D01*
X74108925Y-88124278D01*
X74128331Y-88174090D01*
X74201746Y-88242162D01*
X74288914Y-88266564D01*
X74378804Y-88246831D01*
X74455617Y-88187968D01*
X74484708Y-88148379D01*
X74501717Y-88101138D01*
X74509684Y-88032181D01*
X74511647Y-87928607D01*
X74508134Y-87826039D01*
X74498857Y-87735921D01*
X74485706Y-87675613D01*
X74483514Y-87670208D01*
X74430478Y-87605940D01*
X74353067Y-87570656D01*
X74266454Y-87564959D01*
X74185807Y-87589453D01*
X74126297Y-87644742D01*
X74120124Y-87655743D01*
X74100801Y-87722827D01*
X74090274Y-87819284D01*
X74088289Y-87929052D01*
X73816275Y-87929052D01*
X73816404Y-87888225D01*
X73818194Y-87822918D01*
X73830373Y-87661355D01*
X73855685Y-87540053D01*
X73897793Y-87450379D01*
X73960359Y-87383699D01*
X74021100Y-87344557D01*
X74105964Y-87317040D01*
X74211515Y-87307603D01*
X74319598Y-87315290D01*
X74412058Y-87339146D01*
X74460910Y-87367685D01*
X74511647Y-87413601D01*
X74511647Y-86833137D01*
X74785568Y-86833137D01*
X74785568Y-88526471D01*
G37*
X77151254Y-85826245D02*
X77153608Y-86008879D01*
X77162207Y-86147600D01*
X77179360Y-86248147D01*
X77207374Y-86316254D01*
X77248557Y-86357659D01*
X77305217Y-86378097D01*
X77375372Y-86383318D01*
X77448848Y-86377468D01*
X77504657Y-86356093D01*
X77545109Y-86313458D01*
X77572509Y-86243825D01*
X77589167Y-86141460D01*
X77597389Y-86000624D01*
X77599490Y-85826245D01*
X77599490Y-85438628D01*
X77873411Y-85438628D01*
X77873411Y-86633922D01*
X77736451Y-86633922D01*
X77653884Y-86630576D01*
X77611368Y-86618826D01*
X77599490Y-86596520D01*
X77592336Y-86576654D01*
X77563865Y-86580857D01*
X77506476Y-86608971D01*
X77374945Y-86652342D01*
X77235438Y-86649270D01*
X77101765Y-86602174D01*
X77038108Y-86564971D01*
X76989553Y-86524691D01*
X76954081Y-86474291D01*
X76929674Y-86406729D01*
X76914313Y-86314965D01*
X76905982Y-86191955D01*
X76902662Y-86030659D01*
X76902235Y-85905928D01*
X76902235Y-85438628D01*
X77151254Y-85438628D01*
X77151254Y-85826245D01*
G36*
X77151254Y-85826245D02*
G01*
X77153608Y-86008879D01*
X77162207Y-86147600D01*
X77179360Y-86248147D01*
X77207374Y-86316254D01*
X77248557Y-86357659D01*
X77305217Y-86378097D01*
X77375372Y-86383318D01*
X77448848Y-86377468D01*
X77504657Y-86356093D01*
X77545109Y-86313458D01*
X77572509Y-86243825D01*
X77589167Y-86141460D01*
X77597389Y-86000624D01*
X77599490Y-85826245D01*
X77599490Y-85438628D01*
X77873411Y-85438628D01*
X77873411Y-86633922D01*
X77736451Y-86633922D01*
X77653884Y-86630576D01*
X77611368Y-86618826D01*
X77599490Y-86596520D01*
X77592336Y-86576654D01*
X77563865Y-86580857D01*
X77506476Y-86608971D01*
X77374945Y-86652342D01*
X77235438Y-86649270D01*
X77101765Y-86602174D01*
X77038108Y-86564971D01*
X76989553Y-86524691D01*
X76954081Y-86474291D01*
X76929674Y-86406729D01*
X76914313Y-86314965D01*
X76905982Y-86191955D01*
X76902662Y-86030659D01*
X76902235Y-85905928D01*
X76902235Y-85438628D01*
X77151254Y-85438628D01*
X77151254Y-85826245D01*
G37*
X75211759Y-85434345D02*
X75306059Y-85452229D01*
X75403890Y-85489633D01*
X75414343Y-85494402D01*
X75488531Y-85533412D01*
X75539910Y-85569664D01*
X75556517Y-85592887D01*
X75540702Y-85630761D01*
X75502288Y-85686644D01*
X75485237Y-85707505D01*
X75414969Y-85789618D01*
X75324379Y-85736168D01*
X75238164Y-85700561D01*
X75138549Y-85681529D01*
X75043019Y-85680326D01*
X74969061Y-85698210D01*
X74951312Y-85709373D01*
X74917512Y-85760553D01*
X74913404Y-85819509D01*
X74938696Y-85865567D01*
X74953656Y-85874499D01*
X74998486Y-85885592D01*
X75077286Y-85898630D01*
X75174426Y-85911088D01*
X75192346Y-85913042D01*
X75348365Y-85940030D01*
X75461523Y-85985873D01*
X75536569Y-86054803D01*
X75578253Y-86151054D01*
X75591238Y-86268617D01*
X75573299Y-86402254D01*
X75515050Y-86507195D01*
X75416255Y-86583630D01*
X75276682Y-86631748D01*
X75121745Y-86650732D01*
X74995398Y-86650504D01*
X74892913Y-86633262D01*
X74822921Y-86609457D01*
X74734483Y-86567978D01*
X74652754Y-86519842D01*
X74623705Y-86498655D01*
X74549000Y-86437676D01*
X74639098Y-86346508D01*
X74729196Y-86255339D01*
X74831632Y-86323128D01*
X74934374Y-86374042D01*
X75044087Y-86400673D01*
X75149551Y-86403483D01*
X75239546Y-86382935D01*
X75302854Y-86339493D01*
X75323296Y-86302838D01*
X75320229Y-86244053D01*
X75269434Y-86199099D01*
X75171048Y-86168057D01*
X75063256Y-86153710D01*
X74897365Y-86126337D01*
X74774124Y-86074693D01*
X74691886Y-85997266D01*
X74649001Y-85892544D01*
X74643060Y-85768387D01*
X74672406Y-85638702D01*
X74739309Y-85540677D01*
X74844371Y-85473866D01*
X74988190Y-85437820D01*
X75094738Y-85430754D01*
X75211759Y-85434345D01*
G36*
X75211759Y-85434345D02*
G01*
X75306059Y-85452229D01*
X75403890Y-85489633D01*
X75414343Y-85494402D01*
X75488531Y-85533412D01*
X75539910Y-85569664D01*
X75556517Y-85592887D01*
X75540702Y-85630761D01*
X75502288Y-85686644D01*
X75485237Y-85707505D01*
X75414969Y-85789618D01*
X75324379Y-85736168D01*
X75238164Y-85700561D01*
X75138549Y-85681529D01*
X75043019Y-85680326D01*
X74969061Y-85698210D01*
X74951312Y-85709373D01*
X74917512Y-85760553D01*
X74913404Y-85819509D01*
X74938696Y-85865567D01*
X74953656Y-85874499D01*
X74998486Y-85885592D01*
X75077286Y-85898630D01*
X75174426Y-85911088D01*
X75192346Y-85913042D01*
X75348365Y-85940030D01*
X75461523Y-85985873D01*
X75536569Y-86054803D01*
X75578253Y-86151054D01*
X75591238Y-86268617D01*
X75573299Y-86402254D01*
X75515050Y-86507195D01*
X75416255Y-86583630D01*
X75276682Y-86631748D01*
X75121745Y-86650732D01*
X74995398Y-86650504D01*
X74892913Y-86633262D01*
X74822921Y-86609457D01*
X74734483Y-86567978D01*
X74652754Y-86519842D01*
X74623705Y-86498655D01*
X74549000Y-86437676D01*
X74639098Y-86346508D01*
X74729196Y-86255339D01*
X74831632Y-86323128D01*
X74934374Y-86374042D01*
X75044087Y-86400673D01*
X75149551Y-86403483D01*
X75239546Y-86382935D01*
X75302854Y-86339493D01*
X75323296Y-86302838D01*
X75320229Y-86244053D01*
X75269434Y-86199099D01*
X75171048Y-86168057D01*
X75063256Y-86153710D01*
X74897365Y-86126337D01*
X74774124Y-86074693D01*
X74691886Y-85997266D01*
X74649001Y-85892544D01*
X74643060Y-85768387D01*
X74672406Y-85638702D01*
X74739309Y-85540677D01*
X74844371Y-85473866D01*
X74988190Y-85437820D01*
X75094738Y-85430754D01*
X75211759Y-85434345D01*
G37*
X73690760Y-85459199D02*
X73752736Y-85488802D01*
X73812759Y-85531561D01*
X73858486Y-85580775D01*
X73891793Y-85643544D01*
X73914555Y-85726971D01*
X73928647Y-85838159D01*
X73935942Y-85984209D01*
X73938318Y-86172223D01*
X73938355Y-86191912D01*
X73938902Y-86633922D01*
X73664980Y-86633922D01*
X73664980Y-86226435D01*
X73664785Y-86075471D01*
X73663436Y-85966056D01*
X73659788Y-85889933D01*
X73652696Y-85838848D01*
X73641013Y-85804545D01*
X73623594Y-85778768D01*
X73599329Y-85753298D01*
X73514435Y-85698571D01*
X73421761Y-85688416D01*
X73333473Y-85723017D01*
X73302770Y-85748770D01*
X73280229Y-85772982D01*
X73264046Y-85798912D01*
X73253168Y-85834708D01*
X73246542Y-85888519D01*
X73243115Y-85968493D01*
X73241834Y-86082779D01*
X73241647Y-86221907D01*
X73241647Y-86633922D01*
X72967725Y-86633922D01*
X72967725Y-85438628D01*
X73104686Y-85438628D01*
X73186916Y-85441879D01*
X73229340Y-85453426D01*
X73241641Y-85475952D01*
X73241647Y-85476620D01*
X73247354Y-85498681D01*
X73272527Y-85496177D01*
X73322578Y-85471937D01*
X73436094Y-85436271D01*
X73565945Y-85432305D01*
X73690760Y-85459199D01*
G36*
X73690760Y-85459199D02*
G01*
X73752736Y-85488802D01*
X73812759Y-85531561D01*
X73858486Y-85580775D01*
X73891793Y-85643544D01*
X73914555Y-85726971D01*
X73928647Y-85838159D01*
X73935942Y-85984209D01*
X73938318Y-86172223D01*
X73938355Y-86191912D01*
X73938902Y-86633922D01*
X73664980Y-86633922D01*
X73664980Y-86226435D01*
X73664785Y-86075471D01*
X73663436Y-85966056D01*
X73659788Y-85889933D01*
X73652696Y-85838848D01*
X73641013Y-85804545D01*
X73623594Y-85778768D01*
X73599329Y-85753298D01*
X73514435Y-85698571D01*
X73421761Y-85688416D01*
X73333473Y-85723017D01*
X73302770Y-85748770D01*
X73280229Y-85772982D01*
X73264046Y-85798912D01*
X73253168Y-85834708D01*
X73246542Y-85888519D01*
X73243115Y-85968493D01*
X73241834Y-86082779D01*
X73241647Y-86221907D01*
X73241647Y-86633922D01*
X72967725Y-86633922D01*
X72967725Y-85438628D01*
X73104686Y-85438628D01*
X73186916Y-85441879D01*
X73229340Y-85453426D01*
X73241641Y-85475952D01*
X73241647Y-85476620D01*
X73247354Y-85498681D01*
X73272527Y-85496177D01*
X73322578Y-85471937D01*
X73436094Y-85436271D01*
X73565945Y-85432305D01*
X73690760Y-85459199D01*
G37*
X79574976Y-85449056D02*
X79719256Y-85510348D01*
X79764699Y-85540185D01*
X79822779Y-85586036D01*
X79859238Y-85622089D01*
X79865568Y-85633832D01*
X79847693Y-85659889D01*
X79801950Y-85704105D01*
X79765328Y-85734965D01*
X79665088Y-85815520D01*
X79585935Y-85748918D01*
X79524769Y-85705921D01*
X79465129Y-85691079D01*
X79396872Y-85694704D01*
X79288482Y-85721652D01*
X79213872Y-85777587D01*
X79168530Y-85868014D01*
X79147947Y-85998435D01*
X79147942Y-85998517D01*
X79149722Y-86144290D01*
X79177387Y-86251245D01*
X79232571Y-86324064D01*
X79270192Y-86348723D01*
X79370105Y-86379431D01*
X79476822Y-86379449D01*
X79569669Y-86349655D01*
X79591647Y-86335098D01*
X79646765Y-86297914D01*
X79689859Y-86291820D01*
X79736335Y-86319496D01*
X79787716Y-86369205D01*
X79869046Y-86453116D01*
X79778749Y-86527546D01*
X79639236Y-86611549D01*
X79481912Y-86652947D01*
X79317503Y-86649950D01*
X79209531Y-86622500D01*
X79083331Y-86554620D01*
X78982401Y-86447831D01*
X78936548Y-86372451D01*
X78899410Y-86264297D01*
X78880827Y-86127318D01*
X78880684Y-85978864D01*
X78898865Y-85836281D01*
X78935255Y-85716918D01*
X78940987Y-85704680D01*
X79025865Y-85584655D01*
X79140782Y-85497267D01*
X79276659Y-85444329D01*
X79424417Y-85427654D01*
X79574976Y-85449056D01*
G36*
X79574976Y-85449056D02*
G01*
X79719256Y-85510348D01*
X79764699Y-85540185D01*
X79822779Y-85586036D01*
X79859238Y-85622089D01*
X79865568Y-85633832D01*
X79847693Y-85659889D01*
X79801950Y-85704105D01*
X79765328Y-85734965D01*
X79665088Y-85815520D01*
X79585935Y-85748918D01*
X79524769Y-85705921D01*
X79465129Y-85691079D01*
X79396872Y-85694704D01*
X79288482Y-85721652D01*
X79213872Y-85777587D01*
X79168530Y-85868014D01*
X79147947Y-85998435D01*
X79147942Y-85998517D01*
X79149722Y-86144290D01*
X79177387Y-86251245D01*
X79232571Y-86324064D01*
X79270192Y-86348723D01*
X79370105Y-86379431D01*
X79476822Y-86379449D01*
X79569669Y-86349655D01*
X79591647Y-86335098D01*
X79646765Y-86297914D01*
X79689859Y-86291820D01*
X79736335Y-86319496D01*
X79787716Y-86369205D01*
X79869046Y-86453116D01*
X79778749Y-86527546D01*
X79639236Y-86611549D01*
X79481912Y-86652947D01*
X79317503Y-86649950D01*
X79209531Y-86622500D01*
X79083331Y-86554620D01*
X78982401Y-86447831D01*
X78936548Y-86372451D01*
X78899410Y-86264297D01*
X78880827Y-86127318D01*
X78880684Y-85978864D01*
X78898865Y-85836281D01*
X78935255Y-85716918D01*
X78940987Y-85704680D01*
X79025865Y-85584655D01*
X79140782Y-85497267D01*
X79276659Y-85444329D01*
X79424417Y-85427654D01*
X79574976Y-85449056D01*
G37*
X72442720Y-87315922D02*
X72559870Y-87347180D01*
X72649051Y-87403837D01*
X72711984Y-87478045D01*
X72731548Y-87509716D01*
X72745992Y-87542891D01*
X72756089Y-87585329D01*
X72762615Y-87644788D01*
X72766342Y-87729029D01*
X72768046Y-87845810D01*
X72768500Y-88002890D01*
X72768509Y-88044565D01*
X72768509Y-88526471D01*
X72648980Y-88526471D01*
X72572739Y-88521131D01*
X72516366Y-88507604D01*
X72502242Y-88499262D01*
X72463630Y-88484864D01*
X72424192Y-88499262D01*
X72359262Y-88517237D01*
X72264945Y-88524472D01*
X72160407Y-88521333D01*
X72064811Y-88508186D01*
X72009000Y-88491318D01*
X71900998Y-88421986D01*
X71833503Y-88325772D01*
X71803159Y-88197844D01*
X71802877Y-88194559D01*
X71805540Y-88137808D01*
X72046353Y-88137808D01*
X72067405Y-88202358D01*
X72101697Y-88238686D01*
X72170532Y-88266162D01*
X72261390Y-88277129D01*
X72354042Y-88271731D01*
X72428256Y-88250110D01*
X72449049Y-88236239D01*
X72485381Y-88172143D01*
X72494588Y-88099278D01*
X72494588Y-88003530D01*
X72356827Y-88003530D01*
X72225953Y-88013605D01*
X72126741Y-88042148D01*
X72065023Y-88086639D01*
X72046353Y-88137808D01*
X71805540Y-88137808D01*
X71809436Y-88054790D01*
X71855534Y-87944282D01*
X71942200Y-87860712D01*
X71954179Y-87853110D01*
X72005655Y-87828357D01*
X72069368Y-87813368D01*
X72158435Y-87806082D01*
X72264245Y-87804407D01*
X72494588Y-87804314D01*
X72494588Y-87707755D01*
X72484817Y-87632836D01*
X72459884Y-87582644D01*
X72456965Y-87579972D01*
X72401481Y-87558015D01*
X72317727Y-87549505D01*
X72225167Y-87553687D01*
X72143270Y-87569809D01*
X72094673Y-87593990D01*
X72068341Y-87613359D01*
X72040535Y-87617057D01*
X72002161Y-87601188D01*
X71944125Y-87561855D01*
X71857331Y-87495164D01*
X71849365Y-87488916D01*
X71853447Y-87465800D01*
X71887501Y-87427352D01*
X71939260Y-87384627D01*
X71996455Y-87348679D01*
X72014425Y-87340191D01*
X72079972Y-87323252D01*
X72176020Y-87311170D01*
X72283329Y-87306323D01*
X72288347Y-87306313D01*
X72442720Y-87315922D01*
G36*
X72442720Y-87315922D02*
G01*
X72559870Y-87347180D01*
X72649051Y-87403837D01*
X72711984Y-87478045D01*
X72731548Y-87509716D01*
X72745992Y-87542891D01*
X72756089Y-87585329D01*
X72762615Y-87644788D01*
X72766342Y-87729029D01*
X72768046Y-87845810D01*
X72768500Y-88002890D01*
X72768509Y-88044565D01*
X72768509Y-88526471D01*
X72648980Y-88526471D01*
X72572739Y-88521131D01*
X72516366Y-88507604D01*
X72502242Y-88499262D01*
X72463630Y-88484864D01*
X72424192Y-88499262D01*
X72359262Y-88517237D01*
X72264945Y-88524472D01*
X72160407Y-88521333D01*
X72064811Y-88508186D01*
X72009000Y-88491318D01*
X71900998Y-88421986D01*
X71833503Y-88325772D01*
X71803159Y-88197844D01*
X71802877Y-88194559D01*
X71805540Y-88137808D01*
X72046353Y-88137808D01*
X72067405Y-88202358D01*
X72101697Y-88238686D01*
X72170532Y-88266162D01*
X72261390Y-88277129D01*
X72354042Y-88271731D01*
X72428256Y-88250110D01*
X72449049Y-88236239D01*
X72485381Y-88172143D01*
X72494588Y-88099278D01*
X72494588Y-88003530D01*
X72356827Y-88003530D01*
X72225953Y-88013605D01*
X72126741Y-88042148D01*
X72065023Y-88086639D01*
X72046353Y-88137808D01*
X71805540Y-88137808D01*
X71809436Y-88054790D01*
X71855534Y-87944282D01*
X71942200Y-87860712D01*
X71954179Y-87853110D01*
X72005655Y-87828357D01*
X72069368Y-87813368D01*
X72158435Y-87806082D01*
X72264245Y-87804407D01*
X72494588Y-87804314D01*
X72494588Y-87707755D01*
X72484817Y-87632836D01*
X72459884Y-87582644D01*
X72456965Y-87579972D01*
X72401481Y-87558015D01*
X72317727Y-87549505D01*
X72225167Y-87553687D01*
X72143270Y-87569809D01*
X72094673Y-87593990D01*
X72068341Y-87613359D01*
X72040535Y-87617057D01*
X72002161Y-87601188D01*
X71944125Y-87561855D01*
X71857331Y-87495164D01*
X71849365Y-87488916D01*
X71853447Y-87465800D01*
X71887501Y-87427352D01*
X71939260Y-87384627D01*
X71996455Y-87348679D01*
X72014425Y-87340191D01*
X72079972Y-87323252D01*
X72176020Y-87311170D01*
X72283329Y-87306323D01*
X72288347Y-87306313D01*
X72442720Y-87315922D01*
G37*
X79209307Y-87312784D02*
X79328337Y-87343731D01*
X79428021Y-87407600D01*
X79476288Y-87455313D01*
X79555408Y-87568106D01*
X79600752Y-87698950D01*
X79616330Y-87859792D01*
X79616410Y-87872794D01*
X79616549Y-88003530D01*
X78864091Y-88003530D01*
X78880130Y-88072010D01*
X78909091Y-88134031D01*
X78959778Y-88198654D01*
X78970379Y-88208971D01*
X79061494Y-88264805D01*
X79165400Y-88274275D01*
X79285000Y-88237540D01*
X79305274Y-88227647D01*
X79367456Y-88197574D01*
X79409106Y-88180440D01*
X79416373Y-88178855D01*
X79441740Y-88194242D01*
X79490120Y-88231887D01*
X79514679Y-88252459D01*
X79565570Y-88299714D01*
X79582281Y-88330917D01*
X79570683Y-88359620D01*
X79564483Y-88367468D01*
X79522493Y-88401819D01*
X79453206Y-88443565D01*
X79404882Y-88467935D01*
X79267711Y-88510873D01*
X79115847Y-88524786D01*
X78972024Y-88508300D01*
X78931745Y-88496496D01*
X78807078Y-88429689D01*
X78714671Y-88326892D01*
X78653990Y-88187105D01*
X78624498Y-88009330D01*
X78621260Y-87916373D01*
X78630714Y-87781033D01*
X78869490Y-87781033D01*
X78892584Y-87791038D01*
X78954662Y-87798888D01*
X79044914Y-87803521D01*
X79106058Y-87804314D01*
X79216040Y-87803549D01*
X79285457Y-87799970D01*
X79323538Y-87791649D01*
X79339515Y-87776657D01*
X79342627Y-87754903D01*
X79321278Y-87687892D01*
X79267529Y-87621664D01*
X79196822Y-87570832D01*
X79126089Y-87550038D01*
X79030016Y-87568484D01*
X78946849Y-87621811D01*
X78889186Y-87698677D01*
X78869490Y-87781033D01*
X78630714Y-87781033D01*
X78635028Y-87719291D01*
X78677520Y-87562271D01*
X78749635Y-87444069D01*
X78852273Y-87363440D01*
X78986332Y-87319139D01*
X79058957Y-87310607D01*
X79209307Y-87312784D01*
G36*
X79209307Y-87312784D02*
G01*
X79328337Y-87343731D01*
X79428021Y-87407600D01*
X79476288Y-87455313D01*
X79555408Y-87568106D01*
X79600752Y-87698950D01*
X79616330Y-87859792D01*
X79616410Y-87872794D01*
X79616549Y-88003530D01*
X78864091Y-88003530D01*
X78880130Y-88072010D01*
X78909091Y-88134031D01*
X78959778Y-88198654D01*
X78970379Y-88208971D01*
X79061494Y-88264805D01*
X79165400Y-88274275D01*
X79285000Y-88237540D01*
X79305274Y-88227647D01*
X79367456Y-88197574D01*
X79409106Y-88180440D01*
X79416373Y-88178855D01*
X79441740Y-88194242D01*
X79490120Y-88231887D01*
X79514679Y-88252459D01*
X79565570Y-88299714D01*
X79582281Y-88330917D01*
X79570683Y-88359620D01*
X79564483Y-88367468D01*
X79522493Y-88401819D01*
X79453206Y-88443565D01*
X79404882Y-88467935D01*
X79267711Y-88510873D01*
X79115847Y-88524786D01*
X78972024Y-88508300D01*
X78931745Y-88496496D01*
X78807078Y-88429689D01*
X78714671Y-88326892D01*
X78653990Y-88187105D01*
X78624498Y-88009330D01*
X78621260Y-87916373D01*
X78630714Y-87781033D01*
X78869490Y-87781033D01*
X78892584Y-87791038D01*
X78954662Y-87798888D01*
X79044914Y-87803521D01*
X79106058Y-87804314D01*
X79216040Y-87803549D01*
X79285457Y-87799970D01*
X79323538Y-87791649D01*
X79339515Y-87776657D01*
X79342627Y-87754903D01*
X79321278Y-87687892D01*
X79267529Y-87621664D01*
X79196822Y-87570832D01*
X79126089Y-87550038D01*
X79030016Y-87568484D01*
X78946849Y-87621811D01*
X78889186Y-87698677D01*
X78869490Y-87781033D01*
X78630714Y-87781033D01*
X78635028Y-87719291D01*
X78677520Y-87562271D01*
X78749635Y-87444069D01*
X78852273Y-87363440D01*
X78986332Y-87319139D01*
X79058957Y-87310607D01*
X79209307Y-87312784D01*
G37*
X78747637Y-85437472D02*
X78833290Y-85463641D01*
X78888437Y-85496707D01*
X78906401Y-85522855D01*
X78901457Y-85553852D01*
X78869372Y-85602547D01*
X78842243Y-85637035D01*
X78786317Y-85699383D01*
X78744299Y-85725615D01*
X78708480Y-85723903D01*
X78602224Y-85696863D01*
X78524189Y-85698091D01*
X78460820Y-85728735D01*
X78439546Y-85746670D01*
X78371451Y-85809779D01*
X78371451Y-86633922D01*
X78097529Y-86633922D01*
X78097529Y-85438628D01*
X78234490Y-85438628D01*
X78316719Y-85441879D01*
X78359144Y-85453426D01*
X78371445Y-85475952D01*
X78371451Y-85476620D01*
X78377260Y-85500215D01*
X78403531Y-85497138D01*
X78439931Y-85480115D01*
X78515111Y-85448439D01*
X78576158Y-85429381D01*
X78654708Y-85424496D01*
X78747637Y-85437472D01*
G36*
X78747637Y-85437472D02*
G01*
X78833290Y-85463641D01*
X78888437Y-85496707D01*
X78906401Y-85522855D01*
X78901457Y-85553852D01*
X78869372Y-85602547D01*
X78842243Y-85637035D01*
X78786317Y-85699383D01*
X78744299Y-85725615D01*
X78708480Y-85723903D01*
X78602224Y-85696863D01*
X78524189Y-85698091D01*
X78460820Y-85728735D01*
X78439546Y-85746670D01*
X78371451Y-85809779D01*
X78371451Y-86633922D01*
X78097529Y-86633922D01*
X78097529Y-85438628D01*
X78234490Y-85438628D01*
X78316719Y-85441879D01*
X78359144Y-85453426D01*
X78371445Y-85475952D01*
X78371451Y-85476620D01*
X78377260Y-85500215D01*
X78403531Y-85497138D01*
X78439931Y-85480115D01*
X78515111Y-85448439D01*
X78576158Y-85429381D01*
X78654708Y-85424496D01*
X78747637Y-85437472D01*
G37*
X75741528Y-87311332D02*
X75840014Y-87318726D01*
X75968776Y-87704706D01*
X76097537Y-88090686D01*
X76137911Y-87953726D01*
X76162207Y-87869083D01*
X76194167Y-87754697D01*
X76228679Y-87628963D01*
X76246928Y-87561520D01*
X76315571Y-87306275D01*
X76598773Y-87306275D01*
X76514122Y-87573971D01*
X76472435Y-87705638D01*
X76422074Y-87864458D01*
X76369481Y-88030128D01*
X76322530Y-88177843D01*
X76215589Y-88514020D01*
X75984661Y-88529044D01*
X75922050Y-88322316D01*
X75883438Y-88193896D01*
X75841300Y-88052322D01*
X75804472Y-87927285D01*
X75803018Y-87922309D01*
X75775511Y-87837586D01*
X75751242Y-87779778D01*
X75734243Y-87757918D01*
X75730750Y-87760446D01*
X75718490Y-87794336D01*
X75695195Y-87866930D01*
X75663700Y-87969101D01*
X75626842Y-88091720D01*
X75606899Y-88159167D01*
X75498895Y-88526471D01*
X75269679Y-88526471D01*
X75086439Y-87947500D01*
X75034963Y-87785091D01*
X74988070Y-87637602D01*
X74947977Y-87511960D01*
X74916897Y-87415095D01*
X74897045Y-87353934D01*
X74891011Y-87336065D01*
X74895788Y-87317768D01*
X74933297Y-87309755D01*
X75011355Y-87310557D01*
X75023574Y-87311163D01*
X75168326Y-87318726D01*
X75263130Y-87667353D01*
X75297977Y-87794497D01*
X75329117Y-87906265D01*
X75353809Y-87992953D01*
X75369312Y-88044856D01*
X75372176Y-88053318D01*
X75384046Y-88043587D01*
X75407983Y-87993172D01*
X75441239Y-87908935D01*
X75481064Y-87797741D01*
X75514730Y-87697297D01*
X75643041Y-87303939D01*
X75741528Y-87311332D01*
G36*
X75741528Y-87311332D02*
G01*
X75840014Y-87318726D01*
X75968776Y-87704706D01*
X76097537Y-88090686D01*
X76137911Y-87953726D01*
X76162207Y-87869083D01*
X76194167Y-87754697D01*
X76228679Y-87628963D01*
X76246928Y-87561520D01*
X76315571Y-87306275D01*
X76598773Y-87306275D01*
X76514122Y-87573971D01*
X76472435Y-87705638D01*
X76422074Y-87864458D01*
X76369481Y-88030128D01*
X76322530Y-88177843D01*
X76215589Y-88514020D01*
X75984661Y-88529044D01*
X75922050Y-88322316D01*
X75883438Y-88193896D01*
X75841300Y-88052322D01*
X75804472Y-87927285D01*
X75803018Y-87922309D01*
X75775511Y-87837586D01*
X75751242Y-87779778D01*
X75734243Y-87757918D01*
X75730750Y-87760446D01*
X75718490Y-87794336D01*
X75695195Y-87866930D01*
X75663700Y-87969101D01*
X75626842Y-88091720D01*
X75606899Y-88159167D01*
X75498895Y-88526471D01*
X75269679Y-88526471D01*
X75086439Y-87947500D01*
X75034963Y-87785091D01*
X74988070Y-87637602D01*
X74947977Y-87511960D01*
X74916897Y-87415095D01*
X74897045Y-87353934D01*
X74891011Y-87336065D01*
X74895788Y-87317768D01*
X74933297Y-87309755D01*
X75011355Y-87310557D01*
X75023574Y-87311163D01*
X75168326Y-87318726D01*
X75263130Y-87667353D01*
X75297977Y-87794497D01*
X75329117Y-87906265D01*
X75353809Y-87992953D01*
X75369312Y-88044856D01*
X75372176Y-88053318D01*
X75384046Y-88043587D01*
X75407983Y-87993172D01*
X75441239Y-87908935D01*
X75481064Y-87797741D01*
X75514730Y-87697297D01*
X75643041Y-87303939D01*
X75741528Y-87311332D01*
G37*
X76393547Y-85453364D02*
X76519502Y-85521959D01*
X76618047Y-85630245D01*
X76664478Y-85718315D01*
X76684412Y-85796101D01*
X76697328Y-85906993D01*
X76702863Y-86034738D01*
X76700654Y-86163084D01*
X76690337Y-86275779D01*
X76678286Y-86335969D01*
X76637634Y-86418311D01*
X76567230Y-86505770D01*
X76482382Y-86582251D01*
X76398397Y-86631655D01*
X76396349Y-86632439D01*
X76292134Y-86654027D01*
X76168627Y-86654562D01*
X76051261Y-86634908D01*
X76005942Y-86619155D01*
X75889220Y-86552966D01*
X75805624Y-86466246D01*
X75750701Y-86351438D01*
X75719995Y-86200982D01*
X75713047Y-86122173D01*
X75713933Y-86023145D01*
X75980862Y-86023145D01*
X75989854Y-86167645D01*
X76015736Y-86277760D01*
X76056868Y-86348116D01*
X76086172Y-86368235D01*
X76161251Y-86382265D01*
X76250494Y-86378111D01*
X76327650Y-86357922D01*
X76347883Y-86346815D01*
X76401265Y-86282123D01*
X76436500Y-86183119D01*
X76451498Y-86062632D01*
X76444172Y-85933494D01*
X76427799Y-85855775D01*
X76380790Y-85765771D01*
X76306582Y-85709509D01*
X76217209Y-85690057D01*
X76124707Y-85710481D01*
X76053653Y-85760437D01*
X76016312Y-85801655D01*
X75994518Y-85842281D01*
X75984130Y-85897264D01*
X75981006Y-85981549D01*
X75980862Y-86023145D01*
X75713933Y-86023145D01*
X75714930Y-85911874D01*
X75749180Y-85739423D01*
X75815802Y-85604814D01*
X75914799Y-85508040D01*
X76046175Y-85449094D01*
X76074385Y-85442259D01*
X76243926Y-85426213D01*
X76393547Y-85453364D01*
G36*
X76393547Y-85453364D02*
G01*
X76519502Y-85521959D01*
X76618047Y-85630245D01*
X76664478Y-85718315D01*
X76684412Y-85796101D01*
X76697328Y-85906993D01*
X76702863Y-86034738D01*
X76700654Y-86163084D01*
X76690337Y-86275779D01*
X76678286Y-86335969D01*
X76637634Y-86418311D01*
X76567230Y-86505770D01*
X76482382Y-86582251D01*
X76398397Y-86631655D01*
X76396349Y-86632439D01*
X76292134Y-86654027D01*
X76168627Y-86654562D01*
X76051261Y-86634908D01*
X76005942Y-86619155D01*
X75889220Y-86552966D01*
X75805624Y-86466246D01*
X75750701Y-86351438D01*
X75719995Y-86200982D01*
X75713047Y-86122173D01*
X75713933Y-86023145D01*
X75980862Y-86023145D01*
X75989854Y-86167645D01*
X76015736Y-86277760D01*
X76056868Y-86348116D01*
X76086172Y-86368235D01*
X76161251Y-86382265D01*
X76250494Y-86378111D01*
X76327650Y-86357922D01*
X76347883Y-86346815D01*
X76401265Y-86282123D01*
X76436500Y-86183119D01*
X76451498Y-86062632D01*
X76444172Y-85933494D01*
X76427799Y-85855775D01*
X76380790Y-85765771D01*
X76306582Y-85709509D01*
X76217209Y-85690057D01*
X76124707Y-85710481D01*
X76053653Y-85760437D01*
X76016312Y-85801655D01*
X75994518Y-85842281D01*
X75984130Y-85897264D01*
X75981006Y-85981549D01*
X75980862Y-86023145D01*
X75713933Y-86023145D01*
X75714930Y-85911874D01*
X75749180Y-85739423D01*
X75815802Y-85604814D01*
X75914799Y-85508040D01*
X76046175Y-85449094D01*
X76074385Y-85442259D01*
X76243926Y-85426213D01*
X76393547Y-85453364D01*
G37*
D13*
%TO.C,D2*%
X33503000Y-83545000D02*
X33503000Y-86635000D01*
X33503000Y-86634830D02*
G75*
G03*
X39053000Y-85089538I2560000J1544830D01*
G01*
X39052999Y-85090462D02*
G75*
G03*
X33503001Y-83545170I-2989999J462D01*
G01*
X38563000Y-85090000D02*
G75*
G03*
X33563000Y-85090000I-2500000J0D01*
G01*
X33563000Y-85090000D02*
G75*
G03*
X38563000Y-85090000I2500000J0D01*
G01*
%TO.C,D3*%
X45954000Y-83545000D02*
X45954000Y-86635000D01*
X51503999Y-85090462D02*
G75*
G03*
X45954001Y-83545170I-2989999J462D01*
G01*
X45954000Y-86634830D02*
G75*
G03*
X51504000Y-85089538I2560000J1544830D01*
G01*
X51014000Y-85090000D02*
G75*
G03*
X46014000Y-85090000I-2500000J0D01*
G01*
X46014000Y-85090000D02*
G75*
G03*
X51014000Y-85090000I2500000J0D01*
G01*
%TD*%
M02*
