%TF.GenerationSoftware,KiCad,Pcbnew,8.0.2*%
%TF.CreationDate,2025-01-04T14:29:41+01:00*%
%TF.ProjectId,pico-sst39sf0x0-pcb,7069636f-2d73-4737-9433-397366307830,2*%
%TF.SameCoordinates,Original*%
%TF.FileFunction,Soldermask,Top*%
%TF.FilePolarity,Negative*%
%FSLAX46Y46*%
G04 Gerber Fmt 4.6, Leading zero omitted, Abs format (unit mm)*
G04 Created by KiCad (PCBNEW 8.0.2) date 2025-01-04 14:29:41*
%MOMM*%
%LPD*%
G01*
G04 APERTURE LIST*
%ADD10O,1.800000X1.800000*%
%ADD11O,1.500000X1.500000*%
%ADD12O,1.700000X1.700000*%
%ADD13R,3.500000X1.700000*%
%ADD14R,1.700000X1.700000*%
%ADD15R,1.700000X3.500000*%
%ADD16R,1.440000X2.000000*%
%ADD17O,1.440000X2.000000*%
%ADD18C,2.000000*%
%ADD19C,3.200000*%
%ADD20R,1.800000X1.800000*%
%ADD21C,1.800000*%
G04 APERTURE END LIST*
D10*
%TO.C,U5*%
X105225000Y-22990000D03*
D11*
X105525000Y-26020000D03*
X110375000Y-26020000D03*
D10*
X110675000Y-22990000D03*
D12*
X99060000Y-22860000D03*
D13*
X98160000Y-22860000D03*
D12*
X99060000Y-25400000D03*
D13*
X98160000Y-25400000D03*
D14*
X99060000Y-27940000D03*
D13*
X98160000Y-27940000D03*
D12*
X99060000Y-30480000D03*
D13*
X98160000Y-30480000D03*
D12*
X99060000Y-33020000D03*
D13*
X98160000Y-33020000D03*
D12*
X99060000Y-35560000D03*
D13*
X98160000Y-35560000D03*
D12*
X99060000Y-38100000D03*
D13*
X98160000Y-38100000D03*
D14*
X99060000Y-40640000D03*
D13*
X98160000Y-40640000D03*
D12*
X99060000Y-43180000D03*
D13*
X98160000Y-43180000D03*
D12*
X99060000Y-45720000D03*
D13*
X98160000Y-45720000D03*
D12*
X99060000Y-48260000D03*
D13*
X98160000Y-48260000D03*
D12*
X99060000Y-50800000D03*
D13*
X98160000Y-50800000D03*
D14*
X99060000Y-53340000D03*
D13*
X98160000Y-53340000D03*
D12*
X99060000Y-55880000D03*
D13*
X98160000Y-55880000D03*
D12*
X99060000Y-58420000D03*
D13*
X98160000Y-58420000D03*
D12*
X99060000Y-60960000D03*
D13*
X98160000Y-60960000D03*
D12*
X99060000Y-63500000D03*
D13*
X98160000Y-63500000D03*
D14*
X99060000Y-66040000D03*
D13*
X98160000Y-66040000D03*
D12*
X99060000Y-68580000D03*
D13*
X98160000Y-68580000D03*
D12*
X99060000Y-71120000D03*
D13*
X98160000Y-71120000D03*
D12*
X116840000Y-71120000D03*
D13*
X117740000Y-71120000D03*
D12*
X116840000Y-68580000D03*
D13*
X117740000Y-68580000D03*
D14*
X116840000Y-66040000D03*
D13*
X117740000Y-66040000D03*
D12*
X116840000Y-63500000D03*
D13*
X117740000Y-63500000D03*
D12*
X116840000Y-60960000D03*
D13*
X117740000Y-60960000D03*
D12*
X116840000Y-58420000D03*
D13*
X117740000Y-58420000D03*
D12*
X116840000Y-55880000D03*
D13*
X117740000Y-55880000D03*
D14*
X116840000Y-53340000D03*
D13*
X117740000Y-53340000D03*
D12*
X116840000Y-50800000D03*
D13*
X117740000Y-50800000D03*
D12*
X116840000Y-48260000D03*
D13*
X117740000Y-48260000D03*
D12*
X116840000Y-45720000D03*
D13*
X117740000Y-45720000D03*
D12*
X116840000Y-43180000D03*
D13*
X117740000Y-43180000D03*
D14*
X116840000Y-40640000D03*
D13*
X117740000Y-40640000D03*
D12*
X116840000Y-38100000D03*
D13*
X117740000Y-38100000D03*
D12*
X116840000Y-35560000D03*
D13*
X117740000Y-35560000D03*
D12*
X116840000Y-33020000D03*
D13*
X117740000Y-33020000D03*
D12*
X116840000Y-30480000D03*
D13*
X117740000Y-30480000D03*
D14*
X116840000Y-27940000D03*
D13*
X117740000Y-27940000D03*
D12*
X116840000Y-25400000D03*
D13*
X117740000Y-25400000D03*
D12*
X116840000Y-22860000D03*
D13*
X117740000Y-22860000D03*
D12*
X105410000Y-70890000D03*
D15*
X105410000Y-71790000D03*
D14*
X107950000Y-70890000D03*
D15*
X107950000Y-71790000D03*
D12*
X110490000Y-70890000D03*
D15*
X110490000Y-71790000D03*
%TD*%
D16*
%TO.C,U2*%
X37220000Y-60232500D03*
D17*
X39760000Y-60232500D03*
X42300000Y-60232500D03*
X44840000Y-60232500D03*
X47380000Y-60232500D03*
X49920000Y-60232500D03*
X52460000Y-60232500D03*
X55000000Y-60232500D03*
X57540000Y-60232500D03*
X60080000Y-60232500D03*
X62620000Y-60232500D03*
X65160000Y-60232500D03*
X67700000Y-60232500D03*
X70240000Y-60232500D03*
X72780000Y-60232500D03*
X75320000Y-60232500D03*
X75320000Y-44992500D03*
X72780000Y-44992500D03*
X70240000Y-44992500D03*
X67700000Y-44992500D03*
X65160000Y-44992500D03*
X62620000Y-44992500D03*
X60080000Y-44992500D03*
X57540000Y-44992500D03*
X55000000Y-44992500D03*
X52460000Y-44992500D03*
X49920000Y-44992500D03*
X47380000Y-44992500D03*
X44840000Y-44992500D03*
X42300000Y-44992500D03*
X39760000Y-44992500D03*
X37220000Y-44992500D03*
%TD*%
D18*
%TO.C,SW1*%
X41096000Y-73370000D03*
X34596000Y-73370000D03*
X41096000Y-68870000D03*
X34596000Y-68870000D03*
%TD*%
D19*
%TO.C,H2*%
X28956000Y-72644000D03*
%TD*%
D20*
%TO.C,D2*%
X46223000Y-71120000D03*
D21*
X48763000Y-71120000D03*
%TD*%
D19*
%TO.C,H3*%
X123444000Y-72644000D03*
%TD*%
%TO.C,H1*%
X28956000Y-25146000D03*
%TD*%
D20*
%TO.C,D3*%
X58674000Y-71120000D03*
D21*
X61214000Y-71120000D03*
%TD*%
D19*
%TO.C,H4*%
X123444000Y-25146000D03*
%TD*%
M02*
