%TF.GenerationSoftware,KiCad,Pcbnew,8.0.2*%
%TF.CreationDate,2025-01-04T14:29:41+01:00*%
%TF.ProjectId,pico-sst39sf0x0-pcb,7069636f-2d73-4737-9433-397366307830,2*%
%TF.SameCoordinates,Original*%
%TF.FileFunction,Copper,L2,Bot*%
%TF.FilePolarity,Positive*%
%FSLAX46Y46*%
G04 Gerber Fmt 4.6, Leading zero omitted, Abs format (unit mm)*
G04 Created by KiCad (PCBNEW 8.0.2) date 2025-01-04 14:29:41*
%MOMM*%
%LPD*%
G01*
G04 APERTURE LIST*
G04 Aperture macros list*
%AMRoundRect*
0 Rectangle with rounded corners*
0 $1 Rounding radius*
0 $2 $3 $4 $5 $6 $7 $8 $9 X,Y pos of 4 corners*
0 Add a 4 corners polygon primitive as box body*
4,1,4,$2,$3,$4,$5,$6,$7,$8,$9,$2,$3,0*
0 Add four circle primitives for the rounded corners*
1,1,$1+$1,$2,$3*
1,1,$1+$1,$4,$5*
1,1,$1+$1,$6,$7*
1,1,$1+$1,$8,$9*
0 Add four rect primitives between the rounded corners*
20,1,$1+$1,$2,$3,$4,$5,0*
20,1,$1+$1,$4,$5,$6,$7,0*
20,1,$1+$1,$6,$7,$8,$9,0*
20,1,$1+$1,$8,$9,$2,$3,0*%
G04 Aperture macros list end*
%TA.AperFunction,ComponentPad*%
%ADD10O,1.700000X1.700000*%
%TD*%
%TA.AperFunction,ComponentPad*%
%ADD11R,1.700000X1.700000*%
%TD*%
%TA.AperFunction,ComponentPad*%
%ADD12R,1.440000X2.000000*%
%TD*%
%TA.AperFunction,ComponentPad*%
%ADD13O,1.440000X2.000000*%
%TD*%
%TA.AperFunction,ComponentPad*%
%ADD14C,2.000000*%
%TD*%
%TA.AperFunction,ComponentPad*%
%ADD15R,1.800000X1.800000*%
%TD*%
%TA.AperFunction,ComponentPad*%
%ADD16C,1.800000*%
%TD*%
%TA.AperFunction,SMDPad,CuDef*%
%ADD17RoundRect,0.150000X0.587500X0.150000X-0.587500X0.150000X-0.587500X-0.150000X0.587500X-0.150000X0*%
%TD*%
%TA.AperFunction,SMDPad,CuDef*%
%ADD18RoundRect,0.150000X-0.587500X-0.150000X0.587500X-0.150000X0.587500X0.150000X-0.587500X0.150000X0*%
%TD*%
%TA.AperFunction,SMDPad,CuDef*%
%ADD19R,0.500000X0.800000*%
%TD*%
%TA.AperFunction,SMDPad,CuDef*%
%ADD20R,0.400000X0.800000*%
%TD*%
%TA.AperFunction,SMDPad,CuDef*%
%ADD21RoundRect,0.250000X-0.475000X0.250000X-0.475000X-0.250000X0.475000X-0.250000X0.475000X0.250000X0*%
%TD*%
%TA.AperFunction,SMDPad,CuDef*%
%ADD22RoundRect,0.250000X-0.350000X-0.450000X0.350000X-0.450000X0.350000X0.450000X-0.350000X0.450000X0*%
%TD*%
%TA.AperFunction,SMDPad,CuDef*%
%ADD23R,1.800000X2.500000*%
%TD*%
%TA.AperFunction,SMDPad,CuDef*%
%ADD24R,0.800000X0.500000*%
%TD*%
%TA.AperFunction,SMDPad,CuDef*%
%ADD25R,0.800000X0.400000*%
%TD*%
%TA.AperFunction,SMDPad,CuDef*%
%ADD26RoundRect,0.150000X0.150000X-0.875000X0.150000X0.875000X-0.150000X0.875000X-0.150000X-0.875000X0*%
%TD*%
%TA.AperFunction,SMDPad,CuDef*%
%ADD27RoundRect,0.250000X0.475000X-0.250000X0.475000X0.250000X-0.475000X0.250000X-0.475000X-0.250000X0*%
%TD*%
%TA.AperFunction,SMDPad,CuDef*%
%ADD28RoundRect,0.250000X0.450000X-0.350000X0.450000X0.350000X-0.450000X0.350000X-0.450000X-0.350000X0*%
%TD*%
%TA.AperFunction,ViaPad*%
%ADD29C,0.800000*%
%TD*%
%TA.AperFunction,Conductor*%
%ADD30C,0.250000*%
%TD*%
G04 APERTURE END LIST*
D10*
%TO.P,U5,1,GPIO0*%
%TO.N,LD0*%
X99060000Y-22860000D03*
%TO.P,U5,2,GPIO1*%
%TO.N,LD1*%
X99060000Y-25400000D03*
D11*
%TO.P,U5,3,GND*%
%TO.N,GND*%
X99060000Y-27940000D03*
D10*
%TO.P,U5,4,GPIO2*%
%TO.N,LD2*%
X99060000Y-30480000D03*
%TO.P,U5,5,GPIO3*%
%TO.N,LD3*%
X99060000Y-33020000D03*
%TO.P,U5,6,GPIO4*%
%TO.N,LD4*%
X99060000Y-35560000D03*
%TO.P,U5,7,GPIO5*%
%TO.N,LD5*%
X99060000Y-38100000D03*
D11*
%TO.P,U5,8,GND*%
%TO.N,GND*%
X99060000Y-40640000D03*
D10*
%TO.P,U5,9,GPIO6*%
%TO.N,LD6*%
X99060000Y-43180000D03*
%TO.P,U5,10,GPIO7*%
%TO.N,LD7*%
X99060000Y-45720000D03*
%TO.P,U5,11,GPIO8*%
%TO.N,LP0*%
X99060000Y-48260000D03*
%TO.P,U5,12,GPIO9*%
%TO.N,LP1*%
X99060000Y-50800000D03*
D11*
%TO.P,U5,13,GND*%
%TO.N,GND*%
X99060000Y-53340000D03*
D10*
%TO.P,U5,14,GPIO10*%
%TO.N,LP2*%
X99060000Y-55880000D03*
%TO.P,U5,15,GPIO11*%
%TO.N,LP3*%
X99060000Y-58420000D03*
%TO.P,U5,16,GPIO12*%
%TO.N,LP4*%
X99060000Y-60960000D03*
%TO.P,U5,17,GPIO13*%
%TO.N,LP5*%
X99060000Y-63500000D03*
D11*
%TO.P,U5,18,GND*%
%TO.N,GND*%
X99060000Y-66040000D03*
D10*
%TO.P,U5,19,GPIO14*%
%TO.N,LP6*%
X99060000Y-68580000D03*
%TO.P,U5,20,GPIO15*%
%TO.N,LP7*%
X99060000Y-71120000D03*
%TO.P,U5,21,GPIO16*%
%TO.N,~{LROE}*%
X116840000Y-71120000D03*
%TO.P,U5,22,GPIO17*%
%TO.N,LALS*%
X116840000Y-68580000D03*
D11*
%TO.P,U5,23,GND*%
%TO.N,GND*%
X116840000Y-66040000D03*
D10*
%TO.P,U5,24,GPIO18*%
%TO.N,LAHS*%
X116840000Y-63500000D03*
%TO.P,U5,25,GPIO19*%
%TO.N,LAUS*%
X116840000Y-60960000D03*
%TO.P,U5,26,GPIO20*%
%TO.N,~{LPGM}*%
X116840000Y-58420000D03*
%TO.P,U5,27,GPIO21*%
%TO.N,~{LCE}*%
X116840000Y-55880000D03*
D11*
%TO.P,U5,28,GND*%
%TO.N,GND*%
X116840000Y-53340000D03*
D10*
%TO.P,U5,29,GPIO22*%
%TO.N,~{LOE}*%
X116840000Y-50800000D03*
%TO.P,U5,30,RUN*%
%TO.N,RUN*%
X116840000Y-48260000D03*
%TO.P,U5,31,GPIO26_ADC0*%
%TO.N,GPIO26_3v3*%
X116840000Y-45720000D03*
%TO.P,U5,32,GPIO27_ADC1*%
%TO.N,GPIO27_3v3*%
X116840000Y-43180000D03*
D11*
%TO.P,U5,33,AGND*%
%TO.N,GND*%
X116840000Y-40640000D03*
D10*
%TO.P,U5,34,GPIO28_ADC2*%
%TO.N,unconnected-(U5-GPIO28_ADC2-Pad34)*%
X116840000Y-38100000D03*
%TO.P,U5,35,ADC_VREF*%
%TO.N,unconnected-(U5-ADC_VREF-Pad35)*%
X116840000Y-35560000D03*
%TO.P,U5,36,3V3*%
%TO.N,+3V3*%
X116840000Y-33020000D03*
%TO.P,U5,37,3V3_EN*%
%TO.N,unconnected-(U5-3V3_EN-Pad37)*%
X116840000Y-30480000D03*
D11*
%TO.P,U5,38,GND*%
%TO.N,GND*%
X116840000Y-27940000D03*
D10*
%TO.P,U5,39,VSYS*%
%TO.N,unconnected-(U5-VSYS-Pad39)*%
X116840000Y-25400000D03*
%TO.P,U5,40,VBUS*%
%TO.N,+5V*%
X116840000Y-22860000D03*
%TO.P,U5,41,SWCLK*%
%TO.N,unconnected-(U5-SWCLK-Pad41)*%
X105410000Y-70890000D03*
D11*
%TO.P,U5,42,GND*%
%TO.N,GND*%
X107950000Y-70890000D03*
D10*
%TO.P,U5,43,SWDIO*%
%TO.N,unconnected-(U5-SWDIO-Pad43)*%
X110490000Y-70890000D03*
%TD*%
D12*
%TO.P,U2,1,A18*%
%TO.N,A18*%
X37220000Y-60232500D03*
D13*
%TO.P,U2,2,A16*%
%TO.N,A16*%
X39760000Y-60232500D03*
%TO.P,U2,3,A15*%
%TO.N,A15*%
X42300000Y-60232500D03*
%TO.P,U2,4,A12*%
%TO.N,A12*%
X44840000Y-60232500D03*
%TO.P,U2,5,A7*%
%TO.N,A7*%
X47380000Y-60232500D03*
%TO.P,U2,6,A6*%
%TO.N,A6*%
X49920000Y-60232500D03*
%TO.P,U2,7,A5*%
%TO.N,A5*%
X52460000Y-60232500D03*
%TO.P,U2,8,A4*%
%TO.N,A4*%
X55000000Y-60232500D03*
%TO.P,U2,9,A3*%
%TO.N,A3*%
X57540000Y-60232500D03*
%TO.P,U2,10,A2*%
%TO.N,A2*%
X60080000Y-60232500D03*
%TO.P,U2,11,A1*%
%TO.N,A1*%
X62620000Y-60232500D03*
%TO.P,U2,12,A0*%
%TO.N,A0*%
X65160000Y-60232500D03*
%TO.P,U2,13,D0*%
%TO.N,D0*%
X67700000Y-60232500D03*
%TO.P,U2,14,D1*%
%TO.N,D1*%
X70240000Y-60232500D03*
%TO.P,U2,15,D2*%
%TO.N,D2*%
X72780000Y-60232500D03*
%TO.P,U2,16,GND*%
%TO.N,GND*%
X75320000Y-60232500D03*
%TO.P,U2,17,D3*%
%TO.N,D3*%
X75320000Y-44992500D03*
%TO.P,U2,18,D4*%
%TO.N,D4*%
X72780000Y-44992500D03*
%TO.P,U2,19,D5*%
%TO.N,D5*%
X70240000Y-44992500D03*
%TO.P,U2,20,D6*%
%TO.N,D6*%
X67700000Y-44992500D03*
%TO.P,U2,21,D7*%
%TO.N,D7*%
X65160000Y-44992500D03*
%TO.P,U2,22,CE*%
%TO.N,~{CE}*%
X62620000Y-44992500D03*
%TO.P,U2,23,A10*%
%TO.N,A10*%
X60080000Y-44992500D03*
%TO.P,U2,24,OE*%
%TO.N,~{OE}*%
X57540000Y-44992500D03*
%TO.P,U2,25,A11*%
%TO.N,A11*%
X55000000Y-44992500D03*
%TO.P,U2,26,A9*%
%TO.N,A9*%
X52460000Y-44992500D03*
%TO.P,U2,27,A8*%
%TO.N,A8*%
X49920000Y-44992500D03*
%TO.P,U2,28,A13*%
%TO.N,A13*%
X47380000Y-44992500D03*
%TO.P,U2,29,A14*%
%TO.N,A14*%
X44840000Y-44992500D03*
%TO.P,U2,30,A17*%
%TO.N,A17*%
X42300000Y-44992500D03*
%TO.P,U2,31,PGM*%
%TO.N,~{PGM}*%
X39760000Y-44992500D03*
%TO.P,U2,32,VCC*%
%TO.N,Net-(D1-K)*%
X37220000Y-44992500D03*
%TD*%
D14*
%TO.P,SW1,1,1*%
%TO.N,RUN*%
X41096000Y-73370000D03*
X34596000Y-73370000D03*
%TO.P,SW1,2,2*%
%TO.N,GND*%
X41096000Y-68870000D03*
X34596000Y-68870000D03*
%TD*%
D15*
%TO.P,D2,1,K*%
%TO.N,Net-(D2-K)*%
X46223000Y-71120000D03*
D16*
%TO.P,D2,2,A*%
%TO.N,GPIO26_3v3*%
X48763000Y-71120000D03*
%TD*%
D15*
%TO.P,D3,1,K*%
%TO.N,Net-(D3-K)*%
X58674000Y-71120000D03*
D16*
%TO.P,D3,2,A*%
%TO.N,GPIO27_3v3*%
X61214000Y-71120000D03*
%TD*%
D17*
%TO.P,Q21,1,G*%
%TO.N,+3V3*%
X80632500Y-35372000D03*
%TO.P,Q21,2,S*%
%TO.N,LD6*%
X80632500Y-37272000D03*
%TO.P,Q21,3,D*%
%TO.N,D6*%
X78757500Y-36322000D03*
%TD*%
D18*
%TO.P,Q6,1,G*%
%TO.N,+3V3*%
X42968200Y-26604000D03*
%TO.P,Q6,2,S*%
%TO.N,LALS*%
X42968200Y-24704000D03*
%TO.P,Q6,3,D*%
%TO.N,ALS*%
X44843200Y-25654000D03*
%TD*%
%TO.P,Q12,1,G*%
%TO.N,+3V3*%
X58933900Y-26604000D03*
%TO.P,Q12,2,S*%
%TO.N,~{LPGM}*%
X58933900Y-24704000D03*
%TO.P,Q12,3,D*%
%TO.N,~{PGM}*%
X60808900Y-25654000D03*
%TD*%
%TO.P,Q4,1,G*%
%TO.N,+3V3*%
X71113800Y-68768000D03*
%TO.P,Q4,2,S*%
%TO.N,LP3*%
X71113800Y-66868000D03*
%TO.P,Q4,3,D*%
%TO.N,P3*%
X72988800Y-67818000D03*
%TD*%
D19*
%TO.P,RN6,1,R1.1*%
%TO.N,+5V*%
X81318000Y-62738000D03*
D20*
%TO.P,RN6,2,R2.1*%
X80518000Y-62738000D03*
%TO.P,RN6,3,R3.1*%
X79718000Y-62738000D03*
D19*
%TO.P,RN6,4,R4.1*%
X78918000Y-62738000D03*
%TO.P,RN6,5,R4.2*%
%TO.N,P7*%
X78918000Y-60938000D03*
D20*
%TO.P,RN6,6,R3.2*%
%TO.N,P6*%
X79718000Y-60938000D03*
%TO.P,RN6,7,R2.2*%
%TO.N,P5*%
X80518000Y-60938000D03*
D19*
%TO.P,RN6,8,R1.2*%
%TO.N,P4*%
X81318000Y-60938000D03*
%TD*%
D21*
%TO.P,C4,1*%
%TO.N,+5V*%
X89916000Y-51628000D03*
%TO.P,C4,2*%
%TO.N,GND*%
X89916000Y-53528000D03*
%TD*%
D22*
%TO.P,R1,1*%
%TO.N,+3V3*%
X36862000Y-71120000D03*
%TO.P,R1,2*%
%TO.N,RUN*%
X38862000Y-71120000D03*
%TD*%
D18*
%TO.P,Q5,1,G*%
%TO.N,+3V3*%
X34985400Y-26604000D03*
%TO.P,Q5,2,S*%
%TO.N,~{LROE}*%
X34985400Y-24704000D03*
%TO.P,Q5,3,D*%
%TO.N,~{ROE}*%
X36860400Y-25654000D03*
%TD*%
D19*
%TO.P,RN5,1,R1.1*%
%TO.N,LAHS*%
X54861500Y-29834000D03*
D20*
%TO.P,RN5,2,R2.1*%
%TO.N,AHS*%
X55661500Y-29834000D03*
%TO.P,RN5,3,R3.1*%
%TO.N,~{LPGM}*%
X56461500Y-29834000D03*
D19*
%TO.P,RN5,4,R4.1*%
%TO.N,~{PGM}*%
X57261500Y-29834000D03*
%TO.P,RN5,5,R4.2*%
%TO.N,+5V*%
X57261500Y-31634000D03*
D20*
%TO.P,RN5,6,R3.2*%
%TO.N,+3V3*%
X56461500Y-31634000D03*
%TO.P,RN5,7,R2.2*%
%TO.N,+5V*%
X55661500Y-31634000D03*
D19*
%TO.P,RN5,8,R1.2*%
%TO.N,+3V3*%
X54861500Y-31634000D03*
%TD*%
D17*
%TO.P,Q15,1,G*%
%TO.N,+3V3*%
X47705500Y-35372000D03*
%TO.P,Q15,2,S*%
%TO.N,LD2*%
X47705500Y-37272000D03*
%TO.P,Q15,3,D*%
%TO.N,D2*%
X45830500Y-36322000D03*
%TD*%
D21*
%TO.P,C3,1*%
%TO.N,+5V*%
X68580000Y-51694000D03*
%TO.P,C3,2*%
%TO.N,GND*%
X68580000Y-53594000D03*
%TD*%
D23*
%TO.P,D1,1,K*%
%TO.N,Net-(D1-K)*%
X28702000Y-46196000D03*
%TO.P,D1,2,A*%
%TO.N,+5V*%
X28702000Y-42196000D03*
%TD*%
D24*
%TO.P,RN10,1,R1.1*%
%TO.N,+3V3*%
X67696000Y-37522000D03*
D25*
%TO.P,RN10,2,R2.1*%
X67696000Y-36722000D03*
%TO.P,RN10,3,R3.1*%
X67696000Y-35922000D03*
D24*
%TO.P,RN10,4,R4.1*%
X67696000Y-35122000D03*
%TO.P,RN10,5,R4.2*%
%TO.N,LD7*%
X69496000Y-35122000D03*
D25*
%TO.P,RN10,6,R3.2*%
%TO.N,LD6*%
X69496000Y-35922000D03*
%TO.P,RN10,7,R2.2*%
%TO.N,LD5*%
X69496000Y-36722000D03*
D24*
%TO.P,RN10,8,R1.2*%
%TO.N,LD4*%
X69496000Y-37522000D03*
%TD*%
D18*
%TO.P,Q18,1,G*%
%TO.N,+3V3*%
X74899700Y-26604000D03*
%TO.P,Q18,2,S*%
%TO.N,~{LOE}*%
X74899700Y-24704000D03*
%TO.P,Q18,3,D*%
%TO.N,~{OE}*%
X76774700Y-25654000D03*
%TD*%
D24*
%TO.P,RN9,1,R1.1*%
%TO.N,D0*%
X51232500Y-37522000D03*
D25*
%TO.P,RN9,2,R2.1*%
%TO.N,D1*%
X51232500Y-36722000D03*
%TO.P,RN9,3,R3.1*%
%TO.N,D2*%
X51232500Y-35922000D03*
D24*
%TO.P,RN9,4,R4.1*%
%TO.N,D3*%
X51232500Y-35122000D03*
%TO.P,RN9,5,R4.2*%
%TO.N,+5V*%
X53032500Y-35122000D03*
D25*
%TO.P,RN9,6,R3.2*%
X53032500Y-35922000D03*
%TO.P,RN9,7,R2.2*%
X53032500Y-36722000D03*
D24*
%TO.P,RN9,8,R1.2*%
X53032500Y-37522000D03*
%TD*%
D18*
%TO.P,Q2,1,G*%
%TO.N,+3V3*%
X80088500Y-68768000D03*
%TO.P,Q2,2,S*%
%TO.N,LP1*%
X80088500Y-66868000D03*
%TO.P,Q2,3,D*%
%TO.N,P1*%
X81963500Y-67818000D03*
%TD*%
D17*
%TO.P,Q14,1,G*%
%TO.N,+3V3*%
X41971000Y-35372000D03*
%TO.P,Q14,2,S*%
%TO.N,LD1*%
X41971000Y-37272000D03*
%TO.P,Q14,3,D*%
%TO.N,D1*%
X40096000Y-36322000D03*
%TD*%
%TO.P,Q19,1,G*%
%TO.N,+3V3*%
X64169000Y-35372000D03*
%TO.P,Q19,2,S*%
%TO.N,LD4*%
X64169000Y-37272000D03*
%TO.P,Q19,3,D*%
%TO.N,D4*%
X62294000Y-36322000D03*
%TD*%
D22*
%TO.P,R3,1*%
%TO.N,Net-(D3-K)*%
X65945000Y-67056000D03*
%TO.P,R3,2*%
%TO.N,GND*%
X67945000Y-67056000D03*
%TD*%
D18*
%TO.P,Q1,1,G*%
%TO.N,+3V3*%
X84575800Y-68768000D03*
%TO.P,Q1,2,S*%
%TO.N,LP0*%
X84575800Y-66868000D03*
%TO.P,Q1,3,D*%
%TO.N,P0*%
X86450800Y-67818000D03*
%TD*%
D19*
%TO.P,RN2,1,R1.1*%
%TO.N,~{LROE}*%
X39621500Y-29834000D03*
D20*
%TO.P,RN2,2,R2.1*%
%TO.N,~{ROE}*%
X40421500Y-29834000D03*
%TO.P,RN2,3,R3.1*%
%TO.N,LALS*%
X41221500Y-29834000D03*
D19*
%TO.P,RN2,4,R4.1*%
%TO.N,ALS*%
X42021500Y-29834000D03*
%TO.P,RN2,5,R4.2*%
%TO.N,+5V*%
X42021500Y-31634000D03*
D20*
%TO.P,RN2,6,R3.2*%
%TO.N,+3V3*%
X41221500Y-31634000D03*
%TO.P,RN2,7,R2.2*%
%TO.N,+5V*%
X40421500Y-31634000D03*
D19*
%TO.P,RN2,8,R1.2*%
%TO.N,+3V3*%
X39621500Y-31634000D03*
%TD*%
%TO.P,RN1,1,R1.1*%
%TO.N,LP0*%
X79940000Y-74306000D03*
D20*
%TO.P,RN1,2,R2.1*%
%TO.N,LP1*%
X79140000Y-74306000D03*
%TO.P,RN1,3,R3.1*%
%TO.N,LP2*%
X78340000Y-74306000D03*
D19*
%TO.P,RN1,4,R4.1*%
%TO.N,LP3*%
X77540000Y-74306000D03*
%TO.P,RN1,5,R4.2*%
%TO.N,+3V3*%
X77540000Y-72506000D03*
D20*
%TO.P,RN1,6,R3.2*%
X78340000Y-72506000D03*
%TO.P,RN1,7,R2.2*%
X79140000Y-72506000D03*
D19*
%TO.P,RN1,8,R1.2*%
X79940000Y-72506000D03*
%TD*%
D18*
%TO.P,Q9,1,G*%
%TO.N,+3V3*%
X32844500Y-65720000D03*
%TO.P,Q9,2,S*%
%TO.N,LP6*%
X32844500Y-63820000D03*
%TO.P,Q9,3,D*%
%TO.N,P6*%
X34719500Y-64770000D03*
%TD*%
D26*
%TO.P,U4,1,OE*%
%TO.N,~{ROE}*%
X86436200Y-57228000D03*
%TO.P,U4,2,D0*%
%TO.N,P0*%
X85166200Y-57228000D03*
%TO.P,U4,3,D1*%
%TO.N,P1*%
X83896200Y-57228000D03*
%TO.P,U4,4,D2*%
%TO.N,P2*%
X82626200Y-57228000D03*
%TO.P,U4,5,D3*%
%TO.N,P3*%
X81356200Y-57228000D03*
%TO.P,U4,6,D4*%
%TO.N,P4*%
X80086200Y-57228000D03*
%TO.P,U4,7,D5*%
%TO.N,P5*%
X78816200Y-57228000D03*
%TO.P,U4,8,D6*%
%TO.N,P6*%
X77546200Y-57228000D03*
%TO.P,U4,9,D7*%
%TO.N,P7*%
X76276200Y-57228000D03*
%TO.P,U4,10,GND*%
%TO.N,GND*%
X75006200Y-57228000D03*
%TO.P,U4,11,Load*%
%TO.N,AUS*%
X75006200Y-47928000D03*
%TO.P,U4,12,Q7*%
%TO.N,unconnected-(U4-Q7-Pad12)*%
X76276200Y-47928000D03*
%TO.P,U4,13,Q6*%
%TO.N,unconnected-(U4-Q6-Pad13)*%
X77546200Y-47928000D03*
%TO.P,U4,14,Q5*%
%TO.N,unconnected-(U4-Q5-Pad14)*%
X78816200Y-47928000D03*
%TO.P,U4,15,Q4*%
%TO.N,unconnected-(U4-Q4-Pad15)*%
X80086200Y-47928000D03*
%TO.P,U4,16,Q3*%
%TO.N,unconnected-(U4-Q3-Pad16)*%
X81356200Y-47928000D03*
%TO.P,U4,17,Q2*%
%TO.N,A18*%
X82626200Y-47928000D03*
%TO.P,U4,18,Q1*%
%TO.N,A17*%
X83896200Y-47928000D03*
%TO.P,U4,19,Q0*%
%TO.N,A16*%
X85166200Y-47928000D03*
%TO.P,U4,20,VCC*%
%TO.N,+5V*%
X86436200Y-47928000D03*
%TD*%
D17*
%TO.P,Q22,1,G*%
%TO.N,+3V3*%
X91361500Y-35372000D03*
%TO.P,Q22,2,S*%
%TO.N,LD7*%
X91361500Y-37272000D03*
%TO.P,Q22,3,D*%
%TO.N,D7*%
X89486500Y-36322000D03*
%TD*%
D18*
%TO.P,Q23,1,G*%
%TO.N,+3V3*%
X82882500Y-26604000D03*
%TO.P,Q23,2,S*%
%TO.N,LAUS*%
X82882500Y-24704000D03*
%TO.P,Q23,3,D*%
%TO.N,AUS*%
X84757500Y-25654000D03*
%TD*%
D27*
%TO.P,C1,1*%
%TO.N,+5V*%
X33782000Y-45042500D03*
%TO.P,C1,2*%
%TO.N,GND*%
X33782000Y-43142500D03*
%TD*%
D24*
%TO.P,RN7,1,R1.1*%
%TO.N,+3V3*%
X34769000Y-37522000D03*
D25*
%TO.P,RN7,2,R2.1*%
X34769000Y-36722000D03*
%TO.P,RN7,3,R3.1*%
X34769000Y-35922000D03*
D24*
%TO.P,RN7,4,R4.1*%
X34769000Y-35122000D03*
%TO.P,RN7,5,R4.2*%
%TO.N,LD3*%
X36569000Y-35122000D03*
D25*
%TO.P,RN7,6,R3.2*%
%TO.N,LD2*%
X36569000Y-35922000D03*
%TO.P,RN7,7,R2.2*%
%TO.N,LD1*%
X36569000Y-36722000D03*
D24*
%TO.P,RN7,8,R1.2*%
%TO.N,LD0*%
X36569000Y-37522000D03*
%TD*%
D26*
%TO.P,U3,1,OE*%
%TO.N,~{ROE}*%
X43561000Y-57228000D03*
%TO.P,U3,2,D0*%
%TO.N,P0*%
X42291000Y-57228000D03*
%TO.P,U3,3,D1*%
%TO.N,P1*%
X41021000Y-57228000D03*
%TO.P,U3,4,D2*%
%TO.N,P2*%
X39751000Y-57228000D03*
%TO.P,U3,5,D3*%
%TO.N,P3*%
X38481000Y-57228000D03*
%TO.P,U3,6,D4*%
%TO.N,P4*%
X37211000Y-57228000D03*
%TO.P,U3,7,D5*%
%TO.N,P5*%
X35941000Y-57228000D03*
%TO.P,U3,8,D6*%
%TO.N,P6*%
X34671000Y-57228000D03*
%TO.P,U3,9,D7*%
%TO.N,P7*%
X33401000Y-57228000D03*
%TO.P,U3,10,GND*%
%TO.N,GND*%
X32131000Y-57228000D03*
%TO.P,U3,11,Load*%
%TO.N,AHS*%
X32131000Y-47928000D03*
%TO.P,U3,12,Q7*%
%TO.N,A15*%
X33401000Y-47928000D03*
%TO.P,U3,13,Q6*%
%TO.N,A14*%
X34671000Y-47928000D03*
%TO.P,U3,14,Q5*%
%TO.N,A13*%
X35941000Y-47928000D03*
%TO.P,U3,15,Q4*%
%TO.N,A12*%
X37211000Y-47928000D03*
%TO.P,U3,16,Q3*%
%TO.N,A11*%
X38481000Y-47928000D03*
%TO.P,U3,17,Q2*%
%TO.N,A10*%
X39751000Y-47928000D03*
%TO.P,U3,18,Q1*%
%TO.N,A9*%
X41021000Y-47928000D03*
%TO.P,U3,19,Q0*%
%TO.N,A8*%
X42291000Y-47928000D03*
%TO.P,U3,20,VCC*%
%TO.N,+5V*%
X43561000Y-47928000D03*
%TD*%
D21*
%TO.P,C2,1*%
%TO.N,+5V*%
X47498000Y-51562000D03*
%TO.P,C2,2*%
%TO.N,GND*%
X47498000Y-53462000D03*
%TD*%
D18*
%TO.P,Q10,1,G*%
%TO.N,+3V3*%
X28018500Y-65720000D03*
%TO.P,Q10,2,S*%
%TO.N,LP7*%
X28018500Y-63820000D03*
%TO.P,Q10,3,D*%
%TO.N,P7*%
X29893500Y-64770000D03*
%TD*%
%TO.P,Q24,1,G*%
%TO.N,+3V3*%
X90865400Y-26604000D03*
%TO.P,Q24,2,S*%
%TO.N,unconnected-(Q24-S-Pad2)*%
X90865400Y-24704000D03*
%TO.P,Q24,3,D*%
%TO.N,unconnected-(Q24-D-Pad3)*%
X92740400Y-25654000D03*
%TD*%
%TO.P,Q17,1,G*%
%TO.N,+3V3*%
X66916800Y-26604000D03*
%TO.P,Q17,2,S*%
%TO.N,~{LCE}*%
X66916800Y-24704000D03*
%TO.P,Q17,3,D*%
%TO.N,~{CE}*%
X68791800Y-25654000D03*
%TD*%
D17*
%TO.P,Q13,1,G*%
%TO.N,+3V3*%
X31242000Y-35372000D03*
%TO.P,Q13,2,S*%
%TO.N,LD0*%
X31242000Y-37272000D03*
%TO.P,Q13,3,D*%
%TO.N,D0*%
X29367000Y-36322000D03*
%TD*%
D19*
%TO.P,RN8,1,R1.1*%
%TO.N,~{LCE}*%
X70101500Y-29834000D03*
D20*
%TO.P,RN8,2,R2.1*%
%TO.N,~{CE}*%
X70901500Y-29834000D03*
%TO.P,RN8,3,R3.1*%
%TO.N,~{LOE}*%
X71701500Y-29834000D03*
D19*
%TO.P,RN8,4,R4.1*%
%TO.N,~{OE}*%
X72501500Y-29834000D03*
%TO.P,RN8,5,R4.2*%
%TO.N,+5V*%
X72501500Y-31634000D03*
D20*
%TO.P,RN8,6,R3.2*%
%TO.N,+3V3*%
X71701500Y-31634000D03*
%TO.P,RN8,7,R2.2*%
%TO.N,+5V*%
X70901500Y-31634000D03*
D19*
%TO.P,RN8,8,R1.2*%
%TO.N,+3V3*%
X70101500Y-31634000D03*
%TD*%
D18*
%TO.P,Q3,1,G*%
%TO.N,+3V3*%
X75601200Y-68768000D03*
%TO.P,Q3,2,S*%
%TO.N,LP2*%
X75601200Y-66868000D03*
%TO.P,Q3,3,D*%
%TO.N,P2*%
X77476200Y-67818000D03*
%TD*%
%TO.P,Q11,1,G*%
%TO.N,+3V3*%
X50951100Y-26604000D03*
%TO.P,Q11,2,S*%
%TO.N,LAHS*%
X50951100Y-24704000D03*
%TO.P,Q11,3,D*%
%TO.N,AHS*%
X52826100Y-25654000D03*
%TD*%
D17*
%TO.P,Q16,1,G*%
%TO.N,+3V3*%
X58434500Y-35372000D03*
%TO.P,Q16,2,S*%
%TO.N,LD3*%
X58434500Y-37272000D03*
%TO.P,Q16,3,D*%
%TO.N,D3*%
X56559500Y-36322000D03*
%TD*%
D24*
%TO.P,RN12,1,R1.1*%
%TO.N,D4*%
X84159500Y-37522000D03*
D25*
%TO.P,RN12,2,R2.1*%
%TO.N,D5*%
X84159500Y-36722000D03*
%TO.P,RN12,3,R3.1*%
%TO.N,D6*%
X84159500Y-35922000D03*
D24*
%TO.P,RN12,4,R4.1*%
%TO.N,D7*%
X84159500Y-35122000D03*
%TO.P,RN12,5,R4.2*%
%TO.N,+5V*%
X85959500Y-35122000D03*
D25*
%TO.P,RN12,6,R3.2*%
X85959500Y-35922000D03*
%TO.P,RN12,7,R2.2*%
X85959500Y-36722000D03*
D24*
%TO.P,RN12,8,R1.2*%
X85959500Y-37522000D03*
%TD*%
D28*
%TO.P,R2,1*%
%TO.N,Net-(D2-K)*%
X54102000Y-73263000D03*
%TO.P,R2,2*%
%TO.N,GND*%
X54102000Y-71263000D03*
%TD*%
D18*
%TO.P,Q7,1,G*%
%TO.N,+3V3*%
X41988500Y-65720000D03*
%TO.P,Q7,2,S*%
%TO.N,LP4*%
X41988500Y-63820000D03*
%TO.P,Q7,3,D*%
%TO.N,P4*%
X43863500Y-64770000D03*
%TD*%
D26*
%TO.P,U1,1,OE*%
%TO.N,~{ROE}*%
X64998600Y-57228000D03*
%TO.P,U1,2,D0*%
%TO.N,P0*%
X63728600Y-57228000D03*
%TO.P,U1,3,D1*%
%TO.N,P1*%
X62458600Y-57228000D03*
%TO.P,U1,4,D2*%
%TO.N,P2*%
X61188600Y-57228000D03*
%TO.P,U1,5,D3*%
%TO.N,P3*%
X59918600Y-57228000D03*
%TO.P,U1,6,D4*%
%TO.N,P4*%
X58648600Y-57228000D03*
%TO.P,U1,7,D5*%
%TO.N,P5*%
X57378600Y-57228000D03*
%TO.P,U1,8,D6*%
%TO.N,P6*%
X56108600Y-57228000D03*
%TO.P,U1,9,D7*%
%TO.N,P7*%
X54838600Y-57228000D03*
%TO.P,U1,10,GND*%
%TO.N,GND*%
X53568600Y-57228000D03*
%TO.P,U1,11,Load*%
%TO.N,ALS*%
X53568600Y-47928000D03*
%TO.P,U1,12,Q7*%
%TO.N,A7*%
X54838600Y-47928000D03*
%TO.P,U1,13,Q6*%
%TO.N,A6*%
X56108600Y-47928000D03*
%TO.P,U1,14,Q5*%
%TO.N,A5*%
X57378600Y-47928000D03*
%TO.P,U1,15,Q4*%
%TO.N,A4*%
X58648600Y-47928000D03*
%TO.P,U1,16,Q3*%
%TO.N,A3*%
X59918600Y-47928000D03*
%TO.P,U1,17,Q2*%
%TO.N,A2*%
X61188600Y-47928000D03*
%TO.P,U1,18,Q1*%
%TO.N,A1*%
X62458600Y-47928000D03*
%TO.P,U1,19,Q0*%
%TO.N,A0*%
X63728600Y-47928000D03*
%TO.P,U1,20,VCC*%
%TO.N,+5V*%
X64998600Y-47928000D03*
%TD*%
D19*
%TO.P,RN11,1,R1.1*%
%TO.N,LAUS*%
X85341500Y-29834000D03*
D20*
%TO.P,RN11,2,R2.1*%
%TO.N,AUS*%
X86141500Y-29834000D03*
%TO.P,RN11,3,R3.1*%
%TO.N,unconnected-(Q24-S-Pad2)*%
X86941500Y-29834000D03*
D19*
%TO.P,RN11,4,R4.1*%
%TO.N,unconnected-(Q24-D-Pad3)*%
X87741500Y-29834000D03*
%TO.P,RN11,5,R4.2*%
%TO.N,+5V*%
X87741500Y-31634000D03*
D20*
%TO.P,RN11,6,R3.2*%
%TO.N,+3V3*%
X86941500Y-31634000D03*
%TO.P,RN11,7,R2.2*%
%TO.N,+5V*%
X86141500Y-31634000D03*
D19*
%TO.P,RN11,8,R1.2*%
%TO.N,+3V3*%
X85341500Y-31634000D03*
%TD*%
%TO.P,RN4,1,R1.1*%
%TO.N,LP4*%
X49568000Y-65554000D03*
D20*
%TO.P,RN4,2,R2.1*%
%TO.N,LP5*%
X48768000Y-65554000D03*
%TO.P,RN4,3,R3.1*%
%TO.N,LP6*%
X47968000Y-65554000D03*
D19*
%TO.P,RN4,4,R4.1*%
%TO.N,LP7*%
X47168000Y-65554000D03*
%TO.P,RN4,5,R4.2*%
%TO.N,+3V3*%
X47168000Y-63754000D03*
D20*
%TO.P,RN4,6,R3.2*%
X47968000Y-63754000D03*
%TO.P,RN4,7,R2.2*%
X48768000Y-63754000D03*
D19*
%TO.P,RN4,8,R1.2*%
X49568000Y-63754000D03*
%TD*%
D17*
%TO.P,Q20,1,G*%
%TO.N,+3V3*%
X74898000Y-35372000D03*
%TO.P,Q20,2,S*%
%TO.N,LD5*%
X74898000Y-37272000D03*
%TO.P,Q20,3,D*%
%TO.N,D5*%
X73023000Y-36322000D03*
%TD*%
D19*
%TO.P,RN3,1,R1.1*%
%TO.N,+5V*%
X88684000Y-62738000D03*
D20*
%TO.P,RN3,2,R2.1*%
X87884000Y-62738000D03*
%TO.P,RN3,3,R3.1*%
X87084000Y-62738000D03*
D19*
%TO.P,RN3,4,R4.1*%
X86284000Y-62738000D03*
%TO.P,RN3,5,R4.2*%
%TO.N,P3*%
X86284000Y-60938000D03*
D20*
%TO.P,RN3,6,R3.2*%
%TO.N,P2*%
X87084000Y-60938000D03*
%TO.P,RN3,7,R2.2*%
%TO.N,P1*%
X87884000Y-60938000D03*
D19*
%TO.P,RN3,8,R1.2*%
%TO.N,P0*%
X88684000Y-60938000D03*
%TD*%
D18*
%TO.P,Q8,1,G*%
%TO.N,+3V3*%
X37416500Y-65720000D03*
%TO.P,Q8,2,S*%
%TO.N,LP5*%
X37416500Y-63820000D03*
%TO.P,Q8,3,D*%
%TO.N,P5*%
X39291500Y-64770000D03*
%TD*%
D29*
%TO.N,+3V3*%
X94126300Y-31602500D03*
%TO.N,P0*%
X64415900Y-52867400D03*
X64131600Y-58882600D03*
X85636900Y-66128100D03*
X88584900Y-59869000D03*
X43158900Y-58901200D03*
%TO.N,LP1*%
X92256200Y-50800000D03*
%TO.N,P1*%
X45274600Y-57141000D03*
X75733400Y-54603200D03*
X65981500Y-56129800D03*
%TO.N,LP2*%
X76593000Y-66055300D03*
%TO.N,P2*%
X46275000Y-57075100D03*
X61740600Y-58770700D03*
%TO.N,LP3*%
X77011700Y-70083800D03*
%TO.N,~{ROE}*%
X66388300Y-62049200D03*
X43739100Y-61784700D03*
X87351500Y-57534700D03*
X72848800Y-63779100D03*
X39978000Y-28377900D03*
%TO.N,LALS*%
X41221500Y-26645700D03*
%TO.N,ALS*%
X42275300Y-28828300D03*
X52241100Y-47843300D03*
%TO.N,LP4*%
X68485900Y-70524300D03*
%TO.N,LP5*%
X67830400Y-71283600D03*
X37792600Y-64727900D03*
X48699700Y-66583400D03*
%TO.N,P5*%
X57296800Y-55573500D03*
X76646500Y-55221700D03*
X47725700Y-56864700D03*
%TO.N,LP6*%
X67160300Y-72028200D03*
%TO.N,P6*%
X35885000Y-63604500D03*
X53784100Y-61872600D03*
%TO.N,LP7*%
X29395000Y-63661600D03*
X46053000Y-66084400D03*
%TO.N,P7*%
X49166600Y-55396200D03*
X55099700Y-55396200D03*
%TO.N,AHS*%
X30228000Y-46660100D03*
X52311300Y-24582400D03*
%TO.N,~{PGM}*%
X57261500Y-28731900D03*
%TO.N,LD0*%
X39421200Y-37946000D03*
%TO.N,D0*%
X53402700Y-42691000D03*
%TO.N,LD1*%
X43206000Y-37845600D03*
%TO.N,D1*%
X52801000Y-40944400D03*
%TO.N,LD2*%
X49443700Y-36551800D03*
%TO.N,D2*%
X48365400Y-36322000D03*
%TO.N,LD3*%
X58839800Y-34203900D03*
%TO.N,D3*%
X58240800Y-39444800D03*
%TO.N,~{LCE}*%
X69177100Y-32678300D03*
%TO.N,~{LOE}*%
X74250100Y-27970000D03*
X100416300Y-29158700D03*
%TO.N,~{OE}*%
X73164700Y-28977000D03*
%TO.N,LD4*%
X73073300Y-34705100D03*
%TO.N,D4*%
X65899600Y-40620500D03*
%TO.N,LD5*%
X76240000Y-37273500D03*
%TO.N,D5*%
X69095500Y-43276100D03*
%TO.N,LD6*%
X80643500Y-38174800D03*
%TO.N,LD7*%
X71314800Y-35029600D03*
%TO.N,GND*%
X88568200Y-53777500D03*
X55753000Y-70739000D03*
X59436000Y-65024000D03*
%TO.N,A2*%
X59965600Y-52862100D03*
%TO.N,A1*%
X62612400Y-52844000D03*
%TO.N,A0*%
X63601000Y-52094300D03*
%TO.N,A18*%
X71132900Y-49357200D03*
%TO.N,A16*%
X66746500Y-50106200D03*
%TO.N,A15*%
X36365700Y-52684800D03*
%TO.N,A12*%
X36636300Y-49447500D03*
%TO.N,A10*%
X40975700Y-49618300D03*
%TO.N,A11*%
X39627000Y-49562300D03*
%TO.N,A17*%
X66506600Y-47241700D03*
%TO.N,Net-(D3-K)*%
X64389000Y-66384000D03*
%TO.N,+5V*%
X79052600Y-43818800D03*
X70706900Y-33128600D03*
X79302300Y-51844700D03*
X78005300Y-62323900D03*
X93387100Y-26764600D03*
%TD*%
D30*
%TO.N,+3V3*%
X49568000Y-63754000D02*
X48768000Y-63754000D01*
X33923500Y-63478800D02*
X33589100Y-63144400D01*
X73000200Y-30908700D02*
X77838200Y-26070700D01*
X34406400Y-36722000D02*
X34043700Y-37084700D01*
X85341500Y-31634000D02*
X85341500Y-30908700D01*
X77838200Y-25275900D02*
X77573300Y-25011000D01*
X46468000Y-64116600D02*
X47168000Y-64116600D01*
X35935300Y-68316300D02*
X35935300Y-70243800D01*
X57320200Y-30908700D02*
X56461500Y-30908700D01*
X71788400Y-68093400D02*
X71113800Y-68768000D01*
X44060500Y-25024200D02*
X45705900Y-25024200D01*
X84390800Y-68953000D02*
X84575800Y-68768000D01*
X82349200Y-26070700D02*
X77838200Y-26070700D01*
X79940000Y-72506000D02*
X79140000Y-72506000D01*
X77765100Y-71555600D02*
X77540000Y-71780700D01*
X71701500Y-31634000D02*
X71701500Y-30908700D01*
X77540000Y-72506000D02*
X77540000Y-71780700D01*
X41221500Y-31634000D02*
X41221500Y-30908700D01*
X78340000Y-72868600D02*
X77902600Y-72868600D01*
X34769000Y-35122000D02*
X35494300Y-35122000D01*
X70101500Y-30908700D02*
X70047800Y-30908700D01*
X26475200Y-64353700D02*
X26475200Y-37784000D01*
X32106300Y-63144400D02*
X31279700Y-63971000D01*
X37696100Y-32829500D02*
X37696100Y-29314700D01*
X32844500Y-65720000D02*
X33626500Y-65720000D01*
X34769000Y-35122000D02*
X34043700Y-35122000D01*
X75601200Y-68768000D02*
X75801600Y-68968400D01*
X67696000Y-35122000D02*
X69414400Y-33403600D01*
X28887200Y-35372000D02*
X31242000Y-35372000D01*
X71701500Y-30908700D02*
X70101500Y-30908700D01*
X59977600Y-37152000D02*
X59184300Y-37945300D01*
X54826100Y-30914800D02*
X54861500Y-30914800D01*
X35935300Y-70243800D02*
X32542300Y-70243800D01*
X66970700Y-35817600D02*
X66970700Y-35372000D01*
X36811500Y-71120000D02*
X36862000Y-71120000D01*
X93562400Y-24989600D02*
X94126300Y-25553500D01*
X46387600Y-26604000D02*
X42082900Y-30908700D01*
X70101500Y-31634000D02*
X70101500Y-32359300D01*
X66970700Y-35372000D02*
X66970700Y-35122000D01*
X85341500Y-30908700D02*
X86941500Y-30908700D01*
X76005200Y-25011000D02*
X76005200Y-24312800D01*
X70101500Y-31271300D02*
X70101500Y-31634000D01*
X62691100Y-26604000D02*
X58933900Y-26604000D01*
X34769000Y-37522000D02*
X34043700Y-37522000D01*
X57337000Y-36957000D02*
X58434500Y-35859500D01*
X70047800Y-30908700D02*
X66916800Y-27777700D01*
X47968000Y-64116600D02*
X47168000Y-64116600D01*
X77838200Y-26070700D02*
X77838200Y-25275900D01*
X35494300Y-35031300D02*
X35494300Y-35122000D01*
X37954900Y-70027100D02*
X40315700Y-70027100D01*
X33626500Y-65720000D02*
X33626500Y-64448600D01*
X54861500Y-31634000D02*
X54861500Y-30914800D01*
X31279700Y-63971000D02*
X31279700Y-66256800D01*
X47968000Y-63754000D02*
X47968000Y-63935300D01*
X80632500Y-35372000D02*
X74898000Y-35372000D01*
X32542300Y-70243800D02*
X28018500Y-65720000D01*
X41221500Y-30908700D02*
X39621500Y-30908700D01*
X42968200Y-26116500D02*
X44060500Y-25024200D01*
X91990400Y-24989600D02*
X93562400Y-24989600D01*
X45705900Y-25024200D02*
X46387600Y-25705900D01*
X33626500Y-64448600D02*
X33923500Y-64151600D01*
X34769000Y-35922000D02*
X34406400Y-35922000D01*
X39621500Y-31634000D02*
X39621500Y-32359300D01*
X70101500Y-32359300D02*
X69902400Y-32558400D01*
X82882500Y-28521700D02*
X85269500Y-30908700D01*
X58933900Y-26604000D02*
X58933900Y-29295000D01*
X65681900Y-23613200D02*
X62691100Y-26604000D01*
X50951100Y-27039800D02*
X54826100Y-30914800D01*
X67333400Y-35922000D02*
X67075100Y-35922000D01*
X77765100Y-69635400D02*
X77765100Y-71555600D01*
X34406400Y-35922000D02*
X34406400Y-36722000D01*
X39621500Y-32829500D02*
X58496700Y-32829500D01*
X46387600Y-25705900D02*
X46387600Y-26604000D01*
X35935300Y-70243800D02*
X36811500Y-71120000D01*
X37696100Y-29314700D02*
X34985400Y-26604000D01*
X69414400Y-33403600D02*
X69760000Y-33403600D01*
X73379900Y-33853900D02*
X74898000Y-35372000D01*
X47168000Y-63754000D02*
X47168000Y-64116600D01*
X59184300Y-37945300D02*
X57669300Y-37945300D01*
X34043700Y-35122000D02*
X34043700Y-35372000D01*
X26475200Y-37784000D02*
X28887200Y-35372000D01*
X48375900Y-64479300D02*
X48768000Y-64479300D01*
X90865400Y-26604000D02*
X90865400Y-26114600D01*
X85269500Y-30908700D02*
X85341500Y-30908700D01*
X67696000Y-36722000D02*
X67333400Y-36722000D01*
X81959400Y-34045100D02*
X91361500Y-34045100D01*
X75305600Y-23613200D02*
X65681900Y-23613200D01*
X72463000Y-68768000D02*
X75601200Y-68768000D01*
X58434500Y-35372000D02*
X57125200Y-34062700D01*
X78340000Y-72506000D02*
X78340000Y-72868600D01*
X91361500Y-34045100D02*
X91361500Y-35372000D01*
X67696000Y-35922000D02*
X67333400Y-35922000D01*
X57337000Y-37613000D02*
X57337000Y-36957000D01*
X57125200Y-34062700D02*
X49014800Y-34062700D01*
X90865400Y-26114600D02*
X91990400Y-24989600D01*
X39621500Y-32829500D02*
X39621500Y-32359300D01*
X77098100Y-68968400D02*
X77765100Y-69635400D01*
X34043700Y-35559300D02*
X34406400Y-35922000D01*
X72211300Y-66527000D02*
X72211300Y-67183000D01*
X67696000Y-35122000D02*
X66970700Y-35122000D01*
X74899700Y-26116500D02*
X74899700Y-26604000D01*
X76005200Y-25011000D02*
X74899700Y-26116500D01*
X78340000Y-72868600D02*
X78340000Y-73231300D01*
X77902600Y-72868600D02*
X77540000Y-72506000D01*
X69902400Y-32558400D02*
X69902400Y-33261200D01*
X36862000Y-71120000D02*
X37954900Y-70027100D01*
X71788400Y-68093400D02*
X72463000Y-68768000D01*
X67484200Y-72781000D02*
X69265900Y-70999300D01*
X80088500Y-68768000D02*
X80273500Y-68953000D01*
X67075100Y-35922000D02*
X66970700Y-35817600D01*
X58933900Y-29295000D02*
X57320200Y-30908700D01*
X69265900Y-67300300D02*
X70368100Y-66198100D01*
X33589100Y-63144400D02*
X32106300Y-63144400D01*
X47968000Y-63935300D02*
X47968000Y-64116600D01*
X66970700Y-35372000D02*
X64169000Y-35372000D01*
X71701500Y-30908700D02*
X73000200Y-30908700D01*
X46387600Y-26604000D02*
X50951100Y-26604000D01*
X70406500Y-33853900D02*
X73379900Y-33853900D01*
X33923500Y-64151600D02*
X33923500Y-63478800D01*
X94126300Y-25553500D02*
X94126300Y-31602500D01*
X80273500Y-68953000D02*
X84390800Y-68953000D01*
X82882500Y-26604000D02*
X82349200Y-26070700D01*
X79140000Y-72506000D02*
X79140000Y-73231300D01*
X91683700Y-34045100D02*
X91361500Y-34045100D01*
X66916800Y-27777700D02*
X66916800Y-26604000D01*
X66244600Y-72781000D02*
X67484200Y-72781000D01*
X56461500Y-31634000D02*
X56461500Y-30908700D01*
X58496700Y-32829500D02*
X59977600Y-34310400D01*
X47968000Y-63935300D02*
X47968000Y-64071400D01*
X44864600Y-65720000D02*
X46468000Y-64116600D01*
X32337100Y-67314200D02*
X34933200Y-67314200D01*
X77765100Y-69635400D02*
X79221100Y-69635400D01*
X72211300Y-67183000D02*
X71788400Y-67605900D01*
X70101500Y-31271300D02*
X70101500Y-30908700D01*
X67333400Y-36722000D02*
X66970700Y-37084700D01*
X48768000Y-63754000D02*
X48768000Y-64479300D01*
X54861500Y-30914800D02*
X54867600Y-30908700D01*
X58434500Y-35859500D02*
X58434500Y-35372000D01*
X77573300Y-25011000D02*
X76005200Y-25011000D01*
X41971000Y-35372000D02*
X47705500Y-35372000D01*
X40315700Y-70027100D02*
X40500800Y-70212200D01*
X34933200Y-67314200D02*
X35935300Y-68316300D01*
X94126300Y-31602500D02*
X91683700Y-34045100D01*
X59977600Y-34310400D02*
X59977600Y-37152000D01*
X42082900Y-30908700D02*
X41221500Y-30908700D01*
X34769000Y-36722000D02*
X34406400Y-36722000D01*
X34043700Y-37084700D02*
X34043700Y-37522000D01*
X67333400Y-35922000D02*
X67333400Y-36722000D01*
X39621500Y-32829500D02*
X37696100Y-32829500D01*
X86941500Y-31634000D02*
X86941500Y-30908700D01*
X42450600Y-69865400D02*
X63329000Y-69865400D01*
X79221100Y-69635400D02*
X80088500Y-68768000D01*
X37416500Y-65720000D02*
X41988500Y-65720000D01*
X50951100Y-26604000D02*
X50951100Y-27039800D01*
X71882400Y-66198100D02*
X72211300Y-66527000D01*
X63329000Y-69865400D02*
X66244600Y-72781000D01*
X31279700Y-66256800D02*
X32337100Y-67314200D01*
X80632500Y-35372000D02*
X81959400Y-34045100D01*
X82882500Y-26604000D02*
X82882500Y-28521700D01*
X76005200Y-24312800D02*
X75305600Y-23613200D01*
X71788400Y-67605900D02*
X71788400Y-68093400D01*
X70368100Y-66198100D02*
X71882400Y-66198100D01*
X39621500Y-31634000D02*
X39621500Y-30908700D01*
X27841500Y-65720000D02*
X26475200Y-64353700D01*
X41988500Y-65720000D02*
X44864600Y-65720000D01*
X42103800Y-70212200D02*
X42450600Y-69865400D01*
X69760000Y-33403600D02*
X69858100Y-33305500D01*
X67696000Y-37522000D02*
X66970700Y-37522000D01*
X47968000Y-64071400D02*
X48375900Y-64479300D01*
X75801600Y-68968400D02*
X77098100Y-68968400D01*
X31242000Y-35372000D02*
X34043700Y-35372000D01*
X69858100Y-33305500D02*
X70406500Y-33853900D01*
X33626500Y-65720000D02*
X37416500Y-65720000D01*
X69265900Y-70999300D02*
X69265900Y-67300300D01*
X54867600Y-30908700D02*
X56461500Y-30908700D01*
X37696100Y-32829500D02*
X35494300Y-35031300D01*
X66970700Y-37084700D02*
X66970700Y-37522000D01*
X79140000Y-73231300D02*
X78340000Y-73231300D01*
X69902400Y-33261200D02*
X69858100Y-33305500D01*
X28018500Y-65720000D02*
X27841500Y-65720000D01*
X42968200Y-26604000D02*
X42968200Y-26116500D01*
X40500800Y-70212200D02*
X42103800Y-70212200D01*
X49014800Y-34062700D02*
X47705500Y-35372000D01*
X34043700Y-35372000D02*
X34043700Y-35559300D01*
X57669300Y-37945300D02*
X57337000Y-37613000D01*
%TO.N,LP0*%
X79940000Y-73580700D02*
X81178900Y-73580700D01*
X81178900Y-73580700D02*
X85649700Y-69109900D01*
X85649700Y-69109900D02*
X85649700Y-68429400D01*
X95353100Y-57851800D02*
X95353100Y-52774900D01*
X84575800Y-67355500D02*
X84575800Y-66868000D01*
X99060000Y-48260000D02*
X99060000Y-49435300D01*
X84575800Y-66163200D02*
X85648700Y-65090300D01*
X88114600Y-65090300D02*
X95353100Y-57851800D01*
X79940000Y-74306000D02*
X79940000Y-73580700D01*
X98692700Y-49435300D02*
X99060000Y-49435300D01*
X85648700Y-65090300D02*
X88114600Y-65090300D01*
X84575800Y-66868000D02*
X84575800Y-66163200D01*
X85649700Y-68429400D02*
X84575800Y-67355500D01*
X95353100Y-52774900D02*
X98692700Y-49435300D01*
%TO.N,P0*%
X85166200Y-57228000D02*
X85166200Y-57726100D01*
X85166200Y-57726100D02*
X86048400Y-58608300D01*
X63728600Y-57228000D02*
X63728600Y-58479600D01*
X43158900Y-58901200D02*
X42291000Y-58033300D01*
X85636900Y-66128100D02*
X86450800Y-66942000D01*
X90598500Y-52649800D02*
X64633500Y-52649800D01*
X88684000Y-59968100D02*
X88684000Y-60212700D01*
X42291000Y-58033300D02*
X42291000Y-57228000D01*
X86450800Y-66942000D02*
X86450800Y-67818000D01*
X87324200Y-58608300D02*
X90970900Y-54961600D01*
X63728600Y-58479600D02*
X64131600Y-58882600D01*
X90970900Y-53022200D02*
X90598500Y-52649800D01*
X86048400Y-58608300D02*
X87324200Y-58608300D01*
X87324200Y-58608300D02*
X88584900Y-59869000D01*
X88684000Y-60938000D02*
X88684000Y-60212700D01*
X64633500Y-52649800D02*
X64415900Y-52867400D01*
X90970900Y-54961600D02*
X90970900Y-53022200D01*
X88584900Y-59869000D02*
X88684000Y-59968100D01*
%TO.N,LP1*%
X92256200Y-60275900D02*
X92256200Y-50800000D01*
X80672700Y-75031300D02*
X79140000Y-75031300D01*
X81219500Y-68486500D02*
X82731300Y-68486500D01*
X95998200Y-53861800D02*
X95998200Y-59705800D01*
X83026900Y-68190900D02*
X83026900Y-66952600D01*
X79140000Y-74306000D02*
X79140000Y-75031300D01*
X88618500Y-63913600D02*
X92256200Y-60275900D01*
X83026900Y-66952600D02*
X86065900Y-63913600D01*
X80088500Y-66868000D02*
X80088500Y-67355500D01*
X99060000Y-50800000D02*
X95998200Y-53861800D01*
X95998200Y-59705800D02*
X80672700Y-75031300D01*
X82731300Y-68486500D02*
X83026900Y-68190900D01*
X80088500Y-67355500D02*
X81219500Y-68486500D01*
X86065900Y-63913600D02*
X88618500Y-63913600D01*
%TO.N,P1*%
X41939500Y-55852000D02*
X43921300Y-55852000D01*
X63376000Y-55854900D02*
X62458600Y-56772300D01*
X45210300Y-57141000D02*
X45274600Y-57141000D01*
X83896200Y-56775300D02*
X81606900Y-54486000D01*
X81963500Y-65941500D02*
X81963500Y-67818000D01*
X41021000Y-56770500D02*
X41939500Y-55852000D01*
X65981500Y-56129800D02*
X65706600Y-55854900D01*
X87884000Y-61663300D02*
X86241700Y-61663300D01*
X86910900Y-59239600D02*
X85478100Y-59239600D01*
X75850600Y-54486000D02*
X75733400Y-54603200D01*
X41021000Y-57228000D02*
X41021000Y-56770500D01*
X87884000Y-60575300D02*
X87884000Y-60212700D01*
X85478100Y-59239600D02*
X83896200Y-57657700D01*
X87884000Y-60212700D02*
X86910900Y-59239600D01*
X65706600Y-55854900D02*
X63376000Y-55854900D01*
X62458600Y-56772300D02*
X62458600Y-57228000D01*
X83896200Y-57657700D02*
X83896200Y-57228000D01*
X83896200Y-57228000D02*
X83896200Y-56775300D01*
X43921300Y-55852000D02*
X45210300Y-57141000D01*
X87884000Y-60938000D02*
X87884000Y-61663300D01*
X87884000Y-60575300D02*
X87884000Y-60938000D01*
X81606900Y-54486000D02*
X75850600Y-54486000D01*
X86241700Y-61663300D02*
X81963500Y-65941500D01*
%TO.N,LP2*%
X75780300Y-66868000D02*
X76593000Y-66055300D01*
X78795700Y-75487000D02*
X78340000Y-75031300D01*
X97884700Y-57863200D02*
X97884700Y-58496000D01*
X75601200Y-66868000D02*
X75780300Y-66868000D01*
X98692600Y-57055300D02*
X97884700Y-57863200D01*
X99060000Y-57055300D02*
X98692600Y-57055300D01*
X99060000Y-55880000D02*
X99060000Y-57055300D01*
X80893700Y-75487000D02*
X78795700Y-75487000D01*
X97884700Y-58496000D02*
X80893700Y-75487000D01*
X78340000Y-74306000D02*
X78340000Y-75031300D01*
%TO.N,P2*%
X82371300Y-60456500D02*
X82371300Y-63501200D01*
X67597400Y-64504600D02*
X63890000Y-60797200D01*
X87084000Y-60212700D02*
X85119800Y-60212700D01*
X81009900Y-55867700D02*
X80721200Y-56156400D01*
X44546100Y-55796500D02*
X44126300Y-55376700D01*
X81754600Y-55867700D02*
X81009900Y-55867700D01*
X46275000Y-57075100D02*
X44996400Y-55796500D01*
X77476200Y-67818000D02*
X77476200Y-65912700D01*
X41119400Y-55376700D02*
X39751000Y-56745100D01*
X85119800Y-60212700D02*
X82626200Y-57719100D01*
X82626200Y-56739300D02*
X81754600Y-55867700D01*
X82626200Y-57228000D02*
X82626200Y-56739300D01*
X87084000Y-60938000D02*
X87084000Y-60212700D01*
X80410100Y-65462400D02*
X77926500Y-65462400D01*
X63890000Y-59705400D02*
X62955300Y-58770700D01*
X82371300Y-63501200D02*
X80410100Y-65462400D01*
X61188600Y-58218700D02*
X61740600Y-58770700D01*
X77926500Y-65462400D02*
X77476200Y-65912700D01*
X44126300Y-55376700D02*
X41119400Y-55376700D01*
X82626200Y-57719100D02*
X82626200Y-57228000D01*
X76068100Y-64504600D02*
X67597400Y-64504600D01*
X39751000Y-56745100D02*
X39751000Y-57228000D01*
X80721200Y-56156400D02*
X80721200Y-58806400D01*
X44996400Y-55796500D02*
X44546100Y-55796500D01*
X62955300Y-58770700D02*
X61740600Y-58770700D01*
X61188600Y-57228000D02*
X61188600Y-58218700D01*
X63890000Y-60797200D02*
X63890000Y-59705400D01*
X77476200Y-65912700D02*
X76068100Y-64504600D01*
X80721200Y-58806400D02*
X82371300Y-60456500D01*
%TO.N,LP3*%
X76948900Y-70146600D02*
X77011700Y-70083800D01*
X71015100Y-70146600D02*
X69999000Y-69130500D01*
X69999000Y-67982800D02*
X71113800Y-66868000D01*
X76948900Y-73061600D02*
X76948900Y-70146600D01*
X77540000Y-73580700D02*
X77468000Y-73580700D01*
X77468000Y-73580700D02*
X76948900Y-73061600D01*
X77540000Y-74306000D02*
X77540000Y-73580700D01*
X69999000Y-69130500D02*
X69999000Y-67982800D01*
X76948900Y-70146600D02*
X71015100Y-70146600D01*
%TO.N,P3*%
X39560500Y-58743100D02*
X38481000Y-57663600D01*
X61171100Y-63592400D02*
X62533600Y-64954900D01*
X80613100Y-65912700D02*
X84105700Y-62420100D01*
X61171100Y-59493200D02*
X61171100Y-63592400D01*
X59918600Y-57228000D02*
X59918600Y-58240700D01*
X81356200Y-58188500D02*
X81356200Y-57228000D01*
X51136100Y-62563100D02*
X42774900Y-62563100D01*
X78283700Y-68446600D02*
X78877200Y-67853100D01*
X52165400Y-63592400D02*
X51136100Y-62563100D01*
X84105700Y-60938000D02*
X81356200Y-58188500D01*
X38481000Y-57663600D02*
X38481000Y-57228000D01*
X61171100Y-63592400D02*
X52165400Y-63592400D01*
X40866000Y-60654200D02*
X40866000Y-59567700D01*
X72988800Y-67818000D02*
X76065600Y-67818000D01*
X76694200Y-68446600D02*
X78283700Y-68446600D01*
X40866000Y-59567700D02*
X40041400Y-58743100D01*
X62533900Y-64954600D02*
X72574600Y-64954600D01*
X86284000Y-60938000D02*
X84105700Y-60938000D01*
X40041400Y-58743100D02*
X39560500Y-58743100D01*
X59918600Y-58240700D02*
X61171100Y-59493200D01*
X84105700Y-62420100D02*
X84105700Y-60938000D01*
X72574600Y-64954600D02*
X72988800Y-65368800D01*
X72988800Y-65368800D02*
X72988800Y-67818000D01*
X78877200Y-67853100D02*
X78877200Y-66668200D01*
X78877200Y-66668200D02*
X79632700Y-65912700D01*
X42774900Y-62563100D02*
X40866000Y-60654200D01*
X79632700Y-65912700D02*
X80613100Y-65912700D01*
X62533600Y-64954900D02*
X62533900Y-64954600D01*
X76065600Y-67818000D02*
X76694200Y-68446600D01*
%TO.N,~{LROE}*%
X50479300Y-22250500D02*
X94008000Y-22250500D01*
X48651800Y-24078000D02*
X50479300Y-22250500D01*
X36160700Y-24078000D02*
X48651800Y-24078000D01*
X117790200Y-26764700D02*
X117824800Y-26764700D01*
X118465700Y-27405600D02*
X118465700Y-35464700D01*
X35260100Y-24978600D02*
X36160700Y-24078000D01*
X118465700Y-35464700D02*
X118921300Y-35920300D01*
X94008000Y-22250500D02*
X94086800Y-22329300D01*
X100235400Y-24130000D02*
X103250401Y-27145001D01*
X35260000Y-24978700D02*
X35260100Y-24978600D01*
X94964200Y-22329300D02*
X96670300Y-24035400D01*
X118921300Y-68230700D02*
X117207300Y-69944700D01*
X116840000Y-71120000D02*
X116840000Y-69944700D01*
X118921300Y-35920300D02*
X118921300Y-68230700D01*
X117207300Y-69944700D02*
X116840000Y-69944700D01*
X115413799Y-27145001D02*
X115983400Y-26575400D01*
X35260100Y-24978600D02*
X34985400Y-24704000D01*
X103250401Y-27145001D02*
X115413799Y-27145001D01*
X94086800Y-22329300D02*
X94964200Y-22329300D01*
X117008300Y-26764600D02*
X117790100Y-26764600D01*
X39621500Y-29834000D02*
X39621500Y-29108700D01*
X39621500Y-29108700D02*
X38902800Y-29108700D01*
X38902800Y-29108700D02*
X35260000Y-25465900D01*
X98335200Y-24035400D02*
X98429800Y-24130000D01*
X115983400Y-26575400D02*
X116819100Y-26575400D01*
X35260000Y-25465900D02*
X35260000Y-24978700D01*
X96670300Y-24035400D02*
X98335200Y-24035400D01*
X98429800Y-24130000D02*
X100235400Y-24130000D01*
X116819100Y-26575400D02*
X117008300Y-26764600D01*
X117790100Y-26764600D02*
X117790200Y-26764700D01*
X117824800Y-26764700D02*
X118465700Y-27405600D01*
%TO.N,~{ROE}*%
X86742800Y-57534600D02*
X87351500Y-57534600D01*
X72848800Y-63779100D02*
X68118200Y-63779100D01*
X64998600Y-57228000D02*
X66388300Y-58617700D01*
X39483800Y-28171000D02*
X39377400Y-28171000D01*
X87351500Y-57534600D02*
X87351500Y-57534700D01*
X40421500Y-29108700D02*
X39834400Y-28521500D01*
X43884200Y-59201700D02*
X43884200Y-57551200D01*
X43739100Y-59346800D02*
X43884200Y-59201700D01*
X43884200Y-57551200D02*
X43561000Y-57228000D01*
X68118200Y-63779100D02*
X66388300Y-62049200D01*
X39834400Y-28521500D02*
X39483800Y-28171000D01*
X39978000Y-28377900D02*
X39834400Y-28521500D01*
X43739100Y-61784700D02*
X43739100Y-59346800D01*
X40421500Y-29834000D02*
X40421500Y-29108700D01*
X86436200Y-57228000D02*
X86742800Y-57534600D01*
X39377400Y-28171000D02*
X36860400Y-25654000D01*
X66388300Y-58617700D02*
X66388300Y-62049200D01*
%TO.N,LALS*%
X41221500Y-29108700D02*
X41221500Y-26645700D01*
X41221500Y-26645700D02*
X41221500Y-26450700D01*
X41221500Y-29834000D02*
X41221500Y-29108700D01*
X41221500Y-26450700D02*
X42968200Y-24704000D01*
%TO.N,ALS*%
X42275300Y-28828300D02*
X44843200Y-26260400D01*
X42021500Y-29082100D02*
X42275300Y-28828300D01*
X53568600Y-47928000D02*
X52325800Y-47928000D01*
X52325800Y-47928000D02*
X52241100Y-47843300D01*
X42021500Y-29834000D02*
X42021500Y-29082100D01*
X44843200Y-26260400D02*
X44843200Y-25654000D01*
%TO.N,LP4*%
X49640000Y-64828700D02*
X50143300Y-64325400D01*
X49999400Y-66279300D02*
X50180700Y-66098000D01*
X49568000Y-66279300D02*
X49999400Y-66279300D01*
X67368700Y-70524300D02*
X68485900Y-70524300D01*
X49568000Y-65554000D02*
X49568000Y-65916600D01*
X50143300Y-63166800D02*
X50005100Y-63028600D01*
X42779900Y-63028600D02*
X41988500Y-63820000D01*
X49568000Y-65916600D02*
X49568000Y-66279300D01*
X49568000Y-64828700D02*
X49640000Y-64828700D01*
X50180700Y-66098000D02*
X62942400Y-66098000D01*
X49568000Y-65554000D02*
X49568000Y-64828700D01*
X50005100Y-63028600D02*
X42779900Y-63028600D01*
X62942400Y-66098000D02*
X67368700Y-70524300D01*
X50143300Y-64325400D02*
X50143300Y-63166800D01*
%TO.N,P4*%
X43863500Y-64770000D02*
X41522300Y-64770000D01*
X60003900Y-55404400D02*
X58648600Y-56759700D01*
X37211000Y-57665200D02*
X37211000Y-57228000D01*
X73567200Y-63471700D02*
X73149300Y-63053800D01*
X81893300Y-62166600D02*
X81893300Y-63316300D01*
X46292000Y-58083900D02*
X47000300Y-57375600D01*
X37211000Y-56734900D02*
X37211000Y-57228000D01*
X39049900Y-54896000D02*
X37211000Y-56734900D01*
X41522300Y-64770000D02*
X38330700Y-61578400D01*
X44732700Y-55346200D02*
X44282500Y-54896000D01*
X66337800Y-55404400D02*
X60003900Y-55404400D01*
X58648600Y-60976000D02*
X56520300Y-63104300D01*
X38330700Y-61578400D02*
X38330700Y-58784900D01*
X56520300Y-63104300D02*
X52421800Y-63104300D01*
X81390000Y-61663300D02*
X81893300Y-62166600D01*
X81737900Y-63471700D02*
X73567200Y-63471700D01*
X47000300Y-57375600D02*
X47000300Y-56774600D01*
X45571900Y-55346200D02*
X44732700Y-55346200D01*
X58648600Y-57228000D02*
X58648600Y-60976000D01*
X71268300Y-63053800D02*
X68745400Y-60530900D01*
X81318000Y-61663300D02*
X81390000Y-61663300D01*
X81318000Y-60938000D02*
X81318000Y-61663300D01*
X81893300Y-63316300D02*
X81737900Y-63471700D01*
X73149300Y-63053800D02*
X71268300Y-63053800D01*
X68745400Y-57812000D02*
X66337800Y-55404400D01*
X38330700Y-58784900D02*
X37211000Y-57665200D01*
X58648600Y-56759700D02*
X58648600Y-57228000D01*
X68745400Y-60530900D02*
X68745400Y-57812000D01*
X81318000Y-60938000D02*
X81318000Y-60212700D01*
X80086200Y-58980900D02*
X80086200Y-57228000D01*
X44282500Y-54896000D02*
X39049900Y-54896000D01*
X52421800Y-63104300D02*
X50914900Y-61597400D01*
X81318000Y-60212700D02*
X80086200Y-58980900D01*
X46951400Y-61597400D02*
X46292000Y-60938000D01*
X50914900Y-61597400D02*
X46951400Y-61597400D01*
X47000300Y-56774600D02*
X45571900Y-55346200D01*
X46292000Y-60938000D02*
X46292000Y-58083900D01*
%TO.N,LP5*%
X67830400Y-71283500D02*
X67830400Y-71283600D01*
X48768000Y-65554000D02*
X48768000Y-66515100D01*
X48768000Y-66515100D02*
X48699700Y-66583400D01*
X67491000Y-71283500D02*
X67830400Y-71283500D01*
X64642900Y-68435400D02*
X67491000Y-71283500D01*
X37416500Y-64351800D02*
X37792600Y-64727900D01*
X48768000Y-66515100D02*
X50688300Y-68435400D01*
X37416500Y-63820000D02*
X37416500Y-64351800D01*
X50688300Y-68435400D02*
X64642900Y-68435400D01*
%TO.N,P5*%
X77246900Y-55221700D02*
X76646500Y-55221700D01*
X39291500Y-64770000D02*
X39291500Y-64241300D01*
X38262900Y-54445600D02*
X35941000Y-56767500D01*
X44469000Y-54445600D02*
X38262900Y-54445600D01*
X47725700Y-56863100D02*
X45758500Y-54895900D01*
X35941000Y-61134100D02*
X35941000Y-57228000D01*
X57378600Y-55655300D02*
X57296800Y-55573500D01*
X38237600Y-63187400D02*
X37994300Y-63187400D01*
X78816200Y-57228000D02*
X78816200Y-58510900D01*
X78816200Y-58510900D02*
X80518000Y-60212700D01*
X78816200Y-56791000D02*
X77246900Y-55221700D01*
X35941000Y-56767500D02*
X35941000Y-57228000D01*
X45758500Y-54895900D02*
X44919300Y-54895900D01*
X47725700Y-56864700D02*
X47725700Y-56863100D01*
X57378600Y-57228000D02*
X57378600Y-55655300D01*
X39291500Y-64241300D02*
X38237600Y-63187400D01*
X78816200Y-57228000D02*
X78816200Y-56791000D01*
X37994300Y-63187400D02*
X35941000Y-61134100D01*
X44919300Y-54895900D02*
X44469000Y-54445600D01*
X80518000Y-60938000D02*
X80518000Y-60212700D01*
%TO.N,LP6*%
X64142900Y-69010800D02*
X67160300Y-72028200D01*
X32844500Y-63820000D02*
X31734100Y-64930400D01*
X31734100Y-64930400D02*
X31734100Y-66039600D01*
X32529900Y-66835400D02*
X47968000Y-66835400D01*
X47968000Y-66835400D02*
X47968000Y-66279300D01*
X47968000Y-65554000D02*
X47968000Y-66279300D01*
X50064000Y-69010800D02*
X64142900Y-69010800D01*
X47968000Y-66835400D02*
X47968000Y-66914800D01*
X31734100Y-66039600D02*
X32529900Y-66835400D01*
X47968000Y-66914800D02*
X50064000Y-69010800D01*
%TO.N,P6*%
X66721900Y-54888900D02*
X59244500Y-54888900D01*
X56108600Y-58648000D02*
X56108600Y-60889100D01*
X79718000Y-60938000D02*
X79718000Y-60212700D01*
X34671000Y-57228000D02*
X34671000Y-62390500D01*
X56108600Y-60889100D02*
X55125100Y-61872600D01*
X78296100Y-61588900D02*
X76987300Y-61588900D01*
X79718000Y-61663300D02*
X78370500Y-61663300D01*
X35885000Y-63604500D02*
X34719500Y-64770000D01*
X76987300Y-61588900D02*
X76561200Y-62015000D01*
X58013600Y-56119800D02*
X58013600Y-58308800D01*
X71510000Y-60739300D02*
X71510000Y-59677000D01*
X34671000Y-62390500D02*
X35885000Y-63604500D01*
X77546200Y-57228000D02*
X77546200Y-58040900D01*
X76561200Y-62015000D02*
X72785700Y-62015000D01*
X56108600Y-58648000D02*
X56108600Y-57228000D01*
X71510000Y-59677000D02*
X66721900Y-54888900D01*
X55125100Y-61872600D02*
X53784100Y-61872600D01*
X78370500Y-61663300D02*
X78296100Y-61588900D01*
X72785700Y-62015000D02*
X71510000Y-60739300D01*
X58013600Y-58308800D02*
X57674400Y-58648000D01*
X57674400Y-58648000D02*
X56108600Y-58648000D01*
X59244500Y-54888900D02*
X58013600Y-56119800D01*
X77546200Y-58040900D02*
X79718000Y-60212700D01*
X79718000Y-60938000D02*
X79718000Y-61663300D01*
%TO.N,LP7*%
X28176900Y-63661600D02*
X29395000Y-63661600D01*
X47168000Y-66279300D02*
X46247900Y-66279300D01*
X47168000Y-65554000D02*
X47168000Y-66279300D01*
X46247900Y-66279300D02*
X46053000Y-66084400D01*
X28018500Y-63820000D02*
X28176900Y-63661600D01*
%TO.N,P7*%
X48083900Y-54313500D02*
X45292100Y-54313500D01*
X36128800Y-53995200D02*
X33401000Y-56723000D01*
X49166600Y-55396200D02*
X48083900Y-54313500D01*
X76692500Y-57644300D02*
X76692500Y-60938000D01*
X76692500Y-60938000D02*
X78918000Y-60938000D01*
X33401000Y-60806200D02*
X29893500Y-64313700D01*
X54838600Y-55657300D02*
X55099700Y-55396200D01*
X44973800Y-53995200D02*
X36128800Y-53995200D01*
X76276200Y-57228000D02*
X76692500Y-57644300D01*
X74864000Y-61564700D02*
X74171000Y-60871700D01*
X74171000Y-60871700D02*
X74171000Y-59865100D01*
X76692500Y-60938000D02*
X76065800Y-61564700D01*
X74171000Y-59865100D02*
X68726300Y-54420400D01*
X76065800Y-61564700D02*
X74864000Y-61564700D01*
X56075500Y-54420400D02*
X55099700Y-55396200D01*
X45292100Y-54313500D02*
X44973800Y-53995200D01*
X68726300Y-54420400D02*
X56075500Y-54420400D01*
X29893500Y-64313700D02*
X29893500Y-64770000D01*
X54838600Y-57228000D02*
X54838600Y-55657300D01*
X33401000Y-57228000D02*
X33401000Y-60806200D01*
X33401000Y-56723000D02*
X33401000Y-57228000D01*
%TO.N,LAHS*%
X98588400Y-31750000D02*
X99493400Y-31750000D01*
X52954200Y-22700900D02*
X93821400Y-22700900D01*
X93821400Y-22700900D02*
X97884600Y-26764100D01*
X118015300Y-55381000D02*
X118015300Y-61516800D01*
X115664600Y-54329800D02*
X115850200Y-54515400D01*
X54861500Y-29101900D02*
X50951100Y-25191500D01*
X97884600Y-26764100D02*
X97884600Y-31046200D01*
X50951100Y-25191500D02*
X50951100Y-24704000D01*
X115850200Y-54515400D02*
X117149700Y-54515400D01*
X99493400Y-31750000D02*
X115664600Y-47921200D01*
X54861500Y-29834000D02*
X54861500Y-29101900D01*
X117207400Y-62324700D02*
X116840000Y-62324700D01*
X116840000Y-63500000D02*
X116840000Y-62324700D01*
X97884600Y-31046200D02*
X98588400Y-31750000D01*
X115664600Y-47921200D02*
X115664600Y-54329800D01*
X118015300Y-61516800D02*
X117207400Y-62324700D01*
X117149700Y-54515400D02*
X118015300Y-55381000D01*
X50951100Y-24704000D02*
X52954200Y-22700900D01*
%TO.N,AHS*%
X52826100Y-25654000D02*
X52826100Y-25097200D01*
X31495900Y-47928000D02*
X30228000Y-46660100D01*
X55661500Y-29834000D02*
X55661500Y-29108700D01*
X52826100Y-26273300D02*
X52826100Y-25654000D01*
X52826100Y-25097200D02*
X52311300Y-24582400D01*
X32131000Y-47928000D02*
X31495900Y-47928000D01*
X55661500Y-29108700D02*
X52826100Y-26273300D01*
%TO.N,~{LPGM}*%
X116840000Y-58420000D02*
X116840000Y-57244700D01*
X56461500Y-26959000D02*
X58716500Y-24704000D01*
X95927500Y-25443900D02*
X95927500Y-31568500D01*
X58716500Y-24704000D02*
X58933900Y-24704000D01*
X99462000Y-34290000D02*
X115140300Y-49968300D01*
X60475000Y-23162900D02*
X93646500Y-23162900D01*
X98649000Y-34290000D02*
X99462000Y-34290000D01*
X116471600Y-57244700D02*
X116840000Y-57244700D01*
X58933900Y-24704000D02*
X60475000Y-23162900D01*
X95927500Y-31568500D02*
X98649000Y-34290000D01*
X56461500Y-29834000D02*
X56461500Y-26959000D01*
X115140300Y-55913400D02*
X116471600Y-57244700D01*
X115140300Y-49968300D02*
X115140300Y-55913400D01*
X93646500Y-23162900D02*
X95927500Y-25443900D01*
%TO.N,~{PGM}*%
X57261500Y-29834000D02*
X57261500Y-28731900D01*
X57261600Y-28731900D02*
X57261500Y-28731900D01*
X60808900Y-25654000D02*
X58403400Y-25654000D01*
X57261600Y-26795800D02*
X57261600Y-28731900D01*
X58403400Y-25654000D02*
X57261600Y-26795800D01*
%TO.N,LD0*%
X32067300Y-38097300D02*
X35340400Y-38097300D01*
X35843700Y-37594000D02*
X35843700Y-37522000D01*
X37294300Y-37522000D02*
X37718300Y-37946000D01*
X31242000Y-37272000D02*
X32067300Y-38097300D01*
X37718300Y-37946000D02*
X39421200Y-37946000D01*
X35340400Y-38097300D02*
X35843700Y-37594000D01*
X36569000Y-37522000D02*
X37294300Y-37522000D01*
X36569000Y-37522000D02*
X35843700Y-37522000D01*
%TO.N,D0*%
X49478000Y-38766300D02*
X53402700Y-42691000D01*
X49478000Y-38551200D02*
X49478000Y-38671300D01*
X29367000Y-36322000D02*
X29367000Y-36839100D01*
X29367000Y-36839100D02*
X31199200Y-38671300D01*
X31199200Y-38671300D02*
X49478000Y-38671300D01*
X50507200Y-37522000D02*
X49478000Y-38551200D01*
X51232500Y-37522000D02*
X50507200Y-37522000D01*
X49478000Y-38671300D02*
X49478000Y-38766300D01*
%TO.N,LD1*%
X42544600Y-37845600D02*
X43206000Y-37845600D01*
X41971000Y-37272000D02*
X42544600Y-37845600D01*
X41971000Y-37272000D02*
X41919700Y-37220700D01*
X37793000Y-37220700D02*
X37294300Y-36722000D01*
X36569000Y-36722000D02*
X37294300Y-36722000D01*
X41919700Y-37220700D02*
X37793000Y-37220700D01*
%TO.N,D1*%
X51232500Y-36722000D02*
X51957800Y-36722000D01*
X51957800Y-40101200D02*
X52801000Y-40944400D01*
X40096000Y-36322000D02*
X40321200Y-36547200D01*
X44311000Y-37907800D02*
X49321400Y-37907800D01*
X51232500Y-36722000D02*
X50507200Y-36722000D01*
X51957800Y-36722000D02*
X51957800Y-40101200D01*
X49321400Y-37907800D02*
X50507200Y-36722000D01*
X42950400Y-36547200D02*
X44311000Y-37907800D01*
X40321200Y-36547200D02*
X42950400Y-36547200D01*
%TO.N,LD2*%
X48723500Y-37272000D02*
X49443700Y-36551800D01*
X36569000Y-35922000D02*
X37294300Y-35922000D01*
X47705500Y-37272000D02*
X48723500Y-37272000D01*
X43229100Y-35998000D02*
X44503100Y-37272000D01*
X37294300Y-35922000D02*
X37542000Y-35674300D01*
X40860800Y-35674300D02*
X41184500Y-35998000D01*
X41184500Y-35998000D02*
X43229100Y-35998000D01*
X44503100Y-37272000D02*
X47705500Y-37272000D01*
X37542000Y-35674300D02*
X40860800Y-35674300D01*
%TO.N,D2*%
X50507200Y-35922000D02*
X50411700Y-35826500D01*
X50411700Y-35826500D02*
X48860900Y-35826500D01*
X48860900Y-35826500D02*
X48365400Y-36322000D01*
X51232500Y-35922000D02*
X50507200Y-35922000D01*
X48365400Y-36322000D02*
X45830500Y-36322000D01*
%TO.N,LD3*%
X37294300Y-35122000D02*
X38847000Y-33569300D01*
X36569000Y-35122000D02*
X37294300Y-35122000D01*
X59514100Y-36192400D02*
X59514100Y-34878200D01*
X38847000Y-33569300D02*
X58205200Y-33569300D01*
X59514100Y-34878200D02*
X58839800Y-34203900D01*
X58434500Y-37272000D02*
X59514100Y-36192400D01*
X58205200Y-33569300D02*
X58839800Y-34203900D01*
%TO.N,D3*%
X51957800Y-35050000D02*
X51957800Y-35122000D01*
X58240800Y-39444800D02*
X56559500Y-37763500D01*
X56559500Y-37763500D02*
X56559500Y-36322000D01*
X54784200Y-34546700D02*
X52461100Y-34546700D01*
X56559500Y-36322000D02*
X54784200Y-34546700D01*
X51232500Y-35122000D02*
X51957800Y-35122000D01*
X52461100Y-34546700D02*
X51957800Y-35050000D01*
%TO.N,~{LCE}*%
X67027900Y-25302500D02*
X66916800Y-25302500D01*
X70101500Y-29834000D02*
X70101500Y-28376100D01*
X65846500Y-29347700D02*
X69177100Y-32678300D01*
X66807600Y-25302500D02*
X65846500Y-26263600D01*
X70101500Y-28376100D02*
X67027900Y-25302500D01*
X66916800Y-24704000D02*
X66916800Y-25302500D01*
X66916800Y-25302500D02*
X66807600Y-25302500D01*
X65846500Y-26263600D02*
X65846500Y-29347700D01*
%TO.N,~{CE}*%
X67713600Y-24074600D02*
X68791800Y-25152800D01*
X62620000Y-44992500D02*
X61230500Y-43603000D01*
X70901500Y-27763700D02*
X68791800Y-25654000D01*
X70901500Y-29834000D02*
X70901500Y-27763700D01*
X68791800Y-25152800D02*
X68791800Y-25654000D01*
X61230500Y-43603000D02*
X61230500Y-28966500D01*
X66122400Y-24074600D02*
X67713600Y-24074600D01*
X61230500Y-28966500D02*
X66122400Y-24074600D01*
%TO.N,~{LOE}*%
X118015300Y-48750700D02*
X118015300Y-45209300D01*
X73590400Y-27310300D02*
X74250100Y-27970000D01*
X73590400Y-26013300D02*
X73590400Y-27310300D01*
X116840000Y-49624700D02*
X117141300Y-49624700D01*
X74899700Y-24704000D02*
X73590400Y-26013300D01*
X71701500Y-29834000D02*
X71701500Y-29108700D01*
X118015300Y-45209300D02*
X117256000Y-44450000D01*
X117256000Y-44450000D02*
X115707600Y-44450000D01*
X71701500Y-29108700D02*
X71792000Y-29108700D01*
X116840000Y-50800000D02*
X116840000Y-49624700D01*
X117141300Y-49624700D02*
X118015300Y-48750700D01*
X115707600Y-44450000D02*
X100416300Y-29158700D01*
X71792000Y-29108700D02*
X73590400Y-27310300D01*
%TO.N,~{OE}*%
X72501500Y-29834000D02*
X72501500Y-29108700D01*
X76774700Y-26471200D02*
X76774700Y-25654000D01*
X73033000Y-29108700D02*
X73164700Y-28977000D01*
X74268900Y-28977000D02*
X76774700Y-26471200D01*
X72501500Y-29108700D02*
X73033000Y-29108700D01*
X73164700Y-28977000D02*
X74268900Y-28977000D01*
%TO.N,LD4*%
X69496000Y-37522000D02*
X68939600Y-37522000D01*
X68770700Y-37522000D02*
X68770700Y-34737200D01*
X68267400Y-38097300D02*
X64994300Y-38097300D01*
X64994300Y-38097300D02*
X64169000Y-37272000D01*
X68770700Y-34737200D02*
X69203700Y-34304200D01*
X68770700Y-37522000D02*
X68770700Y-37594000D01*
X68770700Y-37594000D02*
X68267400Y-38097300D01*
X68939600Y-37522000D02*
X68770700Y-37522000D01*
X69203700Y-34304200D02*
X72672400Y-34304200D01*
X72672400Y-34304200D02*
X73073300Y-34705100D01*
%TO.N,D4*%
X83434200Y-37683700D02*
X83434200Y-37522000D01*
X62294000Y-37014900D02*
X65899600Y-40620500D01*
X78027700Y-43090200D02*
X83434200Y-37683700D01*
X73825300Y-44992500D02*
X73825300Y-44698500D01*
X62294000Y-36322000D02*
X62294000Y-37014900D01*
X84159500Y-37522000D02*
X83434200Y-37522000D01*
X75433600Y-43090200D02*
X78027700Y-43090200D01*
X73825300Y-44698500D02*
X75433600Y-43090200D01*
X72780000Y-44992500D02*
X73825300Y-44992500D01*
%TO.N,LD5*%
X74898000Y-37272000D02*
X74899500Y-37273500D01*
X69496000Y-36722000D02*
X70221300Y-36722000D01*
X74899500Y-37273500D02*
X76240000Y-37273500D01*
X70771300Y-37272000D02*
X70221300Y-36722000D01*
X74898000Y-37272000D02*
X70771300Y-37272000D01*
%TO.N,D5*%
X77012700Y-37547000D02*
X76106200Y-38453500D01*
X73918100Y-38453500D02*
X69095500Y-43276100D01*
X77012700Y-37017500D02*
X77012700Y-37547000D01*
X71285300Y-44992500D02*
X71285300Y-44704000D01*
X76068800Y-39920500D02*
X80560500Y-39920500D01*
X73197400Y-36496400D02*
X76491600Y-36496400D01*
X81819100Y-38661900D02*
X81819100Y-38337100D01*
X70240000Y-44992500D02*
X71285300Y-44992500D01*
X76106200Y-38453500D02*
X73918100Y-38453500D01*
X73023000Y-36322000D02*
X73197400Y-36496400D01*
X71285300Y-44704000D02*
X76068800Y-39920500D01*
X81819100Y-38337100D02*
X83434200Y-36722000D01*
X76491600Y-36496400D02*
X77012700Y-37017500D01*
X80560500Y-39920500D02*
X81819100Y-38661900D01*
X84159500Y-36722000D02*
X83434200Y-36722000D01*
%TO.N,LD6*%
X80632500Y-38163800D02*
X80643500Y-38174800D01*
X73804700Y-35691200D02*
X74159500Y-36046000D01*
X74159500Y-36046000D02*
X76948200Y-36046000D01*
X78174200Y-37272000D02*
X80632500Y-37272000D01*
X71448200Y-35922000D02*
X71679000Y-35691200D01*
X80632500Y-37272000D02*
X80632500Y-38163800D01*
X71679000Y-35691200D02*
X73804700Y-35691200D01*
X69496000Y-35922000D02*
X70221300Y-35922000D01*
X70221300Y-35922000D02*
X71448200Y-35922000D01*
X76948200Y-36046000D02*
X78174200Y-37272000D01*
%TO.N,D6*%
X68745300Y-44992500D02*
X68745300Y-44698500D01*
X81368800Y-38475300D02*
X81368800Y-37978200D01*
X81714200Y-37632800D02*
X81714200Y-36322000D01*
X84159500Y-35922000D02*
X83434200Y-35922000D01*
X73973700Y-39470100D02*
X80374000Y-39470100D01*
X80374000Y-39470100D02*
X81368800Y-38475300D01*
X81368800Y-37978200D02*
X81714200Y-37632800D01*
X68745300Y-44698500D02*
X73973700Y-39470100D01*
X83034200Y-36322000D02*
X83434200Y-35922000D01*
X78757500Y-36322000D02*
X81714200Y-36322000D01*
X81714200Y-36322000D02*
X83034200Y-36322000D01*
X67700000Y-44992500D02*
X68745300Y-44992500D01*
%TO.N,LD7*%
X98634200Y-44544700D02*
X91361500Y-37272000D01*
X70221300Y-35122000D02*
X70313700Y-35029600D01*
X99060000Y-45720000D02*
X99060000Y-44544700D01*
X99060000Y-44544700D02*
X98634200Y-44544700D01*
X69496000Y-35122000D02*
X70221300Y-35122000D01*
X70313700Y-35029600D02*
X71314800Y-35029600D01*
%TO.N,D7*%
X88367800Y-36322000D02*
X80069100Y-44620700D01*
X88367800Y-36322000D02*
X86566300Y-34520500D01*
X80069100Y-44620700D02*
X78272300Y-44620700D01*
X84761000Y-34520500D02*
X84159500Y-35122000D01*
X78272300Y-44620700D02*
X76566600Y-46326400D01*
X89486500Y-36322000D02*
X88367800Y-36322000D01*
X86566300Y-34520500D02*
X84761000Y-34520500D01*
X66205300Y-45286500D02*
X66205300Y-44992500D01*
X67245200Y-46326400D02*
X66205300Y-45286500D01*
X65160000Y-44992500D02*
X66205300Y-44992500D01*
X76566600Y-46326400D02*
X67245200Y-46326400D01*
%TO.N,LAUS*%
X83157200Y-24978600D02*
X82882500Y-24704000D01*
X83157100Y-24978700D02*
X83157200Y-24978600D01*
X98682400Y-39464700D02*
X100072400Y-39464700D01*
X95026900Y-25180300D02*
X95026900Y-27840500D01*
X93273300Y-24063500D02*
X93910100Y-24063500D01*
X93910100Y-24063500D02*
X95026900Y-25180300D01*
X88278400Y-23613200D02*
X92823000Y-23613200D01*
X95444200Y-36226500D02*
X98682400Y-39464700D01*
X116840000Y-60960000D02*
X116840000Y-59784700D01*
X114279200Y-53671500D02*
X114279200Y-57591200D01*
X83157100Y-25466100D02*
X83157100Y-24978700D01*
X83742000Y-24393800D02*
X87497800Y-24393800D01*
X95026900Y-27840500D02*
X95444200Y-28257800D01*
X87497800Y-24393800D02*
X88278400Y-23613200D01*
X85341500Y-29834000D02*
X85341500Y-27650500D01*
X116472700Y-59784700D02*
X116840000Y-59784700D01*
X83157200Y-24978600D02*
X83742000Y-24393800D01*
X100072400Y-39464700D02*
X114279200Y-53671500D01*
X114279200Y-57591200D02*
X116472700Y-59784700D01*
X85341500Y-27650500D02*
X83157100Y-25466100D01*
X95444200Y-28257800D02*
X95444200Y-36226500D01*
X92823000Y-23613200D02*
X93273300Y-24063500D01*
%TO.N,AUS*%
X94889600Y-33274600D02*
X92001500Y-36162700D01*
X92636400Y-24063500D02*
X93086700Y-24513800D01*
X93723500Y-24513800D02*
X94576600Y-25366900D01*
X89116000Y-24063500D02*
X92636400Y-24063500D01*
X93086700Y-24513800D02*
X93723500Y-24513800D01*
X76911200Y-46796500D02*
X76911200Y-49038300D01*
X94889600Y-28340100D02*
X94889600Y-33274600D01*
X91058400Y-36162700D02*
X80898000Y-46323100D01*
X86141500Y-29834000D02*
X86141500Y-27038000D01*
X75875300Y-49297200D02*
X75006200Y-48428100D01*
X80898000Y-46323100D02*
X77384600Y-46323100D01*
X94576600Y-28027100D02*
X94889600Y-28340100D01*
X86141500Y-27038000D02*
X84757500Y-25654000D01*
X92001500Y-36162700D02*
X91058400Y-36162700D01*
X76911200Y-49038300D02*
X76652300Y-49297200D01*
X76652300Y-49297200D02*
X75875300Y-49297200D01*
X86141500Y-27038000D02*
X89116000Y-24063500D01*
X75006200Y-48428100D02*
X75006200Y-47928000D01*
X77384600Y-46323100D02*
X76911200Y-46796500D01*
X94576600Y-25366900D02*
X94576600Y-28027100D01*
%TO.N,RUN*%
X34596000Y-73370000D02*
X36628000Y-73370000D01*
X36628000Y-73370000D02*
X38862000Y-71136000D01*
X38862000Y-71136000D02*
X38862000Y-71120000D01*
X41096000Y-73370000D02*
X38862000Y-71136000D01*
%TO.N,GND*%
X117207300Y-52164700D02*
X118470900Y-50901100D01*
X75006200Y-58593400D02*
X75320000Y-58907200D01*
X99427400Y-52164700D02*
X99060000Y-52164700D01*
X67945000Y-67056000D02*
X67945000Y-66926195D01*
X89916000Y-53528000D02*
X88568200Y-53528000D01*
X118015300Y-29923300D02*
X118015300Y-38656800D01*
X100345500Y-64056800D02*
X100235300Y-64056800D01*
X100235300Y-51356800D02*
X99427400Y-52164700D01*
X26929400Y-62429600D02*
X32131000Y-57228000D01*
X32581000Y-68870000D02*
X28436700Y-64725700D01*
X106774700Y-70486000D02*
X100345500Y-64056800D01*
X32614700Y-53745300D02*
X27477000Y-48607600D01*
X116840000Y-53340000D02*
X116840000Y-52164700D01*
X99060000Y-53340000D02*
X99060000Y-52752300D01*
X100235300Y-42623300D02*
X100235300Y-51356800D01*
X99060000Y-66040000D02*
X99060000Y-64864700D01*
X34596000Y-68870000D02*
X32581000Y-68870000D01*
X117207300Y-41815300D02*
X116840000Y-41815300D01*
X59816600Y-65404600D02*
X59436000Y-65024000D01*
X54626000Y-70739000D02*
X54102000Y-71263000D01*
X88568200Y-53528000D02*
X88568200Y-53777500D01*
X27477000Y-44659000D02*
X27919900Y-44216100D01*
X99427300Y-41815300D02*
X100235300Y-42623300D01*
X32898000Y-53462000D02*
X32614700Y-53745300D01*
X116840000Y-52164700D02*
X117207300Y-52164700D01*
X75006200Y-54025800D02*
X75006200Y-57228000D01*
X107950000Y-70890000D02*
X106774700Y-70890000D01*
X54610000Y-53594000D02*
X53568600Y-54635400D01*
X116840000Y-40640000D02*
X116840000Y-41815300D01*
X99060000Y-27940000D02*
X100235300Y-27940000D01*
X27919900Y-44216100D02*
X32708400Y-44216100D01*
X99060000Y-52752300D02*
X99060000Y-52164700D01*
X99427400Y-54515300D02*
X100235300Y-55323200D01*
X32708400Y-44216100D02*
X33782000Y-43142500D01*
X75006200Y-54025800D02*
X69011800Y-54025800D01*
X99060000Y-40640000D02*
X99060000Y-41815300D01*
X100235300Y-55323200D02*
X100235300Y-64056800D01*
X53568600Y-54635400D02*
X53568600Y-57228000D01*
X118470900Y-50901100D02*
X118470900Y-43078900D01*
X66293600Y-65404600D02*
X59816600Y-65404600D01*
X116840000Y-27940000D02*
X116840000Y-29115300D01*
X47498000Y-53462000D02*
X32898000Y-53462000D01*
X32131000Y-54229000D02*
X32131000Y-57228000D01*
X106774700Y-70890000D02*
X106774700Y-70486000D01*
X99427400Y-64864700D02*
X99060000Y-64864700D01*
X28436700Y-64725700D02*
X27484300Y-64725700D01*
X75504000Y-53528000D02*
X75006200Y-54025800D01*
X100235300Y-64056800D02*
X99427400Y-64864700D01*
X67945000Y-67056000D02*
X67945000Y-66927252D01*
X116840000Y-40640000D02*
X116840000Y-39464700D01*
X69011800Y-54025800D02*
X68580000Y-53594000D01*
X67945000Y-67056000D02*
X66293600Y-65404600D01*
X68580000Y-53594000D02*
X54610000Y-53594000D01*
X27484300Y-64725700D02*
X26929400Y-64170800D01*
X26929400Y-64170800D02*
X26929400Y-62429600D01*
X117207400Y-39464700D02*
X116840000Y-39464700D01*
X27477000Y-48607600D02*
X27477000Y-44659000D01*
X75320000Y-60232500D02*
X75320000Y-58907200D01*
X118015300Y-38656800D02*
X117207400Y-39464700D01*
X55753000Y-70739000D02*
X54626000Y-70739000D01*
X116840000Y-29115300D02*
X117207300Y-29115300D01*
X32614700Y-53745300D02*
X32131000Y-54229000D01*
X88568200Y-53528000D02*
X75504000Y-53528000D01*
X75006200Y-57228000D02*
X75006200Y-58593400D01*
X116840000Y-27940000D02*
X100235300Y-27940000D01*
X117207300Y-29115300D02*
X118015300Y-29923300D01*
X118470900Y-43078900D02*
X117207300Y-41815300D01*
X99060000Y-54515300D02*
X99427400Y-54515300D01*
X99060000Y-53340000D02*
X99060000Y-54515300D01*
X99060000Y-41815300D02*
X99427300Y-41815300D01*
%TO.N,A7*%
X47380000Y-60232500D02*
X48425300Y-60232500D01*
X50365400Y-57247100D02*
X48425300Y-59187200D01*
X48425300Y-59187200D02*
X48425300Y-60232500D01*
X50365400Y-53752200D02*
X50365400Y-57247100D01*
X54838600Y-47928000D02*
X54838600Y-49279000D01*
X54838600Y-49279000D02*
X50365400Y-53752200D01*
%TO.N,A6*%
X56108600Y-49343600D02*
X56108600Y-47928000D01*
X50815800Y-54636400D02*
X56108600Y-49343600D01*
X49920000Y-58907200D02*
X50815800Y-58011400D01*
X50815800Y-58011400D02*
X50815800Y-54636400D01*
X49920000Y-60232500D02*
X49920000Y-58907200D01*
%TO.N,A5*%
X57378600Y-49424200D02*
X52460000Y-54342800D01*
X57378600Y-47928000D02*
X57378600Y-49424200D01*
X52460000Y-54342800D02*
X52460000Y-60232500D01*
%TO.N,A4*%
X52910400Y-58383900D02*
X53954700Y-59428200D01*
X55000000Y-60232500D02*
X53954700Y-60232500D01*
X58648600Y-47928000D02*
X58648600Y-48791100D01*
X52910400Y-54529300D02*
X52910400Y-58383900D01*
X53954700Y-59428200D02*
X53954700Y-60232500D01*
X58648600Y-48791100D02*
X52910400Y-54529300D01*
%TO.N,A3*%
X59918600Y-47421400D02*
X59918600Y-47928000D01*
X57080300Y-46525500D02*
X59022700Y-46525500D01*
X56743600Y-46862200D02*
X57080300Y-46525500D01*
X53093800Y-62636100D02*
X51414600Y-60956900D01*
X56743600Y-49422300D02*
X56743600Y-46862200D01*
X57540000Y-60232500D02*
X55136400Y-62636100D01*
X55136400Y-62636100D02*
X53093800Y-62636100D01*
X59022700Y-46525500D02*
X59918600Y-47421400D01*
X51414600Y-54751300D02*
X56743600Y-49422300D01*
X51414600Y-60956900D02*
X51414600Y-54751300D01*
%TO.N,A2*%
X61188600Y-47928000D02*
X61188600Y-51639100D01*
X61188600Y-51639100D02*
X59965600Y-52862100D01*
%TO.N,A1*%
X62612400Y-48081800D02*
X62612400Y-52844000D01*
X62458600Y-47928000D02*
X62612400Y-48081800D01*
%TO.N,A0*%
X63728600Y-47928000D02*
X63601000Y-48055600D01*
X63601000Y-48055600D02*
X63601000Y-52094300D01*
%TO.N,A18*%
X71566900Y-49791200D02*
X71132900Y-49357200D01*
X82626200Y-48440900D02*
X81275900Y-49791200D01*
X82626200Y-47928000D02*
X82626200Y-48440900D01*
X81275900Y-49791200D02*
X71566900Y-49791200D01*
%TO.N,A16*%
X82908900Y-50691900D02*
X67332200Y-50691900D01*
X85166200Y-47928000D02*
X85166200Y-48434600D01*
X85166200Y-48434600D02*
X82908900Y-50691900D01*
X67332200Y-50691900D02*
X66746500Y-50106200D01*
%TO.N,A15*%
X33401000Y-47928000D02*
X33401000Y-49720100D01*
X33401000Y-49720100D02*
X36365700Y-52684800D01*
%TO.N,A12*%
X37211000Y-47928000D02*
X36636300Y-48502700D01*
X36636300Y-48502700D02*
X36636300Y-49447500D01*
%TO.N,A10*%
X39751000Y-48393600D02*
X40975700Y-49618300D01*
X39751000Y-47928000D02*
X39751000Y-48393600D01*
%TO.N,A11*%
X38481000Y-48416300D02*
X39627000Y-49562300D01*
X38481000Y-47928000D02*
X38481000Y-48416300D01*
%TO.N,A9*%
X51515800Y-49106800D02*
X48223200Y-52399400D01*
X44887900Y-52399400D02*
X41021000Y-48532500D01*
X48223200Y-52399400D02*
X44887900Y-52399400D01*
X51515800Y-47262000D02*
X51515800Y-49106800D01*
X41021000Y-48532500D02*
X41021000Y-47928000D01*
X52460000Y-44992500D02*
X52460000Y-46317800D01*
X52460000Y-46317800D02*
X51515800Y-47262000D01*
%TO.N,A8*%
X47585600Y-46575600D02*
X48874700Y-45286500D01*
X49920000Y-44992500D02*
X48874700Y-44992500D01*
X42291000Y-47499400D02*
X43214800Y-46575600D01*
X48874700Y-45286500D02*
X48874700Y-44992500D01*
X42291000Y-47928000D02*
X42291000Y-47499400D01*
X43214800Y-46575600D02*
X47585600Y-46575600D01*
%TO.N,A13*%
X38490000Y-44489100D02*
X39330900Y-43648200D01*
X35941000Y-47482500D02*
X36932000Y-46491500D01*
X37483900Y-46491500D02*
X38490000Y-45485400D01*
X45284400Y-43648200D02*
X46334700Y-44698500D01*
X35941000Y-47928000D02*
X35941000Y-47482500D01*
X46334700Y-44698500D02*
X46334700Y-44992500D01*
X39330900Y-43648200D02*
X45284400Y-43648200D01*
X38490000Y-45485400D02*
X38490000Y-44489100D01*
X47380000Y-44992500D02*
X46334700Y-44992500D01*
X36932000Y-46491500D02*
X37483900Y-46491500D01*
%TO.N,A14*%
X38195400Y-46491500D02*
X42589400Y-46491500D01*
X34671000Y-47928000D02*
X34671100Y-47928000D01*
X36335700Y-50181400D02*
X36983000Y-50181400D01*
X43794700Y-45286200D02*
X43794700Y-44992500D01*
X37846000Y-49318400D02*
X37846000Y-46840900D01*
X34671100Y-48516800D02*
X36335700Y-50181400D01*
X44840000Y-44992500D02*
X43794700Y-44992500D01*
X36983000Y-50181400D02*
X37846000Y-49318400D01*
X34671100Y-47928000D02*
X34671100Y-48516800D01*
X42589400Y-46491500D02*
X43794700Y-45286200D01*
X37846000Y-46840900D02*
X38195400Y-46491500D01*
%TO.N,A17*%
X82122500Y-50241600D02*
X83896200Y-48467900D01*
X69506500Y-50241600D02*
X82122500Y-50241600D01*
X83896200Y-48467900D02*
X83896200Y-47928000D01*
X66506600Y-47241700D02*
X69506500Y-50241600D01*
%TO.N,Net-(D1-K)*%
X29648000Y-46196000D02*
X28702000Y-46196000D01*
X37220000Y-44992500D02*
X36174700Y-44992500D01*
X36174700Y-44992500D02*
X35244200Y-45923000D01*
X35244200Y-45923000D02*
X29921000Y-45923000D01*
X29921000Y-45923000D02*
X29648000Y-46196000D01*
%TO.N,Net-(D2-K)*%
X47228000Y-73263000D02*
X46223000Y-72258000D01*
X54102000Y-73263000D02*
X47228000Y-73263000D01*
X46223000Y-72258000D02*
X46223000Y-71120000D01*
%TO.N,Net-(D3-K)*%
X64389000Y-66384000D02*
X65273000Y-66384000D01*
X65273000Y-66384000D02*
X65945000Y-67056000D01*
%TO.N,unconnected-(Q24-S-Pad2)*%
X86941500Y-28627900D02*
X90865400Y-24704000D01*
X86941500Y-29834000D02*
X86941500Y-28627900D01*
%TO.N,unconnected-(Q24-D-Pad3)*%
X87741500Y-29108700D02*
X89785900Y-29108700D01*
X89785900Y-29108700D02*
X92740400Y-26154200D01*
X92740400Y-26154200D02*
X92740400Y-25654000D01*
X87741500Y-29834000D02*
X87741500Y-29108700D01*
%TO.N,+5V*%
X55661500Y-32246700D02*
X55661500Y-32359300D01*
X70901500Y-32359300D02*
X70901500Y-32934000D01*
X60462500Y-34100500D02*
X60462500Y-41323500D01*
X88321400Y-63100600D02*
X88684000Y-62738000D01*
X87884000Y-63100600D02*
X88321400Y-63100600D01*
X86141500Y-32359300D02*
X72501500Y-32359300D01*
X52265700Y-43419700D02*
X53699800Y-43419700D01*
X55661500Y-32359300D02*
X57261500Y-32359300D01*
X85234200Y-37084700D02*
X85596900Y-36722000D01*
X85872400Y-51694000D02*
X86436200Y-51130200D01*
X85234200Y-35557000D02*
X85234200Y-35122000D01*
X86436200Y-51130200D02*
X86436200Y-47928000D01*
X55661500Y-32359300D02*
X42021500Y-32359300D01*
X85810700Y-35922000D02*
X85599200Y-35922000D01*
X85959500Y-35122000D02*
X85234200Y-35122000D01*
X91424100Y-59344500D02*
X88755900Y-62012700D01*
X34888600Y-43935900D02*
X33782000Y-45042500D01*
X53699800Y-43419700D02*
X54669600Y-42449900D01*
X53032500Y-36722000D02*
X53395200Y-36722000D01*
X34888600Y-43148400D02*
X34888600Y-43935900D01*
X85599200Y-35922000D02*
X85234200Y-35557000D01*
X30061500Y-42311800D02*
X34498300Y-42311800D01*
X85959500Y-37522000D02*
X85234200Y-37522000D01*
X29577300Y-42796000D02*
X30061500Y-42311800D01*
X78005300Y-62323900D02*
X78503900Y-62323900D01*
X43561000Y-47928000D02*
X43561000Y-50419000D01*
X40421500Y-32359300D02*
X42021500Y-32359300D01*
X79718000Y-62738000D02*
X78918000Y-62738000D01*
X34498300Y-42311800D02*
X34888600Y-42702100D01*
X86284000Y-63463300D02*
X87084000Y-63463300D01*
X34888600Y-42702100D02*
X34888600Y-43148400D01*
X47498000Y-51562000D02*
X51065500Y-47994500D01*
X57261500Y-31634000D02*
X57261500Y-32359300D01*
X70901500Y-32359300D02*
X72501500Y-32359300D01*
X68580000Y-51694000D02*
X79302300Y-51694000D01*
X53395200Y-37522000D02*
X53395200Y-36722000D01*
X86141500Y-32246700D02*
X86141500Y-32359300D01*
X51065500Y-47994500D02*
X51065500Y-44619900D01*
X54669600Y-42449900D02*
X54669600Y-38433800D01*
X53032500Y-37522000D02*
X53395200Y-37522000D01*
X89916000Y-51628000D02*
X86934000Y-51628000D01*
X28702000Y-42796000D02*
X29577300Y-42796000D01*
X70901500Y-31634000D02*
X70901500Y-32359300D01*
X58721300Y-32359300D02*
X60462500Y-34100500D01*
X53395200Y-37522000D02*
X53757800Y-37522000D01*
X59336100Y-42449900D02*
X61350000Y-44463800D01*
X85234200Y-37637200D02*
X85234200Y-37522000D01*
X54669600Y-42449900D02*
X59336100Y-42449900D01*
X70901500Y-32934000D02*
X70706900Y-33128600D01*
X91424100Y-52774800D02*
X91424100Y-59344500D01*
X80518000Y-62738000D02*
X79718000Y-62738000D01*
X86141500Y-31634000D02*
X86141500Y-32246700D01*
X80518000Y-62738000D02*
X81318000Y-62738000D01*
X60462500Y-41323500D02*
X59336100Y-42449900D01*
X44704000Y-51562000D02*
X47498000Y-51562000D01*
X87741500Y-30908700D02*
X89243000Y-30908700D01*
X85959500Y-36722000D02*
X85596900Y-36722000D01*
X57261500Y-32359300D02*
X58721300Y-32359300D01*
X53757800Y-36359400D02*
X53757800Y-35922000D01*
X65410000Y-51694000D02*
X64998600Y-51282600D01*
X62438800Y-46577000D02*
X64119600Y-46577000D01*
X64119600Y-46577000D02*
X64998600Y-47456000D01*
X53395200Y-35922000D02*
X53757800Y-35922000D01*
X86934000Y-51628000D02*
X86436200Y-51130200D01*
X51065500Y-44619900D02*
X51215500Y-44469900D01*
X53032500Y-35922000D02*
X53395200Y-35922000D01*
X87446700Y-63463300D02*
X87884000Y-63463300D01*
X53395200Y-35922000D02*
X53757800Y-35559400D01*
X87084000Y-63100600D02*
X87084000Y-63463300D01*
X89916000Y-51628000D02*
X90277300Y-51628000D01*
X79302300Y-51694000D02*
X85872400Y-51694000D01*
X68580000Y-51694000D02*
X65410000Y-51694000D01*
X40421500Y-31634000D02*
X40421500Y-32359300D01*
X53032500Y-35122000D02*
X53757800Y-35122000D01*
X43561000Y-50419000D02*
X44704000Y-51562000D01*
X88684000Y-62738000D02*
X88684000Y-62012700D01*
X79052600Y-43818800D02*
X85234200Y-37637200D01*
X86284000Y-62738000D02*
X86284000Y-63463300D01*
X85234200Y-37522000D02*
X85234200Y-37084700D01*
X61350000Y-44463800D02*
X61350000Y-45488200D01*
X72501500Y-31634000D02*
X72501500Y-32359300D01*
X85959500Y-35922000D02*
X85810700Y-35922000D01*
X87884000Y-62738000D02*
X87884000Y-63100600D01*
X88755900Y-62012700D02*
X88684000Y-62012700D01*
X89243000Y-30908700D02*
X93387100Y-26764600D01*
X51215500Y-44469900D02*
X52265700Y-43419700D01*
X79302300Y-51694000D02*
X79302300Y-51844700D01*
X87741500Y-31634000D02*
X87741500Y-30908700D01*
X51215500Y-44469900D02*
X49894000Y-43148400D01*
X90277300Y-51628000D02*
X91424100Y-52774800D01*
X54669600Y-38433800D02*
X53757800Y-37522000D01*
X87884000Y-63100600D02*
X87884000Y-63463300D01*
X53757800Y-35559400D02*
X53757800Y-35122000D01*
X78503900Y-62323900D02*
X78918000Y-62738000D01*
X85599200Y-36719700D02*
X85599200Y-35922000D01*
X87084000Y-63100600D02*
X87446700Y-63463300D01*
X64998600Y-47456000D02*
X64998600Y-47928000D01*
X87741500Y-31634000D02*
X87741500Y-32359300D01*
X53395200Y-36722000D02*
X53757800Y-36359400D01*
X85596900Y-36722000D02*
X85599200Y-36719700D01*
X86141500Y-32359300D02*
X87741500Y-32359300D01*
X42021500Y-31634000D02*
X42021500Y-32359300D01*
X49894000Y-43148400D02*
X34888600Y-43148400D01*
X61350000Y-45488200D02*
X62438800Y-46577000D01*
X64998600Y-51282600D02*
X64998600Y-47928000D01*
X87084000Y-62738000D02*
X87084000Y-63100600D01*
X55661500Y-31634000D02*
X55661500Y-32246700D01*
%TD*%
%TA.AperFunction,Conductor*%
%TO.N,+5V*%
G36*
X125731376Y-21590030D02*
G01*
X125733868Y-21590084D01*
X125831266Y-21592206D01*
X125850380Y-21594087D01*
X126048475Y-21629017D01*
X126069688Y-21634702D01*
X126122945Y-21654085D01*
X126257396Y-21703022D01*
X126277288Y-21712297D01*
X126426616Y-21798512D01*
X126450284Y-21812177D01*
X126468275Y-21824774D01*
X126507235Y-21857465D01*
X126621301Y-21953177D01*
X126636822Y-21968698D01*
X126682421Y-22023041D01*
X126765225Y-22121724D01*
X126777822Y-22139715D01*
X126819098Y-22211206D01*
X126877699Y-22312706D01*
X126886979Y-22332608D01*
X126955297Y-22520311D01*
X126960982Y-22541525D01*
X126995910Y-22739607D01*
X126997794Y-22758743D01*
X126999970Y-22858622D01*
X127000000Y-22861366D01*
X127000000Y-74928633D01*
X126999970Y-74931377D01*
X126997794Y-75031256D01*
X126995910Y-75050392D01*
X126960982Y-75248474D01*
X126955297Y-75269688D01*
X126886979Y-75457391D01*
X126877697Y-75477297D01*
X126777822Y-75650284D01*
X126765225Y-75668275D01*
X126636827Y-75821296D01*
X126621296Y-75836827D01*
X126468275Y-75965225D01*
X126450284Y-75977822D01*
X126277297Y-76077697D01*
X126257391Y-76086979D01*
X126069688Y-76155297D01*
X126048474Y-76160982D01*
X125850392Y-76195910D01*
X125831256Y-76197794D01*
X125731377Y-76199970D01*
X125728633Y-76200000D01*
X81380476Y-76200000D01*
X81312355Y-76179998D01*
X81265862Y-76126342D01*
X81255758Y-76056068D01*
X81285252Y-75991488D01*
X81293330Y-75983622D01*
X81293156Y-75983448D01*
X84753895Y-72522709D01*
X121593500Y-72522709D01*
X121593500Y-72765290D01*
X121625160Y-73005782D01*
X121687944Y-73240095D01*
X121687945Y-73240097D01*
X121687946Y-73240100D01*
X121780776Y-73464212D01*
X121780777Y-73464213D01*
X121780782Y-73464224D01*
X121902061Y-73674285D01*
X121902063Y-73674288D01*
X121902064Y-73674289D01*
X122049735Y-73866738D01*
X122049739Y-73866742D01*
X122049744Y-73866748D01*
X122221251Y-74038255D01*
X122221256Y-74038259D01*
X122221262Y-74038265D01*
X122413711Y-74185936D01*
X122413714Y-74185938D01*
X122623775Y-74307217D01*
X122623779Y-74307218D01*
X122623788Y-74307224D01*
X122847900Y-74400054D01*
X123082211Y-74462838D01*
X123082215Y-74462838D01*
X123082217Y-74462839D01*
X123144202Y-74470999D01*
X123322712Y-74494500D01*
X123322719Y-74494500D01*
X123565281Y-74494500D01*
X123565288Y-74494500D01*
X123782637Y-74465885D01*
X123805782Y-74462839D01*
X123805782Y-74462838D01*
X123805789Y-74462838D01*
X124040100Y-74400054D01*
X124264212Y-74307224D01*
X124474289Y-74185936D01*
X124666738Y-74038265D01*
X124838265Y-73866738D01*
X124985936Y-73674289D01*
X125107224Y-73464212D01*
X125200054Y-73240100D01*
X125262838Y-73005789D01*
X125294500Y-72765288D01*
X125294500Y-72522712D01*
X125262838Y-72282211D01*
X125200054Y-72047900D01*
X125107224Y-71823788D01*
X125107218Y-71823779D01*
X125107217Y-71823775D01*
X124985938Y-71613714D01*
X124981492Y-71607920D01*
X124838265Y-71421262D01*
X124838259Y-71421256D01*
X124838255Y-71421251D01*
X124666748Y-71249744D01*
X124666742Y-71249739D01*
X124666738Y-71249735D01*
X124474289Y-71102064D01*
X124474288Y-71102063D01*
X124474285Y-71102061D01*
X124264224Y-70980782D01*
X124264216Y-70980778D01*
X124264212Y-70980776D01*
X124040100Y-70887946D01*
X124040097Y-70887945D01*
X124040095Y-70887944D01*
X123805782Y-70825160D01*
X123565290Y-70793500D01*
X123565288Y-70793500D01*
X123322712Y-70793500D01*
X123322709Y-70793500D01*
X123082217Y-70825160D01*
X122847904Y-70887944D01*
X122847900Y-70887946D01*
X122729698Y-70936907D01*
X122623786Y-70980777D01*
X122623775Y-70980782D01*
X122413714Y-71102061D01*
X122221262Y-71249735D01*
X122221251Y-71249744D01*
X122049744Y-71421251D01*
X122049735Y-71421262D01*
X121902061Y-71613714D01*
X121780782Y-71823775D01*
X121780777Y-71823786D01*
X121780776Y-71823788D01*
X121752146Y-71892908D01*
X121687946Y-72047900D01*
X121687944Y-72047904D01*
X121625160Y-72282217D01*
X121593500Y-72522709D01*
X84753895Y-72522709D01*
X89600104Y-67676500D01*
X97908227Y-59368376D01*
X97970537Y-59334352D01*
X98041352Y-59339417D01*
X98090020Y-59372134D01*
X98136762Y-59422908D01*
X98163085Y-59443396D01*
X98314424Y-59561189D01*
X98347680Y-59579186D01*
X98398071Y-59629200D01*
X98413423Y-59698516D01*
X98388862Y-59765129D01*
X98347680Y-59800814D01*
X98314426Y-59818810D01*
X98314424Y-59818811D01*
X98136762Y-59957091D01*
X97984279Y-60122729D01*
X97984275Y-60122734D01*
X97861141Y-60311206D01*
X97770703Y-60517386D01*
X97770702Y-60517387D01*
X97715437Y-60735624D01*
X97715436Y-60735630D01*
X97715436Y-60735632D01*
X97696844Y-60960000D01*
X97714101Y-61168262D01*
X97715437Y-61184375D01*
X97770702Y-61402612D01*
X97770703Y-61402613D01*
X97770704Y-61402616D01*
X97861056Y-61608599D01*
X97861141Y-61608793D01*
X97984275Y-61797265D01*
X97984279Y-61797270D01*
X98136762Y-61962908D01*
X98140357Y-61965706D01*
X98314424Y-62101189D01*
X98347678Y-62119185D01*
X98347680Y-62119186D01*
X98398071Y-62169200D01*
X98413423Y-62238516D01*
X98388862Y-62305129D01*
X98347680Y-62340813D01*
X98314426Y-62358810D01*
X98314424Y-62358811D01*
X98136762Y-62497091D01*
X97984279Y-62662729D01*
X97984275Y-62662734D01*
X97861141Y-62851206D01*
X97770703Y-63057386D01*
X97770702Y-63057387D01*
X97715437Y-63275624D01*
X97715436Y-63275630D01*
X97715436Y-63275632D01*
X97696844Y-63500000D01*
X97715165Y-63721101D01*
X97715437Y-63724375D01*
X97770702Y-63942612D01*
X97770703Y-63942613D01*
X97770704Y-63942616D01*
X97850793Y-64125202D01*
X97861141Y-64148793D01*
X97984275Y-64337265D01*
X97984278Y-64337268D01*
X98044831Y-64403045D01*
X98127475Y-64492820D01*
X98158896Y-64556485D01*
X98150909Y-64627031D01*
X98106051Y-64682060D01*
X98078807Y-64696213D01*
X97963797Y-64739110D01*
X97963792Y-64739112D01*
X97846738Y-64826738D01*
X97759112Y-64943792D01*
X97759110Y-64943797D01*
X97708011Y-65080795D01*
X97708009Y-65080803D01*
X97701500Y-65141350D01*
X97701500Y-66938649D01*
X97708009Y-66999196D01*
X97708011Y-66999204D01*
X97759110Y-67136202D01*
X97759112Y-67136207D01*
X97846738Y-67253261D01*
X97963791Y-67340886D01*
X97963792Y-67340886D01*
X97963796Y-67340889D01*
X98078810Y-67383787D01*
X98135642Y-67426332D01*
X98160453Y-67492852D01*
X98145362Y-67562226D01*
X98127475Y-67587179D01*
X97984280Y-67742729D01*
X97984275Y-67742734D01*
X97861141Y-67931206D01*
X97770703Y-68137386D01*
X97770702Y-68137387D01*
X97715437Y-68355624D01*
X97715436Y-68355630D01*
X97715436Y-68355632D01*
X97705164Y-68479594D01*
X97696844Y-68580000D01*
X97715437Y-68804375D01*
X97770702Y-69022612D01*
X97770703Y-69022613D01*
X97770704Y-69022616D01*
X97802899Y-69096014D01*
X97861141Y-69228793D01*
X97984275Y-69417265D01*
X97984279Y-69417270D01*
X98136762Y-69582908D01*
X98155758Y-69597693D01*
X98314424Y-69721189D01*
X98347678Y-69739185D01*
X98347680Y-69739186D01*
X98398071Y-69789200D01*
X98413423Y-69858516D01*
X98388862Y-69925129D01*
X98347680Y-69960813D01*
X98314426Y-69978810D01*
X98314424Y-69978811D01*
X98136762Y-70117091D01*
X97984279Y-70282729D01*
X97984275Y-70282734D01*
X97861141Y-70471206D01*
X97770703Y-70677386D01*
X97770702Y-70677387D01*
X97715437Y-70895624D01*
X97715436Y-70895630D01*
X97715436Y-70895632D01*
X97696844Y-71120000D01*
X97714462Y-71332616D01*
X97715437Y-71344375D01*
X97770702Y-71562612D01*
X97770703Y-71562613D01*
X97770704Y-71562616D01*
X97849712Y-71742738D01*
X97861141Y-71768793D01*
X97984275Y-71957265D01*
X97984279Y-71957270D01*
X98136762Y-72122908D01*
X98166206Y-72145825D01*
X98314424Y-72261189D01*
X98512426Y-72368342D01*
X98512427Y-72368342D01*
X98512428Y-72368343D01*
X98603949Y-72399762D01*
X98725365Y-72441444D01*
X98947431Y-72478500D01*
X98947435Y-72478500D01*
X99172565Y-72478500D01*
X99172569Y-72478500D01*
X99394635Y-72441444D01*
X99607574Y-72368342D01*
X99805576Y-72261189D01*
X99983240Y-72122906D01*
X100135722Y-71957268D01*
X100258860Y-71768791D01*
X100349296Y-71562616D01*
X100404564Y-71344368D01*
X100423156Y-71120000D01*
X100404564Y-70895632D01*
X100393756Y-70852953D01*
X100349297Y-70677387D01*
X100349296Y-70677386D01*
X100349296Y-70677384D01*
X100258860Y-70471209D01*
X100209005Y-70394900D01*
X100135724Y-70282734D01*
X100135720Y-70282729D01*
X99983237Y-70117091D01*
X99819865Y-69989933D01*
X99805576Y-69978811D01*
X99772319Y-69960813D01*
X99721929Y-69910802D01*
X99706576Y-69841485D01*
X99731136Y-69774872D01*
X99772320Y-69739186D01*
X99772322Y-69739185D01*
X99805576Y-69721189D01*
X99983240Y-69582906D01*
X100135722Y-69417268D01*
X100258860Y-69228791D01*
X100349296Y-69022616D01*
X100404564Y-68804368D01*
X100423156Y-68580000D01*
X100404564Y-68355632D01*
X100378804Y-68253907D01*
X100349297Y-68137387D01*
X100349296Y-68137386D01*
X100349296Y-68137384D01*
X100258860Y-67931209D01*
X100188967Y-67824229D01*
X100135724Y-67742734D01*
X100135719Y-67742729D01*
X100074750Y-67676500D01*
X99992524Y-67587179D01*
X99961103Y-67523514D01*
X99969090Y-67452968D01*
X100013948Y-67397939D01*
X100041183Y-67383789D01*
X100156204Y-67340889D01*
X100186082Y-67318523D01*
X100273261Y-67253261D01*
X100360887Y-67136207D01*
X100360887Y-67136206D01*
X100360889Y-67136204D01*
X100411989Y-66999201D01*
X100418500Y-66938638D01*
X100418500Y-65329894D01*
X100438502Y-65261773D01*
X100492158Y-65215280D01*
X100562432Y-65205176D01*
X100627012Y-65234670D01*
X100633595Y-65240799D01*
X104854562Y-69461766D01*
X104888588Y-69524078D01*
X104883523Y-69594893D01*
X104840976Y-69651729D01*
X104825437Y-69661674D01*
X104664430Y-69748807D01*
X104664424Y-69748811D01*
X104486762Y-69887091D01*
X104334279Y-70052729D01*
X104334275Y-70052734D01*
X104211141Y-70241206D01*
X104120703Y-70447386D01*
X104120702Y-70447387D01*
X104065437Y-70665624D01*
X104065436Y-70665630D01*
X104065436Y-70665632D01*
X104046844Y-70890000D01*
X104065120Y-71110556D01*
X104065437Y-71114375D01*
X104120702Y-71332612D01*
X104120703Y-71332613D01*
X104120704Y-71332616D01*
X104181624Y-71471500D01*
X104211141Y-71538793D01*
X104334275Y-71727265D01*
X104334279Y-71727270D01*
X104394484Y-71792669D01*
X104486605Y-71892738D01*
X104486762Y-71892908D01*
X104490267Y-71895636D01*
X104664424Y-72031189D01*
X104862426Y-72138342D01*
X104862427Y-72138342D01*
X104862428Y-72138343D01*
X104974227Y-72176723D01*
X105075365Y-72211444D01*
X105297431Y-72248500D01*
X105297435Y-72248500D01*
X105522565Y-72248500D01*
X105522569Y-72248500D01*
X105744635Y-72211444D01*
X105957574Y-72138342D01*
X106155576Y-72031189D01*
X106333240Y-71892906D01*
X106394245Y-71826637D01*
X106455096Y-71790067D01*
X106526061Y-71792200D01*
X106584606Y-71832362D01*
X106605000Y-71867941D01*
X106649111Y-71986204D01*
X106649112Y-71986207D01*
X106736738Y-72103261D01*
X106853792Y-72190887D01*
X106853794Y-72190888D01*
X106853796Y-72190889D01*
X106908900Y-72211442D01*
X106990795Y-72241988D01*
X106990803Y-72241990D01*
X107051350Y-72248499D01*
X107051355Y-72248499D01*
X107051362Y-72248500D01*
X107051368Y-72248500D01*
X108848632Y-72248500D01*
X108848638Y-72248500D01*
X108848645Y-72248499D01*
X108848649Y-72248499D01*
X108909196Y-72241990D01*
X108909199Y-72241989D01*
X108909201Y-72241989D01*
X109046204Y-72190889D01*
X109075406Y-72169029D01*
X109163261Y-72103261D01*
X109250886Y-71986208D01*
X109250885Y-71986208D01*
X109250889Y-71986204D01*
X109294999Y-71867939D01*
X109337545Y-71811107D01*
X109404066Y-71786296D01*
X109473440Y-71801388D01*
X109505753Y-71826635D01*
X109566760Y-71892906D01*
X109566762Y-71892908D01*
X109570267Y-71895636D01*
X109744424Y-72031189D01*
X109942426Y-72138342D01*
X109942427Y-72138342D01*
X109942428Y-72138343D01*
X110054227Y-72176723D01*
X110155365Y-72211444D01*
X110377431Y-72248500D01*
X110377435Y-72248500D01*
X110602565Y-72248500D01*
X110602569Y-72248500D01*
X110824635Y-72211444D01*
X111037574Y-72138342D01*
X111235576Y-72031189D01*
X111413240Y-71892906D01*
X111565722Y-71727268D01*
X111688860Y-71538791D01*
X111779296Y-71332616D01*
X111834564Y-71114368D01*
X111853156Y-70890000D01*
X111834564Y-70665632D01*
X111815478Y-70590262D01*
X111779297Y-70447387D01*
X111779296Y-70447386D01*
X111779296Y-70447384D01*
X111688860Y-70241209D01*
X111623978Y-70141899D01*
X111565724Y-70052734D01*
X111565720Y-70052729D01*
X111436220Y-69912057D01*
X111413240Y-69887094D01*
X111413239Y-69887093D01*
X111413237Y-69887091D01*
X111293367Y-69793792D01*
X111235576Y-69748811D01*
X111037574Y-69641658D01*
X111037572Y-69641657D01*
X111037571Y-69641656D01*
X110824639Y-69568557D01*
X110824630Y-69568555D01*
X110755161Y-69556963D01*
X110602569Y-69531500D01*
X110377431Y-69531500D01*
X110229211Y-69556233D01*
X110155369Y-69568555D01*
X110155360Y-69568557D01*
X109942428Y-69641656D01*
X109942426Y-69641658D01*
X109744432Y-69748807D01*
X109744426Y-69748810D01*
X109744424Y-69748811D01*
X109566762Y-69887091D01*
X109505754Y-69953363D01*
X109444901Y-69989933D01*
X109373936Y-69987798D01*
X109315391Y-69947636D01*
X109294999Y-69912057D01*
X109253798Y-69801595D01*
X109250889Y-69793796D01*
X109250888Y-69793794D01*
X109250887Y-69793792D01*
X109163261Y-69676738D01*
X109046207Y-69589112D01*
X109046202Y-69589110D01*
X108909204Y-69538011D01*
X108909196Y-69538009D01*
X108848649Y-69531500D01*
X108848638Y-69531500D01*
X107051362Y-69531500D01*
X107051350Y-69531500D01*
X106990803Y-69538009D01*
X106990802Y-69538010D01*
X106990799Y-69538010D01*
X106990799Y-69538011D01*
X106871338Y-69582568D01*
X106800523Y-69587633D01*
X106738213Y-69553609D01*
X100905705Y-63721101D01*
X100871679Y-63658789D01*
X100868800Y-63632006D01*
X100868800Y-55260807D01*
X100868799Y-55260803D01*
X100868350Y-55258545D01*
X100844455Y-55138415D01*
X100796700Y-55023125D01*
X100727371Y-54919367D01*
X100639133Y-54831129D01*
X100386375Y-54578371D01*
X100352349Y-54516059D01*
X100357414Y-54445244D01*
X100357973Y-54444018D01*
X100360886Y-54436207D01*
X100360889Y-54436204D01*
X100411989Y-54299201D01*
X100418500Y-54238638D01*
X100418500Y-52441362D01*
X100418499Y-52441350D01*
X100411990Y-52380803D01*
X100411988Y-52380795D01*
X100357740Y-52235353D01*
X100361187Y-52234067D01*
X100349784Y-52181826D01*
X100374546Y-52115288D01*
X100386366Y-52101636D01*
X100727371Y-51760633D01*
X100796700Y-51656875D01*
X100844455Y-51541585D01*
X100868800Y-51419194D01*
X100868800Y-51294406D01*
X100868800Y-42560906D01*
X100844455Y-42438515D01*
X100830468Y-42404747D01*
X100796701Y-42323225D01*
X100727372Y-42219467D01*
X100727367Y-42219461D01*
X100386340Y-41878434D01*
X100352314Y-41816122D01*
X100357379Y-41745307D01*
X100357999Y-41743950D01*
X100360887Y-41736206D01*
X100360889Y-41736204D01*
X100411989Y-41599201D01*
X100414118Y-41579405D01*
X100418499Y-41538649D01*
X100418500Y-41538632D01*
X100418500Y-41010894D01*
X100438502Y-40942773D01*
X100492158Y-40896280D01*
X100562432Y-40886176D01*
X100627012Y-40915670D01*
X100633595Y-40921799D01*
X113608795Y-53896999D01*
X113642821Y-53959311D01*
X113645700Y-53986094D01*
X113645700Y-57653596D01*
X113650637Y-57678415D01*
X113670045Y-57775985D01*
X113717800Y-57891275D01*
X113787129Y-57995033D01*
X113787131Y-57995035D01*
X115751490Y-59959394D01*
X115785516Y-60021706D01*
X115780451Y-60092521D01*
X115766324Y-60117844D01*
X115767128Y-60118369D01*
X115641141Y-60311206D01*
X115550703Y-60517386D01*
X115550702Y-60517387D01*
X115495437Y-60735624D01*
X115495436Y-60735630D01*
X115495436Y-60735632D01*
X115476844Y-60960000D01*
X115494101Y-61168262D01*
X115495437Y-61184375D01*
X115550702Y-61402612D01*
X115550703Y-61402613D01*
X115550704Y-61402616D01*
X115641056Y-61608599D01*
X115641141Y-61608793D01*
X115764275Y-61797265D01*
X115764279Y-61797270D01*
X115916762Y-61962908D01*
X115920357Y-61965706D01*
X116094424Y-62101189D01*
X116127680Y-62119186D01*
X116178070Y-62169197D01*
X116193423Y-62238514D01*
X116168863Y-62305127D01*
X116127683Y-62340811D01*
X116094430Y-62358807D01*
X116094424Y-62358811D01*
X115916762Y-62497091D01*
X115764279Y-62662729D01*
X115764275Y-62662734D01*
X115641141Y-62851206D01*
X115550703Y-63057386D01*
X115550702Y-63057387D01*
X115495437Y-63275624D01*
X115495436Y-63275630D01*
X115495436Y-63275632D01*
X115476844Y-63500000D01*
X115495165Y-63721101D01*
X115495437Y-63724375D01*
X115550702Y-63942612D01*
X115550703Y-63942613D01*
X115550704Y-63942616D01*
X115630793Y-64125202D01*
X115641141Y-64148793D01*
X115764275Y-64337265D01*
X115764278Y-64337268D01*
X115824831Y-64403045D01*
X115907475Y-64492820D01*
X115938896Y-64556485D01*
X115930909Y-64627031D01*
X115886051Y-64682060D01*
X115858807Y-64696213D01*
X115743797Y-64739110D01*
X115743792Y-64739112D01*
X115626738Y-64826738D01*
X115539112Y-64943792D01*
X115539110Y-64943797D01*
X115488011Y-65080795D01*
X115488009Y-65080803D01*
X115481500Y-65141350D01*
X115481500Y-66938649D01*
X115488009Y-66999196D01*
X115488011Y-66999204D01*
X115539110Y-67136202D01*
X115539112Y-67136207D01*
X115626738Y-67253261D01*
X115743791Y-67340886D01*
X115743792Y-67340886D01*
X115743796Y-67340889D01*
X115858810Y-67383787D01*
X115915642Y-67426332D01*
X115940453Y-67492852D01*
X115925362Y-67562226D01*
X115907475Y-67587179D01*
X115764280Y-67742729D01*
X115764275Y-67742734D01*
X115641141Y-67931206D01*
X115550703Y-68137386D01*
X115550702Y-68137387D01*
X115495437Y-68355624D01*
X115495436Y-68355630D01*
X115495436Y-68355632D01*
X115485164Y-68479594D01*
X115476844Y-68580000D01*
X115495437Y-68804375D01*
X115550702Y-69022612D01*
X115550703Y-69022613D01*
X115550704Y-69022616D01*
X115582899Y-69096014D01*
X115641141Y-69228793D01*
X115764275Y-69417265D01*
X115764279Y-69417270D01*
X115916762Y-69582908D01*
X116005183Y-69651729D01*
X116094424Y-69721189D01*
X116127680Y-69739186D01*
X116178070Y-69789197D01*
X116193423Y-69858514D01*
X116168863Y-69925127D01*
X116127683Y-69960811D01*
X116094430Y-69978807D01*
X116094424Y-69978811D01*
X115916762Y-70117091D01*
X115764279Y-70282729D01*
X115764275Y-70282734D01*
X115641141Y-70471206D01*
X115550703Y-70677386D01*
X115550702Y-70677387D01*
X115495437Y-70895624D01*
X115495436Y-70895630D01*
X115495436Y-70895632D01*
X115476844Y-71120000D01*
X115494462Y-71332616D01*
X115495437Y-71344375D01*
X115550702Y-71562612D01*
X115550703Y-71562613D01*
X115550704Y-71562616D01*
X115629712Y-71742738D01*
X115641141Y-71768793D01*
X115764275Y-71957265D01*
X115764279Y-71957270D01*
X115916762Y-72122908D01*
X115946206Y-72145825D01*
X116094424Y-72261189D01*
X116292426Y-72368342D01*
X116292427Y-72368342D01*
X116292428Y-72368343D01*
X116383949Y-72399762D01*
X116505365Y-72441444D01*
X116727431Y-72478500D01*
X116727435Y-72478500D01*
X116952565Y-72478500D01*
X116952569Y-72478500D01*
X117174635Y-72441444D01*
X117387574Y-72368342D01*
X117585576Y-72261189D01*
X117763240Y-72122906D01*
X117915722Y-71957268D01*
X118038860Y-71768791D01*
X118129296Y-71562616D01*
X118184564Y-71344368D01*
X118203156Y-71120000D01*
X118184564Y-70895632D01*
X118173756Y-70852953D01*
X118129297Y-70677387D01*
X118129296Y-70677386D01*
X118129296Y-70677384D01*
X118038860Y-70471209D01*
X117989005Y-70394900D01*
X117912872Y-70278369D01*
X117914742Y-70277146D01*
X117892122Y-70219911D01*
X117905866Y-70150258D01*
X117928502Y-70119400D01*
X119413371Y-68634533D01*
X119482700Y-68530775D01*
X119530455Y-68415485D01*
X119554800Y-68293094D01*
X119554800Y-68168306D01*
X119554800Y-35857906D01*
X119530455Y-35735515D01*
X119530452Y-35735507D01*
X119505272Y-35674717D01*
X119505270Y-35674714D01*
X119504710Y-35673362D01*
X119482701Y-35620225D01*
X119413372Y-35516467D01*
X119136105Y-35239200D01*
X119102079Y-35176888D01*
X119099200Y-35150105D01*
X119099200Y-27343207D01*
X119099199Y-27343203D01*
X119096159Y-27327920D01*
X119074855Y-27220815D01*
X119027100Y-27105525D01*
X118957771Y-27001767D01*
X118869533Y-26913529D01*
X118228633Y-26272629D01*
X118124875Y-26203300D01*
X118124876Y-26203300D01*
X118124874Y-26203299D01*
X118124872Y-26203298D01*
X118113572Y-26198618D01*
X118058291Y-26154070D01*
X118035869Y-26086707D01*
X118046401Y-26031598D01*
X118129296Y-25842616D01*
X118184564Y-25624368D01*
X118203156Y-25400000D01*
X118184564Y-25175632D01*
X118164701Y-25097193D01*
X118146345Y-25024709D01*
X121593500Y-25024709D01*
X121593500Y-25267290D01*
X121625160Y-25507782D01*
X121687944Y-25742095D01*
X121687945Y-25742097D01*
X121687946Y-25742100D01*
X121780776Y-25966212D01*
X121780777Y-25966213D01*
X121780782Y-25966224D01*
X121902061Y-26176285D01*
X121902063Y-26176288D01*
X121902064Y-26176289D01*
X122049735Y-26368738D01*
X122049739Y-26368742D01*
X122049744Y-26368748D01*
X122221251Y-26540255D01*
X122221256Y-26540259D01*
X122221262Y-26540265D01*
X122382821Y-26664233D01*
X122413714Y-26687938D01*
X122623775Y-26809217D01*
X122623779Y-26809218D01*
X122623788Y-26809224D01*
X122847900Y-26902054D01*
X123082211Y-26964838D01*
X123082215Y-26964838D01*
X123082217Y-26964839D01*
X123144202Y-26972999D01*
X123322712Y-26996500D01*
X123322719Y-26996500D01*
X123565281Y-26996500D01*
X123565288Y-26996500D01*
X123782637Y-26967885D01*
X123805782Y-26964839D01*
X123805782Y-26964838D01*
X123805789Y-26964838D01*
X124040100Y-26902054D01*
X124264212Y-26809224D01*
X124474289Y-26687936D01*
X124666738Y-26540265D01*
X124838265Y-26368738D01*
X124985936Y-26176289D01*
X125107224Y-25966212D01*
X125200054Y-25742100D01*
X125262838Y-25507789D01*
X125294500Y-25267288D01*
X125294500Y-25024712D01*
X125269245Y-24832879D01*
X125262839Y-24784217D01*
X125262838Y-24784215D01*
X125262838Y-24784211D01*
X125200054Y-24549900D01*
X125107224Y-24325788D01*
X125107218Y-24325779D01*
X125107217Y-24325775D01*
X124985938Y-24115714D01*
X124932029Y-24045458D01*
X124838265Y-23923262D01*
X124838259Y-23923256D01*
X124838255Y-23923251D01*
X124666748Y-23751744D01*
X124666742Y-23751739D01*
X124666738Y-23751735D01*
X124474289Y-23604064D01*
X124474288Y-23604063D01*
X124474285Y-23604061D01*
X124264224Y-23482782D01*
X124264216Y-23482778D01*
X124264212Y-23482776D01*
X124040100Y-23389946D01*
X124040097Y-23389945D01*
X124040095Y-23389944D01*
X123805782Y-23327160D01*
X123565290Y-23295500D01*
X123565288Y-23295500D01*
X123322712Y-23295500D01*
X123322709Y-23295500D01*
X123082217Y-23327160D01*
X122847904Y-23389944D01*
X122847900Y-23389946D01*
X122644976Y-23474000D01*
X122623786Y-23482777D01*
X122623775Y-23482782D01*
X122413714Y-23604061D01*
X122221262Y-23751735D01*
X122221251Y-23751744D01*
X122049744Y-23923251D01*
X122049735Y-23923262D01*
X121902061Y-24115714D01*
X121780782Y-24325775D01*
X121780777Y-24325786D01*
X121780776Y-24325788D01*
X121751240Y-24397094D01*
X121687946Y-24549900D01*
X121687944Y-24549904D01*
X121625160Y-24784217D01*
X121593500Y-25024709D01*
X118146345Y-25024709D01*
X118129297Y-24957387D01*
X118129296Y-24957386D01*
X118129296Y-24957384D01*
X118038860Y-24751209D01*
X118017167Y-24718005D01*
X117915724Y-24562734D01*
X117915720Y-24562729D01*
X117799570Y-24436559D01*
X117763240Y-24397094D01*
X117763239Y-24397093D01*
X117763237Y-24397091D01*
X117671627Y-24325788D01*
X117585576Y-24258811D01*
X117551792Y-24240528D01*
X117501402Y-24190516D01*
X117486050Y-24121199D01*
X117510610Y-24054586D01*
X117551793Y-24018901D01*
X117585300Y-24000767D01*
X117585301Y-24000767D01*
X117762902Y-23862534D01*
X117915325Y-23696958D01*
X118038419Y-23508548D01*
X118128820Y-23302456D01*
X118128823Y-23302449D01*
X118176544Y-23114000D01*
X117282251Y-23114000D01*
X117315245Y-23056853D01*
X117350000Y-22927143D01*
X117350000Y-22792857D01*
X117315245Y-22663147D01*
X117282251Y-22606000D01*
X118176544Y-22606000D01*
X118176544Y-22605999D01*
X118128823Y-22417550D01*
X118128820Y-22417543D01*
X118038419Y-22211451D01*
X117915325Y-22023041D01*
X117762902Y-21857465D01*
X117708898Y-21815432D01*
X117667427Y-21757807D01*
X117663693Y-21686908D01*
X117698883Y-21625246D01*
X117761824Y-21592398D01*
X117786289Y-21590000D01*
X125728633Y-21590000D01*
X125731376Y-21590030D01*
G37*
%TD.AperFunction*%
%TA.AperFunction,Conductor*%
G36*
X87050930Y-62508002D02*
G01*
X87071904Y-62524905D01*
X87084999Y-62538000D01*
X87883001Y-62538000D01*
X87896096Y-62524905D01*
X87958408Y-62490879D01*
X87985191Y-62488000D01*
X88808000Y-62488000D01*
X88876121Y-62508002D01*
X88922614Y-62561658D01*
X88934000Y-62614000D01*
X88934000Y-62650004D01*
X88913998Y-62718125D01*
X88897096Y-62739099D01*
X88685101Y-62951095D01*
X88622789Y-62985120D01*
X88596005Y-62988000D01*
X87985191Y-62988000D01*
X87917070Y-62967998D01*
X87896096Y-62951095D01*
X87883001Y-62938000D01*
X87084999Y-62938000D01*
X87071904Y-62951095D01*
X87009592Y-62985121D01*
X86982809Y-62988000D01*
X86160000Y-62988000D01*
X86091879Y-62967998D01*
X86045386Y-62914342D01*
X86034000Y-62862000D01*
X86034000Y-62819094D01*
X86054002Y-62750973D01*
X86070905Y-62729999D01*
X86275999Y-62524905D01*
X86338311Y-62490879D01*
X86365094Y-62488000D01*
X86982809Y-62488000D01*
X87050930Y-62508002D01*
G37*
%TD.AperFunction*%
%TA.AperFunction,Conductor*%
G36*
X78102121Y-62242402D02*
G01*
X78148614Y-62296058D01*
X78160000Y-62348400D01*
X78160000Y-62488000D01*
X79616809Y-62488000D01*
X79684930Y-62508002D01*
X79705904Y-62524905D01*
X79718999Y-62538000D01*
X80517001Y-62538000D01*
X80530096Y-62524905D01*
X80592408Y-62490879D01*
X80619191Y-62488000D01*
X81133800Y-62488000D01*
X81201921Y-62508002D01*
X81248414Y-62561658D01*
X81259800Y-62614000D01*
X81259800Y-62712200D01*
X81239798Y-62780321D01*
X81186142Y-62826814D01*
X81133800Y-62838200D01*
X76862680Y-62838200D01*
X76794559Y-62818198D01*
X76748066Y-62764542D01*
X76737962Y-62694268D01*
X76767456Y-62629688D01*
X76814461Y-62595792D01*
X76861270Y-62576402D01*
X76861269Y-62576402D01*
X76861275Y-62576400D01*
X76965033Y-62507071D01*
X77212799Y-62259305D01*
X77275111Y-62225279D01*
X77301894Y-62222400D01*
X78034000Y-62222400D01*
X78102121Y-62242402D01*
G37*
%TD.AperFunction*%
%TA.AperFunction,Conductor*%
G36*
X91540733Y-55391839D02*
G01*
X91597568Y-55434386D01*
X91622379Y-55500906D01*
X91622700Y-55509895D01*
X91622700Y-59961304D01*
X91602698Y-60029425D01*
X91585795Y-60050399D01*
X89555641Y-62080552D01*
X89493329Y-62114578D01*
X89422513Y-62109513D01*
X89365678Y-62066966D01*
X89296904Y-61975095D01*
X89248926Y-61939180D01*
X89206379Y-61882345D01*
X89201314Y-61811529D01*
X89235339Y-61749217D01*
X89248922Y-61737446D01*
X89297261Y-61701261D01*
X89384889Y-61584204D01*
X89435115Y-61449545D01*
X89435988Y-61447204D01*
X89435990Y-61447196D01*
X89442499Y-61386649D01*
X89442500Y-61386632D01*
X89442500Y-60489367D01*
X89442499Y-60489350D01*
X89435990Y-60428803D01*
X89435989Y-60428799D01*
X89407578Y-60352629D01*
X89402513Y-60281817D01*
X89416516Y-60245597D01*
X89419427Y-60240556D01*
X89478442Y-60058928D01*
X89498404Y-59869000D01*
X89478442Y-59679072D01*
X89419427Y-59497444D01*
X89323940Y-59332056D01*
X89323938Y-59332054D01*
X89323934Y-59332048D01*
X89196155Y-59190135D01*
X89041652Y-59077882D01*
X88867188Y-59000206D01*
X88680387Y-58960500D01*
X88624494Y-58960500D01*
X88556373Y-58940498D01*
X88535399Y-58923595D01*
X88309199Y-58697395D01*
X88275173Y-58635083D01*
X88280238Y-58564268D01*
X88309199Y-58519205D01*
X89843710Y-56984695D01*
X91407605Y-55420800D01*
X91469917Y-55386774D01*
X91540733Y-55391839D01*
G37*
%TD.AperFunction*%
%TA.AperFunction,Conductor*%
G36*
X90312903Y-37908266D02*
G01*
X90357966Y-37937227D01*
X90367189Y-37946450D01*
X90367196Y-37946455D01*
X90510394Y-38031143D01*
X90510397Y-38031143D01*
X90510399Y-38031145D01*
X90670169Y-38077562D01*
X90707488Y-38080499D01*
X90707489Y-38080500D01*
X90707498Y-38080500D01*
X91221906Y-38080500D01*
X91290027Y-38100502D01*
X91311001Y-38117405D01*
X97948300Y-44754704D01*
X97982326Y-44817016D01*
X97977261Y-44887831D01*
X97964689Y-44912714D01*
X97861139Y-45071210D01*
X97770703Y-45277386D01*
X97770702Y-45277387D01*
X97715437Y-45495624D01*
X97715436Y-45495630D01*
X97715436Y-45495632D01*
X97696844Y-45720000D01*
X97713116Y-45916374D01*
X97715437Y-45944375D01*
X97770702Y-46162612D01*
X97770703Y-46162613D01*
X97770704Y-46162616D01*
X97856229Y-46357595D01*
X97861141Y-46368793D01*
X97984275Y-46557265D01*
X97984279Y-46557270D01*
X98136762Y-46722908D01*
X98191331Y-46765381D01*
X98314424Y-46861189D01*
X98347680Y-46879186D01*
X98398071Y-46929200D01*
X98413423Y-46998516D01*
X98388862Y-47065129D01*
X98347680Y-47100814D01*
X98314426Y-47118810D01*
X98314424Y-47118811D01*
X98136762Y-47257091D01*
X97984279Y-47422729D01*
X97984275Y-47422734D01*
X97861141Y-47611206D01*
X97770703Y-47817386D01*
X97770702Y-47817387D01*
X97715437Y-48035624D01*
X97715436Y-48035630D01*
X97715436Y-48035632D01*
X97696844Y-48260000D01*
X97712480Y-48448700D01*
X97715437Y-48484375D01*
X97770702Y-48702612D01*
X97770703Y-48702613D01*
X97770704Y-48702616D01*
X97860280Y-48906831D01*
X97861141Y-48908793D01*
X97987128Y-49101631D01*
X97985276Y-49102840D01*
X98007886Y-49160204D01*
X97994076Y-49229844D01*
X97971489Y-49260604D01*
X94949267Y-52282829D01*
X94861031Y-52371064D01*
X94861026Y-52371071D01*
X94854524Y-52380803D01*
X94791700Y-52474825D01*
X94785189Y-52490544D01*
X94744606Y-52588520D01*
X94743945Y-52590115D01*
X94734128Y-52639468D01*
X94719600Y-52712503D01*
X94719600Y-57537206D01*
X94699598Y-57605327D01*
X94682695Y-57626301D01*
X93104795Y-59204201D01*
X93042483Y-59238227D01*
X92971668Y-59233162D01*
X92914832Y-59190615D01*
X92890021Y-59124095D01*
X92889700Y-59115106D01*
X92889700Y-51502524D01*
X92909702Y-51434403D01*
X92922058Y-51418220D01*
X92995240Y-51336944D01*
X93090727Y-51171556D01*
X93149742Y-50989928D01*
X93169704Y-50800000D01*
X93149742Y-50610072D01*
X93090727Y-50428444D01*
X92995240Y-50263056D01*
X92995238Y-50263054D01*
X92995234Y-50263048D01*
X92867455Y-50121135D01*
X92712952Y-50008882D01*
X92538488Y-49931206D01*
X92351687Y-49891500D01*
X92160713Y-49891500D01*
X91973911Y-49931206D01*
X91799447Y-50008882D01*
X91644944Y-50121135D01*
X91517165Y-50263048D01*
X91517158Y-50263058D01*
X91421676Y-50428438D01*
X91421673Y-50428444D01*
X91420812Y-50431094D01*
X91362657Y-50610072D01*
X91342696Y-50800000D01*
X91362657Y-50989927D01*
X91377206Y-51034702D01*
X91421673Y-51171556D01*
X91421676Y-51171561D01*
X91511697Y-51327483D01*
X91517160Y-51336944D01*
X91590337Y-51418215D01*
X91621053Y-51482220D01*
X91622700Y-51502524D01*
X91622700Y-52473906D01*
X91602698Y-52542027D01*
X91549042Y-52588520D01*
X91478768Y-52598624D01*
X91414188Y-52569130D01*
X91407605Y-52563001D01*
X91128272Y-52283668D01*
X91094246Y-52221356D01*
X91097763Y-52154940D01*
X91138392Y-52032330D01*
X91138394Y-52032318D01*
X91148999Y-51928516D01*
X91149000Y-51928516D01*
X91149000Y-51882000D01*
X88683000Y-51882000D01*
X88683000Y-51890300D01*
X88662998Y-51958421D01*
X88609342Y-52004914D01*
X88557000Y-52016300D01*
X69933491Y-52016300D01*
X69865370Y-51996298D01*
X69844396Y-51979395D01*
X69813001Y-51948000D01*
X67346999Y-51948000D01*
X67315604Y-51979395D01*
X67253292Y-52013421D01*
X67226509Y-52016300D01*
X64764712Y-52016300D01*
X64713464Y-52005407D01*
X64698188Y-51998606D01*
X64698184Y-51998604D01*
X64583479Y-51974222D01*
X64521006Y-51940494D01*
X64489844Y-51889913D01*
X64487273Y-51882000D01*
X64435527Y-51722744D01*
X64340040Y-51557356D01*
X64266863Y-51476084D01*
X64236146Y-51412076D01*
X64234500Y-51391774D01*
X64234500Y-49428666D01*
X64254502Y-49360545D01*
X64283281Y-49329101D01*
X64285402Y-49327455D01*
X64285407Y-49327453D01*
X64285410Y-49327449D01*
X64286792Y-49326378D01*
X64352879Y-49300436D01*
X64422501Y-49314341D01*
X64441239Y-49326385D01*
X64442100Y-49327052D01*
X64585200Y-49411681D01*
X64744600Y-49457991D01*
X64744600Y-47800000D01*
X64764602Y-47731879D01*
X64818258Y-47685386D01*
X64870600Y-47674000D01*
X65126600Y-47674000D01*
X65194721Y-47694002D01*
X65241214Y-47747658D01*
X65252600Y-47800000D01*
X65252600Y-49457991D01*
X65411999Y-49411681D01*
X65555102Y-49327051D01*
X65672650Y-49209503D01*
X65672651Y-49209501D01*
X65757281Y-49066401D01*
X65803665Y-48906749D01*
X65806599Y-48869456D01*
X65806599Y-48103376D01*
X65826601Y-48035255D01*
X65880257Y-47988762D01*
X65950531Y-47978658D01*
X66006660Y-48001440D01*
X66049848Y-48032818D01*
X66224312Y-48110494D01*
X66411113Y-48150200D01*
X66467006Y-48150200D01*
X66535127Y-48170202D01*
X66556101Y-48187105D01*
X68212301Y-49843305D01*
X68246327Y-49905617D01*
X68241262Y-49976432D01*
X68198715Y-50033268D01*
X68132195Y-50058079D01*
X68123206Y-50058400D01*
X67768432Y-50058400D01*
X67700311Y-50038398D01*
X67653818Y-49984742D01*
X67643122Y-49945572D01*
X67640042Y-49916272D01*
X67627493Y-49877652D01*
X67581027Y-49734644D01*
X67485540Y-49569256D01*
X67485538Y-49569254D01*
X67485534Y-49569248D01*
X67357755Y-49427335D01*
X67203252Y-49315082D01*
X67028788Y-49237406D01*
X66841987Y-49197700D01*
X66651013Y-49197700D01*
X66464211Y-49237406D01*
X66289747Y-49315082D01*
X66135244Y-49427335D01*
X66007465Y-49569248D01*
X66007458Y-49569258D01*
X65911976Y-49734638D01*
X65911973Y-49734645D01*
X65852957Y-49916272D01*
X65832996Y-50106200D01*
X65852957Y-50296127D01*
X65853295Y-50297166D01*
X65911973Y-50477756D01*
X65911976Y-50477761D01*
X66007458Y-50643141D01*
X66007465Y-50643151D01*
X66135244Y-50785064D01*
X66135247Y-50785066D01*
X66289748Y-50897318D01*
X66464212Y-50974994D01*
X66651013Y-51014700D01*
X66706906Y-51014700D01*
X66775027Y-51034702D01*
X66796001Y-51051605D01*
X66928367Y-51183971D01*
X67032125Y-51253300D01*
X67127630Y-51292860D01*
X67147412Y-51301054D01*
X67147413Y-51301054D01*
X67147415Y-51301055D01*
X67245582Y-51320581D01*
X67308491Y-51353488D01*
X67343623Y-51415183D01*
X67346451Y-51439452D01*
X67346999Y-51440000D01*
X69813001Y-51440000D01*
X69817738Y-51435262D01*
X69833002Y-51383279D01*
X69886658Y-51336786D01*
X69929424Y-51327483D01*
X88683000Y-51327483D01*
X88683000Y-51374000D01*
X89662000Y-51374000D01*
X90170000Y-51374000D01*
X91149000Y-51374000D01*
X91149000Y-51327483D01*
X91138394Y-51223681D01*
X91138393Y-51223678D01*
X91082657Y-51055474D01*
X90989634Y-50904660D01*
X90989629Y-50904654D01*
X90864345Y-50779370D01*
X90864339Y-50779365D01*
X90713525Y-50686342D01*
X90545321Y-50630606D01*
X90545318Y-50630605D01*
X90441516Y-50620000D01*
X90170000Y-50620000D01*
X90170000Y-51374000D01*
X89662000Y-51374000D01*
X89662000Y-50620000D01*
X89390483Y-50620000D01*
X89286681Y-50630605D01*
X89286678Y-50630606D01*
X89118474Y-50686342D01*
X88967660Y-50779365D01*
X88967654Y-50779370D01*
X88842370Y-50904654D01*
X88842365Y-50904660D01*
X88749342Y-51055474D01*
X88693606Y-51223678D01*
X88693605Y-51223681D01*
X88683000Y-51327483D01*
X69929424Y-51327483D01*
X69939000Y-51325400D01*
X82971293Y-51325400D01*
X82971294Y-51325400D01*
X83093685Y-51301055D01*
X83208975Y-51253300D01*
X83312733Y-51183971D01*
X84998299Y-49498405D01*
X85060611Y-49464379D01*
X85087394Y-49461500D01*
X85382711Y-49461500D01*
X85382711Y-49461499D01*
X85420031Y-49458562D01*
X85579801Y-49412145D01*
X85579803Y-49412143D01*
X85579805Y-49412143D01*
X85672708Y-49357200D01*
X85723007Y-49327453D01*
X85723015Y-49327444D01*
X85724376Y-49326390D01*
X85725654Y-49325887D01*
X85729831Y-49323418D01*
X85730229Y-49324091D01*
X85790459Y-49300437D01*
X85860083Y-49314332D01*
X85878839Y-49326385D01*
X85879700Y-49327052D01*
X86022800Y-49411681D01*
X86182200Y-49457991D01*
X86690200Y-49457991D01*
X86849599Y-49411681D01*
X86992702Y-49327051D01*
X87110250Y-49209503D01*
X87110251Y-49209501D01*
X87194881Y-49066401D01*
X87241265Y-48906749D01*
X87244200Y-48869456D01*
X87244200Y-48182000D01*
X86690200Y-48182000D01*
X86690200Y-49457991D01*
X86182200Y-49457991D01*
X86182200Y-47674000D01*
X86690200Y-47674000D01*
X87244199Y-47674000D01*
X87244199Y-46986543D01*
X87241265Y-46949249D01*
X87194881Y-46789599D01*
X87110251Y-46646498D01*
X87110250Y-46646496D01*
X86992703Y-46528949D01*
X86992701Y-46528948D01*
X86849601Y-46444318D01*
X86690200Y-46398007D01*
X86690200Y-47674000D01*
X86182200Y-47674000D01*
X86182200Y-46398007D01*
X86022798Y-46444318D01*
X85879699Y-46528946D01*
X85878839Y-46529614D01*
X85878040Y-46529927D01*
X85872879Y-46532980D01*
X85872386Y-46532147D01*
X85812754Y-46555562D01*
X85743131Y-46541663D01*
X85724384Y-46529615D01*
X85723003Y-46528544D01*
X85579805Y-46443856D01*
X85420029Y-46397437D01*
X85382711Y-46394500D01*
X85382702Y-46394500D01*
X84949698Y-46394500D01*
X84949689Y-46394500D01*
X84912371Y-46397437D01*
X84912370Y-46397437D01*
X84752594Y-46443856D01*
X84609397Y-46528543D01*
X84608425Y-46529298D01*
X84607523Y-46529652D01*
X84602569Y-46532582D01*
X84602096Y-46531782D01*
X84542339Y-46555244D01*
X84472717Y-46541342D01*
X84453975Y-46529298D01*
X84453002Y-46528543D01*
X84309805Y-46443856D01*
X84150029Y-46397437D01*
X84112711Y-46394500D01*
X84112702Y-46394500D01*
X83679698Y-46394500D01*
X83679689Y-46394500D01*
X83642371Y-46397437D01*
X83642370Y-46397437D01*
X83482594Y-46443856D01*
X83339397Y-46528543D01*
X83338425Y-46529298D01*
X83337523Y-46529652D01*
X83332569Y-46532582D01*
X83332096Y-46531782D01*
X83272339Y-46555244D01*
X83202717Y-46541342D01*
X83183975Y-46529298D01*
X83183002Y-46528543D01*
X83039805Y-46443856D01*
X82880029Y-46397437D01*
X82842711Y-46394500D01*
X82842702Y-46394500D01*
X82409698Y-46394500D01*
X82409689Y-46394500D01*
X82372371Y-46397437D01*
X82372370Y-46397437D01*
X82212594Y-46443856D01*
X82069397Y-46528543D01*
X82068425Y-46529298D01*
X82067523Y-46529652D01*
X82062569Y-46532582D01*
X82062096Y-46531782D01*
X82002339Y-46555244D01*
X81932717Y-46541342D01*
X81913975Y-46529298D01*
X81913005Y-46528545D01*
X81848882Y-46490623D01*
X81800430Y-46438730D01*
X81787725Y-46368880D01*
X81814801Y-46303249D01*
X81823918Y-46293084D01*
X90179778Y-37937225D01*
X90242088Y-37903201D01*
X90312903Y-37908266D01*
G37*
%TD.AperFunction*%
%TA.AperFunction,Conductor*%
G36*
X51245593Y-45634023D02*
G01*
X51297900Y-45682029D01*
X51309831Y-45708156D01*
X51321504Y-45744080D01*
X51409292Y-45916374D01*
X51522952Y-46072814D01*
X51522954Y-46072816D01*
X51522956Y-46072819D01*
X51576920Y-46126783D01*
X51610946Y-46189095D01*
X51605881Y-46259910D01*
X51576921Y-46304973D01*
X51111967Y-46769929D01*
X51023727Y-46858169D01*
X51023726Y-46858171D01*
X51009685Y-46879186D01*
X50954400Y-46961925D01*
X50906645Y-47077215D01*
X50902298Y-47099070D01*
X50882300Y-47199603D01*
X50882300Y-48792205D01*
X50862298Y-48860326D01*
X50845395Y-48881300D01*
X48805019Y-50921675D01*
X48742707Y-50955701D01*
X48671891Y-50950636D01*
X48615056Y-50908089D01*
X48608683Y-50898726D01*
X48571636Y-50838663D01*
X48571629Y-50838654D01*
X48446345Y-50713370D01*
X48446339Y-50713365D01*
X48295525Y-50620342D01*
X48127321Y-50564606D01*
X48127318Y-50564605D01*
X48023516Y-50554000D01*
X47752000Y-50554000D01*
X47752000Y-51639900D01*
X47731998Y-51708021D01*
X47678342Y-51754514D01*
X47626000Y-51765900D01*
X45202494Y-51765900D01*
X45134373Y-51745898D01*
X45113399Y-51728995D01*
X44645887Y-51261483D01*
X46265000Y-51261483D01*
X46265000Y-51308000D01*
X47244000Y-51308000D01*
X47244000Y-50554000D01*
X46972483Y-50554000D01*
X46868681Y-50564605D01*
X46868678Y-50564606D01*
X46700474Y-50620342D01*
X46549660Y-50713365D01*
X46549654Y-50713370D01*
X46424370Y-50838654D01*
X46424365Y-50838660D01*
X46331342Y-50989474D01*
X46275606Y-51157678D01*
X46275605Y-51157681D01*
X46265000Y-51261483D01*
X44645887Y-51261483D01*
X42992575Y-49608171D01*
X42958549Y-49545859D01*
X42963614Y-49475044D01*
X43006161Y-49418208D01*
X43072681Y-49393397D01*
X43142055Y-49408488D01*
X43145810Y-49410623D01*
X43147599Y-49411681D01*
X43307000Y-49457991D01*
X43815000Y-49457991D01*
X43974399Y-49411681D01*
X44117502Y-49327051D01*
X44235050Y-49209503D01*
X44235051Y-49209501D01*
X44319681Y-49066401D01*
X44366065Y-48906749D01*
X44369000Y-48869456D01*
X44369000Y-48182000D01*
X43815000Y-48182000D01*
X43815000Y-49457991D01*
X43307000Y-49457991D01*
X43307000Y-47800000D01*
X43327002Y-47731879D01*
X43380658Y-47685386D01*
X43433000Y-47674000D01*
X44368999Y-47674000D01*
X44368999Y-47335100D01*
X44389001Y-47266979D01*
X44442657Y-47220486D01*
X44494999Y-47209100D01*
X47647993Y-47209100D01*
X47647994Y-47209100D01*
X47770385Y-47184755D01*
X47885675Y-47137000D01*
X47989433Y-47067671D01*
X48894528Y-46162575D01*
X48956837Y-46128553D01*
X49027652Y-46133617D01*
X49072715Y-46162578D01*
X49119680Y-46209543D01*
X49119683Y-46209545D01*
X49119686Y-46209548D01*
X49276126Y-46323208D01*
X49448420Y-46410996D01*
X49632320Y-46470748D01*
X49632321Y-46470748D01*
X49632326Y-46470750D01*
X49823315Y-46501000D01*
X49823318Y-46501000D01*
X50016682Y-46501000D01*
X50016685Y-46501000D01*
X50207674Y-46470750D01*
X50391580Y-46410996D01*
X50563874Y-46323208D01*
X50720314Y-46209548D01*
X50857048Y-46072814D01*
X50970708Y-45916374D01*
X51058496Y-45744080D01*
X51070167Y-45708158D01*
X51110240Y-45649553D01*
X51175637Y-45621916D01*
X51245593Y-45634023D01*
G37*
%TD.AperFunction*%
%TA.AperFunction,Conductor*%
G36*
X61405593Y-45634023D02*
G01*
X61457900Y-45682029D01*
X61469831Y-45708156D01*
X61481504Y-45744080D01*
X61569292Y-45916374D01*
X61682952Y-46072814D01*
X61682954Y-46072816D01*
X61682956Y-46072819D01*
X61819680Y-46209543D01*
X61819683Y-46209545D01*
X61819686Y-46209548D01*
X61889004Y-46259910D01*
X61943390Y-46299424D01*
X61986744Y-46355646D01*
X61992819Y-46426382D01*
X61959688Y-46489174D01*
X61933470Y-46509813D01*
X61901792Y-46528547D01*
X61900825Y-46529298D01*
X61899928Y-46529649D01*
X61894971Y-46532582D01*
X61894497Y-46531782D01*
X61834739Y-46555244D01*
X61765117Y-46541342D01*
X61746375Y-46529298D01*
X61745402Y-46528543D01*
X61602205Y-46443856D01*
X61442429Y-46397437D01*
X61405111Y-46394500D01*
X61405102Y-46394500D01*
X60999553Y-46394500D01*
X60931432Y-46374498D01*
X60884939Y-46320842D01*
X60874835Y-46250568D01*
X60904329Y-46185988D01*
X60910458Y-46179405D01*
X61017043Y-46072819D01*
X61017048Y-46072814D01*
X61130708Y-45916374D01*
X61218496Y-45744080D01*
X61230167Y-45708158D01*
X61270240Y-45649553D01*
X61335637Y-45621916D01*
X61405593Y-45634023D01*
G37*
%TD.AperFunction*%
%TA.AperFunction,Conductor*%
G36*
X28309703Y-36949566D02*
G01*
X28354766Y-36978527D01*
X28372689Y-36996450D01*
X28372696Y-36996455D01*
X28515894Y-37081143D01*
X28515897Y-37081143D01*
X28515899Y-37081145D01*
X28675669Y-37127562D01*
X28712988Y-37130499D01*
X28712989Y-37130500D01*
X28712998Y-37130500D01*
X28732455Y-37130500D01*
X28800576Y-37150502D01*
X28837220Y-37186498D01*
X28874929Y-37242933D01*
X30707129Y-39075133D01*
X30795367Y-39163371D01*
X30899125Y-39232700D01*
X31014415Y-39280455D01*
X31136806Y-39304800D01*
X49068406Y-39304800D01*
X49136527Y-39324802D01*
X49157501Y-39341705D01*
X52455577Y-42639781D01*
X52489603Y-42702093D01*
X52491792Y-42715705D01*
X52509157Y-42880927D01*
X52533428Y-42955624D01*
X52568173Y-43062556D01*
X52568176Y-43062561D01*
X52663658Y-43227941D01*
X52663661Y-43227945D01*
X52712270Y-43281931D01*
X52742987Y-43345939D01*
X52734222Y-43416392D01*
X52688759Y-43470923D01*
X52621031Y-43492218D01*
X52598923Y-43490690D01*
X52556685Y-43484000D01*
X52363315Y-43484000D01*
X52172326Y-43514250D01*
X52172320Y-43514251D01*
X51988424Y-43574002D01*
X51988418Y-43574005D01*
X51816122Y-43661794D01*
X51659683Y-43775454D01*
X51659680Y-43775456D01*
X51522956Y-43912180D01*
X51522954Y-43912183D01*
X51409294Y-44068622D01*
X51321505Y-44240918D01*
X51321504Y-44240920D01*
X51309833Y-44276841D01*
X51269759Y-44335446D01*
X51204362Y-44363083D01*
X51134406Y-44350976D01*
X51082100Y-44302970D01*
X51070168Y-44276843D01*
X51058496Y-44240920D01*
X50970708Y-44068626D01*
X50857048Y-43912186D01*
X50857045Y-43912183D01*
X50857043Y-43912180D01*
X50720319Y-43775456D01*
X50720316Y-43775454D01*
X50720315Y-43775453D01*
X50720314Y-43775452D01*
X50563874Y-43661792D01*
X50391580Y-43574004D01*
X50391577Y-43574003D01*
X50391575Y-43574002D01*
X50207678Y-43514251D01*
X50207681Y-43514251D01*
X50172121Y-43508618D01*
X50016685Y-43484000D01*
X49823315Y-43484000D01*
X49632326Y-43514250D01*
X49632320Y-43514251D01*
X49448424Y-43574002D01*
X49448418Y-43574005D01*
X49276122Y-43661794D01*
X49119683Y-43775454D01*
X49119680Y-43775456D01*
X48982956Y-43912180D01*
X48982954Y-43912183D01*
X48869294Y-44068622D01*
X48781502Y-44240923D01*
X48769831Y-44276842D01*
X48729756Y-44335447D01*
X48664359Y-44363082D01*
X48594402Y-44350974D01*
X48542097Y-44302966D01*
X48530169Y-44276848D01*
X48518496Y-44240920D01*
X48430708Y-44068626D01*
X48317048Y-43912186D01*
X48317045Y-43912183D01*
X48317043Y-43912180D01*
X48180319Y-43775456D01*
X48180316Y-43775454D01*
X48180315Y-43775453D01*
X48180314Y-43775452D01*
X48023874Y-43661792D01*
X47851580Y-43574004D01*
X47851577Y-43574003D01*
X47851575Y-43574002D01*
X47667678Y-43514251D01*
X47667681Y-43514251D01*
X47632121Y-43508618D01*
X47476685Y-43484000D01*
X47283315Y-43484000D01*
X47092326Y-43514250D01*
X47092320Y-43514251D01*
X46908424Y-43574002D01*
X46908418Y-43574005D01*
X46736122Y-43661794D01*
X46579685Y-43775452D01*
X46532716Y-43822421D01*
X46470403Y-43856446D01*
X46399587Y-43851380D01*
X46354526Y-43822421D01*
X46193897Y-43661792D01*
X45688233Y-43156129D01*
X45584475Y-43086800D01*
X45469185Y-43039045D01*
X45395486Y-43024385D01*
X45346796Y-43014700D01*
X45346794Y-43014700D01*
X39393294Y-43014700D01*
X39268506Y-43014700D01*
X39268503Y-43014700D01*
X39195468Y-43029228D01*
X39146115Y-43039045D01*
X39146113Y-43039045D01*
X39146112Y-43039046D01*
X39089360Y-43062554D01*
X39032342Y-43086172D01*
X39030823Y-43086801D01*
X38927071Y-43156126D01*
X38927069Y-43156127D01*
X38253123Y-43830071D01*
X38190811Y-43864096D01*
X38119995Y-43859031D01*
X38074933Y-43830070D01*
X38020319Y-43775456D01*
X38020316Y-43775454D01*
X38020315Y-43775453D01*
X38020314Y-43775452D01*
X37863874Y-43661792D01*
X37691580Y-43574004D01*
X37691577Y-43574003D01*
X37691575Y-43574002D01*
X37507678Y-43514251D01*
X37507681Y-43514251D01*
X37472121Y-43508618D01*
X37316685Y-43484000D01*
X37123315Y-43484000D01*
X36932326Y-43514250D01*
X36932320Y-43514251D01*
X36748424Y-43574002D01*
X36748418Y-43574005D01*
X36576122Y-43661794D01*
X36419683Y-43775454D01*
X36419680Y-43775456D01*
X36282956Y-43912180D01*
X36282954Y-43912183D01*
X36169294Y-44068622D01*
X36081504Y-44240919D01*
X36060223Y-44306415D01*
X36020148Y-44365020D01*
X35988607Y-44383886D01*
X35956147Y-44397330D01*
X35956147Y-44397331D01*
X35874625Y-44431099D01*
X35770867Y-44500427D01*
X35018701Y-45252595D01*
X34956388Y-45286620D01*
X34929605Y-45289500D01*
X30236500Y-45289500D01*
X30168379Y-45269498D01*
X30121886Y-45215842D01*
X30110500Y-45163500D01*
X30110500Y-44975600D01*
X30130502Y-44907479D01*
X30184158Y-44860986D01*
X30236500Y-44849600D01*
X32770793Y-44849600D01*
X32770794Y-44849600D01*
X32893185Y-44825255D01*
X32958765Y-44798090D01*
X33006982Y-44788500D01*
X35015000Y-44788500D01*
X35015000Y-44741983D01*
X35004394Y-44638181D01*
X35004393Y-44638178D01*
X34948657Y-44469974D01*
X34855634Y-44319160D01*
X34855629Y-44319154D01*
X34730344Y-44193869D01*
X34727551Y-44191661D01*
X34726131Y-44189656D01*
X34725150Y-44188675D01*
X34725317Y-44188507D01*
X34686519Y-44133722D01*
X34683325Y-44062798D01*
X34718983Y-44001405D01*
X34727554Y-43993978D01*
X34730639Y-43991537D01*
X34730652Y-43991530D01*
X34856030Y-43866152D01*
X34949115Y-43715238D01*
X35004887Y-43546926D01*
X35015500Y-43443045D01*
X35015499Y-42841956D01*
X35004887Y-42738074D01*
X34949115Y-42569762D01*
X34856030Y-42418848D01*
X34856029Y-42418847D01*
X34856024Y-42418841D01*
X34730658Y-42293475D01*
X34730652Y-42293470D01*
X34579738Y-42200385D01*
X34439924Y-42154056D01*
X34411427Y-42144613D01*
X34411420Y-42144612D01*
X34307553Y-42134000D01*
X33256455Y-42134000D01*
X33152574Y-42144612D01*
X32984261Y-42200385D01*
X32833347Y-42293470D01*
X32833341Y-42293475D01*
X32707975Y-42418841D01*
X32707970Y-42418847D01*
X32614885Y-42569762D01*
X32559113Y-42738072D01*
X32559112Y-42738079D01*
X32548500Y-42841946D01*
X32548500Y-43427903D01*
X32528498Y-43496024D01*
X32511599Y-43516995D01*
X32482904Y-43545692D01*
X32420593Y-43579720D01*
X32393805Y-43582600D01*
X30236000Y-43582600D01*
X30167879Y-43562598D01*
X30121386Y-43508942D01*
X30110000Y-43456600D01*
X30110000Y-42450000D01*
X28574000Y-42450000D01*
X28505879Y-42429998D01*
X28459386Y-42376342D01*
X28448000Y-42324000D01*
X28448000Y-41942000D01*
X28956000Y-41942000D01*
X30110000Y-41942000D01*
X30110000Y-40897414D01*
X30109999Y-40897402D01*
X30103494Y-40836906D01*
X30052444Y-40700035D01*
X30052444Y-40700034D01*
X29964904Y-40583095D01*
X29847965Y-40495555D01*
X29711093Y-40444505D01*
X29650597Y-40438000D01*
X28956000Y-40438000D01*
X28956000Y-41942000D01*
X28448000Y-41942000D01*
X28448000Y-40438000D01*
X27753402Y-40438000D01*
X27692906Y-40444505D01*
X27556035Y-40495555D01*
X27556034Y-40495555D01*
X27439095Y-40583095D01*
X27351555Y-40700034D01*
X27347238Y-40707943D01*
X27345242Y-40706853D01*
X27310204Y-40753656D01*
X27243683Y-40778463D01*
X27174309Y-40763369D01*
X27124109Y-40713164D01*
X27108700Y-40652784D01*
X27108700Y-38098594D01*
X27128702Y-38030473D01*
X27145605Y-38009499D01*
X27629281Y-37525823D01*
X28176578Y-36978525D01*
X28238888Y-36944502D01*
X28309703Y-36949566D01*
G37*
%TD.AperFunction*%
%TA.AperFunction,Conductor*%
G36*
X85148907Y-38073339D02*
G01*
X85160680Y-38086926D01*
X85196595Y-38134904D01*
X85313533Y-38222443D01*
X85317688Y-38223993D01*
X85321235Y-38226648D01*
X85321443Y-38226762D01*
X85321426Y-38226791D01*
X85374523Y-38266540D01*
X85399334Y-38333061D01*
X85384242Y-38402435D01*
X85362750Y-38431144D01*
X79843601Y-43950295D01*
X79781289Y-43984321D01*
X79754506Y-43987200D01*
X78209903Y-43987200D01*
X78138492Y-44001405D01*
X78087515Y-44011545D01*
X78087513Y-44011545D01*
X78087512Y-44011546D01*
X77972223Y-44059301D01*
X77868471Y-44128626D01*
X77868464Y-44128631D01*
X76763595Y-45233500D01*
X76701283Y-45267526D01*
X76630467Y-45262461D01*
X76573632Y-45219914D01*
X76548821Y-45153394D01*
X76548500Y-45144405D01*
X76548500Y-44615818D01*
X76541177Y-44569581D01*
X76518250Y-44424826D01*
X76458496Y-44240920D01*
X76370708Y-44068626D01*
X76265458Y-43923761D01*
X76241599Y-43856893D01*
X76257680Y-43787741D01*
X76308594Y-43738261D01*
X76367394Y-43723700D01*
X78090093Y-43723700D01*
X78090094Y-43723700D01*
X78212485Y-43699355D01*
X78327775Y-43651600D01*
X78431533Y-43582271D01*
X83696400Y-38317405D01*
X83758712Y-38283379D01*
X83785495Y-38280500D01*
X84608132Y-38280500D01*
X84608138Y-38280500D01*
X84608145Y-38280499D01*
X84608149Y-38280499D01*
X84668696Y-38273990D01*
X84668699Y-38273989D01*
X84668701Y-38273989D01*
X84670211Y-38273426D01*
X84688672Y-38266540D01*
X84805704Y-38222889D01*
X84806299Y-38222444D01*
X84869943Y-38174800D01*
X84922761Y-38135261D01*
X84958944Y-38086926D01*
X85015779Y-38044380D01*
X85086595Y-38039314D01*
X85148907Y-38073339D01*
G37*
%TD.AperFunction*%
%TA.AperFunction,Conductor*%
G36*
X53224621Y-35200202D02*
G01*
X53271114Y-35253858D01*
X53282500Y-35306200D01*
X53282500Y-35722000D01*
X53940500Y-35722000D01*
X53940500Y-35673414D01*
X53940499Y-35673402D01*
X53933994Y-35612906D01*
X53933993Y-35612904D01*
X53925837Y-35591037D01*
X53920769Y-35520222D01*
X53925837Y-35502963D01*
X53933993Y-35481095D01*
X53933994Y-35481093D01*
X53940499Y-35420597D01*
X53940500Y-35420585D01*
X53940500Y-35306200D01*
X53960502Y-35238079D01*
X54014158Y-35191586D01*
X54066500Y-35180200D01*
X54469606Y-35180200D01*
X54537727Y-35200202D01*
X54558701Y-35217105D01*
X55284757Y-35943161D01*
X55318783Y-36005473D01*
X55316856Y-36061702D01*
X55317595Y-36061837D01*
X55316680Y-36066847D01*
X55316661Y-36067402D01*
X55316439Y-36068165D01*
X55316437Y-36068175D01*
X55313500Y-36105488D01*
X55313500Y-36538511D01*
X55316437Y-36575828D01*
X55316437Y-36575829D01*
X55362856Y-36735605D01*
X55447544Y-36878803D01*
X55447549Y-36878810D01*
X55565189Y-36996450D01*
X55565196Y-36996455D01*
X55708395Y-37081143D01*
X55708396Y-37081143D01*
X55708399Y-37081145D01*
X55835154Y-37117970D01*
X55894988Y-37156181D01*
X55924666Y-37220677D01*
X55926000Y-37238966D01*
X55926000Y-37825896D01*
X55927493Y-37833400D01*
X55950345Y-37948285D01*
X55998100Y-38063575D01*
X56067429Y-38167333D01*
X56067431Y-38167335D01*
X57293677Y-39393581D01*
X57327703Y-39455893D01*
X57329892Y-39469505D01*
X57347257Y-39634727D01*
X57365866Y-39691998D01*
X57406273Y-39816356D01*
X57406276Y-39816361D01*
X57501758Y-39981741D01*
X57501765Y-39981751D01*
X57629544Y-40123664D01*
X57629547Y-40123666D01*
X57784048Y-40235918D01*
X57958512Y-40313594D01*
X58145313Y-40353300D01*
X58336287Y-40353300D01*
X58523088Y-40313594D01*
X58697552Y-40235918D01*
X58852053Y-40123666D01*
X58867528Y-40106479D01*
X58979834Y-39981751D01*
X58979835Y-39981749D01*
X58979840Y-39981744D01*
X59075327Y-39816356D01*
X59134342Y-39634728D01*
X59154304Y-39444800D01*
X59134342Y-39254872D01*
X59075327Y-39073244D01*
X58979840Y-38907856D01*
X58979838Y-38907854D01*
X58979834Y-38907848D01*
X58872922Y-38789110D01*
X58842204Y-38725103D01*
X58850969Y-38654649D01*
X58896432Y-38600118D01*
X58964159Y-38578823D01*
X58966558Y-38578800D01*
X59246693Y-38578800D01*
X59246694Y-38578800D01*
X59369085Y-38554455D01*
X59484375Y-38506700D01*
X59588133Y-38437371D01*
X60381906Y-37643597D01*
X60444217Y-37609574D01*
X60515033Y-37614639D01*
X60571868Y-37657186D01*
X60596679Y-37723706D01*
X60597000Y-37732695D01*
X60597000Y-43415337D01*
X60576998Y-43483458D01*
X60523342Y-43529951D01*
X60453068Y-43540055D01*
X60432066Y-43535171D01*
X60367677Y-43514251D01*
X60367674Y-43514250D01*
X60176685Y-43484000D01*
X59983315Y-43484000D01*
X59792326Y-43514250D01*
X59792320Y-43514251D01*
X59608424Y-43574002D01*
X59608418Y-43574005D01*
X59436122Y-43661794D01*
X59279683Y-43775454D01*
X59279680Y-43775456D01*
X59142956Y-43912180D01*
X59142954Y-43912183D01*
X59029294Y-44068622D01*
X58941505Y-44240918D01*
X58941504Y-44240920D01*
X58929833Y-44276841D01*
X58889759Y-44335446D01*
X58824362Y-44363083D01*
X58754406Y-44350976D01*
X58702100Y-44302970D01*
X58690168Y-44276843D01*
X58678496Y-44240920D01*
X58590708Y-44068626D01*
X58477048Y-43912186D01*
X58477045Y-43912183D01*
X58477043Y-43912180D01*
X58340319Y-43775456D01*
X58340316Y-43775454D01*
X58340315Y-43775453D01*
X58340314Y-43775452D01*
X58183874Y-43661792D01*
X58011580Y-43574004D01*
X58011577Y-43574003D01*
X58011575Y-43574002D01*
X57827678Y-43514251D01*
X57827681Y-43514251D01*
X57792121Y-43508618D01*
X57636685Y-43484000D01*
X57443315Y-43484000D01*
X57252326Y-43514250D01*
X57252320Y-43514251D01*
X57068424Y-43574002D01*
X57068418Y-43574005D01*
X56896122Y-43661794D01*
X56739683Y-43775454D01*
X56739680Y-43775456D01*
X56602956Y-43912180D01*
X56602954Y-43912183D01*
X56489294Y-44068622D01*
X56401505Y-44240918D01*
X56401504Y-44240920D01*
X56389833Y-44276841D01*
X56349759Y-44335446D01*
X56284362Y-44363083D01*
X56214406Y-44350976D01*
X56162100Y-44302970D01*
X56150168Y-44276843D01*
X56138496Y-44240920D01*
X56050708Y-44068626D01*
X55937048Y-43912186D01*
X55937045Y-43912183D01*
X55937043Y-43912180D01*
X55800319Y-43775456D01*
X55800316Y-43775454D01*
X55800315Y-43775453D01*
X55800314Y-43775452D01*
X55643874Y-43661792D01*
X55471580Y-43574004D01*
X55471577Y-43574003D01*
X55471575Y-43574002D01*
X55287678Y-43514251D01*
X55287681Y-43514251D01*
X55252121Y-43508618D01*
X55096685Y-43484000D01*
X54903315Y-43484000D01*
X54712326Y-43514250D01*
X54712320Y-43514251D01*
X54528424Y-43574002D01*
X54528418Y-43574005D01*
X54356122Y-43661794D01*
X54199683Y-43775454D01*
X54199680Y-43775456D01*
X54062956Y-43912180D01*
X54062954Y-43912183D01*
X53949294Y-44068622D01*
X53861505Y-44240918D01*
X53861504Y-44240920D01*
X53849833Y-44276841D01*
X53809759Y-44335446D01*
X53744362Y-44363083D01*
X53674406Y-44350976D01*
X53622100Y-44302970D01*
X53610168Y-44276843D01*
X53598496Y-44240920D01*
X53510708Y-44068626D01*
X53397048Y-43912186D01*
X53397045Y-43912183D01*
X53397043Y-43912180D01*
X53299458Y-43814595D01*
X53265432Y-43752283D01*
X53270497Y-43681468D01*
X53313044Y-43624632D01*
X53379564Y-43599821D01*
X53388553Y-43599500D01*
X53498187Y-43599500D01*
X53684988Y-43559794D01*
X53859452Y-43482118D01*
X54013953Y-43369866D01*
X54141740Y-43227944D01*
X54237227Y-43062556D01*
X54296242Y-42880928D01*
X54316204Y-42691000D01*
X54296242Y-42501072D01*
X54237227Y-42319444D01*
X54141740Y-42154056D01*
X54141738Y-42154054D01*
X54141734Y-42154048D01*
X54013955Y-42012135D01*
X53859452Y-41899882D01*
X53684988Y-41822206D01*
X53519184Y-41786963D01*
X53456710Y-41753234D01*
X53422389Y-41691085D01*
X53427117Y-41620246D01*
X53451743Y-41579406D01*
X53540040Y-41481344D01*
X53635527Y-41315956D01*
X53694542Y-41134328D01*
X53714504Y-40944400D01*
X53694542Y-40754472D01*
X53635527Y-40572844D01*
X53540040Y-40407456D01*
X53540038Y-40407454D01*
X53540034Y-40407448D01*
X53412255Y-40265535D01*
X53257752Y-40153282D01*
X53083288Y-40075606D01*
X52896487Y-40035900D01*
X52840594Y-40035900D01*
X52772473Y-40015898D01*
X52751499Y-39998995D01*
X52628205Y-39875701D01*
X52594179Y-39813389D01*
X52591300Y-39786606D01*
X52591300Y-38406000D01*
X52611302Y-38337879D01*
X52664958Y-38291386D01*
X52717300Y-38280000D01*
X52782500Y-38280000D01*
X53282500Y-38280000D01*
X53481085Y-38280000D01*
X53481097Y-38279999D01*
X53541593Y-38273494D01*
X53678464Y-38222444D01*
X53678465Y-38222444D01*
X53795404Y-38134904D01*
X53882944Y-38017965D01*
X53882944Y-38017964D01*
X53933994Y-37881093D01*
X53940499Y-37820597D01*
X53940500Y-37820585D01*
X53940500Y-37772000D01*
X53282500Y-37772000D01*
X53282500Y-38280000D01*
X52782500Y-38280000D01*
X52782500Y-37272000D01*
X53282500Y-37272000D01*
X53940500Y-37272000D01*
X53940500Y-37223414D01*
X53940499Y-37223402D01*
X53933994Y-37162906D01*
X53933993Y-37162904D01*
X53925837Y-37141037D01*
X53920769Y-37070222D01*
X53925837Y-37052963D01*
X53933993Y-37031095D01*
X53933994Y-37031093D01*
X53940499Y-36970597D01*
X53940500Y-36970585D01*
X53940500Y-36922000D01*
X53282500Y-36922000D01*
X53282500Y-37272000D01*
X52782500Y-37272000D01*
X52782500Y-36823191D01*
X52802502Y-36755070D01*
X52819405Y-36734096D01*
X52832500Y-36721001D01*
X52832500Y-36522000D01*
X53232500Y-36522000D01*
X53940500Y-36522000D01*
X53940500Y-36473414D01*
X53940499Y-36473402D01*
X53933994Y-36412906D01*
X53933993Y-36412901D01*
X53916512Y-36366034D01*
X53911446Y-36295218D01*
X53916512Y-36277966D01*
X53933993Y-36231098D01*
X53933994Y-36231093D01*
X53940499Y-36170597D01*
X53940500Y-36170585D01*
X53940500Y-36122000D01*
X53232500Y-36122000D01*
X53232500Y-36522000D01*
X52832500Y-36522000D01*
X52832500Y-35922999D01*
X52819405Y-35909904D01*
X52785379Y-35847592D01*
X52782500Y-35820809D01*
X52782500Y-35306200D01*
X52802502Y-35238079D01*
X52856158Y-35191586D01*
X52908500Y-35180200D01*
X53156500Y-35180200D01*
X53224621Y-35200202D01*
G37*
%TD.AperFunction*%
%TA.AperFunction,Conductor*%
G36*
X86151621Y-35174002D02*
G01*
X86198114Y-35227658D01*
X86209500Y-35280000D01*
X86209500Y-35722000D01*
X86819705Y-35722000D01*
X86887826Y-35742002D01*
X86908798Y-35758902D01*
X87150896Y-36001001D01*
X87382800Y-36232905D01*
X87416825Y-36295217D01*
X87411760Y-36366033D01*
X87382799Y-36411095D01*
X86908798Y-36885096D01*
X86846488Y-36919120D01*
X86819705Y-36922000D01*
X86209500Y-36922000D01*
X86209500Y-37532205D01*
X86189498Y-37600326D01*
X86172595Y-37621300D01*
X86058800Y-37735095D01*
X85996488Y-37769121D01*
X85969705Y-37772000D01*
X85835500Y-37772000D01*
X85767379Y-37751998D01*
X85720886Y-37698342D01*
X85709500Y-37646000D01*
X85709500Y-36823191D01*
X85729502Y-36755070D01*
X85746405Y-36734096D01*
X85759500Y-36721001D01*
X85759500Y-36522000D01*
X86159500Y-36522000D01*
X86867500Y-36522000D01*
X86867500Y-36473414D01*
X86867499Y-36473402D01*
X86860994Y-36412906D01*
X86860993Y-36412901D01*
X86843512Y-36366034D01*
X86838446Y-36295218D01*
X86843512Y-36277966D01*
X86860993Y-36231098D01*
X86860994Y-36231093D01*
X86867499Y-36170597D01*
X86867500Y-36170585D01*
X86867500Y-36122000D01*
X86159500Y-36122000D01*
X86159500Y-36522000D01*
X85759500Y-36522000D01*
X85759500Y-35922999D01*
X85746405Y-35909904D01*
X85712379Y-35847592D01*
X85709500Y-35820809D01*
X85709500Y-35280000D01*
X85729502Y-35211879D01*
X85783158Y-35165386D01*
X85835500Y-35154000D01*
X86083500Y-35154000D01*
X86151621Y-35174002D01*
G37*
%TD.AperFunction*%
%TA.AperFunction,Conductor*%
G36*
X93434921Y-26482502D02*
G01*
X93481414Y-26536158D01*
X93492800Y-26588500D01*
X93492800Y-30899974D01*
X93472798Y-30968095D01*
X93460437Y-30984284D01*
X93387257Y-31065559D01*
X93291776Y-31230938D01*
X93291773Y-31230945D01*
X93232757Y-31412572D01*
X93215392Y-31577793D01*
X93188379Y-31643450D01*
X93179177Y-31653717D01*
X91458199Y-33374696D01*
X91395889Y-33408720D01*
X91369106Y-33411600D01*
X81897003Y-33411600D01*
X81823968Y-33426128D01*
X81774615Y-33435945D01*
X81774613Y-33435945D01*
X81774612Y-33435946D01*
X81659323Y-33483701D01*
X81555571Y-33553026D01*
X81555564Y-33553031D01*
X80582001Y-34526595D01*
X80519689Y-34560621D01*
X80492906Y-34563500D01*
X79978489Y-34563500D01*
X79941171Y-34566437D01*
X79941170Y-34566437D01*
X79781394Y-34612856D01*
X79638196Y-34697544D01*
X79638189Y-34697549D01*
X79634144Y-34701595D01*
X79571832Y-34735621D01*
X79545049Y-34738500D01*
X75985451Y-34738500D01*
X75917330Y-34718498D01*
X75896356Y-34701595D01*
X75892310Y-34697549D01*
X75892303Y-34697544D01*
X75749105Y-34612856D01*
X75589329Y-34566437D01*
X75552011Y-34563500D01*
X75552002Y-34563500D01*
X75037595Y-34563500D01*
X74969474Y-34543498D01*
X74948500Y-34526595D01*
X73783735Y-33361831D01*
X73783733Y-33361829D01*
X73679975Y-33292500D01*
X73564685Y-33244745D01*
X73490986Y-33230085D01*
X73442296Y-33220400D01*
X73442294Y-33220400D01*
X70721095Y-33220400D01*
X70652974Y-33200398D01*
X70632000Y-33183495D01*
X70572805Y-33124300D01*
X70538779Y-33061988D01*
X70535900Y-33035205D01*
X70535900Y-32872994D01*
X70555902Y-32804873D01*
X70572805Y-32783899D01*
X70593571Y-32763133D01*
X70662900Y-32659375D01*
X70710655Y-32544085D01*
X70735000Y-32421694D01*
X70735000Y-32412161D01*
X70755002Y-32344040D01*
X70760132Y-32336652D01*
X70776632Y-32314611D01*
X70802389Y-32280204D01*
X70808445Y-32263965D01*
X70850990Y-32207132D01*
X70917511Y-32182321D01*
X70986885Y-32197412D01*
X71037087Y-32247614D01*
X71044551Y-32263958D01*
X71046097Y-32268101D01*
X71050611Y-32280204D01*
X71076368Y-32314611D01*
X71101179Y-32381131D01*
X71101500Y-32390120D01*
X71101500Y-32542000D01*
X71150085Y-32542000D01*
X71150097Y-32541999D01*
X71210593Y-32535494D01*
X71210598Y-32535493D01*
X71256750Y-32518279D01*
X71327565Y-32513213D01*
X71344813Y-32518277D01*
X71356236Y-32522538D01*
X71392298Y-32535989D01*
X71392303Y-32535990D01*
X71452850Y-32542499D01*
X71452855Y-32542499D01*
X71452862Y-32542500D01*
X71452868Y-32542500D01*
X71950132Y-32542500D01*
X71950138Y-32542500D01*
X71950145Y-32542499D01*
X71950149Y-32542499D01*
X72010696Y-32535990D01*
X72010699Y-32535989D01*
X72010701Y-32535989D01*
X72033182Y-32527603D01*
X72103996Y-32522538D01*
X72121246Y-32527603D01*
X72142404Y-32535494D01*
X72142403Y-32535494D01*
X72202902Y-32541999D01*
X72202915Y-32542000D01*
X72251500Y-32542000D01*
X72751500Y-32542000D01*
X72800085Y-32542000D01*
X72800097Y-32541999D01*
X72860593Y-32535494D01*
X72997464Y-32484444D01*
X72997465Y-32484444D01*
X73114404Y-32396904D01*
X73201944Y-32279965D01*
X73201944Y-32279964D01*
X73252994Y-32143093D01*
X73259499Y-32082597D01*
X73259500Y-32082585D01*
X73259500Y-31884000D01*
X72751500Y-31884000D01*
X72751500Y-32542000D01*
X72251500Y-32542000D01*
X72251500Y-32456912D01*
X72271502Y-32388791D01*
X72276620Y-32381419D01*
X72352389Y-32280204D01*
X72403489Y-32143201D01*
X72404036Y-32138121D01*
X72409999Y-32082649D01*
X72410000Y-32082632D01*
X72410000Y-31668200D01*
X72430002Y-31600079D01*
X72483658Y-31553586D01*
X72536000Y-31542200D01*
X73062593Y-31542200D01*
X73062594Y-31542200D01*
X73184985Y-31517855D01*
X73300275Y-31470100D01*
X73404033Y-31400771D01*
X78063699Y-26741105D01*
X78126011Y-26707079D01*
X78152794Y-26704200D01*
X81510873Y-26704200D01*
X81578994Y-26724202D01*
X81625487Y-26777858D01*
X81636484Y-26820311D01*
X81639437Y-26857829D01*
X81685856Y-27017605D01*
X81770544Y-27160803D01*
X81770549Y-27160810D01*
X81888189Y-27278450D01*
X81888196Y-27278455D01*
X82031395Y-27363143D01*
X82031396Y-27363143D01*
X82031399Y-27363145D01*
X82158154Y-27399970D01*
X82217988Y-27438181D01*
X82247666Y-27502677D01*
X82249000Y-27520966D01*
X82249000Y-28459306D01*
X82249000Y-28584094D01*
X82273345Y-28706485D01*
X82321100Y-28821775D01*
X82390429Y-28925533D01*
X82390431Y-28925535D01*
X84546901Y-31082006D01*
X84580927Y-31144318D01*
X84582949Y-31181976D01*
X84583181Y-31181989D01*
X84583065Y-31184142D01*
X84583087Y-31184541D01*
X84583001Y-31185336D01*
X84583000Y-31185367D01*
X84583000Y-32082649D01*
X84589509Y-32143196D01*
X84589511Y-32143204D01*
X84640610Y-32280202D01*
X84640612Y-32280207D01*
X84728238Y-32397261D01*
X84845292Y-32484887D01*
X84845294Y-32484888D01*
X84845296Y-32484889D01*
X84895746Y-32503706D01*
X84982295Y-32535988D01*
X84982303Y-32535990D01*
X85042850Y-32542499D01*
X85042855Y-32542499D01*
X85042862Y-32542500D01*
X85042868Y-32542500D01*
X85640132Y-32542500D01*
X85640138Y-32542500D01*
X85640145Y-32542499D01*
X85640149Y-32542499D01*
X85700696Y-32535990D01*
X85700699Y-32535989D01*
X85700701Y-32535989D01*
X85723182Y-32527603D01*
X85793996Y-32522538D01*
X85811246Y-32527603D01*
X85832404Y-32535494D01*
X85832403Y-32535494D01*
X85892902Y-32541999D01*
X85892915Y-32542000D01*
X85941500Y-32542000D01*
X85941500Y-32456912D01*
X85961502Y-32388791D01*
X85966620Y-32381419D01*
X86042389Y-32280204D01*
X86048445Y-32263965D01*
X86090990Y-32207132D01*
X86157511Y-32182321D01*
X86226885Y-32197412D01*
X86277087Y-32247614D01*
X86284551Y-32263958D01*
X86286097Y-32268101D01*
X86290611Y-32280204D01*
X86316368Y-32314611D01*
X86341179Y-32381131D01*
X86341500Y-32390120D01*
X86341500Y-32542000D01*
X86390085Y-32542000D01*
X86390097Y-32541999D01*
X86450593Y-32535494D01*
X86450598Y-32535493D01*
X86496750Y-32518279D01*
X86567565Y-32513213D01*
X86584813Y-32518277D01*
X86596236Y-32522538D01*
X86632298Y-32535989D01*
X86632303Y-32535990D01*
X86692850Y-32542499D01*
X86692855Y-32542499D01*
X86692862Y-32542500D01*
X86692868Y-32542500D01*
X87190132Y-32542500D01*
X87190138Y-32542500D01*
X87190145Y-32542499D01*
X87190149Y-32542499D01*
X87250696Y-32535990D01*
X87250699Y-32535989D01*
X87250701Y-32535989D01*
X87273182Y-32527603D01*
X87343996Y-32522538D01*
X87361246Y-32527603D01*
X87382404Y-32535494D01*
X87382403Y-32535494D01*
X87442902Y-32541999D01*
X87442915Y-32542000D01*
X87491500Y-32542000D01*
X87991500Y-32542000D01*
X88040085Y-32542000D01*
X88040097Y-32541999D01*
X88100593Y-32535494D01*
X88237464Y-32484444D01*
X88237465Y-32484444D01*
X88354404Y-32396904D01*
X88441944Y-32279965D01*
X88441944Y-32279964D01*
X88492994Y-32143093D01*
X88499499Y-32082597D01*
X88499500Y-32082585D01*
X88499500Y-31884000D01*
X87991500Y-31884000D01*
X87991500Y-32542000D01*
X87491500Y-32542000D01*
X87491500Y-32456912D01*
X87511502Y-32388791D01*
X87516620Y-32381419D01*
X87592389Y-32280204D01*
X87643489Y-32143201D01*
X87644036Y-32138121D01*
X87649999Y-32082649D01*
X87650000Y-32082632D01*
X87650000Y-31510000D01*
X87670002Y-31441879D01*
X87723658Y-31395386D01*
X87776000Y-31384000D01*
X88499500Y-31384000D01*
X88499500Y-31185414D01*
X88499499Y-31185402D01*
X88492994Y-31124906D01*
X88441944Y-30988035D01*
X88441944Y-30988034D01*
X88354404Y-30871095D01*
X88306426Y-30835180D01*
X88263879Y-30778345D01*
X88258814Y-30707529D01*
X88292839Y-30645217D01*
X88306422Y-30633446D01*
X88354761Y-30597261D01*
X88442389Y-30480204D01*
X88493489Y-30343201D01*
X88500000Y-30282638D01*
X88500000Y-29868200D01*
X88520002Y-29800079D01*
X88573658Y-29753586D01*
X88626000Y-29742200D01*
X89848293Y-29742200D01*
X89848294Y-29742200D01*
X89970685Y-29717855D01*
X90085975Y-29670100D01*
X90189733Y-29600771D01*
X93232471Y-26558033D01*
X93258887Y-26518497D01*
X93313363Y-26472971D01*
X93363652Y-26462500D01*
X93366800Y-26462500D01*
X93434921Y-26482502D01*
G37*
%TD.AperFunction*%
%TA.AperFunction,Conductor*%
G36*
X61827527Y-27257502D02*
G01*
X61874020Y-27311158D01*
X61884124Y-27381432D01*
X61854630Y-27446012D01*
X61848501Y-27452595D01*
X60738431Y-28562664D01*
X60738426Y-28562671D01*
X60670780Y-28663911D01*
X60669100Y-28666425D01*
X60621345Y-28781715D01*
X60620265Y-28787144D01*
X60597000Y-28904103D01*
X60597000Y-33729706D01*
X60576998Y-33797827D01*
X60523342Y-33844320D01*
X60453068Y-33854424D01*
X60388488Y-33824930D01*
X60381905Y-33818801D01*
X58900535Y-32337431D01*
X58900533Y-32337429D01*
X58796775Y-32268100D01*
X58681485Y-32220345D01*
X58607786Y-32205685D01*
X58559096Y-32196000D01*
X58559094Y-32196000D01*
X58145500Y-32196000D01*
X58077379Y-32175998D01*
X58030886Y-32122342D01*
X58019500Y-32070000D01*
X58019500Y-31884000D01*
X57296000Y-31884000D01*
X57227879Y-31863998D01*
X57181386Y-31810342D01*
X57170000Y-31758000D01*
X57170000Y-31668200D01*
X57190002Y-31600079D01*
X57243658Y-31553586D01*
X57296000Y-31542200D01*
X57382593Y-31542200D01*
X57382594Y-31542200D01*
X57504985Y-31517855D01*
X57620275Y-31470100D01*
X57717352Y-31405234D01*
X57785105Y-31384020D01*
X57787354Y-31384000D01*
X58019500Y-31384000D01*
X58019500Y-31185414D01*
X58019499Y-31185396D01*
X58018168Y-31173022D01*
X58030770Y-31103153D01*
X58054342Y-31070461D01*
X59425971Y-29698833D01*
X59495300Y-29595075D01*
X59543055Y-29479785D01*
X59546548Y-29462226D01*
X59552713Y-29431231D01*
X59552713Y-29431229D01*
X59567399Y-29357397D01*
X59567400Y-29357394D01*
X59567400Y-27520966D01*
X59587402Y-27452845D01*
X59641058Y-27406352D01*
X59658238Y-27399972D01*
X59785001Y-27363145D01*
X59928207Y-27278453D01*
X59928210Y-27278450D01*
X59932256Y-27274405D01*
X59994568Y-27240379D01*
X60021351Y-27237500D01*
X61759406Y-27237500D01*
X61827527Y-27257502D01*
G37*
%TD.AperFunction*%
%TA.AperFunction,Conductor*%
G36*
X49931770Y-27257502D02*
G01*
X49952744Y-27274405D01*
X49956789Y-27278450D01*
X49956796Y-27278455D01*
X50099994Y-27363143D01*
X50099997Y-27363143D01*
X50099999Y-27363145D01*
X50259769Y-27409562D01*
X50297088Y-27412499D01*
X50297089Y-27412500D01*
X50297098Y-27412500D01*
X50375705Y-27412500D01*
X50443826Y-27432502D01*
X50464800Y-27449405D01*
X54069862Y-31054467D01*
X54103888Y-31116779D01*
X54106045Y-31157028D01*
X54103001Y-31185345D01*
X54103000Y-31185367D01*
X54103000Y-32070000D01*
X54082998Y-32138121D01*
X54029342Y-32184614D01*
X53977000Y-32196000D01*
X42905500Y-32196000D01*
X42837379Y-32175998D01*
X42790886Y-32122342D01*
X42779500Y-32070000D01*
X42779500Y-31884000D01*
X42056000Y-31884000D01*
X41987879Y-31863998D01*
X41941386Y-31810342D01*
X41930000Y-31758000D01*
X41930000Y-31668200D01*
X41950002Y-31600079D01*
X42003658Y-31553586D01*
X42056000Y-31542200D01*
X42145293Y-31542200D01*
X42145294Y-31542200D01*
X42267685Y-31517855D01*
X42382975Y-31470100D01*
X42480052Y-31405234D01*
X42547805Y-31384020D01*
X42550054Y-31384000D01*
X42779500Y-31384000D01*
X42779500Y-31185414D01*
X42779499Y-31185401D01*
X42778430Y-31175462D01*
X42791031Y-31105593D01*
X42814606Y-31072897D01*
X46613099Y-27274405D01*
X46675411Y-27240379D01*
X46702194Y-27237500D01*
X49863649Y-27237500D01*
X49931770Y-27257502D01*
G37*
%TD.AperFunction*%
%TA.AperFunction,Conductor*%
G36*
X104431636Y-21610002D02*
G01*
X104478129Y-21663658D01*
X104488233Y-21733932D01*
X104458739Y-21798512D01*
X104440906Y-21815432D01*
X104267778Y-21950182D01*
X104267774Y-21950186D01*
X104109685Y-22121916D01*
X103982015Y-22317331D01*
X103888252Y-22531089D01*
X103888249Y-22531096D01*
X103830950Y-22757366D01*
X103830949Y-22757372D01*
X103830949Y-22757374D01*
X103811673Y-22990000D01*
X103820167Y-23092512D01*
X103830950Y-23222633D01*
X103888249Y-23448903D01*
X103888252Y-23448910D01*
X103982015Y-23662668D01*
X104109685Y-23858083D01*
X104267774Y-24029813D01*
X104267778Y-24029817D01*
X104318011Y-24068915D01*
X104451983Y-24173190D01*
X104657273Y-24284287D01*
X104878049Y-24360080D01*
X105108288Y-24398500D01*
X105108292Y-24398500D01*
X105341708Y-24398500D01*
X105341712Y-24398500D01*
X105571951Y-24360080D01*
X105792727Y-24284287D01*
X105998017Y-24173190D01*
X106182220Y-24029818D01*
X106182470Y-24029547D01*
X106340314Y-23858083D01*
X106385634Y-23788715D01*
X106467984Y-23662669D01*
X106561749Y-23448907D01*
X106619051Y-23222626D01*
X106638327Y-22990000D01*
X106619051Y-22757374D01*
X106561749Y-22531093D01*
X106467984Y-22317331D01*
X106464962Y-22312706D01*
X106340314Y-22121916D01*
X106182225Y-21950186D01*
X106182221Y-21950182D01*
X106062618Y-21857091D01*
X106009093Y-21815431D01*
X105967623Y-21757807D01*
X105963889Y-21686908D01*
X105999079Y-21625246D01*
X106062020Y-21592398D01*
X106086485Y-21590000D01*
X109813515Y-21590000D01*
X109881636Y-21610002D01*
X109928129Y-21663658D01*
X109938233Y-21733932D01*
X109908739Y-21798512D01*
X109890906Y-21815432D01*
X109717778Y-21950182D01*
X109717774Y-21950186D01*
X109559685Y-22121916D01*
X109432015Y-22317331D01*
X109338252Y-22531089D01*
X109338249Y-22531096D01*
X109280950Y-22757366D01*
X109280949Y-22757372D01*
X109280949Y-22757374D01*
X109261673Y-22990000D01*
X109270167Y-23092512D01*
X109280950Y-23222633D01*
X109338249Y-23448903D01*
X109338252Y-23448910D01*
X109432015Y-23662668D01*
X109559685Y-23858083D01*
X109717774Y-24029813D01*
X109717778Y-24029817D01*
X109768011Y-24068915D01*
X109901983Y-24173190D01*
X110107273Y-24284287D01*
X110328049Y-24360080D01*
X110558288Y-24398500D01*
X110558292Y-24398500D01*
X110791708Y-24398500D01*
X110791712Y-24398500D01*
X111021951Y-24360080D01*
X111242727Y-24284287D01*
X111448017Y-24173190D01*
X111632220Y-24029818D01*
X111632470Y-24029547D01*
X111790314Y-23858083D01*
X111835634Y-23788715D01*
X111917984Y-23662669D01*
X112011749Y-23448907D01*
X112069051Y-23222626D01*
X112088327Y-22990000D01*
X112069051Y-22757374D01*
X112011749Y-22531093D01*
X111917984Y-22317331D01*
X111914962Y-22312706D01*
X111790314Y-22121916D01*
X111632225Y-21950186D01*
X111632221Y-21950182D01*
X111512618Y-21857091D01*
X111459093Y-21815431D01*
X111417623Y-21757807D01*
X111413889Y-21686908D01*
X111449079Y-21625246D01*
X111512020Y-21592398D01*
X111536485Y-21590000D01*
X115893711Y-21590000D01*
X115961832Y-21610002D01*
X116008325Y-21663658D01*
X116018429Y-21733932D01*
X115988935Y-21798512D01*
X115971102Y-21815432D01*
X115917097Y-21857465D01*
X115764674Y-22023041D01*
X115641580Y-22211451D01*
X115551179Y-22417543D01*
X115551176Y-22417550D01*
X115503455Y-22605999D01*
X115503456Y-22606000D01*
X116397749Y-22606000D01*
X116364755Y-22663147D01*
X116330000Y-22792857D01*
X116330000Y-22927143D01*
X116364755Y-23056853D01*
X116397749Y-23114000D01*
X115503455Y-23114000D01*
X115551176Y-23302449D01*
X115551179Y-23302456D01*
X115641580Y-23508548D01*
X115764674Y-23696958D01*
X115917097Y-23862534D01*
X116094698Y-24000767D01*
X116094704Y-24000771D01*
X116128207Y-24018902D01*
X116178597Y-24068915D01*
X116193949Y-24138232D01*
X116169388Y-24204845D01*
X116128207Y-24240528D01*
X116094430Y-24258807D01*
X116094424Y-24258811D01*
X115916762Y-24397091D01*
X115764279Y-24562729D01*
X115764275Y-24562734D01*
X115641141Y-24751206D01*
X115550703Y-24957386D01*
X115550702Y-24957387D01*
X115495437Y-25175624D01*
X115495436Y-25175630D01*
X115495436Y-25175632D01*
X115476844Y-25400000D01*
X115494570Y-25613920D01*
X115495437Y-25624375D01*
X115550702Y-25842612D01*
X115550704Y-25842618D01*
X115598316Y-25951164D01*
X115607362Y-26021581D01*
X115576901Y-26085711D01*
X115572024Y-26090871D01*
X115472502Y-26190394D01*
X115188298Y-26474597D01*
X115125989Y-26508621D01*
X115099205Y-26511501D01*
X111710404Y-26511501D01*
X111642283Y-26491499D01*
X111595790Y-26437843D01*
X111585686Y-26367569D01*
X111588697Y-26352890D01*
X111589426Y-26350169D01*
X111619115Y-26239371D01*
X111638307Y-26020000D01*
X111619115Y-25800629D01*
X111562120Y-25587924D01*
X111469056Y-25388347D01*
X111342749Y-25207962D01*
X111187038Y-25052251D01*
X111179970Y-25047302D01*
X111083209Y-24979549D01*
X111006654Y-24925944D01*
X110995003Y-24920511D01*
X110807079Y-24832881D01*
X110807073Y-24832879D01*
X110717178Y-24808791D01*
X110594371Y-24775885D01*
X110375000Y-24756693D01*
X110155629Y-24775885D01*
X109942926Y-24832879D01*
X109942920Y-24832881D01*
X109743346Y-24925944D01*
X109562965Y-25052248D01*
X109562959Y-25052253D01*
X109407253Y-25207959D01*
X109407248Y-25207965D01*
X109280944Y-25388346D01*
X109187881Y-25587920D01*
X109187879Y-25587926D01*
X109140171Y-25765975D01*
X109130885Y-25800629D01*
X109111693Y-26020000D01*
X109130885Y-26239371D01*
X109160574Y-26350169D01*
X109161303Y-26352890D01*
X109159613Y-26423866D01*
X109119819Y-26482662D01*
X109054555Y-26510610D01*
X109039596Y-26511501D01*
X106860404Y-26511501D01*
X106792283Y-26491499D01*
X106745790Y-26437843D01*
X106735686Y-26367569D01*
X106738697Y-26352890D01*
X106739426Y-26350169D01*
X106769115Y-26239371D01*
X106788307Y-26020000D01*
X106769115Y-25800629D01*
X106712120Y-25587924D01*
X106619056Y-25388347D01*
X106492749Y-25207962D01*
X106337038Y-25052251D01*
X106329970Y-25047302D01*
X106233209Y-24979549D01*
X106156654Y-24925944D01*
X106145003Y-24920511D01*
X105957079Y-24832881D01*
X105957073Y-24832879D01*
X105867178Y-24808791D01*
X105744371Y-24775885D01*
X105525000Y-24756693D01*
X105305629Y-24775885D01*
X105092926Y-24832879D01*
X105092920Y-24832881D01*
X104893346Y-24925944D01*
X104712965Y-25052248D01*
X104712959Y-25052253D01*
X104557253Y-25207959D01*
X104557248Y-25207965D01*
X104430944Y-25388346D01*
X104337881Y-25587920D01*
X104337879Y-25587926D01*
X104290171Y-25765975D01*
X104280885Y-25800629D01*
X104261693Y-26020000D01*
X104280885Y-26239371D01*
X104310574Y-26350169D01*
X104311303Y-26352890D01*
X104309613Y-26423866D01*
X104269819Y-26482662D01*
X104204555Y-26510610D01*
X104189596Y-26511501D01*
X103564995Y-26511501D01*
X103496874Y-26491499D01*
X103475900Y-26474596D01*
X100639235Y-23637931D01*
X100639233Y-23637929D01*
X100535475Y-23568600D01*
X100420185Y-23520845D01*
X100420184Y-23520844D01*
X100420180Y-23520843D01*
X100414271Y-23519051D01*
X100414657Y-23517776D01*
X100357822Y-23488041D01*
X100322694Y-23426344D01*
X100326499Y-23355449D01*
X100329932Y-23346762D01*
X100338530Y-23327160D01*
X100349296Y-23302616D01*
X100404564Y-23084368D01*
X100423156Y-22860000D01*
X100404564Y-22635632D01*
X100349338Y-22417550D01*
X100349297Y-22417387D01*
X100349296Y-22417386D01*
X100349296Y-22417384D01*
X100258860Y-22211209D01*
X100200397Y-22121724D01*
X100135724Y-22022734D01*
X100135720Y-22022729D01*
X100019570Y-21896559D01*
X99983240Y-21857094D01*
X99983239Y-21857093D01*
X99983237Y-21857091D01*
X99929713Y-21815432D01*
X99888242Y-21757807D01*
X99884508Y-21686908D01*
X99919698Y-21625246D01*
X99982639Y-21592398D01*
X100007104Y-21590000D01*
X104363515Y-21590000D01*
X104431636Y-21610002D01*
G37*
%TD.AperFunction*%
%TD*%
M02*
