M48
; DRILL file {KiCad 8.0.2} date 2025-01-04T14:29:43+0100
; FORMAT={-:-/ absolute / inch / decimal}
; #@! TF.CreationDate,2025-01-04T14:29:43+01:00
; #@! TF.GenerationSoftware,Kicad,Pcbnew,8.0.2
; #@! TF.FileFunction,Plated,1,2,PTH
FMAT,2
INCH
; #@! TA.AperFunction,Plated,PTH,ViaDrill
T1C0.0157
; #@! TA.AperFunction,Plated,PTH,ComponentDrill
T2C0.0354
; #@! TA.AperFunction,Plated,PTH,ComponentDrill
T3C0.0394
; #@! TA.AperFunction,Plated,PTH,ComponentDrill
T4C0.0402
; #@! TA.AperFunction,Plated,PTH,ComponentDrill
T5C0.0433
%
G90
G05
T1
X1.1573Y-2.5064
X1.1901Y-1.837
X1.4128Y-2.5041
X1.4317Y-2.0742
X1.4424Y-1.9468
X1.4879Y-2.5483
X1.552Y-1.4939
X1.5601Y-1.9513
X1.5739Y-1.1172
X1.6132Y-1.9535
X1.6229Y-1.049
X1.6644Y-1.135
X1.6992Y-2.3189
X1.701Y-1.49
X1.722Y-2.4325
X1.7825Y-2.2496
X1.8131Y-2.6017
X1.8219Y-2.2471
X1.879Y-2.2388
X1.9041Y-1.43
X1.9173Y-2.6214
X1.9357Y-2.181
X1.9466Y-1.439
X2.0567Y-1.8836
X2.0595Y-0.9678
X2.0788Y-1.612
X2.1025Y-1.6807
X2.1175Y-2.4359
X2.1693Y-2.181
X2.195Y-2.785
X2.2544Y-1.1312
X2.2558Y-2.1879
X2.2929Y-1.5529
X2.3165Y-1.3466
X2.34Y-2.56
X2.3609Y-2.0812
X2.4307Y-2.3138
X2.4651Y-2.0805
X2.504Y-2.051
X2.5249Y-2.3182
X2.535Y-2.6135
X2.5361Y-2.0814
X2.5945Y-1.5992
X2.5977Y-2.2098
X2.6137Y-2.4429
X2.6184Y-1.8599
X2.6278Y-1.9727
X2.6441Y-2.8358
X2.6705Y-2.8064
X2.6963Y-2.7765
X2.7203Y-1.7038
X2.7235Y-1.2865
X2.7837Y-1.3043
X2.8005Y-1.9432
X2.8077Y-1.3791
X2.8681Y-2.511
X2.8769Y-1.3663
X2.8805Y-1.1408
X2.9232Y-1.1012
X2.9816Y-2.1497
X3.0016Y-1.4675
X3.0155Y-2.6006
X3.0176Y-2.1741
X3.032Y-2.7592
X3.0711Y-2.4537
X3.1123Y-1.7251
X3.1221Y-2.0411
X3.1749Y-1.5029
X3.3715Y-2.6035
X3.439Y-2.2651
X3.4869Y-2.1172
X3.4876Y-2.357
X3.6321Y-2.0
X3.6767Y-1.0537
X3.7058Y-1.2442
X3.9534Y-1.148
T2
X1.8198Y-2.8
X1.9198Y-2.8
X2.31Y-2.8
X2.41Y-2.8
T3
X1.4654Y-1.7714
X1.4654Y-2.3714
X1.5654Y-1.7714
X1.5654Y-2.3714
X1.6654Y-1.7714
X1.6654Y-2.3714
X1.7654Y-1.7714
X1.7654Y-2.3714
X1.8654Y-1.7714
X1.8654Y-2.3714
X1.9654Y-1.7714
X1.9654Y-2.3714
X2.0654Y-1.7714
X2.0654Y-2.3714
X2.1654Y-1.7714
X2.1654Y-2.3714
X2.2654Y-1.7714
X2.2654Y-2.3714
X2.3654Y-1.7714
X2.3654Y-2.3714
X2.4654Y-1.7714
X2.4654Y-2.3714
X2.5654Y-1.7714
X2.5654Y-2.3714
X2.6654Y-1.7714
X2.6654Y-2.3714
X2.7654Y-1.7714
X2.7654Y-2.3714
X2.8654Y-1.7714
X2.8654Y-2.3714
X2.9654Y-1.7714
X2.9654Y-2.3714
T4
X3.9Y-0.9
X3.9Y-1.0
X3.9Y-1.1
X3.9Y-1.2
X3.9Y-1.3
X3.9Y-1.4
X3.9Y-1.5
X3.9Y-1.6
X3.9Y-1.7
X3.9Y-1.8
X3.9Y-1.9
X3.9Y-2.0
X3.9Y-2.1
X3.9Y-2.2
X3.9Y-2.3
X3.9Y-2.4
X3.9Y-2.5
X3.9Y-2.6
X3.9Y-2.7
X3.9Y-2.8
X4.15Y-2.7909
X4.25Y-2.7909
X4.35Y-2.7909
X4.6Y-0.9
X4.6Y-1.0
X4.6Y-1.1
X4.6Y-1.2
X4.6Y-1.3
X4.6Y-1.4
X4.6Y-1.5
X4.6Y-1.6
X4.6Y-1.7
X4.6Y-1.8
X4.6Y-1.9
X4.6Y-2.0
X4.6Y-2.1
X4.6Y-2.2
X4.6Y-2.3
X4.6Y-2.4
X4.6Y-2.5
X4.6Y-2.6
X4.6Y-2.7
X4.6Y-2.8
T5
X1.362Y-2.7114
X1.362Y-2.8886
X1.618Y-2.7114
X1.618Y-2.8886
M30
