%TF.GenerationSoftware,KiCad,Pcbnew,7.0.10*%
%TF.CreationDate,2024-04-06T15:07:32+02:00*%
%TF.ProjectId,pico-sst39sf0x0-pcb,7069636f-2d73-4737-9433-397366307830,2*%
%TF.SameCoordinates,Original*%
%TF.FileFunction,Copper,L1,Top*%
%TF.FilePolarity,Positive*%
%FSLAX46Y46*%
G04 Gerber Fmt 4.6, Leading zero omitted, Abs format (unit mm)*
G04 Created by KiCad (PCBNEW 7.0.10) date 2024-04-06 15:07:32*
%MOMM*%
%LPD*%
G01*
G04 APERTURE LIST*
%TA.AperFunction,ComponentPad*%
%ADD10O,1.700000X1.700000*%
%TD*%
%TA.AperFunction,SMDPad,CuDef*%
%ADD11R,3.500000X1.700000*%
%TD*%
%TA.AperFunction,ComponentPad*%
%ADD12R,1.700000X1.700000*%
%TD*%
%TA.AperFunction,SMDPad,CuDef*%
%ADD13R,1.700000X3.500000*%
%TD*%
%TA.AperFunction,ComponentPad*%
%ADD14R,1.440000X2.000000*%
%TD*%
%TA.AperFunction,ComponentPad*%
%ADD15O,1.440000X2.000000*%
%TD*%
%TA.AperFunction,ComponentPad*%
%ADD16C,2.000000*%
%TD*%
%TA.AperFunction,ComponentPad*%
%ADD17C,1.800000*%
%TD*%
%TA.AperFunction,ComponentPad*%
%ADD18R,1.800000X1.800000*%
%TD*%
%TA.AperFunction,ViaPad*%
%ADD19C,0.800000*%
%TD*%
%TA.AperFunction,Conductor*%
%ADD20C,0.250000*%
%TD*%
G04 APERTURE END LIST*
D10*
%TO.P,U5,1,GPIO0*%
%TO.N,LD0*%
X99060000Y-22860000D03*
D11*
X98160000Y-22860000D03*
D10*
%TO.P,U5,2,GPIO1*%
%TO.N,LD1*%
X99060000Y-25400000D03*
D11*
X98160000Y-25400000D03*
D12*
%TO.P,U5,3,GND*%
%TO.N,GND*%
X99060000Y-27940000D03*
D11*
X98160000Y-27940000D03*
D10*
%TO.P,U5,4,GPIO2*%
%TO.N,LD2*%
X99060000Y-30480000D03*
D11*
X98160000Y-30480000D03*
D10*
%TO.P,U5,5,GPIO3*%
%TO.N,LD3*%
X99060000Y-33020000D03*
D11*
X98160000Y-33020000D03*
D10*
%TO.P,U5,6,GPIO4*%
%TO.N,LD4*%
X99060000Y-35560000D03*
D11*
X98160000Y-35560000D03*
D10*
%TO.P,U5,7,GPIO5*%
%TO.N,LD5*%
X99060000Y-38100000D03*
D11*
X98160000Y-38100000D03*
D12*
%TO.P,U5,8,GND*%
%TO.N,GND*%
X99060000Y-40640000D03*
D11*
X98160000Y-40640000D03*
D10*
%TO.P,U5,9,GPIO6*%
%TO.N,LD6*%
X99060000Y-43180000D03*
D11*
X98160000Y-43180000D03*
D10*
%TO.P,U5,10,GPIO7*%
%TO.N,LD7*%
X99060000Y-45720000D03*
D11*
X98160000Y-45720000D03*
D10*
%TO.P,U5,11,GPIO8*%
%TO.N,LP0*%
X99060000Y-48260000D03*
D11*
X98160000Y-48260000D03*
D10*
%TO.P,U5,12,GPIO9*%
%TO.N,LP1*%
X99060000Y-50800000D03*
D11*
X98160000Y-50800000D03*
D12*
%TO.P,U5,13,GND*%
%TO.N,GND*%
X99060000Y-53340000D03*
D11*
X98160000Y-53340000D03*
D10*
%TO.P,U5,14,GPIO10*%
%TO.N,LP2*%
X99060000Y-55880000D03*
D11*
X98160000Y-55880000D03*
D10*
%TO.P,U5,15,GPIO11*%
%TO.N,LP3*%
X99060000Y-58420000D03*
D11*
X98160000Y-58420000D03*
D10*
%TO.P,U5,16,GPIO12*%
%TO.N,LP4*%
X99060000Y-60960000D03*
D11*
X98160000Y-60960000D03*
D10*
%TO.P,U5,17,GPIO13*%
%TO.N,LP5*%
X99060000Y-63500000D03*
D11*
X98160000Y-63500000D03*
D12*
%TO.P,U5,18,GND*%
%TO.N,GND*%
X99060000Y-66040000D03*
D11*
X98160000Y-66040000D03*
D10*
%TO.P,U5,19,GPIO14*%
%TO.N,LP6*%
X99060000Y-68580000D03*
D11*
X98160000Y-68580000D03*
D10*
%TO.P,U5,20,GPIO15*%
%TO.N,LP7*%
X99060000Y-71120000D03*
D11*
X98160000Y-71120000D03*
D10*
%TO.P,U5,21,GPIO16*%
%TO.N,~{LROE}*%
X116840000Y-71120000D03*
D11*
X117740000Y-71120000D03*
D10*
%TO.P,U5,22,GPIO17*%
%TO.N,LALS*%
X116840000Y-68580000D03*
D11*
X117740000Y-68580000D03*
D12*
%TO.P,U5,23,GND*%
%TO.N,GND*%
X116840000Y-66040000D03*
D11*
X117740000Y-66040000D03*
D10*
%TO.P,U5,24,GPIO18*%
%TO.N,LAHS*%
X116840000Y-63500000D03*
D11*
X117740000Y-63500000D03*
D10*
%TO.P,U5,25,GPIO19*%
%TO.N,LAUS*%
X116840000Y-60960000D03*
D11*
X117740000Y-60960000D03*
D10*
%TO.P,U5,26,GPIO20*%
%TO.N,~{LPGM}*%
X116840000Y-58420000D03*
D11*
X117740000Y-58420000D03*
D10*
%TO.P,U5,27,GPIO21*%
%TO.N,~{LCE}*%
X116840000Y-55880000D03*
D11*
X117740000Y-55880000D03*
D12*
%TO.P,U5,28,GND*%
%TO.N,GND*%
X116840000Y-53340000D03*
D11*
X117740000Y-53340000D03*
D10*
%TO.P,U5,29,GPIO22*%
%TO.N,~{LOE}*%
X116840000Y-50800000D03*
D11*
X117740000Y-50800000D03*
D10*
%TO.P,U5,30,RUN*%
%TO.N,RUN*%
X116840000Y-48260000D03*
D11*
X117740000Y-48260000D03*
D10*
%TO.P,U5,31,GPIO26_ADC0*%
%TO.N,GPIO26_3v3*%
X116840000Y-45720000D03*
D11*
X117740000Y-45720000D03*
D10*
%TO.P,U5,32,GPIO27_ADC1*%
%TO.N,GPIO27_3v3*%
X116840000Y-43180000D03*
D11*
X117740000Y-43180000D03*
D12*
%TO.P,U5,33,AGND*%
%TO.N,GND*%
X116840000Y-40640000D03*
D11*
X117740000Y-40640000D03*
D10*
%TO.P,U5,34,GPIO28_ADC2*%
%TO.N,unconnected-(U5-GPIO28_ADC2-Pad34)*%
X116840000Y-38100000D03*
D11*
X117740000Y-38100000D03*
D10*
%TO.P,U5,35,ADC_VREF*%
%TO.N,unconnected-(U5-ADC_VREF-Pad35)*%
X116840000Y-35560000D03*
D11*
X117740000Y-35560000D03*
D10*
%TO.P,U5,36,3V3*%
%TO.N,+3V3*%
X116840000Y-33020000D03*
D11*
X117740000Y-33020000D03*
D10*
%TO.P,U5,37,3V3_EN*%
%TO.N,unconnected-(U5-3V3_EN-Pad37)*%
X116840000Y-30480000D03*
D11*
X117740000Y-30480000D03*
D12*
%TO.P,U5,38,GND*%
%TO.N,GND*%
X116840000Y-27940000D03*
D11*
X117740000Y-27940000D03*
D10*
%TO.P,U5,39,VSYS*%
%TO.N,unconnected-(U5-VSYS-Pad39)*%
X116840000Y-25400000D03*
D11*
X117740000Y-25400000D03*
D10*
%TO.P,U5,40,VBUS*%
%TO.N,+5V*%
X116840000Y-22860000D03*
D11*
X117740000Y-22860000D03*
D10*
%TO.P,U5,41,SWCLK*%
%TO.N,unconnected-(U5-SWCLK-Pad41)*%
X105410000Y-70890000D03*
D13*
X105410000Y-71790000D03*
D12*
%TO.P,U5,42,GND*%
%TO.N,GND*%
X107950000Y-70890000D03*
D13*
X107950000Y-71790000D03*
D10*
%TO.P,U5,43,SWDIO*%
%TO.N,unconnected-(U5-SWDIO-Pad43)*%
X110490000Y-70890000D03*
D13*
X110490000Y-71790000D03*
%TD*%
D14*
%TO.P,U2,1,A18*%
%TO.N,A18*%
X37220000Y-60232500D03*
D15*
%TO.P,U2,2,A16*%
%TO.N,A16*%
X39760000Y-60232500D03*
%TO.P,U2,3,A15*%
%TO.N,A15*%
X42300000Y-60232500D03*
%TO.P,U2,4,A12*%
%TO.N,A12*%
X44840000Y-60232500D03*
%TO.P,U2,5,A7*%
%TO.N,A7*%
X47380000Y-60232500D03*
%TO.P,U2,6,A6*%
%TO.N,A6*%
X49920000Y-60232500D03*
%TO.P,U2,7,A5*%
%TO.N,A5*%
X52460000Y-60232500D03*
%TO.P,U2,8,A4*%
%TO.N,A4*%
X55000000Y-60232500D03*
%TO.P,U2,9,A3*%
%TO.N,A3*%
X57540000Y-60232500D03*
%TO.P,U2,10,A2*%
%TO.N,A2*%
X60080000Y-60232500D03*
%TO.P,U2,11,A1*%
%TO.N,A1*%
X62620000Y-60232500D03*
%TO.P,U2,12,A0*%
%TO.N,A0*%
X65160000Y-60232500D03*
%TO.P,U2,13,D0*%
%TO.N,D0*%
X67700000Y-60232500D03*
%TO.P,U2,14,D1*%
%TO.N,D1*%
X70240000Y-60232500D03*
%TO.P,U2,15,D2*%
%TO.N,D2*%
X72780000Y-60232500D03*
%TO.P,U2,16,GND*%
%TO.N,GND*%
X75320000Y-60232500D03*
%TO.P,U2,17,D3*%
%TO.N,D3*%
X75320000Y-44992500D03*
%TO.P,U2,18,D4*%
%TO.N,D4*%
X72780000Y-44992500D03*
%TO.P,U2,19,D5*%
%TO.N,D5*%
X70240000Y-44992500D03*
%TO.P,U2,20,D6*%
%TO.N,D6*%
X67700000Y-44992500D03*
%TO.P,U2,21,D7*%
%TO.N,D7*%
X65160000Y-44992500D03*
%TO.P,U2,22,CE*%
%TO.N,~{CE}*%
X62620000Y-44992500D03*
%TO.P,U2,23,A10*%
%TO.N,A10*%
X60080000Y-44992500D03*
%TO.P,U2,24,OE*%
%TO.N,~{OE}*%
X57540000Y-44992500D03*
%TO.P,U2,25,A11*%
%TO.N,A11*%
X55000000Y-44992500D03*
%TO.P,U2,26,A9*%
%TO.N,A9*%
X52460000Y-44992500D03*
%TO.P,U2,27,A8*%
%TO.N,A8*%
X49920000Y-44992500D03*
%TO.P,U2,28,A13*%
%TO.N,A13*%
X47380000Y-44992500D03*
%TO.P,U2,29,A14*%
%TO.N,A14*%
X44840000Y-44992500D03*
%TO.P,U2,30,A17*%
%TO.N,A17*%
X42300000Y-44992500D03*
%TO.P,U2,31,PGM*%
%TO.N,~{PGM}*%
X39760000Y-44992500D03*
%TO.P,U2,32,VCC*%
%TO.N,Net-(D1-K)*%
X37220000Y-44992500D03*
%TD*%
D16*
%TO.P,SW1,1,1*%
%TO.N,RUN*%
X41096000Y-73370000D03*
X34596000Y-73370000D03*
%TO.P,SW1,2,2*%
%TO.N,GND*%
X41096000Y-68870000D03*
X34596000Y-68870000D03*
%TD*%
D17*
%TO.P,D2,2,A*%
%TO.N,GPIO26_3v3*%
X48763000Y-71120000D03*
D18*
%TO.P,D2,1,K*%
%TO.N,Net-(D2-K)*%
X46223000Y-71120000D03*
%TD*%
%TO.P,D3,1,K*%
%TO.N,Net-(D3-K)*%
X58674000Y-71120000D03*
D17*
%TO.P,D3,2,A*%
%TO.N,GPIO27_3v3*%
X61214000Y-71120000D03*
%TD*%
D19*
%TO.N,+3V3*%
X94126300Y-31602500D03*
%TO.N,P0*%
X64415900Y-52867400D03*
X64131600Y-58882600D03*
X85636900Y-66128100D03*
X88584900Y-59869000D03*
X43158900Y-58901200D03*
%TO.N,LP1*%
X92256200Y-50800000D03*
%TO.N,P1*%
X45274600Y-57141000D03*
X75733400Y-54603200D03*
X65981500Y-56129800D03*
%TO.N,LP2*%
X76593000Y-66055300D03*
%TO.N,P2*%
X46275000Y-57075100D03*
X61740600Y-58770700D03*
%TO.N,LP3*%
X77011700Y-70083800D03*
%TO.N,~{ROE}*%
X66388300Y-62049200D03*
X43739100Y-61784700D03*
X87351500Y-57534700D03*
X72848800Y-63779100D03*
X39978000Y-28377900D03*
%TO.N,LALS*%
X41221500Y-26645700D03*
%TO.N,ALS*%
X42275300Y-28828300D03*
X52241100Y-47843300D03*
%TO.N,LP4*%
X68485900Y-70524300D03*
%TO.N,LP5*%
X67830400Y-71283600D03*
X37792600Y-64727900D03*
X48699700Y-66583400D03*
%TO.N,P5*%
X57296800Y-55573500D03*
X76646500Y-55221700D03*
X47725700Y-56864700D03*
%TO.N,LP6*%
X67160300Y-72028200D03*
%TO.N,P6*%
X35885000Y-63604500D03*
X53784100Y-61872600D03*
%TO.N,LP7*%
X29395000Y-63661600D03*
X46053000Y-66084400D03*
%TO.N,P7*%
X49166600Y-55396200D03*
X55099700Y-55396200D03*
%TO.N,AHS*%
X30228000Y-46660100D03*
X52311300Y-24582400D03*
%TO.N,~{PGM}*%
X57261500Y-28731900D03*
%TO.N,LD0*%
X39421200Y-37946000D03*
%TO.N,D0*%
X53402700Y-42691000D03*
%TO.N,LD1*%
X43206000Y-37845600D03*
%TO.N,D1*%
X52801000Y-40944400D03*
%TO.N,LD2*%
X49443700Y-36551800D03*
%TO.N,D2*%
X48365400Y-36322000D03*
%TO.N,LD3*%
X58839800Y-34203900D03*
%TO.N,D3*%
X58240800Y-39444800D03*
%TO.N,~{LCE}*%
X69177100Y-32678300D03*
%TO.N,~{LOE}*%
X74250100Y-27970000D03*
X100416300Y-29158700D03*
%TO.N,~{OE}*%
X73164700Y-28977000D03*
%TO.N,LD4*%
X73073300Y-34705100D03*
%TO.N,D4*%
X65899600Y-40620500D03*
%TO.N,LD5*%
X76240000Y-37273500D03*
%TO.N,D5*%
X69095500Y-43276100D03*
%TO.N,LD6*%
X80643500Y-38174800D03*
%TO.N,LD7*%
X71314800Y-35029600D03*
%TO.N,GND*%
X88568200Y-53777500D03*
X55753000Y-70739000D03*
X59436000Y-65024000D03*
%TO.N,A2*%
X59965600Y-52862100D03*
%TO.N,A1*%
X62612400Y-52844000D03*
%TO.N,A0*%
X63601000Y-52094300D03*
%TO.N,A18*%
X71132900Y-49357200D03*
%TO.N,A16*%
X66746500Y-50106200D03*
%TO.N,A15*%
X36365700Y-52684800D03*
%TO.N,A12*%
X36636300Y-49447500D03*
%TO.N,A10*%
X40975700Y-49618300D03*
%TO.N,A11*%
X39627000Y-49562300D03*
%TO.N,A17*%
X66506600Y-47241700D03*
%TO.N,Net-(D3-K)*%
X64389000Y-66384000D03*
%TO.N,+5V*%
X79052600Y-43818800D03*
X70706900Y-33128600D03*
X79302300Y-51844700D03*
X78005300Y-62323900D03*
X93387100Y-26764600D03*
%TD*%
D20*
%TO.N,+3V3*%
X116840000Y-33020000D02*
X115664700Y-33020000D01*
X94368500Y-31844700D02*
X94126300Y-31602500D01*
X114489400Y-31844700D02*
X94368500Y-31844700D01*
X115664700Y-33020000D02*
X114489400Y-31844700D01*
%TO.N,P0*%
X59652900Y-61598800D02*
X58810000Y-60755900D01*
X63022400Y-61598800D02*
X59652900Y-61598800D01*
X63890000Y-59124200D02*
X63890000Y-60731200D01*
X58810000Y-59715900D02*
X57995300Y-58901200D01*
X85636900Y-62817000D02*
X85636900Y-66128100D01*
X58810000Y-60755900D02*
X58810000Y-59715900D01*
X64131600Y-58882600D02*
X64131600Y-53151700D01*
X64131600Y-53151700D02*
X64415900Y-52867400D01*
X63890000Y-60731200D02*
X63022400Y-61598800D01*
X88584900Y-59869000D02*
X85636900Y-62817000D01*
X57995300Y-58901200D02*
X43158900Y-58901200D01*
X64131600Y-58882600D02*
X63890000Y-59124200D01*
%TO.N,LP1*%
X99060000Y-50800000D02*
X92256200Y-50800000D01*
%TO.N,P1*%
X67683400Y-54427900D02*
X65981500Y-56129800D01*
X45274600Y-57141000D02*
X45274600Y-57043700D01*
X46472600Y-56136300D02*
X48586700Y-54022200D01*
X53964100Y-54022200D02*
X56392100Y-51594200D01*
X61071400Y-51457000D02*
X61159400Y-51369000D01*
X64624400Y-51369000D02*
X67683400Y-54427900D01*
X56392100Y-51594200D02*
X60446800Y-51594200D01*
X60446800Y-51594200D02*
X60584000Y-51457000D01*
X67683400Y-54427900D02*
X67683400Y-54428000D01*
X46182000Y-56136300D02*
X46472600Y-56136300D01*
X61159400Y-51369000D02*
X64624400Y-51369000D01*
X67683400Y-54428000D02*
X75558200Y-54428000D01*
X75558200Y-54428000D02*
X75733400Y-54603200D01*
X48586700Y-54022200D02*
X53964100Y-54022200D01*
X45274600Y-57043700D02*
X46182000Y-56136300D01*
X60584000Y-51457000D02*
X61071400Y-51457000D01*
%TO.N,LP2*%
X80633000Y-66055300D02*
X90808300Y-55880000D01*
X76593000Y-66055300D02*
X80633000Y-66055300D01*
X90808300Y-55880000D02*
X99060000Y-55880000D01*
%TO.N,P2*%
X61740600Y-53597900D02*
X61740600Y-58770700D01*
X46275000Y-57075100D02*
X48877600Y-54472500D01*
X54150800Y-54472500D02*
X56495800Y-52127500D01*
X60270200Y-52127500D02*
X61740600Y-53597900D01*
X56495800Y-52127500D02*
X60270200Y-52127500D01*
X48877600Y-54472500D02*
X54150800Y-54472500D01*
%TO.N,LP3*%
X99060000Y-58420000D02*
X97884700Y-58420000D01*
X95338900Y-58420000D02*
X83675100Y-70083800D01*
X97884700Y-58420000D02*
X95338900Y-58420000D01*
X83675100Y-70083800D02*
X77011700Y-70083800D01*
%TO.N,~{ROE}*%
X43739100Y-61784700D02*
X43006800Y-62517000D01*
X35913000Y-62517000D02*
X35131600Y-61735600D01*
X66388300Y-62049200D02*
X54986500Y-62049200D01*
X81107100Y-63779100D02*
X72848800Y-63779100D01*
X35131600Y-33224300D02*
X39978000Y-28377900D01*
X52666200Y-61784700D02*
X43739100Y-61784700D01*
X87351500Y-57534700D02*
X81107100Y-63779100D01*
X53303600Y-61147300D02*
X52666200Y-61784700D01*
X43006800Y-62517000D02*
X35913000Y-62517000D01*
X54986500Y-62049200D02*
X54084600Y-61147300D01*
X35131600Y-61735600D02*
X35131600Y-33224300D01*
X54084600Y-61147300D02*
X53303600Y-61147300D01*
%TO.N,LALS*%
X52529300Y-73801600D02*
X51184200Y-75146700D01*
X115664700Y-69681800D02*
X111481100Y-73865400D01*
X39979200Y-26645700D02*
X41221500Y-26645700D01*
X95389800Y-73801600D02*
X52529300Y-73801600D01*
X95453600Y-73865400D02*
X95389800Y-73801600D01*
X51184200Y-75146700D02*
X38346700Y-75146700D01*
X111481100Y-73865400D02*
X95453600Y-73865400D01*
X116840000Y-68580000D02*
X115664700Y-68580000D01*
X28594000Y-65394000D02*
X28594000Y-38030900D01*
X115664700Y-68580000D02*
X115664700Y-69681800D01*
X38346700Y-75146700D02*
X28594000Y-65394000D01*
X28594000Y-38030900D02*
X39979200Y-26645700D01*
%TO.N,ALS*%
X42275300Y-28828300D02*
X38690500Y-32413100D01*
X38690500Y-45694500D02*
X40839300Y-47843300D01*
X38690500Y-32413100D02*
X38690500Y-45694500D01*
X40839300Y-47843300D02*
X52241100Y-47843300D01*
%TO.N,LP4*%
X68770700Y-70809100D02*
X86156100Y-70809100D01*
X96005200Y-60960000D02*
X99060000Y-60960000D01*
X68485900Y-70524300D02*
X68770700Y-70809100D01*
X86156100Y-70809100D02*
X96005200Y-60960000D01*
%TO.N,LP5*%
X95616400Y-63500000D02*
X87832800Y-71283600D01*
X87832800Y-71283600D02*
X67830400Y-71283600D01*
X37792600Y-64727900D02*
X46844200Y-64727900D01*
X46844200Y-64727900D02*
X48699700Y-66583400D01*
X99060000Y-63500000D02*
X95616400Y-63500000D01*
%TO.N,P5*%
X56005600Y-56864700D02*
X57296800Y-55573500D01*
X54901800Y-52226500D02*
X56209600Y-50918700D01*
X47725700Y-56864700D02*
X56005600Y-56864700D01*
X46724100Y-57866300D02*
X44901000Y-57866300D01*
X44901000Y-57866300D02*
X44548100Y-57513400D01*
X44548100Y-57513400D02*
X44548100Y-56787000D01*
X44548100Y-56787000D02*
X49108600Y-52226500D01*
X73078800Y-50918700D02*
X76646500Y-54486400D01*
X76646500Y-54486400D02*
X76646500Y-55221700D01*
X49108600Y-52226500D02*
X54901800Y-52226500D01*
X56209600Y-50918700D02*
X73078800Y-50918700D01*
X47725700Y-56864700D02*
X46724100Y-57866300D01*
%TO.N,LP6*%
X89162100Y-72028200D02*
X92610300Y-68580000D01*
X92610300Y-68580000D02*
X99060000Y-68580000D01*
X67160300Y-72028200D02*
X89162100Y-72028200D01*
%TO.N,P6*%
X52052200Y-63604500D02*
X53784100Y-61872600D01*
X35885000Y-63604500D02*
X52052200Y-63604500D01*
%TO.N,LP7*%
X99060000Y-71120000D02*
X97884700Y-71120000D01*
X38533200Y-74696300D02*
X50997700Y-74696300D01*
X46053000Y-66084400D02*
X34681400Y-66084400D01*
X34681400Y-66084400D02*
X33268100Y-67497700D01*
X29432000Y-63661600D02*
X29395000Y-63661600D01*
X33268100Y-67497700D02*
X29432000Y-63661600D01*
X52342700Y-73351300D02*
X95653400Y-73351300D01*
X33268100Y-69431200D02*
X38533200Y-74696300D01*
X50997700Y-74696300D02*
X52342700Y-73351300D01*
X33268100Y-67497700D02*
X33268100Y-69431200D01*
X95653400Y-73351300D02*
X97884700Y-71120000D01*
%TO.N,P7*%
X49166600Y-55396200D02*
X55099700Y-55396200D01*
%TO.N,AHS*%
X49342400Y-27551300D02*
X52311300Y-24582400D01*
X30228000Y-37098700D02*
X39775400Y-27551300D01*
X30228000Y-46660100D02*
X30228000Y-37098700D01*
X39775400Y-27551300D02*
X49342400Y-27551300D01*
%TO.N,~{PGM}*%
X54288600Y-28731900D02*
X39760000Y-43260500D01*
X39760000Y-43260500D02*
X39760000Y-43667200D01*
X57261500Y-28731900D02*
X54288600Y-28731900D01*
X39760000Y-44992500D02*
X39760000Y-43667200D01*
%TO.N,LD0*%
X39888600Y-37946000D02*
X39421200Y-37946000D01*
X57873300Y-22860000D02*
X55333300Y-25400000D01*
X99060000Y-22860000D02*
X57873300Y-22860000D01*
X55333300Y-25400000D02*
X52434600Y-25400000D01*
X52434600Y-25400000D02*
X39888600Y-37946000D01*
%TO.N,D0*%
X71137300Y-57546500D02*
X68745300Y-59938500D01*
X53402700Y-42691000D02*
X59546300Y-42691000D01*
X68745300Y-59938500D02*
X68745300Y-60232500D01*
X75347500Y-57546500D02*
X71137300Y-57546500D01*
X77371800Y-54559800D02*
X77371800Y-55522200D01*
X77371800Y-55522200D02*
X75347500Y-57546500D01*
X61350000Y-44494700D02*
X61350000Y-45564600D01*
X64063600Y-48278200D02*
X71090200Y-48278200D01*
X61350000Y-45564600D02*
X64063600Y-48278200D01*
X67700000Y-60232500D02*
X68745300Y-60232500D01*
X59546300Y-42691000D02*
X61350000Y-44494700D01*
X71090200Y-48278200D02*
X77371800Y-54559800D01*
%TO.N,LD1*%
X56288400Y-25400000D02*
X99060000Y-25400000D01*
X43842800Y-37845600D02*
X56288400Y-25400000D01*
X43206000Y-37845600D02*
X43842800Y-37845600D01*
%TO.N,D1*%
X71285300Y-59938200D02*
X71285300Y-60232500D01*
X52801000Y-40944400D02*
X62887200Y-40944400D01*
X73190900Y-58032600D02*
X71285300Y-59938200D01*
X70671800Y-47218400D02*
X77822100Y-54368700D01*
X66270700Y-44327900D02*
X66270700Y-45385500D01*
X68103600Y-47218400D02*
X70671800Y-47218400D01*
X70240000Y-60232500D02*
X71285300Y-60232500D01*
X66270700Y-45385500D02*
X68103600Y-47218400D01*
X77822100Y-54368700D02*
X77822100Y-55708800D01*
X77822100Y-55708800D02*
X75498300Y-58032600D01*
X75498300Y-58032600D02*
X73190900Y-58032600D01*
X62887200Y-40944400D02*
X66270700Y-44327900D01*
%TO.N,LD2*%
X55515500Y-30480000D02*
X99060000Y-30480000D01*
X49443700Y-36551800D02*
X55515500Y-30480000D01*
%TO.N,D2*%
X78325600Y-54179100D02*
X78325600Y-55842200D01*
X48365400Y-36322000D02*
X48365400Y-36580200D01*
X78325600Y-55842200D02*
X75684800Y-58483000D01*
X64447700Y-40194500D02*
X66600300Y-42347100D01*
X51979700Y-40194500D02*
X64447700Y-40194500D01*
X48365400Y-36580200D02*
X51979700Y-40194500D01*
X69872800Y-46383600D02*
X70530100Y-46383600D01*
X69194700Y-45705500D02*
X69872800Y-46383600D01*
X66600300Y-42347100D02*
X66832200Y-42347100D01*
X74529500Y-58483000D02*
X72780000Y-60232500D01*
X70530100Y-46383600D02*
X78325600Y-54179100D01*
X66832200Y-42347100D02*
X69194700Y-44709600D01*
X75684800Y-58483000D02*
X74529500Y-58483000D01*
X69194700Y-44709600D02*
X69194700Y-45705500D01*
%TO.N,LD3*%
X99060000Y-33020000D02*
X97884700Y-33020000D01*
X71679400Y-31914400D02*
X72785000Y-33020000D01*
X61129300Y-31914400D02*
X71679400Y-31914400D01*
X58839800Y-34203900D02*
X61129300Y-31914400D01*
X72785000Y-33020000D02*
X97884700Y-33020000D01*
%TO.N,D3*%
X74274700Y-44698500D02*
X74274700Y-44992500D01*
X75320000Y-44992500D02*
X74274700Y-44992500D01*
X58240800Y-39444800D02*
X69021000Y-39444800D01*
X69021000Y-39444800D02*
X74274700Y-44698500D01*
%TO.N,~{LCE}*%
X119815300Y-42195200D02*
X119815300Y-55880000D01*
X119624800Y-42004700D02*
X119815300Y-42195200D01*
X100235400Y-34195400D02*
X108044700Y-42004700D01*
X108044700Y-42004700D02*
X119624800Y-42004700D01*
X116840000Y-55880000D02*
X119815300Y-55880000D01*
X71531300Y-32403200D02*
X72598500Y-33470400D01*
X74340800Y-34195400D02*
X100235400Y-34195400D01*
X69177100Y-32678300D02*
X69452200Y-32403200D01*
X72598500Y-33470400D02*
X73615800Y-33470400D01*
X69452200Y-32403200D02*
X71531300Y-32403200D01*
X73615800Y-33470400D02*
X74340800Y-34195400D01*
%TO.N,~{LOE}*%
X75438800Y-29158700D02*
X100416300Y-29158700D01*
X74250100Y-27970000D02*
X75438800Y-29158700D01*
%TO.N,~{OE}*%
X46110000Y-44468100D02*
X46911200Y-43666900D01*
X72672100Y-29469600D02*
X72672100Y-29469700D01*
X41242400Y-42415000D02*
X41242400Y-45727200D01*
X73164700Y-28977000D02*
X72672100Y-29469600D01*
X56494700Y-44698500D02*
X56494700Y-44992500D01*
X54187700Y-29469700D02*
X41242400Y-42415000D01*
X46110000Y-45498000D02*
X46110000Y-44468100D01*
X55463100Y-43666900D02*
X56494700Y-44698500D01*
X46911200Y-43666900D02*
X55463100Y-43666900D01*
X57540000Y-44992500D02*
X56494700Y-44992500D01*
X41242400Y-45727200D02*
X41833100Y-46317900D01*
X45290100Y-46317900D02*
X46110000Y-45498000D01*
X72672100Y-29469700D02*
X54187700Y-29469700D01*
X41833100Y-46317900D02*
X45290100Y-46317900D01*
%TO.N,LD4*%
X97029800Y-34705100D02*
X97884700Y-35560000D01*
X99060000Y-35560000D02*
X97884700Y-35560000D01*
X73073300Y-34705100D02*
X97029800Y-34705100D01*
%TO.N,D4*%
X65899600Y-40620500D02*
X67656700Y-40620500D01*
X72780000Y-44992500D02*
X71734700Y-44992500D01*
X67656700Y-40620500D02*
X71734700Y-44698500D01*
X71734700Y-44698500D02*
X71734700Y-44992500D01*
%TO.N,LD5*%
X99060000Y-38100000D02*
X96084700Y-38100000D01*
X95258200Y-37273500D02*
X76240000Y-37273500D01*
X96084700Y-38100000D02*
X95258200Y-37273500D01*
%TO.N,D5*%
X70240000Y-44420600D02*
X70240000Y-44992500D01*
X69095500Y-43276100D02*
X70240000Y-44420600D01*
%TO.N,LD6*%
X85648700Y-43180000D02*
X80643500Y-38174800D01*
X99060000Y-43180000D02*
X85648700Y-43180000D01*
%TO.N,LD7*%
X99060000Y-45720000D02*
X82005200Y-45720000D01*
X82005200Y-45720000D02*
X71314800Y-35029600D01*
%TO.N,RUN*%
X79434100Y-67891200D02*
X90080700Y-57244600D01*
X64658100Y-72901000D02*
X69667900Y-67891200D01*
X41096000Y-73370000D02*
X41565000Y-72901000D01*
X90080700Y-57244600D02*
X106680100Y-57244600D01*
X116840000Y-48260000D02*
X115664700Y-48260000D01*
X69667900Y-67891200D02*
X79434100Y-67891200D01*
X41565000Y-72901000D02*
X64658100Y-72901000D01*
X106680100Y-57244600D02*
X115664700Y-48260000D01*
%TO.N,GND*%
X113167300Y-66040000D02*
X115664700Y-66040000D01*
X74274700Y-60232500D02*
X74274700Y-60690600D01*
X60071000Y-65659000D02*
X60325000Y-65659000D01*
X107950000Y-70890000D02*
X109125300Y-70890000D01*
X109125300Y-70082000D02*
X113167300Y-66040000D01*
X75320000Y-60232500D02*
X74274700Y-60232500D01*
X109125300Y-70890000D02*
X109125300Y-70082000D01*
X52976700Y-67310000D02*
X51416700Y-68870000D01*
X54102000Y-67310000D02*
X54102000Y-69374000D01*
X69451150Y-65514150D02*
X69306300Y-65659000D01*
X51416700Y-68870000D02*
X41096000Y-68870000D01*
X97884700Y-53340000D02*
X97447200Y-53777500D01*
X69306300Y-65659000D02*
X60325000Y-65659000D01*
X115664700Y-66040000D02*
X115664700Y-53340000D01*
X41096000Y-68870000D02*
X34596000Y-68870000D01*
X116840000Y-66040000D02*
X115664700Y-66040000D01*
X97447200Y-53777500D02*
X88568200Y-53777500D01*
X53539400Y-67310000D02*
X54102000Y-67310000D01*
X99060000Y-53340000D02*
X97884700Y-53340000D01*
X54388000Y-69374000D02*
X55753000Y-70739000D01*
X60325000Y-65659000D02*
X55753000Y-65659000D01*
X59436000Y-65024000D02*
X60071000Y-65659000D01*
X116840000Y-53340000D02*
X115664700Y-53340000D01*
X53539400Y-67310000D02*
X52976700Y-67310000D01*
X55753000Y-65659000D02*
X54102000Y-67310000D01*
X74274700Y-60690600D02*
X69451150Y-65514150D01*
X54102000Y-69374000D02*
X54388000Y-69374000D01*
%TO.N,A2*%
X60080000Y-60232500D02*
X60080000Y-58907200D01*
X59965600Y-58792800D02*
X60080000Y-58907200D01*
X59965600Y-52862100D02*
X59965600Y-58792800D01*
%TO.N,A1*%
X62612400Y-52844000D02*
X62612400Y-58899600D01*
X62620000Y-60232500D02*
X62620000Y-58907200D01*
X62612400Y-58899600D02*
X62620000Y-58907200D01*
%TO.N,A0*%
X63601000Y-52094300D02*
X64712800Y-52094300D01*
X65160000Y-52541500D02*
X65160000Y-60232500D01*
X64712800Y-52094300D02*
X65160000Y-52541500D01*
%TO.N,A18*%
X54964000Y-49357200D02*
X71132900Y-49357200D01*
X53977500Y-50343700D02*
X54964000Y-49357200D01*
X38265300Y-60232500D02*
X38265300Y-59938500D01*
X37220000Y-60232500D02*
X38265300Y-60232500D01*
X38265300Y-59938500D02*
X47860100Y-50343700D01*
X47860100Y-50343700D02*
X53977500Y-50343700D01*
%TO.N,A16*%
X39760000Y-60232500D02*
X40805300Y-60232500D01*
X40805300Y-59840500D02*
X49137600Y-51508200D01*
X40805300Y-60232500D02*
X40805300Y-59840500D01*
X54086900Y-51508200D02*
X55488900Y-50106200D01*
X49137600Y-51508200D02*
X54086900Y-51508200D01*
X55488900Y-50106200D02*
X66746500Y-50106200D01*
%TO.N,A15*%
X36174600Y-61437800D02*
X36174600Y-52875900D01*
X36335800Y-61599000D02*
X36174600Y-61437800D01*
X42300000Y-60232500D02*
X40933500Y-61599000D01*
X36174600Y-52875900D02*
X36365700Y-52684800D01*
X40933500Y-61599000D02*
X36335800Y-61599000D01*
%TO.N,A12*%
X44840000Y-60232500D02*
X43794700Y-60232500D01*
X43794700Y-60232500D02*
X43794700Y-60526500D01*
X43794700Y-60526500D02*
X42271800Y-62049400D01*
X42271800Y-62049400D02*
X36149300Y-62049400D01*
X36149300Y-62049400D02*
X35633800Y-61533900D01*
X35633800Y-50450000D02*
X36636300Y-49447500D01*
X35633800Y-61533900D02*
X35633800Y-50450000D01*
%TO.N,A10*%
X59034700Y-45286500D02*
X55703100Y-48618100D01*
X55703100Y-48618100D02*
X55066200Y-48618100D01*
X59034700Y-44992500D02*
X59034700Y-45286500D01*
X55066200Y-48618100D02*
X54066000Y-49618300D01*
X54066000Y-49618300D02*
X40975700Y-49618300D01*
X60080000Y-44992500D02*
X59034700Y-44992500D01*
%TO.N,A11*%
X55000000Y-44992500D02*
X55000000Y-46317800D01*
X52457200Y-48860600D02*
X55000000Y-46317800D01*
X39627000Y-49562300D02*
X40328700Y-48860600D01*
X40328700Y-48860600D02*
X52457200Y-48860600D01*
%TO.N,A17*%
X63890000Y-44379200D02*
X61444700Y-41933900D01*
X66506600Y-47241700D02*
X65639000Y-47241700D01*
X63890000Y-45492700D02*
X63890000Y-44379200D01*
X42300000Y-44992500D02*
X43345300Y-44992500D01*
X43345300Y-44698500D02*
X43345300Y-44992500D01*
X46109900Y-41933900D02*
X43345300Y-44698500D01*
X65639000Y-47241700D02*
X63890000Y-45492700D01*
X61444700Y-41933900D02*
X46109900Y-41933900D01*
%TO.N,GPIO26_3v3*%
X116840000Y-45720000D02*
X115664700Y-45720000D01*
X49988400Y-72345400D02*
X48763000Y-71120000D01*
X106869300Y-54515400D02*
X91536000Y-54515400D01*
X72301800Y-64620400D02*
X64576800Y-72345400D01*
X64576800Y-72345400D02*
X49988400Y-72345400D01*
X91536000Y-54515400D02*
X81431000Y-64620400D01*
X115664700Y-45720000D02*
X106869300Y-54515400D01*
X81431000Y-64620400D02*
X72301800Y-64620400D01*
%TO.N,GPIO27_3v3*%
X109376500Y-49468200D02*
X91842100Y-49468200D01*
X78301300Y-63053800D02*
X72548400Y-63053800D01*
X91842100Y-49468200D02*
X78730600Y-62579700D01*
X78730600Y-62579700D02*
X78730600Y-62624500D01*
X115664700Y-43180000D02*
X109376500Y-49468200D01*
X116840000Y-43180000D02*
X115664700Y-43180000D01*
X72548400Y-63053800D02*
X72123500Y-63478700D01*
X78730600Y-62624500D02*
X78301300Y-63053800D01*
X72123500Y-63478700D02*
X72123500Y-63773000D01*
X64776500Y-71120000D02*
X61214000Y-71120000D01*
X72123500Y-63773000D02*
X64776500Y-71120000D01*
%TO.N,Net-(D3-K)*%
X58674000Y-69215000D02*
X60579000Y-67310000D01*
X60579000Y-67310000D02*
X64802000Y-67310000D01*
X58674000Y-71120000D02*
X58674000Y-69215000D01*
X64802000Y-67310000D02*
X64802000Y-66797000D01*
X64802000Y-66797000D02*
X64389000Y-66384000D01*
%TO.N,+5V*%
X79052600Y-51595000D02*
X79302300Y-51844700D01*
X101556800Y-26764600D02*
X93387100Y-26764600D01*
X101937201Y-27145001D02*
X101556800Y-26764600D01*
X78005300Y-62323900D02*
X79302300Y-61026900D01*
X70573400Y-33262100D02*
X70706900Y-33128600D01*
X116840000Y-22860000D02*
X115664700Y-22860000D01*
X114259699Y-24265001D02*
X114259699Y-26202301D01*
X70573400Y-35339600D02*
X70573400Y-33262100D01*
X115664700Y-22860000D02*
X114259699Y-24265001D01*
X114259699Y-26202301D02*
X113316999Y-27145001D01*
X79302300Y-61026900D02*
X79302300Y-51844700D01*
X79052600Y-43818800D02*
X79052600Y-51595000D01*
X113316999Y-27145001D02*
X101937201Y-27145001D01*
X79052600Y-43818800D02*
X70573400Y-35339600D01*
%TD*%
%TA.AperFunction,Conductor*%
%TO.N,GND*%
G36*
X95910394Y-21610502D02*
G01*
X95956887Y-21664158D01*
X95966991Y-21734432D01*
X95960328Y-21760533D01*
X95908011Y-21900795D01*
X95908009Y-21900803D01*
X95901500Y-21961350D01*
X95901500Y-22100500D01*
X95881498Y-22168621D01*
X95827842Y-22215114D01*
X95775500Y-22226500D01*
X57957149Y-22226500D01*
X57941310Y-22224751D01*
X57941283Y-22225045D01*
X57933391Y-22224299D01*
X57865333Y-22226438D01*
X57861375Y-22226500D01*
X57833444Y-22226500D01*
X57831257Y-22226776D01*
X57829411Y-22227009D01*
X57817604Y-22227937D01*
X57773410Y-22229326D01*
X57773405Y-22229327D01*
X57753960Y-22234977D01*
X57734602Y-22238986D01*
X57714507Y-22241524D01*
X57714505Y-22241525D01*
X57673383Y-22257805D01*
X57662159Y-22261647D01*
X57619710Y-22273980D01*
X57619704Y-22273982D01*
X57602266Y-22284295D01*
X57584520Y-22292989D01*
X57565681Y-22300448D01*
X57529914Y-22326434D01*
X57519998Y-22332948D01*
X57481936Y-22355458D01*
X57467607Y-22369787D01*
X57452581Y-22382620D01*
X57436195Y-22394525D01*
X57408011Y-22428593D01*
X57400023Y-22437370D01*
X55107800Y-24729595D01*
X55045488Y-24763620D01*
X55018705Y-24766500D01*
X53345392Y-24766500D01*
X53277271Y-24746498D01*
X53230778Y-24692842D01*
X53220082Y-24627331D01*
X53223130Y-24598325D01*
X53224804Y-24582400D01*
X53204842Y-24392472D01*
X53145827Y-24210844D01*
X53050340Y-24045456D01*
X53050338Y-24045454D01*
X53050334Y-24045448D01*
X52922555Y-23903535D01*
X52768052Y-23791282D01*
X52593588Y-23713606D01*
X52406787Y-23673900D01*
X52215813Y-23673900D01*
X52029011Y-23713606D01*
X51854547Y-23791282D01*
X51700044Y-23903535D01*
X51572265Y-24045448D01*
X51572258Y-24045458D01*
X51476776Y-24210838D01*
X51476773Y-24210844D01*
X51465693Y-24244944D01*
X51417757Y-24392472D01*
X51400392Y-24557692D01*
X51373379Y-24623349D01*
X51364177Y-24633616D01*
X49116900Y-26880895D01*
X49054588Y-26914920D01*
X49027805Y-26917800D01*
X42246343Y-26917800D01*
X42178222Y-26897798D01*
X42131729Y-26844142D01*
X42121033Y-26778630D01*
X42124577Y-26744902D01*
X42135004Y-26645700D01*
X42115042Y-26455772D01*
X42056027Y-26274144D01*
X41960540Y-26108756D01*
X41960538Y-26108754D01*
X41960534Y-26108748D01*
X41832755Y-25966835D01*
X41678252Y-25854582D01*
X41503788Y-25776906D01*
X41316987Y-25737200D01*
X41126013Y-25737200D01*
X40939211Y-25776906D01*
X40764747Y-25854582D01*
X40610247Y-25966833D01*
X40606937Y-25970510D01*
X40546491Y-26007750D01*
X40513300Y-26012200D01*
X40063053Y-26012200D01*
X40047211Y-26010450D01*
X40047184Y-26010744D01*
X40039292Y-26009998D01*
X40039291Y-26009998D01*
X40015560Y-26010744D01*
X39971214Y-26012138D01*
X39967255Y-26012200D01*
X39939344Y-26012200D01*
X39939341Y-26012200D01*
X39939326Y-26012201D01*
X39935321Y-26012707D01*
X39923504Y-26013637D01*
X39879312Y-26015026D01*
X39879310Y-26015027D01*
X39859855Y-26020678D01*
X39840502Y-26024686D01*
X39820410Y-26027224D01*
X39820403Y-26027226D01*
X39779296Y-26043501D01*
X39768071Y-26047344D01*
X39741553Y-26055049D01*
X39725607Y-26059682D01*
X39725605Y-26059682D01*
X39725602Y-26059684D01*
X39708163Y-26069997D01*
X39690418Y-26078690D01*
X39671579Y-26086149D01*
X39635827Y-26112126D01*
X39625904Y-26118644D01*
X39587840Y-26141154D01*
X39573507Y-26155487D01*
X39558481Y-26168320D01*
X39542095Y-26180225D01*
X39513911Y-26214293D01*
X39505923Y-26223070D01*
X28205336Y-37523657D01*
X28192901Y-37533621D01*
X28193089Y-37533848D01*
X28186979Y-37538902D01*
X28140370Y-37588535D01*
X28137620Y-37591373D01*
X28117863Y-37611131D01*
X28115374Y-37614339D01*
X28107688Y-37623336D01*
X28077418Y-37655573D01*
X28077411Y-37655583D01*
X28067651Y-37673335D01*
X28056803Y-37689850D01*
X28044386Y-37705858D01*
X28026824Y-37746440D01*
X28021604Y-37757095D01*
X28000305Y-37795839D01*
X28000303Y-37795844D01*
X27995267Y-37815459D01*
X27988864Y-37834162D01*
X27980819Y-37852752D01*
X27973901Y-37896425D01*
X27971495Y-37908042D01*
X27960500Y-37950868D01*
X27960500Y-37971123D01*
X27958949Y-37990833D01*
X27955780Y-38010843D01*
X27958403Y-38038595D01*
X27959941Y-38054861D01*
X27960500Y-38066719D01*
X27960500Y-65310146D01*
X27958751Y-65325988D01*
X27959044Y-65326016D01*
X27958298Y-65333907D01*
X27960438Y-65401984D01*
X27960500Y-65405943D01*
X27960500Y-65433851D01*
X27960501Y-65433869D01*
X27961007Y-65437877D01*
X27961937Y-65449696D01*
X27963326Y-65493888D01*
X27963327Y-65493893D01*
X27968977Y-65513339D01*
X27972986Y-65532697D01*
X27975525Y-65552793D01*
X27975526Y-65552800D01*
X27991800Y-65593903D01*
X27995644Y-65605129D01*
X28007982Y-65647593D01*
X28018294Y-65665031D01*
X28026988Y-65682779D01*
X28034444Y-65701609D01*
X28034450Y-65701620D01*
X28060432Y-65737381D01*
X28066949Y-65747301D01*
X28089458Y-65785362D01*
X28089459Y-65785363D01*
X28089461Y-65785366D01*
X28103779Y-65799684D01*
X28116617Y-65814714D01*
X28128526Y-65831104D01*
X28128530Y-65831109D01*
X28162598Y-65859292D01*
X28171378Y-65867282D01*
X34070432Y-71766336D01*
X34104458Y-71828648D01*
X34099393Y-71899463D01*
X34056846Y-71956299D01*
X34029555Y-71971840D01*
X33909038Y-72021759D01*
X33706582Y-72145825D01*
X33706580Y-72145826D01*
X33526030Y-72300030D01*
X33371826Y-72480580D01*
X33371825Y-72480582D01*
X33247759Y-72683038D01*
X33156894Y-72902407D01*
X33101465Y-73133289D01*
X33082835Y-73370000D01*
X33101465Y-73606711D01*
X33107317Y-73631086D01*
X33156894Y-73837592D01*
X33190560Y-73918868D01*
X33247760Y-74056963D01*
X33330170Y-74191444D01*
X33371825Y-74259417D01*
X33371826Y-74259419D01*
X33526030Y-74439969D01*
X33706580Y-74594173D01*
X33706584Y-74594176D01*
X33909037Y-74718240D01*
X34128406Y-74809105D01*
X34359289Y-74864535D01*
X34596000Y-74883165D01*
X34832711Y-74864535D01*
X35063594Y-74809105D01*
X35282963Y-74718240D01*
X35485416Y-74594176D01*
X35665969Y-74439969D01*
X35820176Y-74259416D01*
X35944240Y-74056963D01*
X35994160Y-73936442D01*
X36038706Y-73881164D01*
X36106070Y-73858742D01*
X36174861Y-73876300D01*
X36199663Y-73895567D01*
X37839453Y-75535357D01*
X37849420Y-75547797D01*
X37849647Y-75547610D01*
X37854699Y-75553717D01*
X37854700Y-75553718D01*
X37880665Y-75578101D01*
X37904366Y-75600357D01*
X37907210Y-75603114D01*
X37926931Y-75622835D01*
X37928528Y-75624074D01*
X37930116Y-75625305D01*
X37939146Y-75633017D01*
X37958553Y-75651242D01*
X37971378Y-75663285D01*
X37971382Y-75663288D01*
X37989130Y-75673045D01*
X38005657Y-75683901D01*
X38021660Y-75696314D01*
X38062239Y-75713874D01*
X38072887Y-75719091D01*
X38111634Y-75740392D01*
X38111636Y-75740393D01*
X38111640Y-75740395D01*
X38131262Y-75745433D01*
X38149963Y-75751835D01*
X38162514Y-75757267D01*
X38168552Y-75759880D01*
X38168553Y-75759880D01*
X38168555Y-75759881D01*
X38212230Y-75766798D01*
X38223841Y-75769202D01*
X38266670Y-75780200D01*
X38286924Y-75780200D01*
X38306634Y-75781751D01*
X38308841Y-75782100D01*
X38326643Y-75784920D01*
X38370661Y-75780758D01*
X38382519Y-75780200D01*
X51100347Y-75780200D01*
X51116188Y-75781949D01*
X51116216Y-75781656D01*
X51124102Y-75782400D01*
X51124109Y-75782402D01*
X51192186Y-75780262D01*
X51196145Y-75780200D01*
X51224051Y-75780200D01*
X51224056Y-75780200D01*
X51228067Y-75779692D01*
X51239899Y-75778761D01*
X51284089Y-75777373D01*
X51303547Y-75771719D01*
X51322894Y-75767713D01*
X51342997Y-75765174D01*
X51384110Y-75748895D01*
X51395330Y-75745053D01*
X51420113Y-75737854D01*
X51437791Y-75732719D01*
X51437795Y-75732717D01*
X51455226Y-75722408D01*
X51472980Y-75713709D01*
X51491817Y-75706252D01*
X51527592Y-75680258D01*
X51537498Y-75673751D01*
X51575562Y-75651242D01*
X51589885Y-75636918D01*
X51604924Y-75624074D01*
X51621307Y-75612172D01*
X51649503Y-75578086D01*
X51657462Y-75569340D01*
X52754801Y-74472002D01*
X52817111Y-74437979D01*
X52843894Y-74435100D01*
X95142542Y-74435100D01*
X95203242Y-74450685D01*
X95218542Y-74459096D01*
X95238158Y-74464132D01*
X95256867Y-74470537D01*
X95275455Y-74478581D01*
X95319130Y-74485498D01*
X95330741Y-74487902D01*
X95373570Y-74498900D01*
X95393824Y-74498900D01*
X95413534Y-74500451D01*
X95415741Y-74500800D01*
X95433543Y-74503620D01*
X95477561Y-74499458D01*
X95489419Y-74498900D01*
X111397247Y-74498900D01*
X111413088Y-74500649D01*
X111413116Y-74500356D01*
X111421002Y-74501100D01*
X111421009Y-74501102D01*
X111489086Y-74498962D01*
X111493045Y-74498900D01*
X111520951Y-74498900D01*
X111520956Y-74498900D01*
X111524967Y-74498392D01*
X111536799Y-74497461D01*
X111580989Y-74496073D01*
X111600447Y-74490419D01*
X111619794Y-74486413D01*
X111639897Y-74483874D01*
X111681010Y-74467595D01*
X111692230Y-74463753D01*
X111717013Y-74456554D01*
X111734691Y-74451419D01*
X111734695Y-74451417D01*
X111752126Y-74441108D01*
X111769880Y-74432409D01*
X111788717Y-74424952D01*
X111824492Y-74398958D01*
X111834398Y-74392451D01*
X111872462Y-74369942D01*
X111886785Y-74355618D01*
X111901824Y-74342774D01*
X111918207Y-74330872D01*
X111946403Y-74296786D01*
X111954372Y-74288030D01*
X113530637Y-72711765D01*
X121589788Y-72711765D01*
X121619412Y-72981014D01*
X121687928Y-73243090D01*
X121793869Y-73492389D01*
X121838923Y-73566211D01*
X121934982Y-73723610D01*
X122108255Y-73931820D01*
X122108257Y-73931822D01*
X122108259Y-73931824D01*
X122251225Y-74059921D01*
X122309998Y-74112582D01*
X122535910Y-74262044D01*
X122781176Y-74377020D01*
X123040569Y-74455060D01*
X123040572Y-74455060D01*
X123040574Y-74455061D01*
X123308557Y-74494500D01*
X123308561Y-74494500D01*
X123511631Y-74494500D01*
X123714156Y-74479677D01*
X123714160Y-74479676D01*
X123714161Y-74479676D01*
X123806547Y-74459096D01*
X123978553Y-74420780D01*
X124231558Y-74324014D01*
X124467777Y-74191441D01*
X124682177Y-74025888D01*
X124870186Y-73830881D01*
X125027799Y-73610579D01*
X125029789Y-73606710D01*
X125151656Y-73369675D01*
X125151657Y-73369672D01*
X125218404Y-73174021D01*
X125239118Y-73113305D01*
X125288319Y-72846933D01*
X125298212Y-72576235D01*
X125277844Y-72391123D01*
X125268587Y-72306985D01*
X125209035Y-72079195D01*
X125200072Y-72044912D01*
X125199684Y-72044000D01*
X125094130Y-71795610D01*
X125043042Y-71711900D01*
X124953018Y-71564390D01*
X124779745Y-71356180D01*
X124779741Y-71356177D01*
X124779740Y-71356175D01*
X124578012Y-71175427D01*
X124578002Y-71175418D01*
X124352090Y-71025956D01*
X124106824Y-70910980D01*
X123949392Y-70863615D01*
X123847425Y-70832938D01*
X123579442Y-70793500D01*
X123579439Y-70793500D01*
X123376369Y-70793500D01*
X123173839Y-70808323D01*
X123173838Y-70808323D01*
X122909456Y-70867217D01*
X122909441Y-70867222D01*
X122656441Y-70963986D01*
X122420229Y-71096555D01*
X122420225Y-71096557D01*
X122205818Y-71262116D01*
X122017815Y-71457117D01*
X122017810Y-71457123D01*
X121860203Y-71677417D01*
X121860196Y-71677427D01*
X121736343Y-71918324D01*
X121736342Y-71918327D01*
X121648883Y-72174689D01*
X121648880Y-72174702D01*
X121599681Y-72441058D01*
X121599680Y-72441069D01*
X121589788Y-72711765D01*
X113530637Y-72711765D01*
X115265819Y-70976584D01*
X115328129Y-70942560D01*
X115398945Y-70947625D01*
X115455780Y-70990172D01*
X115480591Y-71056692D01*
X115480482Y-71076083D01*
X115476844Y-71119998D01*
X115481070Y-71170998D01*
X115481500Y-71181403D01*
X115481500Y-72018649D01*
X115488009Y-72079196D01*
X115488011Y-72079204D01*
X115539110Y-72216202D01*
X115539112Y-72216207D01*
X115626738Y-72333261D01*
X115743792Y-72420887D01*
X115743794Y-72420888D01*
X115743796Y-72420889D01*
X115797871Y-72441058D01*
X115880795Y-72471988D01*
X115880803Y-72471990D01*
X115941350Y-72478499D01*
X115941355Y-72478499D01*
X115941362Y-72478500D01*
X115941368Y-72478500D01*
X119538632Y-72478500D01*
X119538638Y-72478500D01*
X119538645Y-72478499D01*
X119538649Y-72478499D01*
X119599196Y-72471990D01*
X119599199Y-72471989D01*
X119599201Y-72471989D01*
X119736204Y-72420889D01*
X119764435Y-72399756D01*
X119853261Y-72333261D01*
X119940887Y-72216207D01*
X119940887Y-72216206D01*
X119940889Y-72216204D01*
X119991989Y-72079201D01*
X119993124Y-72068649D01*
X119998499Y-72018649D01*
X119998500Y-72018632D01*
X119998500Y-70221367D01*
X119998499Y-70221350D01*
X119991990Y-70160803D01*
X119991988Y-70160795D01*
X119940889Y-70023797D01*
X119940889Y-70023796D01*
X119916600Y-69991350D01*
X119867311Y-69925507D01*
X119842501Y-69858989D01*
X119857592Y-69789615D01*
X119867306Y-69774497D01*
X119940889Y-69676204D01*
X119985448Y-69556738D01*
X119991988Y-69539204D01*
X119991990Y-69539196D01*
X119998499Y-69478649D01*
X119998500Y-69478632D01*
X119998500Y-67681367D01*
X119998499Y-67681350D01*
X119991990Y-67620803D01*
X119991988Y-67620795D01*
X119949661Y-67507315D01*
X119940889Y-67483796D01*
X119940888Y-67483794D01*
X119940887Y-67483792D01*
X119867000Y-67385091D01*
X119842189Y-67318571D01*
X119857280Y-67249197D01*
X119867001Y-67234072D01*
X119940443Y-67135966D01*
X119940444Y-67135964D01*
X119991494Y-66999093D01*
X119997999Y-66938597D01*
X119998000Y-66938585D01*
X119998000Y-66294000D01*
X117283001Y-66294000D01*
X117308682Y-66254040D01*
X117350000Y-66113327D01*
X117350000Y-65966673D01*
X117308682Y-65825960D01*
X117283001Y-65786000D01*
X119998000Y-65786000D01*
X119998000Y-65141414D01*
X119997999Y-65141402D01*
X119991494Y-65080906D01*
X119940444Y-64944035D01*
X119940444Y-64944034D01*
X119867000Y-64845925D01*
X119842189Y-64779405D01*
X119857280Y-64710031D01*
X119866998Y-64694909D01*
X119940889Y-64596204D01*
X119991989Y-64459201D01*
X119991989Y-64459199D01*
X119991990Y-64459196D01*
X119998499Y-64398649D01*
X119998500Y-64398632D01*
X119998500Y-62601367D01*
X119998499Y-62601350D01*
X119991990Y-62540803D01*
X119991988Y-62540795D01*
X119959536Y-62453789D01*
X119940889Y-62403796D01*
X119867311Y-62305507D01*
X119842501Y-62238989D01*
X119857592Y-62169615D01*
X119867306Y-62154497D01*
X119940889Y-62056204D01*
X119991989Y-61919201D01*
X119994656Y-61894400D01*
X119998499Y-61858649D01*
X119998500Y-61858632D01*
X119998500Y-60061367D01*
X119998499Y-60061350D01*
X119991990Y-60000803D01*
X119991988Y-60000795D01*
X119940889Y-59863797D01*
X119940889Y-59863796D01*
X119940886Y-59863792D01*
X119867311Y-59765507D01*
X119842501Y-59698989D01*
X119857592Y-59629615D01*
X119867306Y-59614497D01*
X119940889Y-59516204D01*
X119991989Y-59379201D01*
X119997058Y-59332056D01*
X119998499Y-59318649D01*
X119998500Y-59318632D01*
X119998500Y-57521367D01*
X119998499Y-57521350D01*
X119991990Y-57460803D01*
X119991988Y-57460795D01*
X119952498Y-57354920D01*
X119940889Y-57323796D01*
X119867311Y-57225507D01*
X119842501Y-57158989D01*
X119857592Y-57089615D01*
X119867306Y-57074497D01*
X119940889Y-56976204D01*
X119991989Y-56839201D01*
X119998500Y-56778638D01*
X119998500Y-56578120D01*
X120018502Y-56509999D01*
X120072158Y-56463506D01*
X120085568Y-56458286D01*
X120087175Y-56457764D01*
X120094125Y-56453352D01*
X120115267Y-56442580D01*
X120122917Y-56439552D01*
X120168354Y-56406539D01*
X120174882Y-56402103D01*
X120222318Y-56372000D01*
X120227958Y-56365993D01*
X120245744Y-56350312D01*
X120252407Y-56345472D01*
X120288203Y-56302200D01*
X120293426Y-56296275D01*
X120331886Y-56255321D01*
X120335850Y-56248108D01*
X120349185Y-56228486D01*
X120354433Y-56222144D01*
X120378351Y-56171313D01*
X120381941Y-56164269D01*
X120408995Y-56115060D01*
X120411043Y-56107081D01*
X120419074Y-56084773D01*
X120422583Y-56077318D01*
X120433110Y-56022125D01*
X120434825Y-56014454D01*
X120448800Y-55960030D01*
X120448800Y-55951793D01*
X120451033Y-55928179D01*
X120452574Y-55920100D01*
X120452574Y-55920099D01*
X120452575Y-55920094D01*
X120449048Y-55864047D01*
X120448800Y-55856136D01*
X120448800Y-42279054D01*
X120450549Y-42263212D01*
X120450256Y-42263185D01*
X120451000Y-42255299D01*
X120451002Y-42255292D01*
X120448862Y-42187200D01*
X120448800Y-42183242D01*
X120448800Y-42155350D01*
X120448800Y-42155344D01*
X120448293Y-42151335D01*
X120447362Y-42139506D01*
X120445974Y-42095311D01*
X120440320Y-42075852D01*
X120436312Y-42056497D01*
X120433774Y-42036403D01*
X120417495Y-41995287D01*
X120413656Y-41984072D01*
X120408620Y-41966739D01*
X120401319Y-41941607D01*
X120391003Y-41924164D01*
X120382305Y-41906409D01*
X120374852Y-41887583D01*
X120348863Y-41851812D01*
X120342352Y-41841900D01*
X120319842Y-41803838D01*
X120305514Y-41789510D01*
X120292684Y-41774489D01*
X120280772Y-41758093D01*
X120246707Y-41729912D01*
X120237926Y-41721922D01*
X120132042Y-41616037D01*
X120122079Y-41603602D01*
X120121853Y-41603790D01*
X120116800Y-41597682D01*
X120067147Y-41551055D01*
X120064303Y-41548298D01*
X120044577Y-41528571D01*
X120041606Y-41525952D01*
X120041770Y-41525764D01*
X120041784Y-41525749D01*
X120042722Y-41524685D01*
X120005190Y-41472669D01*
X119998000Y-41430715D01*
X119998000Y-40894000D01*
X117283001Y-40894000D01*
X117308682Y-40854040D01*
X117350000Y-40713327D01*
X117350000Y-40566673D01*
X117308682Y-40425960D01*
X117283001Y-40386000D01*
X119998000Y-40386000D01*
X119998000Y-39741414D01*
X119997999Y-39741402D01*
X119991494Y-39680906D01*
X119940444Y-39544035D01*
X119940444Y-39544034D01*
X119867000Y-39445925D01*
X119842189Y-39379405D01*
X119857280Y-39310031D01*
X119866998Y-39294909D01*
X119940889Y-39196204D01*
X119991989Y-39059201D01*
X119992319Y-39056139D01*
X119998499Y-38998649D01*
X119998500Y-38998632D01*
X119998500Y-37201367D01*
X119998499Y-37201350D01*
X119991990Y-37140803D01*
X119991988Y-37140795D01*
X119959794Y-37054482D01*
X119940889Y-37003796D01*
X119867311Y-36905507D01*
X119842501Y-36838989D01*
X119857592Y-36769615D01*
X119867306Y-36754497D01*
X119940889Y-36656204D01*
X119991989Y-36519201D01*
X119995948Y-36482382D01*
X119998499Y-36458649D01*
X119998500Y-36458632D01*
X119998500Y-34661367D01*
X119998499Y-34661350D01*
X119991990Y-34600803D01*
X119991988Y-34600795D01*
X119946961Y-34480075D01*
X119940889Y-34463796D01*
X119867311Y-34365507D01*
X119842501Y-34298989D01*
X119857592Y-34229615D01*
X119867306Y-34214497D01*
X119940889Y-34116204D01*
X119991989Y-33979201D01*
X119994844Y-33952650D01*
X119998499Y-33918649D01*
X119998500Y-33918632D01*
X119998500Y-32121367D01*
X119998499Y-32121350D01*
X119991990Y-32060803D01*
X119991988Y-32060795D01*
X119958935Y-31972178D01*
X119940889Y-31923796D01*
X119867311Y-31825507D01*
X119842501Y-31758989D01*
X119857592Y-31689615D01*
X119867306Y-31674497D01*
X119940889Y-31576204D01*
X119991989Y-31439201D01*
X119992153Y-31437682D01*
X119998499Y-31378649D01*
X119998500Y-31378632D01*
X119998500Y-29581367D01*
X119998499Y-29581350D01*
X119991990Y-29520803D01*
X119991988Y-29520795D01*
X119940889Y-29383797D01*
X119940887Y-29383792D01*
X119867000Y-29285091D01*
X119842189Y-29218571D01*
X119857280Y-29149197D01*
X119867001Y-29134072D01*
X119940443Y-29035966D01*
X119940444Y-29035964D01*
X119991494Y-28899093D01*
X119997999Y-28838597D01*
X119998000Y-28838585D01*
X119998000Y-28194000D01*
X117283001Y-28194000D01*
X117308682Y-28154040D01*
X117350000Y-28013327D01*
X117350000Y-27866673D01*
X117308682Y-27725960D01*
X117283001Y-27686000D01*
X119998000Y-27686000D01*
X119998000Y-27041414D01*
X119997999Y-27041402D01*
X119991494Y-26980906D01*
X119940444Y-26844035D01*
X119940444Y-26844034D01*
X119867000Y-26745925D01*
X119842189Y-26679405D01*
X119857280Y-26610031D01*
X119866998Y-26594909D01*
X119940889Y-26496204D01*
X119991989Y-26359201D01*
X119992164Y-26357582D01*
X119998499Y-26298649D01*
X119998500Y-26298632D01*
X119998500Y-25213765D01*
X121589788Y-25213765D01*
X121619412Y-25483014D01*
X121687928Y-25745090D01*
X121793869Y-25994389D01*
X121823842Y-26043501D01*
X121934982Y-26225610D01*
X122108255Y-26433820D01*
X122108257Y-26433822D01*
X122108259Y-26433824D01*
X122258117Y-26568097D01*
X122309998Y-26614582D01*
X122535910Y-26764044D01*
X122781176Y-26879020D01*
X123040569Y-26957060D01*
X123040572Y-26957060D01*
X123040574Y-26957061D01*
X123308557Y-26996500D01*
X123308561Y-26996500D01*
X123511631Y-26996500D01*
X123714156Y-26981677D01*
X123714160Y-26981676D01*
X123714161Y-26981676D01*
X123836036Y-26954527D01*
X123978553Y-26922780D01*
X124231558Y-26826014D01*
X124467777Y-26693441D01*
X124682177Y-26527888D01*
X124870186Y-26332881D01*
X125027799Y-26112579D01*
X125028561Y-26111098D01*
X125151656Y-25871675D01*
X125151657Y-25871672D01*
X125183987Y-25776906D01*
X125239118Y-25615305D01*
X125274966Y-25421225D01*
X125288318Y-25348941D01*
X125288319Y-25348930D01*
X125289657Y-25312313D01*
X125298212Y-25078235D01*
X125282482Y-24935270D01*
X125268587Y-24808985D01*
X125208616Y-24579595D01*
X125200072Y-24546912D01*
X125191782Y-24527405D01*
X125094130Y-24297610D01*
X125066731Y-24252715D01*
X124953018Y-24066390D01*
X124779745Y-23858180D01*
X124779741Y-23858177D01*
X124779740Y-23858175D01*
X124578012Y-23677427D01*
X124578002Y-23677418D01*
X124352090Y-23527956D01*
X124106824Y-23412980D01*
X123949392Y-23365615D01*
X123847425Y-23334938D01*
X123579442Y-23295500D01*
X123579439Y-23295500D01*
X123376369Y-23295500D01*
X123173839Y-23310323D01*
X123173838Y-23310323D01*
X122909456Y-23369217D01*
X122909441Y-23369222D01*
X122656441Y-23465986D01*
X122420229Y-23598555D01*
X122420225Y-23598557D01*
X122303698Y-23688536D01*
X122248502Y-23731157D01*
X122205818Y-23764116D01*
X122017815Y-23959117D01*
X122017810Y-23959123D01*
X121860203Y-24179417D01*
X121860196Y-24179427D01*
X121736343Y-24420324D01*
X121736342Y-24420327D01*
X121648883Y-24676689D01*
X121648880Y-24676702D01*
X121599681Y-24943058D01*
X121599680Y-24943069D01*
X121589788Y-25213765D01*
X119998500Y-25213765D01*
X119998500Y-24501367D01*
X119998499Y-24501350D01*
X119991990Y-24440803D01*
X119991988Y-24440795D01*
X119953779Y-24338355D01*
X119940889Y-24303796D01*
X119867311Y-24205507D01*
X119842501Y-24138989D01*
X119857592Y-24069615D01*
X119867306Y-24054497D01*
X119940889Y-23956204D01*
X119991989Y-23819201D01*
X119994947Y-23791693D01*
X119998499Y-23758649D01*
X119998500Y-23758632D01*
X119998500Y-21961367D01*
X119998499Y-21961350D01*
X119991990Y-21900803D01*
X119991988Y-21900795D01*
X119939672Y-21760533D01*
X119934606Y-21689718D01*
X119968631Y-21627405D01*
X120030943Y-21593380D01*
X120057727Y-21590500D01*
X125725045Y-21590500D01*
X125734929Y-21590888D01*
X125738913Y-21591201D01*
X125786516Y-21594948D01*
X125787447Y-21595026D01*
X125927423Y-21607273D01*
X125945854Y-21610274D01*
X125969397Y-21615926D01*
X126024434Y-21629139D01*
X126027537Y-21629927D01*
X126132681Y-21658100D01*
X126148265Y-21663390D01*
X126228446Y-21696602D01*
X126233413Y-21698787D01*
X126326686Y-21742282D01*
X126339237Y-21749026D01*
X126415121Y-21795528D01*
X126421505Y-21799713D01*
X126504082Y-21857534D01*
X126513630Y-21864928D01*
X126581919Y-21923252D01*
X126589184Y-21929968D01*
X126660030Y-22000814D01*
X126666746Y-22008079D01*
X126725070Y-22076368D01*
X126732469Y-22085923D01*
X126790275Y-22168479D01*
X126794481Y-22174894D01*
X126835313Y-22241525D01*
X126840963Y-22250744D01*
X126847726Y-22263330D01*
X126891200Y-22356561D01*
X126893414Y-22361593D01*
X126926603Y-22441719D01*
X126931901Y-22457326D01*
X126960057Y-22562406D01*
X126960869Y-22565604D01*
X126979724Y-22644144D01*
X126982725Y-22662574D01*
X126994981Y-22802647D01*
X126995072Y-22803743D01*
X126999111Y-22855057D01*
X126999500Y-22864944D01*
X126999500Y-74925055D01*
X126999111Y-74934942D01*
X126995072Y-74986255D01*
X126994981Y-74987351D01*
X126982725Y-75127424D01*
X126979724Y-75145854D01*
X126960869Y-75224394D01*
X126960057Y-75227592D01*
X126931901Y-75332672D01*
X126926603Y-75348279D01*
X126893414Y-75428405D01*
X126891200Y-75433437D01*
X126847726Y-75526668D01*
X126840963Y-75539254D01*
X126794482Y-75615103D01*
X126790263Y-75621538D01*
X126732472Y-75704071D01*
X126725070Y-75713630D01*
X126666746Y-75781919D01*
X126660030Y-75789184D01*
X126589184Y-75860030D01*
X126581919Y-75866746D01*
X126513630Y-75925070D01*
X126504071Y-75932472D01*
X126421538Y-75990263D01*
X126415103Y-75994482D01*
X126339254Y-76040963D01*
X126326668Y-76047726D01*
X126233437Y-76091200D01*
X126228405Y-76093414D01*
X126148279Y-76126603D01*
X126132672Y-76131901D01*
X126027592Y-76160057D01*
X126024394Y-76160869D01*
X125945854Y-76179724D01*
X125927424Y-76182725D01*
X125787351Y-76194981D01*
X125786255Y-76195072D01*
X125734942Y-76199111D01*
X125725055Y-76199500D01*
X26674945Y-76199500D01*
X26665082Y-76199112D01*
X26613626Y-76195063D01*
X26612647Y-76194981D01*
X26472574Y-76182725D01*
X26454144Y-76179724D01*
X26375604Y-76160869D01*
X26372406Y-76160057D01*
X26267326Y-76131901D01*
X26251719Y-76126603D01*
X26171593Y-76093414D01*
X26166561Y-76091200D01*
X26108426Y-76064091D01*
X26073326Y-76047723D01*
X26060749Y-76040966D01*
X25984894Y-75994481D01*
X25978479Y-75990275D01*
X25895923Y-75932469D01*
X25886368Y-75925070D01*
X25818079Y-75866746D01*
X25810814Y-75860030D01*
X25739968Y-75789184D01*
X25733252Y-75781919D01*
X25674928Y-75713630D01*
X25667534Y-75704082D01*
X25609713Y-75621505D01*
X25605528Y-75615121D01*
X25559026Y-75539237D01*
X25552282Y-75526686D01*
X25508787Y-75433413D01*
X25506602Y-75428446D01*
X25473390Y-75348265D01*
X25468100Y-75332681D01*
X25439927Y-75227537D01*
X25439139Y-75224434D01*
X25420274Y-75145854D01*
X25417273Y-75127423D01*
X25405026Y-74987447D01*
X25404948Y-74986516D01*
X25400888Y-74934929D01*
X25400500Y-74925045D01*
X25400500Y-72711765D01*
X27101788Y-72711765D01*
X27131412Y-72981014D01*
X27199928Y-73243090D01*
X27305869Y-73492389D01*
X27350923Y-73566211D01*
X27446982Y-73723610D01*
X27620255Y-73931820D01*
X27620257Y-73931822D01*
X27620259Y-73931824D01*
X27763225Y-74059921D01*
X27821998Y-74112582D01*
X28047910Y-74262044D01*
X28293176Y-74377020D01*
X28552569Y-74455060D01*
X28552572Y-74455060D01*
X28552574Y-74455061D01*
X28820557Y-74494500D01*
X28820561Y-74494500D01*
X29023631Y-74494500D01*
X29226156Y-74479677D01*
X29226160Y-74479676D01*
X29226161Y-74479676D01*
X29318547Y-74459096D01*
X29490553Y-74420780D01*
X29743558Y-74324014D01*
X29979777Y-74191441D01*
X30194177Y-74025888D01*
X30382186Y-73830881D01*
X30539799Y-73610579D01*
X30541789Y-73606710D01*
X30663656Y-73369675D01*
X30663657Y-73369672D01*
X30730404Y-73174021D01*
X30751118Y-73113305D01*
X30800319Y-72846933D01*
X30810212Y-72576235D01*
X30789844Y-72391123D01*
X30780587Y-72306985D01*
X30721035Y-72079195D01*
X30712072Y-72044912D01*
X30711684Y-72044000D01*
X30606130Y-71795610D01*
X30555042Y-71711900D01*
X30465018Y-71564390D01*
X30291745Y-71356180D01*
X30291741Y-71356177D01*
X30291740Y-71356175D01*
X30090012Y-71175427D01*
X30090002Y-71175418D01*
X29864090Y-71025956D01*
X29618824Y-70910980D01*
X29461392Y-70863615D01*
X29359425Y-70832938D01*
X29091442Y-70793500D01*
X29091439Y-70793500D01*
X28888369Y-70793500D01*
X28685839Y-70808323D01*
X28685838Y-70808323D01*
X28421456Y-70867217D01*
X28421441Y-70867222D01*
X28168441Y-70963986D01*
X27932229Y-71096555D01*
X27932225Y-71096557D01*
X27717818Y-71262116D01*
X27529815Y-71457117D01*
X27529810Y-71457123D01*
X27372203Y-71677417D01*
X27372196Y-71677427D01*
X27248343Y-71918324D01*
X27248342Y-71918327D01*
X27160883Y-72174689D01*
X27160880Y-72174702D01*
X27111681Y-72441058D01*
X27111680Y-72441069D01*
X27101788Y-72711765D01*
X25400500Y-72711765D01*
X25400500Y-25213765D01*
X27101788Y-25213765D01*
X27131412Y-25483014D01*
X27199928Y-25745090D01*
X27305869Y-25994389D01*
X27335842Y-26043501D01*
X27446982Y-26225610D01*
X27620255Y-26433820D01*
X27620257Y-26433822D01*
X27620259Y-26433824D01*
X27770117Y-26568097D01*
X27821998Y-26614582D01*
X28047910Y-26764044D01*
X28293176Y-26879020D01*
X28552569Y-26957060D01*
X28552572Y-26957060D01*
X28552574Y-26957061D01*
X28820557Y-26996500D01*
X28820561Y-26996500D01*
X29023631Y-26996500D01*
X29226156Y-26981677D01*
X29226160Y-26981676D01*
X29226161Y-26981676D01*
X29348036Y-26954527D01*
X29490553Y-26922780D01*
X29743558Y-26826014D01*
X29979777Y-26693441D01*
X30194177Y-26527888D01*
X30382186Y-26332881D01*
X30539799Y-26112579D01*
X30540561Y-26111098D01*
X30663656Y-25871675D01*
X30663657Y-25871672D01*
X30695987Y-25776906D01*
X30751118Y-25615305D01*
X30786966Y-25421225D01*
X30800318Y-25348941D01*
X30800319Y-25348930D01*
X30801657Y-25312313D01*
X30810212Y-25078235D01*
X30794482Y-24935270D01*
X30780587Y-24808985D01*
X30720616Y-24579595D01*
X30712072Y-24546912D01*
X30703782Y-24527405D01*
X30606130Y-24297610D01*
X30578731Y-24252715D01*
X30465018Y-24066390D01*
X30291745Y-23858180D01*
X30291741Y-23858177D01*
X30291740Y-23858175D01*
X30090012Y-23677427D01*
X30090002Y-23677418D01*
X29864090Y-23527956D01*
X29618824Y-23412980D01*
X29461392Y-23365615D01*
X29359425Y-23334938D01*
X29091442Y-23295500D01*
X29091439Y-23295500D01*
X28888369Y-23295500D01*
X28685839Y-23310323D01*
X28685838Y-23310323D01*
X28421456Y-23369217D01*
X28421441Y-23369222D01*
X28168441Y-23465986D01*
X27932229Y-23598555D01*
X27932225Y-23598557D01*
X27815698Y-23688536D01*
X27760502Y-23731157D01*
X27717818Y-23764116D01*
X27529815Y-23959117D01*
X27529810Y-23959123D01*
X27372203Y-24179417D01*
X27372196Y-24179427D01*
X27248343Y-24420324D01*
X27248342Y-24420327D01*
X27160883Y-24676689D01*
X27160880Y-24676702D01*
X27111681Y-24943058D01*
X27111680Y-24943069D01*
X27101788Y-25213765D01*
X25400500Y-25213765D01*
X25400500Y-22864954D01*
X25400888Y-22855070D01*
X25401891Y-22842327D01*
X25404950Y-22803450D01*
X25405026Y-22802551D01*
X25417273Y-22662575D01*
X25420274Y-22644144D01*
X25439148Y-22565527D01*
X25439917Y-22562498D01*
X25468102Y-22457309D01*
X25473386Y-22441743D01*
X25506616Y-22361519D01*
X25508772Y-22356620D01*
X25552289Y-22263298D01*
X25559017Y-22250776D01*
X25605547Y-22174847D01*
X25609693Y-22168523D01*
X25667549Y-22085896D01*
X25674919Y-22076378D01*
X25733265Y-22008064D01*
X25739943Y-22000840D01*
X25810840Y-21929943D01*
X25818064Y-21923265D01*
X25886378Y-21864919D01*
X25895896Y-21857549D01*
X25978523Y-21799693D01*
X25984847Y-21795547D01*
X26060776Y-21749017D01*
X26073298Y-21742289D01*
X26166620Y-21698772D01*
X26171519Y-21696616D01*
X26251743Y-21663386D01*
X26267309Y-21658102D01*
X26372498Y-21629917D01*
X26375527Y-21629148D01*
X26454147Y-21610273D01*
X26472575Y-21607273D01*
X26594390Y-21596614D01*
X26612578Y-21595023D01*
X26613419Y-21594953D01*
X26665070Y-21590887D01*
X26674954Y-21590500D01*
X95842273Y-21590500D01*
X95910394Y-21610502D01*
G37*
%TD.AperFunction*%
%TA.AperFunction,Conductor*%
G36*
X78586833Y-56581037D02*
G01*
X78643668Y-56623584D01*
X78668479Y-56690104D01*
X78668800Y-56699093D01*
X78668800Y-60712305D01*
X78648798Y-60780426D01*
X78631895Y-60801400D01*
X78054800Y-61378495D01*
X77992488Y-61412521D01*
X77965705Y-61415400D01*
X77909813Y-61415400D01*
X77723011Y-61455106D01*
X77548547Y-61532782D01*
X77394044Y-61645035D01*
X77266265Y-61786948D01*
X77266258Y-61786958D01*
X77170776Y-61952338D01*
X77170773Y-61952345D01*
X77111757Y-62133972D01*
X77093523Y-62307470D01*
X77066510Y-62373127D01*
X77008289Y-62413757D01*
X76968213Y-62420300D01*
X72632249Y-62420300D01*
X72616410Y-62418551D01*
X72616383Y-62418845D01*
X72608491Y-62418099D01*
X72540433Y-62420238D01*
X72536475Y-62420300D01*
X72508544Y-62420300D01*
X72506357Y-62420576D01*
X72504511Y-62420809D01*
X72492704Y-62421737D01*
X72448510Y-62423126D01*
X72448505Y-62423127D01*
X72429060Y-62428777D01*
X72409702Y-62432786D01*
X72389610Y-62435324D01*
X72389603Y-62435326D01*
X72348496Y-62451601D01*
X72337271Y-62455444D01*
X72309318Y-62463566D01*
X72294807Y-62467782D01*
X72294805Y-62467782D01*
X72294802Y-62467784D01*
X72277363Y-62478097D01*
X72259618Y-62486790D01*
X72240779Y-62494249D01*
X72205027Y-62520226D01*
X72195104Y-62526744D01*
X72157040Y-62549254D01*
X72142707Y-62563587D01*
X72127681Y-62576420D01*
X72111295Y-62588325D01*
X72083111Y-62622393D01*
X72075123Y-62631170D01*
X71734836Y-62971457D01*
X71722401Y-62981421D01*
X71722589Y-62981648D01*
X71716479Y-62986702D01*
X71669870Y-63036335D01*
X71667120Y-63039173D01*
X71647363Y-63058931D01*
X71644874Y-63062139D01*
X71637188Y-63071136D01*
X71606918Y-63103373D01*
X71606911Y-63103383D01*
X71597151Y-63121135D01*
X71586303Y-63137650D01*
X71573886Y-63153658D01*
X71556324Y-63194240D01*
X71551104Y-63204895D01*
X71529805Y-63243639D01*
X71529803Y-63243644D01*
X71524767Y-63263259D01*
X71518364Y-63281962D01*
X71510319Y-63300552D01*
X71503401Y-63344225D01*
X71500995Y-63355842D01*
X71490000Y-63398668D01*
X71490000Y-63418923D01*
X71488449Y-63438633D01*
X71485280Y-63458642D01*
X71485031Y-63466567D01*
X71481696Y-63466462D01*
X71471030Y-63521213D01*
X71448248Y-63552346D01*
X64551000Y-70449595D01*
X64488688Y-70483621D01*
X64461905Y-70486500D01*
X62550762Y-70486500D01*
X62482641Y-70466498D01*
X62445279Y-70429415D01*
X62329314Y-70251916D01*
X62171225Y-70080186D01*
X62171221Y-70080182D01*
X62057089Y-69991350D01*
X61987017Y-69936810D01*
X61781727Y-69825713D01*
X61781724Y-69825712D01*
X61781723Y-69825711D01*
X61560955Y-69749921D01*
X61560948Y-69749919D01*
X61460645Y-69733182D01*
X61330712Y-69711500D01*
X61097288Y-69711500D01*
X61000003Y-69727734D01*
X60867051Y-69749919D01*
X60867044Y-69749921D01*
X60646276Y-69825711D01*
X60646273Y-69825713D01*
X60452091Y-69930799D01*
X60440985Y-69936809D01*
X60440983Y-69936810D01*
X60256778Y-70080182D01*
X60252946Y-70083711D01*
X60251581Y-70082228D01*
X60198129Y-70114333D01*
X60127165Y-70112180D01*
X60068630Y-70072003D01*
X60048258Y-70036449D01*
X60029947Y-69987358D01*
X60024889Y-69973796D01*
X60024888Y-69973794D01*
X60024887Y-69973792D01*
X59937261Y-69856738D01*
X59820207Y-69769112D01*
X59820202Y-69769110D01*
X59683204Y-69718011D01*
X59683196Y-69718009D01*
X59622649Y-69711500D01*
X59622638Y-69711500D01*
X59433500Y-69711500D01*
X59365379Y-69691498D01*
X59318886Y-69637842D01*
X59307500Y-69585500D01*
X59307500Y-69529594D01*
X59327502Y-69461473D01*
X59344405Y-69440499D01*
X60804500Y-67980405D01*
X60866812Y-67946379D01*
X60893595Y-67943500D01*
X64730206Y-67943500D01*
X64753816Y-67945731D01*
X64761906Y-67947275D01*
X64817952Y-67943748D01*
X64825862Y-67943500D01*
X64841855Y-67943500D01*
X64841856Y-67943500D01*
X64857729Y-67941494D01*
X64865572Y-67940752D01*
X64921650Y-67937225D01*
X64929481Y-67934679D01*
X64952631Y-67929505D01*
X64960797Y-67928474D01*
X65013028Y-67907793D01*
X65020426Y-67905130D01*
X65073875Y-67887764D01*
X65080825Y-67883352D01*
X65101967Y-67872580D01*
X65109617Y-67869552D01*
X65155054Y-67836539D01*
X65161582Y-67832103D01*
X65209018Y-67802000D01*
X65214658Y-67795993D01*
X65232444Y-67780312D01*
X65239107Y-67775472D01*
X65274903Y-67732200D01*
X65280126Y-67726275D01*
X65318586Y-67685321D01*
X65322550Y-67678108D01*
X65335885Y-67658486D01*
X65341133Y-67652144D01*
X65365051Y-67601313D01*
X65368641Y-67594269D01*
X65395694Y-67545061D01*
X65395695Y-67545060D01*
X65397743Y-67537081D01*
X65405774Y-67514773D01*
X65409283Y-67507318D01*
X65419810Y-67452125D01*
X65421525Y-67444454D01*
X65435500Y-67390030D01*
X65435500Y-67381793D01*
X65437733Y-67358179D01*
X65439274Y-67350100D01*
X65439274Y-67350099D01*
X65439275Y-67350094D01*
X65435748Y-67294047D01*
X65435500Y-67286136D01*
X65435500Y-66880855D01*
X65437249Y-66865014D01*
X65436956Y-66864987D01*
X65437701Y-66857094D01*
X65437702Y-66857091D01*
X65435562Y-66789013D01*
X65435500Y-66785054D01*
X65435500Y-66757149D01*
X65435500Y-66757144D01*
X65434992Y-66753130D01*
X65434061Y-66741297D01*
X65432673Y-66697110D01*
X65427022Y-66677663D01*
X65423012Y-66658300D01*
X65420474Y-66638203D01*
X65404195Y-66597090D01*
X65400353Y-66585869D01*
X65388018Y-66543407D01*
X65377705Y-66525969D01*
X65369010Y-66508222D01*
X65361552Y-66489383D01*
X65335568Y-66453620D01*
X65329050Y-66443698D01*
X65318380Y-66425655D01*
X65301525Y-66374688D01*
X65297831Y-66339544D01*
X65282542Y-66194072D01*
X65223527Y-66012444D01*
X65128040Y-65847056D01*
X65128038Y-65847054D01*
X65128034Y-65847048D01*
X65000255Y-65705135D01*
X64845752Y-65592882D01*
X64671288Y-65515206D01*
X64484487Y-65475500D01*
X64293513Y-65475500D01*
X64106711Y-65515206D01*
X63932247Y-65592882D01*
X63777744Y-65705135D01*
X63649965Y-65847048D01*
X63649958Y-65847058D01*
X63554476Y-66012438D01*
X63554473Y-66012445D01*
X63495457Y-66194072D01*
X63475496Y-66384000D01*
X63491611Y-66537330D01*
X63478839Y-66607168D01*
X63430336Y-66659015D01*
X63366301Y-66676500D01*
X60662853Y-66676500D01*
X60647011Y-66674750D01*
X60646984Y-66675044D01*
X60639091Y-66674297D01*
X60571001Y-66676438D01*
X60567043Y-66676500D01*
X60539144Y-66676500D01*
X60539138Y-66676500D01*
X60539132Y-66676501D01*
X60535133Y-66677006D01*
X60523313Y-66677936D01*
X60479114Y-66679325D01*
X60479107Y-66679327D01*
X60459649Y-66684979D01*
X60440304Y-66688985D01*
X60420206Y-66691525D01*
X60420198Y-66691527D01*
X60379090Y-66707802D01*
X60367866Y-66711645D01*
X60325409Y-66723981D01*
X60325407Y-66723981D01*
X60325407Y-66723982D01*
X60307964Y-66734297D01*
X60290218Y-66742990D01*
X60271382Y-66750448D01*
X60235610Y-66776437D01*
X60225694Y-66782951D01*
X60187637Y-66805458D01*
X60173311Y-66819784D01*
X60158285Y-66832617D01*
X60141895Y-66844525D01*
X60141893Y-66844527D01*
X60113700Y-66878605D01*
X60105713Y-66887381D01*
X58285336Y-68707757D01*
X58272901Y-68717721D01*
X58273089Y-68717948D01*
X58266979Y-68723002D01*
X58220370Y-68772635D01*
X58217620Y-68775473D01*
X58197863Y-68795231D01*
X58195374Y-68798439D01*
X58187688Y-68807436D01*
X58157418Y-68839673D01*
X58157411Y-68839683D01*
X58147651Y-68857435D01*
X58136803Y-68873950D01*
X58124386Y-68889958D01*
X58106824Y-68930540D01*
X58101604Y-68941195D01*
X58080305Y-68979939D01*
X58080303Y-68979944D01*
X58075267Y-68999559D01*
X58068864Y-69018262D01*
X58060819Y-69036852D01*
X58053901Y-69080525D01*
X58051495Y-69092142D01*
X58040500Y-69134968D01*
X58040500Y-69155223D01*
X58038949Y-69174933D01*
X58035780Y-69194942D01*
X58039941Y-69238961D01*
X58040500Y-69250819D01*
X58040500Y-69585500D01*
X58020498Y-69653621D01*
X57966842Y-69700114D01*
X57914500Y-69711500D01*
X57725350Y-69711500D01*
X57664803Y-69718009D01*
X57664795Y-69718011D01*
X57527797Y-69769110D01*
X57527792Y-69769112D01*
X57410738Y-69856738D01*
X57323112Y-69973792D01*
X57323110Y-69973797D01*
X57272011Y-70110795D01*
X57272009Y-70110803D01*
X57265500Y-70171350D01*
X57265500Y-71585900D01*
X57245498Y-71654021D01*
X57191842Y-71700514D01*
X57139500Y-71711900D01*
X50302995Y-71711900D01*
X50234874Y-71691898D01*
X50213900Y-71674995D01*
X50154022Y-71615117D01*
X50119996Y-71552805D01*
X50120972Y-71495092D01*
X50157051Y-71352626D01*
X50176327Y-71120000D01*
X50157051Y-70887374D01*
X50143487Y-70833811D01*
X50099750Y-70661096D01*
X50099747Y-70661089D01*
X50062617Y-70576442D01*
X50005984Y-70447331D01*
X49919715Y-70315286D01*
X49878314Y-70251916D01*
X49720225Y-70080186D01*
X49720221Y-70080182D01*
X49606089Y-69991350D01*
X49536017Y-69936810D01*
X49330727Y-69825713D01*
X49330724Y-69825712D01*
X49330723Y-69825711D01*
X49109955Y-69749921D01*
X49109948Y-69749919D01*
X49009645Y-69733182D01*
X48879712Y-69711500D01*
X48646288Y-69711500D01*
X48549003Y-69727734D01*
X48416051Y-69749919D01*
X48416044Y-69749921D01*
X48195276Y-69825711D01*
X48195273Y-69825713D01*
X48001091Y-69930799D01*
X47989985Y-69936809D01*
X47989983Y-69936810D01*
X47805778Y-70080182D01*
X47801946Y-70083711D01*
X47800581Y-70082228D01*
X47747129Y-70114333D01*
X47676165Y-70112180D01*
X47617630Y-70072003D01*
X47597258Y-70036449D01*
X47578947Y-69987358D01*
X47573889Y-69973796D01*
X47573888Y-69973794D01*
X47573887Y-69973792D01*
X47486261Y-69856738D01*
X47369207Y-69769112D01*
X47369202Y-69769110D01*
X47232204Y-69718011D01*
X47232196Y-69718009D01*
X47171649Y-69711500D01*
X47171638Y-69711500D01*
X45274362Y-69711500D01*
X45274350Y-69711500D01*
X45213803Y-69718009D01*
X45213795Y-69718011D01*
X45076797Y-69769110D01*
X45076792Y-69769112D01*
X44959738Y-69856738D01*
X44872112Y-69973792D01*
X44872110Y-69973797D01*
X44821011Y-70110795D01*
X44821009Y-70110803D01*
X44814500Y-70171350D01*
X44814500Y-72068649D01*
X44820885Y-72128032D01*
X44808279Y-72197900D01*
X44759901Y-72249862D01*
X44695607Y-72267500D01*
X42174364Y-72267500D01*
X42106243Y-72247498D01*
X42092534Y-72237311D01*
X41985419Y-72145826D01*
X41985417Y-72145825D01*
X41985416Y-72145824D01*
X41782963Y-72021760D01*
X41775453Y-72018649D01*
X41563592Y-71930894D01*
X41405651Y-71892976D01*
X41332711Y-71875465D01*
X41096000Y-71856835D01*
X40859289Y-71875465D01*
X40628407Y-71930894D01*
X40409038Y-72021759D01*
X40206582Y-72145825D01*
X40206580Y-72145826D01*
X40026030Y-72300030D01*
X39871826Y-72480580D01*
X39871825Y-72480582D01*
X39747759Y-72683038D01*
X39656894Y-72902407D01*
X39601465Y-73133289D01*
X39582835Y-73370000D01*
X39601465Y-73606711D01*
X39655284Y-73830881D01*
X39656895Y-73837593D01*
X39656895Y-73837595D01*
X39678015Y-73888583D01*
X39685604Y-73959173D01*
X39653824Y-74022659D01*
X39592766Y-74058886D01*
X39561606Y-74062800D01*
X38847794Y-74062800D01*
X38779673Y-74042798D01*
X38758699Y-74025895D01*
X35181219Y-70448414D01*
X35147193Y-70386102D01*
X35152258Y-70315286D01*
X35194805Y-70258451D01*
X35222096Y-70242910D01*
X35282738Y-70217791D01*
X35469890Y-70103102D01*
X35469891Y-70103101D01*
X34763624Y-69396834D01*
X34884458Y-69344349D01*
X35001739Y-69248934D01*
X35088928Y-69125415D01*
X35120838Y-69035627D01*
X35829102Y-69743891D01*
X35829102Y-69743890D01*
X35943791Y-69556738D01*
X36034628Y-69337437D01*
X36090039Y-69106632D01*
X36108662Y-68870000D01*
X39583337Y-68870000D01*
X39601960Y-69106632D01*
X39657371Y-69337437D01*
X39748208Y-69556738D01*
X39862896Y-69743890D01*
X39862897Y-69743890D01*
X40569096Y-69037690D01*
X40572884Y-69055915D01*
X40642442Y-69190156D01*
X40745638Y-69300652D01*
X40874819Y-69379209D01*
X40930420Y-69394787D01*
X40222107Y-70103101D01*
X40222108Y-70103102D01*
X40409261Y-70217791D01*
X40628562Y-70308628D01*
X40859367Y-70364039D01*
X41096000Y-70382662D01*
X41332632Y-70364039D01*
X41563437Y-70308628D01*
X41782738Y-70217791D01*
X41969890Y-70103102D01*
X41969891Y-70103102D01*
X41263624Y-69396834D01*
X41384458Y-69344349D01*
X41501739Y-69248934D01*
X41588928Y-69125415D01*
X41620838Y-69035627D01*
X42329102Y-69743891D01*
X42329102Y-69743890D01*
X42443791Y-69556738D01*
X42534628Y-69337437D01*
X42590039Y-69106632D01*
X42608662Y-68870000D01*
X42590039Y-68633367D01*
X42534628Y-68402562D01*
X42443791Y-68183261D01*
X42329102Y-67996108D01*
X42329101Y-67996107D01*
X41622902Y-68702306D01*
X41619116Y-68684085D01*
X41549558Y-68549844D01*
X41446362Y-68439348D01*
X41317181Y-68360791D01*
X41261577Y-68345211D01*
X41969890Y-67636897D01*
X41969890Y-67636896D01*
X41782738Y-67522208D01*
X41563437Y-67431371D01*
X41332632Y-67375960D01*
X41096000Y-67357337D01*
X40859367Y-67375960D01*
X40628562Y-67431371D01*
X40409266Y-67522206D01*
X40222108Y-67636897D01*
X40222108Y-67636898D01*
X40928375Y-68343165D01*
X40807542Y-68395651D01*
X40690261Y-68491066D01*
X40603072Y-68614585D01*
X40571161Y-68704371D01*
X39862898Y-67996108D01*
X39862897Y-67996108D01*
X39748206Y-68183266D01*
X39657371Y-68402562D01*
X39601960Y-68633367D01*
X39583337Y-68870000D01*
X36108662Y-68870000D01*
X36090039Y-68633367D01*
X36034628Y-68402562D01*
X35943791Y-68183261D01*
X35829102Y-67996108D01*
X35829101Y-67996107D01*
X35122902Y-68702306D01*
X35119116Y-68684085D01*
X35049558Y-68549844D01*
X34946362Y-68439348D01*
X34817181Y-68360791D01*
X34761577Y-68345211D01*
X35469890Y-67636897D01*
X35469890Y-67636896D01*
X35282738Y-67522208D01*
X35063437Y-67431371D01*
X34832632Y-67375960D01*
X34598116Y-67357504D01*
X34531775Y-67332219D01*
X34489635Y-67275081D01*
X34485076Y-67204231D01*
X34518905Y-67142799D01*
X34906901Y-66754804D01*
X34969213Y-66720779D01*
X34995996Y-66717900D01*
X45344800Y-66717900D01*
X45412921Y-66737902D01*
X45438437Y-66759590D01*
X45441747Y-66763266D01*
X45596248Y-66875518D01*
X45770712Y-66953194D01*
X45957513Y-66992900D01*
X46148487Y-66992900D01*
X46335288Y-66953194D01*
X46509752Y-66875518D01*
X46664253Y-66763266D01*
X46673363Y-66753148D01*
X46792034Y-66621351D01*
X46792035Y-66621349D01*
X46792040Y-66621344D01*
X46887527Y-66455956D01*
X46946542Y-66274328D01*
X46966504Y-66084400D01*
X46963964Y-66060237D01*
X46976736Y-65990401D01*
X47025237Y-65938554D01*
X47094070Y-65921159D01*
X47161380Y-65943740D01*
X47178369Y-65957973D01*
X47752577Y-66532181D01*
X47786603Y-66594493D01*
X47788792Y-66608105D01*
X47806157Y-66773327D01*
X47833374Y-66857091D01*
X47865173Y-66954956D01*
X47865176Y-66954961D01*
X47960658Y-67120341D01*
X47960665Y-67120351D01*
X48088444Y-67262264D01*
X48088447Y-67262266D01*
X48242948Y-67374518D01*
X48417412Y-67452194D01*
X48604213Y-67491900D01*
X48795187Y-67491900D01*
X48981988Y-67452194D01*
X49156452Y-67374518D01*
X49310953Y-67262266D01*
X49321551Y-67250496D01*
X49438734Y-67120351D01*
X49438735Y-67120349D01*
X49438740Y-67120344D01*
X49534227Y-66954956D01*
X49593242Y-66773328D01*
X49613204Y-66583400D01*
X49593242Y-66393472D01*
X49534227Y-66211844D01*
X49438740Y-66046456D01*
X49438738Y-66046454D01*
X49438734Y-66046448D01*
X49310955Y-65904535D01*
X49156452Y-65792282D01*
X48981988Y-65714606D01*
X48795187Y-65674900D01*
X48739295Y-65674900D01*
X48671174Y-65654898D01*
X48650200Y-65637995D01*
X47465300Y-64453095D01*
X47431274Y-64390783D01*
X47436339Y-64319968D01*
X47478886Y-64263132D01*
X47545406Y-64238321D01*
X47554395Y-64238000D01*
X51968347Y-64238000D01*
X51984188Y-64239749D01*
X51984216Y-64239456D01*
X51992102Y-64240200D01*
X51992109Y-64240202D01*
X52060186Y-64238062D01*
X52064145Y-64238000D01*
X52092051Y-64238000D01*
X52092056Y-64238000D01*
X52096067Y-64237492D01*
X52107899Y-64236561D01*
X52152089Y-64235173D01*
X52171547Y-64229519D01*
X52190894Y-64225513D01*
X52210997Y-64222974D01*
X52252110Y-64206695D01*
X52263330Y-64202853D01*
X52288113Y-64195654D01*
X52305791Y-64190519D01*
X52305795Y-64190517D01*
X52323226Y-64180208D01*
X52340980Y-64171509D01*
X52359817Y-64164052D01*
X52395592Y-64138058D01*
X52405498Y-64131551D01*
X52443562Y-64109042D01*
X52457885Y-64094718D01*
X52472924Y-64081874D01*
X52489307Y-64069972D01*
X52517503Y-64035886D01*
X52525462Y-64027140D01*
X53734601Y-62818002D01*
X53796911Y-62783979D01*
X53823694Y-62781100D01*
X53879587Y-62781100D01*
X54066388Y-62741394D01*
X54240852Y-62663718D01*
X54395353Y-62551466D01*
X54401150Y-62545027D01*
X54461593Y-62507786D01*
X54532577Y-62509135D01*
X54581040Y-62537484D01*
X54611179Y-62565786D01*
X54611180Y-62565786D01*
X54611182Y-62565788D01*
X54628929Y-62575544D01*
X54645459Y-62586402D01*
X54661459Y-62598813D01*
X54702036Y-62616372D01*
X54712687Y-62621590D01*
X54751440Y-62642895D01*
X54771062Y-62647933D01*
X54789763Y-62654335D01*
X54802314Y-62659767D01*
X54808352Y-62662380D01*
X54808353Y-62662380D01*
X54808355Y-62662381D01*
X54852030Y-62669298D01*
X54863641Y-62671702D01*
X54906470Y-62682700D01*
X54926724Y-62682700D01*
X54946434Y-62684251D01*
X54948641Y-62684600D01*
X54966443Y-62687420D01*
X55010461Y-62683258D01*
X55022319Y-62682700D01*
X65680100Y-62682700D01*
X65748221Y-62702702D01*
X65773737Y-62724390D01*
X65777047Y-62728066D01*
X65931548Y-62840318D01*
X66106012Y-62917994D01*
X66292813Y-62957700D01*
X66483787Y-62957700D01*
X66670588Y-62917994D01*
X66845052Y-62840318D01*
X66999553Y-62728066D01*
X67028354Y-62696079D01*
X67127334Y-62586151D01*
X67127335Y-62586149D01*
X67127340Y-62586144D01*
X67222827Y-62420756D01*
X67281842Y-62239128D01*
X67301804Y-62049200D01*
X67283421Y-61874297D01*
X67281152Y-61852704D01*
X67282797Y-61852531D01*
X67287564Y-61790011D01*
X67330376Y-61733375D01*
X67397012Y-61708876D01*
X67433447Y-61711754D01*
X67534428Y-61734803D01*
X67755339Y-61744724D01*
X67974472Y-61715040D01*
X68184783Y-61646706D01*
X68379513Y-61541918D01*
X68552402Y-61404043D01*
X68697895Y-61237513D01*
X68811314Y-61047681D01*
X68849382Y-60946247D01*
X68892043Y-60889499D01*
X68958614Y-60864824D01*
X69027957Y-60880056D01*
X69078057Y-60930361D01*
X69084667Y-60944831D01*
X69085185Y-60945908D01*
X69085186Y-60945909D01*
X69091972Y-60960000D01*
X69181129Y-61145137D01*
X69181133Y-61145144D01*
X69311112Y-61324045D01*
X69311113Y-61324046D01*
X69470947Y-61476863D01*
X69655498Y-61598685D01*
X69858825Y-61685591D01*
X69858832Y-61685593D01*
X69858838Y-61685596D01*
X70074428Y-61734803D01*
X70295339Y-61744724D01*
X70514472Y-61715040D01*
X70724783Y-61646706D01*
X70919513Y-61541918D01*
X71092402Y-61404043D01*
X71237895Y-61237513D01*
X71351314Y-61047681D01*
X71389382Y-60946247D01*
X71432043Y-60889499D01*
X71498614Y-60864824D01*
X71567957Y-60880056D01*
X71618057Y-60930361D01*
X71624667Y-60944831D01*
X71625185Y-60945908D01*
X71625186Y-60945909D01*
X71631972Y-60960000D01*
X71721129Y-61145137D01*
X71721133Y-61145144D01*
X71851112Y-61324045D01*
X71851113Y-61324046D01*
X72010947Y-61476863D01*
X72195498Y-61598685D01*
X72398825Y-61685591D01*
X72398832Y-61685593D01*
X72398838Y-61685596D01*
X72614428Y-61734803D01*
X72835339Y-61744724D01*
X73054472Y-61715040D01*
X73264783Y-61646706D01*
X73459513Y-61541918D01*
X73632402Y-61404043D01*
X73777895Y-61237513D01*
X73785327Y-61225075D01*
X73891307Y-61047693D01*
X73891307Y-61047691D01*
X73891314Y-61047681D01*
X73929650Y-60945532D01*
X73972311Y-60888785D01*
X74038882Y-60864110D01*
X74108225Y-60879342D01*
X74158325Y-60929647D01*
X74165574Y-60945516D01*
X74165651Y-60945722D01*
X74261562Y-61144883D01*
X74261564Y-61144886D01*
X74391490Y-61323715D01*
X74391491Y-61323716D01*
X74551260Y-61476470D01*
X74735733Y-61598240D01*
X74735739Y-61598243D01*
X74938995Y-61685118D01*
X75066000Y-61714106D01*
X75066000Y-60666174D01*
X75177685Y-60717180D01*
X75284237Y-60732500D01*
X75355763Y-60732500D01*
X75462315Y-60717180D01*
X75574000Y-60666174D01*
X75574000Y-61717307D01*
X75574001Y-61717308D01*
X75594348Y-61714553D01*
X75594367Y-61714548D01*
X75804579Y-61646248D01*
X75999237Y-61541497D01*
X76172056Y-61403678D01*
X76317490Y-61237217D01*
X76430855Y-61047475D01*
X76430863Y-61047459D01*
X76508532Y-60840514D01*
X76548000Y-60623025D01*
X76548000Y-60486500D01*
X75751116Y-60486500D01*
X75779493Y-60442344D01*
X75820000Y-60304389D01*
X75820000Y-60160611D01*
X75779493Y-60022656D01*
X75751116Y-59978500D01*
X76548000Y-59978500D01*
X76548000Y-59897351D01*
X76547999Y-59897348D01*
X76533150Y-59732344D01*
X76533149Y-59732343D01*
X76474346Y-59519275D01*
X76474343Y-59519266D01*
X76378437Y-59320116D01*
X76378435Y-59320113D01*
X76248509Y-59141284D01*
X76174943Y-59070949D01*
X76139528Y-59009416D01*
X76143002Y-58938505D01*
X76172919Y-58890783D01*
X78453707Y-56609996D01*
X78516017Y-56575972D01*
X78586833Y-56581037D01*
G37*
%TD.AperFunction*%
%TA.AperFunction,Conductor*%
G36*
X115537431Y-49387337D02*
G01*
X115594267Y-49429884D01*
X115594268Y-49429886D01*
X115612688Y-49454493D01*
X115637498Y-49521013D01*
X115622406Y-49590387D01*
X115612687Y-49605509D01*
X115539112Y-49703792D01*
X115539110Y-49703797D01*
X115488011Y-49840795D01*
X115488009Y-49840803D01*
X115481500Y-49901350D01*
X115481500Y-50738595D01*
X115481070Y-50748999D01*
X115476844Y-50799999D01*
X115481070Y-50850998D01*
X115481500Y-50861403D01*
X115481500Y-51698649D01*
X115488009Y-51759196D01*
X115488011Y-51759204D01*
X115539110Y-51896202D01*
X115539112Y-51896207D01*
X115612999Y-51994907D01*
X115637810Y-52061427D01*
X115622719Y-52130801D01*
X115613000Y-52145924D01*
X115539555Y-52244035D01*
X115488505Y-52380906D01*
X115482000Y-52441402D01*
X115482000Y-53086000D01*
X116396999Y-53086000D01*
X116371318Y-53125960D01*
X116330000Y-53266673D01*
X116330000Y-53413327D01*
X116371318Y-53554040D01*
X116396999Y-53594000D01*
X115482000Y-53594000D01*
X115482000Y-54238597D01*
X115488505Y-54299093D01*
X115539555Y-54435964D01*
X115539556Y-54435966D01*
X115612999Y-54534072D01*
X115637811Y-54600592D01*
X115622720Y-54669966D01*
X115613000Y-54685091D01*
X115539112Y-54783792D01*
X115539110Y-54783797D01*
X115488011Y-54920795D01*
X115488009Y-54920803D01*
X115481500Y-54981350D01*
X115481500Y-55818595D01*
X115481070Y-55828999D01*
X115476844Y-55879999D01*
X115481070Y-55930998D01*
X115481500Y-55941403D01*
X115481500Y-56778649D01*
X115488009Y-56839196D01*
X115488011Y-56839204D01*
X115539110Y-56976202D01*
X115539112Y-56976207D01*
X115612687Y-57074491D01*
X115637498Y-57141011D01*
X115622407Y-57210385D01*
X115612687Y-57225509D01*
X115539112Y-57323792D01*
X115539110Y-57323797D01*
X115488011Y-57460795D01*
X115488009Y-57460803D01*
X115481500Y-57521350D01*
X115481500Y-58358595D01*
X115481070Y-58368999D01*
X115476844Y-58419999D01*
X115481070Y-58470998D01*
X115481500Y-58481403D01*
X115481500Y-59318649D01*
X115488009Y-59379196D01*
X115488011Y-59379204D01*
X115539110Y-59516202D01*
X115539112Y-59516207D01*
X115612687Y-59614491D01*
X115637498Y-59681011D01*
X115622407Y-59750385D01*
X115612687Y-59765509D01*
X115539112Y-59863792D01*
X115539110Y-59863797D01*
X115488011Y-60000795D01*
X115488009Y-60000803D01*
X115481500Y-60061350D01*
X115481500Y-60898595D01*
X115481070Y-60908999D01*
X115476844Y-60959999D01*
X115481070Y-61010998D01*
X115481500Y-61021403D01*
X115481500Y-61858649D01*
X115488009Y-61919196D01*
X115488011Y-61919204D01*
X115539110Y-62056202D01*
X115539112Y-62056207D01*
X115612687Y-62154491D01*
X115637498Y-62221011D01*
X115622407Y-62290385D01*
X115612687Y-62305509D01*
X115539112Y-62403792D01*
X115539110Y-62403797D01*
X115488011Y-62540795D01*
X115488009Y-62540803D01*
X115481500Y-62601350D01*
X115481500Y-63438595D01*
X115481070Y-63448999D01*
X115476844Y-63500000D01*
X115481070Y-63550998D01*
X115481500Y-63561403D01*
X115481500Y-64398649D01*
X115488009Y-64459196D01*
X115488011Y-64459204D01*
X115539110Y-64596202D01*
X115539112Y-64596207D01*
X115612999Y-64694907D01*
X115637810Y-64761427D01*
X115622719Y-64830801D01*
X115613000Y-64845924D01*
X115539555Y-64944035D01*
X115488505Y-65080906D01*
X115482000Y-65141402D01*
X115482000Y-65786000D01*
X116396999Y-65786000D01*
X116371318Y-65825960D01*
X116330000Y-65966673D01*
X116330000Y-66113327D01*
X116371318Y-66254040D01*
X116396999Y-66294000D01*
X115482000Y-66294000D01*
X115482000Y-66938597D01*
X115488505Y-66999093D01*
X115539555Y-67135964D01*
X115539556Y-67135966D01*
X115612999Y-67234072D01*
X115637811Y-67300592D01*
X115622720Y-67369966D01*
X115613000Y-67385091D01*
X115539112Y-67483792D01*
X115539110Y-67483797D01*
X115488011Y-67620795D01*
X115488009Y-67620803D01*
X115481500Y-67681350D01*
X115481500Y-67881879D01*
X115461498Y-67950000D01*
X115407842Y-67996493D01*
X115394444Y-68001710D01*
X115392822Y-68002236D01*
X115385860Y-68006655D01*
X115364737Y-68017417D01*
X115357083Y-68020447D01*
X115311655Y-68053451D01*
X115305114Y-68057896D01*
X115257686Y-68087996D01*
X115257675Y-68088005D01*
X115252031Y-68094015D01*
X115234262Y-68109681D01*
X115227596Y-68114525D01*
X115227590Y-68114530D01*
X115191797Y-68157796D01*
X115186566Y-68163730D01*
X115148117Y-68204675D01*
X115148114Y-68204679D01*
X115144141Y-68211905D01*
X115130825Y-68231498D01*
X115125568Y-68237852D01*
X115125566Y-68237856D01*
X115101647Y-68288685D01*
X115098056Y-68295732D01*
X115071006Y-68344938D01*
X115071002Y-68344948D01*
X115068953Y-68352927D01*
X115060925Y-68375225D01*
X115057418Y-68382677D01*
X115057416Y-68382684D01*
X115046893Y-68437845D01*
X115045167Y-68445565D01*
X115031200Y-68499968D01*
X115031200Y-68508206D01*
X115028968Y-68531818D01*
X115027425Y-68539903D01*
X115027425Y-68539906D01*
X115029947Y-68580000D01*
X115030951Y-68595950D01*
X115031200Y-68603862D01*
X115031200Y-69367205D01*
X115011198Y-69435326D01*
X114994295Y-69456300D01*
X112063595Y-72387000D01*
X112001283Y-72421026D01*
X111930468Y-72415961D01*
X111873632Y-72373414D01*
X111848821Y-72306894D01*
X111848500Y-72297905D01*
X111848500Y-70951403D01*
X111848930Y-70940998D01*
X111851417Y-70910980D01*
X111853156Y-70890000D01*
X111848930Y-70838999D01*
X111848500Y-70828595D01*
X111848500Y-69991367D01*
X111848499Y-69991350D01*
X111841990Y-69930803D01*
X111841988Y-69930795D01*
X111808499Y-69841011D01*
X111790889Y-69793796D01*
X111790888Y-69793794D01*
X111790887Y-69793792D01*
X111703261Y-69676738D01*
X111586207Y-69589112D01*
X111586202Y-69589110D01*
X111449204Y-69538011D01*
X111449196Y-69538009D01*
X111388649Y-69531500D01*
X111388638Y-69531500D01*
X109591362Y-69531500D01*
X109591350Y-69531500D01*
X109530803Y-69538009D01*
X109530795Y-69538011D01*
X109393797Y-69589110D01*
X109393792Y-69589112D01*
X109295091Y-69663000D01*
X109228571Y-69687811D01*
X109159197Y-69672720D01*
X109144072Y-69662999D01*
X109045966Y-69589556D01*
X109045964Y-69589555D01*
X108909093Y-69538505D01*
X108848597Y-69532000D01*
X108204000Y-69532000D01*
X108204000Y-70445331D01*
X108095161Y-70395627D01*
X107986473Y-70380000D01*
X107913527Y-70380000D01*
X107804839Y-70395627D01*
X107696000Y-70445331D01*
X107696000Y-69532000D01*
X107051402Y-69532000D01*
X106990906Y-69538505D01*
X106854035Y-69589555D01*
X106755924Y-69663000D01*
X106689404Y-69687810D01*
X106620030Y-69672718D01*
X106604907Y-69662999D01*
X106506207Y-69589112D01*
X106506202Y-69589110D01*
X106369204Y-69538011D01*
X106369196Y-69538009D01*
X106308649Y-69531500D01*
X106308638Y-69531500D01*
X104511362Y-69531500D01*
X104511350Y-69531500D01*
X104450803Y-69538009D01*
X104450795Y-69538011D01*
X104313797Y-69589110D01*
X104313792Y-69589112D01*
X104196738Y-69676738D01*
X104109112Y-69793792D01*
X104109110Y-69793797D01*
X104058011Y-69930795D01*
X104058009Y-69930803D01*
X104051500Y-69991350D01*
X104051500Y-70828595D01*
X104051070Y-70838999D01*
X104046844Y-70889999D01*
X104051070Y-70940998D01*
X104051500Y-70951403D01*
X104051500Y-73105900D01*
X104031498Y-73174021D01*
X103977842Y-73220514D01*
X103925500Y-73231900D01*
X96972895Y-73231900D01*
X96904774Y-73211898D01*
X96858281Y-73158242D01*
X96848177Y-73087968D01*
X96877671Y-73023388D01*
X96883800Y-73016804D01*
X97053664Y-72846941D01*
X97385201Y-72515404D01*
X97447513Y-72481379D01*
X97474296Y-72478500D01*
X99958632Y-72478500D01*
X99958638Y-72478500D01*
X99958645Y-72478499D01*
X99958649Y-72478499D01*
X100019196Y-72471990D01*
X100019199Y-72471989D01*
X100019201Y-72471989D01*
X100156204Y-72420889D01*
X100184435Y-72399756D01*
X100273261Y-72333261D01*
X100360887Y-72216207D01*
X100360887Y-72216206D01*
X100360889Y-72216204D01*
X100411989Y-72079201D01*
X100413124Y-72068649D01*
X100418499Y-72018649D01*
X100418500Y-72018632D01*
X100418500Y-71181403D01*
X100418930Y-71170998D01*
X100423156Y-71120000D01*
X100418930Y-71068999D01*
X100418500Y-71058595D01*
X100418500Y-70221367D01*
X100418499Y-70221350D01*
X100411990Y-70160803D01*
X100411988Y-70160795D01*
X100360889Y-70023797D01*
X100360889Y-70023796D01*
X100336600Y-69991350D01*
X100287311Y-69925507D01*
X100262501Y-69858989D01*
X100277592Y-69789615D01*
X100287306Y-69774497D01*
X100360889Y-69676204D01*
X100405448Y-69556738D01*
X100411988Y-69539204D01*
X100411990Y-69539196D01*
X100418499Y-69478649D01*
X100418500Y-69478632D01*
X100418500Y-68641403D01*
X100418930Y-68630998D01*
X100420290Y-68614585D01*
X100423156Y-68580000D01*
X100419366Y-68534271D01*
X100418930Y-68528999D01*
X100418500Y-68518595D01*
X100418500Y-67681367D01*
X100418499Y-67681350D01*
X100411990Y-67620803D01*
X100411988Y-67620795D01*
X100369661Y-67507315D01*
X100360889Y-67483796D01*
X100360888Y-67483794D01*
X100360887Y-67483792D01*
X100287000Y-67385091D01*
X100262189Y-67318571D01*
X100277280Y-67249197D01*
X100287001Y-67234072D01*
X100360443Y-67135966D01*
X100360444Y-67135964D01*
X100411494Y-66999093D01*
X100417999Y-66938597D01*
X100418000Y-66938585D01*
X100418000Y-66294000D01*
X99503001Y-66294000D01*
X99528682Y-66254040D01*
X99570000Y-66113327D01*
X99570000Y-65966673D01*
X99528682Y-65825960D01*
X99503001Y-65786000D01*
X100418000Y-65786000D01*
X100418000Y-65141414D01*
X100417999Y-65141402D01*
X100411494Y-65080906D01*
X100360444Y-64944035D01*
X100360444Y-64944034D01*
X100287000Y-64845925D01*
X100262189Y-64779405D01*
X100277280Y-64710031D01*
X100286998Y-64694909D01*
X100360889Y-64596204D01*
X100411989Y-64459201D01*
X100411989Y-64459199D01*
X100411990Y-64459196D01*
X100418499Y-64398649D01*
X100418500Y-64398632D01*
X100418500Y-63561403D01*
X100418930Y-63550998D01*
X100423156Y-63500000D01*
X100418930Y-63448999D01*
X100418500Y-63438595D01*
X100418500Y-62601367D01*
X100418499Y-62601350D01*
X100411990Y-62540803D01*
X100411988Y-62540795D01*
X100379536Y-62453789D01*
X100360889Y-62403796D01*
X100287311Y-62305507D01*
X100262501Y-62238989D01*
X100277592Y-62169615D01*
X100287306Y-62154497D01*
X100360889Y-62056204D01*
X100411989Y-61919201D01*
X100414656Y-61894400D01*
X100418499Y-61858649D01*
X100418500Y-61858632D01*
X100418500Y-61021403D01*
X100418930Y-61010998D01*
X100423156Y-60960000D01*
X100418930Y-60908999D01*
X100418500Y-60898595D01*
X100418500Y-60061367D01*
X100418499Y-60061350D01*
X100411990Y-60000803D01*
X100411988Y-60000795D01*
X100360889Y-59863797D01*
X100360889Y-59863796D01*
X100360886Y-59863792D01*
X100287311Y-59765507D01*
X100262501Y-59698989D01*
X100277592Y-59629615D01*
X100287306Y-59614497D01*
X100360889Y-59516204D01*
X100411989Y-59379201D01*
X100417058Y-59332056D01*
X100418499Y-59318649D01*
X100418500Y-59318632D01*
X100418500Y-58481403D01*
X100418930Y-58470998D01*
X100423156Y-58420000D01*
X100418930Y-58368999D01*
X100418500Y-58358595D01*
X100418500Y-58004100D01*
X100438502Y-57935979D01*
X100492158Y-57889486D01*
X100544500Y-57878100D01*
X106596247Y-57878100D01*
X106612088Y-57879849D01*
X106612116Y-57879556D01*
X106620002Y-57880300D01*
X106620009Y-57880302D01*
X106688086Y-57878162D01*
X106692045Y-57878100D01*
X106719951Y-57878100D01*
X106719956Y-57878100D01*
X106723967Y-57877592D01*
X106735799Y-57876661D01*
X106779989Y-57875273D01*
X106799447Y-57869619D01*
X106818794Y-57865613D01*
X106838897Y-57863074D01*
X106842643Y-57861591D01*
X106854791Y-57856781D01*
X106880010Y-57846795D01*
X106891230Y-57842953D01*
X106916013Y-57835754D01*
X106933691Y-57830619D01*
X106933695Y-57830617D01*
X106951126Y-57820308D01*
X106968880Y-57811609D01*
X106987717Y-57804152D01*
X107023492Y-57778158D01*
X107033398Y-57771651D01*
X107071462Y-57749142D01*
X107085785Y-57734818D01*
X107100824Y-57721974D01*
X107117207Y-57710072D01*
X107145403Y-57675986D01*
X107153372Y-57667230D01*
X115404306Y-49416296D01*
X115466616Y-49382272D01*
X115537431Y-49387337D01*
G37*
%TD.AperFunction*%
%TA.AperFunction,Conductor*%
G36*
X108204000Y-71918000D02*
G01*
X108183998Y-71986121D01*
X108130342Y-72032614D01*
X108078000Y-72044000D01*
X107822000Y-72044000D01*
X107753879Y-72023998D01*
X107707386Y-71970342D01*
X107696000Y-71918000D01*
X107696000Y-71334668D01*
X107804839Y-71384373D01*
X107913527Y-71400000D01*
X107986473Y-71400000D01*
X108095161Y-71384373D01*
X108204000Y-71334668D01*
X108204000Y-71918000D01*
G37*
%TD.AperFunction*%
%TA.AperFunction,Conductor*%
G36*
X95820463Y-64296006D02*
G01*
X95877299Y-64338553D01*
X95901709Y-64400592D01*
X95908010Y-64459197D01*
X95908011Y-64459204D01*
X95959110Y-64596202D01*
X95959112Y-64596207D01*
X96032999Y-64694907D01*
X96057810Y-64761427D01*
X96042719Y-64830801D01*
X96033000Y-64845924D01*
X95959555Y-64944035D01*
X95908505Y-65080906D01*
X95902000Y-65141402D01*
X95902000Y-65786000D01*
X98616999Y-65786000D01*
X98591318Y-65825960D01*
X98550000Y-65966673D01*
X98550000Y-66113327D01*
X98591318Y-66254040D01*
X98616999Y-66294000D01*
X95902000Y-66294000D01*
X95902000Y-66938597D01*
X95908505Y-66999093D01*
X95959555Y-67135964D01*
X95959556Y-67135966D01*
X96032999Y-67234072D01*
X96057811Y-67300592D01*
X96042720Y-67369966D01*
X96033000Y-67385091D01*
X95959112Y-67483792D01*
X95959110Y-67483797D01*
X95908011Y-67620795D01*
X95908009Y-67620803D01*
X95901500Y-67681350D01*
X95901500Y-67820500D01*
X95881498Y-67888621D01*
X95827842Y-67935114D01*
X95775500Y-67946500D01*
X92694153Y-67946500D01*
X92678311Y-67944750D01*
X92678284Y-67945044D01*
X92670392Y-67944298D01*
X92670391Y-67944298D01*
X92646660Y-67945044D01*
X92602314Y-67946438D01*
X92598355Y-67946500D01*
X92570444Y-67946500D01*
X92570441Y-67946500D01*
X92570426Y-67946501D01*
X92566421Y-67947007D01*
X92554604Y-67947937D01*
X92510412Y-67949326D01*
X92510410Y-67949327D01*
X92490955Y-67954978D01*
X92471602Y-67958986D01*
X92451510Y-67961524D01*
X92451503Y-67961526D01*
X92410396Y-67977801D01*
X92399170Y-67981644D01*
X92351007Y-67995638D01*
X92280011Y-67995437D01*
X92220393Y-67956885D01*
X92191083Y-67892221D01*
X92201386Y-67821976D01*
X92226753Y-67785550D01*
X95687338Y-64324965D01*
X95749648Y-64290941D01*
X95820463Y-64296006D01*
G37*
%TD.AperFunction*%
%TA.AperFunction,Conductor*%
G36*
X91314496Y-50995873D02*
G01*
X91371332Y-51038420D01*
X91390297Y-51074992D01*
X91421673Y-51171556D01*
X91421676Y-51171561D01*
X91517158Y-51336941D01*
X91517165Y-51336951D01*
X91644943Y-51478863D01*
X91644946Y-51478865D01*
X91644947Y-51478866D01*
X91799448Y-51591118D01*
X91973912Y-51668794D01*
X92160713Y-51708500D01*
X92351687Y-51708500D01*
X92538488Y-51668794D01*
X92712952Y-51591118D01*
X92867453Y-51478866D01*
X92870763Y-51475190D01*
X92931209Y-51437950D01*
X92964400Y-51433500D01*
X95775500Y-51433500D01*
X95843621Y-51453502D01*
X95890114Y-51507158D01*
X95901500Y-51559500D01*
X95901500Y-51698649D01*
X95908009Y-51759196D01*
X95908011Y-51759204D01*
X95959110Y-51896202D01*
X95959112Y-51896207D01*
X96032999Y-51994907D01*
X96057810Y-52061427D01*
X96042719Y-52130801D01*
X96033000Y-52145924D01*
X95959555Y-52244035D01*
X95908505Y-52380906D01*
X95902000Y-52441402D01*
X95902000Y-53086000D01*
X98616999Y-53086000D01*
X98591318Y-53125960D01*
X98550000Y-53266673D01*
X98550000Y-53413327D01*
X98591318Y-53554040D01*
X98616999Y-53594000D01*
X95902000Y-53594000D01*
X95902000Y-53755900D01*
X95881998Y-53824021D01*
X95828342Y-53870514D01*
X95776000Y-53881900D01*
X91619853Y-53881900D01*
X91604011Y-53880150D01*
X91603984Y-53880444D01*
X91596092Y-53879698D01*
X91596091Y-53879698D01*
X91572360Y-53880444D01*
X91528014Y-53881838D01*
X91524055Y-53881900D01*
X91496144Y-53881900D01*
X91496141Y-53881900D01*
X91496126Y-53881901D01*
X91492121Y-53882407D01*
X91480304Y-53883337D01*
X91436113Y-53884726D01*
X91436111Y-53884727D01*
X91416656Y-53890378D01*
X91397303Y-53894386D01*
X91377211Y-53896924D01*
X91377205Y-53896925D01*
X91377203Y-53896926D01*
X91337881Y-53912494D01*
X91336098Y-53913200D01*
X91324874Y-53917043D01*
X91282407Y-53929382D01*
X91264964Y-53939697D01*
X91247218Y-53948390D01*
X91228382Y-53955848D01*
X91192610Y-53981837D01*
X91182694Y-53988351D01*
X91144637Y-54010858D01*
X91130311Y-54025184D01*
X91115285Y-54038017D01*
X91098895Y-54049925D01*
X91098893Y-54049927D01*
X91070700Y-54084005D01*
X91062713Y-54092781D01*
X88216265Y-56939228D01*
X88153953Y-56973254D01*
X88083137Y-56968189D01*
X88033534Y-56934443D01*
X87962755Y-56855835D01*
X87808252Y-56743582D01*
X87633788Y-56665906D01*
X87446987Y-56626200D01*
X87256013Y-56626200D01*
X87069211Y-56665906D01*
X86894747Y-56743582D01*
X86740244Y-56855835D01*
X86612465Y-56997748D01*
X86612458Y-56997758D01*
X86516976Y-57163138D01*
X86516973Y-57163144D01*
X86502808Y-57206739D01*
X86457957Y-57344772D01*
X86440592Y-57509992D01*
X86413579Y-57575649D01*
X86404377Y-57585916D01*
X80881600Y-63108695D01*
X80819288Y-63142721D01*
X80792505Y-63145600D01*
X79385166Y-63145600D01*
X79317045Y-63125598D01*
X79270552Y-63071942D01*
X79260448Y-63001668D01*
X79276713Y-62955459D01*
X79280208Y-62949548D01*
X79280214Y-62949541D01*
X79288634Y-62930081D01*
X79315173Y-62891029D01*
X91181371Y-51024832D01*
X91243681Y-50990808D01*
X91314496Y-50995873D01*
G37*
%TD.AperFunction*%
%TA.AperFunction,Conductor*%
G36*
X115537431Y-44307338D02*
G01*
X115594267Y-44349885D01*
X115612687Y-44374491D01*
X115637498Y-44441011D01*
X115622407Y-44510385D01*
X115612687Y-44525509D01*
X115539112Y-44623792D01*
X115539110Y-44623797D01*
X115488011Y-44760795D01*
X115488009Y-44760803D01*
X115481500Y-44821350D01*
X115481500Y-45020753D01*
X115461498Y-45088874D01*
X115416629Y-45127752D01*
X115417928Y-45129949D01*
X115411108Y-45133981D01*
X115411107Y-45133982D01*
X115393664Y-45144297D01*
X115375918Y-45152990D01*
X115357082Y-45160448D01*
X115321310Y-45186437D01*
X115311394Y-45192951D01*
X115273337Y-45215458D01*
X115259011Y-45229784D01*
X115243985Y-45242617D01*
X115227595Y-45254525D01*
X115227593Y-45254527D01*
X115199400Y-45288605D01*
X115191413Y-45297381D01*
X106643800Y-53844995D01*
X106581488Y-53879021D01*
X106554705Y-53881900D01*
X100544000Y-53881900D01*
X100475879Y-53861898D01*
X100429386Y-53808242D01*
X100418000Y-53755900D01*
X100418000Y-53594000D01*
X99503001Y-53594000D01*
X99528682Y-53554040D01*
X99570000Y-53413327D01*
X99570000Y-53266673D01*
X99528682Y-53125960D01*
X99503001Y-53086000D01*
X100418000Y-53086000D01*
X100418000Y-52441414D01*
X100417999Y-52441402D01*
X100411494Y-52380906D01*
X100360444Y-52244035D01*
X100360444Y-52244034D01*
X100287000Y-52145925D01*
X100262189Y-52079405D01*
X100277280Y-52010031D01*
X100286998Y-51994909D01*
X100360889Y-51896204D01*
X100411989Y-51759201D01*
X100412302Y-51756298D01*
X100418499Y-51698649D01*
X100418500Y-51698632D01*
X100418500Y-50861403D01*
X100418930Y-50850998D01*
X100423156Y-50800000D01*
X100418930Y-50748999D01*
X100418500Y-50738595D01*
X100418500Y-50227700D01*
X100438502Y-50159579D01*
X100492158Y-50113086D01*
X100544500Y-50101700D01*
X109292647Y-50101700D01*
X109308488Y-50103449D01*
X109308516Y-50103156D01*
X109316402Y-50103900D01*
X109316409Y-50103902D01*
X109384486Y-50101762D01*
X109388445Y-50101700D01*
X109416351Y-50101700D01*
X109416356Y-50101700D01*
X109420367Y-50101192D01*
X109432199Y-50100261D01*
X109476389Y-50098873D01*
X109495847Y-50093219D01*
X109515194Y-50089213D01*
X109535297Y-50086674D01*
X109576410Y-50070395D01*
X109587630Y-50066553D01*
X109612413Y-50059354D01*
X109630091Y-50054219D01*
X109630095Y-50054217D01*
X109647526Y-50043908D01*
X109665280Y-50035209D01*
X109684117Y-50027752D01*
X109719892Y-50001758D01*
X109729798Y-49995251D01*
X109767862Y-49972742D01*
X109782185Y-49958418D01*
X109797224Y-49945574D01*
X109813607Y-49933672D01*
X109841803Y-49899586D01*
X109849772Y-49890830D01*
X115404306Y-44336297D01*
X115466616Y-44302273D01*
X115537431Y-44307338D01*
G37*
%TD.AperFunction*%
%TA.AperFunction,Conductor*%
G36*
X117936121Y-53106002D02*
G01*
X117982614Y-53159658D01*
X117994000Y-53212000D01*
X117994000Y-53468000D01*
X117973998Y-53536121D01*
X117920342Y-53582614D01*
X117868000Y-53594000D01*
X117283001Y-53594000D01*
X117308682Y-53554040D01*
X117350000Y-53413327D01*
X117350000Y-53266673D01*
X117308682Y-53125960D01*
X117283001Y-53086000D01*
X117868000Y-53086000D01*
X117936121Y-53106002D01*
G37*
%TD.AperFunction*%
%TA.AperFunction,Conductor*%
G36*
X100636869Y-35492773D02*
G01*
X104102578Y-38958483D01*
X107537455Y-42393360D01*
X107547420Y-42405797D01*
X107547647Y-42405610D01*
X107552699Y-42411717D01*
X107602349Y-42458341D01*
X107605193Y-42461098D01*
X107624923Y-42480829D01*
X107624924Y-42480830D01*
X107624928Y-42480833D01*
X107624930Y-42480835D01*
X107628135Y-42483321D01*
X107637142Y-42491014D01*
X107669379Y-42521286D01*
X107687128Y-42531043D01*
X107703653Y-42541898D01*
X107719659Y-42554314D01*
X107760242Y-42571875D01*
X107770893Y-42577093D01*
X107809640Y-42598395D01*
X107809648Y-42598397D01*
X107829258Y-42603432D01*
X107847967Y-42609837D01*
X107866555Y-42617881D01*
X107910230Y-42624798D01*
X107921841Y-42627202D01*
X107964670Y-42638200D01*
X107984924Y-42638200D01*
X108004634Y-42639751D01*
X108006841Y-42640100D01*
X108024643Y-42642920D01*
X108068661Y-42638758D01*
X108080519Y-42638200D01*
X115006405Y-42638200D01*
X115074526Y-42658202D01*
X115121019Y-42711858D01*
X115131123Y-42782132D01*
X115101629Y-42846712D01*
X115095500Y-42853295D01*
X109151000Y-48797795D01*
X109088688Y-48831821D01*
X109061905Y-48834700D01*
X100544500Y-48834700D01*
X100476379Y-48814698D01*
X100429886Y-48761042D01*
X100418500Y-48708700D01*
X100418500Y-48321403D01*
X100418930Y-48310998D01*
X100423156Y-48260000D01*
X100418930Y-48208999D01*
X100418500Y-48198595D01*
X100418500Y-47361367D01*
X100418499Y-47361350D01*
X100411990Y-47300803D01*
X100411988Y-47300795D01*
X100376388Y-47205350D01*
X100360889Y-47163796D01*
X100287311Y-47065507D01*
X100262501Y-46998989D01*
X100277592Y-46929615D01*
X100287306Y-46914497D01*
X100360889Y-46816204D01*
X100411989Y-46679201D01*
X100413336Y-46666678D01*
X100418499Y-46618649D01*
X100418500Y-46618632D01*
X100418500Y-45781403D01*
X100418930Y-45770998D01*
X100423156Y-45720000D01*
X100418930Y-45668999D01*
X100418500Y-45658595D01*
X100418500Y-44821367D01*
X100418499Y-44821350D01*
X100411990Y-44760803D01*
X100411988Y-44760795D01*
X100360889Y-44623797D01*
X100360889Y-44623796D01*
X100360886Y-44623792D01*
X100287311Y-44525507D01*
X100262501Y-44458989D01*
X100277592Y-44389615D01*
X100287306Y-44374497D01*
X100360889Y-44276204D01*
X100411989Y-44139201D01*
X100418369Y-44079862D01*
X100418499Y-44078649D01*
X100418500Y-44078632D01*
X100418500Y-43241403D01*
X100418930Y-43230998D01*
X100421380Y-43201427D01*
X100423156Y-43180000D01*
X100418930Y-43128999D01*
X100418500Y-43118595D01*
X100418500Y-42281367D01*
X100418499Y-42281350D01*
X100411990Y-42220803D01*
X100411988Y-42220795D01*
X100360889Y-42083797D01*
X100360887Y-42083792D01*
X100287000Y-41985091D01*
X100262189Y-41918571D01*
X100277280Y-41849197D01*
X100287001Y-41834072D01*
X100360443Y-41735966D01*
X100360444Y-41735964D01*
X100411494Y-41599093D01*
X100417999Y-41538597D01*
X100418000Y-41538585D01*
X100418000Y-40894000D01*
X99503001Y-40894000D01*
X99528682Y-40854040D01*
X99570000Y-40713327D01*
X99570000Y-40566673D01*
X99528682Y-40425960D01*
X99503001Y-40386000D01*
X100418000Y-40386000D01*
X100418000Y-39741414D01*
X100417999Y-39741402D01*
X100411494Y-39680906D01*
X100360444Y-39544035D01*
X100360444Y-39544034D01*
X100287000Y-39445925D01*
X100262189Y-39379405D01*
X100277280Y-39310031D01*
X100286998Y-39294909D01*
X100360889Y-39196204D01*
X100411989Y-39059201D01*
X100412319Y-39056139D01*
X100418499Y-38998649D01*
X100418500Y-38998632D01*
X100418500Y-38161403D01*
X100418930Y-38150998D01*
X100419725Y-38141399D01*
X100423156Y-38100000D01*
X100418930Y-38048999D01*
X100418500Y-38038595D01*
X100418500Y-37201367D01*
X100418499Y-37201350D01*
X100411990Y-37140803D01*
X100411988Y-37140795D01*
X100379794Y-37054482D01*
X100360889Y-37003796D01*
X100287311Y-36905507D01*
X100262501Y-36838989D01*
X100277592Y-36769615D01*
X100287306Y-36754497D01*
X100360889Y-36656204D01*
X100411989Y-36519201D01*
X100415948Y-36482382D01*
X100418499Y-36458649D01*
X100418500Y-36458632D01*
X100418500Y-35621403D01*
X100418930Y-35611001D01*
X100420405Y-35593193D01*
X100422206Y-35571464D01*
X100447763Y-35505230D01*
X100505074Y-35463325D01*
X100575942Y-35459058D01*
X100636869Y-35492773D01*
G37*
%TD.AperFunction*%
%TA.AperFunction,Conductor*%
G36*
X95011727Y-37927002D02*
G01*
X95032701Y-37943905D01*
X95577453Y-38488657D01*
X95587420Y-38501097D01*
X95587647Y-38500910D01*
X95592699Y-38507017D01*
X95592700Y-38507018D01*
X95623882Y-38536300D01*
X95642366Y-38553657D01*
X95645210Y-38556414D01*
X95664930Y-38576134D01*
X95668116Y-38578605D01*
X95677147Y-38586318D01*
X95709378Y-38616585D01*
X95709382Y-38616588D01*
X95727130Y-38626345D01*
X95743657Y-38637201D01*
X95759660Y-38649614D01*
X95800239Y-38667174D01*
X95810881Y-38672387D01*
X95836200Y-38686306D01*
X95886259Y-38736650D01*
X95901500Y-38796721D01*
X95901500Y-38998649D01*
X95908009Y-39059196D01*
X95908011Y-39059204D01*
X95959110Y-39196202D01*
X95959112Y-39196207D01*
X96032999Y-39294907D01*
X96057810Y-39361427D01*
X96042719Y-39430801D01*
X96033000Y-39445924D01*
X95959555Y-39544035D01*
X95908505Y-39680906D01*
X95902000Y-39741402D01*
X95902000Y-40386000D01*
X98616999Y-40386000D01*
X98591318Y-40425960D01*
X98550000Y-40566673D01*
X98550000Y-40713327D01*
X98591318Y-40854040D01*
X98616999Y-40894000D01*
X95902000Y-40894000D01*
X95902000Y-41538597D01*
X95908505Y-41599093D01*
X95959555Y-41735964D01*
X95959556Y-41735966D01*
X96032999Y-41834072D01*
X96057811Y-41900592D01*
X96042720Y-41969966D01*
X96033000Y-41985091D01*
X95959112Y-42083792D01*
X95959110Y-42083797D01*
X95908011Y-42220795D01*
X95908009Y-42220803D01*
X95901500Y-42281350D01*
X95901500Y-42420500D01*
X95881498Y-42488621D01*
X95827842Y-42535114D01*
X95775500Y-42546500D01*
X85963294Y-42546500D01*
X85895173Y-42526498D01*
X85874199Y-42509595D01*
X81590621Y-38226016D01*
X81556595Y-38163704D01*
X81554408Y-38150106D01*
X81547382Y-38083252D01*
X81543485Y-38046169D01*
X81556258Y-37976331D01*
X81604761Y-37924485D01*
X81668795Y-37907000D01*
X94943606Y-37907000D01*
X95011727Y-37927002D01*
G37*
%TD.AperFunction*%
%TA.AperFunction,Conductor*%
G36*
X114242927Y-32498202D02*
G01*
X114263901Y-32515105D01*
X115157453Y-33408657D01*
X115167420Y-33421097D01*
X115167647Y-33420910D01*
X115172699Y-33427017D01*
X115172700Y-33427018D01*
X115183356Y-33437025D01*
X115222366Y-33473657D01*
X115225210Y-33476414D01*
X115244926Y-33496131D01*
X115248123Y-33498611D01*
X115257144Y-33506316D01*
X115289379Y-33536586D01*
X115289380Y-33536586D01*
X115289382Y-33536588D01*
X115307129Y-33546344D01*
X115323659Y-33557202D01*
X115339659Y-33569613D01*
X115380236Y-33587172D01*
X115390879Y-33592385D01*
X115416202Y-33606307D01*
X115466260Y-33656652D01*
X115481500Y-33716721D01*
X115481500Y-33918649D01*
X115488009Y-33979196D01*
X115488011Y-33979204D01*
X115539110Y-34116202D01*
X115539112Y-34116207D01*
X115612687Y-34214491D01*
X115637498Y-34281011D01*
X115622407Y-34350385D01*
X115612687Y-34365509D01*
X115539112Y-34463792D01*
X115539110Y-34463797D01*
X115488011Y-34600795D01*
X115488009Y-34600803D01*
X115481500Y-34661350D01*
X115481500Y-35498595D01*
X115481070Y-35508999D01*
X115476844Y-35559999D01*
X115481070Y-35610998D01*
X115481500Y-35621403D01*
X115481500Y-36458649D01*
X115488009Y-36519196D01*
X115488011Y-36519204D01*
X115539110Y-36656202D01*
X115539112Y-36656207D01*
X115612687Y-36754491D01*
X115637498Y-36821011D01*
X115622407Y-36890385D01*
X115612687Y-36905509D01*
X115539112Y-37003792D01*
X115539110Y-37003797D01*
X115488011Y-37140795D01*
X115488009Y-37140803D01*
X115481500Y-37201350D01*
X115481500Y-38038595D01*
X115481070Y-38048999D01*
X115476844Y-38099999D01*
X115481070Y-38150998D01*
X115481500Y-38161403D01*
X115481500Y-38998649D01*
X115488009Y-39059196D01*
X115488011Y-39059204D01*
X115539110Y-39196202D01*
X115539112Y-39196207D01*
X115612999Y-39294907D01*
X115637810Y-39361427D01*
X115622719Y-39430801D01*
X115613000Y-39445924D01*
X115539555Y-39544035D01*
X115488505Y-39680906D01*
X115482000Y-39741402D01*
X115482000Y-40386000D01*
X116396999Y-40386000D01*
X116371318Y-40425960D01*
X116330000Y-40566673D01*
X116330000Y-40713327D01*
X116371318Y-40854040D01*
X116396999Y-40894000D01*
X115482000Y-40894000D01*
X115482000Y-41245200D01*
X115461998Y-41313321D01*
X115408342Y-41359814D01*
X115356000Y-41371200D01*
X108359294Y-41371200D01*
X108291173Y-41351198D01*
X108270199Y-41334295D01*
X100742644Y-33806739D01*
X100732679Y-33794301D01*
X100732452Y-33794490D01*
X100727401Y-33788384D01*
X100727400Y-33788382D01*
X100677748Y-33741756D01*
X100674905Y-33739000D01*
X100655177Y-33719271D01*
X100655171Y-33719266D01*
X100651967Y-33716780D01*
X100642956Y-33709083D01*
X100610725Y-33678817D01*
X100610719Y-33678813D01*
X100592963Y-33669051D01*
X100576447Y-33658202D01*
X100560441Y-33645786D01*
X100519864Y-33628227D01*
X100509205Y-33623005D01*
X100483799Y-33609038D01*
X100433741Y-33558693D01*
X100418500Y-33498623D01*
X100418500Y-33081403D01*
X100418930Y-33070998D01*
X100423156Y-33020000D01*
X100418930Y-32968999D01*
X100418500Y-32958595D01*
X100418500Y-32604200D01*
X100438502Y-32536079D01*
X100492158Y-32489586D01*
X100544500Y-32478200D01*
X114174806Y-32478200D01*
X114242927Y-32498202D01*
G37*
%TD.AperFunction*%
%TA.AperFunction,Conductor*%
G36*
X115537431Y-23987338D02*
G01*
X115594267Y-24029885D01*
X115612687Y-24054491D01*
X115637498Y-24121011D01*
X115622407Y-24190385D01*
X115612687Y-24205509D01*
X115539112Y-24303792D01*
X115539110Y-24303797D01*
X115488011Y-24440795D01*
X115488009Y-24440803D01*
X115481500Y-24501350D01*
X115481500Y-25338595D01*
X115481070Y-25348999D01*
X115476844Y-25399999D01*
X115481070Y-25450998D01*
X115481500Y-25461403D01*
X115481500Y-26298649D01*
X115488009Y-26359196D01*
X115488011Y-26359204D01*
X115539110Y-26496202D01*
X115539112Y-26496207D01*
X115612999Y-26594907D01*
X115637810Y-26661427D01*
X115622719Y-26730801D01*
X115613000Y-26745924D01*
X115539555Y-26844035D01*
X115488505Y-26980906D01*
X115482000Y-27041402D01*
X115482000Y-27686000D01*
X116396999Y-27686000D01*
X116371318Y-27725960D01*
X116330000Y-27866673D01*
X116330000Y-28013327D01*
X116371318Y-28154040D01*
X116396999Y-28194000D01*
X115482000Y-28194000D01*
X115482000Y-28838597D01*
X115488505Y-28899093D01*
X115539555Y-29035964D01*
X115539556Y-29035966D01*
X115612999Y-29134072D01*
X115637811Y-29200592D01*
X115622720Y-29269966D01*
X115613000Y-29285091D01*
X115539112Y-29383792D01*
X115539110Y-29383797D01*
X115488011Y-29520795D01*
X115488009Y-29520803D01*
X115481500Y-29581350D01*
X115481500Y-30418595D01*
X115481070Y-30428999D01*
X115476844Y-30479999D01*
X115481070Y-30530998D01*
X115481500Y-30541403D01*
X115481500Y-31378649D01*
X115488009Y-31439196D01*
X115488011Y-31439204D01*
X115539110Y-31576202D01*
X115539112Y-31576207D01*
X115612687Y-31674491D01*
X115637498Y-31741011D01*
X115622407Y-31810385D01*
X115612687Y-31825509D01*
X115594268Y-31850114D01*
X115537433Y-31892661D01*
X115466617Y-31897726D01*
X115404307Y-31863702D01*
X114996644Y-31456039D01*
X114986679Y-31443601D01*
X114986452Y-31443790D01*
X114981401Y-31437684D01*
X114981400Y-31437682D01*
X114931748Y-31391056D01*
X114928905Y-31388300D01*
X114909177Y-31368571D01*
X114909171Y-31368566D01*
X114905967Y-31366080D01*
X114896956Y-31358383D01*
X114864725Y-31328117D01*
X114864719Y-31328113D01*
X114846963Y-31318351D01*
X114830447Y-31307502D01*
X114814441Y-31295086D01*
X114773864Y-31277527D01*
X114763207Y-31272305D01*
X114724463Y-31251006D01*
X114724460Y-31251005D01*
X114704836Y-31245966D01*
X114686136Y-31239564D01*
X114667545Y-31231519D01*
X114667543Y-31231518D01*
X114667541Y-31231518D01*
X114623874Y-31224601D01*
X114612255Y-31222195D01*
X114569430Y-31211200D01*
X114549176Y-31211200D01*
X114529466Y-31209649D01*
X114509457Y-31206480D01*
X114465439Y-31210641D01*
X114453581Y-31211200D01*
X100544500Y-31211200D01*
X100476379Y-31191198D01*
X100429886Y-31137542D01*
X100418500Y-31085200D01*
X100418500Y-30541403D01*
X100418930Y-30530998D01*
X100423156Y-30480000D01*
X100418930Y-30428999D01*
X100418500Y-30418595D01*
X100418500Y-30189062D01*
X100438502Y-30120941D01*
X100492158Y-30074448D01*
X100518303Y-30065815D01*
X100522921Y-30064833D01*
X100698588Y-30027494D01*
X100873052Y-29949818D01*
X101027553Y-29837566D01*
X101068401Y-29792200D01*
X101155334Y-29695651D01*
X101155335Y-29695649D01*
X101155340Y-29695644D01*
X101250827Y-29530256D01*
X101309842Y-29348628D01*
X101329804Y-29158700D01*
X101309842Y-28968772D01*
X101250827Y-28787144D01*
X101155340Y-28621756D01*
X101155338Y-28621754D01*
X101155334Y-28621748D01*
X101027555Y-28479835D01*
X100873052Y-28367582D01*
X100698588Y-28289906D01*
X100505328Y-28248827D01*
X100505721Y-28246977D01*
X100448501Y-28223434D01*
X100438235Y-28214234D01*
X100418001Y-28194000D01*
X99503001Y-28194000D01*
X99528682Y-28154040D01*
X99570000Y-28013327D01*
X99570000Y-27866673D01*
X99528682Y-27725960D01*
X99503001Y-27686000D01*
X100418000Y-27686000D01*
X100418000Y-27524100D01*
X100438002Y-27455979D01*
X100491658Y-27409486D01*
X100544000Y-27398100D01*
X101242206Y-27398100D01*
X101310327Y-27418102D01*
X101331301Y-27435005D01*
X101429954Y-27533658D01*
X101439921Y-27546098D01*
X101440148Y-27545911D01*
X101445200Y-27552018D01*
X101445201Y-27552019D01*
X101471166Y-27576402D01*
X101494867Y-27598658D01*
X101497711Y-27601415D01*
X101517427Y-27621132D01*
X101520624Y-27623612D01*
X101529645Y-27631317D01*
X101561880Y-27661587D01*
X101561881Y-27661587D01*
X101561883Y-27661589D01*
X101579630Y-27671345D01*
X101596160Y-27682203D01*
X101612160Y-27694614D01*
X101652737Y-27712173D01*
X101663388Y-27717391D01*
X101702141Y-27738696D01*
X101721763Y-27743734D01*
X101740464Y-27750136D01*
X101753015Y-27755568D01*
X101759053Y-27758181D01*
X101759054Y-27758181D01*
X101759056Y-27758182D01*
X101802731Y-27765099D01*
X101814342Y-27767503D01*
X101857171Y-27778501D01*
X101877425Y-27778501D01*
X101897135Y-27780052D01*
X101899342Y-27780401D01*
X101917144Y-27783221D01*
X101961162Y-27779059D01*
X101973020Y-27778501D01*
X113233146Y-27778501D01*
X113248987Y-27780250D01*
X113249015Y-27779957D01*
X113256901Y-27780701D01*
X113256908Y-27780703D01*
X113324985Y-27778563D01*
X113328944Y-27778501D01*
X113356850Y-27778501D01*
X113356855Y-27778501D01*
X113360866Y-27777993D01*
X113372698Y-27777062D01*
X113416888Y-27775674D01*
X113436346Y-27770020D01*
X113455693Y-27766014D01*
X113475796Y-27763475D01*
X113516909Y-27747196D01*
X113528129Y-27743354D01*
X113552912Y-27736155D01*
X113570590Y-27731020D01*
X113570594Y-27731018D01*
X113588025Y-27720709D01*
X113605779Y-27712010D01*
X113624616Y-27704553D01*
X113660391Y-27678559D01*
X113670297Y-27672052D01*
X113708361Y-27649543D01*
X113722684Y-27635219D01*
X113737723Y-27622375D01*
X113739434Y-27621132D01*
X113754106Y-27610473D01*
X113782302Y-27576387D01*
X113790271Y-27567631D01*
X114648356Y-26709546D01*
X114660796Y-26699583D01*
X114660607Y-26699355D01*
X114666711Y-26694304D01*
X114666717Y-26694301D01*
X114713361Y-26644628D01*
X114716051Y-26641852D01*
X114735834Y-26622071D01*
X114738313Y-26618874D01*
X114746010Y-26609860D01*
X114776285Y-26577622D01*
X114786045Y-26559866D01*
X114796894Y-26543351D01*
X114809313Y-26527342D01*
X114826878Y-26486747D01*
X114832083Y-26476122D01*
X114853394Y-26437361D01*
X114858432Y-26417735D01*
X114864836Y-26399033D01*
X114872880Y-26380446D01*
X114879795Y-26336782D01*
X114882203Y-26325153D01*
X114893199Y-26282331D01*
X114893199Y-26262076D01*
X114894750Y-26242364D01*
X114894806Y-26242012D01*
X114897919Y-26222358D01*
X114893758Y-26178337D01*
X114893199Y-26166480D01*
X114893199Y-24579595D01*
X114913201Y-24511474D01*
X114930099Y-24490504D01*
X115404305Y-24016297D01*
X115466616Y-23982274D01*
X115537431Y-23987338D01*
G37*
%TD.AperFunction*%
%TA.AperFunction,Conductor*%
G36*
X92610039Y-26053502D02*
G01*
X92656532Y-26107158D01*
X92666636Y-26177432D01*
X92651037Y-26222500D01*
X92559849Y-26380442D01*
X92552573Y-26393044D01*
X92539324Y-26433820D01*
X92493557Y-26574672D01*
X92473596Y-26764600D01*
X92493557Y-26954527D01*
X92521785Y-27041402D01*
X92552573Y-27136156D01*
X92552576Y-27136161D01*
X92648058Y-27301541D01*
X92648065Y-27301551D01*
X92775844Y-27443464D01*
X92814787Y-27471758D01*
X92930348Y-27555718D01*
X93104812Y-27633394D01*
X93291613Y-27673100D01*
X93482587Y-27673100D01*
X93669388Y-27633394D01*
X93843852Y-27555718D01*
X93998353Y-27443466D01*
X94001663Y-27439790D01*
X94062109Y-27402550D01*
X94095300Y-27398100D01*
X95776000Y-27398100D01*
X95844121Y-27418102D01*
X95890614Y-27471758D01*
X95902000Y-27524100D01*
X95902000Y-27686000D01*
X98616999Y-27686000D01*
X98591318Y-27725960D01*
X98550000Y-27866673D01*
X98550000Y-28013327D01*
X98591318Y-28154040D01*
X98616999Y-28194000D01*
X95902000Y-28194000D01*
X95902000Y-28399200D01*
X95881998Y-28467321D01*
X95828342Y-28513814D01*
X95776000Y-28525200D01*
X75753395Y-28525200D01*
X75685274Y-28505198D01*
X75664299Y-28488295D01*
X75197220Y-28021215D01*
X75163195Y-27958903D01*
X75161008Y-27945306D01*
X75143642Y-27780072D01*
X75084627Y-27598444D01*
X74989140Y-27433056D01*
X74989138Y-27433054D01*
X74989134Y-27433048D01*
X74861355Y-27291135D01*
X74706852Y-27178882D01*
X74532388Y-27101206D01*
X74345587Y-27061500D01*
X74154613Y-27061500D01*
X73967811Y-27101206D01*
X73793347Y-27178882D01*
X73638844Y-27291135D01*
X73511065Y-27433048D01*
X73511058Y-27433058D01*
X73415576Y-27598438D01*
X73415573Y-27598444D01*
X73414608Y-27601415D01*
X73356557Y-27780072D01*
X73338102Y-27955670D01*
X73311089Y-28021327D01*
X73252867Y-28061957D01*
X73212792Y-28068500D01*
X73069213Y-28068500D01*
X72882411Y-28108206D01*
X72707947Y-28185882D01*
X72553444Y-28298135D01*
X72425665Y-28440048D01*
X72425658Y-28440058D01*
X72330176Y-28605438D01*
X72330173Y-28605444D01*
X72319474Y-28638372D01*
X72283484Y-28749137D01*
X72243410Y-28807742D01*
X72178013Y-28835379D01*
X72163651Y-28836200D01*
X58299417Y-28836200D01*
X58231296Y-28816198D01*
X58184803Y-28762542D01*
X58174107Y-28723370D01*
X58163427Y-28621756D01*
X58155042Y-28541972D01*
X58096027Y-28360344D01*
X58000540Y-28194956D01*
X58000538Y-28194954D01*
X58000534Y-28194948D01*
X57872755Y-28053035D01*
X57718252Y-27940782D01*
X57543788Y-27863106D01*
X57356987Y-27823400D01*
X57166013Y-27823400D01*
X56979211Y-27863106D01*
X56804747Y-27940782D01*
X56650247Y-28053033D01*
X56646937Y-28056710D01*
X56586491Y-28093950D01*
X56553300Y-28098400D01*
X54790094Y-28098400D01*
X54721973Y-28078398D01*
X54675480Y-28024742D01*
X54665376Y-27954468D01*
X54694870Y-27889888D01*
X54700999Y-27883305D01*
X56513899Y-26070405D01*
X56576211Y-26036379D01*
X56602994Y-26033500D01*
X92541918Y-26033500D01*
X92610039Y-26053502D01*
G37*
%TD.AperFunction*%
%TD*%
M02*
