%TF.GenerationSoftware,KiCad,Pcbnew,(6.0.9)*%
%TF.CreationDate,2023-08-23T16:54:36+02:00*%
%TF.ProjectId,pico-sst39sf0x0-pcb,7069636f-2d73-4737-9433-397366307830,rev?*%
%TF.SameCoordinates,Original*%
%TF.FileFunction,Legend,Top*%
%TF.FilePolarity,Positive*%
%FSLAX46Y46*%
G04 Gerber Fmt 4.6, Leading zero omitted, Abs format (unit mm)*
G04 Created by KiCad (PCBNEW (6.0.9)) date 2023-08-23 16:54:36*
%MOMM*%
%LPD*%
G01*
G04 APERTURE LIST*
%ADD10C,0.150000*%
%ADD11C,0.300000*%
%ADD12C,0.090000*%
%ADD13C,0.120000*%
%ADD14C,0.010000*%
G04 APERTURE END LIST*
D10*
X75438000Y-54229000D02*
X80518000Y-54229000D01*
X80518000Y-54229000D02*
X80518000Y-66929000D01*
X80518000Y-66929000D02*
X75438000Y-66929000D01*
X75438000Y-66929000D02*
X75438000Y-54229000D01*
G36*
X75438000Y-54229000D02*
G01*
X80518000Y-54229000D01*
X80518000Y-66929000D01*
X75438000Y-66929000D01*
X75438000Y-54229000D01*
G37*
X20066000Y-51562000D02*
X80518000Y-51562000D01*
X80518000Y-51562000D02*
X80518000Y-43688000D01*
X80518000Y-43688000D02*
X20066000Y-43688000D01*
X20066000Y-43688000D02*
X20066000Y-51562000D01*
G36*
X20066000Y-51562000D02*
G01*
X80518000Y-51562000D01*
X80518000Y-43688000D01*
X20066000Y-43688000D01*
X20066000Y-51562000D01*
G37*
X75438000Y-68707000D02*
X80518000Y-68707000D01*
X80518000Y-68707000D02*
X80518000Y-73787000D01*
X80518000Y-73787000D02*
X75438000Y-73787000D01*
X75438000Y-73787000D02*
X75438000Y-68707000D01*
G36*
X75438000Y-68707000D02*
G01*
X80518000Y-68707000D01*
X80518000Y-73787000D01*
X75438000Y-73787000D01*
X75438000Y-68707000D01*
G37*
X37036952Y-66000380D02*
X37036952Y-66714666D01*
X36989333Y-66857523D01*
X36894095Y-66952761D01*
X36751238Y-67000380D01*
X36656000Y-67000380D01*
X37989333Y-67000380D02*
X37513142Y-67000380D01*
X37513142Y-66000380D01*
X38894095Y-66905142D02*
X38846476Y-66952761D01*
X38703619Y-67000380D01*
X38608380Y-67000380D01*
X38465523Y-66952761D01*
X38370285Y-66857523D01*
X38322666Y-66762285D01*
X38275047Y-66571809D01*
X38275047Y-66428952D01*
X38322666Y-66238476D01*
X38370285Y-66143238D01*
X38465523Y-66048000D01*
X38608380Y-66000380D01*
X38703619Y-66000380D01*
X38846476Y-66048000D01*
X38894095Y-66095619D01*
X39608380Y-66000380D02*
X39608380Y-66714666D01*
X39560761Y-66857523D01*
X39465523Y-66952761D01*
X39322666Y-67000380D01*
X39227428Y-67000380D01*
X40560761Y-67000380D02*
X40084571Y-67000380D01*
X40084571Y-66000380D01*
X41465523Y-66905142D02*
X41417904Y-66952761D01*
X41275047Y-67000380D01*
X41179809Y-67000380D01*
X41036952Y-66952761D01*
X40941714Y-66857523D01*
X40894095Y-66762285D01*
X40846476Y-66571809D01*
X40846476Y-66428952D01*
X40894095Y-66238476D01*
X40941714Y-66143238D01*
X41036952Y-66048000D01*
X41179809Y-66000380D01*
X41275047Y-66000380D01*
X41417904Y-66048000D01*
X41465523Y-66095619D01*
X42179809Y-66000380D02*
X42179809Y-66714666D01*
X42132190Y-66857523D01*
X42036952Y-66952761D01*
X41894095Y-67000380D01*
X41798857Y-67000380D01*
X43132190Y-67000380D02*
X42656000Y-67000380D01*
X42656000Y-66000380D01*
X44036952Y-66905142D02*
X43989333Y-66952761D01*
X43846476Y-67000380D01*
X43751238Y-67000380D01*
X43608380Y-66952761D01*
X43513142Y-66857523D01*
X43465523Y-66762285D01*
X43417904Y-66571809D01*
X43417904Y-66428952D01*
X43465523Y-66238476D01*
X43513142Y-66143238D01*
X43608380Y-66048000D01*
X43751238Y-66000380D01*
X43846476Y-66000380D01*
X43989333Y-66048000D01*
X44036952Y-66095619D01*
X44751238Y-66000380D02*
X44751238Y-66714666D01*
X44703619Y-66857523D01*
X44608380Y-66952761D01*
X44465523Y-67000380D01*
X44370285Y-67000380D01*
X45703619Y-67000380D02*
X45227428Y-67000380D01*
X45227428Y-66000380D01*
X46608380Y-66905142D02*
X46560761Y-66952761D01*
X46417904Y-67000380D01*
X46322666Y-67000380D01*
X46179809Y-66952761D01*
X46084571Y-66857523D01*
X46036952Y-66762285D01*
X45989333Y-66571809D01*
X45989333Y-66428952D01*
X46036952Y-66238476D01*
X46084571Y-66143238D01*
X46179809Y-66048000D01*
X46322666Y-66000380D01*
X46417904Y-66000380D01*
X46560761Y-66048000D01*
X46608380Y-66095619D01*
X78144857Y-42870380D02*
X78144857Y-42203714D01*
X78144857Y-42394190D02*
X78192476Y-42298952D01*
X78240095Y-42251333D01*
X78335333Y-42203714D01*
X78430571Y-42203714D01*
X79144857Y-42822761D02*
X79049619Y-42870380D01*
X78859142Y-42870380D01*
X78763904Y-42822761D01*
X78716285Y-42727523D01*
X78716285Y-42346571D01*
X78763904Y-42251333D01*
X78859142Y-42203714D01*
X79049619Y-42203714D01*
X79144857Y-42251333D01*
X79192476Y-42346571D01*
X79192476Y-42441809D01*
X78716285Y-42537047D01*
X79525809Y-42203714D02*
X79763904Y-42870380D01*
X80002000Y-42203714D01*
X80906761Y-42870380D02*
X80335333Y-42870380D01*
X80621047Y-42870380D02*
X80621047Y-41870380D01*
X80525809Y-42013238D01*
X80430571Y-42108476D01*
X80335333Y-42156095D01*
D11*
X22815999Y-41489142D02*
X22815999Y-38489142D01*
X23958857Y-38489142D01*
X24244571Y-38632000D01*
X24387428Y-38774857D01*
X24530285Y-39060571D01*
X24530285Y-39489142D01*
X24387428Y-39774857D01*
X24244571Y-39917714D01*
X23958857Y-40060571D01*
X22815999Y-40060571D01*
X25815999Y-41489142D02*
X25815999Y-38489142D01*
X28958857Y-41203428D02*
X28815999Y-41346285D01*
X28387428Y-41489142D01*
X28101714Y-41489142D01*
X27673142Y-41346285D01*
X27387428Y-41060571D01*
X27244571Y-40774857D01*
X27101714Y-40203428D01*
X27101714Y-39774857D01*
X27244571Y-39203428D01*
X27387428Y-38917714D01*
X27673142Y-38632000D01*
X28101714Y-38489142D01*
X28387428Y-38489142D01*
X28815999Y-38632000D01*
X28958857Y-38774857D01*
X30815999Y-38489142D02*
X31387428Y-38489142D01*
X31673142Y-38632000D01*
X31958857Y-38917714D01*
X32101714Y-39489142D01*
X32101714Y-40489142D01*
X31958857Y-41060571D01*
X31673142Y-41346285D01*
X31387428Y-41489142D01*
X30815999Y-41489142D01*
X30530285Y-41346285D01*
X30244571Y-41060571D01*
X30101714Y-40489142D01*
X30101714Y-39489142D01*
X30244571Y-38917714D01*
X30530285Y-38632000D01*
X30815999Y-38489142D01*
X34387428Y-39917714D02*
X33387428Y-39917714D01*
X33387428Y-41489142D02*
X33387428Y-38489142D01*
X34815999Y-38489142D01*
X37387428Y-41489142D02*
X35958857Y-41489142D01*
X35958857Y-38489142D01*
X38244571Y-40632000D02*
X39673142Y-40632000D01*
X37958857Y-41489142D02*
X38958857Y-38489142D01*
X39958857Y-41489142D01*
X40815999Y-41346285D02*
X41244571Y-41489142D01*
X41958857Y-41489142D01*
X42244571Y-41346285D01*
X42387428Y-41203428D01*
X42530285Y-40917714D01*
X42530285Y-40632000D01*
X42387428Y-40346285D01*
X42244571Y-40203428D01*
X41958857Y-40060571D01*
X41387428Y-39917714D01*
X41101714Y-39774857D01*
X40958857Y-39632000D01*
X40815999Y-39346285D01*
X40815999Y-39060571D01*
X40958857Y-38774857D01*
X41101714Y-38632000D01*
X41387428Y-38489142D01*
X42101714Y-38489142D01*
X42530285Y-38632000D01*
X43815999Y-41489142D02*
X43815999Y-38489142D01*
X43815999Y-39917714D02*
X45530285Y-39917714D01*
X45530285Y-41489142D02*
X45530285Y-38489142D01*
X46958857Y-39917714D02*
X47958857Y-39917714D01*
X48387428Y-41489142D02*
X46958857Y-41489142D01*
X46958857Y-38489142D01*
X48387428Y-38489142D01*
X51387428Y-41489142D02*
X50387428Y-40060571D01*
X49673142Y-41489142D02*
X49673142Y-38489142D01*
X50815999Y-38489142D01*
X51101714Y-38632000D01*
X51244571Y-38774857D01*
X51387428Y-39060571D01*
X51387428Y-39489142D01*
X51244571Y-39774857D01*
X51101714Y-39917714D01*
X50815999Y-40060571D01*
X49673142Y-40060571D01*
X54815999Y-41346285D02*
X55244571Y-41489142D01*
X55958857Y-41489142D01*
X56244571Y-41346285D01*
X56387428Y-41203428D01*
X56530285Y-40917714D01*
X56530285Y-40632000D01*
X56387428Y-40346285D01*
X56244571Y-40203428D01*
X55958857Y-40060571D01*
X55387428Y-39917714D01*
X55101714Y-39774857D01*
X54958857Y-39632000D01*
X54815999Y-39346285D01*
X54815999Y-39060571D01*
X54958857Y-38774857D01*
X55101714Y-38632000D01*
X55387428Y-38489142D01*
X56101714Y-38489142D01*
X56530285Y-38632000D01*
X57673142Y-41346285D02*
X58101714Y-41489142D01*
X58816000Y-41489142D01*
X59101714Y-41346285D01*
X59244571Y-41203428D01*
X59387428Y-40917714D01*
X59387428Y-40632000D01*
X59244571Y-40346285D01*
X59101714Y-40203428D01*
X58816000Y-40060571D01*
X58244571Y-39917714D01*
X57958857Y-39774857D01*
X57816000Y-39632000D01*
X57673142Y-39346285D01*
X57673142Y-39060571D01*
X57816000Y-38774857D01*
X57958857Y-38632000D01*
X58244571Y-38489142D01*
X58958857Y-38489142D01*
X59387428Y-38632000D01*
X60244571Y-38489142D02*
X61958857Y-38489142D01*
X61101714Y-41489142D02*
X61101714Y-38489142D01*
X62673142Y-38489142D02*
X64530285Y-38489142D01*
X63530285Y-39632000D01*
X63958857Y-39632000D01*
X64244571Y-39774857D01*
X64387428Y-39917714D01*
X64530285Y-40203428D01*
X64530285Y-40917714D01*
X64387428Y-41203428D01*
X64244571Y-41346285D01*
X63958857Y-41489142D01*
X63101714Y-41489142D01*
X62816000Y-41346285D01*
X62673142Y-41203428D01*
X65958857Y-41489142D02*
X66530285Y-41489142D01*
X66816000Y-41346285D01*
X66958857Y-41203428D01*
X67244571Y-40774857D01*
X67387428Y-40203428D01*
X67387428Y-39060571D01*
X67244571Y-38774857D01*
X67101714Y-38632000D01*
X66816000Y-38489142D01*
X66244571Y-38489142D01*
X65958857Y-38632000D01*
X65816000Y-38774857D01*
X65673142Y-39060571D01*
X65673142Y-39774857D01*
X65816000Y-40060571D01*
X65958857Y-40203428D01*
X66244571Y-40346285D01*
X66816000Y-40346285D01*
X67101714Y-40203428D01*
X67244571Y-40060571D01*
X67387428Y-39774857D01*
X68530285Y-41346285D02*
X68958857Y-41489142D01*
X69673142Y-41489142D01*
X69958857Y-41346285D01*
X70101714Y-41203428D01*
X70244571Y-40917714D01*
X70244571Y-40632000D01*
X70101714Y-40346285D01*
X69958857Y-40203428D01*
X69673142Y-40060571D01*
X69101714Y-39917714D01*
X68816000Y-39774857D01*
X68673142Y-39632000D01*
X68530285Y-39346285D01*
X68530285Y-39060571D01*
X68673142Y-38774857D01*
X68816000Y-38632000D01*
X69101714Y-38489142D01*
X69816000Y-38489142D01*
X70244571Y-38632000D01*
X72530285Y-39917714D02*
X71530285Y-39917714D01*
X71530285Y-41489142D02*
X71530285Y-38489142D01*
X72958857Y-38489142D01*
X74673142Y-38489142D02*
X74958857Y-38489142D01*
X75244571Y-38632000D01*
X75387428Y-38774857D01*
X75530285Y-39060571D01*
X75673142Y-39632000D01*
X75673142Y-40346285D01*
X75530285Y-40917714D01*
X75387428Y-41203428D01*
X75244571Y-41346285D01*
X74958857Y-41489142D01*
X74673142Y-41489142D01*
X74387428Y-41346285D01*
X74244571Y-41203428D01*
X74101714Y-40917714D01*
X73958857Y-40346285D01*
X73958857Y-39632000D01*
X74101714Y-39060571D01*
X74244571Y-38774857D01*
X74387428Y-38632000D01*
X74673142Y-38489142D01*
X76673142Y-41489142D02*
X78244571Y-39489142D01*
X76673142Y-39489142D02*
X78244571Y-41489142D01*
X79958857Y-38489142D02*
X80244571Y-38489142D01*
X80530285Y-38632000D01*
X80673142Y-38774857D01*
X80816000Y-39060571D01*
X80958857Y-39632000D01*
X80958857Y-40346285D01*
X80816000Y-40917714D01*
X80673142Y-41203428D01*
X80530285Y-41346285D01*
X80244571Y-41489142D01*
X79958857Y-41489142D01*
X79673142Y-41346285D01*
X79530285Y-41203428D01*
X79387428Y-40917714D01*
X79244571Y-40346285D01*
X79244571Y-39632000D01*
X79387428Y-39060571D01*
X79530285Y-38774857D01*
X79673142Y-38632000D01*
X79958857Y-38489142D01*
D10*
%TO.C,U5*%
X95758095Y-60412380D02*
X95758095Y-61221904D01*
X95805714Y-61317142D01*
X95853333Y-61364761D01*
X95948571Y-61412380D01*
X96139047Y-61412380D01*
X96234285Y-61364761D01*
X96281904Y-61317142D01*
X96329523Y-61221904D01*
X96329523Y-60412380D01*
X97281904Y-60412380D02*
X96805714Y-60412380D01*
X96758095Y-60888571D01*
X96805714Y-60840952D01*
X96900952Y-60793333D01*
X97139047Y-60793333D01*
X97234285Y-60840952D01*
X97281904Y-60888571D01*
X97329523Y-60983809D01*
X97329523Y-61221904D01*
X97281904Y-61317142D01*
X97234285Y-61364761D01*
X97139047Y-61412380D01*
X96900952Y-61412380D01*
X96805714Y-61364761D01*
X96758095Y-61317142D01*
X82363722Y-75320592D02*
X82282910Y-75347529D01*
X82202097Y-75428341D01*
X82148223Y-75536091D01*
X82148223Y-75643841D01*
X82175160Y-75724653D01*
X82255972Y-75859340D01*
X82336784Y-75940152D01*
X82471471Y-76020964D01*
X82552284Y-76047902D01*
X82660033Y-76047902D01*
X82767783Y-75994027D01*
X82821658Y-75940152D01*
X82875532Y-75832402D01*
X82875532Y-75778528D01*
X82686971Y-75589966D01*
X82579221Y-75697715D01*
X83171844Y-75589966D02*
X82606158Y-75024280D01*
X82821658Y-74808781D01*
X82902470Y-74781844D01*
X82956345Y-74781844D01*
X83037157Y-74808781D01*
X83117969Y-74889593D01*
X83144906Y-74970406D01*
X83144906Y-75024280D01*
X83117969Y-75105093D01*
X82902470Y-75320592D01*
X84033841Y-74727969D02*
X83710592Y-75051218D01*
X83872216Y-74889593D02*
X83306531Y-74323908D01*
X83333468Y-74458595D01*
X83333468Y-74566345D01*
X83306531Y-74647157D01*
X83737529Y-74000659D02*
X83737529Y-73946784D01*
X83764467Y-73865972D01*
X83899154Y-73731285D01*
X83979966Y-73704348D01*
X84033841Y-73704348D01*
X84114653Y-73731285D01*
X84168528Y-73785160D01*
X84222402Y-73892910D01*
X84222402Y-74539407D01*
X84572589Y-74189221D01*
X108606158Y-67458155D02*
X108525346Y-67485093D01*
X108444534Y-67565905D01*
X108390659Y-67673654D01*
X108390659Y-67781404D01*
X108417597Y-67862216D01*
X108498409Y-67996903D01*
X108579221Y-68077715D01*
X108713908Y-68158528D01*
X108794720Y-68185465D01*
X108902470Y-68185465D01*
X109010219Y-68131590D01*
X109064094Y-68077715D01*
X109117969Y-67969966D01*
X109117969Y-67916091D01*
X108929407Y-67727529D01*
X108821658Y-67835279D01*
X109414280Y-67727529D02*
X108848595Y-67161844D01*
X109737529Y-67404280D01*
X109171844Y-66838595D01*
X110006903Y-67134906D02*
X109441218Y-66569221D01*
X109575905Y-66434534D01*
X109683654Y-66380659D01*
X109791404Y-66380659D01*
X109872216Y-66407597D01*
X110006903Y-66488409D01*
X110087715Y-66569221D01*
X110168528Y-66703908D01*
X110195465Y-66784720D01*
X110195465Y-66892470D01*
X110141590Y-67000219D01*
X110006903Y-67134906D01*
X82463722Y-82940592D02*
X82382910Y-82967529D01*
X82302097Y-83048341D01*
X82248223Y-83156091D01*
X82248223Y-83263841D01*
X82275160Y-83344653D01*
X82355972Y-83479340D01*
X82436784Y-83560152D01*
X82571471Y-83640964D01*
X82652284Y-83667902D01*
X82760033Y-83667902D01*
X82867783Y-83614027D01*
X82921658Y-83560152D01*
X82975532Y-83452402D01*
X82975532Y-83398528D01*
X82786971Y-83209966D01*
X82679221Y-83317715D01*
X83271844Y-83209966D02*
X82706158Y-82644280D01*
X82921658Y-82428781D01*
X83002470Y-82401844D01*
X83056345Y-82401844D01*
X83137157Y-82428781D01*
X83217969Y-82509593D01*
X83244906Y-82590406D01*
X83244906Y-82644280D01*
X83217969Y-82725093D01*
X83002470Y-82940592D01*
X84133841Y-82347969D02*
X83810592Y-82671218D01*
X83972216Y-82509593D02*
X83406531Y-81943908D01*
X83433468Y-82078595D01*
X83433468Y-82186345D01*
X83406531Y-82267157D01*
X84241590Y-81485972D02*
X84618714Y-81863096D01*
X83891404Y-81405160D02*
X84160778Y-81943908D01*
X84510964Y-81593722D01*
X108671597Y-55700964D02*
X108940971Y-55431590D01*
X108779346Y-55916463D02*
X108402223Y-55162216D01*
X109156470Y-55539340D01*
X109102595Y-54515719D02*
X109021783Y-54542656D01*
X108940971Y-54623468D01*
X108887096Y-54731218D01*
X108887096Y-54838967D01*
X108914033Y-54919780D01*
X108994845Y-55054467D01*
X109075658Y-55135279D01*
X109210345Y-55216091D01*
X109291157Y-55243028D01*
X109398906Y-55243028D01*
X109506656Y-55189154D01*
X109560531Y-55135279D01*
X109614406Y-55027529D01*
X109614406Y-54973654D01*
X109425844Y-54785093D01*
X109318094Y-54892842D01*
X109910717Y-54785093D02*
X109345032Y-54219407D01*
X110233966Y-54461844D01*
X109668280Y-53896158D01*
X110503340Y-54192470D02*
X109937654Y-53626784D01*
X110072341Y-53492097D01*
X110180091Y-53438223D01*
X110287841Y-53438223D01*
X110368653Y-53465160D01*
X110503340Y-53545972D01*
X110584152Y-53626784D01*
X110664964Y-53761471D01*
X110691902Y-53842284D01*
X110691902Y-53950033D01*
X110638027Y-54057783D01*
X110503340Y-54192470D01*
X108617722Y-57550592D02*
X108536910Y-57577529D01*
X108456097Y-57658341D01*
X108402223Y-57766091D01*
X108402223Y-57873841D01*
X108429160Y-57954653D01*
X108509972Y-58089340D01*
X108590784Y-58170152D01*
X108725471Y-58250964D01*
X108806284Y-58277902D01*
X108914033Y-58277902D01*
X109021783Y-58224027D01*
X109075658Y-58170152D01*
X109129532Y-58062402D01*
X109129532Y-58008528D01*
X108940971Y-57819966D01*
X108833221Y-57927715D01*
X109425844Y-57819966D02*
X108860158Y-57254280D01*
X109075658Y-57038781D01*
X109156470Y-57011844D01*
X109210345Y-57011844D01*
X109291157Y-57038781D01*
X109371969Y-57119593D01*
X109398906Y-57200406D01*
X109398906Y-57254280D01*
X109371969Y-57335093D01*
X109156470Y-57550592D01*
X109452781Y-56769407D02*
X109452781Y-56715532D01*
X109479719Y-56634720D01*
X109614406Y-56500033D01*
X109695218Y-56473096D01*
X109749093Y-56473096D01*
X109829905Y-56500033D01*
X109883780Y-56553908D01*
X109937654Y-56661658D01*
X109937654Y-57308155D01*
X110287841Y-56957969D01*
X109910717Y-56203722D02*
X110287841Y-55826598D01*
X110611089Y-56634720D01*
X108617722Y-75320592D02*
X108536910Y-75347529D01*
X108456097Y-75428341D01*
X108402223Y-75536091D01*
X108402223Y-75643841D01*
X108429160Y-75724653D01*
X108509972Y-75859340D01*
X108590784Y-75940152D01*
X108725471Y-76020964D01*
X108806284Y-76047902D01*
X108914033Y-76047902D01*
X109021783Y-75994027D01*
X109075658Y-75940152D01*
X109129532Y-75832402D01*
X109129532Y-75778528D01*
X108940971Y-75589966D01*
X108833221Y-75697715D01*
X109425844Y-75589966D02*
X108860158Y-75024280D01*
X109075658Y-74808781D01*
X109156470Y-74781844D01*
X109210345Y-74781844D01*
X109291157Y-74808781D01*
X109371969Y-74889593D01*
X109398906Y-74970406D01*
X109398906Y-75024280D01*
X109371969Y-75105093D01*
X109156470Y-75320592D01*
X110287841Y-74727969D02*
X109964592Y-75051218D01*
X110126216Y-74889593D02*
X109560531Y-74323908D01*
X109587468Y-74458595D01*
X109587468Y-74566345D01*
X109560531Y-74647157D01*
X110557215Y-74458595D02*
X110664964Y-74350845D01*
X110691902Y-74270033D01*
X110691902Y-74216158D01*
X110664964Y-74081471D01*
X110584152Y-73946784D01*
X110368653Y-73731285D01*
X110287841Y-73704348D01*
X110233966Y-73704348D01*
X110153154Y-73731285D01*
X110045404Y-73839035D01*
X110018467Y-73919847D01*
X110018467Y-73973722D01*
X110045404Y-74054534D01*
X110180091Y-74189221D01*
X110260903Y-74216158D01*
X110314778Y-74216158D01*
X110395590Y-74189221D01*
X110503340Y-74081471D01*
X110530277Y-74000659D01*
X110530277Y-73946784D01*
X110503340Y-73865972D01*
X94303809Y-83470523D02*
X94341904Y-83356238D01*
X94341904Y-83165761D01*
X94303809Y-83089571D01*
X94265714Y-83051476D01*
X94189523Y-83013380D01*
X94113333Y-83013380D01*
X94037142Y-83051476D01*
X93999047Y-83089571D01*
X93960952Y-83165761D01*
X93922857Y-83318142D01*
X93884761Y-83394333D01*
X93846666Y-83432428D01*
X93770476Y-83470523D01*
X93694285Y-83470523D01*
X93618095Y-83432428D01*
X93580000Y-83394333D01*
X93541904Y-83318142D01*
X93541904Y-83127666D01*
X93580000Y-83013380D01*
X93541904Y-82746714D02*
X94341904Y-82556238D01*
X93770476Y-82403857D01*
X94341904Y-82251476D01*
X93541904Y-82061000D01*
X94265714Y-81299095D02*
X94303809Y-81337190D01*
X94341904Y-81451476D01*
X94341904Y-81527666D01*
X94303809Y-81641952D01*
X94227619Y-81718142D01*
X94151428Y-81756238D01*
X93999047Y-81794333D01*
X93884761Y-81794333D01*
X93732380Y-81756238D01*
X93656190Y-81718142D01*
X93580000Y-81641952D01*
X93541904Y-81527666D01*
X93541904Y-81451476D01*
X93580000Y-81337190D01*
X93618095Y-81299095D01*
X94341904Y-80575285D02*
X94341904Y-80956238D01*
X93541904Y-80956238D01*
X94341904Y-80308619D02*
X93541904Y-80308619D01*
X94341904Y-79851476D02*
X93884761Y-80194333D01*
X93541904Y-79851476D02*
X93999047Y-80308619D01*
X83006158Y-80158155D02*
X82925346Y-80185093D01*
X82844534Y-80265905D01*
X82790659Y-80373654D01*
X82790659Y-80481404D01*
X82817597Y-80562216D01*
X82898409Y-80696903D01*
X82979221Y-80777715D01*
X83113908Y-80858528D01*
X83194720Y-80885465D01*
X83302470Y-80885465D01*
X83410219Y-80831590D01*
X83464094Y-80777715D01*
X83517969Y-80669966D01*
X83517969Y-80616091D01*
X83329407Y-80427529D01*
X83221658Y-80535279D01*
X83814280Y-80427529D02*
X83248595Y-79861844D01*
X84137529Y-80104280D01*
X83571844Y-79538595D01*
X84406903Y-79834906D02*
X83841218Y-79269221D01*
X83975905Y-79134534D01*
X84083654Y-79080659D01*
X84191404Y-79080659D01*
X84272216Y-79107597D01*
X84406903Y-79188409D01*
X84487715Y-79269221D01*
X84568528Y-79403908D01*
X84595465Y-79484720D01*
X84595465Y-79592470D01*
X84541590Y-79700219D01*
X84406903Y-79834906D01*
X99383809Y-83483238D02*
X99421904Y-83368952D01*
X99421904Y-83178476D01*
X99383809Y-83102285D01*
X99345714Y-83064190D01*
X99269523Y-83026095D01*
X99193333Y-83026095D01*
X99117142Y-83064190D01*
X99079047Y-83102285D01*
X99040952Y-83178476D01*
X99002857Y-83330857D01*
X98964761Y-83407047D01*
X98926666Y-83445142D01*
X98850476Y-83483238D01*
X98774285Y-83483238D01*
X98698095Y-83445142D01*
X98660000Y-83407047D01*
X98621904Y-83330857D01*
X98621904Y-83140380D01*
X98660000Y-83026095D01*
X98621904Y-82759428D02*
X99421904Y-82568952D01*
X98850476Y-82416571D01*
X99421904Y-82264190D01*
X98621904Y-82073714D01*
X99421904Y-81768952D02*
X98621904Y-81768952D01*
X98621904Y-81578476D01*
X98660000Y-81464190D01*
X98736190Y-81388000D01*
X98812380Y-81349904D01*
X98964761Y-81311809D01*
X99079047Y-81311809D01*
X99231428Y-81349904D01*
X99307619Y-81388000D01*
X99383809Y-81464190D01*
X99421904Y-81578476D01*
X99421904Y-81768952D01*
X99421904Y-80968952D02*
X98621904Y-80968952D01*
X98621904Y-80435619D02*
X98621904Y-80283238D01*
X98660000Y-80207047D01*
X98736190Y-80130857D01*
X98888571Y-80092761D01*
X99155238Y-80092761D01*
X99307619Y-80130857D01*
X99383809Y-80207047D01*
X99421904Y-80283238D01*
X99421904Y-80435619D01*
X99383809Y-80511809D01*
X99307619Y-80588000D01*
X99155238Y-80626095D01*
X98888571Y-80626095D01*
X98736190Y-80588000D01*
X98660000Y-80511809D01*
X98621904Y-80435619D01*
X108606158Y-41550155D02*
X108525346Y-41577093D01*
X108444534Y-41657905D01*
X108390659Y-41765654D01*
X108390659Y-41873404D01*
X108417597Y-41954216D01*
X108498409Y-42088903D01*
X108579221Y-42169715D01*
X108713908Y-42250528D01*
X108794720Y-42277465D01*
X108902470Y-42277465D01*
X109010219Y-42223590D01*
X109064094Y-42169715D01*
X109117969Y-42061966D01*
X109117969Y-42008091D01*
X108929407Y-41819529D01*
X108821658Y-41927279D01*
X109414280Y-41819529D02*
X108848595Y-41253844D01*
X109737529Y-41496280D01*
X109171844Y-40930595D01*
X110006903Y-41226906D02*
X109441218Y-40661221D01*
X109575905Y-40526534D01*
X109683654Y-40472659D01*
X109791404Y-40472659D01*
X109872216Y-40499597D01*
X110006903Y-40580409D01*
X110087715Y-40661221D01*
X110168528Y-40795908D01*
X110195465Y-40876720D01*
X110195465Y-40984470D01*
X110141590Y-41092219D01*
X110006903Y-41226906D01*
X83133096Y-59781218D02*
X83052284Y-59808155D01*
X82971471Y-59888967D01*
X82917597Y-59996717D01*
X82917597Y-60104467D01*
X82944534Y-60185279D01*
X83025346Y-60319966D01*
X83106158Y-60400778D01*
X83240845Y-60481590D01*
X83321658Y-60508528D01*
X83429407Y-60508528D01*
X83537157Y-60454653D01*
X83591032Y-60400778D01*
X83644906Y-60293028D01*
X83644906Y-60239154D01*
X83456345Y-60050592D01*
X83348595Y-60158341D01*
X83941218Y-60050592D02*
X83375532Y-59484906D01*
X83591032Y-59269407D01*
X83671844Y-59242470D01*
X83725719Y-59242470D01*
X83806531Y-59269407D01*
X83887343Y-59350219D01*
X83914280Y-59431032D01*
X83914280Y-59484906D01*
X83887343Y-59565719D01*
X83671844Y-59781218D01*
X83887343Y-58973096D02*
X84264467Y-58595972D01*
X84587715Y-59404094D01*
X82933096Y-44571218D02*
X82852284Y-44598155D01*
X82771471Y-44678967D01*
X82717597Y-44786717D01*
X82717597Y-44894467D01*
X82744534Y-44975279D01*
X82825346Y-45109966D01*
X82906158Y-45190778D01*
X83040845Y-45271590D01*
X83121658Y-45298528D01*
X83229407Y-45298528D01*
X83337157Y-45244653D01*
X83391032Y-45190778D01*
X83444906Y-45083028D01*
X83444906Y-45029154D01*
X83256345Y-44840592D01*
X83148595Y-44948341D01*
X83741218Y-44840592D02*
X83175532Y-44274906D01*
X83391032Y-44059407D01*
X83471844Y-44032470D01*
X83525719Y-44032470D01*
X83606531Y-44059407D01*
X83687343Y-44140219D01*
X83714280Y-44221032D01*
X83714280Y-44274906D01*
X83687343Y-44355719D01*
X83471844Y-44571218D01*
X83768155Y-43790033D02*
X83768155Y-43736158D01*
X83795093Y-43655346D01*
X83929780Y-43520659D01*
X84010592Y-43493722D01*
X84064467Y-43493722D01*
X84145279Y-43520659D01*
X84199154Y-43574534D01*
X84253028Y-43682284D01*
X84253028Y-44328781D01*
X84603215Y-43978595D01*
X83033096Y-57271218D02*
X82952284Y-57298155D01*
X82871471Y-57378967D01*
X82817597Y-57486717D01*
X82817597Y-57594467D01*
X82844534Y-57675279D01*
X82925346Y-57809966D01*
X83006158Y-57890778D01*
X83140845Y-57971590D01*
X83221658Y-57998528D01*
X83329407Y-57998528D01*
X83437157Y-57944653D01*
X83491032Y-57890778D01*
X83544906Y-57783028D01*
X83544906Y-57729154D01*
X83356345Y-57540592D01*
X83248595Y-57648341D01*
X83841218Y-57540592D02*
X83275532Y-56974906D01*
X83491032Y-56759407D01*
X83571844Y-56732470D01*
X83625719Y-56732470D01*
X83706531Y-56759407D01*
X83787343Y-56840219D01*
X83814280Y-56921032D01*
X83814280Y-56974906D01*
X83787343Y-57055719D01*
X83571844Y-57271218D01*
X84083654Y-56166784D02*
X83975905Y-56274534D01*
X83948967Y-56355346D01*
X83948967Y-56409221D01*
X83975905Y-56543908D01*
X84056717Y-56678595D01*
X84272216Y-56894094D01*
X84353028Y-56921032D01*
X84406903Y-56921032D01*
X84487715Y-56894094D01*
X84595465Y-56786345D01*
X84622402Y-56705532D01*
X84622402Y-56651658D01*
X84595465Y-56570845D01*
X84460778Y-56436158D01*
X84379966Y-56409221D01*
X84326091Y-56409221D01*
X84245279Y-56436158D01*
X84137529Y-56543908D01*
X84110592Y-56624720D01*
X84110592Y-56678595D01*
X84137529Y-56759407D01*
X109358375Y-62903435D02*
X108900439Y-62822622D01*
X109035126Y-63226683D02*
X108469441Y-62660998D01*
X108684940Y-62445499D01*
X108765752Y-62418561D01*
X108819627Y-62418561D01*
X108900439Y-62445499D01*
X108981251Y-62526311D01*
X109008189Y-62607123D01*
X109008189Y-62660998D01*
X108981251Y-62741810D01*
X108765752Y-62957309D01*
X109035126Y-62095312D02*
X109493062Y-62553248D01*
X109573874Y-62580186D01*
X109627749Y-62580186D01*
X109708561Y-62553248D01*
X109816311Y-62445499D01*
X109843248Y-62364687D01*
X109843248Y-62310812D01*
X109816311Y-62230000D01*
X109358375Y-61772064D01*
X110193435Y-62068375D02*
X109627749Y-61502690D01*
X110516683Y-61745126D01*
X109950998Y-61179441D01*
X108442131Y-44918308D02*
X108792317Y-44568122D01*
X108819255Y-44972183D01*
X108900067Y-44891370D01*
X108980879Y-44864433D01*
X109034754Y-44864433D01*
X109115566Y-44891370D01*
X109250253Y-45026057D01*
X109277190Y-45106870D01*
X109277190Y-45160744D01*
X109250253Y-45241557D01*
X109088629Y-45403181D01*
X109007816Y-45430118D01*
X108953942Y-45430118D01*
X108953942Y-44406497D02*
X109708189Y-44783621D01*
X109331065Y-44029374D01*
X109465752Y-43894687D02*
X109815938Y-43544500D01*
X109842876Y-43948561D01*
X109923688Y-43867749D01*
X110004500Y-43840812D01*
X110058375Y-43840812D01*
X110139187Y-43867749D01*
X110273874Y-44002436D01*
X110300812Y-44083248D01*
X110300812Y-44137123D01*
X110273874Y-44217935D01*
X110112250Y-44379560D01*
X110031438Y-44406497D01*
X109977563Y-44406497D01*
X110543248Y-44056311D02*
X110974247Y-43625312D01*
X110758748Y-43140439D02*
X110947309Y-42951877D01*
X111324433Y-43167377D02*
X111055059Y-43436751D01*
X110489374Y-42871065D01*
X110758748Y-42601691D01*
X111566870Y-42924940D02*
X111001184Y-42359255D01*
X111890118Y-42601691D01*
X111324433Y-42036006D01*
X83006158Y-67458155D02*
X82925346Y-67485093D01*
X82844534Y-67565905D01*
X82790659Y-67673654D01*
X82790659Y-67781404D01*
X82817597Y-67862216D01*
X82898409Y-67996903D01*
X82979221Y-68077715D01*
X83113908Y-68158528D01*
X83194720Y-68185465D01*
X83302470Y-68185465D01*
X83410219Y-68131590D01*
X83464094Y-68077715D01*
X83517969Y-67969966D01*
X83517969Y-67916091D01*
X83329407Y-67727529D01*
X83221658Y-67835279D01*
X83814280Y-67727529D02*
X83248595Y-67161844D01*
X84137529Y-67404280D01*
X83571844Y-66838595D01*
X84406903Y-67134906D02*
X83841218Y-66569221D01*
X83975905Y-66434534D01*
X84083654Y-66380659D01*
X84191404Y-66380659D01*
X84272216Y-66407597D01*
X84406903Y-66488409D01*
X84487715Y-66569221D01*
X84568528Y-66703908D01*
X84595465Y-66784720D01*
X84595465Y-66892470D01*
X84541590Y-67000219D01*
X84406903Y-67134906D01*
X82363722Y-72780592D02*
X82282910Y-72807529D01*
X82202097Y-72888341D01*
X82148223Y-72996091D01*
X82148223Y-73103841D01*
X82175160Y-73184653D01*
X82255972Y-73319340D01*
X82336784Y-73400152D01*
X82471471Y-73480964D01*
X82552284Y-73507902D01*
X82660033Y-73507902D01*
X82767783Y-73454027D01*
X82821658Y-73400152D01*
X82875532Y-73292402D01*
X82875532Y-73238528D01*
X82686971Y-73049966D01*
X82579221Y-73157715D01*
X83171844Y-73049966D02*
X82606158Y-72484280D01*
X82821658Y-72268781D01*
X82902470Y-72241844D01*
X82956345Y-72241844D01*
X83037157Y-72268781D01*
X83117969Y-72349593D01*
X83144906Y-72430406D01*
X83144906Y-72484280D01*
X83117969Y-72565093D01*
X82902470Y-72780592D01*
X84033841Y-72187969D02*
X83710592Y-72511218D01*
X83872216Y-72349593D02*
X83306531Y-71783908D01*
X83333468Y-71918595D01*
X83333468Y-72026345D01*
X83306531Y-72107157D01*
X84572589Y-71649221D02*
X84249340Y-71972470D01*
X84410964Y-71810845D02*
X83845279Y-71245160D01*
X83872216Y-71379847D01*
X83872216Y-71487597D01*
X83845279Y-71568409D01*
X108606158Y-80158155D02*
X108525346Y-80185093D01*
X108444534Y-80265905D01*
X108390659Y-80373654D01*
X108390659Y-80481404D01*
X108417597Y-80562216D01*
X108498409Y-80696903D01*
X108579221Y-80777715D01*
X108713908Y-80858528D01*
X108794720Y-80885465D01*
X108902470Y-80885465D01*
X109010219Y-80831590D01*
X109064094Y-80777715D01*
X109117969Y-80669966D01*
X109117969Y-80616091D01*
X108929407Y-80427529D01*
X108821658Y-80535279D01*
X109414280Y-80427529D02*
X108848595Y-79861844D01*
X109737529Y-80104280D01*
X109171844Y-79538595D01*
X110006903Y-79834906D02*
X109441218Y-79269221D01*
X109575905Y-79134534D01*
X109683654Y-79080659D01*
X109791404Y-79080659D01*
X109872216Y-79107597D01*
X110006903Y-79188409D01*
X110087715Y-79269221D01*
X110168528Y-79403908D01*
X110195465Y-79484720D01*
X110195465Y-79592470D01*
X110141590Y-79700219D01*
X110006903Y-79834906D01*
X83033096Y-49651218D02*
X82952284Y-49678155D01*
X82871471Y-49758967D01*
X82817597Y-49866717D01*
X82817597Y-49974467D01*
X82844534Y-50055279D01*
X82925346Y-50189966D01*
X83006158Y-50270778D01*
X83140845Y-50351590D01*
X83221658Y-50378528D01*
X83329407Y-50378528D01*
X83437157Y-50324653D01*
X83491032Y-50270778D01*
X83544906Y-50163028D01*
X83544906Y-50109154D01*
X83356345Y-49920592D01*
X83248595Y-50028341D01*
X83841218Y-49920592D02*
X83275532Y-49354906D01*
X83491032Y-49139407D01*
X83571844Y-49112470D01*
X83625719Y-49112470D01*
X83706531Y-49139407D01*
X83787343Y-49220219D01*
X83814280Y-49301032D01*
X83814280Y-49354906D01*
X83787343Y-49435719D01*
X83571844Y-49651218D01*
X84272216Y-48735346D02*
X84649340Y-49112470D01*
X83922030Y-48654534D02*
X84191404Y-49193282D01*
X84541590Y-48843096D01*
X108674788Y-50493773D02*
X108944162Y-50224399D01*
X108782537Y-50709272D02*
X108405414Y-49955025D01*
X109159661Y-50332149D01*
X109348223Y-50143587D02*
X108782537Y-49577902D01*
X108917224Y-49443215D01*
X109024974Y-49389340D01*
X109132723Y-49389340D01*
X109213536Y-49416277D01*
X109348223Y-49497089D01*
X109429035Y-49577902D01*
X109509847Y-49712589D01*
X109536784Y-49793401D01*
X109536784Y-49901150D01*
X109482910Y-50008900D01*
X109348223Y-50143587D01*
X110183282Y-49200778D02*
X110183282Y-49254653D01*
X110129407Y-49362402D01*
X110075532Y-49416277D01*
X109967783Y-49470152D01*
X109860033Y-49470152D01*
X109779221Y-49443215D01*
X109644534Y-49362402D01*
X109563722Y-49281590D01*
X109482910Y-49146903D01*
X109455972Y-49066091D01*
X109455972Y-48958341D01*
X109509847Y-48850592D01*
X109563722Y-48796717D01*
X109671471Y-48742842D01*
X109725346Y-48742842D01*
X110398781Y-49200778D02*
X110829780Y-48769780D01*
X110264094Y-48096345D02*
X111018341Y-48473468D01*
X110641218Y-47719221D01*
X111718714Y-47773096D02*
X111260778Y-47692284D01*
X111395465Y-48096345D02*
X110829780Y-47530659D01*
X111045279Y-47315160D01*
X111126091Y-47288223D01*
X111179966Y-47288223D01*
X111260778Y-47315160D01*
X111341590Y-47395972D01*
X111368528Y-47476784D01*
X111368528Y-47530659D01*
X111341590Y-47611471D01*
X111126091Y-47826971D01*
X111664839Y-47234348D02*
X111853401Y-47045786D01*
X112230524Y-47261285D02*
X111961150Y-47530659D01*
X111395465Y-46964974D01*
X111664839Y-46695600D01*
X112365211Y-46533975D02*
X112176650Y-46722537D01*
X112472961Y-47018849D02*
X111907276Y-46453163D01*
X112176650Y-46183789D01*
X101790619Y-82150000D02*
X101714428Y-82111904D01*
X101600142Y-82111904D01*
X101485857Y-82150000D01*
X101409666Y-82226190D01*
X101371571Y-82302380D01*
X101333476Y-82454761D01*
X101333476Y-82569047D01*
X101371571Y-82721428D01*
X101409666Y-82797619D01*
X101485857Y-82873809D01*
X101600142Y-82911904D01*
X101676333Y-82911904D01*
X101790619Y-82873809D01*
X101828714Y-82835714D01*
X101828714Y-82569047D01*
X101676333Y-82569047D01*
X102171571Y-82911904D02*
X102171571Y-82111904D01*
X102476333Y-82111904D01*
X102552523Y-82150000D01*
X102590619Y-82188095D01*
X102628714Y-82264285D01*
X102628714Y-82378571D01*
X102590619Y-82454761D01*
X102552523Y-82492857D01*
X102476333Y-82530952D01*
X102171571Y-82530952D01*
X103390619Y-82911904D02*
X102933476Y-82911904D01*
X103162047Y-82911904D02*
X103162047Y-82111904D01*
X103085857Y-82226190D01*
X103009666Y-82302380D01*
X102933476Y-82340476D01*
X103657285Y-82111904D02*
X104190619Y-82111904D01*
X103847761Y-82911904D01*
X82933096Y-39481218D02*
X82852284Y-39508155D01*
X82771471Y-39588967D01*
X82717597Y-39696717D01*
X82717597Y-39804467D01*
X82744534Y-39885279D01*
X82825346Y-40019966D01*
X82906158Y-40100778D01*
X83040845Y-40181590D01*
X83121658Y-40208528D01*
X83229407Y-40208528D01*
X83337157Y-40154653D01*
X83391032Y-40100778D01*
X83444906Y-39993028D01*
X83444906Y-39939154D01*
X83256345Y-39750592D01*
X83148595Y-39858341D01*
X83741218Y-39750592D02*
X83175532Y-39184906D01*
X83391032Y-38969407D01*
X83471844Y-38942470D01*
X83525719Y-38942470D01*
X83606531Y-38969407D01*
X83687343Y-39050219D01*
X83714280Y-39131032D01*
X83714280Y-39184906D01*
X83687343Y-39265719D01*
X83471844Y-39481218D01*
X84603215Y-38888595D02*
X84279966Y-39211844D01*
X84441590Y-39050219D02*
X83875905Y-38484534D01*
X83902842Y-38619221D01*
X83902842Y-38726971D01*
X83875905Y-38807783D01*
X82509722Y-70240592D02*
X82428910Y-70267529D01*
X82348097Y-70348341D01*
X82294223Y-70456091D01*
X82294223Y-70563841D01*
X82321160Y-70644653D01*
X82401972Y-70779340D01*
X82482784Y-70860152D01*
X82617471Y-70940964D01*
X82698284Y-70967902D01*
X82806033Y-70967902D01*
X82913783Y-70914027D01*
X82967658Y-70860152D01*
X83021532Y-70752402D01*
X83021532Y-70698528D01*
X82832971Y-70509966D01*
X82725221Y-70617715D01*
X83317844Y-70509966D02*
X82752158Y-69944280D01*
X82967658Y-69728781D01*
X83048470Y-69701844D01*
X83102345Y-69701844D01*
X83183157Y-69728781D01*
X83263969Y-69809593D01*
X83290906Y-69890406D01*
X83290906Y-69944280D01*
X83263969Y-70025093D01*
X83048470Y-70240592D01*
X84179841Y-69647969D02*
X83856592Y-69971218D01*
X84018216Y-69809593D02*
X83452531Y-69243908D01*
X83479468Y-69378595D01*
X83479468Y-69486345D01*
X83452531Y-69567157D01*
X83964341Y-68732097D02*
X84018216Y-68678223D01*
X84099028Y-68651285D01*
X84152903Y-68651285D01*
X84233715Y-68678223D01*
X84368402Y-68759035D01*
X84503089Y-68893722D01*
X84583902Y-69028409D01*
X84610839Y-69109221D01*
X84610839Y-69163096D01*
X84583902Y-69243908D01*
X84530027Y-69297783D01*
X84449215Y-69324720D01*
X84395340Y-69324720D01*
X84314528Y-69297783D01*
X84179841Y-69216971D01*
X84045154Y-69082284D01*
X83964341Y-68947597D01*
X83937404Y-68866784D01*
X83937404Y-68812910D01*
X83964341Y-68732097D01*
X108409847Y-47450592D02*
X108760033Y-47100406D01*
X108786971Y-47504467D01*
X108867783Y-47423654D01*
X108948595Y-47396717D01*
X109002470Y-47396717D01*
X109083282Y-47423654D01*
X109217969Y-47558341D01*
X109244906Y-47639154D01*
X109244906Y-47693028D01*
X109217969Y-47773841D01*
X109056345Y-47935465D01*
X108975532Y-47962402D01*
X108921658Y-47962402D01*
X108921658Y-46938781D02*
X109675905Y-47315905D01*
X109298781Y-46561658D01*
X109433468Y-46426971D02*
X109783654Y-46076784D01*
X109810592Y-46480845D01*
X109891404Y-46400033D01*
X109972216Y-46373096D01*
X110026091Y-46373096D01*
X110106903Y-46400033D01*
X110241590Y-46534720D01*
X110268528Y-46615532D01*
X110268528Y-46669407D01*
X110241590Y-46750219D01*
X110079966Y-46911844D01*
X109999154Y-46938781D01*
X109945279Y-46938781D01*
X83006158Y-42058155D02*
X82925346Y-42085093D01*
X82844534Y-42165905D01*
X82790659Y-42273654D01*
X82790659Y-42381404D01*
X82817597Y-42462216D01*
X82898409Y-42596903D01*
X82979221Y-42677715D01*
X83113908Y-42758528D01*
X83194720Y-42785465D01*
X83302470Y-42785465D01*
X83410219Y-42731590D01*
X83464094Y-42677715D01*
X83517969Y-42569966D01*
X83517969Y-42516091D01*
X83329407Y-42327529D01*
X83221658Y-42435279D01*
X83814280Y-42327529D02*
X83248595Y-41761844D01*
X84137529Y-42004280D01*
X83571844Y-41438595D01*
X84406903Y-41734906D02*
X83841218Y-41169221D01*
X83975905Y-41034534D01*
X84083654Y-40980659D01*
X84191404Y-40980659D01*
X84272216Y-41007597D01*
X84406903Y-41088409D01*
X84487715Y-41169221D01*
X84568528Y-41303908D01*
X84595465Y-41384720D01*
X84595465Y-41492470D01*
X84541590Y-41600219D01*
X84406903Y-41734906D01*
X108617722Y-77860592D02*
X108536910Y-77887529D01*
X108456097Y-77968341D01*
X108402223Y-78076091D01*
X108402223Y-78183841D01*
X108429160Y-78264653D01*
X108509972Y-78399340D01*
X108590784Y-78480152D01*
X108725471Y-78560964D01*
X108806284Y-78587902D01*
X108914033Y-78587902D01*
X109021783Y-78534027D01*
X109075658Y-78480152D01*
X109129532Y-78372402D01*
X109129532Y-78318528D01*
X108940971Y-78129966D01*
X108833221Y-78237715D01*
X109425844Y-78129966D02*
X108860158Y-77564280D01*
X109075658Y-77348781D01*
X109156470Y-77321844D01*
X109210345Y-77321844D01*
X109291157Y-77348781D01*
X109371969Y-77429593D01*
X109398906Y-77510406D01*
X109398906Y-77564280D01*
X109371969Y-77645093D01*
X109156470Y-77860592D01*
X110287841Y-77267969D02*
X109964592Y-77591218D01*
X110126216Y-77429593D02*
X109560531Y-76863908D01*
X109587468Y-76998595D01*
X109587468Y-77106345D01*
X109560531Y-77187157D01*
X110287841Y-76621471D02*
X110207028Y-76648409D01*
X110153154Y-76648409D01*
X110072341Y-76621471D01*
X110045404Y-76594534D01*
X110018467Y-76513722D01*
X110018467Y-76459847D01*
X110045404Y-76379035D01*
X110153154Y-76271285D01*
X110233966Y-76244348D01*
X110287841Y-76244348D01*
X110368653Y-76271285D01*
X110395590Y-76298223D01*
X110422528Y-76379035D01*
X110422528Y-76432910D01*
X110395590Y-76513722D01*
X110287841Y-76621471D01*
X110260903Y-76702284D01*
X110260903Y-76756158D01*
X110287841Y-76836971D01*
X110395590Y-76944720D01*
X110476402Y-76971658D01*
X110530277Y-76971658D01*
X110611089Y-76944720D01*
X110718839Y-76836971D01*
X110745776Y-76756158D01*
X110745776Y-76702284D01*
X110718839Y-76621471D01*
X110611089Y-76513722D01*
X110530277Y-76486784D01*
X110476402Y-76486784D01*
X110395590Y-76513722D01*
X101523129Y-38319309D02*
X102277377Y-38696433D01*
X101900253Y-37942186D01*
X102546751Y-37834436D02*
X102654500Y-37780561D01*
X102708375Y-37780561D01*
X102789187Y-37807499D01*
X102869999Y-37888311D01*
X102896937Y-37969123D01*
X102896937Y-38022998D01*
X102870000Y-38103810D01*
X102654500Y-38319309D01*
X102088815Y-37753624D01*
X102277377Y-37565062D01*
X102358189Y-37538125D01*
X102412064Y-37538125D01*
X102492876Y-37565062D01*
X102546751Y-37618937D01*
X102573688Y-37699749D01*
X102573688Y-37753624D01*
X102546751Y-37834436D01*
X102358189Y-38022998D01*
X102654500Y-37187938D02*
X103112436Y-37645874D01*
X103193248Y-37672812D01*
X103247123Y-37672812D01*
X103327935Y-37645874D01*
X103435685Y-37538125D01*
X103462622Y-37457312D01*
X103462622Y-37403438D01*
X103435685Y-37322625D01*
X102977749Y-36864690D01*
X103758934Y-37161001D02*
X103866683Y-37107126D01*
X104001370Y-36972439D01*
X104028308Y-36891627D01*
X104028308Y-36837752D01*
X104001370Y-36756940D01*
X103947496Y-36703065D01*
X103866683Y-36676128D01*
X103812809Y-36676128D01*
X103731996Y-36703065D01*
X103597309Y-36783877D01*
X103516497Y-36810815D01*
X103462622Y-36810815D01*
X103381810Y-36783877D01*
X103327935Y-36730003D01*
X103300998Y-36649190D01*
X103300998Y-36595316D01*
X103327935Y-36514503D01*
X103462622Y-36379816D01*
X103570372Y-36325942D01*
X108617722Y-52206592D02*
X108536910Y-52233529D01*
X108456097Y-52314341D01*
X108402223Y-52422091D01*
X108402223Y-52529841D01*
X108429160Y-52610653D01*
X108509972Y-52745340D01*
X108590784Y-52826152D01*
X108725471Y-52906964D01*
X108806284Y-52933902D01*
X108914033Y-52933902D01*
X109021783Y-52880027D01*
X109075658Y-52826152D01*
X109129532Y-52718402D01*
X109129532Y-52664528D01*
X108940971Y-52475966D01*
X108833221Y-52583715D01*
X109425844Y-52475966D02*
X108860158Y-51910280D01*
X109075658Y-51694781D01*
X109156470Y-51667844D01*
X109210345Y-51667844D01*
X109291157Y-51694781D01*
X109371969Y-51775593D01*
X109398906Y-51856406D01*
X109398906Y-51910280D01*
X109371969Y-51991093D01*
X109156470Y-52206592D01*
X109452781Y-51425407D02*
X109452781Y-51371532D01*
X109479719Y-51290720D01*
X109614406Y-51156033D01*
X109695218Y-51129096D01*
X109749093Y-51129096D01*
X109829905Y-51156033D01*
X109883780Y-51209908D01*
X109937654Y-51317658D01*
X109937654Y-51964155D01*
X110287841Y-51613969D01*
X110287841Y-50967471D02*
X110207028Y-50994409D01*
X110153154Y-50994409D01*
X110072341Y-50967471D01*
X110045404Y-50940534D01*
X110018467Y-50859722D01*
X110018467Y-50805847D01*
X110045404Y-50725035D01*
X110153154Y-50617285D01*
X110233966Y-50590348D01*
X110287841Y-50590348D01*
X110368653Y-50617285D01*
X110395590Y-50644223D01*
X110422528Y-50725035D01*
X110422528Y-50778910D01*
X110395590Y-50859722D01*
X110287841Y-50967471D01*
X110260903Y-51048284D01*
X110260903Y-51102158D01*
X110287841Y-51182971D01*
X110395590Y-51290720D01*
X110476402Y-51317658D01*
X110530277Y-51317658D01*
X110611089Y-51290720D01*
X110718839Y-51182971D01*
X110745776Y-51102158D01*
X110745776Y-51048284D01*
X110718839Y-50967471D01*
X110611089Y-50859722D01*
X110530277Y-50832784D01*
X110476402Y-50832784D01*
X110395590Y-50859722D01*
X83033096Y-64891218D02*
X82952284Y-64918155D01*
X82871471Y-64998967D01*
X82817597Y-65106717D01*
X82817597Y-65214467D01*
X82844534Y-65295279D01*
X82925346Y-65429966D01*
X83006158Y-65510778D01*
X83140845Y-65591590D01*
X83221658Y-65618528D01*
X83329407Y-65618528D01*
X83437157Y-65564653D01*
X83491032Y-65510778D01*
X83544906Y-65403028D01*
X83544906Y-65349154D01*
X83356345Y-65160592D01*
X83248595Y-65268341D01*
X83841218Y-65160592D02*
X83275532Y-64594906D01*
X83491032Y-64379407D01*
X83571844Y-64352470D01*
X83625719Y-64352470D01*
X83706531Y-64379407D01*
X83787343Y-64460219D01*
X83814280Y-64541032D01*
X83814280Y-64594906D01*
X83787343Y-64675719D01*
X83571844Y-64891218D01*
X84433841Y-64567969D02*
X84541590Y-64460219D01*
X84568528Y-64379407D01*
X84568528Y-64325532D01*
X84541590Y-64190845D01*
X84460778Y-64056158D01*
X84245279Y-63840659D01*
X84164467Y-63813722D01*
X84110592Y-63813722D01*
X84029780Y-63840659D01*
X83922030Y-63948409D01*
X83895093Y-64029221D01*
X83895093Y-64083096D01*
X83922030Y-64163908D01*
X84056717Y-64298595D01*
X84137529Y-64325532D01*
X84191404Y-64325532D01*
X84272216Y-64298595D01*
X84379966Y-64190845D01*
X84406903Y-64110033D01*
X84406903Y-64056158D01*
X84379966Y-63975346D01*
X101790619Y-84690000D02*
X101714428Y-84651904D01*
X101600142Y-84651904D01*
X101485857Y-84690000D01*
X101409666Y-84766190D01*
X101371571Y-84842380D01*
X101333476Y-84994761D01*
X101333476Y-85109047D01*
X101371571Y-85261428D01*
X101409666Y-85337619D01*
X101485857Y-85413809D01*
X101600142Y-85451904D01*
X101676333Y-85451904D01*
X101790619Y-85413809D01*
X101828714Y-85375714D01*
X101828714Y-85109047D01*
X101676333Y-85109047D01*
X102171571Y-85451904D02*
X102171571Y-84651904D01*
X102476333Y-84651904D01*
X102552523Y-84690000D01*
X102590619Y-84728095D01*
X102628714Y-84804285D01*
X102628714Y-84918571D01*
X102590619Y-84994761D01*
X102552523Y-85032857D01*
X102476333Y-85070952D01*
X102171571Y-85070952D01*
X103390619Y-85451904D02*
X102933476Y-85451904D01*
X103162047Y-85451904D02*
X103162047Y-84651904D01*
X103085857Y-84766190D01*
X103009666Y-84842380D01*
X102933476Y-84880476D01*
X104076333Y-84651904D02*
X103923952Y-84651904D01*
X103847761Y-84690000D01*
X103809666Y-84728095D01*
X103733476Y-84842380D01*
X103695380Y-84994761D01*
X103695380Y-85299523D01*
X103733476Y-85375714D01*
X103771571Y-85413809D01*
X103847761Y-85451904D01*
X104000142Y-85451904D01*
X104076333Y-85413809D01*
X104114428Y-85375714D01*
X104152523Y-85299523D01*
X104152523Y-85109047D01*
X104114428Y-85032857D01*
X104076333Y-84994761D01*
X104000142Y-84956666D01*
X103847761Y-84956666D01*
X103771571Y-84994761D01*
X103733476Y-85032857D01*
X103695380Y-85109047D01*
X108617722Y-60080592D02*
X108536910Y-60107529D01*
X108456097Y-60188341D01*
X108402223Y-60296091D01*
X108402223Y-60403841D01*
X108429160Y-60484653D01*
X108509972Y-60619340D01*
X108590784Y-60700152D01*
X108725471Y-60780964D01*
X108806284Y-60807902D01*
X108914033Y-60807902D01*
X109021783Y-60754027D01*
X109075658Y-60700152D01*
X109129532Y-60592402D01*
X109129532Y-60538528D01*
X108940971Y-60349966D01*
X108833221Y-60457715D01*
X109425844Y-60349966D02*
X108860158Y-59784280D01*
X109075658Y-59568781D01*
X109156470Y-59541844D01*
X109210345Y-59541844D01*
X109291157Y-59568781D01*
X109371969Y-59649593D01*
X109398906Y-59730406D01*
X109398906Y-59784280D01*
X109371969Y-59865093D01*
X109156470Y-60080592D01*
X109452781Y-59299407D02*
X109452781Y-59245532D01*
X109479719Y-59164720D01*
X109614406Y-59030033D01*
X109695218Y-59003096D01*
X109749093Y-59003096D01*
X109829905Y-59030033D01*
X109883780Y-59083908D01*
X109937654Y-59191658D01*
X109937654Y-59838155D01*
X110287841Y-59487969D01*
X110207028Y-58437410D02*
X110099279Y-58545160D01*
X110072341Y-58625972D01*
X110072341Y-58679847D01*
X110099279Y-58814534D01*
X110180091Y-58949221D01*
X110395590Y-59164720D01*
X110476402Y-59191658D01*
X110530277Y-59191658D01*
X110611089Y-59164720D01*
X110718839Y-59056971D01*
X110745776Y-58976158D01*
X110745776Y-58922284D01*
X110718839Y-58841471D01*
X110584152Y-58706784D01*
X110503340Y-58679847D01*
X110449465Y-58679847D01*
X110368653Y-58706784D01*
X110260903Y-58814534D01*
X110233966Y-58895346D01*
X110233966Y-58949221D01*
X110260903Y-59030033D01*
X108617722Y-72780592D02*
X108536910Y-72807529D01*
X108456097Y-72888341D01*
X108402223Y-72996091D01*
X108402223Y-73103841D01*
X108429160Y-73184653D01*
X108509972Y-73319340D01*
X108590784Y-73400152D01*
X108725471Y-73480964D01*
X108806284Y-73507902D01*
X108914033Y-73507902D01*
X109021783Y-73454027D01*
X109075658Y-73400152D01*
X109129532Y-73292402D01*
X109129532Y-73238528D01*
X108940971Y-73049966D01*
X108833221Y-73157715D01*
X109425844Y-73049966D02*
X108860158Y-72484280D01*
X109075658Y-72268781D01*
X109156470Y-72241844D01*
X109210345Y-72241844D01*
X109291157Y-72268781D01*
X109371969Y-72349593D01*
X109398906Y-72430406D01*
X109398906Y-72484280D01*
X109371969Y-72565093D01*
X109156470Y-72780592D01*
X109452781Y-71999407D02*
X109452781Y-71945532D01*
X109479719Y-71864720D01*
X109614406Y-71730033D01*
X109695218Y-71703096D01*
X109749093Y-71703096D01*
X109829905Y-71730033D01*
X109883780Y-71783908D01*
X109937654Y-71891658D01*
X109937654Y-72538155D01*
X110287841Y-72187969D01*
X110072341Y-71272097D02*
X110126216Y-71218223D01*
X110207028Y-71191285D01*
X110260903Y-71191285D01*
X110341715Y-71218223D01*
X110476402Y-71299035D01*
X110611089Y-71433722D01*
X110691902Y-71568409D01*
X110718839Y-71649221D01*
X110718839Y-71703096D01*
X110691902Y-71783908D01*
X110638027Y-71837783D01*
X110557215Y-71864720D01*
X110503340Y-71864720D01*
X110422528Y-71837783D01*
X110287841Y-71756971D01*
X110153154Y-71622284D01*
X110072341Y-71487597D01*
X110045404Y-71406784D01*
X110045404Y-71352910D01*
X110072341Y-71272097D01*
X108617722Y-70250592D02*
X108536910Y-70277529D01*
X108456097Y-70358341D01*
X108402223Y-70466091D01*
X108402223Y-70573841D01*
X108429160Y-70654653D01*
X108509972Y-70789340D01*
X108590784Y-70870152D01*
X108725471Y-70950964D01*
X108806284Y-70977902D01*
X108914033Y-70977902D01*
X109021783Y-70924027D01*
X109075658Y-70870152D01*
X109129532Y-70762402D01*
X109129532Y-70708528D01*
X108940971Y-70519966D01*
X108833221Y-70627715D01*
X109425844Y-70519966D02*
X108860158Y-69954280D01*
X109075658Y-69738781D01*
X109156470Y-69711844D01*
X109210345Y-69711844D01*
X109291157Y-69738781D01*
X109371969Y-69819593D01*
X109398906Y-69900406D01*
X109398906Y-69954280D01*
X109371969Y-70035093D01*
X109156470Y-70250592D01*
X109452781Y-69469407D02*
X109452781Y-69415532D01*
X109479719Y-69334720D01*
X109614406Y-69200033D01*
X109695218Y-69173096D01*
X109749093Y-69173096D01*
X109829905Y-69200033D01*
X109883780Y-69253908D01*
X109937654Y-69361658D01*
X109937654Y-70008155D01*
X110287841Y-69657969D01*
X110826589Y-69119221D02*
X110503340Y-69442470D01*
X110664964Y-69280845D02*
X110099279Y-68715160D01*
X110126216Y-68849847D01*
X110126216Y-68957597D01*
X110099279Y-69038409D01*
X108617722Y-65160592D02*
X108536910Y-65187529D01*
X108456097Y-65268341D01*
X108402223Y-65376091D01*
X108402223Y-65483841D01*
X108429160Y-65564653D01*
X108509972Y-65699340D01*
X108590784Y-65780152D01*
X108725471Y-65860964D01*
X108806284Y-65887902D01*
X108914033Y-65887902D01*
X109021783Y-65834027D01*
X109075658Y-65780152D01*
X109129532Y-65672402D01*
X109129532Y-65618528D01*
X108940971Y-65429966D01*
X108833221Y-65537715D01*
X109425844Y-65429966D02*
X108860158Y-64864280D01*
X109075658Y-64648781D01*
X109156470Y-64621844D01*
X109210345Y-64621844D01*
X109291157Y-64648781D01*
X109371969Y-64729593D01*
X109398906Y-64810406D01*
X109398906Y-64864280D01*
X109371969Y-64945093D01*
X109156470Y-65160592D01*
X109452781Y-64379407D02*
X109452781Y-64325532D01*
X109479719Y-64244720D01*
X109614406Y-64110033D01*
X109695218Y-64083096D01*
X109749093Y-64083096D01*
X109829905Y-64110033D01*
X109883780Y-64163908D01*
X109937654Y-64271658D01*
X109937654Y-64918155D01*
X110287841Y-64567969D01*
X109991529Y-63840659D02*
X109991529Y-63786784D01*
X110018467Y-63705972D01*
X110153154Y-63571285D01*
X110233966Y-63544348D01*
X110287841Y-63544348D01*
X110368653Y-63571285D01*
X110422528Y-63625160D01*
X110476402Y-63732910D01*
X110476402Y-64379407D01*
X110826589Y-64029221D01*
X83033096Y-62351218D02*
X82952284Y-62378155D01*
X82871471Y-62458967D01*
X82817597Y-62566717D01*
X82817597Y-62674467D01*
X82844534Y-62755279D01*
X82925346Y-62889966D01*
X83006158Y-62970778D01*
X83140845Y-63051590D01*
X83221658Y-63078528D01*
X83329407Y-63078528D01*
X83437157Y-63024653D01*
X83491032Y-62970778D01*
X83544906Y-62863028D01*
X83544906Y-62809154D01*
X83356345Y-62620592D01*
X83248595Y-62728341D01*
X83841218Y-62620592D02*
X83275532Y-62054906D01*
X83491032Y-61839407D01*
X83571844Y-61812470D01*
X83625719Y-61812470D01*
X83706531Y-61839407D01*
X83787343Y-61920219D01*
X83814280Y-62001032D01*
X83814280Y-62054906D01*
X83787343Y-62135719D01*
X83571844Y-62351218D01*
X84164467Y-61650845D02*
X84083654Y-61677783D01*
X84029780Y-61677783D01*
X83948967Y-61650845D01*
X83922030Y-61623908D01*
X83895093Y-61543096D01*
X83895093Y-61489221D01*
X83922030Y-61408409D01*
X84029780Y-61300659D01*
X84110592Y-61273722D01*
X84164467Y-61273722D01*
X84245279Y-61300659D01*
X84272216Y-61327597D01*
X84299154Y-61408409D01*
X84299154Y-61462284D01*
X84272216Y-61543096D01*
X84164467Y-61650845D01*
X84137529Y-61731658D01*
X84137529Y-61785532D01*
X84164467Y-61866345D01*
X84272216Y-61974094D01*
X84353028Y-62001032D01*
X84406903Y-62001032D01*
X84487715Y-61974094D01*
X84595465Y-61866345D01*
X84622402Y-61785532D01*
X84622402Y-61731658D01*
X84595465Y-61650845D01*
X84487715Y-61543096D01*
X84406903Y-61516158D01*
X84353028Y-61516158D01*
X84272216Y-61543096D01*
X82509722Y-77860592D02*
X82428910Y-77887529D01*
X82348097Y-77968341D01*
X82294223Y-78076091D01*
X82294223Y-78183841D01*
X82321160Y-78264653D01*
X82401972Y-78399340D01*
X82482784Y-78480152D01*
X82617471Y-78560964D01*
X82698284Y-78587902D01*
X82806033Y-78587902D01*
X82913783Y-78534027D01*
X82967658Y-78480152D01*
X83021532Y-78372402D01*
X83021532Y-78318528D01*
X82832971Y-78129966D01*
X82725221Y-78237715D01*
X83317844Y-78129966D02*
X82752158Y-77564280D01*
X82967658Y-77348781D01*
X83048470Y-77321844D01*
X83102345Y-77321844D01*
X83183157Y-77348781D01*
X83263969Y-77429593D01*
X83290906Y-77510406D01*
X83290906Y-77564280D01*
X83263969Y-77645093D01*
X83048470Y-77860592D01*
X84179841Y-77267969D02*
X83856592Y-77591218D01*
X84018216Y-77429593D02*
X83452531Y-76863908D01*
X83479468Y-76998595D01*
X83479468Y-77106345D01*
X83452531Y-77187157D01*
X83802717Y-76513722D02*
X84152903Y-76163536D01*
X84179841Y-76567597D01*
X84260653Y-76486784D01*
X84341465Y-76459847D01*
X84395340Y-76459847D01*
X84476152Y-76486784D01*
X84610839Y-76621471D01*
X84637776Y-76702284D01*
X84637776Y-76756158D01*
X84610839Y-76836971D01*
X84449215Y-76998595D01*
X84368402Y-77025532D01*
X84314528Y-77025532D01*
X101590473Y-40791966D02*
X102344720Y-41169089D01*
X101967597Y-40414842D01*
X102667969Y-40791966D02*
X102775719Y-40738091D01*
X102910406Y-40603404D01*
X102937343Y-40522592D01*
X102937343Y-40468717D01*
X102910406Y-40387905D01*
X102856531Y-40334030D01*
X102775719Y-40307093D01*
X102721844Y-40307093D01*
X102641032Y-40334030D01*
X102506345Y-40414842D01*
X102425532Y-40441780D01*
X102371658Y-40441780D01*
X102290845Y-40414842D01*
X102236971Y-40360967D01*
X102210033Y-40280155D01*
X102210033Y-40226280D01*
X102236971Y-40145468D01*
X102371658Y-40010781D01*
X102479407Y-39956906D01*
X103098967Y-39876094D02*
X103368341Y-40145468D01*
X102614094Y-39768345D02*
X103098967Y-39876094D01*
X102991218Y-39391221D01*
X103691590Y-39768345D02*
X103799340Y-39714470D01*
X103934027Y-39579783D01*
X103960964Y-39498971D01*
X103960964Y-39445096D01*
X103934027Y-39364284D01*
X103880152Y-39310409D01*
X103799340Y-39283471D01*
X103745465Y-39283471D01*
X103664653Y-39310409D01*
X103529966Y-39391221D01*
X103449154Y-39418158D01*
X103395279Y-39418158D01*
X103314467Y-39391221D01*
X103260592Y-39337346D01*
X103233654Y-39256534D01*
X103233654Y-39202659D01*
X103260592Y-39121847D01*
X103395279Y-38987160D01*
X103503028Y-38933285D01*
X83033096Y-52191218D02*
X82952284Y-52218155D01*
X82871471Y-52298967D01*
X82817597Y-52406717D01*
X82817597Y-52514467D01*
X82844534Y-52595279D01*
X82925346Y-52729966D01*
X83006158Y-52810778D01*
X83140845Y-52891590D01*
X83221658Y-52918528D01*
X83329407Y-52918528D01*
X83437157Y-52864653D01*
X83491032Y-52810778D01*
X83544906Y-52703028D01*
X83544906Y-52649154D01*
X83356345Y-52460592D01*
X83248595Y-52568341D01*
X83841218Y-52460592D02*
X83275532Y-51894906D01*
X83491032Y-51679407D01*
X83571844Y-51652470D01*
X83625719Y-51652470D01*
X83706531Y-51679407D01*
X83787343Y-51760219D01*
X83814280Y-51841032D01*
X83814280Y-51894906D01*
X83787343Y-51975719D01*
X83571844Y-52191218D01*
X84110592Y-51059847D02*
X83841218Y-51329221D01*
X84083654Y-51625532D01*
X84083654Y-51571658D01*
X84110592Y-51490845D01*
X84245279Y-51356158D01*
X84326091Y-51329221D01*
X84379966Y-51329221D01*
X84460778Y-51356158D01*
X84595465Y-51490845D01*
X84622402Y-51571658D01*
X84622402Y-51625532D01*
X84595465Y-51706345D01*
X84460778Y-51841032D01*
X84379966Y-51867969D01*
X84326091Y-51867969D01*
X83033096Y-47111218D02*
X82952284Y-47138155D01*
X82871471Y-47218967D01*
X82817597Y-47326717D01*
X82817597Y-47434467D01*
X82844534Y-47515279D01*
X82925346Y-47649966D01*
X83006158Y-47730778D01*
X83140845Y-47811590D01*
X83221658Y-47838528D01*
X83329407Y-47838528D01*
X83437157Y-47784653D01*
X83491032Y-47730778D01*
X83544906Y-47623028D01*
X83544906Y-47569154D01*
X83356345Y-47380592D01*
X83248595Y-47488341D01*
X83841218Y-47380592D02*
X83275532Y-46814906D01*
X83491032Y-46599407D01*
X83571844Y-46572470D01*
X83625719Y-46572470D01*
X83706531Y-46599407D01*
X83787343Y-46680219D01*
X83814280Y-46761032D01*
X83814280Y-46814906D01*
X83787343Y-46895719D01*
X83571844Y-47111218D01*
X83787343Y-46303096D02*
X84137529Y-45952910D01*
X84164467Y-46356971D01*
X84245279Y-46276158D01*
X84326091Y-46249221D01*
X84379966Y-46249221D01*
X84460778Y-46276158D01*
X84595465Y-46410845D01*
X84622402Y-46491658D01*
X84622402Y-46545532D01*
X84595465Y-46626345D01*
X84433841Y-46787969D01*
X84353028Y-46814906D01*
X84299154Y-46814906D01*
X83006158Y-54758155D02*
X82925346Y-54785093D01*
X82844534Y-54865905D01*
X82790659Y-54973654D01*
X82790659Y-55081404D01*
X82817597Y-55162216D01*
X82898409Y-55296903D01*
X82979221Y-55377715D01*
X83113908Y-55458528D01*
X83194720Y-55485465D01*
X83302470Y-55485465D01*
X83410219Y-55431590D01*
X83464094Y-55377715D01*
X83517969Y-55269966D01*
X83517969Y-55216091D01*
X83329407Y-55027529D01*
X83221658Y-55135279D01*
X83814280Y-55027529D02*
X83248595Y-54461844D01*
X84137529Y-54704280D01*
X83571844Y-54138595D01*
X84406903Y-54434906D02*
X83841218Y-53869221D01*
X83975905Y-53734534D01*
X84083654Y-53680659D01*
X84191404Y-53680659D01*
X84272216Y-53707597D01*
X84406903Y-53788409D01*
X84487715Y-53869221D01*
X84568528Y-54003908D01*
X84595465Y-54084720D01*
X84595465Y-54192470D01*
X84541590Y-54300219D01*
X84406903Y-54434906D01*
X82509722Y-85480592D02*
X82428910Y-85507529D01*
X82348097Y-85588341D01*
X82294223Y-85696091D01*
X82294223Y-85803841D01*
X82321160Y-85884653D01*
X82401972Y-86019340D01*
X82482784Y-86100152D01*
X82617471Y-86180964D01*
X82698284Y-86207902D01*
X82806033Y-86207902D01*
X82913783Y-86154027D01*
X82967658Y-86100152D01*
X83021532Y-85992402D01*
X83021532Y-85938528D01*
X82832971Y-85749966D01*
X82725221Y-85857715D01*
X83317844Y-85749966D02*
X82752158Y-85184280D01*
X82967658Y-84968781D01*
X83048470Y-84941844D01*
X83102345Y-84941844D01*
X83183157Y-84968781D01*
X83263969Y-85049593D01*
X83290906Y-85130406D01*
X83290906Y-85184280D01*
X83263969Y-85265093D01*
X83048470Y-85480592D01*
X84179841Y-84887969D02*
X83856592Y-85211218D01*
X84018216Y-85049593D02*
X83452531Y-84483908D01*
X83479468Y-84618595D01*
X83479468Y-84726345D01*
X83452531Y-84807157D01*
X84125966Y-83810473D02*
X83856592Y-84079847D01*
X84099028Y-84376158D01*
X84099028Y-84322284D01*
X84125966Y-84241471D01*
X84260653Y-84106784D01*
X84341465Y-84079847D01*
X84395340Y-84079847D01*
X84476152Y-84106784D01*
X84610839Y-84241471D01*
X84637776Y-84322284D01*
X84637776Y-84376158D01*
X84610839Y-84456971D01*
X84476152Y-84591658D01*
X84395340Y-84618595D01*
X84341465Y-84618595D01*
X83033096Y-36951218D02*
X82952284Y-36978155D01*
X82871471Y-37058967D01*
X82817597Y-37166717D01*
X82817597Y-37274467D01*
X82844534Y-37355279D01*
X82925346Y-37489966D01*
X83006158Y-37570778D01*
X83140845Y-37651590D01*
X83221658Y-37678528D01*
X83329407Y-37678528D01*
X83437157Y-37624653D01*
X83491032Y-37570778D01*
X83544906Y-37463028D01*
X83544906Y-37409154D01*
X83356345Y-37220592D01*
X83248595Y-37328341D01*
X83841218Y-37220592D02*
X83275532Y-36654906D01*
X83491032Y-36439407D01*
X83571844Y-36412470D01*
X83625719Y-36412470D01*
X83706531Y-36439407D01*
X83787343Y-36520219D01*
X83814280Y-36601032D01*
X83814280Y-36654906D01*
X83787343Y-36735719D01*
X83571844Y-36951218D01*
X83948967Y-35981471D02*
X84002842Y-35927597D01*
X84083654Y-35900659D01*
X84137529Y-35900659D01*
X84218341Y-35927597D01*
X84353028Y-36008409D01*
X84487715Y-36143096D01*
X84568528Y-36277783D01*
X84595465Y-36358595D01*
X84595465Y-36412470D01*
X84568528Y-36493282D01*
X84514653Y-36547157D01*
X84433841Y-36574094D01*
X84379966Y-36574094D01*
X84299154Y-36547157D01*
X84164467Y-36466345D01*
X84029780Y-36331658D01*
X83948967Y-36196971D01*
X83922030Y-36116158D01*
X83922030Y-36062284D01*
X83948967Y-35981471D01*
%TO.C,U2*%
X71588380Y-66801904D02*
X72397904Y-66801904D01*
X72493142Y-66754285D01*
X72540761Y-66706666D01*
X72588380Y-66611428D01*
X72588380Y-66420952D01*
X72540761Y-66325714D01*
X72493142Y-66278095D01*
X72397904Y-66230476D01*
X71588380Y-66230476D01*
X71683619Y-65801904D02*
X71636000Y-65754285D01*
X71588380Y-65659047D01*
X71588380Y-65420952D01*
X71636000Y-65325714D01*
X71683619Y-65278095D01*
X71778857Y-65230476D01*
X71874095Y-65230476D01*
X72016952Y-65278095D01*
X72588380Y-65849523D01*
X72588380Y-65230476D01*
D12*
X72124857Y-60823142D02*
X72153428Y-60737428D01*
X72153428Y-60594571D01*
X72124857Y-60537428D01*
X72096285Y-60508857D01*
X72039142Y-60480285D01*
X71982000Y-60480285D01*
X71924857Y-60508857D01*
X71896285Y-60537428D01*
X71867714Y-60594571D01*
X71839142Y-60708857D01*
X71810571Y-60766000D01*
X71782000Y-60794571D01*
X71724857Y-60823142D01*
X71667714Y-60823142D01*
X71610571Y-60794571D01*
X71582000Y-60766000D01*
X71553428Y-60708857D01*
X71553428Y-60566000D01*
X71582000Y-60480285D01*
X72124857Y-60251714D02*
X72153428Y-60166000D01*
X72153428Y-60023142D01*
X72124857Y-59966000D01*
X72096285Y-59937428D01*
X72039142Y-59908857D01*
X71982000Y-59908857D01*
X71924857Y-59937428D01*
X71896285Y-59966000D01*
X71867714Y-60023142D01*
X71839142Y-60137428D01*
X71810571Y-60194571D01*
X71782000Y-60223142D01*
X71724857Y-60251714D01*
X71667714Y-60251714D01*
X71610571Y-60223142D01*
X71582000Y-60194571D01*
X71553428Y-60137428D01*
X71553428Y-59994571D01*
X71582000Y-59908857D01*
X71553428Y-59737428D02*
X71553428Y-59394571D01*
X72153428Y-59566000D02*
X71553428Y-59566000D01*
X71553428Y-59251714D02*
X71553428Y-58880285D01*
X71782000Y-59080285D01*
X71782000Y-58994571D01*
X71810571Y-58937428D01*
X71839142Y-58908857D01*
X71896285Y-58880285D01*
X72039142Y-58880285D01*
X72096285Y-58908857D01*
X72124857Y-58937428D01*
X72153428Y-58994571D01*
X72153428Y-59166000D01*
X72124857Y-59223142D01*
X72096285Y-59251714D01*
X72153428Y-58594571D02*
X72153428Y-58480285D01*
X72124857Y-58423142D01*
X72096285Y-58394571D01*
X72010571Y-58337428D01*
X71896285Y-58308857D01*
X71667714Y-58308857D01*
X71610571Y-58337428D01*
X71582000Y-58366000D01*
X71553428Y-58423142D01*
X71553428Y-58537428D01*
X71582000Y-58594571D01*
X71610571Y-58623142D01*
X71667714Y-58651714D01*
X71810571Y-58651714D01*
X71867714Y-58623142D01*
X71896285Y-58594571D01*
X71924857Y-58537428D01*
X71924857Y-58423142D01*
X71896285Y-58366000D01*
X71867714Y-58337428D01*
X71810571Y-58308857D01*
X72124857Y-58080285D02*
X72153428Y-57994571D01*
X72153428Y-57851714D01*
X72124857Y-57794571D01*
X72096285Y-57766000D01*
X72039142Y-57737428D01*
X71982000Y-57737428D01*
X71924857Y-57766000D01*
X71896285Y-57794571D01*
X71867714Y-57851714D01*
X71839142Y-57966000D01*
X71810571Y-58023142D01*
X71782000Y-58051714D01*
X71724857Y-58080285D01*
X71667714Y-58080285D01*
X71610571Y-58051714D01*
X71582000Y-58023142D01*
X71553428Y-57966000D01*
X71553428Y-57823142D01*
X71582000Y-57737428D01*
X71839142Y-57280285D02*
X71839142Y-57480285D01*
X72153428Y-57480285D02*
X71553428Y-57480285D01*
X71553428Y-57194571D01*
X71553428Y-56851714D02*
X71553428Y-56794571D01*
X71582000Y-56737428D01*
X71610571Y-56708857D01*
X71667714Y-56680285D01*
X71782000Y-56651714D01*
X71924857Y-56651714D01*
X72039142Y-56680285D01*
X72096285Y-56708857D01*
X72124857Y-56737428D01*
X72153428Y-56794571D01*
X72153428Y-56851714D01*
X72124857Y-56908857D01*
X72096285Y-56937428D01*
X72039142Y-56966000D01*
X71924857Y-56994571D01*
X71782000Y-56994571D01*
X71667714Y-56966000D01*
X71610571Y-56937428D01*
X71582000Y-56908857D01*
X71553428Y-56851714D01*
X71753428Y-56137428D02*
X72153428Y-56137428D01*
X71524857Y-56280285D02*
X71953428Y-56423142D01*
X71953428Y-56051714D01*
X71553428Y-55708857D02*
X71553428Y-55651714D01*
X71582000Y-55594571D01*
X71610571Y-55566000D01*
X71667714Y-55537428D01*
X71782000Y-55508857D01*
X71924857Y-55508857D01*
X72039142Y-55537428D01*
X72096285Y-55566000D01*
X72124857Y-55594571D01*
X72153428Y-55651714D01*
X72153428Y-55708857D01*
X72124857Y-55766000D01*
X72096285Y-55794571D01*
X72039142Y-55823142D01*
X71924857Y-55851714D01*
X71782000Y-55851714D01*
X71667714Y-55823142D01*
X71610571Y-55794571D01*
X71582000Y-55766000D01*
X71553428Y-55708857D01*
D10*
%TO.C,SW1*%
X25082666Y-89744761D02*
X25225523Y-89792380D01*
X25463619Y-89792380D01*
X25558857Y-89744761D01*
X25606476Y-89697142D01*
X25654095Y-89601904D01*
X25654095Y-89506666D01*
X25606476Y-89411428D01*
X25558857Y-89363809D01*
X25463619Y-89316190D01*
X25273142Y-89268571D01*
X25177904Y-89220952D01*
X25130285Y-89173333D01*
X25082666Y-89078095D01*
X25082666Y-88982857D01*
X25130285Y-88887619D01*
X25177904Y-88840000D01*
X25273142Y-88792380D01*
X25511238Y-88792380D01*
X25654095Y-88840000D01*
X25987428Y-88792380D02*
X26225523Y-89792380D01*
X26416000Y-89078095D01*
X26606476Y-89792380D01*
X26844571Y-88792380D01*
X27749333Y-89792380D02*
X27177904Y-89792380D01*
X27463619Y-89792380D02*
X27463619Y-88792380D01*
X27368380Y-88935238D01*
X27273142Y-89030476D01*
X27177904Y-89078095D01*
%TO.C,R3*%
X53454380Y-85256666D02*
X52978190Y-85590000D01*
X53454380Y-85828095D02*
X52454380Y-85828095D01*
X52454380Y-85447142D01*
X52502000Y-85351904D01*
X52549619Y-85304285D01*
X52644857Y-85256666D01*
X52787714Y-85256666D01*
X52882952Y-85304285D01*
X52930571Y-85351904D01*
X52978190Y-85447142D01*
X52978190Y-85828095D01*
X52454380Y-84923333D02*
X52454380Y-84304285D01*
X52835333Y-84637619D01*
X52835333Y-84494761D01*
X52882952Y-84399523D01*
X52930571Y-84351904D01*
X53025809Y-84304285D01*
X53263904Y-84304285D01*
X53359142Y-84351904D01*
X53406761Y-84399523D01*
X53454380Y-84494761D01*
X53454380Y-84780476D01*
X53406761Y-84875714D01*
X53359142Y-84923333D01*
%TO.C,D2*%
X35324904Y-81582380D02*
X35324904Y-80582380D01*
X35563000Y-80582380D01*
X35705857Y-80630000D01*
X35801095Y-80725238D01*
X35848714Y-80820476D01*
X35896333Y-81010952D01*
X35896333Y-81153809D01*
X35848714Y-81344285D01*
X35801095Y-81439523D01*
X35705857Y-81534761D01*
X35563000Y-81582380D01*
X35324904Y-81582380D01*
X36277285Y-80677619D02*
X36324904Y-80630000D01*
X36420142Y-80582380D01*
X36658238Y-80582380D01*
X36753476Y-80630000D01*
X36801095Y-80677619D01*
X36848714Y-80772857D01*
X36848714Y-80868095D01*
X36801095Y-81010952D01*
X36229666Y-81582380D01*
X36848714Y-81582380D01*
%TO.C,R2*%
X40754380Y-85256666D02*
X40278190Y-85590000D01*
X40754380Y-85828095D02*
X39754380Y-85828095D01*
X39754380Y-85447142D01*
X39802000Y-85351904D01*
X39849619Y-85304285D01*
X39944857Y-85256666D01*
X40087714Y-85256666D01*
X40182952Y-85304285D01*
X40230571Y-85351904D01*
X40278190Y-85447142D01*
X40278190Y-85828095D01*
X39849619Y-84875714D02*
X39802000Y-84828095D01*
X39754380Y-84732857D01*
X39754380Y-84494761D01*
X39802000Y-84399523D01*
X39849619Y-84351904D01*
X39944857Y-84304285D01*
X40040095Y-84304285D01*
X40182952Y-84351904D01*
X40754380Y-84923333D01*
X40754380Y-84304285D01*
%TO.C,D3*%
X47775904Y-81582380D02*
X47775904Y-80582380D01*
X48014000Y-80582380D01*
X48156857Y-80630000D01*
X48252095Y-80725238D01*
X48299714Y-80820476D01*
X48347333Y-81010952D01*
X48347333Y-81153809D01*
X48299714Y-81344285D01*
X48252095Y-81439523D01*
X48156857Y-81534761D01*
X48014000Y-81582380D01*
X47775904Y-81582380D01*
X48680666Y-80582380D02*
X49299714Y-80582380D01*
X48966380Y-80963333D01*
X49109238Y-80963333D01*
X49204476Y-81010952D01*
X49252095Y-81058571D01*
X49299714Y-81153809D01*
X49299714Y-81391904D01*
X49252095Y-81487142D01*
X49204476Y-81534761D01*
X49109238Y-81582380D01*
X48823523Y-81582380D01*
X48728285Y-81534761D01*
X48680666Y-81487142D01*
D13*
%TO.C,U5*%
X107020000Y-55660000D02*
X107020000Y-56060000D01*
X86020000Y-35460000D02*
X86020000Y-35760000D01*
X86020000Y-68360000D02*
X86020000Y-68760000D01*
X107020000Y-78560000D02*
X107020000Y-78960000D01*
X95020000Y-86460000D02*
X95420000Y-86460000D01*
X107020000Y-68360000D02*
X107020000Y-68760000D01*
X107020000Y-53160000D02*
X107020000Y-53560000D01*
X107020000Y-58260000D02*
X107020000Y-58660000D01*
X107020000Y-60760000D02*
X107020000Y-61160000D01*
X107020000Y-73460000D02*
X107020000Y-73860000D01*
X86020000Y-58260000D02*
X86020000Y-58660000D01*
X86020000Y-48060000D02*
X86020000Y-48460000D01*
X107020000Y-63260000D02*
X107020000Y-63660000D01*
X86020000Y-55660000D02*
X86020000Y-56060000D01*
X107020000Y-83660000D02*
X107020000Y-84060000D01*
X107020000Y-42960000D02*
X107020000Y-43360000D01*
X86020000Y-70960000D02*
X86020000Y-71360000D01*
X107020000Y-81060000D02*
X107020000Y-81460000D01*
X107020000Y-50560000D02*
X107020000Y-50960000D01*
X97620000Y-86460000D02*
X98020000Y-86460000D01*
X89027000Y-38127000D02*
X89027000Y-35460000D01*
X86020000Y-83660000D02*
X86020000Y-84060000D01*
X86020000Y-63260000D02*
X86020000Y-63660000D01*
X107020000Y-35460000D02*
X107020000Y-35760000D01*
X86020000Y-40460000D02*
X86020000Y-40860000D01*
X107020000Y-86460000D02*
X100220000Y-86460000D01*
X86020000Y-53160000D02*
X86020000Y-53560000D01*
X86020000Y-37860000D02*
X86020000Y-38260000D01*
X107020000Y-37860000D02*
X107020000Y-38260000D01*
X107020000Y-45560000D02*
X107020000Y-45960000D01*
X86020000Y-38127000D02*
X89027000Y-38127000D01*
X86020000Y-81060000D02*
X86020000Y-81460000D01*
X86020000Y-65860000D02*
X86020000Y-66260000D01*
X86020000Y-45560000D02*
X86020000Y-45960000D01*
X92820000Y-86460000D02*
X86020000Y-86460000D01*
X86020000Y-35460000D02*
X107020000Y-35460000D01*
X107020000Y-48060000D02*
X107020000Y-48460000D01*
X86020000Y-42960000D02*
X86020000Y-43360000D01*
X107020000Y-40460000D02*
X107020000Y-40860000D01*
X86020000Y-60760000D02*
X86020000Y-61160000D01*
X107020000Y-70960000D02*
X107020000Y-71360000D01*
X86020000Y-73460000D02*
X86020000Y-73860000D01*
X86020000Y-50560000D02*
X86020000Y-50960000D01*
X107020000Y-76060000D02*
X107020000Y-76460000D01*
X107020000Y-65860000D02*
X107020000Y-66260000D01*
X86020000Y-76060000D02*
X86020000Y-76460000D01*
X86020000Y-78560000D02*
X86020000Y-78960000D01*
%TO.C,U2*%
X15130000Y-75852500D02*
X17390000Y-75852500D01*
X15130000Y-78132500D02*
X16990000Y-78132500D01*
X21890000Y-78132500D02*
X70830000Y-78132500D01*
X15130000Y-55032500D02*
X15130000Y-78132500D01*
X27060000Y-79152500D02*
X24520000Y-79152500D01*
X70830000Y-78132500D02*
X70830000Y-55032500D01*
X70830000Y-55032500D02*
X15130000Y-55032500D01*
X20340000Y-77402500D02*
G75*
G03*
X20340000Y-77402500I-900000J0D01*
G01*
X21990000Y-77402500D02*
G75*
G03*
X21990000Y-77402500I-2550000J0D01*
G01*
%TO.C,SW1*%
X22916000Y-84340000D02*
X22916000Y-85840000D01*
X24166000Y-88340000D02*
X28666000Y-88340000D01*
X29916000Y-85840000D02*
X29916000Y-84340000D01*
X28666000Y-81840000D02*
X24166000Y-81840000D01*
%TO.C,G1*%
G36*
X79993773Y-85647711D02*
G01*
X80084878Y-85537974D01*
X80199978Y-85463174D01*
X80335355Y-85427304D01*
X80487287Y-85434355D01*
X80551051Y-85449845D01*
X80673300Y-85506569D01*
X80777834Y-85593202D01*
X80850180Y-85697074D01*
X80860119Y-85720396D01*
X80873754Y-85781484D01*
X80883298Y-85871853D01*
X80886549Y-85963190D01*
X80886549Y-86135882D01*
X80525470Y-86135882D01*
X80376546Y-86136445D01*
X80271632Y-86139864D01*
X80204937Y-86148731D01*
X80170666Y-86165641D01*
X80163028Y-86193189D01*
X80176229Y-86233968D01*
X80199877Y-86281683D01*
X80265843Y-86361314D01*
X80357512Y-86400987D01*
X80469555Y-86399695D01*
X80596472Y-86356514D01*
X80706158Y-86303224D01*
X80797173Y-86375191D01*
X80888188Y-86447157D01*
X80802563Y-86526269D01*
X80688250Y-86601017D01*
X80547666Y-86646084D01*
X80396449Y-86658696D01*
X80250236Y-86636079D01*
X80226647Y-86628405D01*
X80098141Y-86561296D01*
X80002551Y-86461247D01*
X79937861Y-86325271D01*
X79902057Y-86150380D01*
X79901640Y-86146632D01*
X79898434Y-85956032D01*
X79911393Y-85888035D01*
X80164392Y-85888035D01*
X80187627Y-85898491D01*
X80250710Y-85906500D01*
X80343706Y-85911073D01*
X80402638Y-85911765D01*
X80512537Y-85911332D01*
X80581252Y-85908578D01*
X80617405Y-85901321D01*
X80629615Y-85887376D01*
X80626504Y-85864562D01*
X80623894Y-85855735D01*
X80579344Y-85772800D01*
X80509279Y-85705960D01*
X80447446Y-85676589D01*
X80365301Y-85678362D01*
X80282062Y-85714990D01*
X80212238Y-85775634D01*
X80170337Y-85849456D01*
X80164392Y-85888035D01*
X79911393Y-85888035D01*
X79930385Y-85788395D01*
X79993773Y-85647711D01*
G37*
D14*
X79993773Y-85647711D02*
X80084878Y-85537974D01*
X80199978Y-85463174D01*
X80335355Y-85427304D01*
X80487287Y-85434355D01*
X80551051Y-85449845D01*
X80673300Y-85506569D01*
X80777834Y-85593202D01*
X80850180Y-85697074D01*
X80860119Y-85720396D01*
X80873754Y-85781484D01*
X80883298Y-85871853D01*
X80886549Y-85963190D01*
X80886549Y-86135882D01*
X80525470Y-86135882D01*
X80376546Y-86136445D01*
X80271632Y-86139864D01*
X80204937Y-86148731D01*
X80170666Y-86165641D01*
X80163028Y-86193189D01*
X80176229Y-86233968D01*
X80199877Y-86281683D01*
X80265843Y-86361314D01*
X80357512Y-86400987D01*
X80469555Y-86399695D01*
X80596472Y-86356514D01*
X80706158Y-86303224D01*
X80797173Y-86375191D01*
X80888188Y-86447157D01*
X80802563Y-86526269D01*
X80688250Y-86601017D01*
X80547666Y-86646084D01*
X80396449Y-86658696D01*
X80250236Y-86636079D01*
X80226647Y-86628405D01*
X80098141Y-86561296D01*
X80002551Y-86461247D01*
X79937861Y-86325271D01*
X79902057Y-86150380D01*
X79901640Y-86146632D01*
X79898434Y-85956032D01*
X79911393Y-85888035D01*
X80164392Y-85888035D01*
X80187627Y-85898491D01*
X80250710Y-85906500D01*
X80343706Y-85911073D01*
X80402638Y-85911765D01*
X80512537Y-85911332D01*
X80581252Y-85908578D01*
X80617405Y-85901321D01*
X80629615Y-85887376D01*
X80626504Y-85864562D01*
X80623894Y-85855735D01*
X80579344Y-85772800D01*
X80509279Y-85705960D01*
X80447446Y-85676589D01*
X80365301Y-85678362D01*
X80282062Y-85714990D01*
X80212238Y-85775634D01*
X80170337Y-85849456D01*
X80164392Y-85888035D01*
X79911393Y-85888035D01*
X79930385Y-85788395D01*
X79993773Y-85647711D01*
G36*
X70813705Y-85438628D02*
G01*
X70895935Y-85441879D01*
X70938360Y-85453426D01*
X70950661Y-85475952D01*
X70950666Y-85476620D01*
X70956374Y-85498681D01*
X70981547Y-85496176D01*
X71031598Y-85471935D01*
X71148219Y-85434851D01*
X71279429Y-85430953D01*
X71403909Y-85459560D01*
X71456412Y-85485499D01*
X71521158Y-85530700D01*
X71568347Y-85579991D01*
X71600665Y-85641885D01*
X71620797Y-85724896D01*
X71631430Y-85837538D01*
X71635247Y-85988324D01*
X71635470Y-86053149D01*
X71634818Y-86195221D01*
X71632112Y-86296757D01*
X71626224Y-86367015D01*
X71616027Y-86415256D01*
X71600394Y-86450738D01*
X71584128Y-86474943D01*
X71480295Y-86577929D01*
X71358021Y-86639874D01*
X71226114Y-86658506D01*
X71093384Y-86631549D01*
X71051333Y-86612486D01*
X70950666Y-86560015D01*
X70950666Y-87382259D01*
X71024135Y-87344267D01*
X71120941Y-87314872D01*
X71239928Y-87307342D01*
X71358745Y-87321245D01*
X71448473Y-87352476D01*
X71522899Y-87411954D01*
X71586490Y-87497066D01*
X71591271Y-87505805D01*
X71611437Y-87546966D01*
X71626165Y-87588454D01*
X71636303Y-87638713D01*
X71642699Y-87706184D01*
X71646201Y-87799309D01*
X71647658Y-87926531D01*
X71647921Y-88069701D01*
X71647921Y-88526471D01*
X71374000Y-88526471D01*
X71374000Y-87684231D01*
X71297383Y-87619763D01*
X71217793Y-87568194D01*
X71142422Y-87558818D01*
X71066633Y-87582947D01*
X71026241Y-87606574D01*
X70996179Y-87640227D01*
X70974797Y-87691087D01*
X70960450Y-87766334D01*
X70951490Y-87873146D01*
X70946270Y-88018704D01*
X70944431Y-88115588D01*
X70938215Y-88514020D01*
X70807480Y-88521547D01*
X70676745Y-88529073D01*
X70676745Y-86056582D01*
X70950666Y-86056582D01*
X70957650Y-86194423D01*
X70981182Y-86290107D01*
X71025135Y-86349641D01*
X71093382Y-86379029D01*
X71162333Y-86384902D01*
X71240386Y-86378154D01*
X71292189Y-86351594D01*
X71324583Y-86316499D01*
X71350084Y-86278752D01*
X71365265Y-86236700D01*
X71372019Y-86177779D01*
X71372241Y-86089428D01*
X71369968Y-86015448D01*
X71364749Y-85904000D01*
X71356979Y-85830833D01*
X71343895Y-85784422D01*
X71322732Y-85753244D01*
X71302760Y-85735223D01*
X71219314Y-85695925D01*
X71120551Y-85689579D01*
X71063841Y-85703116D01*
X71007692Y-85751233D01*
X70970499Y-85844833D01*
X70952472Y-85983254D01*
X70950666Y-86056582D01*
X70676745Y-86056582D01*
X70676745Y-85438628D01*
X70813705Y-85438628D01*
G37*
X70813705Y-85438628D02*
X70895935Y-85441879D01*
X70938360Y-85453426D01*
X70950661Y-85475952D01*
X70950666Y-85476620D01*
X70956374Y-85498681D01*
X70981547Y-85496176D01*
X71031598Y-85471935D01*
X71148219Y-85434851D01*
X71279429Y-85430953D01*
X71403909Y-85459560D01*
X71456412Y-85485499D01*
X71521158Y-85530700D01*
X71568347Y-85579991D01*
X71600665Y-85641885D01*
X71620797Y-85724896D01*
X71631430Y-85837538D01*
X71635247Y-85988324D01*
X71635470Y-86053149D01*
X71634818Y-86195221D01*
X71632112Y-86296757D01*
X71626224Y-86367015D01*
X71616027Y-86415256D01*
X71600394Y-86450738D01*
X71584128Y-86474943D01*
X71480295Y-86577929D01*
X71358021Y-86639874D01*
X71226114Y-86658506D01*
X71093384Y-86631549D01*
X71051333Y-86612486D01*
X70950666Y-86560015D01*
X70950666Y-87382259D01*
X71024135Y-87344267D01*
X71120941Y-87314872D01*
X71239928Y-87307342D01*
X71358745Y-87321245D01*
X71448473Y-87352476D01*
X71522899Y-87411954D01*
X71586490Y-87497066D01*
X71591271Y-87505805D01*
X71611437Y-87546966D01*
X71626165Y-87588454D01*
X71636303Y-87638713D01*
X71642699Y-87706184D01*
X71646201Y-87799309D01*
X71647658Y-87926531D01*
X71647921Y-88069701D01*
X71647921Y-88526471D01*
X71374000Y-88526471D01*
X71374000Y-87684231D01*
X71297383Y-87619763D01*
X71217793Y-87568194D01*
X71142422Y-87558818D01*
X71066633Y-87582947D01*
X71026241Y-87606574D01*
X70996179Y-87640227D01*
X70974797Y-87691087D01*
X70960450Y-87766334D01*
X70951490Y-87873146D01*
X70946270Y-88018704D01*
X70944431Y-88115588D01*
X70938215Y-88514020D01*
X70807480Y-88521547D01*
X70676745Y-88529073D01*
X70676745Y-86056582D01*
X70950666Y-86056582D01*
X70957650Y-86194423D01*
X70981182Y-86290107D01*
X71025135Y-86349641D01*
X71093382Y-86379029D01*
X71162333Y-86384902D01*
X71240386Y-86378154D01*
X71292189Y-86351594D01*
X71324583Y-86316499D01*
X71350084Y-86278752D01*
X71365265Y-86236700D01*
X71372019Y-86177779D01*
X71372241Y-86089428D01*
X71369968Y-86015448D01*
X71364749Y-85904000D01*
X71356979Y-85830833D01*
X71343895Y-85784422D01*
X71322732Y-85753244D01*
X71302760Y-85735223D01*
X71219314Y-85695925D01*
X71120551Y-85689579D01*
X71063841Y-85703116D01*
X71007692Y-85751233D01*
X70970499Y-85844833D01*
X70952472Y-85983254D01*
X70950666Y-86056582D01*
X70676745Y-86056582D01*
X70676745Y-85438628D01*
X70813705Y-85438628D01*
G36*
X71884590Y-85639461D02*
G01*
X71948421Y-85561461D01*
X72066433Y-85476882D01*
X72205158Y-85431686D01*
X72352710Y-85427600D01*
X72497204Y-85466354D01*
X72522019Y-85478037D01*
X72607906Y-85540951D01*
X72689121Y-85632769D01*
X72749764Y-85733868D01*
X72767012Y-85780349D01*
X72782749Y-85863376D01*
X72792133Y-85963713D01*
X72793272Y-86005147D01*
X72793411Y-86135882D01*
X72040953Y-86135882D01*
X72056993Y-86204363D01*
X72096363Y-86285355D01*
X72165194Y-86355351D01*
X72247081Y-86400441D01*
X72299263Y-86409804D01*
X72370029Y-86398441D01*
X72454460Y-86369943D01*
X72483142Y-86356831D01*
X72589209Y-86303858D01*
X72679728Y-86372901D01*
X72731961Y-86419597D01*
X72759753Y-86458140D01*
X72761160Y-86469452D01*
X72736332Y-86496868D01*
X72681917Y-86538532D01*
X72632528Y-86571037D01*
X72499252Y-86629468D01*
X72349839Y-86655915D01*
X72201751Y-86649039D01*
X72083705Y-86613096D01*
X71962018Y-86536101D01*
X71875540Y-86434728D01*
X71821441Y-86303570D01*
X71796891Y-86137224D01*
X71794714Y-86061108D01*
X71803427Y-85886685D01*
X71804497Y-85881611D01*
X72053827Y-85881611D01*
X72060694Y-85897968D01*
X72088917Y-85906988D01*
X72147127Y-85910854D01*
X72243958Y-85911749D01*
X72281243Y-85911765D01*
X72394683Y-85910413D01*
X72466622Y-85905505D01*
X72505313Y-85895760D01*
X72519005Y-85879899D01*
X72519490Y-85874805D01*
X72503863Y-85834326D01*
X72464753Y-85777621D01*
X72447939Y-85757766D01*
X72385519Y-85701611D01*
X72320453Y-85679532D01*
X72285397Y-85677686D01*
X72190558Y-85700766D01*
X72111027Y-85762759D01*
X72060577Y-85852802D01*
X72059683Y-85855735D01*
X72053827Y-85881611D01*
X71804497Y-85881611D01*
X71832399Y-85749343D01*
X71884590Y-85639461D01*
G37*
X71884590Y-85639461D02*
X71948421Y-85561461D01*
X72066433Y-85476882D01*
X72205158Y-85431686D01*
X72352710Y-85427600D01*
X72497204Y-85466354D01*
X72522019Y-85478037D01*
X72607906Y-85540951D01*
X72689121Y-85632769D01*
X72749764Y-85733868D01*
X72767012Y-85780349D01*
X72782749Y-85863376D01*
X72792133Y-85963713D01*
X72793272Y-86005147D01*
X72793411Y-86135882D01*
X72040953Y-86135882D01*
X72056993Y-86204363D01*
X72096363Y-86285355D01*
X72165194Y-86355351D01*
X72247081Y-86400441D01*
X72299263Y-86409804D01*
X72370029Y-86398441D01*
X72454460Y-86369943D01*
X72483142Y-86356831D01*
X72589209Y-86303858D01*
X72679728Y-86372901D01*
X72731961Y-86419597D01*
X72759753Y-86458140D01*
X72761160Y-86469452D01*
X72736332Y-86496868D01*
X72681917Y-86538532D01*
X72632528Y-86571037D01*
X72499252Y-86629468D01*
X72349839Y-86655915D01*
X72201751Y-86649039D01*
X72083705Y-86613096D01*
X71962018Y-86536101D01*
X71875540Y-86434728D01*
X71821441Y-86303570D01*
X71796891Y-86137224D01*
X71794714Y-86061108D01*
X71803427Y-85886685D01*
X71804497Y-85881611D01*
X72053827Y-85881611D01*
X72060694Y-85897968D01*
X72088917Y-85906988D01*
X72147127Y-85910854D01*
X72243958Y-85911749D01*
X72281243Y-85911765D01*
X72394683Y-85910413D01*
X72466622Y-85905505D01*
X72505313Y-85895760D01*
X72519005Y-85879899D01*
X72519490Y-85874805D01*
X72503863Y-85834326D01*
X72464753Y-85777621D01*
X72447939Y-85757766D01*
X72385519Y-85701611D01*
X72320453Y-85679532D01*
X72285397Y-85677686D01*
X72190558Y-85700766D01*
X72111027Y-85762759D01*
X72060577Y-85852802D01*
X72059683Y-85855735D01*
X72053827Y-85881611D01*
X71804497Y-85881611D01*
X71832399Y-85749343D01*
X71884590Y-85639461D01*
G36*
X75930535Y-77183172D02*
G01*
X76043117Y-77780363D01*
X76458531Y-77951610D01*
X76873944Y-78122857D01*
X77372302Y-77783978D01*
X77511868Y-77689622D01*
X77638028Y-77605375D01*
X77744895Y-77535083D01*
X77826582Y-77482592D01*
X77877201Y-77451749D01*
X77890986Y-77445098D01*
X77915820Y-77462203D01*
X77968888Y-77509489D01*
X78044240Y-77580917D01*
X78135929Y-77670445D01*
X78238007Y-77772034D01*
X78344526Y-77879643D01*
X78449536Y-77987232D01*
X78547091Y-78088760D01*
X78631242Y-78178186D01*
X78696040Y-78249471D01*
X78735538Y-78296573D01*
X78744980Y-78312337D01*
X78731391Y-78341398D01*
X78693293Y-78405066D01*
X78634694Y-78497112D01*
X78559597Y-78611309D01*
X78472009Y-78741429D01*
X78421254Y-78815646D01*
X78328745Y-78951167D01*
X78246540Y-79073461D01*
X78178630Y-79176440D01*
X78129000Y-79254018D01*
X78101640Y-79300106D01*
X78097529Y-79309792D01*
X78106849Y-79337319D01*
X78132254Y-79401473D01*
X78169911Y-79493235D01*
X78215986Y-79603584D01*
X78266646Y-79723500D01*
X78318059Y-79843964D01*
X78366389Y-79955954D01*
X78407806Y-80050452D01*
X78438474Y-80118437D01*
X78454562Y-80150888D01*
X78455511Y-80152165D01*
X78480772Y-80158362D01*
X78548046Y-80172185D01*
X78650360Y-80192277D01*
X78780741Y-80217279D01*
X78932216Y-80245831D01*
X79020594Y-80262296D01*
X79182452Y-80293114D01*
X79328649Y-80322439D01*
X79451787Y-80348666D01*
X79544469Y-80370191D01*
X79599301Y-80385410D01*
X79610323Y-80390238D01*
X79621119Y-80422919D01*
X79629829Y-80496730D01*
X79636460Y-80603037D01*
X79641018Y-80733212D01*
X79643509Y-80878621D01*
X79643938Y-81030635D01*
X79642311Y-81180622D01*
X79638635Y-81319951D01*
X79632915Y-81439990D01*
X79625158Y-81532110D01*
X79615368Y-81587677D01*
X79609496Y-81599245D01*
X79574399Y-81613110D01*
X79500028Y-81632933D01*
X79396223Y-81656384D01*
X79272819Y-81681136D01*
X79229741Y-81689143D01*
X79022047Y-81727186D01*
X78857984Y-81757824D01*
X78732130Y-81782274D01*
X78639065Y-81801754D01*
X78573367Y-81817481D01*
X78529617Y-81830673D01*
X78502392Y-81842549D01*
X78486272Y-81854325D01*
X78484017Y-81856653D01*
X78461503Y-81894145D01*
X78427158Y-81967110D01*
X78384411Y-82066612D01*
X78336692Y-82183718D01*
X78287430Y-82309493D01*
X78240055Y-82435002D01*
X78197995Y-82551310D01*
X78164680Y-82649484D01*
X78143541Y-82720588D01*
X78138005Y-82755687D01*
X78138466Y-82756917D01*
X78157223Y-82785606D01*
X78199776Y-82848730D01*
X78261653Y-82939718D01*
X78338382Y-83052000D01*
X78425491Y-83179005D01*
X78450299Y-83215098D01*
X78538753Y-83345948D01*
X78616588Y-83465336D01*
X78679566Y-83566407D01*
X78723445Y-83642304D01*
X78743985Y-83686172D01*
X78744980Y-83691562D01*
X78727722Y-83719889D01*
X78680036Y-83776006D01*
X78608050Y-83853882D01*
X78517897Y-83947485D01*
X78415705Y-84050786D01*
X78307606Y-84157751D01*
X78199728Y-84262351D01*
X78098204Y-84358554D01*
X78009162Y-84440329D01*
X77938733Y-84501645D01*
X77893047Y-84536471D01*
X77880409Y-84542157D01*
X77850991Y-84528765D01*
X77790761Y-84492644D01*
X77709530Y-84439881D01*
X77647030Y-84397412D01*
X77533785Y-84319485D01*
X77399674Y-84227729D01*
X77265155Y-84136120D01*
X77192833Y-84087091D01*
X76948038Y-83921515D01*
X76742551Y-84032620D01*
X76648936Y-84081293D01*
X76569330Y-84119126D01*
X76515467Y-84140703D01*
X76501757Y-84143706D01*
X76485270Y-84121538D01*
X76452745Y-84058894D01*
X76406609Y-83961554D01*
X76349290Y-83835294D01*
X76283216Y-83685895D01*
X76210815Y-83519133D01*
X76134516Y-83340787D01*
X76056746Y-83156636D01*
X75979934Y-82972457D01*
X75906506Y-82794030D01*
X75838892Y-82627132D01*
X75779520Y-82477542D01*
X75730816Y-82351038D01*
X75695210Y-82253399D01*
X75675130Y-82190402D01*
X75671900Y-82168766D01*
X75697496Y-82141169D01*
X75753539Y-82096370D01*
X75828311Y-82043679D01*
X75834587Y-82039510D01*
X76027845Y-81884814D01*
X76183674Y-81704336D01*
X76300724Y-81503847D01*
X76377645Y-81289119D01*
X76413086Y-81065922D01*
X76405697Y-80840026D01*
X76354127Y-80617204D01*
X76257026Y-80403224D01*
X76228458Y-80356409D01*
X76079868Y-80167363D01*
X75904327Y-80015557D01*
X75707910Y-79901779D01*
X75496693Y-79826820D01*
X75276753Y-79791467D01*
X75054163Y-79796512D01*
X74835001Y-79842744D01*
X74625342Y-79930951D01*
X74431261Y-80061924D01*
X74371226Y-80115082D01*
X74218435Y-80281484D01*
X74107097Y-80456657D01*
X74030723Y-80653011D01*
X73988187Y-80847462D01*
X73977686Y-81066087D01*
X74012701Y-81285797D01*
X74089673Y-81499165D01*
X74205047Y-81698767D01*
X74355266Y-81877174D01*
X74536773Y-82026962D01*
X74560627Y-82042751D01*
X74636201Y-82094457D01*
X74693651Y-82139257D01*
X74721117Y-82167862D01*
X74721517Y-82168766D01*
X74715620Y-82199709D01*
X74692245Y-82269936D01*
X74653821Y-82373670D01*
X74602777Y-82505135D01*
X74541542Y-82658552D01*
X74472544Y-82828146D01*
X74398214Y-83008138D01*
X74320978Y-83192753D01*
X74243268Y-83376213D01*
X74167511Y-83552741D01*
X74096137Y-83716559D01*
X74031574Y-83861892D01*
X73976252Y-83982962D01*
X73932600Y-84073992D01*
X73903046Y-84129205D01*
X73891144Y-84143706D01*
X73854777Y-84132414D01*
X73786730Y-84102130D01*
X73698737Y-84058265D01*
X73650351Y-84032620D01*
X73444863Y-83921515D01*
X73200068Y-84087091D01*
X73075106Y-84171915D01*
X72938295Y-84265261D01*
X72810089Y-84353153D01*
X72745871Y-84397412D01*
X72655551Y-84458063D01*
X72579071Y-84506126D01*
X72526407Y-84535515D01*
X72509302Y-84541727D01*
X72484405Y-84524968D01*
X72429305Y-84478181D01*
X72349343Y-84406225D01*
X72249861Y-84313957D01*
X72136200Y-84206235D01*
X72064315Y-84137071D01*
X71938551Y-84013502D01*
X71829863Y-83902979D01*
X71742645Y-83810230D01*
X71681289Y-83739982D01*
X71650191Y-83696965D01*
X71647208Y-83688235D01*
X71661053Y-83655029D01*
X71699312Y-83587887D01*
X71757742Y-83493608D01*
X71832097Y-83378990D01*
X71918135Y-83250828D01*
X71942603Y-83215098D01*
X72031755Y-83085234D01*
X72111738Y-82968314D01*
X72178080Y-82870907D01*
X72226311Y-82799584D01*
X72251957Y-82760915D01*
X72254435Y-82756917D01*
X72250729Y-82726100D01*
X72231061Y-82658344D01*
X72198860Y-82562584D01*
X72157555Y-82447754D01*
X72110575Y-82322789D01*
X72061349Y-82196624D01*
X72013308Y-82078193D01*
X71969881Y-81976430D01*
X71934496Y-81900271D01*
X71910584Y-81858649D01*
X71908884Y-81856653D01*
X71894262Y-81844758D01*
X71869565Y-81832995D01*
X71829372Y-81820146D01*
X71768263Y-81804994D01*
X71680817Y-81786321D01*
X71561612Y-81762910D01*
X71405227Y-81733542D01*
X71206243Y-81697000D01*
X71163160Y-81689143D01*
X71035471Y-81664472D01*
X70924153Y-81640338D01*
X70839045Y-81619069D01*
X70789983Y-81602993D01*
X70783405Y-81599245D01*
X70772564Y-81566018D01*
X70763753Y-81491766D01*
X70756976Y-81385121D01*
X70752240Y-81254712D01*
X70749550Y-81109172D01*
X70748913Y-80957131D01*
X70750334Y-80807221D01*
X70753820Y-80668073D01*
X70759376Y-80548317D01*
X70767008Y-80456586D01*
X70776722Y-80401511D01*
X70782578Y-80390238D01*
X70815180Y-80378868D01*
X70889418Y-80360369D01*
X70997896Y-80336347D01*
X71133217Y-80308407D01*
X71287985Y-80278153D01*
X71372308Y-80262296D01*
X71532296Y-80232389D01*
X71674967Y-80205295D01*
X71793348Y-80182376D01*
X71880465Y-80164988D01*
X71929345Y-80154492D01*
X71937390Y-80152165D01*
X71950987Y-80125931D01*
X71979729Y-80062740D01*
X72019785Y-79971622D01*
X72067324Y-79861602D01*
X72118515Y-79741710D01*
X72169526Y-79620972D01*
X72216526Y-79508416D01*
X72255684Y-79413071D01*
X72283169Y-79343962D01*
X72295149Y-79310119D01*
X72295372Y-79308640D01*
X72281791Y-79281942D01*
X72243715Y-79220505D01*
X72185147Y-79130434D01*
X72110088Y-79017835D01*
X72022540Y-78888815D01*
X71971647Y-78814706D01*
X71878909Y-78678822D01*
X71796541Y-78555454D01*
X71728561Y-78450842D01*
X71678988Y-78371228D01*
X71651842Y-78322852D01*
X71647921Y-78312007D01*
X71664775Y-78286765D01*
X71711368Y-78232869D01*
X71781749Y-78156358D01*
X71869965Y-78063268D01*
X71970065Y-77959640D01*
X72076098Y-77851509D01*
X72182111Y-77744915D01*
X72282152Y-77645895D01*
X72370270Y-77560487D01*
X72440513Y-77494730D01*
X72486928Y-77454661D01*
X72502456Y-77445098D01*
X72527739Y-77458545D01*
X72588211Y-77496320D01*
X72677992Y-77554580D01*
X72791203Y-77629479D01*
X72921964Y-77717170D01*
X73020600Y-77783978D01*
X73518957Y-78122857D01*
X73934371Y-77951610D01*
X74349784Y-77780363D01*
X74462366Y-77183172D01*
X74574949Y-76585980D01*
X75817952Y-76585980D01*
X75930535Y-77183172D01*
G37*
X75930535Y-77183172D02*
X76043117Y-77780363D01*
X76458531Y-77951610D01*
X76873944Y-78122857D01*
X77372302Y-77783978D01*
X77511868Y-77689622D01*
X77638028Y-77605375D01*
X77744895Y-77535083D01*
X77826582Y-77482592D01*
X77877201Y-77451749D01*
X77890986Y-77445098D01*
X77915820Y-77462203D01*
X77968888Y-77509489D01*
X78044240Y-77580917D01*
X78135929Y-77670445D01*
X78238007Y-77772034D01*
X78344526Y-77879643D01*
X78449536Y-77987232D01*
X78547091Y-78088760D01*
X78631242Y-78178186D01*
X78696040Y-78249471D01*
X78735538Y-78296573D01*
X78744980Y-78312337D01*
X78731391Y-78341398D01*
X78693293Y-78405066D01*
X78634694Y-78497112D01*
X78559597Y-78611309D01*
X78472009Y-78741429D01*
X78421254Y-78815646D01*
X78328745Y-78951167D01*
X78246540Y-79073461D01*
X78178630Y-79176440D01*
X78129000Y-79254018D01*
X78101640Y-79300106D01*
X78097529Y-79309792D01*
X78106849Y-79337319D01*
X78132254Y-79401473D01*
X78169911Y-79493235D01*
X78215986Y-79603584D01*
X78266646Y-79723500D01*
X78318059Y-79843964D01*
X78366389Y-79955954D01*
X78407806Y-80050452D01*
X78438474Y-80118437D01*
X78454562Y-80150888D01*
X78455511Y-80152165D01*
X78480772Y-80158362D01*
X78548046Y-80172185D01*
X78650360Y-80192277D01*
X78780741Y-80217279D01*
X78932216Y-80245831D01*
X79020594Y-80262296D01*
X79182452Y-80293114D01*
X79328649Y-80322439D01*
X79451787Y-80348666D01*
X79544469Y-80370191D01*
X79599301Y-80385410D01*
X79610323Y-80390238D01*
X79621119Y-80422919D01*
X79629829Y-80496730D01*
X79636460Y-80603037D01*
X79641018Y-80733212D01*
X79643509Y-80878621D01*
X79643938Y-81030635D01*
X79642311Y-81180622D01*
X79638635Y-81319951D01*
X79632915Y-81439990D01*
X79625158Y-81532110D01*
X79615368Y-81587677D01*
X79609496Y-81599245D01*
X79574399Y-81613110D01*
X79500028Y-81632933D01*
X79396223Y-81656384D01*
X79272819Y-81681136D01*
X79229741Y-81689143D01*
X79022047Y-81727186D01*
X78857984Y-81757824D01*
X78732130Y-81782274D01*
X78639065Y-81801754D01*
X78573367Y-81817481D01*
X78529617Y-81830673D01*
X78502392Y-81842549D01*
X78486272Y-81854325D01*
X78484017Y-81856653D01*
X78461503Y-81894145D01*
X78427158Y-81967110D01*
X78384411Y-82066612D01*
X78336692Y-82183718D01*
X78287430Y-82309493D01*
X78240055Y-82435002D01*
X78197995Y-82551310D01*
X78164680Y-82649484D01*
X78143541Y-82720588D01*
X78138005Y-82755687D01*
X78138466Y-82756917D01*
X78157223Y-82785606D01*
X78199776Y-82848730D01*
X78261653Y-82939718D01*
X78338382Y-83052000D01*
X78425491Y-83179005D01*
X78450299Y-83215098D01*
X78538753Y-83345948D01*
X78616588Y-83465336D01*
X78679566Y-83566407D01*
X78723445Y-83642304D01*
X78743985Y-83686172D01*
X78744980Y-83691562D01*
X78727722Y-83719889D01*
X78680036Y-83776006D01*
X78608050Y-83853882D01*
X78517897Y-83947485D01*
X78415705Y-84050786D01*
X78307606Y-84157751D01*
X78199728Y-84262351D01*
X78098204Y-84358554D01*
X78009162Y-84440329D01*
X77938733Y-84501645D01*
X77893047Y-84536471D01*
X77880409Y-84542157D01*
X77850991Y-84528765D01*
X77790761Y-84492644D01*
X77709530Y-84439881D01*
X77647030Y-84397412D01*
X77533785Y-84319485D01*
X77399674Y-84227729D01*
X77265155Y-84136120D01*
X77192833Y-84087091D01*
X76948038Y-83921515D01*
X76742551Y-84032620D01*
X76648936Y-84081293D01*
X76569330Y-84119126D01*
X76515467Y-84140703D01*
X76501757Y-84143706D01*
X76485270Y-84121538D01*
X76452745Y-84058894D01*
X76406609Y-83961554D01*
X76349290Y-83835294D01*
X76283216Y-83685895D01*
X76210815Y-83519133D01*
X76134516Y-83340787D01*
X76056746Y-83156636D01*
X75979934Y-82972457D01*
X75906506Y-82794030D01*
X75838892Y-82627132D01*
X75779520Y-82477542D01*
X75730816Y-82351038D01*
X75695210Y-82253399D01*
X75675130Y-82190402D01*
X75671900Y-82168766D01*
X75697496Y-82141169D01*
X75753539Y-82096370D01*
X75828311Y-82043679D01*
X75834587Y-82039510D01*
X76027845Y-81884814D01*
X76183674Y-81704336D01*
X76300724Y-81503847D01*
X76377645Y-81289119D01*
X76413086Y-81065922D01*
X76405697Y-80840026D01*
X76354127Y-80617204D01*
X76257026Y-80403224D01*
X76228458Y-80356409D01*
X76079868Y-80167363D01*
X75904327Y-80015557D01*
X75707910Y-79901779D01*
X75496693Y-79826820D01*
X75276753Y-79791467D01*
X75054163Y-79796512D01*
X74835001Y-79842744D01*
X74625342Y-79930951D01*
X74431261Y-80061924D01*
X74371226Y-80115082D01*
X74218435Y-80281484D01*
X74107097Y-80456657D01*
X74030723Y-80653011D01*
X73988187Y-80847462D01*
X73977686Y-81066087D01*
X74012701Y-81285797D01*
X74089673Y-81499165D01*
X74205047Y-81698767D01*
X74355266Y-81877174D01*
X74536773Y-82026962D01*
X74560627Y-82042751D01*
X74636201Y-82094457D01*
X74693651Y-82139257D01*
X74721117Y-82167862D01*
X74721517Y-82168766D01*
X74715620Y-82199709D01*
X74692245Y-82269936D01*
X74653821Y-82373670D01*
X74602777Y-82505135D01*
X74541542Y-82658552D01*
X74472544Y-82828146D01*
X74398214Y-83008138D01*
X74320978Y-83192753D01*
X74243268Y-83376213D01*
X74167511Y-83552741D01*
X74096137Y-83716559D01*
X74031574Y-83861892D01*
X73976252Y-83982962D01*
X73932600Y-84073992D01*
X73903046Y-84129205D01*
X73891144Y-84143706D01*
X73854777Y-84132414D01*
X73786730Y-84102130D01*
X73698737Y-84058265D01*
X73650351Y-84032620D01*
X73444863Y-83921515D01*
X73200068Y-84087091D01*
X73075106Y-84171915D01*
X72938295Y-84265261D01*
X72810089Y-84353153D01*
X72745871Y-84397412D01*
X72655551Y-84458063D01*
X72579071Y-84506126D01*
X72526407Y-84535515D01*
X72509302Y-84541727D01*
X72484405Y-84524968D01*
X72429305Y-84478181D01*
X72349343Y-84406225D01*
X72249861Y-84313957D01*
X72136200Y-84206235D01*
X72064315Y-84137071D01*
X71938551Y-84013502D01*
X71829863Y-83902979D01*
X71742645Y-83810230D01*
X71681289Y-83739982D01*
X71650191Y-83696965D01*
X71647208Y-83688235D01*
X71661053Y-83655029D01*
X71699312Y-83587887D01*
X71757742Y-83493608D01*
X71832097Y-83378990D01*
X71918135Y-83250828D01*
X71942603Y-83215098D01*
X72031755Y-83085234D01*
X72111738Y-82968314D01*
X72178080Y-82870907D01*
X72226311Y-82799584D01*
X72251957Y-82760915D01*
X72254435Y-82756917D01*
X72250729Y-82726100D01*
X72231061Y-82658344D01*
X72198860Y-82562584D01*
X72157555Y-82447754D01*
X72110575Y-82322789D01*
X72061349Y-82196624D01*
X72013308Y-82078193D01*
X71969881Y-81976430D01*
X71934496Y-81900271D01*
X71910584Y-81858649D01*
X71908884Y-81856653D01*
X71894262Y-81844758D01*
X71869565Y-81832995D01*
X71829372Y-81820146D01*
X71768263Y-81804994D01*
X71680817Y-81786321D01*
X71561612Y-81762910D01*
X71405227Y-81733542D01*
X71206243Y-81697000D01*
X71163160Y-81689143D01*
X71035471Y-81664472D01*
X70924153Y-81640338D01*
X70839045Y-81619069D01*
X70789983Y-81602993D01*
X70783405Y-81599245D01*
X70772564Y-81566018D01*
X70763753Y-81491766D01*
X70756976Y-81385121D01*
X70752240Y-81254712D01*
X70749550Y-81109172D01*
X70748913Y-80957131D01*
X70750334Y-80807221D01*
X70753820Y-80668073D01*
X70759376Y-80548317D01*
X70767008Y-80456586D01*
X70776722Y-80401511D01*
X70782578Y-80390238D01*
X70815180Y-80378868D01*
X70889418Y-80360369D01*
X70997896Y-80336347D01*
X71133217Y-80308407D01*
X71287985Y-80278153D01*
X71372308Y-80262296D01*
X71532296Y-80232389D01*
X71674967Y-80205295D01*
X71793348Y-80182376D01*
X71880465Y-80164988D01*
X71929345Y-80154492D01*
X71937390Y-80152165D01*
X71950987Y-80125931D01*
X71979729Y-80062740D01*
X72019785Y-79971622D01*
X72067324Y-79861602D01*
X72118515Y-79741710D01*
X72169526Y-79620972D01*
X72216526Y-79508416D01*
X72255684Y-79413071D01*
X72283169Y-79343962D01*
X72295149Y-79310119D01*
X72295372Y-79308640D01*
X72281791Y-79281942D01*
X72243715Y-79220505D01*
X72185147Y-79130434D01*
X72110088Y-79017835D01*
X72022540Y-78888815D01*
X71971647Y-78814706D01*
X71878909Y-78678822D01*
X71796541Y-78555454D01*
X71728561Y-78450842D01*
X71678988Y-78371228D01*
X71651842Y-78322852D01*
X71647921Y-78312007D01*
X71664775Y-78286765D01*
X71711368Y-78232869D01*
X71781749Y-78156358D01*
X71869965Y-78063268D01*
X71970065Y-77959640D01*
X72076098Y-77851509D01*
X72182111Y-77744915D01*
X72282152Y-77645895D01*
X72370270Y-77560487D01*
X72440513Y-77494730D01*
X72486928Y-77454661D01*
X72502456Y-77445098D01*
X72527739Y-77458545D01*
X72588211Y-77496320D01*
X72677992Y-77554580D01*
X72791203Y-77629479D01*
X72921964Y-77717170D01*
X73020600Y-77783978D01*
X73518957Y-78122857D01*
X73934371Y-77951610D01*
X74349784Y-77780363D01*
X74462366Y-77183172D01*
X74574949Y-76585980D01*
X75817952Y-76585980D01*
X75930535Y-77183172D01*
G36*
X73216764Y-87308921D02*
G01*
X73254030Y-87320091D01*
X73266043Y-87344633D01*
X73266549Y-87355712D01*
X73268704Y-87386572D01*
X73283551Y-87391417D01*
X73323657Y-87370260D01*
X73347480Y-87355806D01*
X73422638Y-87324850D01*
X73512406Y-87309544D01*
X73606529Y-87308367D01*
X73694754Y-87319799D01*
X73766826Y-87342320D01*
X73812492Y-87374409D01*
X73821498Y-87414545D01*
X73816953Y-87425415D01*
X73783821Y-87470534D01*
X73732445Y-87526026D01*
X73723152Y-87534996D01*
X73674182Y-87576245D01*
X73631931Y-87589572D01*
X73572841Y-87580271D01*
X73549169Y-87574090D01*
X73475504Y-87559246D01*
X73423710Y-87565921D01*
X73379969Y-87589465D01*
X73339902Y-87621061D01*
X73310392Y-87660798D01*
X73289884Y-87716252D01*
X73276824Y-87795003D01*
X73269656Y-87904629D01*
X73266824Y-88052706D01*
X73266549Y-88142111D01*
X73266549Y-88526471D01*
X73017529Y-88526471D01*
X73017529Y-87306275D01*
X73142039Y-87306275D01*
X73216764Y-87308921D01*
G37*
X73216764Y-87308921D02*
X73254030Y-87320091D01*
X73266043Y-87344633D01*
X73266549Y-87355712D01*
X73268704Y-87386572D01*
X73283551Y-87391417D01*
X73323657Y-87370260D01*
X73347480Y-87355806D01*
X73422638Y-87324850D01*
X73512406Y-87309544D01*
X73606529Y-87308367D01*
X73694754Y-87319799D01*
X73766826Y-87342320D01*
X73812492Y-87374409D01*
X73821498Y-87414545D01*
X73816953Y-87425415D01*
X73783821Y-87470534D01*
X73732445Y-87526026D01*
X73723152Y-87534996D01*
X73674182Y-87576245D01*
X73631931Y-87589572D01*
X73572841Y-87580271D01*
X73549169Y-87574090D01*
X73475504Y-87559246D01*
X73423710Y-87565921D01*
X73379969Y-87589465D01*
X73339902Y-87621061D01*
X73310392Y-87660798D01*
X73289884Y-87716252D01*
X73276824Y-87795003D01*
X73269656Y-87904629D01*
X73266824Y-88052706D01*
X73266549Y-88142111D01*
X73266549Y-88526471D01*
X73017529Y-88526471D01*
X73017529Y-87306275D01*
X73142039Y-87306275D01*
X73216764Y-87308921D01*
G36*
X69512260Y-85833600D02*
G01*
X69527283Y-85746367D01*
X69554376Y-85677530D01*
X69595600Y-85616737D01*
X69610885Y-85598686D01*
X69706454Y-85508746D01*
X69808961Y-85456211D01*
X69934321Y-85434201D01*
X69995450Y-85432402D01*
X70157247Y-85451568D01*
X70287522Y-85509163D01*
X70386419Y-85605334D01*
X70454082Y-85740229D01*
X70490655Y-85913996D01*
X70493276Y-85941126D01*
X70495330Y-86132408D01*
X70468699Y-86300073D01*
X70415001Y-86435967D01*
X70386247Y-86479681D01*
X70286091Y-86572198D01*
X70158537Y-86632119D01*
X70015837Y-86656985D01*
X69870240Y-86644339D01*
X69759562Y-86605391D01*
X69664384Y-86539755D01*
X69586594Y-86453699D01*
X69585249Y-86451685D01*
X69553657Y-86398570D01*
X69533127Y-86345160D01*
X69520695Y-86277754D01*
X69513397Y-86182653D01*
X69510182Y-86104666D01*
X69508844Y-86033944D01*
X69757814Y-86033944D01*
X69760247Y-86104348D01*
X69769080Y-86198068D01*
X69784664Y-86258214D01*
X69812766Y-86301006D01*
X69839086Y-86326002D01*
X69932392Y-86378338D01*
X70030020Y-86385333D01*
X70120942Y-86347676D01*
X70166402Y-86305479D01*
X70199162Y-86262956D01*
X70218323Y-86222267D01*
X70226733Y-86169314D01*
X70227237Y-86089997D01*
X70224645Y-86016950D01*
X70219071Y-85912601D01*
X70210234Y-85844920D01*
X70194307Y-85800774D01*
X70167462Y-85767031D01*
X70146189Y-85747746D01*
X70057206Y-85697086D01*
X69961211Y-85694560D01*
X69880719Y-85724567D01*
X69812053Y-85787231D01*
X69771144Y-85890168D01*
X69757814Y-86033944D01*
X69508844Y-86033944D01*
X69507246Y-85949582D01*
X69512260Y-85833600D01*
G37*
X69512260Y-85833600D02*
X69527283Y-85746367D01*
X69554376Y-85677530D01*
X69595600Y-85616737D01*
X69610885Y-85598686D01*
X69706454Y-85508746D01*
X69808961Y-85456211D01*
X69934321Y-85434201D01*
X69995450Y-85432402D01*
X70157247Y-85451568D01*
X70287522Y-85509163D01*
X70386419Y-85605334D01*
X70454082Y-85740229D01*
X70490655Y-85913996D01*
X70493276Y-85941126D01*
X70495330Y-86132408D01*
X70468699Y-86300073D01*
X70415001Y-86435967D01*
X70386247Y-86479681D01*
X70286091Y-86572198D01*
X70158537Y-86632119D01*
X70015837Y-86656985D01*
X69870240Y-86644339D01*
X69759562Y-86605391D01*
X69664384Y-86539755D01*
X69586594Y-86453699D01*
X69585249Y-86451685D01*
X69553657Y-86398570D01*
X69533127Y-86345160D01*
X69520695Y-86277754D01*
X69513397Y-86182653D01*
X69510182Y-86104666D01*
X69508844Y-86033944D01*
X69757814Y-86033944D01*
X69760247Y-86104348D01*
X69769080Y-86198068D01*
X69784664Y-86258214D01*
X69812766Y-86301006D01*
X69839086Y-86326002D01*
X69932392Y-86378338D01*
X70030020Y-86385333D01*
X70120942Y-86347676D01*
X70166402Y-86305479D01*
X70199162Y-86262956D01*
X70218323Y-86222267D01*
X70226733Y-86169314D01*
X70227237Y-86089997D01*
X70224645Y-86016950D01*
X70219071Y-85912601D01*
X70210234Y-85844920D01*
X70194307Y-85800774D01*
X70167462Y-85767031D01*
X70146189Y-85747746D01*
X70057206Y-85697086D01*
X69961211Y-85694560D01*
X69880719Y-85724567D01*
X69812053Y-85787231D01*
X69771144Y-85890168D01*
X69757814Y-86033944D01*
X69508844Y-86033944D01*
X69507246Y-85949582D01*
X69512260Y-85833600D01*
G36*
X76642880Y-87966855D02*
G01*
X76704196Y-87890285D01*
X76741332Y-87857181D01*
X76777687Y-87835425D01*
X76824990Y-87822161D01*
X76894973Y-87814528D01*
X76999364Y-87809670D01*
X77040770Y-87808273D01*
X77300666Y-87799780D01*
X77300285Y-87721116D01*
X77290219Y-87638428D01*
X77253829Y-87588431D01*
X77180311Y-87556489D01*
X77178339Y-87555920D01*
X77074105Y-87543361D01*
X76972108Y-87559766D01*
X76896305Y-87599657D01*
X76865890Y-87619354D01*
X76833132Y-87616629D01*
X76782721Y-87588091D01*
X76753119Y-87567950D01*
X76695218Y-87524919D01*
X76659352Y-87492662D01*
X76653597Y-87483427D01*
X76677295Y-87435636D01*
X76747313Y-87378562D01*
X76777725Y-87359305D01*
X76865155Y-87326140D01*
X76982983Y-87307350D01*
X77113866Y-87303129D01*
X77240459Y-87313669D01*
X77345420Y-87339163D01*
X77375761Y-87352669D01*
X77434573Y-87388046D01*
X77479709Y-87427890D01*
X77513106Y-87479120D01*
X77536701Y-87548654D01*
X77552433Y-87643409D01*
X77562239Y-87770305D01*
X77568057Y-87936258D01*
X77570266Y-88047108D01*
X77578396Y-88526471D01*
X77439531Y-88526471D01*
X77355287Y-88522938D01*
X77311884Y-88510866D01*
X77300666Y-88490594D01*
X77294744Y-88468674D01*
X77268266Y-88472865D01*
X77232186Y-88490441D01*
X77141862Y-88517382D01*
X77025777Y-88524642D01*
X76903680Y-88512767D01*
X76795321Y-88482305D01*
X76785602Y-88478077D01*
X76686568Y-88408505D01*
X76621281Y-88311789D01*
X76591240Y-88198738D01*
X76593535Y-88158122D01*
X76838633Y-88158122D01*
X76860229Y-88212782D01*
X76924259Y-88251952D01*
X77027565Y-88272974D01*
X77082774Y-88275766D01*
X77174782Y-88268620D01*
X77235941Y-88240848D01*
X77250862Y-88227647D01*
X77291287Y-88155829D01*
X77300666Y-88090686D01*
X77300666Y-88003530D01*
X77179269Y-88003530D01*
X77038153Y-88010722D01*
X76939173Y-88033345D01*
X76876633Y-88072964D01*
X76862631Y-88090628D01*
X76838633Y-88158122D01*
X76593535Y-88158122D01*
X76597941Y-88080157D01*
X76642880Y-87966855D01*
G37*
X76642880Y-87966855D02*
X76704196Y-87890285D01*
X76741332Y-87857181D01*
X76777687Y-87835425D01*
X76824990Y-87822161D01*
X76894973Y-87814528D01*
X76999364Y-87809670D01*
X77040770Y-87808273D01*
X77300666Y-87799780D01*
X77300285Y-87721116D01*
X77290219Y-87638428D01*
X77253829Y-87588431D01*
X77180311Y-87556489D01*
X77178339Y-87555920D01*
X77074105Y-87543361D01*
X76972108Y-87559766D01*
X76896305Y-87599657D01*
X76865890Y-87619354D01*
X76833132Y-87616629D01*
X76782721Y-87588091D01*
X76753119Y-87567950D01*
X76695218Y-87524919D01*
X76659352Y-87492662D01*
X76653597Y-87483427D01*
X76677295Y-87435636D01*
X76747313Y-87378562D01*
X76777725Y-87359305D01*
X76865155Y-87326140D01*
X76982983Y-87307350D01*
X77113866Y-87303129D01*
X77240459Y-87313669D01*
X77345420Y-87339163D01*
X77375761Y-87352669D01*
X77434573Y-87388046D01*
X77479709Y-87427890D01*
X77513106Y-87479120D01*
X77536701Y-87548654D01*
X77552433Y-87643409D01*
X77562239Y-87770305D01*
X77568057Y-87936258D01*
X77570266Y-88047108D01*
X77578396Y-88526471D01*
X77439531Y-88526471D01*
X77355287Y-88522938D01*
X77311884Y-88510866D01*
X77300666Y-88490594D01*
X77294744Y-88468674D01*
X77268266Y-88472865D01*
X77232186Y-88490441D01*
X77141862Y-88517382D01*
X77025777Y-88524642D01*
X76903680Y-88512767D01*
X76795321Y-88482305D01*
X76785602Y-88478077D01*
X76686568Y-88408505D01*
X76621281Y-88311789D01*
X76591240Y-88198738D01*
X76593535Y-88158122D01*
X76838633Y-88158122D01*
X76860229Y-88212782D01*
X76924259Y-88251952D01*
X77027565Y-88272974D01*
X77082774Y-88275766D01*
X77174782Y-88268620D01*
X77235941Y-88240848D01*
X77250862Y-88227647D01*
X77291287Y-88155829D01*
X77300666Y-88090686D01*
X77300666Y-88003530D01*
X77179269Y-88003530D01*
X77038153Y-88010722D01*
X76939173Y-88033345D01*
X76876633Y-88072964D01*
X76862631Y-88090628D01*
X76838633Y-88158122D01*
X76593535Y-88158122D01*
X76597941Y-88080157D01*
X76642880Y-87966855D01*
G36*
X78422446Y-87305883D02*
G01*
X78518177Y-87324755D01*
X78572677Y-87352699D01*
X78630008Y-87399123D01*
X78548441Y-87502111D01*
X78498150Y-87564479D01*
X78464001Y-87594907D01*
X78430063Y-87599555D01*
X78380406Y-87584586D01*
X78357096Y-87576117D01*
X78262063Y-87563622D01*
X78175032Y-87590406D01*
X78111138Y-87650915D01*
X78100759Y-87670208D01*
X78089456Y-87721314D01*
X78080732Y-87815500D01*
X78074997Y-87946089D01*
X78072660Y-88106405D01*
X78072627Y-88129211D01*
X78072627Y-88526471D01*
X77798705Y-88526471D01*
X77798705Y-87306275D01*
X77935666Y-87306275D01*
X78014638Y-87308337D01*
X78055779Y-87317513D01*
X78070992Y-87338290D01*
X78072627Y-87357886D01*
X78072627Y-87409497D01*
X78138240Y-87357886D01*
X78213475Y-87322675D01*
X78314544Y-87305265D01*
X78422446Y-87305883D01*
G37*
X78422446Y-87305883D02*
X78518177Y-87324755D01*
X78572677Y-87352699D01*
X78630008Y-87399123D01*
X78548441Y-87502111D01*
X78498150Y-87564479D01*
X78464001Y-87594907D01*
X78430063Y-87599555D01*
X78380406Y-87584586D01*
X78357096Y-87576117D01*
X78262063Y-87563622D01*
X78175032Y-87590406D01*
X78111138Y-87650915D01*
X78100759Y-87670208D01*
X78089456Y-87721314D01*
X78080732Y-87815500D01*
X78074997Y-87946089D01*
X78072660Y-88106405D01*
X78072627Y-88129211D01*
X78072627Y-88526471D01*
X77798705Y-88526471D01*
X77798705Y-87306275D01*
X77935666Y-87306275D01*
X78014638Y-87308337D01*
X78055779Y-87317513D01*
X78070992Y-87338290D01*
X78072627Y-87357886D01*
X78072627Y-87409497D01*
X78138240Y-87357886D01*
X78213475Y-87322675D01*
X78314544Y-87305265D01*
X78422446Y-87305883D01*
G36*
X73818194Y-87822918D02*
G01*
X73830373Y-87661355D01*
X73855685Y-87540053D01*
X73897793Y-87450379D01*
X73960359Y-87383699D01*
X74021100Y-87344557D01*
X74105964Y-87317040D01*
X74211515Y-87307603D01*
X74319598Y-87315290D01*
X74412058Y-87339146D01*
X74460910Y-87367685D01*
X74511647Y-87413601D01*
X74511647Y-86833137D01*
X74785568Y-86833137D01*
X74785568Y-88526471D01*
X74648607Y-88526471D01*
X74569111Y-88524140D01*
X74527708Y-88514488D01*
X74512801Y-88493525D01*
X74511647Y-88479351D01*
X74509133Y-88450927D01*
X74493280Y-88445475D01*
X74451621Y-88462998D01*
X74419224Y-88479351D01*
X74294849Y-88518103D01*
X74159646Y-88520346D01*
X74049726Y-88491444D01*
X73947366Y-88421619D01*
X73869340Y-88318555D01*
X73826614Y-88196989D01*
X73825526Y-88190192D01*
X73819178Y-88116032D01*
X73816021Y-88009570D01*
X73816275Y-87929052D01*
X74088289Y-87929052D01*
X74094590Y-88036070D01*
X74108925Y-88124278D01*
X74128331Y-88174090D01*
X74201746Y-88242162D01*
X74288914Y-88266564D01*
X74378804Y-88246831D01*
X74455617Y-88187968D01*
X74484708Y-88148379D01*
X74501717Y-88101138D01*
X74509684Y-88032181D01*
X74511647Y-87928607D01*
X74508134Y-87826039D01*
X74498857Y-87735921D01*
X74485706Y-87675613D01*
X74483514Y-87670208D01*
X74430478Y-87605940D01*
X74353067Y-87570656D01*
X74266454Y-87564959D01*
X74185807Y-87589453D01*
X74126297Y-87644742D01*
X74120124Y-87655743D01*
X74100801Y-87722827D01*
X74090274Y-87819284D01*
X74088289Y-87929052D01*
X73816275Y-87929052D01*
X73816404Y-87888225D01*
X73818194Y-87822918D01*
G37*
X73818194Y-87822918D02*
X73830373Y-87661355D01*
X73855685Y-87540053D01*
X73897793Y-87450379D01*
X73960359Y-87383699D01*
X74021100Y-87344557D01*
X74105964Y-87317040D01*
X74211515Y-87307603D01*
X74319598Y-87315290D01*
X74412058Y-87339146D01*
X74460910Y-87367685D01*
X74511647Y-87413601D01*
X74511647Y-86833137D01*
X74785568Y-86833137D01*
X74785568Y-88526471D01*
X74648607Y-88526471D01*
X74569111Y-88524140D01*
X74527708Y-88514488D01*
X74512801Y-88493525D01*
X74511647Y-88479351D01*
X74509133Y-88450927D01*
X74493280Y-88445475D01*
X74451621Y-88462998D01*
X74419224Y-88479351D01*
X74294849Y-88518103D01*
X74159646Y-88520346D01*
X74049726Y-88491444D01*
X73947366Y-88421619D01*
X73869340Y-88318555D01*
X73826614Y-88196989D01*
X73825526Y-88190192D01*
X73819178Y-88116032D01*
X73816021Y-88009570D01*
X73816275Y-87929052D01*
X74088289Y-87929052D01*
X74094590Y-88036070D01*
X74108925Y-88124278D01*
X74128331Y-88174090D01*
X74201746Y-88242162D01*
X74288914Y-88266564D01*
X74378804Y-88246831D01*
X74455617Y-88187968D01*
X74484708Y-88148379D01*
X74501717Y-88101138D01*
X74509684Y-88032181D01*
X74511647Y-87928607D01*
X74508134Y-87826039D01*
X74498857Y-87735921D01*
X74485706Y-87675613D01*
X74483514Y-87670208D01*
X74430478Y-87605940D01*
X74353067Y-87570656D01*
X74266454Y-87564959D01*
X74185807Y-87589453D01*
X74126297Y-87644742D01*
X74120124Y-87655743D01*
X74100801Y-87722827D01*
X74090274Y-87819284D01*
X74088289Y-87929052D01*
X73816275Y-87929052D01*
X73816404Y-87888225D01*
X73818194Y-87822918D01*
G36*
X77151254Y-85826245D02*
G01*
X77153608Y-86008879D01*
X77162207Y-86147600D01*
X77179360Y-86248147D01*
X77207374Y-86316254D01*
X77248557Y-86357659D01*
X77305217Y-86378097D01*
X77375372Y-86383318D01*
X77448848Y-86377468D01*
X77504657Y-86356093D01*
X77545109Y-86313458D01*
X77572509Y-86243825D01*
X77589167Y-86141460D01*
X77597389Y-86000624D01*
X77599490Y-85826245D01*
X77599490Y-85438628D01*
X77873411Y-85438628D01*
X77873411Y-86633922D01*
X77736451Y-86633922D01*
X77653884Y-86630576D01*
X77611368Y-86618826D01*
X77599490Y-86596520D01*
X77592336Y-86576654D01*
X77563865Y-86580857D01*
X77506476Y-86608971D01*
X77374945Y-86652342D01*
X77235438Y-86649270D01*
X77101765Y-86602174D01*
X77038108Y-86564971D01*
X76989553Y-86524691D01*
X76954081Y-86474291D01*
X76929674Y-86406729D01*
X76914313Y-86314965D01*
X76905982Y-86191955D01*
X76902662Y-86030659D01*
X76902235Y-85905928D01*
X76902235Y-85438628D01*
X77151254Y-85438628D01*
X77151254Y-85826245D01*
G37*
X77151254Y-85826245D02*
X77153608Y-86008879D01*
X77162207Y-86147600D01*
X77179360Y-86248147D01*
X77207374Y-86316254D01*
X77248557Y-86357659D01*
X77305217Y-86378097D01*
X77375372Y-86383318D01*
X77448848Y-86377468D01*
X77504657Y-86356093D01*
X77545109Y-86313458D01*
X77572509Y-86243825D01*
X77589167Y-86141460D01*
X77597389Y-86000624D01*
X77599490Y-85826245D01*
X77599490Y-85438628D01*
X77873411Y-85438628D01*
X77873411Y-86633922D01*
X77736451Y-86633922D01*
X77653884Y-86630576D01*
X77611368Y-86618826D01*
X77599490Y-86596520D01*
X77592336Y-86576654D01*
X77563865Y-86580857D01*
X77506476Y-86608971D01*
X77374945Y-86652342D01*
X77235438Y-86649270D01*
X77101765Y-86602174D01*
X77038108Y-86564971D01*
X76989553Y-86524691D01*
X76954081Y-86474291D01*
X76929674Y-86406729D01*
X76914313Y-86314965D01*
X76905982Y-86191955D01*
X76902662Y-86030659D01*
X76902235Y-85905928D01*
X76902235Y-85438628D01*
X77151254Y-85438628D01*
X77151254Y-85826245D01*
G36*
X75211759Y-85434345D02*
G01*
X75306059Y-85452229D01*
X75403890Y-85489633D01*
X75414343Y-85494402D01*
X75488531Y-85533412D01*
X75539910Y-85569664D01*
X75556517Y-85592887D01*
X75540702Y-85630761D01*
X75502288Y-85686644D01*
X75485237Y-85707505D01*
X75414969Y-85789618D01*
X75324379Y-85736168D01*
X75238164Y-85700561D01*
X75138549Y-85681529D01*
X75043019Y-85680326D01*
X74969061Y-85698210D01*
X74951312Y-85709373D01*
X74917512Y-85760553D01*
X74913404Y-85819509D01*
X74938696Y-85865567D01*
X74953656Y-85874499D01*
X74998486Y-85885592D01*
X75077286Y-85898630D01*
X75174426Y-85911088D01*
X75192346Y-85913042D01*
X75348365Y-85940030D01*
X75461523Y-85985873D01*
X75536569Y-86054803D01*
X75578253Y-86151054D01*
X75591238Y-86268617D01*
X75573299Y-86402254D01*
X75515050Y-86507195D01*
X75416255Y-86583630D01*
X75276682Y-86631748D01*
X75121745Y-86650732D01*
X74995398Y-86650504D01*
X74892913Y-86633262D01*
X74822921Y-86609457D01*
X74734483Y-86567978D01*
X74652754Y-86519842D01*
X74623705Y-86498655D01*
X74549000Y-86437676D01*
X74639098Y-86346508D01*
X74729196Y-86255339D01*
X74831632Y-86323128D01*
X74934374Y-86374042D01*
X75044087Y-86400673D01*
X75149551Y-86403483D01*
X75239546Y-86382935D01*
X75302854Y-86339493D01*
X75323296Y-86302838D01*
X75320229Y-86244053D01*
X75269434Y-86199099D01*
X75171048Y-86168057D01*
X75063256Y-86153710D01*
X74897365Y-86126337D01*
X74774124Y-86074693D01*
X74691886Y-85997266D01*
X74649001Y-85892544D01*
X74643060Y-85768387D01*
X74672406Y-85638702D01*
X74739309Y-85540677D01*
X74844371Y-85473866D01*
X74988190Y-85437820D01*
X75094738Y-85430754D01*
X75211759Y-85434345D01*
G37*
X75211759Y-85434345D02*
X75306059Y-85452229D01*
X75403890Y-85489633D01*
X75414343Y-85494402D01*
X75488531Y-85533412D01*
X75539910Y-85569664D01*
X75556517Y-85592887D01*
X75540702Y-85630761D01*
X75502288Y-85686644D01*
X75485237Y-85707505D01*
X75414969Y-85789618D01*
X75324379Y-85736168D01*
X75238164Y-85700561D01*
X75138549Y-85681529D01*
X75043019Y-85680326D01*
X74969061Y-85698210D01*
X74951312Y-85709373D01*
X74917512Y-85760553D01*
X74913404Y-85819509D01*
X74938696Y-85865567D01*
X74953656Y-85874499D01*
X74998486Y-85885592D01*
X75077286Y-85898630D01*
X75174426Y-85911088D01*
X75192346Y-85913042D01*
X75348365Y-85940030D01*
X75461523Y-85985873D01*
X75536569Y-86054803D01*
X75578253Y-86151054D01*
X75591238Y-86268617D01*
X75573299Y-86402254D01*
X75515050Y-86507195D01*
X75416255Y-86583630D01*
X75276682Y-86631748D01*
X75121745Y-86650732D01*
X74995398Y-86650504D01*
X74892913Y-86633262D01*
X74822921Y-86609457D01*
X74734483Y-86567978D01*
X74652754Y-86519842D01*
X74623705Y-86498655D01*
X74549000Y-86437676D01*
X74639098Y-86346508D01*
X74729196Y-86255339D01*
X74831632Y-86323128D01*
X74934374Y-86374042D01*
X75044087Y-86400673D01*
X75149551Y-86403483D01*
X75239546Y-86382935D01*
X75302854Y-86339493D01*
X75323296Y-86302838D01*
X75320229Y-86244053D01*
X75269434Y-86199099D01*
X75171048Y-86168057D01*
X75063256Y-86153710D01*
X74897365Y-86126337D01*
X74774124Y-86074693D01*
X74691886Y-85997266D01*
X74649001Y-85892544D01*
X74643060Y-85768387D01*
X74672406Y-85638702D01*
X74739309Y-85540677D01*
X74844371Y-85473866D01*
X74988190Y-85437820D01*
X75094738Y-85430754D01*
X75211759Y-85434345D01*
G36*
X73690760Y-85459199D02*
G01*
X73752736Y-85488802D01*
X73812759Y-85531561D01*
X73858486Y-85580775D01*
X73891793Y-85643544D01*
X73914555Y-85726971D01*
X73928647Y-85838159D01*
X73935942Y-85984209D01*
X73938318Y-86172223D01*
X73938355Y-86191912D01*
X73938902Y-86633922D01*
X73664980Y-86633922D01*
X73664980Y-86226435D01*
X73664785Y-86075471D01*
X73663436Y-85966056D01*
X73659788Y-85889933D01*
X73652696Y-85838848D01*
X73641013Y-85804545D01*
X73623594Y-85778768D01*
X73599329Y-85753298D01*
X73514435Y-85698571D01*
X73421761Y-85688416D01*
X73333473Y-85723017D01*
X73302770Y-85748770D01*
X73280229Y-85772982D01*
X73264046Y-85798912D01*
X73253168Y-85834708D01*
X73246542Y-85888519D01*
X73243115Y-85968493D01*
X73241834Y-86082779D01*
X73241647Y-86221907D01*
X73241647Y-86633922D01*
X72967725Y-86633922D01*
X72967725Y-85438628D01*
X73104686Y-85438628D01*
X73186916Y-85441879D01*
X73229340Y-85453426D01*
X73241641Y-85475952D01*
X73241647Y-85476620D01*
X73247354Y-85498681D01*
X73272527Y-85496177D01*
X73322578Y-85471937D01*
X73436094Y-85436271D01*
X73565945Y-85432305D01*
X73690760Y-85459199D01*
G37*
X73690760Y-85459199D02*
X73752736Y-85488802D01*
X73812759Y-85531561D01*
X73858486Y-85580775D01*
X73891793Y-85643544D01*
X73914555Y-85726971D01*
X73928647Y-85838159D01*
X73935942Y-85984209D01*
X73938318Y-86172223D01*
X73938355Y-86191912D01*
X73938902Y-86633922D01*
X73664980Y-86633922D01*
X73664980Y-86226435D01*
X73664785Y-86075471D01*
X73663436Y-85966056D01*
X73659788Y-85889933D01*
X73652696Y-85838848D01*
X73641013Y-85804545D01*
X73623594Y-85778768D01*
X73599329Y-85753298D01*
X73514435Y-85698571D01*
X73421761Y-85688416D01*
X73333473Y-85723017D01*
X73302770Y-85748770D01*
X73280229Y-85772982D01*
X73264046Y-85798912D01*
X73253168Y-85834708D01*
X73246542Y-85888519D01*
X73243115Y-85968493D01*
X73241834Y-86082779D01*
X73241647Y-86221907D01*
X73241647Y-86633922D01*
X72967725Y-86633922D01*
X72967725Y-85438628D01*
X73104686Y-85438628D01*
X73186916Y-85441879D01*
X73229340Y-85453426D01*
X73241641Y-85475952D01*
X73241647Y-85476620D01*
X73247354Y-85498681D01*
X73272527Y-85496177D01*
X73322578Y-85471937D01*
X73436094Y-85436271D01*
X73565945Y-85432305D01*
X73690760Y-85459199D01*
G36*
X79574976Y-85449056D02*
G01*
X79719256Y-85510348D01*
X79764699Y-85540185D01*
X79822779Y-85586036D01*
X79859238Y-85622089D01*
X79865568Y-85633832D01*
X79847693Y-85659889D01*
X79801950Y-85704105D01*
X79765328Y-85734965D01*
X79665088Y-85815520D01*
X79585935Y-85748918D01*
X79524769Y-85705921D01*
X79465129Y-85691079D01*
X79396872Y-85694704D01*
X79288482Y-85721652D01*
X79213872Y-85777587D01*
X79168530Y-85868014D01*
X79147947Y-85998435D01*
X79147942Y-85998517D01*
X79149722Y-86144290D01*
X79177387Y-86251245D01*
X79232571Y-86324064D01*
X79270192Y-86348723D01*
X79370105Y-86379431D01*
X79476822Y-86379449D01*
X79569669Y-86349655D01*
X79591647Y-86335098D01*
X79646765Y-86297914D01*
X79689859Y-86291820D01*
X79736335Y-86319496D01*
X79787716Y-86369205D01*
X79869046Y-86453116D01*
X79778749Y-86527546D01*
X79639236Y-86611549D01*
X79481912Y-86652947D01*
X79317503Y-86649950D01*
X79209531Y-86622500D01*
X79083331Y-86554620D01*
X78982401Y-86447831D01*
X78936548Y-86372451D01*
X78899410Y-86264297D01*
X78880827Y-86127318D01*
X78880684Y-85978864D01*
X78898865Y-85836281D01*
X78935255Y-85716918D01*
X78940987Y-85704680D01*
X79025865Y-85584655D01*
X79140782Y-85497267D01*
X79276659Y-85444329D01*
X79424417Y-85427654D01*
X79574976Y-85449056D01*
G37*
X79574976Y-85449056D02*
X79719256Y-85510348D01*
X79764699Y-85540185D01*
X79822779Y-85586036D01*
X79859238Y-85622089D01*
X79865568Y-85633832D01*
X79847693Y-85659889D01*
X79801950Y-85704105D01*
X79765328Y-85734965D01*
X79665088Y-85815520D01*
X79585935Y-85748918D01*
X79524769Y-85705921D01*
X79465129Y-85691079D01*
X79396872Y-85694704D01*
X79288482Y-85721652D01*
X79213872Y-85777587D01*
X79168530Y-85868014D01*
X79147947Y-85998435D01*
X79147942Y-85998517D01*
X79149722Y-86144290D01*
X79177387Y-86251245D01*
X79232571Y-86324064D01*
X79270192Y-86348723D01*
X79370105Y-86379431D01*
X79476822Y-86379449D01*
X79569669Y-86349655D01*
X79591647Y-86335098D01*
X79646765Y-86297914D01*
X79689859Y-86291820D01*
X79736335Y-86319496D01*
X79787716Y-86369205D01*
X79869046Y-86453116D01*
X79778749Y-86527546D01*
X79639236Y-86611549D01*
X79481912Y-86652947D01*
X79317503Y-86649950D01*
X79209531Y-86622500D01*
X79083331Y-86554620D01*
X78982401Y-86447831D01*
X78936548Y-86372451D01*
X78899410Y-86264297D01*
X78880827Y-86127318D01*
X78880684Y-85978864D01*
X78898865Y-85836281D01*
X78935255Y-85716918D01*
X78940987Y-85704680D01*
X79025865Y-85584655D01*
X79140782Y-85497267D01*
X79276659Y-85444329D01*
X79424417Y-85427654D01*
X79574976Y-85449056D01*
G36*
X71855534Y-87944282D02*
G01*
X71942200Y-87860712D01*
X71954179Y-87853110D01*
X72005655Y-87828357D01*
X72069368Y-87813368D01*
X72158435Y-87806082D01*
X72264245Y-87804407D01*
X72494588Y-87804314D01*
X72494588Y-87707755D01*
X72484817Y-87632836D01*
X72459884Y-87582644D01*
X72456965Y-87579972D01*
X72401481Y-87558015D01*
X72317727Y-87549505D01*
X72225167Y-87553687D01*
X72143270Y-87569809D01*
X72094673Y-87593990D01*
X72068341Y-87613359D01*
X72040535Y-87617057D01*
X72002161Y-87601188D01*
X71944125Y-87561855D01*
X71857331Y-87495164D01*
X71849365Y-87488916D01*
X71853447Y-87465800D01*
X71887501Y-87427352D01*
X71939260Y-87384627D01*
X71996455Y-87348679D01*
X72014425Y-87340191D01*
X72079972Y-87323252D01*
X72176020Y-87311170D01*
X72283329Y-87306323D01*
X72288347Y-87306313D01*
X72442720Y-87315922D01*
X72559870Y-87347180D01*
X72649051Y-87403837D01*
X72711984Y-87478045D01*
X72731548Y-87509716D01*
X72745992Y-87542891D01*
X72756089Y-87585329D01*
X72762615Y-87644788D01*
X72766342Y-87729029D01*
X72768046Y-87845810D01*
X72768500Y-88002890D01*
X72768509Y-88044565D01*
X72768509Y-88526471D01*
X72648980Y-88526471D01*
X72572739Y-88521131D01*
X72516366Y-88507604D01*
X72502242Y-88499262D01*
X72463630Y-88484864D01*
X72424192Y-88499262D01*
X72359262Y-88517237D01*
X72264945Y-88524472D01*
X72160407Y-88521333D01*
X72064811Y-88508186D01*
X72009000Y-88491318D01*
X71900998Y-88421986D01*
X71833503Y-88325772D01*
X71803159Y-88197844D01*
X71802877Y-88194559D01*
X71805540Y-88137808D01*
X72046353Y-88137808D01*
X72067405Y-88202358D01*
X72101697Y-88238686D01*
X72170532Y-88266162D01*
X72261390Y-88277129D01*
X72354042Y-88271731D01*
X72428256Y-88250110D01*
X72449049Y-88236239D01*
X72485381Y-88172143D01*
X72494588Y-88099278D01*
X72494588Y-88003530D01*
X72356827Y-88003530D01*
X72225953Y-88013605D01*
X72126741Y-88042148D01*
X72065023Y-88086639D01*
X72046353Y-88137808D01*
X71805540Y-88137808D01*
X71809436Y-88054790D01*
X71855534Y-87944282D01*
G37*
X71855534Y-87944282D02*
X71942200Y-87860712D01*
X71954179Y-87853110D01*
X72005655Y-87828357D01*
X72069368Y-87813368D01*
X72158435Y-87806082D01*
X72264245Y-87804407D01*
X72494588Y-87804314D01*
X72494588Y-87707755D01*
X72484817Y-87632836D01*
X72459884Y-87582644D01*
X72456965Y-87579972D01*
X72401481Y-87558015D01*
X72317727Y-87549505D01*
X72225167Y-87553687D01*
X72143270Y-87569809D01*
X72094673Y-87593990D01*
X72068341Y-87613359D01*
X72040535Y-87617057D01*
X72002161Y-87601188D01*
X71944125Y-87561855D01*
X71857331Y-87495164D01*
X71849365Y-87488916D01*
X71853447Y-87465800D01*
X71887501Y-87427352D01*
X71939260Y-87384627D01*
X71996455Y-87348679D01*
X72014425Y-87340191D01*
X72079972Y-87323252D01*
X72176020Y-87311170D01*
X72283329Y-87306323D01*
X72288347Y-87306313D01*
X72442720Y-87315922D01*
X72559870Y-87347180D01*
X72649051Y-87403837D01*
X72711984Y-87478045D01*
X72731548Y-87509716D01*
X72745992Y-87542891D01*
X72756089Y-87585329D01*
X72762615Y-87644788D01*
X72766342Y-87729029D01*
X72768046Y-87845810D01*
X72768500Y-88002890D01*
X72768509Y-88044565D01*
X72768509Y-88526471D01*
X72648980Y-88526471D01*
X72572739Y-88521131D01*
X72516366Y-88507604D01*
X72502242Y-88499262D01*
X72463630Y-88484864D01*
X72424192Y-88499262D01*
X72359262Y-88517237D01*
X72264945Y-88524472D01*
X72160407Y-88521333D01*
X72064811Y-88508186D01*
X72009000Y-88491318D01*
X71900998Y-88421986D01*
X71833503Y-88325772D01*
X71803159Y-88197844D01*
X71802877Y-88194559D01*
X71805540Y-88137808D01*
X72046353Y-88137808D01*
X72067405Y-88202358D01*
X72101697Y-88238686D01*
X72170532Y-88266162D01*
X72261390Y-88277129D01*
X72354042Y-88271731D01*
X72428256Y-88250110D01*
X72449049Y-88236239D01*
X72485381Y-88172143D01*
X72494588Y-88099278D01*
X72494588Y-88003530D01*
X72356827Y-88003530D01*
X72225953Y-88013605D01*
X72126741Y-88042148D01*
X72065023Y-88086639D01*
X72046353Y-88137808D01*
X71805540Y-88137808D01*
X71809436Y-88054790D01*
X71855534Y-87944282D01*
G36*
X78677520Y-87562271D02*
G01*
X78749635Y-87444069D01*
X78852273Y-87363440D01*
X78986332Y-87319139D01*
X79058957Y-87310607D01*
X79209307Y-87312784D01*
X79328337Y-87343731D01*
X79428021Y-87407600D01*
X79476288Y-87455313D01*
X79555408Y-87568106D01*
X79600752Y-87698950D01*
X79616330Y-87859792D01*
X79616410Y-87872794D01*
X79616549Y-88003530D01*
X78864091Y-88003530D01*
X78880130Y-88072010D01*
X78909091Y-88134031D01*
X78959778Y-88198654D01*
X78970379Y-88208971D01*
X79061494Y-88264805D01*
X79165400Y-88274275D01*
X79285000Y-88237540D01*
X79305274Y-88227647D01*
X79367456Y-88197574D01*
X79409106Y-88180440D01*
X79416373Y-88178855D01*
X79441740Y-88194242D01*
X79490120Y-88231887D01*
X79514679Y-88252459D01*
X79565570Y-88299714D01*
X79582281Y-88330917D01*
X79570683Y-88359620D01*
X79564483Y-88367468D01*
X79522493Y-88401819D01*
X79453206Y-88443565D01*
X79404882Y-88467935D01*
X79267711Y-88510873D01*
X79115847Y-88524786D01*
X78972024Y-88508300D01*
X78931745Y-88496496D01*
X78807078Y-88429689D01*
X78714671Y-88326892D01*
X78653990Y-88187105D01*
X78624498Y-88009330D01*
X78621260Y-87916373D01*
X78630714Y-87781033D01*
X78869490Y-87781033D01*
X78892584Y-87791038D01*
X78954662Y-87798888D01*
X79044914Y-87803521D01*
X79106058Y-87804314D01*
X79216040Y-87803549D01*
X79285457Y-87799970D01*
X79323538Y-87791649D01*
X79339515Y-87776657D01*
X79342627Y-87754903D01*
X79321278Y-87687892D01*
X79267529Y-87621664D01*
X79196822Y-87570832D01*
X79126089Y-87550038D01*
X79030016Y-87568484D01*
X78946849Y-87621811D01*
X78889186Y-87698677D01*
X78869490Y-87781033D01*
X78630714Y-87781033D01*
X78635028Y-87719291D01*
X78677520Y-87562271D01*
G37*
X78677520Y-87562271D02*
X78749635Y-87444069D01*
X78852273Y-87363440D01*
X78986332Y-87319139D01*
X79058957Y-87310607D01*
X79209307Y-87312784D01*
X79328337Y-87343731D01*
X79428021Y-87407600D01*
X79476288Y-87455313D01*
X79555408Y-87568106D01*
X79600752Y-87698950D01*
X79616330Y-87859792D01*
X79616410Y-87872794D01*
X79616549Y-88003530D01*
X78864091Y-88003530D01*
X78880130Y-88072010D01*
X78909091Y-88134031D01*
X78959778Y-88198654D01*
X78970379Y-88208971D01*
X79061494Y-88264805D01*
X79165400Y-88274275D01*
X79285000Y-88237540D01*
X79305274Y-88227647D01*
X79367456Y-88197574D01*
X79409106Y-88180440D01*
X79416373Y-88178855D01*
X79441740Y-88194242D01*
X79490120Y-88231887D01*
X79514679Y-88252459D01*
X79565570Y-88299714D01*
X79582281Y-88330917D01*
X79570683Y-88359620D01*
X79564483Y-88367468D01*
X79522493Y-88401819D01*
X79453206Y-88443565D01*
X79404882Y-88467935D01*
X79267711Y-88510873D01*
X79115847Y-88524786D01*
X78972024Y-88508300D01*
X78931745Y-88496496D01*
X78807078Y-88429689D01*
X78714671Y-88326892D01*
X78653990Y-88187105D01*
X78624498Y-88009330D01*
X78621260Y-87916373D01*
X78630714Y-87781033D01*
X78869490Y-87781033D01*
X78892584Y-87791038D01*
X78954662Y-87798888D01*
X79044914Y-87803521D01*
X79106058Y-87804314D01*
X79216040Y-87803549D01*
X79285457Y-87799970D01*
X79323538Y-87791649D01*
X79339515Y-87776657D01*
X79342627Y-87754903D01*
X79321278Y-87687892D01*
X79267529Y-87621664D01*
X79196822Y-87570832D01*
X79126089Y-87550038D01*
X79030016Y-87568484D01*
X78946849Y-87621811D01*
X78889186Y-87698677D01*
X78869490Y-87781033D01*
X78630714Y-87781033D01*
X78635028Y-87719291D01*
X78677520Y-87562271D01*
G36*
X78747637Y-85437472D02*
G01*
X78833290Y-85463641D01*
X78888437Y-85496707D01*
X78906401Y-85522855D01*
X78901457Y-85553852D01*
X78869372Y-85602547D01*
X78842243Y-85637035D01*
X78786317Y-85699383D01*
X78744299Y-85725615D01*
X78708480Y-85723903D01*
X78602224Y-85696863D01*
X78524189Y-85698091D01*
X78460820Y-85728735D01*
X78439546Y-85746670D01*
X78371451Y-85809779D01*
X78371451Y-86633922D01*
X78097529Y-86633922D01*
X78097529Y-85438628D01*
X78234490Y-85438628D01*
X78316719Y-85441879D01*
X78359144Y-85453426D01*
X78371445Y-85475952D01*
X78371451Y-85476620D01*
X78377260Y-85500215D01*
X78403531Y-85497138D01*
X78439931Y-85480115D01*
X78515111Y-85448439D01*
X78576158Y-85429381D01*
X78654708Y-85424496D01*
X78747637Y-85437472D01*
G37*
X78747637Y-85437472D02*
X78833290Y-85463641D01*
X78888437Y-85496707D01*
X78906401Y-85522855D01*
X78901457Y-85553852D01*
X78869372Y-85602547D01*
X78842243Y-85637035D01*
X78786317Y-85699383D01*
X78744299Y-85725615D01*
X78708480Y-85723903D01*
X78602224Y-85696863D01*
X78524189Y-85698091D01*
X78460820Y-85728735D01*
X78439546Y-85746670D01*
X78371451Y-85809779D01*
X78371451Y-86633922D01*
X78097529Y-86633922D01*
X78097529Y-85438628D01*
X78234490Y-85438628D01*
X78316719Y-85441879D01*
X78359144Y-85453426D01*
X78371445Y-85475952D01*
X78371451Y-85476620D01*
X78377260Y-85500215D01*
X78403531Y-85497138D01*
X78439931Y-85480115D01*
X78515111Y-85448439D01*
X78576158Y-85429381D01*
X78654708Y-85424496D01*
X78747637Y-85437472D01*
G36*
X75741528Y-87311332D02*
G01*
X75840014Y-87318726D01*
X75968776Y-87704706D01*
X76097537Y-88090686D01*
X76137911Y-87953726D01*
X76162207Y-87869083D01*
X76194167Y-87754697D01*
X76228679Y-87628963D01*
X76246928Y-87561520D01*
X76315571Y-87306275D01*
X76598773Y-87306275D01*
X76514122Y-87573971D01*
X76472435Y-87705638D01*
X76422074Y-87864458D01*
X76369481Y-88030128D01*
X76322530Y-88177843D01*
X76215589Y-88514020D01*
X75984661Y-88529044D01*
X75922050Y-88322316D01*
X75883438Y-88193896D01*
X75841300Y-88052322D01*
X75804472Y-87927285D01*
X75803018Y-87922309D01*
X75775511Y-87837586D01*
X75751242Y-87779778D01*
X75734243Y-87757918D01*
X75730750Y-87760446D01*
X75718490Y-87794336D01*
X75695195Y-87866930D01*
X75663700Y-87969101D01*
X75626842Y-88091720D01*
X75606899Y-88159167D01*
X75498895Y-88526471D01*
X75269679Y-88526471D01*
X75086439Y-87947500D01*
X75034963Y-87785091D01*
X74988070Y-87637602D01*
X74947977Y-87511960D01*
X74916897Y-87415095D01*
X74897045Y-87353934D01*
X74891011Y-87336065D01*
X74895788Y-87317768D01*
X74933297Y-87309755D01*
X75011355Y-87310557D01*
X75023574Y-87311163D01*
X75168326Y-87318726D01*
X75263130Y-87667353D01*
X75297977Y-87794497D01*
X75329117Y-87906265D01*
X75353809Y-87992953D01*
X75369312Y-88044856D01*
X75372176Y-88053318D01*
X75384046Y-88043587D01*
X75407983Y-87993172D01*
X75441239Y-87908935D01*
X75481064Y-87797741D01*
X75514730Y-87697297D01*
X75643041Y-87303939D01*
X75741528Y-87311332D01*
G37*
X75741528Y-87311332D02*
X75840014Y-87318726D01*
X75968776Y-87704706D01*
X76097537Y-88090686D01*
X76137911Y-87953726D01*
X76162207Y-87869083D01*
X76194167Y-87754697D01*
X76228679Y-87628963D01*
X76246928Y-87561520D01*
X76315571Y-87306275D01*
X76598773Y-87306275D01*
X76514122Y-87573971D01*
X76472435Y-87705638D01*
X76422074Y-87864458D01*
X76369481Y-88030128D01*
X76322530Y-88177843D01*
X76215589Y-88514020D01*
X75984661Y-88529044D01*
X75922050Y-88322316D01*
X75883438Y-88193896D01*
X75841300Y-88052322D01*
X75804472Y-87927285D01*
X75803018Y-87922309D01*
X75775511Y-87837586D01*
X75751242Y-87779778D01*
X75734243Y-87757918D01*
X75730750Y-87760446D01*
X75718490Y-87794336D01*
X75695195Y-87866930D01*
X75663700Y-87969101D01*
X75626842Y-88091720D01*
X75606899Y-88159167D01*
X75498895Y-88526471D01*
X75269679Y-88526471D01*
X75086439Y-87947500D01*
X75034963Y-87785091D01*
X74988070Y-87637602D01*
X74947977Y-87511960D01*
X74916897Y-87415095D01*
X74897045Y-87353934D01*
X74891011Y-87336065D01*
X74895788Y-87317768D01*
X74933297Y-87309755D01*
X75011355Y-87310557D01*
X75023574Y-87311163D01*
X75168326Y-87318726D01*
X75263130Y-87667353D01*
X75297977Y-87794497D01*
X75329117Y-87906265D01*
X75353809Y-87992953D01*
X75369312Y-88044856D01*
X75372176Y-88053318D01*
X75384046Y-88043587D01*
X75407983Y-87993172D01*
X75441239Y-87908935D01*
X75481064Y-87797741D01*
X75514730Y-87697297D01*
X75643041Y-87303939D01*
X75741528Y-87311332D01*
G36*
X75749180Y-85739423D02*
G01*
X75815802Y-85604814D01*
X75914799Y-85508040D01*
X76046175Y-85449094D01*
X76074385Y-85442259D01*
X76243926Y-85426213D01*
X76393547Y-85453364D01*
X76519502Y-85521959D01*
X76618047Y-85630245D01*
X76664478Y-85718315D01*
X76684412Y-85796101D01*
X76697328Y-85906993D01*
X76702863Y-86034738D01*
X76700654Y-86163084D01*
X76690337Y-86275779D01*
X76678286Y-86335969D01*
X76637634Y-86418311D01*
X76567230Y-86505770D01*
X76482382Y-86582251D01*
X76398397Y-86631655D01*
X76396349Y-86632439D01*
X76292134Y-86654027D01*
X76168627Y-86654562D01*
X76051261Y-86634908D01*
X76005942Y-86619155D01*
X75889220Y-86552966D01*
X75805624Y-86466246D01*
X75750701Y-86351438D01*
X75719995Y-86200982D01*
X75713047Y-86122173D01*
X75713933Y-86023145D01*
X75980862Y-86023145D01*
X75989854Y-86167645D01*
X76015736Y-86277760D01*
X76056868Y-86348116D01*
X76086172Y-86368235D01*
X76161251Y-86382265D01*
X76250494Y-86378111D01*
X76327650Y-86357922D01*
X76347883Y-86346815D01*
X76401265Y-86282123D01*
X76436500Y-86183119D01*
X76451498Y-86062632D01*
X76444172Y-85933494D01*
X76427799Y-85855775D01*
X76380790Y-85765771D01*
X76306582Y-85709509D01*
X76217209Y-85690057D01*
X76124707Y-85710481D01*
X76053653Y-85760437D01*
X76016312Y-85801655D01*
X75994518Y-85842281D01*
X75984130Y-85897264D01*
X75981006Y-85981549D01*
X75980862Y-86023145D01*
X75713933Y-86023145D01*
X75714930Y-85911874D01*
X75749180Y-85739423D01*
G37*
X75749180Y-85739423D02*
X75815802Y-85604814D01*
X75914799Y-85508040D01*
X76046175Y-85449094D01*
X76074385Y-85442259D01*
X76243926Y-85426213D01*
X76393547Y-85453364D01*
X76519502Y-85521959D01*
X76618047Y-85630245D01*
X76664478Y-85718315D01*
X76684412Y-85796101D01*
X76697328Y-85906993D01*
X76702863Y-86034738D01*
X76700654Y-86163084D01*
X76690337Y-86275779D01*
X76678286Y-86335969D01*
X76637634Y-86418311D01*
X76567230Y-86505770D01*
X76482382Y-86582251D01*
X76398397Y-86631655D01*
X76396349Y-86632439D01*
X76292134Y-86654027D01*
X76168627Y-86654562D01*
X76051261Y-86634908D01*
X76005942Y-86619155D01*
X75889220Y-86552966D01*
X75805624Y-86466246D01*
X75750701Y-86351438D01*
X75719995Y-86200982D01*
X75713047Y-86122173D01*
X75713933Y-86023145D01*
X75980862Y-86023145D01*
X75989854Y-86167645D01*
X76015736Y-86277760D01*
X76056868Y-86348116D01*
X76086172Y-86368235D01*
X76161251Y-86382265D01*
X76250494Y-86378111D01*
X76327650Y-86357922D01*
X76347883Y-86346815D01*
X76401265Y-86282123D01*
X76436500Y-86183119D01*
X76451498Y-86062632D01*
X76444172Y-85933494D01*
X76427799Y-85855775D01*
X76380790Y-85765771D01*
X76306582Y-85709509D01*
X76217209Y-85690057D01*
X76124707Y-85710481D01*
X76053653Y-85760437D01*
X76016312Y-85801655D01*
X75994518Y-85842281D01*
X75984130Y-85897264D01*
X75981006Y-85981549D01*
X75980862Y-86023145D01*
X75713933Y-86023145D01*
X75714930Y-85911874D01*
X75749180Y-85739423D01*
D13*
%TO.C,R3*%
X56742000Y-88360000D02*
X56742000Y-81820000D01*
X56742000Y-81820000D02*
X56412000Y-81820000D01*
X54002000Y-88360000D02*
X54002000Y-81820000D01*
X54332000Y-88360000D02*
X54002000Y-88360000D01*
X56412000Y-88360000D02*
X56742000Y-88360000D01*
X54002000Y-81820000D02*
X54332000Y-81820000D01*
%TO.C,D2*%
X33503000Y-83545000D02*
X33503000Y-86635000D01*
X33503000Y-86634830D02*
G75*
G03*
X39053000Y-85089538I2560000J1544830D01*
G01*
X39053000Y-85090462D02*
G75*
G03*
X33503000Y-83545170I-2990000J462D01*
G01*
X38563000Y-85090000D02*
G75*
G03*
X38563000Y-85090000I-2500000J0D01*
G01*
%TO.C,R2*%
X41302000Y-88360000D02*
X41302000Y-81820000D01*
X44042000Y-88360000D02*
X44042000Y-81820000D01*
X41302000Y-81820000D02*
X41632000Y-81820000D01*
X44042000Y-81820000D02*
X43712000Y-81820000D01*
X41632000Y-88360000D02*
X41302000Y-88360000D01*
X43712000Y-88360000D02*
X44042000Y-88360000D01*
%TO.C,D3*%
X45954000Y-83545000D02*
X45954000Y-86635000D01*
X51504000Y-85090462D02*
G75*
G03*
X45954000Y-83545170I-2990000J462D01*
G01*
X45954000Y-86634830D02*
G75*
G03*
X51504000Y-85089538I2560000J1544830D01*
G01*
X51014000Y-85090000D02*
G75*
G03*
X51014000Y-85090000I-2500000J0D01*
G01*
%TD*%
M02*
