%TF.GenerationSoftware,KiCad,Pcbnew,(6.0.9)*%
%TF.CreationDate,2023-01-27T11:08:56+01:00*%
%TF.ProjectId,picoflasher,7069636f-666c-4617-9368-65722e6b6963,rev?*%
%TF.SameCoordinates,Original*%
%TF.FileFunction,Soldermask,Top*%
%TF.FilePolarity,Negative*%
%FSLAX46Y46*%
G04 Gerber Fmt 4.6, Leading zero omitted, Abs format (unit mm)*
G04 Created by KiCad (PCBNEW (6.0.9)) date 2023-01-27 11:08:56*
%MOMM*%
%LPD*%
G01*
G04 APERTURE LIST*
G04 Aperture macros list*
%AMRoundRect*
0 Rectangle with rounded corners*
0 $1 Rounding radius*
0 $2 $3 $4 $5 $6 $7 $8 $9 X,Y pos of 4 corners*
0 Add a 4 corners polygon primitive as box body*
4,1,4,$2,$3,$4,$5,$6,$7,$8,$9,$2,$3,0*
0 Add four circle primitives for the rounded corners*
1,1,$1+$1,$2,$3*
1,1,$1+$1,$4,$5*
1,1,$1+$1,$6,$7*
1,1,$1+$1,$8,$9*
0 Add four rect primitives between the rounded corners*
20,1,$1+$1,$2,$3,$4,$5,0*
20,1,$1+$1,$4,$5,$6,$7,0*
20,1,$1+$1,$6,$7,$8,$9,0*
20,1,$1+$1,$8,$9,$2,$3,0*%
G04 Aperture macros list end*
%ADD10RoundRect,0.250000X0.350000X0.450000X-0.350000X0.450000X-0.350000X-0.450000X0.350000X-0.450000X0*%
%ADD11O,1.500000X1.500000*%
%ADD12O,1.800000X1.800000*%
%ADD13O,1.700000X1.700000*%
%ADD14R,3.500000X1.700000*%
%ADD15R,1.700000X1.700000*%
%ADD16R,1.700000X3.500000*%
%ADD17R,1.440000X2.000000*%
%ADD18O,1.440000X2.000000*%
%ADD19C,2.000000*%
%ADD20C,3.200000*%
G04 APERTURE END LIST*
D10*
%TO.C,R1*%
X36306000Y-85090000D03*
X34306000Y-85090000D03*
%TD*%
D11*
%TO.C,U4*%
X98945000Y-39990000D03*
X94095000Y-39990000D03*
D12*
X93795000Y-36960000D03*
X99245000Y-36960000D03*
D13*
X87630000Y-36830000D03*
D14*
X86730000Y-36830000D03*
X86730000Y-39370000D03*
D13*
X87630000Y-39370000D03*
D15*
X87630000Y-41910000D03*
D14*
X86730000Y-41910000D03*
D13*
X87630000Y-44450000D03*
D14*
X86730000Y-44450000D03*
X86730000Y-46990000D03*
D13*
X87630000Y-46990000D03*
D14*
X86730000Y-49530000D03*
D13*
X87630000Y-49530000D03*
X87630000Y-52070000D03*
D14*
X86730000Y-52070000D03*
X86730000Y-54610000D03*
D15*
X87630000Y-54610000D03*
D13*
X87630000Y-57150000D03*
D14*
X86730000Y-57150000D03*
X86730000Y-59690000D03*
D13*
X87630000Y-59690000D03*
D14*
X86730000Y-62230000D03*
D13*
X87630000Y-62230000D03*
D14*
X86730000Y-64770000D03*
D13*
X87630000Y-64770000D03*
D14*
X86730000Y-67310000D03*
D15*
X87630000Y-67310000D03*
D13*
X87630000Y-69850000D03*
D14*
X86730000Y-69850000D03*
X86730000Y-72390000D03*
D13*
X87630000Y-72390000D03*
X87630000Y-74930000D03*
D14*
X86730000Y-74930000D03*
X86730000Y-77470000D03*
D13*
X87630000Y-77470000D03*
D14*
X86730000Y-80010000D03*
D15*
X87630000Y-80010000D03*
D13*
X87630000Y-82550000D03*
D14*
X86730000Y-82550000D03*
X86730000Y-85090000D03*
D13*
X87630000Y-85090000D03*
D14*
X106310000Y-85090000D03*
D13*
X105410000Y-85090000D03*
X105410000Y-82550000D03*
D14*
X106310000Y-82550000D03*
D15*
X105410000Y-80010000D03*
D14*
X106310000Y-80010000D03*
X106310000Y-77470000D03*
D13*
X105410000Y-77470000D03*
D14*
X106310000Y-74930000D03*
D13*
X105410000Y-74930000D03*
D14*
X106310000Y-72390000D03*
D13*
X105410000Y-72390000D03*
X105410000Y-69850000D03*
D14*
X106310000Y-69850000D03*
D15*
X105410000Y-67310000D03*
D14*
X106310000Y-67310000D03*
X106310000Y-64770000D03*
D13*
X105410000Y-64770000D03*
X105410000Y-62230000D03*
D14*
X106310000Y-62230000D03*
D13*
X105410000Y-59690000D03*
D14*
X106310000Y-59690000D03*
D13*
X105410000Y-57150000D03*
D14*
X106310000Y-57150000D03*
X106310000Y-54610000D03*
D15*
X105410000Y-54610000D03*
D14*
X106310000Y-52070000D03*
D13*
X105410000Y-52070000D03*
D14*
X106310000Y-49530000D03*
D13*
X105410000Y-49530000D03*
D14*
X106310000Y-46990000D03*
D13*
X105410000Y-46990000D03*
X105410000Y-44450000D03*
D14*
X106310000Y-44450000D03*
D15*
X105410000Y-41910000D03*
D14*
X106310000Y-41910000D03*
D13*
X105410000Y-39370000D03*
D14*
X106310000Y-39370000D03*
D13*
X105410000Y-36830000D03*
D14*
X106310000Y-36830000D03*
D13*
X93980000Y-84860000D03*
D16*
X93980000Y-85760000D03*
X96520000Y-85760000D03*
D15*
X96520000Y-84860000D03*
D16*
X99060000Y-85760000D03*
D13*
X99060000Y-84860000D03*
%TD*%
D17*
%TO.C,U2*%
X25790000Y-74202500D03*
D18*
X28330000Y-74202500D03*
X30870000Y-74202500D03*
X33410000Y-74202500D03*
X35950000Y-74202500D03*
X38490000Y-74202500D03*
X41030000Y-74202500D03*
X43570000Y-74202500D03*
X46110000Y-74202500D03*
X48650000Y-74202500D03*
X51190000Y-74202500D03*
X53730000Y-74202500D03*
X56270000Y-74202500D03*
X58810000Y-74202500D03*
X61350000Y-74202500D03*
X63890000Y-74202500D03*
X63890000Y-58962500D03*
X61350000Y-58962500D03*
X58810000Y-58962500D03*
X56270000Y-58962500D03*
X53730000Y-58962500D03*
X51190000Y-58962500D03*
X48650000Y-58962500D03*
X46110000Y-58962500D03*
X43570000Y-58962500D03*
X41030000Y-58962500D03*
X38490000Y-58962500D03*
X35950000Y-58962500D03*
X33410000Y-58962500D03*
X30870000Y-58962500D03*
X28330000Y-58962500D03*
X25790000Y-58962500D03*
%TD*%
D19*
%TO.C,SW1*%
X23166000Y-87340000D03*
X29666000Y-87340000D03*
X29666000Y-82840000D03*
X23166000Y-82840000D03*
%TD*%
D20*
%TO.C,H2*%
X17526000Y-86614000D03*
%TD*%
%TO.C,H3*%
X112014000Y-86614000D03*
%TD*%
%TO.C,H1*%
X17526000Y-39116000D03*
%TD*%
%TO.C,H4*%
X112014000Y-39116000D03*
%TD*%
M02*
